<?xml version="1.0" encoding="utf-8"?>
<!-- Generator: Adobe Illustrator 24.2.0, SVG Export Plug-In . SVG Version: 6.00 Build 0)  -->
<svg version="1.1" id="Layer_1" xmlns="http://www.w3.org/2000/svg" xmlns:xlink="http://www.w3.org/1999/xlink" x="0px" y="0px"
	 viewBox="0 0 154 60" style="enable-background:new 0 0 154 60;" xml:space="preserve">
<style type="text/css">
	.st0{fill:#FFFFFF;}
</style>
<g>
	<g>
		<path class="st0" d="M114.5,19.7c5.3,0,10.5,0.3,15.6,1.8c2.3,0.7,4.5,1.6,6.6,2.6c3.7,1.8,6,4.7,7,8.7c0.3,1.1,0.5,1.2,1.6,1.3
			c1.9,0.2,3.8,0.4,5.6,0.7c2,0.4,3.1,2.4,2.7,4.5c-0.4,2-2.3,3.2-4.2,2.9c-1.1-0.2-2.3-0.3-3.4-0.5c-1.1-0.1-1.4,0.2-1.7,1.3
			c-1.8,8.3-6.8,14-15,16.3c-3.5,1-7.1,0.9-10.6,0c-3-0.8-4.9-2.8-5.6-5.8c-1.2-4.6-0.6-9,2.2-12.9c2-2.8,4.9-4.4,8.2-5.4
			c3.4-1,7-1.3,10.5-1.4c0.4,0,0.8,0,1.2-0.1c0.9-0.2,1.1-0.6,0.4-1.3c-0.6-0.6-1.3-1.1-2-1.5c-2.5-1.5-5.2-2.2-8-2.7
			c-5.4-1-10.9-1.1-16.3-0.8c-3.6,0.3-7.2,0.8-10.5,2.3c-0.6,0.3-1.2,0.6-1.8,1c-0.9,0.7-1.1,1.6-0.5,2.6c0.4,0.6,1,1.2,1.6,1.6
			c1.1,0.7,2.3,1.3,3.4,1.9c2.4,1.3,4.7,2.8,6,5.3c3.3,6.4,0.6,13.8-6.2,16.4C94.2,61.3,87.6,60,81.8,55c-1.9-1.6-3.1-3.8-3.8-6.3
			c-0.1-0.5-0.3-1.1-0.5-1.6c-0.2-0.6-0.6-0.6-0.9-0.1c-0.4,0.5-0.7,1-1,1.6c-1.5,2.6-2.9,5.3-5,7.5c-1.6,1.8-3.4,3.2-5.8,3.6
			c-3.9,0.6-6.9-1.1-9.2-4.2c-1.3-1.8-1.8-3.9-2.5-5.9c-0.1-0.4-0.3-0.8-0.4-1.2C52.4,47.3,52,47.1,51,48c-1,0.8-1.9,1.7-2.9,2.5
			c-3.2,2.9-6.6,5.5-10.6,7.3c-5,2.2-10.2,2.7-15.6,1.5c-3.3-0.7-5.8-2.6-7.6-5.5c-1.4-2.2-2.6-4.5-3.2-7c-0.3-1.2-1-1.6-2.1-1.8
			c-2-0.3-4-0.7-5.9-1.2c-1.6-0.4-2.7-1.7-2.8-3.3c-0.1-2,0.7-3.5,2.4-4c0.7-0.2,1.6-0.1,2.4,0c1.2,0.2,2.3,0.5,3.5,0.7
			c1.6,0.3,1.8,0.1,2.1-1.4c0.9-3.8,2.6-7.1,5.3-9.9c3.6-3.6,7.8-5.8,12.9-6.3c2.6-0.2,5.1-0.1,7.6,0.7c3.5,1.1,5.5,3.8,6.1,7.3
			c1.3,6.8-2.3,13.4-9.6,16.1c-3.9,1.4-7.9,1.8-12,1.9c-0.5,0-0.9,0-1.4,0.1c-0.6,0.1-0.8,0.4-0.7,1c0.1,0.2,0.2,0.5,0.3,0.7
			c2.2,3.9,6,5.3,10.4,4.7c5.1-0.7,9.3-3.2,13.1-6.4c2.1-1.8,4-3.8,6-5.7c1.1-1.1,1.4-2.4,1.1-3.9c-1-5.7-1.9-11.4-2-17.2
			c-0.1-4.3,0.4-8.6,2.1-12.6c1.1-2.5,2.7-4.7,5.3-5.9c2.9-1.3,8.4-0.6,10.9,3.2c1.9,2.8,2.6,5.8,2.4,9.1
			c-0.4,5.8-1.8,11.4-4.1,16.8c-1.4,3.4-3.2,6.5-5.4,9.5c-0.6,0.8-0.8,1.7-0.5,2.7c0.7,2.3,1.3,4.7,2.1,7c0.2,0.8,0.7,1.5,1.2,2.1
			c0.9,1.1,2,1.2,3,0.2c0.9-0.9,1.8-1.9,2.5-2.9c3.2-4.7,5.7-9.8,7.2-15.3c0.8-3,1.1-6.1,0.8-9.2c-0.1-0.6,0-1.2,0.1-1.7
			c0.2-1.1,0.8-1.9,2-2.2c1.4-0.3,2.7-0.2,3.8,0.9c1,1.1,1.4,2.5,1.5,3.9c0.4,4.7,0.8,9.4,1.2,14.1c0.2,2.2,0.5,4.5,1,6.6
			c0.5,2.1,1.5,4,3.1,5.5c2.6,2.4,5.7,2.4,8.9,1.8c1.8-0.3,3.4-1.1,4.3-2.9c0.8-1.7,0.7-3.3-0.7-4.5c-1-0.9-2.1-1.7-3.3-2.3
			c-2.2-1.3-4.4-2.5-6.2-4.3c-3.6-3.6-3.8-8.4-0.4-12.2c2.1-2.4,4.9-3.8,7.9-4.8c4.5-1.5,9.2-1.9,13.9-2c0.4,0,0.7,0,1.1,0
			C113.8,19.7,114.2,19.7,114.5,19.7z M20,38.1c3.1-0.1,6.2-0.2,9.3-1c3.1-0.8,5.2-2.7,6.1-5.7c0.5-1.7-0.1-3.1-1.7-3.8
			C32.9,27.2,32,27,31.2,27c-4.3-0.4-10.9,3.2-12.9,8.8C17.5,37.8,17.8,38.2,20,38.1z M134.2,41.5C134.2,41.5,134.2,41.5,134.2,41.5
			c-1.1,0-2.2,0.1-3.3,0.2c-2.4,0.2-4.9,0.5-7.1,1.5c-2.1,0.9-3.4,2.5-3.9,4.8c-0.5,2.5,0.9,4.3,3.4,4.3c3.4,0,6.5-0.9,9.3-3
			c2.1-1.6,3.5-3.7,4.2-6.2c0.3-1-0.1-1.5-1.1-1.6C135.2,41.5,134.7,41.5,134.2,41.5z M56.2,29.4c0.1,0,0.2,0,0.3,0.1
			c0.3-0.5,0.6-0.9,0.8-1.4c0.9-2.4,1.9-4.8,2.6-7.3c0.9-3.1,1.6-6.3,1.5-9.6c0-1.4-0.2-2.8-1.2-3.9c-0.5-0.5-1.1-0.7-1.8-0.6
			c-1.2,0.3-2,1.1-2.4,2.2c-0.4,1.4-0.8,2.9-0.9,4.4c-0.3,4.2-0.1,8.4,0.4,12.6C55.8,27,56,28.2,56.2,29.4z"/>
		<path class="st0" d="M73.8,8.7c0-2.4,1.7-4.2,4-4.2c2.6,0,4.9,2.4,4.9,5.1c0,2.4-1.7,4.2-4,4.2C76,13.8,73.8,11.5,73.8,8.7z"/>
	</g>
</g>
</svg>
