<?xml version="1.0" encoding="utf-8"?>
<!-- Generator: Adobe Illustrator 24.1.0, SVG Export Plug-In . SVG Version: 6.00 Build 0)  -->
<svg version="1.1" id="Layer_1" xmlns="http://www.w3.org/2000/svg" xmlns:xlink="http://www.w3.org/1999/xlink" x="0px" y="0px"
	 viewBox="0 0 500 102" style="enable-background:new 0 0 500 102;" xml:space="preserve">
<style type="text/css">
	.st0{fill:#ED1C24;}
	.st1{fill:#FFFFFF;}
</style>
<g>
	<path d="M200,31.8c0-0.2,0.1-0.3,0.3-0.3h1.1c0.2,0,0.3,0.1,0.3,0.3v21.7c0,0.2-0.1,0.3-0.3,0.3h-1.1c-0.2,0-0.3-0.1-0.3-0.3v-10
		c0-0.1,0-0.1-0.1-0.1h-6.3c-0.1,0-0.1,0-0.1,0.1v10c0,0.2-0.1,0.3-0.3,0.3h-1.1c-0.2,0-0.3-0.1-0.3-0.3V31.8c0-0.2,0.1-0.3,0.3-0.3
		h1.1c0.2,0,0.3,0.1,0.3,0.3v10c0,0.1,0,0.1,0.1,0.1h6.3c0.1,0,0.1,0,0.1-0.1V31.8z M215.6,53.9c-0.2,0-0.3-0.1-0.4-0.3l-0.9-4.2
		c0,0,0-0.1-0.1-0.1c0,0-0.1,0-0.1,0H208c0,0-0.1,0-0.1,0c0,0,0,0,0,0.1l-0.9,4.2c0,0.2-0.1,0.3-0.4,0.3h-1.1c-0.1,0-0.2,0-0.3-0.1
		c0-0.1-0.1-0.2,0-0.3l4.9-21.7c0-0.2,0.2-0.3,0.4-0.3h1.3c0.2,0,0.3,0.1,0.4,0.3l4.9,21.7v0.1c0,0.2-0.1,0.3-0.3,0.3L215.6,53.9
		L215.6,53.9z M208.2,47.7c0,0.1,0,0.1,0.1,0.1h5.6c0.1,0,0.1,0,0.1-0.1l-2.8-13.5c0-0.1,0-0.1-0.1-0.1s0,0-0.1,0.1L208.2,47.7z
		 M230,53.9c-0.2,0-0.3-0.1-0.4-0.3l-0.9-4.2c0,0,0-0.1-0.1-0.1c0,0-0.1,0-0.1,0h-6.3c0,0-0.1,0-0.1,0c0,0,0,0,0,0.1l-0.9,4.2
		c0,0.2-0.1,0.3-0.4,0.3H220c-0.1,0-0.2,0-0.3-0.1c0-0.1-0.1-0.2,0-0.3l4.9-21.7c0-0.2,0.2-0.3,0.4-0.3h1.3c0.2,0,0.3,0.1,0.4,0.3
		l4.9,21.7v0.1c0,0.2-0.1,0.3-0.3,0.3L230,53.9L230,53.9z M222.6,47.7c0,0.1,0,0.1,0.1,0.1h5.6c0.1,0,0.1,0,0.1-0.1l-2.8-13.5
		c0-0.1,0-0.1-0.1-0.1s0,0-0.1,0.1L222.6,47.7z M240.2,31.4c1.5,0,2.7,0.6,3.6,1.7c0.9,1.1,1.4,2.6,1.4,4.4s-0.5,3.3-1.4,4.3
		c-0.9,1.1-2.1,1.6-3.6,1.6h-3.6c-0.1,0-0.1,0-0.1,0.1v9.9c0,0.2-0.1,0.3-0.3,0.3h-1.1c-0.2,0-0.3-0.1-0.3-0.3V31.8
		c0-0.2,0.1-0.3,0.3-0.3H240.2z M240,42.1c1,0,1.9-0.4,2.5-1.2s1-1.9,1-3.3c0-1.4-0.3-2.5-1-3.3c-0.6-0.8-1.5-1.2-2.5-1.2h-3.3
		c-0.1,0-0.1,0-0.1,0.1v8.9c0,0.1,0,0.1,0.1,0.1C236.7,42.1,240,42.1,240,42.1z M253.5,54.1c-1.5,0-2.7-0.5-3.7-1.5
		c-0.9-1-1.4-2.4-1.4-4.1v-0.7c0-0.2,0.1-0.3,0.3-0.3h1c0.2,0,0.3,0.1,0.3,0.3v0.6c0,1.3,0.3,2.3,0.9,3c0.6,0.8,1.5,1.2,2.5,1.2
		s1.8-0.4,2.5-1.1c0.7-0.8,1-1.7,1-2.9c0-0.8-0.2-1.5-0.5-2c-0.3-0.6-0.7-1.1-1.2-1.5c-0.5-0.4-1.2-1-2.3-1.9c-1.1-0.8-2-1.5-2.6-2
		c-0.6-0.5-1.1-1.2-1.4-2c-0.4-0.8-0.6-1.7-0.6-2.7c0-1.6,0.5-2.9,1.4-3.9c0.9-0.9,2.1-1.4,3.6-1.4c1.6,0,2.8,0.5,3.7,1.6
		c0.9,1,1.4,2.4,1.4,4.1v0.8c0,0.2-0.1,0.3-0.3,0.3h-1c-0.2,0-0.3-0.1-0.3-0.3v-0.8c0-1.3-0.3-2.3-1-3c-0.6-0.8-1.4-1.2-2.5-1.2
		c-0.9,0-1.7,0.3-2.3,1c-0.6,0.7-0.9,1.6-0.9,2.8c0,0.7,0.1,1.3,0.4,1.9c0.3,0.5,0.7,1,1.1,1.5c0.5,0.5,1.3,1.1,2.3,1.8
		c1.3,0.9,2.2,1.7,2.8,2.3c0.6,0.6,1.1,1.2,1.4,1.9c0.3,0.7,0.5,1.5,0.5,2.5c0,1.8-0.5,3.1-1.4,4.2C256.2,53.6,255,54.1,253.5,54.1z
		 M271.4,53.9c-0.2,0-0.3-0.1-0.4-0.3l-0.9-4.2c0,0,0-0.1-0.1-0.1c0,0,0,0-0.1,0h-6.3c0,0-0.1,0-0.1,0c0,0,0,0,0,0.1l-0.9,4.2
		c0,0.2-0.1,0.3-0.4,0.3h-1c-0.1,0-0.2,0-0.3-0.1c0-0.1,0-0.2,0-0.3l4.9-21.7c0-0.2,0.2-0.3,0.4-0.3h1.3c0.2,0,0.3,0.1,0.4,0.3
		l4.9,21.7v0.1c0,0.2-0.1,0.3-0.3,0.3L271.4,53.9L271.4,53.9z M264,47.7c0,0.1,0,0.1,0.1,0.1h5.6c0.1,0,0.1,0,0.1-0.1L267,34.2
		c0-0.1,0-0.1-0.1-0.1s0,0-0.1,0.1L264,47.7z M276.6,53.9c-0.2,0-0.3-0.1-0.3-0.3V31.8c0-0.2,0.1-0.3,0.3-0.3h1
		c0.2,0,0.3,0.1,0.3,0.3v20.4c0,0.1,0,0.1,0.1,0.1h7.5c0.2,0,0.3,0.1,0.3,0.3v0.9c0,0.2-0.1,0.3-0.3,0.3
		C285.6,53.9,276.6,53.9,276.6,53.9z M294.4,54.1c-1.6,0-2.8-0.5-3.8-1.6c-1-1.1-1.4-2.6-1.4-4.4V31.8c0-0.2,0.1-0.3,0.3-0.3h1
		c0.2,0,0.3,0.1,0.3,0.3v16.5c0,1.3,0.3,2.3,1,3.2c0.7,0.8,1.5,1.2,2.6,1.2c1.1,0,1.9-0.4,2.6-1.2c0.7-0.8,1-1.9,1-3.2V31.8
		c0-0.2,0.1-0.3,0.3-0.3h1c0.2,0,0.3,0.1,0.3,0.3v16.3c0,1.8-0.5,3.3-1.5,4.4S296,54.1,294.4,54.1z M316.8,54.1
		c-1.6,0-2.8-0.5-3.8-1.5c-1-1-1.4-2.3-1.4-3.9V36.6c0-1.6,0.5-2.9,1.4-3.9c1-1,2.2-1.5,3.8-1.5s2.9,0.5,3.8,1.5
		c1,1,1.5,2.3,1.5,3.9v12.1c0,1.6-0.5,2.9-1.5,3.9C319.7,53.6,318.4,54.1,316.8,54.1z M316.8,52.6c1.1,0,1.9-0.3,2.6-1
		c0.7-0.7,1-1.6,1-2.8V36.6c0-1.1-0.3-2-1-2.8c-0.7-0.7-1.5-1.1-2.6-1.1c-1,0-1.9,0.4-2.6,1.1c-0.7,0.7-1,1.6-1,2.8v12.2
		c0,1.1,0.3,2,1,2.8S315.8,52.6,316.8,52.6z M318.8,28c-0.3,0-0.6,0-0.8-0.2c-0.2-0.1-0.5-0.3-0.9-0.5c-0.1,0-0.2-0.1-0.4-0.3
		c-0.2-0.1-0.4-0.3-0.5-0.3s-0.3-0.1-0.5-0.1c-0.3,0-0.6,0.1-0.8,0.2c-0.2,0.1-0.4,0.3-0.7,0.7c-0.1,0.2-0.3,0.2-0.5,0.1l-0.4-0.3
		c-0.2-0.1-0.2-0.2-0.1-0.4c0.6-1,1.4-1.5,2.3-1.5c0.3,0,0.6,0.1,0.9,0.2s0.6,0.3,0.9,0.5c0.1,0.1,0.3,0.2,0.5,0.3
		c0.2,0.1,0.4,0.2,0.5,0.3c0.2,0.1,0.3,0.1,0.5,0.1c0.3,0,0.5-0.1,0.7-0.2c0.2-0.1,0.5-0.4,0.7-0.8c0.1-0.2,0.3-0.3,0.5-0.1l0.4,0.2
		c0.1,0.1,0.1,0.1,0.1,0.3s0,0.2-0.1,0.4c-0.3,0.5-0.7,0.9-1.1,1.1C319.5,27.9,319.1,28,318.8,28z M332.3,54.1
		c-1.6,0-2.8-0.5-3.8-1.6c-1-1.1-1.4-2.6-1.4-4.4V31.8c0-0.2,0.1-0.3,0.3-0.3h1c0.2,0,0.3,0.1,0.3,0.3v16.5c0,1.3,0.3,2.3,1,3.2
		c0.7,0.8,1.5,1.2,2.6,1.2s1.9-0.4,2.6-1.2c0.7-0.8,1-1.9,1-3.2V31.8c0-0.2,0.1-0.3,0.3-0.3h1c0.2,0,0.3,0.1,0.3,0.3v16.3
		c0,1.8-0.5,3.3-1.5,4.4C335.1,53.6,333.9,54.1,332.3,54.1z M342.8,53.9c-0.2,0-0.3-0.1-0.3-0.3V31.8c0-0.2,0.1-0.3,0.3-0.3h4.7
		c1.6,0,2.8,0.5,3.7,1.6c0.9,1,1.4,2.5,1.4,4.3V48c0,1.8-0.5,3.2-1.4,4.3c-0.9,1-2.2,1.6-3.7,1.6C347.5,53.9,342.8,53.9,342.8,53.9z
		 M344.2,52.2c0,0.1,0,0.1,0.1,0.1h3.2c1,0,1.9-0.4,2.5-1.2c0.6-0.8,0.9-1.9,0.9-3.2V37.4c0-1.4-0.3-2.5-0.9-3.3
		c-0.6-0.8-1.4-1.2-2.5-1.2h-3.2c-0.1,0-0.1,0-0.1,0.1V52.2z M363,54.1c-1.6,0-2.8-0.5-3.8-1.6c-1-1.1-1.4-2.6-1.4-4.4V31.8
		c0-0.2,0.1-0.3,0.3-0.3h1c0.2,0,0.3,0.1,0.3,0.3v16.5c0,1.3,0.3,2.3,1,3.2c0.7,0.8,1.5,1.2,2.6,1.2s1.9-0.4,2.6-1.2
		c0.7-0.8,1-1.9,1-3.2V31.8c0-0.2,0.1-0.3,0.3-0.3h1c0.2,0,0.3,0.1,0.3,0.3v16.3c0,1.8-0.5,3.3-1.5,4.4
		C365.9,53.6,364.6,54.1,363,54.1z M377.7,54.1c-1.5,0-2.7-0.5-3.7-1.5c-0.9-1-1.4-2.4-1.4-4.1v-0.7c0-0.2,0.1-0.3,0.3-0.3h1
		c0.2,0,0.3,0.1,0.3,0.3v0.6c0,1.3,0.3,2.3,0.9,3c0.6,0.8,1.5,1.2,2.5,1.2s1.8-0.4,2.5-1.1s1-1.7,1-2.9c0-0.8-0.2-1.5-0.5-2
		c-0.3-0.6-0.7-1.1-1.2-1.5c-0.5-0.4-1.2-1-2.3-1.9c-1.1-0.8-2-1.5-2.6-2c-0.6-0.5-1-1.2-1.4-2c-0.4-0.8-0.6-1.7-0.6-2.7
		c0-1.6,0.5-2.9,1.4-3.9c0.9-0.9,2.1-1.4,3.5-1.4c1.6,0,2.8,0.5,3.7,1.6c0.9,1,1.4,2.4,1.4,4.1v0.8c0,0.2-0.1,0.3-0.3,0.3h-1
		c-0.2,0-0.3-0.1-0.3-0.3v-0.8c0-1.3-0.3-2.3-1-3c-0.6-0.8-1.5-1.2-2.5-1.2c-0.9,0-1.7,0.3-2.3,1c-0.6,0.7-0.9,1.6-0.9,2.8
		c0,0.7,0.1,1.3,0.4,1.9c0.3,0.5,0.7,1,1.1,1.5c0.5,0.5,1.3,1.1,2.3,1.8c1.3,0.9,2.2,1.7,2.8,2.3c0.6,0.6,1.1,1.2,1.4,1.9
		c0.3,0.7,0.5,1.5,0.5,2.5c0,1.8-0.5,3.1-1.4,4.2C380.5,53.6,379.2,54.1,377.7,54.1z M386.3,44.6c-0.2,0-0.3-0.1-0.3-0.3v-0.9
		c0-0.2,0.1-0.3,0.3-0.3h7.1c0.2,0,0.3,0.1,0.3,0.3v0.9c0,0.2-0.1,0.3-0.3,0.3H386.3z M408.3,54.1c-1.5,0-2.7-0.5-3.7-1.4
		c-0.9-1-1.4-2.2-1.4-3.8v-2.8c0-0.2,0.1-0.3,0.3-0.3h1c0.2,0,0.3,0.1,0.3,0.3v2.8c0,1.1,0.3,2,0.9,2.7s1.4,1,2.4,1s1.8-0.3,2.4-1
		s0.9-1.6,0.9-2.7V31.8c0-0.2,0.1-0.3,0.3-0.3h1c0.2,0,0.3,0.1,0.3,0.3v17.1c0,1.6-0.5,2.8-1.4,3.8C411,53.6,409.8,54.1,408.3,54.1z
		 M427.1,53.9c-0.2,0-0.3-0.1-0.4-0.3l-0.9-4.2c0,0,0-0.1-0.1-0.1c0,0,0,0-0.1,0h-6.3c0,0-0.1,0-0.1,0c0,0,0,0,0,0.1l-0.9,4.2
		c0,0.2-0.1,0.3-0.4,0.3h-1c-0.1,0-0.2,0-0.3-0.1c0-0.1,0-0.2,0-0.3l4.9-21.7c0-0.2,0.2-0.3,0.4-0.3h1.3c0.2,0,0.3,0.1,0.4,0.3
		l4.9,21.7v0.1c0,0.2-0.1,0.3-0.3,0.3L427.1,53.9L427.1,53.9z M419.6,47.7c0,0.1,0,0.1,0.1,0.1h5.6c0.1,0,0.1,0,0.1-0.1l-2.8-13.5
		c0-0.1,0-0.1-0.1-0.1s0,0-0.1,0.1L419.6,47.7z M201.4,66.6c0,0.2-0.1,0.3-0.3,0.3h-7.5c-0.1,0-0.1,0-0.1,0.1v8.7
		c0,0.1,0,0.1,0.1,0.1h4.8c0.2,0,0.3,0.1,0.3,0.3V77c0,0.2-0.1,0.3-0.3,0.3h-4.8c-0.1,0-0.1,0-0.1,0.1v10c0,0.2-0.1,0.3-0.3,0.3
		h-1.1c-0.2,0-0.3-0.1-0.3-0.3V65.8c0-0.2,0.1-0.3,0.3-0.3h9c0.2,0,0.3,0.1,0.3,0.3L201.4,66.6L201.4,66.6z M212.6,87.8
		c-0.2,0-0.3-0.1-0.4-0.3l-0.9-4.2c0,0,0-0.1-0.1-0.1c0,0-0.1,0-0.1,0h-6.3c0,0-0.1,0-0.1,0c0,0,0,0.1,0,0.1l-0.9,4.2
		c0,0.2-0.1,0.3-0.4,0.3h-1.1c-0.1,0-0.2,0-0.3-0.1c0-0.1-0.1-0.2,0-0.3l4.9-21.7c0-0.2,0.2-0.3,0.4-0.3h1.3c0.2,0,0.3,0.1,0.4,0.3
		l4.9,21.7v0.1c0,0.2-0.1,0.3-0.3,0.3L212.6,87.8L212.6,87.8z M205.1,81.7c0,0.1,0,0.1,0.1,0.1h5.6c0.1,0,0.1,0,0.1-0.1l-2.8-13.5
		c0-0.1,0-0.1-0.1-0.1s0,0-0.1,0.1L205.1,81.7z M226.3,65.8c0-0.2,0.1-0.3,0.3-0.3h1c0.2,0,0.3,0.1,0.3,0.3v21.7
		c0,0.2-0.1,0.3-0.3,0.3h-1.2c-0.2,0-0.3-0.1-0.4-0.3l-6.8-17.9c0-0.1-0.1-0.1-0.1-0.1c0,0-0.1,0-0.1,0.1l0,17.8
		c0,0.2-0.1,0.3-0.3,0.3h-1.1c-0.2,0-0.3-0.1-0.3-0.3V65.8c0-0.2,0.1-0.3,0.3-0.3h1.2c0.2,0,0.3,0.1,0.4,0.3l6.8,17.8
		c0,0.1,0.1,0.1,0.1,0.1c0,0,0.1-0.1,0.1-0.1V65.8z M242.8,65.4c0.2,0,0.3,0.1,0.3,0.3v0.9c0,0.2-0.1,0.3-0.3,0.3h-4.2
		c-0.1,0-0.1,0-0.1,0.1v20.4c0,0.2-0.1,0.3-0.3,0.3h-1.1c-0.2,0-0.3-0.1-0.3-0.3V67.1c0-0.1,0-0.1-0.1-0.1h-4
		c-0.2,0-0.3-0.1-0.3-0.3v-0.9c0-0.2,0.1-0.3,0.3-0.3H242.8z M254.7,87.8c-0.2,0-0.3-0.1-0.4-0.3l-0.9-4.2c0,0,0-0.1-0.1-0.1
		c0,0-0.1,0-0.1,0h-6.3c0,0-0.1,0-0.1,0c0,0,0,0.1,0,0.1l-0.9,4.2c0,0.2-0.1,0.3-0.4,0.3h-1.1c-0.1,0-0.2,0-0.3-0.1
		c0-0.1-0.1-0.2,0-0.3l4.9-21.7c0-0.2,0.2-0.3,0.4-0.3h1.3c0.2,0,0.3,0.1,0.4,0.3l4.9,21.7v0.1c0,0.2-0.1,0.3-0.3,0.3L254.7,87.8
		L254.7,87.8z M247.3,81.7c0,0.1,0,0.1,0.1,0.1h5.6c0.1,0,0.1,0,0.1-0.1l-2.8-13.5c0-0.1,0-0.1-0.1-0.1s0,0-0.1,0.1L247.3,81.7z
		 M269.2,87.8c-0.2,0-0.3-0.1-0.4-0.3l-0.9-4.2c0,0,0-0.1-0.1-0.1c0,0,0,0-0.1,0h-6.3c0,0-0.1,0-0.1,0c0,0,0,0.1,0,0.1l-0.9,4.2
		c0,0.2-0.1,0.3-0.4,0.3h-1c-0.1,0-0.2,0-0.3-0.1c0-0.1,0-0.2,0-0.3l4.9-21.7c0-0.2,0.2-0.3,0.4-0.3h1.3c0.2,0,0.3,0.1,0.4,0.3
		l4.9,21.7v0.1c0,0.2-0.1,0.3-0.3,0.3L269.2,87.8L269.2,87.8z M261.7,81.7c0,0.1,0,0.1,0.1,0.1h5.6c0.1,0,0.1,0,0.1-0.1l-2.8-13.5
		c0-0.1,0-0.1-0.1-0.1s0,0-0.1,0.1L261.7,81.7z M277.5,88.1c-1.5,0-2.7-0.5-3.7-1.5c-0.9-1-1.4-2.4-1.4-4.1v-0.7
		c0-0.2,0.1-0.3,0.3-0.3h1c0.2,0,0.3,0.1,0.3,0.3v0.6c0,1.3,0.3,2.3,0.9,3c0.6,0.8,1.5,1.2,2.5,1.2s1.8-0.4,2.5-1.1s1-1.7,1-2.9
		c0-0.8-0.2-1.5-0.5-2c-0.3-0.6-0.7-1.1-1.2-1.5c-0.5-0.4-1.2-1.1-2.3-1.9c-1.1-0.8-2-1.5-2.6-2c-0.6-0.6-1-1.2-1.4-1.9
		c-0.4-0.8-0.6-1.7-0.6-2.7c0-1.6,0.5-2.9,1.4-3.9c0.9-0.9,2.1-1.4,3.5-1.4c1.6,0,2.8,0.5,3.7,1.6c0.9,1,1.4,2.4,1.4,4.1v0.8
		c0,0.2-0.1,0.3-0.3,0.3h-1c-0.2,0-0.3-0.1-0.3-0.3v-0.8c0-1.3-0.3-2.3-1-3c-0.6-0.8-1.5-1.2-2.5-1.2c-0.9,0-1.7,0.3-2.3,1
		c-0.6,0.7-0.9,1.6-0.9,2.8c0,0.7,0.1,1.3,0.4,1.9c0.3,0.5,0.7,1,1.1,1.5c0.5,0.5,1.3,1.1,2.3,1.8c1.3,0.9,2.2,1.7,2.8,2.3
		c0.6,0.6,1.1,1.2,1.4,1.9c0.3,0.7,0.5,1.5,0.5,2.5c0,1.8-0.5,3.1-1.4,4.2C280.2,87.5,279,88.1,277.5,88.1z M287.5,87.8
		c-0.2,0-0.3-0.1-0.3-0.3V65.8c0-0.2,0.1-0.3,0.3-0.3h1c0.2,0,0.3,0.1,0.3,0.3v21.7c0,0.2-0.1,0.3-0.3,0.3H287.5z M302.8,87.8
		c-0.2,0-0.3-0.1-0.4-0.3l-0.9-4.2c0,0,0-0.1-0.1-0.1c0,0,0,0-0.1,0h-6.3c0,0-0.1,0-0.1,0c0,0,0,0.1,0,0.1l-0.9,4.2
		c0,0.2-0.1,0.3-0.4,0.3h-1c-0.1,0-0.2,0-0.3-0.1c0-0.1,0-0.2,0-0.3l4.9-21.7c0-0.2,0.2-0.3,0.4-0.3h1.3c0.2,0,0.3,0.1,0.4,0.3
		l4.9,21.7v0.1c0,0.2-0.1,0.3-0.3,0.3L302.8,87.8L302.8,87.8z M295.4,81.7c0,0.1,0,0.1,0.1,0.1h5.6c0.1,0,0.1,0,0.1-0.1l-2.8-13.5
		c0-0.1,0-0.1-0.1-0.1s0,0-0.1,0.1L295.4,81.7z M317.4,66.6c0,0.2-0.1,0.3-0.3,0.3h-7.5c-0.1,0-0.1,0-0.1,0.1v8.7
		c0,0.1,0,0.1,0.1,0.1h4.8c0.2,0,0.3,0.1,0.3,0.3V77c0,0.2-0.1,0.3-0.3,0.3h-4.8c-0.1,0-0.1,0-0.1,0.1v10c0,0.2-0.1,0.3-0.3,0.3h-1
		c-0.2,0-0.3-0.1-0.3-0.3V65.8c0-0.2,0.1-0.3,0.3-0.3h9c0.2,0,0.3,0.1,0.3,0.3V66.6z M321.4,87.8c-0.2,0-0.3-0.1-0.3-0.3V65.8
		c0-0.2,0.1-0.3,0.3-0.3h1c0.2,0,0.3,0.1,0.3,0.3v21.7c0,0.2-0.1,0.3-0.3,0.3H321.4z M328.8,87.8c-0.2,0-0.3-0.1-0.3-0.3V65.8
		c0-0.2,0.1-0.3,0.3-0.3h1c0.2,0,0.3,0.1,0.3,0.3v20.4c0,0.1,0,0.1,0.1,0.1h7.5c0.2,0,0.3,0.1,0.3,0.3v0.9c0,0.2-0.1,0.3-0.3,0.3
		H328.8z M351.2,65.7c0.1-0.2,0.2-0.2,0.4-0.2h1.1c0.2,0,0.3,0.1,0.3,0.3v21.7c0,0.2-0.1,0.3-0.3,0.3h-1c-0.2,0-0.3-0.1-0.3-0.3
		V69.4c0-0.1,0-0.1-0.1-0.1s-0.1,0-0.1,0.1l-3.5,7.8c-0.1,0.2-0.2,0.3-0.3,0.3c-0.2,0-0.3-0.1-0.4-0.2l-3.5-7.8c0,0-0.1-0.1-0.1-0.1
		c0,0,0,0,0,0.1v18c0,0.2-0.1,0.3-0.3,0.3h-1c-0.2,0-0.3-0.1-0.3-0.3V65.8c0-0.2,0.1-0.3,0.3-0.3h1.1c0.2,0,0.3,0.1,0.4,0.2l3.9,8.4
		c0,0,0,0.1,0.1,0.1c0,0,0.1,0,0.1-0.1L351.2,65.7z M358.9,87.8c-0.2,0-0.3-0.1-0.3-0.3V65.8c0-0.2,0.1-0.3,0.3-0.3h1
		c0.2,0,0.3,0.1,0.3,0.3v21.7c0,0.2-0.1,0.3-0.3,0.3H358.9z M366.2,87.8c-0.2,0-0.3-0.1-0.3-0.3V65.8c0-0.2,0.1-0.3,0.3-0.3h4.7
		c1.6,0,2.8,0.5,3.7,1.6c0.9,1,1.4,2.5,1.4,4.3v10.6c0,1.8-0.5,3.2-1.4,4.3c-0.9,1-2.2,1.6-3.7,1.6C371,87.8,366.2,87.8,366.2,87.8z
		 M367.6,86.2c0,0.1,0,0.1,0.1,0.1h3.2c1,0,1.9-0.4,2.5-1.2c0.6-0.8,0.9-1.9,0.9-3.2V71.4c0-1.4-0.3-2.5-0.9-3.3
		c-0.6-0.8-1.4-1.2-2.5-1.2h-3.2c-0.1,0-0.1,0-0.1,0.1V86.2z M390.8,66.6c0,0.2-0.1,0.3-0.3,0.3h-7.6c-0.1,0-0.1,0-0.1,0.1v8.7
		c0,0.1,0,0.1,0.1,0.1h4.9c0.2,0,0.3,0.1,0.3,0.3V77c0,0.2-0.1,0.3-0.3,0.3h-4.9c-0.1,0-0.1,0-0.1,0.1v8.7c0,0.1,0,0.1,0.1,0.1h7.6
		c0.2,0,0.3,0.1,0.3,0.3v0.9c0,0.2-0.1,0.3-0.3,0.3h-9.1c-0.2,0-0.3-0.1-0.3-0.3V65.8c0-0.2,0.1-0.3,0.3-0.3h9.1
		c0.2,0,0.3,0.1,0.3,0.3V66.6z M412.1,66.6c0,0.2-0.1,0.3-0.3,0.3h-7.5c-0.1,0-0.1,0-0.1,0.1v8.7c0,0.1,0,0.1,0.1,0.1h4.8
		c0.2,0,0.3,0.1,0.3,0.3V77c0,0.2-0.1,0.3-0.3,0.3h-4.8c-0.1,0-0.1,0-0.1,0.1v10c0,0.2-0.1,0.3-0.3,0.3h-1c-0.2,0-0.3-0.1-0.3-0.3
		V65.8c0-0.2,0.1-0.3,0.3-0.3h9c0.2,0,0.3,0.1,0.3,0.3V66.6z M425.5,66.6c0,0.2-0.1,0.3-0.3,0.3h-7.6c-0.1,0-0.1,0-0.1,0.1v8.7
		c0,0.1,0,0.1,0.1,0.1h4.9c0.2,0,0.3,0.1,0.3,0.3V77c0,0.2-0.1,0.3-0.3,0.3h-4.9c-0.1,0-0.1,0-0.1,0.1v8.7c0,0.1,0,0.1,0.1,0.1h7.6
		c0.2,0,0.3,0.1,0.3,0.3v0.9c0,0.2-0.1,0.3-0.3,0.3h-9.1c-0.2,0-0.3-0.1-0.3-0.3V65.8c0-0.2,0.1-0.3,0.3-0.3h9.1
		c0.2,0,0.3,0.1,0.3,0.3V66.6z M434.1,88.1c-1.5,0-2.7-0.5-3.7-1.5c-0.9-1-1.4-2.4-1.4-4.1v-0.7c0-0.2,0.1-0.3,0.3-0.3h1
		c0.2,0,0.3,0.1,0.3,0.3v0.6c0,1.3,0.3,2.3,0.9,3c0.6,0.8,1.5,1.2,2.5,1.2s1.8-0.4,2.5-1.1s1-1.7,1-2.9c0-0.8-0.2-1.5-0.5-2
		c-0.3-0.6-0.7-1.1-1.2-1.5c-0.5-0.4-1.2-1.1-2.3-1.9c-1.1-0.8-2-1.5-2.6-2c-0.6-0.6-1-1.2-1.4-1.9c-0.4-0.8-0.6-1.7-0.6-2.7
		c0-1.6,0.5-2.9,1.4-3.9c0.9-0.9,2.1-1.4,3.5-1.4c1.6,0,2.8,0.5,3.7,1.6c0.9,1,1.4,2.4,1.4,4.1v0.8c0,0.2-0.1,0.3-0.3,0.3h-1
		c-0.2,0-0.3-0.1-0.3-0.3v-0.8c0-1.3-0.3-2.3-1-3c-0.6-0.8-1.5-1.2-2.5-1.2c-0.9,0-1.7,0.3-2.3,1c-0.6,0.7-0.9,1.6-0.9,2.8
		c0,0.7,0.1,1.3,0.4,1.9c0.3,0.5,0.7,1,1.1,1.5c0.5,0.5,1.3,1.1,2.3,1.8c1.3,0.9,2.2,1.7,2.8,2.3c0.6,0.6,1.1,1.2,1.4,1.9
		c0.3,0.7,0.5,1.5,0.5,2.5c0,1.8-0.5,3.1-1.4,4.2C436.8,87.5,435.6,88.1,434.1,88.1z M452.4,65.4c0.2,0,0.3,0.1,0.3,0.3v0.9
		c0,0.2-0.1,0.3-0.3,0.3h-4.2c-0.1,0-0.1,0-0.1,0.1v20.4c0,0.2-0.1,0.3-0.3,0.3h-1c-0.2,0-0.3-0.1-0.3-0.3V67.1c0-0.1,0-0.1-0.1-0.1
		h-4c-0.2,0-0.3-0.1-0.3-0.3v-0.9c0-0.2,0.1-0.3,0.3-0.3H452.4z M457.4,87.8c-0.2,0-0.3-0.1-0.3-0.3V65.8c0-0.2,0.1-0.3,0.3-0.3h1
		c0.2,0,0.3,0.1,0.3,0.3v21.7c0,0.2-0.1,0.3-0.3,0.3H457.4z M468.1,87.8c-0.2,0-0.3-0.1-0.4-0.3l-4.7-21.7v-0.1
		c0-0.2,0.1-0.3,0.3-0.3h1.2c0.2,0,0.3,0.1,0.4,0.3l3.8,18.8c0,0.1,0,0.1,0.1,0.1s0,0,0.1-0.1l3.7-18.8c0-0.2,0.2-0.3,0.4-0.3h1.1
		c0.2,0,0.3,0.1,0.3,0.3l-4.6,21.7c0,0.2-0.1,0.3-0.4,0.3H468.1z M485.5,87.8c-0.2,0-0.3-0.1-0.4-0.3l-0.9-4.2c0,0,0-0.1-0.1-0.1
		c0,0,0,0-0.1,0h-6.3c0,0-0.1,0-0.1,0c0,0,0,0.1,0,0.1l-0.9,4.2c0,0.2-0.1,0.3-0.4,0.3h-1c-0.1,0-0.2,0-0.3-0.1c0-0.1,0-0.2,0-0.3
		l4.9-21.7c0-0.2,0.2-0.3,0.4-0.3h1.3c0.2,0,0.3,0.1,0.4,0.3l4.9,21.7v0.1c0,0.2-0.1,0.3-0.3,0.3L485.5,87.8L485.5,87.8z M478,81.7
		c0,0.1,0,0.1,0.1,0.1h5.6c0.1,0,0.1,0,0.1-0.1l-2.8-13.5c0-0.1,0-0.1-0.1-0.1s0,0-0.1,0.1L478,81.7z M490.7,87.8
		c-0.2,0-0.3-0.1-0.3-0.3V65.8c0-0.2,0.1-0.3,0.3-0.3h1c0.2,0,0.3,0.1,0.3,0.3v20.4c0,0.1,0,0.1,0.1,0.1h7.5c0.2,0,0.3,0.1,0.3,0.3
		v0.9c0,0.2-0.1,0.3-0.3,0.3H490.7z"/>
	<path class="st0" d="M68.4,10.8c-2.7,1.1-5,0.4-5.9,0.7c-1.1,0.5-0.9,1.4-2.3,2.5c-1,0.9-2.1,0.3-3,1.6c-0.6,0.9-2.4,3-4.8,2.8
		c-1.8-0.1-3.1-1.4-3.6-3.1c0.1-3.2-0.8-1.8-1.4-5.2c-0.4-2.2,1.7-3.7,4-4c1.8-0.1,2.4-4.5,7.1-4.3c1.5,0.1,3.9,1.1,5.4,1.5
		c2.6,0.7,6.4-2.2,7.9-2c3.6,0.3,3.1-1.7,6.6-0.8c2.8,0.7,4.5,4.5,6.2,5.6c3.8,2.5,6.7,1.1,9,1.9c12.1,3.9,12.3-5.4,14.1-2.5
		c1.8,2.7-3.6,5.2-7.1,5.7c-3.3,0.4-6.7,2.5-7.7,2.7c-2.2,0.5-3.7-1.1-6.6-1.5C83,11.9,83.4,8.9,80,7.9c-0.8-0.2-1.9-0.7-3.3-1.3
		c-0.7-0.3-1.9,1.6-4,1.7C69.6,8.4,70.2,9.8,68.4,10.8z"/>
	<path d="M20.4,32.1c0-0.3,0.1-0.5,0.2-0.6c0.2-0.2,0.5-0.3,0.7-0.3h9.5c0.3,0,0.5,0.1,0.6,0.3c0.2,0.2,0.3,0.4,0.3,0.6V87
		c0,0.3-0.1,0.5-0.3,0.7c-0.2,0.2-0.4,0.2-0.6,0.2h-9.5c-0.3,0-0.5-0.1-0.7-0.2c-0.2-0.2-0.2-0.5-0.2-0.7V64.9
		c0-0.3-0.1-0.4-0.4-0.4h-8.1c-0.3,0-0.4,0.1-0.4,0.4V87c0,0.3-0.1,0.5-0.3,0.7C11,87.9,10.7,88,10.5,88H1c-0.3,0-0.5-0.1-0.7-0.2
		C0.1,87.5,0,87.3,0,87V32.1c0-0.3,0.1-0.5,0.2-0.6c0.2-0.2,0.5-0.3,0.7-0.3h9.5c0.3,0,0.5,0.1,0.6,0.3c0.2,0.2,0.3,0.4,0.3,0.6
		v22.1c0,0.3,0.1,0.4,0.4,0.4H20c0.3,0,0.4-0.1,0.4-0.4V32.1z"/>
	<path d="M145.2,40c0,0.3-0.1,0.5-0.3,0.7c-0.2,0.2-0.4,0.2-0.6,0.2h-16.9c-0.3,0-0.4,0.1-0.4,0.4v12.8c0,0.3,0.1,0.4,0.4,0.4h9.7
		c0.3,0,0.5,0.1,0.6,0.3c0.2,0.2,0.3,0.4,0.3,0.7v7.9c0,0.3-0.1,0.5-0.3,0.7c-0.2,0.2-0.4,0.2-0.6,0.2h-9.7c-0.3,0-0.4,0.1-0.4,0.4
		V87c0,0.3-0.1,0.5-0.3,0.7c-0.2,0.2-0.4,0.2-0.7,0.2h-9.5c-0.3,0-0.5-0.1-0.7-0.2c-0.2-0.2-0.2-0.5-0.2-0.7V32.1
		c0-0.3,0.1-0.5,0.2-0.6c0.2-0.2,0.5-0.3,0.7-0.3h27.8c0.3,0,0.5,0.1,0.6,0.3c0.2,0.2,0.3,0.4,0.3,0.6V40z"/>
	<path d="M179.4,40c0,0.3-0.1,0.5-0.3,0.7c-0.2,0.2-0.4,0.2-0.6,0.2h-16.9c-0.3,0-0.4,0.1-0.4,0.4v12.8c0,0.3,0.1,0.4,0.4,0.4h9.7
		c0.3,0,0.5,0.1,0.6,0.3c0.2,0.2,0.3,0.4,0.3,0.7v7.9c0,0.3-0.1,0.5-0.3,0.7c-0.2,0.2-0.4,0.2-0.6,0.2h-9.7c-0.3,0-0.4,0.1-0.4,0.4
		V87c0,0.3-0.1,0.5-0.3,0.7c-0.2,0.2-0.4,0.2-0.6,0.2h-9.5c-0.3,0-0.5-0.1-0.7-0.2c-0.2-0.2-0.2-0.5-0.2-0.7V32.1
		c0-0.3,0.1-0.5,0.2-0.6c0.2-0.2,0.5-0.3,0.7-0.3h27.8c0.3,0,0.5,0.1,0.6,0.3c0.2,0.2,0.3,0.4,0.3,0.6V40z"/>
	<path class="st0" d="M91.7,45c-0.5,0.3-0.9,0.7-0.4,1.5c0.6,0.8,1.6,1.9,1.8,1.8c0.2-0.1,0.4-0.2,0.2-1.4
		C92.9,45.6,92.2,44.7,91.7,45z"/>
	<path class="st0" d="M94,44.1c-0.8,0.3,0,2.3,0.1,2.9c0.1,0.6,0.3,1,0.5,0.3s0-1.6,0.3-2.5C95.1,44.2,94.4,43.8,94,44.1z"/>
	<path class="st0" d="M90.7,41.7c-0.4-0.5-1.8-2-2.2-2.2c-0.8-0.5-1.5,0-1.9,0.2c-0.6,0.4-0.9,1.4-1.1,2c-0.2,0.6,0.6,1.5,1,1.6
		c0.4,0.1,1.3-0.1,2.4,0.5c1,0.6,1.9,0.8,2.3,0.2C91.6,43.2,91.1,42.2,90.7,41.7z"/>
	<path class="st0" d="M95.5,37.5c-0.5-0.4-0.7-1-1.4-0.5c-0.8,0.5-0.8,1.4-0.6,1.9c0.2,0.5,0,1.7,0.1,2.2c0,0.5,0.1,1.2,0.4,1.3
		c0.3,0.1,0.7,0.2,0.9-0.8c0.2-0.9,0.6-1.2,1.1-2.2C96.5,38.6,96,37.9,95.5,37.5z"/>
	<path class="st0" d="M120.6,29.7c-1.3-1.1-4.1-2.3-6.6-0.1c-1.4,1.2-1.6,2.7-2.5,5.1c-0.8,2.1-1.6,2.7-3.6,3.6
		c-2.6,1-3.1,1.4-4.1-0.6c0.7-0.8,1.3-1.5,0.8-2.3c-0.7-1.5-1.8-0.4-3.5,0c-1.6-1,0.9-2.1-2.7-2.9c-0.9-0.4-1.7-1.1-0.8-1.2
		c0.8,0.4,1.9,0.2,3.2-0.7c0.5-0.6,0.5-1.7-0.4-2.3c-2.1-1-5.9,1-6.5-0.7c-0.7-1.6-1.4-1.1-3.5,1.5c-2.6,1-3.5-0.8-3.2-2.3
		c0.1-1.3,3.3-5.6,0.4-6.9c-2.3-0.7-3.7,0-3.9,6.9c-0.5,2.1-2.6,1-3.6,0.8c-2.7-2-1.9-4.2-4-4.8c-2.7-0.7-2.8,3.6-5.7,3.3
		c-1.2-0.8-1.1-1.9-2.5-1.9c-1.6,0-1.3,2-2.7,2.7c-2.3,1.3-1-0.8-3.9,0.3c-2.7-1.6-1.6,2-2.7,1.4c-3.5-2.2-5-2.4-5.3,0.8
		c-1.2,0.4-1.7-0.7-3.6-1.3c-2.1-0.7-2.4,2.1-0.2,3.9c0.7,2-3.1-0.6-2.1,3.2c0.5,1.8-1.8,1.9-3.4,1.7c-1.5-0.5-3.4-2.3-5.2-1.1
		c-1.2,1.4,0.6,2.8,2,4c3.6,3.2,0.4,3.8-2.8,2.9c-4.7-0.4,0.1,2.1,1.1,6.5c0.3,4.8-7.3,2-9.7,1.4c-3.8-1-3.4,2.1-0.2,2.4
		c5.2,1.1,10.4,4.4,6.7,6.7c-0.8,0.3-1.6,0.4-1.8,2.1c-0.2,1.8,4.8,2.4,4.8,4.7c-3.1,1.9-1.6,3-2,5.4c-0.3,1.6-2.9,1.7-2.7,3.9
		c0.1,0.8,1,0.9,2,1.1c0.1-0.6,0.1-1.1,0.1-1.1s0-0.1,0.4,0c0.4,0.1,0.7-0.1,0.3,0.3c-0.2,0.2-0.3,0.5-0.5,0.9
		c1.6,0.4,3.4,1.1,3.2,4.7c-0.4,1.9-1.8,1.9-3.7,2.8c-0.4,0.2-0.8,0.5-1.1,0.8c0,0.3,0,0.6,0.1,0.8c0.1,0.3-0.1,0.3-0.3,0.3
		c-0.2,0-0.5,0-0.4-0.2c-0.4,0.7-0.4,1.3-0.2,1.9c0-0.1,0.1-0.3,0.1-0.4c0.1-0.5,0-1,0-1s0-0.1,0.3,0c0.3,0,0.5-0.1,0.3,0.2
		s-0.4,1.2-0.5,1.5c0,0,0,0,0,0.1c0.5,0.8,1.5,1.2,2.8,1c3.9-1.5,3-5.8,5.2-6c4.2-0.4,3.1,2.5,2.7,5.4c0.4-0.4,0.8-1.1,0.8-1.1
		s0.1,0,0.2,0.1c0.2,0.1,0.4,0.1,0.6,0.1c0.2,0,0.5-0.2,0.7-0.2c0.4-0.2,0.8-0.5,1.1-0.7c0,0,0,0.1,0.1,0.1c0,0.3-0.1,0.5,0.1,0.6
		c0.2,0.2,0.5,1-0.4,1.5c-0.5,0.3-1.7,1-3.2,2.2c0,0.2,0.1,0.4,0.2,0.6c0.6-0.4,1.2-0.9,1.7-1.2c0.2-0.1,0.5-0.3,0.8-0.5
		c0.4-0.2,0.7-0.4,0.8-0.5c1-0.5,1.1-1.3,0.9-1.9c0.1,0,0.2,0,0.6,0.1c0.6,0.1,0.8,0.4,0.9,0.3c0.1-0.1-0.3-0.4-0.7-0.5
		c-0.3-0.1-1-0.2-0.9-0.4c0.5-0.1,0.8-0.3,1-0.7c0.1-0.2,0.2-0.4,0.3-0.7c0.4-0.7,0.3-1.4,0-1.9c-0.1-0.2-0.3-0.3-0.6-0.3l0-0.1
		l0.1-0.3c0.2-0.6,0.6-1.5,0.8-3.1c0.2-1.6,0.2-2.8,0-3.6c-0.1-0.6-0.3-1-0.4-1.3c0-0.2-0.1-0.3-0.1-0.5c0.1-0.2,0.2-0.3,0.3-0.4
		c0.1-0.2,0.2-0.3,0.3-0.4c0.3-0.4,0.3-0.9,0.4-1.3c0-0.2,0-0.4,0.1-0.6c0-0.1,0-0.3,0.1-0.4c0.1,0,0.3-0.1,0.4-0.2
		c0.2-0.2,0.6-0.5,1.1-1c0.4-0.4,0.6-0.8,0.7-1.1c0.2-0.1,0.3-0.1,0.4,0.1c0.4,0.7,0.5,1.1,0.3,1.6c-0.2,0.5,0.3,1.1,0.2,2.9
		c-0.1,1.8-0.9,5.5-1.7,7.6s-0.3,2.3-0.2,2.6c0.1,0.2-0.1,0.6-0.4,0.8c-0.3,0.2-0.8,1.4-0.8,1.7c0,0.4,0.6,0.7,0.3,1.1
		c-0.3,0.4-0.8,0.9-0.8,1.3c0,0.4-0.3,0.8-0.5,0.8c-0.3-0.1-1.2,0.2-2,0.7c-0.7,0.4-1.1,0.6-2.6,2c2.7,3,4.7,0.2,7,4.1
		c0.7,2.3,1.3-1.9,3.5-2.4c0.9,2.8,1.7-1.1,2.4-0.6c0.6,0.2,0.8,2.6,1.7,2.6c1.3,0.2,1.2-2.3,2.7-2.6c1.5,0.2-2.4,5.4,2.1,8
		c4.7,1.4,5.7-3.1,7.8-4.2c1,0.3,0.7,1.7,1.4,2.3c1.2,1.3,2.8,1.5,3.8,1.1c0.1-1.2,0-2.4-0.2-3.2c-0.4-1.5-0.3-2.5-0.6-3.6
		c-0.3-1.1-0.8-1.6-0.6-2.1c0.2-0.3,0.5-0.8,1-1.1c0.2,0,0.5-0.1,0.7-0.1c0.1,0,0.2,0,0.4,0s0.4,0.1,0.7,0.2
		c0.2,0.1,0.5,0.2,0.8,0.2c-0.2,0.3-0.5,0.9-0.6,1.4c-0.2,0.8-0.2,2.5-0.1,4.2c0,0.1,0,0.1,0,0.2c0.2-0.4,0.3-0.7,0.5-1
		c-0.1-1.5-0.1-2.8,0.1-3.4c0-0.2,0.1-0.4,0.2-0.6c0.1-0.3,0.3-0.5,0.3-0.7c0.2-0.1,0.3-0.1,0.4-0.1c0.8-0.1,1.3-0.7,1.4-1.3
		c0.1-0.3,0.1-0.6,0.1-1c0.1-0.2,0.3-0.4,0.5-0.7c0.5-0.5,1.2-1.4,1.3-2.1c0.2-0.7,0.6-1.3,1.6-3.8c0.9-2.5,0.9-3.8,0.8-4.5
		c-0.1-0.7,0.2-1.8,0.3-2.1c0-0.1,0-0.3-0.1-0.4l0-0.2c0.1,0.2,0.2,0.4,0.4,0.5c0.2,0.2,0.6,0.4,1.1,0.2c0.3-0.2,0.5-0.4,0.6-0.8
		c0.2,0,0.4-0.1,0.7-0.3c0.4-0.3,1-0.9,1.8-1.9c0.8-1,1.8-1.9,2.7-2.7c0.2,0.1,0.3,0.5,0.3,0.8c0,0.4,0.4,0.9,0.1,1.9
		c-0.3,1-1.1,2.2-1.8,2.8c-0.7,0.6-2,1.5-3.2,4.3c-1.2,2.8-2.9,5.3-3.1,6.4c-0.2,1,0,1.6-0.4,2.4s-1,1.2-1.6,0.9s-1-0.6-1.2-0.1
		c-0.2,0.4,0.8,0.6,1,0.7c0.2,0.1,0.2,0.3-0.1,0.4c-0.3,0.2-0.5,0.6-0.5,0.9c0.1,0.3-0.4,1.7-0.7,2.6c1-0.1,1.9,0.5,2.2,1.5
		c3.2-1.1,0.6,0.8,3.3,0.4c0.1-0.2,0.7-0.5,1.3-1.1c2.6-2.6,1.3-3.1,0.7-4.3c-1.7-3.4-0.3-3.9,2-2.7c1.5,0.7,3.4,5.1,5.9,3.2
		c1.3-0.8,0.4-2.8-0.7-3.8c-2.4-2.9-0.4-4.7,2-2.9c1.5,1.3,4.8,2.6,7,1.6c2-2-3.5-4.8-2.8-8.6c0.4-0.9,1.7-1.1,2.3-1.9
		c1-1.4-0.4-1.8-0.4-2.7c0.5-0.9,1.8-1.4,2.3-2.5c1.2-2.7-2.2-5.1-1-5.9c1.1-0.8,2.1-1,2.1-1.8c0.2-1.6-1.6-0.9-2.9-2.8
		c1.9-1.5,3.6-5.5,0.2-8c1.8-1,2-3.8,0.4-5.3c0.6-0.9,2-0.9,2.5-1.9c0.1-1.1-0.3-2.5,0.4-3c2.9-3.4,4.4-1.4,9.1-3.6
		C122.4,36.2,123.1,31.7,120.6,29.7z M86.3,90.7c-0.2,0.6-1,0.7-1,0.7s0.1-0.2,0.2-0.5c0-0.1,0-0.2-0.1-0.3c0.1-0.1,0.1-0.2,0.1-0.3
		c0.3-0.1,0.5-0.2,0.8-0.4C86.3,90.1,86.4,90.3,86.3,90.7z M80.5,53.5c0.4-0.1,1.6,0.3,1.3-0.3c-0.3-0.7,0.2-0.4,0.4-0.3
		c0.3,0.2,0.6,0.2,0.3,0.8c-0.2,0.4,0.1,0.8,0,1.3c0,0.2-0.1,0.3-0.1,0.4c-0.2,0.3-0.2,0.7-0.2,1c0,0.2,0.1,0.3,0.1,0.5
		c0,0.1,0.1,0.1,0.1,0.2c0,0,0.1,0.1,0.1,0.1l0.1,0c0.3,0.2,0.2,0.5-0.2,0.5c-0.5,0-1.2-1.1-2.4-0.3c-1.2,0.8-3.2,4.1-3.2,12.4
		c-0.1,8.2,2.4,10.4,3,11.3c0.3,0.4,0.6,0.9,0.9,1.2l-0.4,1.2c-3.3-1.2-5.2-5.8-5.4-15.4c0-2,0.2-5.9,1.1-7c1.2-1.7,0.7-1.9,1.3-2.6
		c0.6-0.8,2.1-1.6,2-2.3c0-0.7,0.3-1.9,0.8-1.9C80.7,54.1,80.1,53.6,80.5,53.5z M85.7,49.5c0.8,1.1,1.1,0.8,1.6,1.2
		c0.2,0.1,0.3,0.3,0.3,0.4c-0.1,0.6,0.1,1.3,0.1,2.1c-0.1,0.3,0,0.6-0.1,0.8L87,53.5c-0.2-0.2-0.4-0.3-0.6-0.4
		c-0.2-0.2-0.5-0.2-1.1-0.1l-0.2,0c-0.2,0-0.3,0.1-0.4,0.1l-0.1,0c-0.2,0-0.4,0-0.6,0c-0.2-0.2-0.3-0.3-0.5-0.3
		c-0.1-0.2-0.1-0.4-0.1-0.7c0-0.9,1.2-1.9,1.1-2.3C84.6,49.4,84.9,48.4,85.7,49.5z M85.3,46.3c0.5-0.7,0.9-0.3,1.4,0
		c0.6,0.3,1.2,2,1.4,2.4c0.1,0.2,0.1,0.4,0.1,0.6c-0.2,0.2-0.4,0.4-0.4,0.5c-0.1,0.1-0.1,0.3-0.1,0.4c-0.2-0.2-0.4-0.2-0.5-0.3
		c-0.1,0-0.2-0.1-0.3-0.1c-0.2-0.1-0.4-0.2-0.8-0.7c-0.2-0.3-0.4-0.5-0.8-0.7c-0.1,0-0.3-0.1-0.4,0C84.5,47.9,84.8,47,85.3,46.3z
		 M83.6,53.6c0.4,0.5,0.8,0.3,1.2,0.2s1.2-0.4,1.7,0.2s1.1,0.8,1.3,1.3c0.2,0.6,0.6,0.9,0.8,1.3c0.2,0.3,0.2,0.7,0.2,0.7
		s-2.1,0.6-2.6,0.2c-0.5-0.5-0.9-0.8-1.5-0.4c-0.6,0.4-0.8,0.2-1.4,0c-0.1-0.2-0.2-0.3-0.4-0.3c-0.1-0.1-0.1-0.2-0.1-0.4
		c0-0.3,0-0.5,0.1-0.7c0.2-0.2,0.2-0.5,0.2-0.7c0-0.1,0-0.2,0.1-0.2C83.2,54,83.2,53.1,83.6,53.6z M92.6,61.2
		c-0.7,0.8-1.5,2.3-1.8,3.6c-0.2,0.8-0.5,2.1-0.7,2.3c-0.1,0.3-0.1-1.3-0.2-2.3c0-0.4-0.1-0.7-0.4-0.7c-0.2,0-0.6-0.2-0.8-0.2
		c-0.3,0.1-0.6-0.2-0.7-0.1c-0.6-0.2-1.2-1.1-1-1.8c0.3-0.9,1.6-0.4,1.6,0.2c0,0.6,1.1,1.2,1.3,0.5c0.2-0.6,0.5-0.4,0.9-0.5
		c0.4,0,0.6-0.5,0.5-1c-0.1-0.5,0.9-1.6-0.3-1.2s-1-0.2-1-0.2s0.9-0.2,1.2-0.4c0.4-0.2,1.1-0.5,0.8,0.1
		C91.9,60.3,93.2,60.3,92.6,61.2z M86.3,61.8c-0.8-0.7-1.9-1-3-1.1l-0.1-0.1l0.2-0.1c0.1,0,0.3,0,0.6,0.1c0.2,0.1,0.4,0.2,0.6,0.2
		c0.2,0.1,0.4,0.2,0.7,0.2c0.4,0,0.8-0.1,1-0.2c0,0.1,0,0.2-0.1,0.4C86.2,61.4,86.3,61.6,86.3,61.8z M85.5,60.4
		c-0.8-0.1-1.5-0.7-2.2-0.4c-0.7,0.3-1.5,0.6-1.6,0s1.5-0.8,1.8-1.1c0.2-0.2,0.4-0.8,0.7-1.2c0.3,0,0.5-0.1,0.8-0.3
		c0.2-0.1,0.2-0.1,0.3,0c0.1,0,0.2,0.1,0.4,0.3c0.1,0.1,0.2,0.2,0.4,0.3c0.3,0.2,0.7,0.2,1,0.1c0.4,0.2-0.2,0.6-0.1,1
		C86.9,59.6,86.3,60.4,85.5,60.4z M81.6,60.8c-0.8,0.2-1.4,0.5-1.7,1c-0.6,0.8-0.1,1.5,0.2,1.7c0.2,0.1,0.3,0.3,0.5,0.4
		c0.1,0,0.1,0.1,0.2,0.1c0.2,0.2,0.2,0.4,0.3,0.7l0.1,0.4c0,0.2,0.1,0.3,0.1,0.3c0.1,0.3,0,1.1-0.4,1.5c-0.3,0.3-0.4,0.6-0.4,0.8
		c-0.5,0.6-1.3,0.1-1.5-0.1c-0.2-0.2,0.2-1,0.3-1.3c0.2-0.3,0.8-1.2,0.3-1.1c-0.5,0-0.4-0.4-0.1-0.7c0.2-0.3,0.2-0.5-0.3-0.3
		c-0.5,0.2-1,0.4-1,1.1c0,0.7-0.2,0.7-0.4,0.8c-0.1,0-0.1-0.2-0.1-0.4c0.1-1.2,0.3-2.2,0.5-3c0.3-1.1,0.8-2,1.1-2.3
		c0.3-0.3,0.1-0.6-0.2-0.8c0.5-1.1,1-1.7,1.3-1.9c0.3-0.2,0.6-0.2,0.9-0.1c0.2,0.1,0.3,0.2,0.5,0.3c0.1,0.1,0.2,0.1,0.3,0.2
		s0.2,0.1,0.4,0.1c0.3,0,0.9-0.1,1.1-0.7c0.3,0.2-0.4,0.9-0.9,1.1c-0.1,0-0.2,0.1-0.3,0.1c-0.2,0.1-0.4,0.2-0.6,0.3
		c-0.2,0.2-0.5,0.5-0.5,0.9C81.2,60.4,81.3,60.7,81.6,60.8z M90.3,59.5c-0.2,0.1-0.4,0.2-0.6,0.3c-0.5,0.3-0.6,0.3-1.1,0.1
		c-0.3-0.1-0.4-0.2-0.8-0.2c-0.3,0-0.7,0.2-0.7-0.2c0-0.2,0.2-0.6,0.3-0.8c0.1-0.4-0.1-0.6,0.4-0.6c0.6,0,1.1-0.3,1.4,0.2
		c0,0,0,0,0,0c0.3,0.1,0.5,0.3,0.8,0.5c0.2,0.2,1,0.3,0.8,0.5C90.8,59.5,90.4,59.5,90.3,59.5z M39,72.5c-0.4,0.3-0.8,1.4-1,1.7
		c-0.2,0.3-0.3,0.7-0.3,1s-0.2,0.2-0.4,0.1C37,75.2,36.7,75,37,74.8c0.3-0.2,0.8-0.9,1-1.5c0.3-0.6,0.3-1.3,0.3-1.3s0-0.1,0.4,0.1
		C39.1,72.2,39.4,72.2,39,72.5z M39.3,71.8c-0.3,0.2-0.6,0.2-0.4-0.4c0.2-0.6,0.9-1,1.2-1.5c0.3-0.4,0.2-1.1,0.6-1.3
		c0.3-0.2,0.7,0,0.7-0.4c0-0.4,0.5-1,0.8-0.6c0,0.4,0.2,0.8,0.3,1.1c0.2,0.5,0.3,0.9,0.4,1.1c0,0.1,0.1,0.2,0.1,0.4
		c0,0.1-0.1,0.3-0.2,0.5c-0.2,0.5-0.5,1-0.8,1.6c-0.2,0.3-0.4,0.7-0.6,1c0.3-0.6,0.6-1.4,0.3-1.5c-0.5-0.1-1.7-0.2-1.2-0.8
		s1.5-1.5,1.3-1.7s-1,0.1-1.2,0.4C40.5,69.8,39.6,71.6,39.3,71.8z M51.2,71.5c-0.2,0.7-0.1,1.5-0.5,2.1c-0.4,0.6-0.8,0.8-0.7,1.5
		c0.2,0.6,1,1.8,0.5,4.9c-0.5,3.1-1.3,3.5-0.9,4.1c0.3,0.6,0.5-0.2,0.7,0.1c0.2,0.3,0.2,0.9,0,1.3C50,86,50,86.4,49.6,86.4
		s-0.3-0.7-1-0.2c-0.7,0.4-1.6,1.2-2,0.8c-0.3-0.3,1-1.5,0.6-1.7c-0.4-0.3-0.1-1.8,0.2-2.7s0.7-4.9,0.2-5.2
		c-0.5-0.3-0.2-1.7-0.6-1.9c-0.4-0.2,0.1-0.6,0.1-0.6s-1.4-0.9-1.3-2.1c0-1.3,0.7-2.7,1.6-2.8c0.9-0.2,1.1,0.4,1.5,0.3
		c0.4,0,0.3-0.8,1.2-0.4C51,70.1,51.4,70.8,51.2,71.5z M52.8,70.1c-0.5,0.5-0.8,0.8-1,0.9c0-0.8-0.5-1.4-1.3-1.8
		c-0.4-0.2-0.6-0.3-0.8-0.2c-0.3,0-0.6,0.2-0.8,0.4l-0.2,0c0,0-0.1-0.1-0.2-0.1c-0.4-0.4-1.5-0.2-2,0.3c-0.9,0.7-1.3,2.1-1.3,3.1
		c0,0.5,0.2,1,0.4,1.4c-0.2,0.2-0.7,0.4-1,0.4c-0.3,0-2.1,0.9-2.8,1.4c-0.7,0.5-1.6,1.6-2,1.5c-0.5-0.1,0.8-1.7,1.3-2.4
		c0.5-0.7,2.8-4.3,2.8-5.3c0-1-1.2-1.4-0.9-2.7c0.3-1.3,0.7-2,1.1-2.1s0.9-1.3,1.5-1.9c0.6-0.5,2.7-1.7,3.5-1.8c1.1-0.2,2,0,2.2,0.1
		c0.3,0.1,0.7-0.1,0.7-0.1s0.5,0.8,0.7,1.1c0.2,0.3,0.3,0.7-0.4,1.2c-0.7,0.5-1.3,1.5-1,2.6c0.4,1.1,0.8,1.6,1.4,2
		C53.2,68.3,53.8,69.1,52.8,70.1z M54,59.6c-0.1,1.1-0.2,1.5-0.1,1.6c0.1,0.2,0.2,0.4-0.2,0.2c-0.3-0.2-0.5,0-0.8,0.3
		c-0.2-0.3-0.7-1.1-0.7-1.1c-0.1-0.2-0.5-0.3-0.7-0.1c0,0-0.2,0.1-0.2,0.1c-0.4-0.1-1.3-0.3-2.5-0.1c-0.3,0.1-0.9,0.3-1.4,0.5
		c0-0.1,0-0.3,0.3-0.5c0.8-0.7,0.8-0.7,0.8-1.4s0.7-1.1,2.1-1.4s1.8-0.2,1.8,0c0,0.3-1.1,0.5-1.8,1c-0.7,0.5-0.8,0.7-0.7,1
		c0.2,0.3,0.5,0.1,0.6-0.3c0.1-0.3,0.8-0.8,1.6-1.1c0.7-0.3,1.1-0.4,1.3-0.2c0.2,0.2-0.8,0.8-0.4,0.8s0.7-0.3,0.7-0.5
		c0-0.2,0-0.5,0.3-0.9c0.3-0.4,0.5-0.3,0.5-0.3S54,58.5,54,59.6z M56.2,59.3c-0.1,0.8,0,1.3,0,1.3s-0.1-0.1-0.4-0.3
		c-0.3-0.2-0.7,0.6-1.3,1c0-0.1-0.1-0.2-0.1-0.3c0,0,0-0.1,0-0.2c0-0.2,0.1-0.6,0.1-1.2c0-0.5,0.2-1.1,0.3-1.5
		c0.1-0.4,0.2-0.7,0.2-0.7c0-0.1,0-0.3,0-0.4c0.2-0.1,0.4-0.2,0.5,0c0.2,0.2,0.6,0.1,1-0.2c0.4-0.3,0.6,0,0.6,0s0,0.7-0.3,0.8
		C56.4,57.6,56.2,58.5,56.2,59.3z M58.3,60.4c-0.2,0.3-1,0.6-1.6,0.4c0-0.1,0-0.2,0-0.4c0,0,0-0.1,0-0.3c0-0.2,0-0.5,0-0.8
		c0-0.4,0.1-0.8,0.2-1.1c0-0.1,0-0.2,0.1-0.2c0.2-0.1,0.3-0.3,0.4-0.4c0.1-0.2,0.1-0.3,0.2-0.4c0-0.1,0-0.2,0-0.2
		c0.1,0,0.2-0.1,0.3-0.2c0.9-0.8,1.3-0.4,1.8,0c0.5,0.5-0.1,0.5,0.1,0.8c0.1,0.2,0.4,0.2,0.6,0.1c-0.2,0.2-0.3,0.3-0.5,0.5
		c-0.1,0.2-0.2,0.3-0.3,0.4c-0.1,0.1-0.1,0.2-0.2,0.3c-0.1,0.2-0.3,0.5-0.7,1.1C58.5,60.2,58.4,60.3,58.3,60.4z M73.9,82.9
		c-1.2-0.1-2.2-0.4-3-1.2c0,0-0.1,0-0.1,0c-2.6,0.2-4.3-1.1-5.4-4.2c-1.1-0.6-2-1.4-2.6-2.8c-2.4-0.7-4-2.8-4.1-9.4
		c0-1.4-0.1-4.1,0.5-4.9c0.8-1.2,0.8-1.3,1.2-1.8c0.4-0.5,1.4-1.1,1.4-1.6c0-0.5,0.2-1.3,0.5-1.3s0-0.4,0.2-0.5
		c0.3,0,1.1,0.2,0.9-0.2s0.1-0.3,0.3-0.2c0.2,0.1,1.1,0.1,0.9,0.4c-0.2,0.4-0.6,0.6-0.5,1.2c0,0.2,0,0.4-0.1,0.5
		c-0.2,0.2-0.4,0.3-0.6,0.5c-0.2,0.2-0.4,0.4-0.5,0.6c-0.1,0.2-0.2,0.3-0.3,0.4c-0.1,0.2-0.5,0.7-0.6,1l-0.1,0.1
		c-0.1,0.2-0.2,0.3-0.4,0.6c-0.2,0.2-0.3,0.5-0.4,0.8c-0.3,0.3-1.1,0.7-1.1,5.4c0,4.2,1.2,5.6,2.1,6.3c-0.4-1.6-0.7-3.7-0.7-6.5
		c0-1.6-0.1-4.7,0.5-5.7c1-1.3,0.9-1.5,1.4-2.1c0.5-0.6,1.6-1.3,1.6-1.8c0-0.5,0.2-1.5,0.6-1.5s0-0.5,0.3-0.5c0.3-0.1,1.2,0.3,1-0.3
		c-0.2-0.5,0.2-0.3,0.4-0.2c0.2,0.1,0.9,0.1,1.1,0.3c-0.2,0.2-0.3,0.5-0.4,0.7c-0.2,0.3-0.3,0.5-0.2,0.9c0,0.2,0,0.4-0.1,0.6
		c-0.1,0.1-0.2,0.2-0.4,0.4c-0.2,0.2-0.4,0.4-0.6,0.5c-0.2,0.2-0.4,0.4-0.6,0.6c-0.2,0.2-0.3,0.4-0.4,0.5c-0.1,0.2-0.2,0.3-0.3,0.5
		c-0.2,0.3-0.4,0.7-1,1.5c-0.2,0.3-0.3,0.6-0.4,1c-0.4,0.5-0.9,1.7-1,5.9c0,4.2,1,5.7,1.8,7c-0.3-1.9-0.5-4.3-0.5-7.1
		c0-1.9-0.2-5.5,0.6-6.6c1.1-1.5,1.1-1.7,1.6-2.4c0.5-0.7,1.9-1.5,1.9-2.1c0-0.6,0.2-1.8,0.7-1.8s-0.1-0.5,0.3-0.6
		c0.4-0.1,1.5,0.3,1.2-0.3s0.2-0.4,0.4-0.2c0.2,0.2,1.4,0.1,1.2,0.6c-0.2,0.5-0.8,0.8-0.7,1.7l0,0.1c0,0.2,0,0.3-0.1,0.4
		c-0.1,0.2-0.1,0.4-0.2,0.5c-0.1,0.1-0.2,0.2-0.4,0.3c-0.2,0.2-0.4,0.4-0.7,0.6c-0.2,0.2-0.4,0.4-0.6,0.7l-0.2,0.2
		c-0.2,0.2-0.6,0.9-0.8,1.3c-0.1,0.1-0.1,0.2-0.2,0.3c-0.2,0.2-0.3,0.4-0.5,0.7c-0.2,0.3-0.3,0.6-0.4,1c-0.4,0.5-1.4,0.9-1.5,7.3
		c-0.1,7.7,2.2,9.7,2.7,10.6c0.3,0.4,0.8,0.6,1.2,0.8c-1.4-2.3-2.1-6.2-2.2-12.5c0-1.9-0.2-5.7,0.7-6.8c1.2-1.6,1.1-1.8,1.7-2.5
		c0.6-0.7,2-1.6,2-2.2c0-0.7,0.3-1.9,0.8-1.9s-0.1-0.6,0.3-0.7c0.4-0.1,1.5,0.3,1.2-0.3c-0.3-0.7,0.2-0.4,0.4-0.3s1.5,0.1,1.3,0.6
		c-0.1,0.1-0.2,0.2-0.2,0.3c-0.1,0.2-0.2,0.3-0.3,0.5c-0.2,0.2-0.3,0.5-0.2,0.9c-0.1,0.3-0.1,0.5-0.1,0.7l0,0.1
		c-0.2,0.2-0.3,0.4-0.5,0.6c-0.2,0.2-0.4,0.4-0.7,0.6c-0.2,0.2-0.5,0.4-0.7,0.7c-0.2,0.2-0.3,0.4-0.4,0.5c-0.1,0.2-0.2,0.3-0.3,0.5
		c-0.2,0.3-0.5,0.8-1.1,1.6c-0.2,0.3-0.4,0.7-0.5,1.2c-0.4,0.5-1.5,1.1-1.5,7.5c-0.1,8,2.1,10.3,2.6,11.2c0.4,0.7,0.9,0.8,1.4,1.1
		c0.2,0.4,0.4,0.8,0.7,1.1C74.1,82.8,74,82.9,73.9,82.9z M71.3,68.1c0-2-0.2-5.9,0.7-7.1c1.2-1.7,1.1-1.8,1.7-2.6
		c0.6-0.8,2.1-1.6,2-2.3c0-0.7,0.3-1.9,0.8-1.9c0.5,0-0.1-0.6,0.3-0.7c0.4-0.1,1.6,0.3,1.3-0.3c-0.3-0.7,0.2-0.4,0.4-0.3
		c0.2,0.1,1.2,0.1,1.3,0.5c0,0.1,0,0.1-0.1,0.2v0.1c-0.2,0.1-0.3,0.2-0.4,0.4c-0.2,0.2-0.3,0.5-0.3,0.7c-0.2,0.5-0.2,1-0.2,1.4
		c0,0-0.1,0.1-0.1,0.1c-0.1,0.1-0.3,0.3-0.5,0.5c-0.2,0.2-0.4,0.4-0.7,0.6c-0.2,0.2-0.5,0.4-0.7,0.7s-0.3,0.5-0.4,0.7
		c-0.1,0.2-0.1,0.3-0.2,0.5c-0.1,0.3-0.2,0.7-0.8,1.5c-0.2,0.3-0.3,0.6-0.5,1c-0.1,0-0.1,0-0.1,0c-0.5-0.4-1.8-0.2-1.8,8
		c-0.1,8.2,2,10.8,2.6,11.7c0.6,0.9,1.8,1.7,2.7,1.4c0.2,0.2,0.3,0.3,0.5,0.4c-0.1,0.1-0.2,0.2-0.4,0.2
		C73.6,84.9,71.4,79.2,71.3,68.1z M86.7,75.8c-0.4,0.3-0.4,0.7-0.9,1.1c-0.5,0.3-1.4,1.8-2.3,4.8c-1,3-0.9,5.4-0.8,6.5
		c0.1,1.1,0,2.3-0.9,2.4c-0.9,0.1-2.1-0.7-2.9-0.5s-1.6,0.2-1.4-0.4c0.2-0.6,1-0.4,1.3-0.7c0.3-0.2,0.9-1.5,1-1.8
		c3-8.3,2.7-9.9,3-10.5c0.3-0.6-0.3-2.2-0.5-2.7c-0.3-0.5,0.4-2,1.1-1.8c0.7,0.2,1.5,0.5,2,1s0.3,1.1,0.8,1c0.5-0.1,0.8-0.4,0.9-0.1
		C87,74.6,87.1,75.5,86.7,75.8z M89,73.2c-0.5,1.3,0.4,1.8-0.2,2.1c-0.5,0.3-0.9-1.1-1.5-1.7c-0.1-0.1-0.2-0.1-0.2-0.2
		c-0.2-0.1-0.3-0.1-0.4,0c-0.1,0-0.1,0-0.1,0.1c-0.1,0-0.2,0.1-0.3,0.1c-0.1,0-0.1,0-0.2,0.1c0-0.1-0.1-0.2-0.2-0.3
		c-0.1-0.2-0.2-0.3-0.3-0.5c-0.6-0.7-1.6-1.1-2.3-1.2c-0.1,0-0.2-0.1-0.3,0c-0.1-0.4-0.2-0.9-0.5-1.2c-0.3-0.4-1.3-0.9-1.3-1.4
		c-0.1-0.5-0.4-1,0.1-1.7c0.6-0.6,0.7-1.7,0.5-2.1c-0.1-0.2-0.2-1-0.4-1.5c-0.3-0.5-1.6-0.9-1-1.7c0.7-1.1,4.8-1.4,6.3,1
		s0.5,3.6,2.3,4.5c0.5,0.3,0.6,0.8,0.3,1.2C89,69.3,89.5,71.9,89,73.2z M94.6,69.3c-0.7,0.5-1.4,1.3-3.1,3.2s-2.1,2.3-2.1,1.6
		c-0.1-0.6-0.2-0.8,0.1-1.1c0.3-0.3,0.3-1.8,0.2-2.3c-0.1-0.5,0-1.7,0.1-1.9s-0.1-0.9,0.5-1s0.5-1.8,1.3-3.8
		c0.6-1.4,0.8-2.2,1.8-2.9c0.2-0.2,0.8,0,1.3,0.9c0.2,0.3-0.2,1.3-0.2,1.7c-0.1,0.4-0.5,1.7-0.2,2.7c0.1,0.2,0.5,0.7,0.6,1
		C95.3,67.7,95.4,68.8,94.6,69.3z M97,53.8c-0.6,0.9-1.6,1.3-2.6,1.5c-0.9,0.2-2.1,0.6-2.6-0.1c-0.3-0.4-1.2-1.1-1.2-1.6l0-0.2
		c0,0-0.1-0.5-0.1-0.5c0.2-0.1,0.4,0.9,0.7,0.4c0.1-0.2,0.2,0.8,0.6,0.5c0.2-0.5,0.2,0.6,0.6,0.3c0.1-0.5-0.3-1.8-0.1-2.2
		c0.3,0.4,0.5,1.5,1,1.9c0-0.2,0.1-0.5,0.1-0.6c0.4,0.1,0.3,0.6,0.7,0.8C94,53.6,94,53.3,94.1,53c0.2,0.1,0.3,0.5,0.6,0.6
		c0-0.1,0.1-0.8,0.2-0.8c0.2,0.1,0.3,0.5,0.4,0.5c0.1-0.1,0.2-0.7,0.2-0.8c0.1,0.2,0.2,0.3,0.3,0.4c0.1-0.1,0.2-0.3,0.2-0.4
		c0.1-0.5-0.1-1.1-0.1-1.7c0.4,0.5,0.4,1.5,0.6,2.2c0.2-0.7,0.3-0.1,0.3-0.2c0-0.1,0-0.7-0.1-0.8c0.1-0.1,0.3,0.5,0.4,0.4
		c0,0,0.1-0.2,0.1-0.3C97.5,50.9,97.6,53,97,53.8z M97.5,39.9c-0.2,0.3-0.2,1.1-0.5,1.7c-0.2,0.2-0.4,0.9-0.4,1
		c-0.1,0.2-0.2,0.8-0.2,1c0,0.2-0.1,0.3-0.1,0.5c0.2,1.1,0.4,2.5,0.6,3.2c0.2,1,0.4,2.8,0,3.8c-0.1-0.6-0.4-1.8-0.5-2.4
		c-0.1-0.4-0.2-0.8-0.4-1.2c0,0-0.1,0.1-0.1,0.1c0.2,0.4,0.1,1.1,0,1.5c-0.2-0.1-0.4-0.7-0.6-0.9c-0.1,0.3-0.1,1-0.2,1.3
		c-0.2-0.1-0.5-0.6-0.7-0.7c-0.1,0.3-0.1,0.9-0.2,1.2c-0.2-0.2-0.5-0.6-0.7-0.8c-0.1,0.3,0,0.8-0.2,1.1c-0.3-0.2-0.5-0.7-0.6-0.9
		c-0.2,0.3-0.2,1.2-0.4,1.5c-0.1-0.3-0.3-1.2-0.6-1.5c0,0,0,0-0.1,0c-0.2,0.4-0.1,1-0.4,1.3c-0.2-0.4-0.4-0.7-0.4-1.1l0-0.1
		c0-0.2,0-0.3,0-0.4c-0.2-0.1-0.3-0.1-0.3-0.2c0,0,0,0,0,0c0.1,0.6,0.2,1.1,0.3,1.7c0.1,0.6,0.5,1.8,0.7,2.4
		c-0.8-0.6-1.4-2.3-1.7-3.2c-0.3-0.9-0.8-2.2-1.1-3.2c-1-0.8-2.4-1.9-4.1-2.3c-2-0.5-3.4-1.4-3.2-2s-0.5-0.8-0.5-1.2
		c0.1-0.4-0.3-2,0.2-2.3c0.4-0.3,1.8-1.6,1.8-2.9s1.2-1.9,1.7-2.2c0.5-0.3,1.3-0.3,1.6-0.7s0.8-0.6,1.5-0.3c0.6,0.2,0.9-0.4,1.2-0.8
		c0.3-0.4,0.9-0.3,1.2-0.1c0.2,0.2,0.8-0.4,0.8-0.4s0.2,0,1.2-0.1c1.1-0.1,1.6-0.3,2.1,0.7c0.5,1,1.9,0.6,2.7,0.5
		c0.8-0.1,0.8,1.3,0.8,2C97.6,35.2,98.2,38.6,97.5,39.9z"/>
	<path class="st1" d="M86.4,60.7c-0.2,0.2-0.6,0.3-1,0.2c-0.3,0-0.5-0.1-0.7-0.2c-0.2-0.1-0.4-0.2-0.6-0.2c-0.4-0.1-0.5-0.1-0.6-0.1
		l-0.2,0.1l0.1,0.1c1.1,0.1,2.2,0.5,3,1.1c-0.1-0.2-0.2-0.4-0.1-0.6C86.4,60.9,86.4,60.8,86.4,60.7z"/>
	<path class="st1" d="M79.4,56.1c0,0.7-1.4,1.5-2,2.3s-0.1,1-1.3,2.6c-0.8,1.2-1.1,5-1.1,7c0.1,9.6,2,14.2,5.4,15.4l0.4-1.2
		c-0.4-0.3-0.7-0.8-0.9-1.2c-0.6-0.9-3-3.1-3-11.3c0.1-8.2,2.1-11.6,3.2-12.4c1.2-0.8,1.9,0.3,2.4,0.3c0.4,0,0.5-0.3,0.2-0.5l-0.1,0
		c-0.1,0-0.1-0.1-0.1-0.1c0,0-0.1-0.1-0.1-0.2c-0.1-0.1-0.1-0.3-0.1-0.5c-0.1-0.4,0-0.8,0.2-1c0.1-0.2,0.1-0.3,0.1-0.4
		c0-0.4-0.2-0.9,0-1.3c0.2-0.5-0.1-0.6-0.3-0.8c-0.3-0.2-0.8-0.4-0.4,0.3c0.3,0.7-0.9,0.2-1.3,0.3c-0.4,0.1,0.2,0.7-0.3,0.7
		C79.7,54.1,79.4,55.4,79.4,56.1z"/>
	<path class="st1" d="M50.1,69.7c-0.9-0.3-0.8,0.4-1.2,0.4c-0.4,0-0.5-0.5-1.5-0.3c-1,0.2-1.6,1.5-1.6,2.8s1.3,2.1,1.3,2.1
		s-0.5,0.4-0.1,0.6c0.4,0.2,0.1,1.7,0.6,1.9c0.5,0.3,0.1,4.3-0.2,5.2c-0.3,0.9-0.6,2.5-0.2,2.7c0.4,0.3-0.9,1.4-0.6,1.7
		c0.3,0.3,1.3-0.4,2-0.8c0.7-0.4,0.5,0.3,1,0.2c0.5,0,0.5-0.5,0.7-0.9c0.2-0.5,0.2-1,0-1.3c-0.2-0.3-0.4,0.5-0.7-0.1
		c-0.3-0.6,0.5-1,0.9-4.1c0.5-3.1-0.3-4.3-0.5-4.9c-0.2-0.7,0.3-0.9,0.7-1.5c0.3-0.6,0.3-1.4,0.5-2.1C51.4,70.8,51,70.1,50.1,69.7z"
		/>
	<path class="st1" d="M83.2,54.6c0,0.1,0,0.2-0.1,0.2c0,0.2-0.1,0.5-0.2,0.7c-0.1,0.1-0.1,0.4-0.1,0.7c0,0.1,0.1,0.2,0.1,0.4
		c0.2,0.1,0.3,0.2,0.4,0.3c0.6,0.2,0.8,0.4,1.4,0c0.6-0.4,1-0.1,1.5,0.4s2.6-0.2,2.6-0.2s0-0.4-0.2-0.7c-0.2-0.3-0.6-0.7-0.8-1.3
		c-0.2-0.4-0.8-0.7-1.3-1.3c-0.5-0.5-1.2-0.3-1.7-0.2c-0.4,0.1-0.8,0.3-1.2-0.2C83.2,53.1,83.2,54,83.2,54.6z"/>
	<path class="st1" d="M54,57.6c-0.3,0.4-0.3,0.8-0.3,0.9c0,0.2-0.3,0.5-0.7,0.5s0.6-0.7,0.4-0.8s-0.5,0-1.3,0.2s-1.5,0.8-1.6,1.1
		c-0.1,0.3-0.4,0.5-0.6,0.3c-0.2-0.3,0-0.5,0.7-1c0.7-0.5,1.7-0.7,1.8-1c0-0.3-0.4-0.3-1.8,0c-1.4,0.2-2.1,0.7-2.1,1.4
		s-0.1,0.7-0.8,1.4c-0.3,0.3-0.4,0.4-0.3,0.5c0.5-0.3,1.1-0.5,1.4-0.5c1.2-0.2,2.1,0,2.5,0.1c0,0,0.2,0,0.2-0.1
		c0.2-0.1,0.6-0.1,0.7,0.1c0,0,0.5,0.7,0.7,1.1c0.2-0.3,0.5-0.5,0.8-0.3c0.3,0.2,0.2,0,0.2-0.2c-0.1-0.2,0-0.5,0.1-1.6
		c0.1-1.1,0.5-2.3,0.5-2.3S54.2,57.2,54,57.6z"/>
	<path class="st1" d="M41.8,69c0.2,0.3-0.8,1.1-1.3,1.7c-0.5,0.6,0.7,0.7,1.2,0.8c0.3,0.1,0,0.9-0.3,1.5c0.2-0.3,0.4-0.6,0.6-1
		c0.3-0.5,0.6-1.1,0.8-1.6c0.1-0.2,0.2-0.4,0.2-0.5c0-0.2,0-0.3-0.1-0.4c-0.1-0.2-0.3-0.6-0.4-1.1c-0.2-0.3-0.3-0.6-0.3-1.1
		c-0.3-0.5-0.8,0.2-0.8,0.6c0,0.4-0.4,0.3-0.7,0.4c-0.3,0.2-0.3,0.9-0.6,1.3c-0.3,0.4-0.9,0.9-1.2,1.5c-0.3,0.6,0,0.6,0.4,0.4
		c0.3-0.2,1.2-1.9,1.4-2.3C40.8,69.2,41.7,68.8,41.8,69z"/>
	<path class="st1" d="M52.6,67.9c-0.6-0.4-1-0.9-1.4-2c-0.4-1.1,0.3-2.1,1-2.6c0.7-0.5,0.5-0.9,0.4-1.2s-0.7-1.1-0.7-1.1
		s-0.4,0.2-0.7,0.1c-0.3-0.1-1.1-0.3-2.2-0.1c-0.8,0.1-2.8,1.3-3.5,1.8c-0.6,0.5-1.1,1.8-1.5,1.9c-0.4,0.1-0.8,0.8-1.1,2.1
		s0.9,1.8,0.9,2.7c0,0.9-2.3,4.6-2.8,5.3c-0.5,0.7-1.8,2.3-1.3,2.4c0.5,0.1,1.3-1,2-1.5c0.7-0.5,2.5-1.4,2.8-1.4
		c0.2,0,0.8-0.2,1-0.4c-0.2-0.4-0.4-0.8-0.4-1.4c0-1,0.5-2.3,1.3-3.1c0.5-0.5,1.6-0.7,2-0.3c0.1,0,0.1,0.1,0.2,0.1l0.2,0
		c0.2-0.2,0.5-0.4,0.8-0.4c0.2-0.1,0.4-0.1,0.8,0.2c0.8,0.3,1.3,1,1.3,1.8c0.2-0.2,0.5-0.5,1-0.9C53.8,69.1,53.2,68.3,52.6,67.9z"/>
	<path class="st1" d="M81.6,59.1c0.2-0.2,0.4-0.3,0.6-0.3c0.1,0,0.2-0.1,0.3-0.1c0.4-0.2,1.1-0.9,0.9-1.1c-0.2,0.6-0.8,0.7-1.1,0.7
		c-0.2,0-0.3-0.1-0.4-0.1c-0.1,0-0.2-0.1-0.3-0.2c-0.2-0.1-0.3-0.2-0.5-0.3c-0.3-0.1-0.6-0.2-0.9,0.1c-0.3,0.2-0.8,0.8-1.3,1.9
		c0.2,0.2,0.4,0.5,0.2,0.8c-0.4,0.4-0.8,1.2-1.1,2.3c-0.2,0.9-0.4,1.9-0.5,3c0,0.3,0.1,0.4,0.1,0.4c0.2-0.1,0.3-0.1,0.4-0.8
		c0-0.7,0.5-0.9,1-1.1c0.5-0.2,0.6,0,0.3,0.3c-0.2,0.2-0.4,0.7,0.1,0.7c0.5-0.1-0.1,0.9-0.3,1.1s-0.6,1.1-0.3,1.3
		c0.2,0.2,1,0.7,1.5,0.1c0.1-0.3,0.2-0.6,0.4-0.8c0.4-0.4,0.4-1.2,0.4-1.5c0-0.1-0.1-0.2-0.1-0.3l-0.1-0.4C81,64.5,81,64.3,80.8,64
		c-0.1,0-0.1-0.1-0.2-0.1c-0.2-0.1-0.4-0.3-0.5-0.4c-0.3-0.3-0.8-0.9-0.2-1.7c0.3-0.5,0.9-0.8,1.7-1c-0.2-0.1-0.4-0.3-0.4-0.7
		C81.1,59.6,81.4,59.3,81.6,59.1z"/>
	<path class="st1" d="M85.5,90.3c0,0.1-0.1,0.2-0.1,0.3c0.1,0.1,0.1,0.1,0.1,0.3c-0.1,0.3-0.2,0.5-0.2,0.5s0.7-0.2,1-0.7
		c0.1-0.3,0.1-0.6,0-0.8C86,90.1,85.8,90.2,85.5,90.3z"/>
	<path class="st1" d="M83.6,52.9c0.2,0,0.3,0.1,0.5,0.3c0.2,0,0.3,0,0.6,0l0.1,0c0.1,0,0.2-0.1,0.4-0.1l0.2,0
		c0.6-0.2,0.9-0.1,1.1,0.1c0.2,0.1,0.4,0.2,0.6,0.4l0.7,0.5c0.1-0.2,0-0.5,0.1-0.8c0.1-0.8-0.1-1.5-0.1-2.1
		c-0.1-0.2-0.2-0.3-0.3-0.4c-0.5-0.4-0.8-0.1-1.6-1.2c-0.8-1.1-1.1,0-1.1,0.4c0.1,0.5-1.1,1.5-1.1,2.3
		C83.5,52.5,83.6,52.7,83.6,52.9z"/>
	<path class="st1" d="M91.3,59.5c-0.4,0.2-1.2,0.4-1.2,0.4s-0.2,0.5,1,0.2c1.2-0.4,0.2,0.8,0.3,1.2c0.1,0.5-0.1,0.9-0.5,1
		c-0.4,0-0.7-0.2-0.9,0.5c-0.2,0.6-1.4,0-1.3-0.5c0-0.6-1.3-1.2-1.6-0.2c-0.2,0.7,0.4,1.5,1,1.8c0.1,0,0.5,0.2,0.7,0.1
		c0.2,0,0.5,0.1,0.8,0.2c0.3,0.1,0.4,0.2,0.4,0.7c0.1,1,0.1,2.7,0.2,2.3c0.2-0.2,0.6-1.5,0.7-2.3c0.2-1.3,1.1-2.8,1.8-3.6
		c0.7-0.8-0.6-0.9-0.4-1.5C92.4,59,91.7,59.3,91.3,59.5z"/>
	<path class="st1" d="M85.5,48.5c0.3,0.1,0.5,0.3,0.8,0.7c0.4,0.5,0.6,0.7,0.8,0.7c0.1,0,0.2,0.1,0.3,0.1c0.2,0.1,0.3,0.2,0.5,0.3
		c0-0.2,0.1-0.3,0.1-0.4c0-0.1,0.2-0.3,0.4-0.5c0-0.2,0-0.4-0.1-0.6c-0.2-0.4-0.8-2.1-1.4-2.4c-0.6-0.3-0.9-0.7-1.4,0
		c-0.5,0.7-0.8,1.6-0.3,2.1C85.2,48.4,85.3,48.4,85.5,48.5z"/>
	<path class="st1" d="M86.9,59c0-0.4,0.5-0.8,0.1-1c-0.3,0-0.7,0-1-0.1c-0.2,0-0.3-0.2-0.4-0.3c-0.2-0.2-0.3-0.3-0.4-0.3
		c-0.1,0-0.2,0-0.3,0c-0.3,0.2-0.6,0.3-0.8,0.3c-0.3,0.4-0.4,0.9-0.7,1.2c-0.3,0.4-1.8,0.5-1.8,1.1c0.1,0.6,0.8,0.3,1.6,0
		c0.7-0.3,1.3,0.3,2.2,0.4C86.3,60.4,87,59.6,86.9,59z"/>
	<path class="st1" d="M72.1,80.7c-0.6-0.9-2.7-3.2-2.6-11.2c0.1-6.4,1.1-7.1,1.5-7.5c0.1-0.5,0.3-0.9,0.5-1.2
		c0.6-0.8,0.9-1.2,1.1-1.6c0.1-0.2,0.2-0.3,0.3-0.5c0.1-0.2,0.2-0.3,0.4-0.5c0.2-0.2,0.4-0.5,0.7-0.7c0.2-0.2,0.4-0.4,0.7-0.6
		c0.2-0.2,0.4-0.4,0.5-0.6l0-0.1c0-0.2,0-0.5,0.1-0.7c0-0.4,0.1-0.7,0.2-0.9c0.1-0.2,0.2-0.3,0.3-0.5c0.1-0.1,0.2-0.2,0.2-0.3
		c0.2-0.5-1-0.5-1.3-0.6c-0.3-0.2-0.7-0.4-0.4,0.3c0.3,0.7-0.8,0.2-1.2,0.3c-0.4,0.1,0.2,0.7-0.3,0.7c-0.5,0-0.8,1.2-0.8,1.9
		c0,0.7-1.4,1.5-2,2.2c-0.6,0.7-0.5,0.9-1.7,2.5c-0.8,1.1-0.7,4.9-0.7,6.8c0.1,6.2,0.8,10.2,2.2,12.5c0.2,0.1,0.3,0.1,0.5,0.2
		c0.2,0.4,0.4,0.8,0.6,1.1c0,0,0,0,0,0c0.8,0.8,1.8,1.1,3,1.2c0.1,0,0.2,0,0.2-0.1c-0.2-0.3-0.4-0.7-0.7-1.1
		C73,81.5,72.5,81.3,72.1,80.7z"/>
	<path class="st1" d="M78.9,83.3c-0.2-0.2-0.3-0.3-0.5-0.4c-0.9,0.3-2.1-0.5-2.7-1.4s-2.7-3.5-2.6-11.7c0.1-8.3,1.4-8.5,1.8-8
		c0,0,0.1,0,0.1,0c0.1-0.4,0.3-0.8,0.5-1c0.6-0.8,0.7-1.2,0.8-1.5c0.1-0.2,0.1-0.4,0.2-0.5c0.1-0.2,0.2-0.4,0.4-0.7s0.4-0.5,0.7-0.7
		c0.2-0.2,0.4-0.4,0.7-0.6c0.2-0.2,0.4-0.4,0.5-0.5c0.1-0.1,0.1-0.1,0.1-0.1c0-0.4,0.1-0.9,0.2-1.4c0.1-0.2,0.2-0.5,0.3-0.7
		c0.1-0.1,0.2-0.3,0.4-0.4v-0.1c0-0.1,0-0.1,0.1-0.2c-0.1-0.3-1.1-0.3-1.3-0.5c-0.3-0.2-0.8-0.4-0.4,0.3c0.3,0.7-0.9,0.2-1.3,0.3
		c-0.4,0.1,0.2,0.7-0.3,0.7s-0.8,1.2-0.8,1.9s-1.4,1.5-2,2.3c-0.6,0.8-0.5,0.9-1.7,2.6c-0.8,1.2-0.7,5.1-0.7,7.1
		c0.1,11.2,2.3,16.8,7.3,15.4C78.7,83.5,78.8,83.4,78.9,83.3z"/>
	<path class="st1" d="M86,74.2c-0.5,0.1-0.4-0.4-0.8-1c-0.5-0.6-1.4-0.9-2-1c-0.7-0.2-1.3,1.3-1.1,1.8c0.3,0.5,0.8,2.2,0.5,2.7
		c-0.3,0.6,0,2.2-3,10.5c-0.1,0.3-0.7,1.6-1,1.8c-0.3,0.2-1.1,0.1-1.3,0.7c-0.2,0.6,0.6,0.6,1.4,0.4c0.9-0.2,2,0.5,2.9,0.5
		c0.9,0,1-1.2,0.9-2.4s-0.1-3.5,0.8-6.5c1-3,1.9-4.4,2.3-4.8c0.5-0.3,0.5-0.7,0.9-1.1c0.4-0.3,0.3-1.2,0.3-1.6
		C86.8,73.8,86.6,74.2,86,74.2z"/>
	<path class="st1" d="M62.9,67.5c0-4.2,0.6-5.4,1-5.9c0.1-0.4,0.2-0.8,0.4-1c0.5-0.8,0.8-1.2,1-1.5c0.1-0.2,0.2-0.3,0.3-0.5
		c0.1-0.2,0.2-0.3,0.4-0.5c0.2-0.2,0.4-0.4,0.6-0.6c0.2-0.2,0.4-0.4,0.6-0.5c0.2-0.2,0.3-0.3,0.4-0.4c0.1-0.2,0.1-0.4,0.1-0.6
		c0-0.4,0.1-0.6,0.2-0.9c0.1-0.2,0.2-0.5,0.4-0.7c-0.2-0.2-0.9-0.2-1.1-0.3c-0.2-0.1-0.6-0.3-0.4,0.2s-0.7,0.2-1,0.3
		c-0.3,0.1,0.1,0.5-0.3,0.5c-0.4,0-0.6,1-0.6,1.5c0,0.5-1.2,1.2-1.6,1.8c-0.5,0.6-0.4,0.8-1.4,2.1c-0.7,0.9-0.5,4-0.5,5.7
		c0,2.7,0.3,4.8,0.7,6.5c0.3,0.2,0.5,0.4,0.6,0.5c0,0.1,0.1,0.1,0.1,0.2c0.1,0.5,0.2,1,0.4,1.4c-0.1,0-0.3-0.1-0.4-0.1
		c0.7,1.4,1.5,2.3,2.6,2.8c-0.3-0.9-0.5-1.8-0.7-3C63.9,73.2,62.9,71.7,62.9,67.5z"/>
	<path class="st1" d="M89,67.6c-1.8-1-0.9-2.2-2.3-4.5c-1.5-2.4-5.6-2.1-6.3-1c-0.6,0.8,0.8,1.2,1,1.7c0.3,0.4,0.4,1.2,0.4,1.5
		c0.2,0.4,0.1,1.5-0.5,2.1c-0.6,0.6-0.2,1.1-0.1,1.7c0.1,0.5,1,1.1,1.3,1.4c0.3,0.3,0.4,0.7,0.5,1.2c0.1,0,0.2,0,0.3,0
		c0.7,0.2,1.7,0.5,2.3,1.2c0.2,0.2,0.2,0.3,0.3,0.5c0.1,0.1,0.1,0.2,0.2,0.3c0.1,0,0.1,0,0.2-0.1c0.1,0,0.2-0.1,0.3-0.1
		c0,0,0.1,0,0.1-0.1c0.1-0.1,0.3-0.1,0.4,0c0.1,0,0.1,0.1,0.2,0.2c0.5,0.6,0.9,1.9,1.5,1.7c0.6-0.3-0.3-0.8,0.2-2.1s0-3.9,0.3-4.4
		C89.6,68.3,89.5,67.8,89,67.6z"/>
	<path class="st1" d="M60,66.4c0-4.7,0.8-5,1.1-5.4c0.1-0.3,0.2-0.6,0.4-0.8c0.2-0.2,0.3-0.4,0.4-0.6l0.1-0.1c0.2-0.3,0.5-0.8,0.6-1
		c0.1-0.1,0.2-0.3,0.3-0.4c0.2-0.2,0.4-0.4,0.5-0.6c0.2-0.2,0.4-0.3,0.6-0.5c0.1-0.2,0.1-0.4,0.1-0.5c-0.1-0.7,0.4-0.9,0.5-1.2
		c0.2-0.3-0.8-0.3-0.9-0.4c-0.2-0.1-0.5-0.3-0.3,0.2c0.2,0.5-0.6,0.2-0.9,0.2c-0.3,0,0.1,0.5-0.2,0.5s-0.5,0.9-0.5,1.3
		c0,0.5-1,1.1-1.4,1.6s-0.4,0.7-1.2,1.8c-0.6,0.8-0.5,3.5-0.5,4.9c0.1,6.7,1.6,8.7,4.1,9.4c-0.3-0.6-0.5-1.3-0.7-2.1
		C61.2,72,60,70.6,60,66.4z"/>
	<path class="st1" d="M62.8,73.4c0-0.1-0.1-0.1-0.1-0.2c-0.1-0.2-0.3-0.3-0.6-0.5c0.2,0.8,0.4,1.5,0.7,2.1c0.1,0,0.2,0.1,0.4,0.1
		C63,74.3,62.9,73.9,62.8,73.4z"/>
	<path class="st1" d="M84.7,90.6c0.3-0.2,0.3-0.3,0.1-0.4c-0.2-0.1-1.2-0.2-1-0.7c0.2-0.4,0.6-0.2,1.2,0.1c0.6,0.3,1.2-0.1,1.6-0.9
		c0.4-0.8,0.2-1.4,0.4-2.4c0.2-1,1.9-3.6,3.1-6.4c1.2-2.8,2.5-3.7,3.2-4.3c0.7-0.6,1.5-1.8,1.8-2.8c0.3-1-0.1-1.5-0.1-1.9
		c0-0.3-0.1-0.7-0.3-0.8c-0.8,0.8-1.8,1.7-2.7,2.7c-0.8,0.9-1.4,1.6-1.8,1.9c-0.2,0.2-0.4,0.3-0.7,0.3c-0.1,0.3-0.3,0.6-0.6,0.8
		c-0.5,0.3-0.9,0-1.1-0.2c-0.2-0.2-0.3-0.3-0.4-0.5l0,0.2c0.1,0.2,0.1,0.3,0.1,0.4c-0.1,0.3-0.4,1.4-0.3,2.1
		c0.1,0.7,0.2,2.1-0.8,4.5c-0.9,2.4-1.4,3-1.6,3.8c-0.2,0.7-0.8,1.7-1.3,2.1c-0.2,0.2-0.4,0.4-0.5,0.7c0,0.3,0,0.7-0.1,1
		c-0.2,0.6-0.6,1.2-1.4,1.3c-0.1,0-0.2,0-0.4,0.1c-0.1,0.2-0.2,0.4-0.3,0.7c-0.1,0.2-0.2,0.4-0.2,0.6c-0.1,0.6-0.2,2-0.1,3.4
		c0.8-1.2,1.9-1.8,2.9-1.8c0.3-0.8,0.7-2.3,0.7-2.6C84.1,91.1,84.4,90.7,84.7,90.6z"/>
	<path class="st1" d="M79.6,99.4c0-1,0.2-1.8,0.5-2.5c0-0.1,0-0.1,0-0.2c-0.2-1.8-0.1-3.5,0.1-4.2c0.1-0.5,0.5-1.1,0.6-1.4
		c-0.2-0.1-0.5-0.2-0.8-0.2c-0.2-0.1-0.4-0.2-0.7-0.2c-0.2,0-0.3,0-0.4,0c-0.2,0.1-0.5,0.1-0.7,0.1c-0.4,0.3-0.8,0.8-1,1.1
		c-0.3,0.6,0.3,1.1,0.6,2.1c0.3,1.1,0.2,2,0.6,3.6c0.2,0.8,0.2,2,0.2,3.2C79.2,100.5,79.6,100,79.6,99.4z"/>
	<path class="st1" d="M94.5,66.4c-0.4-1.1,0.1-2.4,0.2-2.7c0.1-0.4,0.4-1.4,0.2-1.7c-0.6-0.9-1.1-1-1.3-0.9
		c-1.1,0.7-1.3,1.5-1.8,2.9c-0.8,2-0.7,3.7-1.3,3.8c-0.6,0.1-0.4,0.8-0.5,1c-0.1,0.3-0.2,1.4-0.1,1.9c0.1,0.5,0.1,2-0.2,2.3
		c-0.3,0.4-0.2,0.5-0.1,1.1c0.1,0.6,0.5,0.3,2.1-1.6s2.3-2.7,3.1-3.2c0.8-0.5,0.7-1.6,0.5-1.9C95,67.1,94.6,66.6,94.5,66.4z"/>
	<path class="st1" d="M69.8,80.3c-0.4-0.2-1-0.3-1.2-0.8c-0.5-0.8-2.8-2.9-2.7-10.6c0.1-6.4,1.1-6.8,1.5-7.3c0.1-0.4,0.3-0.7,0.4-1
		c0.2-0.3,0.4-0.5,0.5-0.7c0.1-0.1,0.1-0.2,0.2-0.3c0.2-0.4,0.7-1.2,0.8-1.3l0.2-0.2c0.2-0.2,0.4-0.5,0.6-0.7
		c0.2-0.2,0.4-0.4,0.7-0.6c0.2-0.1,0.3-0.2,0.4-0.3c0.1-0.2,0.2-0.3,0.2-0.5c0-0.1,0-0.2,0.1-0.4l0-0.1c-0.1-0.9,0.5-1.2,0.7-1.7
		c0.2-0.5-1-0.5-1.2-0.6s-0.7-0.4-0.4,0.2c0.3,0.6-0.8,0.2-1.2,0.3s0.2,0.6-0.3,0.6c-0.5,0-0.7,1.2-0.7,1.8c0,0.6-1.3,1.4-1.9,2.1
		c-0.5,0.7-0.5,0.9-1.6,2.4c-0.8,1.1-0.6,4.7-0.6,6.6c0,2.8,0.2,5.1,0.5,7.1c0.2,0.3,0.4,0.7,0.5,1c0.2,1,0.6,1.4,0.9,2.2
		c-0.2-0.1-0.4-0.2-0.7-0.3c1.1,3.1,2.8,4.4,5.4,4.2c0,0,0.1,0,0.1,0C70.5,81.3,70.1,80.9,69.8,80.3z"/>
	<path class="st1" d="M70.3,80.6c-0.1-0.1-0.3-0.2-0.5-0.2c0.3,0.5,0.7,1,1.1,1.3c0,0,0,0,0,0C70.7,81.3,70.5,81,70.3,80.6z"/>
	<path class="st1" d="M65.2,75.6c-0.1-0.4-0.3-0.7-0.5-1c0.2,1.1,0.4,2.1,0.7,3c0.2,0.1,0.4,0.2,0.7,0.3
		C65.8,77,65.3,76.5,65.2,75.6z"/>
	<path class="st1" d="M59.4,59c0.1-0.1,0.1-0.2,0.2-0.3c0.1-0.1,0.2-0.2,0.3-0.4c0.1-0.2,0.3-0.3,0.5-0.5c-0.2,0-0.5,0-0.6-0.1
		c-0.2-0.3,0.4-0.3-0.1-0.8c-0.5-0.5-0.9-0.9-1.8,0c-0.1,0.1-0.2,0.1-0.3,0.2c0,0.1,0,0.2,0,0.2c0,0.1-0.1,0.3-0.2,0.4
		c-0.1,0.1-0.2,0.3-0.4,0.4c0,0,0,0.1-0.1,0.2c-0.1,0.3-0.2,0.7-0.2,1.1c0,0.3,0,0.6,0,0.8c0,0.2,0,0.3,0,0.3c0,0.2,0,0.3,0,0.4
		c0.5,0.2,1.4-0.1,1.6-0.4c0.1-0.1,0.2-0.2,0.4-0.3C59.1,59.5,59.3,59.2,59.4,59z"/>
	<path class="st1" d="M37,75.6c-0.4-0.1-0.4,0-0.4,0s0,0.5-0.1,1.1c0.1,0,0.2,0.1,0.3,0.1c0.1-0.4,0.3-0.7,0.5-0.9
		C37.7,75.5,37.4,75.7,37,75.6z"/>
	<path class="st1" d="M38.7,72.1c-0.4-0.1-0.4-0.1-0.4-0.1s-0.1,0.7-0.3,1.3c-0.3,0.6-0.7,1.3-1,1.5c-0.3,0.2,0,0.4,0.2,0.4
		c0.2,0.1,0.4,0.2,0.4-0.1c0-0.3,0.1-0.6,0.3-1c0.2-0.3,0.6-1.4,1-1.7C39.4,72.2,39.1,72.2,38.7,72.1z"/>
	<path class="st1" d="M50.7,89.8c0.3,0.1,0.5-0.4,0.5-0.8c0-0.4,0.5-0.9,0.8-1.3c0.3-0.4-0.4-0.8-0.3-1.1c0-0.4,0.5-1.6,0.8-1.7
		c0.3-0.2,0.5-0.6,0.4-0.8c-0.1-0.2-0.5-0.6,0.2-2.6c0.8-2,1.6-5.8,1.7-7.6c0.1-1.8-0.4-2.3-0.2-2.9c0.2-0.5,0.1-0.9-0.3-1.6
		c-0.1-0.2-0.3-0.2-0.4-0.1c-0.1,0.4-0.3,0.7-0.7,1.1c-0.5,0.5-0.8,0.8-1.1,1c-0.2,0.1-0.3,0.2-0.4,0.2c0,0.1-0.1,0.3-0.1,0.4
		c0,0.2,0,0.4-0.1,0.6c0,0.4-0.1,0.8-0.4,1.3c-0.1,0.2-0.2,0.3-0.3,0.4c-0.1,0.1-0.2,0.2-0.3,0.4c0,0.1,0.1,0.3,0.1,0.5
		c0.1,0.3,0.3,0.7,0.4,1.3c0.2,0.8,0.2,2,0,3.6c-0.2,1.6-0.6,2.5-0.8,3.1l-0.1,0.3l0,0.1c0.3,0,0.5,0.2,0.6,0.3
		c0.3,0.5,0.3,1.2,0,1.9c-0.1,0.2-0.2,0.5-0.3,0.7c-0.2,0.3-0.5,0.6-1,0.7c-0.1,0.2,0.6,0.2,0.9,0.4c0.3,0.1,0.8,0.4,0.7,0.5
		c-0.1,0.1-0.3-0.2-0.9-0.3c-0.3-0.1-0.5-0.1-0.6-0.1c0.2,0.6,0.1,1.4-0.9,1.9c-0.2,0.1-0.5,0.3-0.8,0.5c-0.2,0.2-0.5,0.4-0.8,0.5
		c-0.5,0.3-1.1,0.8-1.7,1.2v0c0.2,0.3,0.4,0.6,0.7,0.8c1.5-1.4,1.9-1.5,2.6-2C49.5,90,50.4,89.8,50.7,89.8z"/>
	<path class="st1" d="M57,56.8c0,0-0.2-0.3-0.6,0c-0.4,0.3-0.8,0.4-1,0.2c-0.1-0.1-0.3-0.1-0.5,0c0,0.1,0.1,0.3,0,0.4
		c0,0-0.1,0.3-0.2,0.7c-0.1,0.4-0.2,1-0.3,1.5c0,0.6-0.1,0.9-0.1,1.2c0,0.1,0,0.2,0,0.2c0,0.1,0.1,0.2,0.1,0.3c0.6-0.4,1-1.2,1.3-1
		c0.3,0.2,0.4,0.3,0.4,0.3s-0.1-0.5,0-1.3c0.1-0.8,0.3-1.7,0.5-1.7C57,57.5,57,56.8,57,56.8z"/>
	<path class="st1" d="M49,87.4c-0.2-0.2,0-0.4-0.1-0.6c0,0,0-0.1-0.1-0.1c-0.3,0.2-0.8,0.5-1.1,0.7c-0.2,0.1-0.4,0.2-0.7,0.2
		c-0.2,0-0.4,0-0.6-0.1c-0.1,0-0.2-0.1-0.2-0.1s-0.4,0.7-0.8,1.1c-0.1,0.9-0.2,1.7,0,2.5c1.5-1.1,2.7-1.9,3.2-2.2
		C49.4,88.5,49.2,87.7,49,87.4z"/>
	<path class="st1" d="M96.9,32.6c-0.8,0.1-2.2,0.5-2.7-0.5c-0.5-1-1-0.8-2.1-0.7c-1.1,0.1-1.2,0.1-1.2,0.1s-0.6,0.7-0.8,0.4
		c-0.3-0.2-0.9-0.2-1.2,0.1c-0.3,0.4-0.6,1-1.2,0.8c-0.6-0.2-1.2,0-1.5,0.3c-0.3,0.3-1.2,0.4-1.6,0.7c-0.5,0.2-1.7,0.9-1.7,2.2
		s-1.4,2.5-1.8,2.9c-0.4,0.3-0.1,1.9-0.2,2.3s0.7,0.5,0.5,1.2s1.2,1.5,3.2,2c1.7,0.4,3.2,1.5,4.1,2.3c-0.1-0.2-0.1-0.4-0.1-0.5
		l0.4,0.5c-0.1-0.2,0.3-0.4,0.5-0.3c0.2,0.1,0.4,0.5,0.6,0.7c0.3,0.5,0.3,1.2,0.4,1.7c0,0.1,0,0.2,0.1,0.2c0,0,0,0,0,0
		c0.1,0.1,0.2,0.2,0.3,0.2c0.1-1,1.8-0.2,2.3-0.2c0.9-0.2,1.8-0.9,2.5-1.4c0.1,0,0.1,0.2,0.1,0.2c0.1,0,0.1-0.1,0.1-0.1
		c-0.1-0.2-0.1-0.5-0.2-0.7c-0.2-0.5-0.4-1.1-0.5-1.7c0-0.2,0-0.7,0.2-0.9c0.2-0.2,0.5-0.3,0.6-0.1l0-1.1c0.1,0.2,0.2,0.6,0.3,1
		c0.1-0.2,0.1-0.3,0.1-0.5c0-0.2,0.1-0.8,0.2-1c0.1-0.1,0.2-0.9,0.4-1c0.4-0.6,0.4-1.4,0.5-1.7c0.7-1.4,0.1-4.8,0.2-5.4
		C97.7,33.8,97.7,32.5,96.9,32.6z M88.9,43.7c-1-0.6-1.9-0.4-2.4-0.5c-0.4-0.1-1.2-1-1-1.6c0.2-0.6,0.6-1.6,1.1-2
		c0.3-0.2,1-0.7,1.9-0.2c0.4,0.3,1.7,1.8,2.2,2.2c0.4,0.5,0.9,1.5,0.5,2.2C90.8,44.6,89.9,44.4,88.9,43.7z M93.1,48.3
		c-0.2,0.1-1.2-0.9-1.8-1.8c-0.6-0.8-0.2-1.2,0.4-1.5c0.5-0.3,1.3,0.6,1.5,1.9C93.5,48.1,93.3,48.2,93.1,48.3z M94.9,44.9
		c-0.2,0.9-0.1,1.8-0.3,2.5s-0.4,0.3-0.5-0.3c-0.1-0.6-0.9-2.6-0.1-2.9C94.4,43.8,95.1,44.2,94.9,44.9z M96,39.5
		c-0.6,0.9-0.9,1.2-1.1,2.2c-0.2,0.9-0.6,0.9-0.9,0.8c-0.3-0.1-0.4-0.8-0.4-1.3s0.2-1.8-0.1-2.2c-0.2-0.5-0.2-1.4,0.6-1.9
		c0.8-0.5,0.9,0.2,1.4,0.5C96,37.9,96.5,38.6,96,39.5z"/>
	<path class="st1" d="M91.7,49.3C91.7,49.3,91.7,49.3,91.7,49.3C91.7,49.3,91.7,49.3,91.7,49.3C91.7,49.3,91.7,49.3,91.7,49.3z"/>
	<path class="st1" d="M89.9,47.6c0,0-0.1-0.1-0.3-0.1c-0.2-0.2-0.3-0.4-0.5-0.6c-0.1-0.1-0.2-0.2-0.4-0.3c0.2,1,0.8,2.3,1,3.2
		c0.3,1,0.9,2.6,1.7,3.2c-0.2-0.6-0.5-1.8-0.7-2.4c-0.1-0.5-0.2-1.1-0.3-1.7c-0.3-0.7-0.2-0.7-0.4-0.9C90.1,47.8,90,47.7,89.9,47.6z
		"/>
	<path class="st1" d="M90.2,46.9c-0.1-0.2-0.3-0.6-0.6-0.7c-0.3-0.1-0.6,0-0.5,0.3L88.6,46c0,0.2,0.1,0.3,0.1,0.5
		c0.1,0.1,0.2,0.2,0.4,0.3c0.2,0.2,0.4,0.3,0.5,0.6c0.2,0,0.2,0.1,0.3,0.1c0.1,0.1,0.2,0.2,0.3,0.4c0.1,0.2,0,0.2,0.4,0.9
		c0-0.1,0-0.2-0.1-0.2C90.4,48.1,90.4,47.5,90.2,46.9z"/>
	<path class="st1" d="M96.2,45.2c0.3,1.1,0.2,1.9-0.3,2.5c0.1,0.4,0.2,0.8,0.4,1.2c0.2,0.6,0.4,1.8,0.5,2.4c0.4-1,0.2-2.8,0-3.8
		c-0.2-0.8-0.3-2.2-0.6-3.2C96.2,44.4,96.1,44.7,96.2,45.2z"/>
	<path class="st1" d="M96,44.3c-0.1-0.2-0.4-0.2-0.6,0.1c-0.2,0.2-0.2,0.7-0.2,0.9c0,0.6,0.3,1.2,0.5,1.7c0.1,0.2,0.2,0.4,0.2,0.7
		c0.5-0.6,0.6-1.3,0.3-2.5c-0.1-0.5-0.1-0.8,0-1c-0.1-0.4-0.2-0.8-0.3-1L96,44.3z"/>
	<path class="st1" d="M94,48.7c-0.5,0.2-1.7,0.5-2.1,0.6c0,0-0.1,0-0.2,0c0.2,0.3,0.4,1.2,0.6,1.5c0.2-0.3,0.2-1.1,0.4-1.5
		c0.1,0.2,0.4,0.8,0.6,0.9c0.2-0.3,0.1-0.8,0.2-1.1c0.2,0.3,0.5,0.7,0.7,0.8c0.1-0.3,0.1-0.9,0.2-1.2c0.2,0.1,0.5,0.6,0.7,0.7
		c0.2-0.3,0.1-0.9,0.2-1.3c0.2,0.2,0.4,0.8,0.6,0.9c0.1-0.3,0.1-1,0-1.5c-0.2,0.2-0.4,0.3-0.6,0.4C95,48.3,94.8,48.4,94,48.7z"/>
	<path class="st1" d="M90.9,49.5L90.9,49.5c0,0.5,0.3,0.7,0.4,1.2c0.3-0.3,0.2-1,0.4-1.3c-0.2,0-0.6-0.1-0.8-0.2
		C90.9,49.3,90.8,49.4,90.9,49.5z"/>
	<path class="st1" d="M93.2,48.9c-0.4,0.1-2.2-0.8-2.3,0.2c0.3,0.1,0.6,0.2,0.8,0.2c0,0,0,0,0,0c0,0,0,0,0,0c0.1,0,0.1,0,0.2,0
		c0.4-0.1,1.6-0.4,2.1-0.6c0.8-0.3,1-0.4,1.2-0.5c0.2-0.1,0.4-0.3,0.6-0.4c0-0.1-0.1-0.2-0.1-0.2C94.9,48.1,94,48.8,93.2,48.9z"/>
	<path class="st1" d="M97.2,52.3c0,0-0.1,0.2-0.1,0.3c-0.1,0-0.3-0.5-0.4-0.4c0,0.1,0,0.7,0.1,0.8c-0.1,0-0.2-0.5-0.3,0.2
		c-0.2-0.7-0.2-1.7-0.6-2.2c-0.1,0.5,0.1,1.1,0.1,1.7c0,0.2-0.1,0.3-0.2,0.4c0.1,0.1,0.2,0.3,0.3,0.4c0.1,0.4-0.4,0.7-0.7,0.9
		c-0.4,0.3-1,0.5-1.5,0.4c-0.2-0.1-0.2-0.2-0.3-0.3c-0.1-0.1-0.3-0.1-0.4-0.2h0.2c-0.1-0.1-0.1-0.2-0.1-0.4c-0.5-0.4-0.7-1.5-1-1.9
		c-0.2,0.4,0.2,1.7,0.1,2.2c-0.4,0.2-0.5-0.9-0.7-0.3c-0.4,0.3-0.5-0.7-0.6-0.5c-0.3,0.5-0.5-0.5-0.7-0.4c0,0,0.1,0.5,0.1,0.5
		l0.1,0.2c0,0.5,0.9,1.2,1.2,1.6c0.6,0.7,1.7,0.3,2.6,0.1c1-0.2,2-0.6,2.6-1.5C97.6,53,97.5,50.9,97.2,52.3z"/>
	<path class="st1" d="M95.8,53c-0.1-0.1-0.2-0.3-0.3-0.4c0,0-0.1,0.6-0.2,0.8c-0.1,0-0.2-0.4-0.4-0.5c-0.1,0-0.2,0.7-0.2,0.8
		c-0.2-0.1-0.3-0.5-0.6-0.6C94,53.3,94,53.6,94,53.9c-0.3-0.1-0.3-0.7-0.7-0.8c0,0.1-0.1,0.4-0.1,0.6c0.2,0.1,0.3,0.2,0.5,0.2
		C94.1,53.9,95.3,53.7,95.8,53z"/>
	<path class="st1" d="M93.3,54.2h-0.2c0.1,0.1,0.3,0.1,0.4,0.2c0.1,0.1,0.2,0.2,0.3,0.3c0.4,0.2,1.1-0.1,1.5-0.4
		c0.3-0.2,0.8-0.5,0.7-0.9c-0.1-0.2-0.2-0.3-0.3-0.4c-0.4,0.7-1.7,1-1.9,0.9c-0.2,0-0.4,0-0.5-0.2C93.3,54,93.3,54.1,93.3,54.2z"/>
	<path class="st1" d="M90.1,58.8c-0.2-0.2-0.4-0.4-0.8-0.5c0.2,0.3,0.7,1.2,0.1,1.2L89,58.3c0.1,0,0.2,0,0.3,0c0,0,0,0,0,0
		C89,57.8,88.5,58,87.9,58c-0.5,0-0.3,0.2-0.4,0.6c-0.1,0.2-0.3,0.6-0.3,0.8c0,0.4,0.4,0.3,0.7,0.2c0.3,0,0.5,0,0.8,0.2
		c0.4,0.2,0.6,0.2,1.1-0.1c0.2-0.1,0.4-0.2,0.6-0.3c0.1,0,0.5,0,0.6-0.2C91.1,59.1,90.3,58.9,90.1,58.8z"/>
	<path class="st1" d="M89,58.3l0.5,1.2c0.6,0,0.1-0.9-0.1-1.2C89.3,58.3,89.2,58.3,89,58.3z"/>
</g>
<text transform="matrix(1 0 0 1 48 -142.7244)" style="font-family:'MyriadPro-Regular'; font-size:12px;">Lorem ipsum</text>
</svg>
