<?xml version="1.0" encoding="utf-8"?>
<!-- Generator: Adobe Illustrator 24.2.0, SVG Export Plug-In . SVG Version: 6.00 Build 0)  -->
<svg version="1.1" id="Layer_1" xmlns="http://www.w3.org/2000/svg" xmlns:xlink="http://www.w3.org/1999/xlink" x="0px" y="0px"
	 viewBox="0 0 200 58" style="enable-background:new 0 0 200 58;" xml:space="preserve">
<style type="text/css">
	.st0{fill:#FFFFFF;}
	.st1{fill:#F59132;}
</style>
<g>
	<path class="st0" d="M17.2,54.3c-0.2-0.6-0.4-1.2-0.5-1.8c-0.2-0.6-0.4-1.2-0.4-1.8c0-0.5,0.1-0.9,0.4-1.2c0.2-0.2,0.3-0.4,0.5-0.6
		c0.6-0.8,0.8-1.8,0.9-2.8c0.1-0.4,0-0.8,0-1.2c0-0.1,0-0.2-0.1-0.2s-0.1,0.1-0.2,0.1c-0.2,0.2-0.4,0.5-0.6,0.7
		c-0.5,0.5-1,1-1.5,1.6c-0.4,0.4-0.8,0.8-1.2,1.2c-0.4,0.3-0.8,0.7-1,1.1c-0.4,0.6-0.7,1.2-1.1,1.9c-0.4,0.6-0.6,1.3-0.6,2
		c0,0.6,0,1.1,0.1,1.7c0,0.1,0.1,0.2,0.1,0.3c1.9,1,4,1.8,6.3,2.2c-0.2-0.5-0.3-0.9-0.5-1.4C17.6,55.4,17.4,54.9,17.2,54.3"/>
	<path class="st0" d="M32.2,52.8c-0.1-0.6-0.2-1.3-0.3-1.9C31.8,50,31.6,49,31.5,48s-0.2-2-0.3-3c0-0.5-0.1-0.9-0.1-1.4
		c0-0.4-0.2-0.5-0.5-0.4c-0.6,0.2-1.1,0.3-1.7,0.4c-0.3,0.1-0.6,0.1-0.8,0.1c-0.7,0.2-1.5,0.2-2.3,0.3c-0.6,0.1-1.2,0-1.9,0
		c-0.1,0-0.3,0-0.3,0.2c-0.2,0.7-0.6,1.2-1,1.7c-0.3,0.4-0.6,0.8-0.9,1.2c-0.5,0.6-0.9,1.3-1.3,1.9c-0.3,0.5-0.7,1-0.9,1.6
		c-0.1,0.3-0.1,0.5-0.2,0.8c-0.1,0.5-0.1,1,0,1.5c0.1,0.3,0.2,0.7,0.3,1c0.2,0.7,0.4,1.3,0.6,2c0,0.1,0.1,0.2,0.1,0.2
		c0.2,0.1,0.4,0.2,0.7,0.3c0.4,0.2,0.8,0.4,1,0.9c0.1,0.2,0.1,0.3,0,0.5l0,0c3.5,0.1,7-0.4,10.3-1.5c0-0.7,0-1.5-0.1-2.2
		C32.4,53.6,32.3,53.2,32.2,52.8"/>
	<path class="st0" d="M34,0.2C18.9-0.4,3.9,12,0.6,27.9c-2.3,11,1.6,20.8,9.3,26c0-0.2,0-0.5-0.1-0.7c-0.1-0.7-0.1-1.5-0.1-2.3
		c0-0.2,0-0.4,0.1-0.6c0.1-0.4,0.4-0.7,0.6-1c0.3-0.4,0.5-0.9,0.8-1.3c0.4-0.6,0.7-1.2,0.9-1.9c0.2-0.4,0.3-0.9,0.4-1.4
		c0.1-0.5,0.2-1.1,0.2-1.6c-0.1-0.5-0.1-1.1-0.2-1.6c0,0-0.4-1.7-0.4-4c-0.3,0.6-0.6,1.6-0.9,2.8c-0.6,2.4-1.1,5.5-1.3,6.5
		c-0.4,1.7-0.3,1.7-0.7,1.8c-0.2,0-0.3-0.2-0.4-0.5C8.6,46.7,6.3,43.7,9,37s6.8-9.2,11.9-9.8c5.1-0.6,10.5,0,11.6-2
		c1-1.7,2.3-4,2.8-4.9c0.1-0.1,0-0.4-0.1-0.6c-0.6-2.1,0.3-5.1,0.7-5.1c0.3,0.1,2.2,2.8,2.4,2.6c0.1-0.1,1.1-0.3,2.2-0.3
		c1,0,2.1,0.1,2.2,0.3c0.1,0.2,2-2.5,2.4-2.6c0.3-0.1,1.3,3,0.7,5.1c0,0.2-0.1,0.4-0.1,0.6c0,0.4,0.1,0.7,0.2,1.1
		c0.2,0.5,0.8,3.5,0.5,6.6c-0.4,3-1.7,4.6-1.9,4.9c-0.1,0.3-0.1,2.6-1.1,4.5c0,0.1,0,0.2,0,0.3c-0.1,0.6-0.3,1.2-0.6,1.8
		c-0.1,0.3-0.2,0.6-0.3,0.8c-0.2,0.3-0.3,0.7-0.5,1c-0.4,0.7-0.8,1.3-1.3,1.8c-0.4,0.5-0.8,1-1,1.6c0,0.1-0.1,0.2-0.1,0.3
		c-0.3,0.3-0.3,0.6-0.4,0.9c-0.1,0.5-0.2,0.9-0.3,1.4s-0.2,1.1-0.3,1.6c-0.1,0.3,0,0.6-0.1,0.9c-0.2,0.6-0.2,1.3-0.3,2
		s-0.1,1.4-0.1,2.1c8.6-4.8,15.5-13.6,17.6-23.7C58.8,14.2,49.2,0.8,34,0.2"/>
	<path class="st0" d="M35.3,53.5c0-1,0-2.1,0-3.1c0-0.6,0.1-1.2,0.2-1.8c0-0.7,0.2-1.3,0.3-2c0-0.2,0.1-0.4,0.1-0.6
		c0-0.3,0.1-0.5,0.2-0.8c0.1-0.5,0.3-1.1,0.5-1.6c0.1-0.2,0.1-0.4,0.1-0.7c-0.1,0.2-0.2,0.3-0.3,0.5c-0.2,0.4-0.4,0.9-0.6,1.3
		c-0.2,0.5-0.3,1-0.4,1.5c-0.1,0.6-0.2,1.3-0.3,1.9c-0.1,0.5-0.1,1.1-0.2,1.6c0,1-0.1,2-0.2,3c-0.1,0.9-0.1,1.9,0,2.8
		c0.2-0.1,0.4-0.2,0.5-0.2c-0.1-0.2-0.1-0.5-0.1-0.7C35.2,54.1,35.3,53.8,35.3,53.5"/>
</g>
<g>
	<path class="st0" d="M76.1,10.1c6.3,0,8.7,4.4,8.7,8.9s-3.2,8.9-8.9,8.9h-5.5V38H64V10.1H76.1z M70.4,22.1h4.7
		c2.4,0,3.4-1.4,3.4-3.1s-0.9-3.1-3.4-3.1h-4.7V22.1z"/>
	<path class="st0" d="M99,38.3c-5.8,0-10.9-3-10.9-9.1V18.7c0-6.1,5.7-8.9,10.9-8.9c5.3,0,10.9,3,10.9,9.1v10.3
		C109.9,35.3,104.8,38.3,99,38.3z M95.1,2c1.7,0,3.2,1.4,3.2,3.1s-1.4,3.2-3.2,3.2c-1.7,0-3.1-1.4-3.1-3.2S93.3,2,95.1,2z
		 M103.4,20.1c0-3.2-2.3-4.4-4.5-4.4s-4.5,1.2-4.5,4.4V28c0,3.2,2.4,4.4,4.5,4.4s4.5-1.2,4.5-4.4V20.1z M103.1,2
		c1.7,0,3.1,1.4,3.1,3.1s-1.4,3.2-3.1,3.2s-3.2-1.4-3.2-3.2S101.4,2,103.1,2z"/>
	<path class="st0" d="M120,21.3h11.1V27H120v11h-6.4V10.1H133v5.7h-13V21.3z"/>
	<path class="st0" d="M142.5,21.3h11.1V27h-11.1v11h-6.4V10.1h19.5v5.7h-13v5.5H142.5z"/>
	<g>
		<path class="st0" d="M171.2,26.3c-1.9,1.5-5.7,3.8-6.3,6.3h11.7V38h-17.9v-3.9c0-4.6,2.8-7.9,5.8-10.2c3-2.2,6-3.9,6-6.1
			c0-1.3-1-2.4-3.3-2.4c-1.7,0-3.6,0.6-5.2,2l-3.1-4.8c2.2-2,5.5-2.9,8.8-2.9c4.4,0,9.1,1.9,9.1,8.1
			C176.7,21.6,173.6,24.3,171.2,26.3z"/>
		<path class="st0" d="M197.8,34.1V38h-6.1v-3.9h-11.5v-4.8L189,9.9h6.4l-8.5,18.8h4.8v-7.8h6.1v7.8h2.2V34h-2.2V34.1z"/>
	</g>
</g>
<g>
	<path class="st1" d="M65.9,55.8v-7.4l-1,0.8l-1-1.3L66,46h1.6v9.7h-1.7V55.8z"/>
	<path class="st1" d="M76.7,48.6c0,0.9-0.5,1.7-1.3,2.1c0.8,0.4,1.3,1.2,1.3,2.1c0,2.1-1.7,3-3.2,3c-1.1,0-2.2-0.4-3-1
		c0.1-0.1,0.9-1.3,0.9-1.4c0.5,0.5,1.3,0.7,1.9,0.7c0.9,0,1.5-0.5,1.5-1.3c0-0.7-0.5-1.3-1.3-1.3h-1.2V50h1.1c0.6,0,1.2-0.5,1.2-1.3
		s-0.7-1.1-1.3-1.1c-0.6,0-1.4,0.3-1.9,0.7L70.7,47c0.7-0.6,1.8-1,3-1C75.2,46,76.7,46.8,76.7,48.6z"/>
	<path class="st1" d="M83.8,49.7v6.1h-1.9v-9.7h1.8l2.3,3.3l1.9,2.8H88V46h1.9v9.7h-1.8L85.6,52L83.8,49.7L83.8,49.7z"/>
	<path class="st1" d="M95,55.9c-2,0-3.7-1.1-3.7-3.2v-3.6C91.2,47,93,46,95,46s3.7,1.1,3.7,3.2v3.5C98.7,54.8,97,55.9,95,55.9z
		 M96.7,49.5c0-1.3-0.9-1.8-1.8-1.8s-1.8,0.5-1.8,1.8v2.8c0,1.3,0.9,1.8,1.8,1.8s1.8-0.5,1.8-1.8V49.5z"/>
	<path class="st1" d="M103.7,53l1-3.5l1-3.4h2l-3.1,9.7h-2l-3.1-9.7h2.1l1.1,3.5L103.7,53L103.7,53z"/>
	<path class="st1" d="M111.6,52.7v-1.5h6.7v1.5H111.6z"/>
	<path class="st1" d="M127,51.6c-0.8,0.6-2.2,1.4-2.3,2.6h4.2v1.6h-6.1v-1.4c0-1.6,1-2.6,2.1-3.4c1.1-0.7,2.1-1.4,2.1-2.2
		c0-0.6-0.7-1-1.4-1c-0.6,0-1.3,0.2-1.9,0.7l-0.9-1.4c0.7-0.6,1.8-1,2.9-1c1.5,0,3.1,0.7,3.1,2.7C128.9,50,127.9,50.9,127,51.6z"/>
	<path class="st1" d="M136.3,53.2c0,1.8-1.5,2.7-3.1,2.7c-1.2,0-2.2-0.4-2.9-1l1-1.4c0.6,0.5,1.2,0.7,1.8,0.7c0.5,0,1.4-0.4,1.4-1.2
		v-1.1c-0.8,0.4-1.3,0.6-1.8,0.6c-1.5,0-2.4-1.1-2.4-2.6v-1c0-1.8,1.5-2.8,3-2.8c1.7,0,3,1,3,2.8V53.2z M133.3,47.7
		c-0.6,0-1.2,0.4-1.2,1.3v0.6c0,0.7,0.5,1,0.9,1c0.5,0,1-0.2,1.6-0.5V49C134.5,48,133.9,47.7,133.3,47.7z"/>
	<path class="st1" d="M143.2,49.7v6.1h-1.9v-9.7h1.8l2.3,3.3l1.9,2.8h0.1V46h1.9v9.7h-1.8L145,52L143.2,49.7L143.2,49.7z"/>
	<path class="st1" d="M154.4,55.9c-2,0-3.7-1.1-3.7-3.2v-3.6c0-2.1,1.8-3.1,3.7-3.1s3.7,1.1,3.7,3.2v3.5
		C158.2,54.8,156.5,55.9,154.4,55.9z M156.2,49.5c0-1.3-0.9-1.8-1.8-1.8c-0.9,0-1.8,0.5-1.8,1.8v2.8c0,1.3,0.9,1.8,1.8,1.8
		c0.9,0,1.8-0.5,1.8-1.8V49.5z"/>
	<path class="st1" d="M163.2,53l1-3.5l1-3.4h2l-3.1,9.7h-2l-3.1-9.7h2.1l1.1,3.5L163.2,53L163.2,53z"/>
	<path class="st1" d="M175.7,51.6c-0.8,0.6-2.2,1.4-2.3,2.6h4.2v1.6h-6.1v-1.4c0-1.6,1-2.6,2.1-3.4c1.1-0.7,2.1-1.4,2.1-2.2
		c0-0.6-0.7-1-1.4-1c-0.6,0-1.3,0.2-1.9,0.7l-0.9-1.4c0.7-0.6,1.8-1,2.9-1c1.5,0,3.1,0.7,3.1,2.7C177.6,50,176.6,50.9,175.7,51.6z"
		/>
	<path class="st1" d="M182,55.9c-1.4,0-3.1-0.8-3.1-2.6v-4.7c0-1.8,1.7-2.6,3.1-2.6c1.4,0,3.1,0.9,3.1,2.6v4.7
		C185.1,55.1,183.4,55.9,182,55.9z M183.3,49c0-0.9-0.7-1.3-1.3-1.3s-1.3,0.3-1.3,1.3v4c0,0.9,0.7,1.2,1.3,1.2s1.3-0.3,1.3-1.2V49z"
		/>
	<path class="st1" d="M190.7,51.6c-0.8,0.6-2.2,1.4-2.3,2.6h4.2v1.6h-6.1v-1.4c0-1.6,1-2.6,2.1-3.4c1.1-0.7,2.1-1.4,2.1-2.2
		c0-0.6-0.7-1-1.4-1c-0.6,0-1.3,0.2-1.9,0.7l-0.9-1.4c0.7-0.6,1.8-1,2.9-1c1.5,0,3.1,0.7,3.1,2.7C192.5,50,191.5,50.9,190.7,51.6z"
		/>
	<path class="st1" d="M196.9,55.9c-1.4,0-3.1-0.8-3.1-2.6v-4.7c0-1.8,1.7-2.6,3.1-2.6c1.4,0,3.1,0.9,3.1,2.6v4.7
		C200,55.1,198.3,55.9,196.9,55.9z M198.2,49c0-0.9-0.7-1.3-1.3-1.3s-1.3,0.3-1.3,1.3v4c0,0.9,0.7,1.2,1.3,1.2s1.3-0.3,1.3-1.2V49z"
		/>
</g>
</svg>
