<?xml version="1.0" encoding="utf-8"?>
<!-- Generator: Adobe Illustrator 24.3.0, SVG Export Plug-In . SVG Version: 6.00 Build 0)  -->
<svg version="1.1" id="Layer_1" xmlns="http://www.w3.org/2000/svg" xmlns:xlink="http://www.w3.org/1999/xlink" x="0px" y="0px"
	 viewBox="0 0 494 140" style="enable-background:new 0 0 494 140;" xml:space="preserve">
<style type="text/css">
	.st0{fill:#F79433;}
	.st1{fill:#FFFFFF;}
	.st2{fill:#0E1417;}
	.st3{fill:#29333A;}
	.st4{fill:#343A41;}
	.st5{fill:#231F20;}
</style>
<g>
	<polyline class="st3" points="21,61.2 25.8,63.6 51.7,68.7 61.4,75.1 68,86 68,100.4 61.5,110.2 53.4,116 41.9,119.4 26.8,119.4 
		12.4,115.7 4.4,109.4 0.5,105 10.3,95.5 13.6,99.4 18.1,102.9 28.6,105.6 40,105.6 47.1,103.6 51.4,100.6 54.1,96.3 54.1,89.9 
		51.2,85 46.1,81.4 21.7,76.5 10.8,70.7 3.7,60.9 3.7,45.8 9.3,36.1 16.9,30.2 27.5,27.3 41.9,27.3 55.8,31 65.9,38 58.3,49.4 
		50.2,43.8 40.7,40.9 29.3,40.9 22.9,42.7 20,45.1 17.6,49.2 17.6,56.7 21,61.2 	"/>
	<polyline class="st3" points="93.6,10.8 107.6,10.8 107.6,57.8 111.7,54.4 123.1,47.9 138.7,47.9 152.9,52 163.3,65.9 163.3,138.6 
		149.2,138.6 149.2,71.3 144.9,64.7 135.8,61.8 124.9,61.8 113.1,69.6 107.6,77.6 107.6,138.6 93.6,138.6 93.6,10.8 	"/>
	<path class="st3" d="M232.6,105.6l10-4.9l5.1-7.6l2.2-11.4v-17l-2.2-11l-5.3-7.5l-9.8-5.1h-13.2l-10.2,5.1l-4.9,7.5l-2.2,11v17
		l2.2,11.4l5.1,7.6l10,4.9H232.6 M217,119.4l-17.1-8.1l-8.5-12.5L188,83.4v-20l3.4-15.3l8.5-12.5l17.1-8.3h18l17.1,8.3l8.5,12.5
		l3.4,15.3v20l-3.4,15.3l-8.5,12.5l-17.1,8.1H217z"/>
	<polyline class="st3" points="330.9,41.2 323.6,41.2 314.3,45.6 307.4,53.4 303.6,61.6 303.6,118 289.6,118 289.6,28.7 303.6,28.7 
		303.6,39 310.1,32.7 321.6,27.3 332.6,27.3 341.1,29.7 337.7,43.1 330.9,41.2 	"/>
	<polyline class="st3" points="379.9,51.5 403.3,51.5 403.3,65.4 379.9,65.4 379.9,117.6 384.2,123.7 390.3,126.1 395,126.1 
		407,123 410.6,136.4 394.8,140 387,140 375.2,135.6 365.8,122.2 365.8,65.4 349.7,65.4 349.7,51.5 365.8,51.5 365.8,20.3 
		379.9,20.3 379.9,51.5 	"/>
	<polyline class="st3" points="446.5,61.2 451.3,63.6 477.2,68.7 486.9,75.1 493.5,86 493.5,100.4 487.1,110.2 478.9,116 
		467.4,119.4 452.3,119.4 437.9,115.7 429.9,109.4 426,105 435.9,95.5 439.1,99.4 443.6,102.9 454.2,105.6 465.5,105.6 472.6,103.6 
		476.9,100.6 479.6,96.3 479.6,89.9 476.7,85 471.6,81.4 447.2,76.5 436.4,70.7 429.2,60.9 429.2,45.8 434.8,36.1 442.5,30.2 
		453,27.3 467.4,27.3 481.3,31 491.5,38 483.8,49.4 475.7,43.8 466.2,40.9 454.8,40.9 448.4,42.7 445.5,45.1 443.1,49.2 443.1,56.7 
		446.5,61.2 	"/>
</g>
</svg>
