<?xml version="1.0" encoding="utf-8"?>
<!-- Generator: Adobe Illustrator 25.0.0, SVG Export Plug-In . SVG Version: 6.00 Build 0)  -->
<svg version="1.1" id="Layer_1" xmlns="http://www.w3.org/2000/svg" xmlns:xlink="http://www.w3.org/1999/xlink" x="0px" y="0px"
	 viewBox="0 0 255.4 48.8" style="enable-background:new 0 0 255.4 48.8;" xml:space="preserve">
<style type="text/css">
	.st0{fill:#29333A;}
	.st1{fill:#55C3BE;}
	.st2{fill:#53C3BE;}
	.st3{fill:#FFFFFF;}
</style>
<path class="st0" d="M61.7,8v15.2h-3.5V8H61.7z"/>
<path class="st0" d="M67.4,14.4v8.7h-3.5V8h3.1l2.5,3.7l3.3,5H73V8h3.5v15.2h-3.1l-3.1-4.6l-2.7-4.1H67.4z"/>
<path class="st0" d="M84.3,23.2h-5.8V8h5.8c3.1,0,5.5,1.5,5.5,4.8v5.5C89.8,21.6,87,23.2,84.3,23.2z M86.3,13.5
	c0-1.7-1.3-2.4-2.4-2.4H82v9h1.8c1.1,0,2.4-0.6,2.4-2.4V13.5z"/>
<path class="st0" d="M97.6,23.3c-3,0-5.9-1.6-5.9-4.9V8h3.5v9.8c0,1.7,1.3,2.4,2.4,2.4c1.1,0,2.4-0.6,2.4-2.4V8h3.5v10.3
	C103.5,21.7,100.5,23.3,97.6,23.3z"/>
<path class="st0" d="M110.8,23.3c-2.2,0-4.1-0.4-6-2.1l2-2.6c1.3,1,2.6,1.5,3.9,1.5c1.9,0,2.5-0.8,2.5-1.4c0-0.9-0.8-1.3-3.4-2
	c-2.8-0.8-4.4-1.8-4.4-4.4c0-2.8,2.3-4.5,5.5-4.5c1.7,0,3.5,0.2,5.3,1.4l-1.6,2.8c-1.4-0.9-2.6-1-3.8-1c-1.1,0-1.9,0.4-1.9,1.2
	c0,0.8,0.8,1.2,3.3,1.9c3.9,1.1,4.5,2.7,4.5,4.6C116.8,21.8,114.1,23.3,110.8,23.3z"/>
<path class="st0" d="M124.9,11.1v12h-3.5v-12h-3.9V8h11.2v3.1H124.9z"/>
<path class="st0" d="M136.9,8c3.3,0,4.6,2.4,4.6,4.8c0,1.6-1,3.3-2.5,4.2l2.7,6.2H138l-2.3-5.6h-2.2v5.6h-3.5V8H136.9z M133.6,14.5
	h2.6c1.3,0,1.8-0.8,1.8-1.7c0-0.9-0.6-1.7-1.8-1.7h-2.6V14.5z"/>
<path class="st0" d="M148.1,13.9l1.1-2.6l1.4-3.3h3.7l-4.6,9.2v6h-3.5v-6L141.7,8h3.7l1.5,3.4l1.1,2.5H148.1z"/>
<path class="st0" d="M162.5,14.4h1.7v-0.2c0-0.6-0.4-1-1.3-1c-0.6,0-1.3,0.1-2.2,0.7l-1.2-1.8c1.3-1,2.5-1.2,3.5-1.2
	c2.2,0,3.7,1.1,3.7,3.5V17c0,0.6,0.6,0.6,0.7,0.6c0.6,0,1.8-0.7,1.8-2.9c0-3.1-1.9-5.4-5.8-5.4c-4.1,0-6.7,2.8-6.7,6
	c0,3.3,2.4,6.1,6.1,6.1c0.7,0,1.5,0,2.8-0.5l0.7,2c-1,0.5-2.7,0.7-3.7,0.7c-5.1,0-8.3-3.6-8.3-8.2c0-4.7,3.7-8.3,9.1-8.3
	c5.5,0,8.2,3.4,8.2,7.6c0,2.9-1.9,5.3-4.6,5.3c-0.8,0-2-0.1-2.6-1c-0.9,0.6-1.9,0.9-2.5,0.9c-2,0-2.8-1.3-2.8-2.7
	C159.1,15.1,161.2,14.4,162.5,14.4z M164.2,16.2h-1.6c-0.4,0-0.9,0.1-0.9,0.6c0,0.3,0.3,0.6,0.8,0.6c0.8,0,1.3-0.3,1.6-0.5V16.2z"/>
<path class="st0" d="M179.9,11.1v12h-3.5v-12h-3.9V8h11.2v3.1H179.9z"/>
<path class="st0" d="M192,20.2h-4.9l-0.9,3h-3.8L187.8,8h3.6l5.3,15.2h-3.7L192,20.2z M188,17.3h3.1l-0.3-1l-1.2-4.2h-0.1l-1.2,4.2
	L188,17.3z"/>
<path class="st0" d="M198,23.2V8h3.5v12h7.2v3.1H198z"/>
<path class="st0" d="M209.9,23.2V8h3.5v12h7.2v3.1H209.9z"/>
<path class="st0" d="M225.5,8v15.2H222V8H225.5z"/>
<path class="st0" d="M231.2,14.4v8.7h-3.5V8h3.1l2.5,3.7l3.3,5h0.1V8h3.5v15.2h-3.1l-3.1-4.6l-2.7-4.1H231.2z"/>
<path class="st0" d="M245.8,14.4v8.7h-3.5V8h3.1l2.5,3.7l3.3,5h0.1V8h3.5v15.2h-3.1l-3.1-4.6l-2.7-4.1H245.8z"/>
<path class="st0" d="M70.2,43.2c0.9,0.8,2,1.5,3.3,2.1l-1.2,2.2c-1.3-0.4-3.2-1.7-4.2-2.7c-0.8,0.7-2.4,1.4-3.9,1.4
	c-2.7,0-4.9-1.7-4.9-4.5c0-2,1.5-3.5,3-4.4c-0.4-0.7-0.7-1.4-0.7-2.4c0-2,1.3-3.5,3.4-3.5c2,0,3.5,1.4,3.5,3.2
	c0,1.7-1.2,2.8-2.4,3.6c0.7,1.1,1.5,2.1,2.3,3.1c1.3-1.5,2-3.5,2-5.2c0-3.1-2-5.7-5.4-5.7c-3.1,0-5,1.9-5,4.1c0,0.8,0.1,1.7,0.9,2.9
	l-2.2,1.4c-1-1.5-1.3-2.9-1.3-4.1c0-3.5,2.9-6.8,7.6-6.8c5.2,0,8.1,3.7,8.1,8.2C73,38.6,72,41.2,70.2,43.2z M63.9,39.4
	c-1,0.6-1.9,1.3-1.9,2.2c0,1.3,0.8,2,2,2c0.7,0,1.5-0.2,2.4-0.7C65.6,42.1,64.4,40.4,63.9,39.4z M65,33.9c-0.4,0-0.7,0.4-0.7,0.9
	c0,0.4,0.2,0.7,0.5,1.2c0.7-0.4,1-0.8,1-1.3C65.9,34.3,65.5,33.9,65,33.9z"/>
<path class="st0" d="M87.8,45.9h-7.4V30.8h7.1c3.2,0,4.4,1.9,4.4,4.2c0,1.1-0.6,2.4-1.9,3c1.5,0.7,2.2,2.3,2.2,3.4
	C92.2,44,90.7,45.9,87.8,45.9z M86.6,33.9h-2.6v2.8h2.6c1.2,0,1.7-0.6,1.7-1.3C88.3,34.5,87.9,33.9,86.6,33.9z M86.7,39.6h-2.8v3.2
	h2.8c1.1,0,1.7-0.6,1.7-1.6C88.5,40.3,87.9,39.6,86.7,39.6z"/>
<path class="st0" d="M102.3,42.9h-4.9l-0.9,3h-3.8l5.3-15.2h3.6l5.3,15.2h-3.7L102.3,42.9z M98.3,40.1h3.1l-0.3-1l-1.2-4.2h-0.1
	L98.6,39L98.3,40.1z"/>
<path class="st0" d="M108.3,45.9V30.8h3.5v12h7.2v3.1H108.3z"/>
<path class="st0" d="M125,33.9v12h-3.5v-12h-3.9v-3.1h11.2v3.1H125z"/>
<path class="st0" d="M133.8,30.8v15.2h-3.5V30.8H133.8z"/>
<path class="st0" d="M145,34.9c-1-0.9-2.1-1.1-3-1.1c-1.1,0-2.5,0.6-2.5,2.4v4.3c0,1.7,1.4,2.4,2.5,2.4c0.9,0,1.9-0.2,3-1.1l1.7,2.7
	c-1.2,1-3,1.5-4.8,1.5c-2.8,0-5.9-1.5-5.9-4.8v-5.7c0-3.3,3-4.9,5.9-4.9c1.8,0,3.7,0.5,4.8,1.5L145,34.9z"/>
<path class="st0" d="M153.4,30.8H164v3.1h-7.1v2.8h6.1v3.1h-6.1v3h7.1v3.1h-10.6V30.8z"/>
<path class="st0" d="M171.9,40.8l1.5-5.5l1.3-4.6h3.7l-4.8,15.2H170l-4.9-15.2h3.7l1.4,4.7l1.5,5.4H171.9z"/>
<path class="st0" d="M179.7,30.8h10.6v3.1h-7.1v2.8h6.1v3.1h-6.1v3h7.1v3.1h-10.6V30.8z"/>
<path class="st0" d="M195.5,37.2v8.7H192V30.8h3.1l2.5,3.7l3.3,5h0.1v-8.7h3.5v15.2h-3.1l-3.1-4.6l-2.7-4.1H195.5z"/>
<path class="st0" d="M213.2,33.9v12h-3.5v-12h-3.9v-3.1h11.2v3.1H213.2z"/>
<g>
	<path class="st1" d="M21.5,21.9c-1.4,1.4-1.4,3.6,0,4.9c1.4,1.4,3.6,1.3,4.9,0c1.4-1.4,1.4-3.6,0-4.9
		C25.1,20.6,22.8,20.6,21.5,21.9z"/>
	<path class="st1" d="M41.6,5.5C32.8-2.8,17.8-1,8.2,9.5C-1.4,20-2.1,35.5,6.8,43.6c8.9,8.1,23.7,5.8,33.2-4.8
		C49,28.7,50.1,13.6,41.6,5.5z M30.1,30.5c-3.4,3.4-8.9,3.4-12.3,0c-3.4-3.4-3.4-8.9,0-12.3c3.4-3.4,8.9-3.4,12.3,0
		C33.5,21.6,33.5,27.1,30.1,30.5z"/>
</g>
</svg>
