<svg xmlns="http://www.w3.org/2000/svg" viewBox="0 0 140.77 79.39"><defs><style>.cls-1{fill:#241c1e;}</style></defs><g id="Layer_2" data-name="Layer 2"><g id="Layer_1-2" data-name="Layer 1"><path class="cls-1" d="M6.86,3.83H11V28c0,6.39-5.53,11-9.79,11H0V35.5a13.77,13.77,0,0,0,4.2.57c1.61,0,2.66-.33,2.66-1.55Z"/><path class="cls-1" d="M23.45,0H27.6V24.79c0,4-3,5.53-6.58,5.53-3.82,0-5.92-1.27-5.92-4.8V0h4.15V24.13c0,2.95,1.1,3.4,2.43,3.4s1.77-.9,1.77-2.33Z"/><path class="cls-1" d="M31,32.78a39.52,39.52,0,0,1,.61-7.87h4c-2.49,3.53-3.54,6.07-3.54,7.38s1.05,1.51,3.76,1.51c1.82,0,2.27-.81,2.27-1.88,0-5.41-7.36-17.44-7.36-23.34,0-3.64,2.93-5.16,6.42-5.16,2.87,0,4.26,1.27,4.26,3.81a36.28,36.28,0,0,1-.61,7.46H37.17c2.49-4.47,3.21-5.94,3.21-7s-.89-1.43-3.21-1.43c-1.83,0-2.27.81-2.27,1.88,0,4.63,7.36,18.71,7.36,23.46,0,3.52-2.94,5-6.42,5C32.58,36.59,31,35.32,31,32.78Z"/><polygon class="cls-1" points="43.69 7.66 57.02 7.66 57.02 10.32 52.43 10.32 52.43 40.42 48.28 40.42 48.28 10.32 43.69 10.32 43.69 7.66"/><polygon class="cls-1" points="6.86 46.91 6.86 59.49 10.79 59.49 10.79 60.39 6.86 60.39 6.86 74.16 2.71 74.16 2.71 44.25 12.28 44.25 12.28 46.91 6.86 46.91"/><polygon class="cls-1" points="19.14 36.59 19.14 66.5 14.99 70.33 14.99 36.59 19.14 36.59"/><polygon class="cls-1" points="27.1 40.42 27.1 67.67 33.08 67.67 33.08 70.33 22.95 70.33 22.95 36.59 27.1 40.42"/><polygon class="cls-1" points="48.45 44.25 51.94 44.25 56.33 74.16 52.07 74.16 48.95 52.77 48.34 52.77 44.8 72.11 43.53 72.11 38.94 52.77 38.38 52.77 39.88 79.39 35.51 79.39 36.06 44.25 40.21 44.25 44.63 63.63 45.24 63.63 48.45 44.25"/><path d="M70.32,29.7l-2.19-11h-.27l.32,4.2.14,6.84H66.7V16.43h1.62l2.18,11h.27l-.32-4.2-.16-6.83h1.64V29.7Z"/><path d="M74.2,27.75v-9c0-1.78,1.23-2.46,2.71-2.46s2.43.57,2.43,2.13v9.05c0,1.79-1.23,2.46-2.71,2.46S74.2,29.32,74.2,27.75Zm1.71-9.23v8.61c0,1.31.45,1.51,1,1.51s.72-.4.72-1V19c0-1.31-.43-1.51-.88-1.51C76.06,17.48,75.91,17.88,75.91,18.52Z"/><path d="M81.72,27.75v-9c0-1.78,1.23-2.46,2.71-2.46s2.43.57,2.43,2.13v9.05c0,1.79-1.23,2.46-2.71,2.46S81.72,29.32,81.72,27.75Zm1.71-9.23v8.61c0,1.31.45,1.51,1,1.51s.72-.4.72-1V19c0-1.31-.43-1.51-.88-1.51C83.59,17.48,83.43,17.88,83.43,18.52Z"/><path d="M91.29,16.43c1.95,0,3.09.63,3.09,2.29v3.07c0,1.44-1,2.09-2.34,2.58l0,.22,1.39-.15,1.27,5.26H93l-.86-4.37c-.09-.45-.48-.69-1.18-.43v4.8H89.24V16.43ZM91,17.66v6.75l.43-.15c1-.34,1.29-.74,1.29-1.38V19.17c0-1.18-.41-1.51-1.54-1.51Z"/><path d="M96.08,16.43h5.48v1.18H99.67V29.7H98V17.61H96.08Z"/><path d="M105.08,22.9v5.62h2.45V29.7h-4.15V16.43h3.93v1.18h-2.23V22.5h1.61v.4Z"/><path d="M109.35,24v-.6h3.82V24Z"/><path d="M119.78,16.43h1.7V27.17c0,2.84-2.27,4.89-4,4.89H117V30.48a5.47,5.47,0,0,0,1.73.25c.66,0,1.09-.14,1.09-.69Z"/><path d="M127.94,29.7,127.35,26h-1.71l-.29,3.73h-2l2.5-11.44-1-1.83h2.25l2.78,13.27Zm-2.25-4.09h1.59L126.87,23l-.43-3.64h-.25Z"/><path d="M68.52,33.06V45.15H71v1.18H66.82V33.06Z"/><path d="M76.86,46.33l-.59-3.73H74.56l-.29,3.73h-2l2.5-11.44-1-1.83H76l2.77,13.27Zm-2.25-4.09H76.2l-.41-2.64L75.36,36h-.25Z"/><path d="M80.31,44.82a19.37,19.37,0,0,1,.25-3.49H82.2a7.55,7.55,0,0,0-1.46,3.27c0,.53.44.67,1.55.67.75,0,.93-.36.93-.83,0-2.4-3-6.66-3-9.27,0-1.62,1.2-2.29,2.64-2.29,1.18,0,1.74.56,1.74,1.69a17.42,17.42,0,0,1-.25,3.31H82.84c1-2,1.31-2.64,1.31-3.13s-.36-.64-1.31-.64c-.75,0-.94.37-.94.84,0,2,3,7.22,3,9.32,0,1.57-1.21,2.24-2.64,2.24S80.31,46,80.31,44.82Z"/><path d="M86.33,33.06h5.48v1.18H89.92V46.33h-1.7V34.24H86.33Z"/><path d="M95.33,39.53v5.62h2.46v1.18H93.63V33.06h3.93v1.18H95.33v4.89H97v.4Z"/><path d="M101.53,34.24v5.58h1.62v.4h-1.62v6.11h-1.7V33.06h3.93v1.18Z"/><path d="M107.4,33.06V46.33h-1.71V33.06Z"/><path d="M111.49,33.06V45.15h2.45v1.18h-4.16V33.06Z"/><path d="M121.08,33.06h1.43l.22,13.27H121l.3-9.49H121l-1.45,8.58h-.53l-1.88-8.58h-.23l.61,9.49h-1.79L116,33.06h1.7l1.82,8.6h.25Z"/><path d="M126.71,33.06V46.33H125V33.06Z"/><path d="M131.14,33.06c2,0,3.09.63,3.09,2.29v8.52c0,1.79-1.54,2.46-3.38,2.46H129.1V33.06Zm-.34,1.23v10.8h.34c1.11,0,1.39-.4,1.39-1V35.8c0-1.18-.41-1.51-1.55-1.51Z"/><path d="M138.32,39.53v5.62h2.45v1.18h-4.15V33.06h3.93v1.18h-2.23v4.89h1.61v.4Z"/><path d="M68.52,50.87v5.58h1.61v.4H68.52V63h-1.7V49.69h3.93v1.18Z"/><path d="M74.38,56.16v5.62h2.46V63H72.68V49.69h3.93v1.18H74.38v4.89H76v.4Z"/><path d="M78.72,61.45A19.37,19.37,0,0,1,79,58h1.64a7.55,7.55,0,0,0-1.46,3.27c0,.53.44.68,1.55.68.75,0,.93-.37.93-.84,0-2.4-3-6.65-3-9.27,0-1.62,1.2-2.29,2.63-2.29,1.19,0,1.75.56,1.75,1.69a17.42,17.42,0,0,1-.25,3.31h-1.5c1-2,1.32-2.64,1.32-3.13s-.36-.64-1.32-.64c-.75,0-.93.37-.93.84,0,2.05,3,7.22,3,9.33,0,1.56-1.2,2.23-2.63,2.23S78.72,62.58,78.72,61.45Z"/><path d="M84.74,49.69h5.48v1.18H88.33V63h-1.7V50.87H84.74Z"/><path d="M93.74,49.69V63H92V49.69Z"/><path d="M99.72,49.69h2L98.85,63h-.63L95.45,49.69h1.9l.91,5.65L98.69,59h.25Z"/><path d="M107.42,63l-.59-3.73h-1.71L104.83,63h-2l2.5-11.43-1-1.84h2.25L109.33,63Zm-2.25-4.09h1.59l-.41-2.64-.43-3.63h-.25Z"/><path d="M112.74,49.69V61.78h2.45V63H111V49.69Z"/></g></g></svg>