<?xml version="1.0" encoding="utf-8"?>
<!-- Generator: Adobe Illustrator 26.5.0, SVG Export Plug-In . SVG Version: 6.00 Build 0)  -->
<svg version="1.1" id="Layer_1" xmlns="http://www.w3.org/2000/svg" xmlns:xlink="http://www.w3.org/1999/xlink" x="0px" y="0px"
	 viewBox="0 0 1920 100" style="enable-background:new 0 0 1920 100;" xml:space="preserve">
<style type="text/css">
	.st0{fill:#606068;}
	.st1{fill-rule:evenodd;clip-rule:evenodd;fill:#606068;}
	.st2{fill:#606060;}
</style>
<g>
	<path class="st0" d="M1491.8,43.3v19h19v-19H1491.8z M1505.5,51.1h-2v-0.8c-0.2-0.2-0.4-0.5-0.6-0.6h-3.2c-0.2,0.1-0.4,0.3-0.6,0.6
		v4.9c0.2,0.3,0.5,0.5,0.6,0.6h3.2c0.2-0.1,0.4-0.3,0.6-0.6v-0.8h2v0.8c0,0.3-0.1,0.7-0.3,1c-0.2,0.3-0.8,0.9-1.2,1.2
		c-0.3,0.2-0.7,0.3-1.1,0.3h-3.4c-0.4,0-0.8-0.2-1.1-0.3c-0.3-0.2-1-0.9-1.2-1.2s-0.3-0.7-0.3-1v-5c0-0.3,0.1-0.8,0.3-1
		c0.2-0.3,0.8-0.9,1.2-1.2c0.3-0.2,0.7-0.3,1.1-0.3h3.4c0.4,0,0.8,0.2,1.1,0.3c0.3,0.2,0.9,0.9,1.2,1.2c0.2,0.3,0.3,0.7,0.3,1V51.1z
		"/>
	<g>
		<path class="st0" d="M1594,49.7h-3.2c-0.2,0.1-0.4,0.3-0.6,0.6v4.9c0.2,0.3,0.5,0.5,0.6,0.6h3.2c0.2-0.1,0.4-0.3,0.6-0.6v-5
			C1594.5,50.1,1594.2,49.8,1594,49.7z"/>
		<path class="st0" d="M1582.8,43.3v19h19v-19H1582.8z M1596.6,55.3c0,0.3-0.1,0.7-0.3,1c-0.2,0.3-0.8,0.9-1.2,1.2
			c-0.3,0.2-0.7,0.3-1.1,0.3h-3.4c-0.4,0-0.8-0.2-1.1-0.3c-0.3-0.2-1-0.9-1.2-1.2s-0.3-0.7-0.3-1v-4.9c0-0.3,0.1-0.8,0.3-1
			c0.2-0.3,0.8-0.9,1.2-1.2c0.3-0.2,0.7-0.3,1.1-0.3h3.4c0.4,0,0.8,0.2,1.1,0.3c0.3,0.2,0.9,0.9,1.2,1.2c0.2,0.3,0.3,0.7,0.3,1V55.3
			z"/>
	</g>
	<g>
		<path class="st0" d="M1514.6,43.3v19h19v-19H1514.6z M1525.9,57.7L1525.9,57.7l-2.5-3.8h-1.2v3.8h-2v-9.8h4.8
			c0.4,0,0.9,0.2,1.3,0.3c0.2,0.2,0.7,0.7,0.9,0.9c0.2,0.3,0.3,0.8,0.3,1.1v1.4c0,0.4-0.1,0.8-0.3,1.1c-0.2,0.2-0.6,0.8-0.9,0.9
			c-0.3,0.2-0.5,0.2-0.6,0.3c0,0,0,0-0.1,0c0.8,1.2,1.7,2.6,2.5,3.8H1525.9L1525.9,57.7z"/>
		<path class="st0" d="M1525.1,49.8h-2.8v2.3h2.8c0.1,0,0.3-0.2,0.4-0.4v-1.4C1525.4,50.1,1525.2,49.8,1525.1,49.8z"/>
	</g>
	<g>
		<path class="st0" d="M1545.7,53.9h2.2l-1.1-3.4C1546.5,51.5,1546.1,52.9,1545.7,53.9z"/>
		<path class="st0" d="M1537.3,43.3v19h19v-19H1537.3z M1549.2,57.7l-0.7-1.9h-3.5c-0.2,0.6-0.5,1.3-0.7,1.9h-2.1l3.5-9.8h2.2
			l3.5,9.8H1549.2z"/>
	</g>
	<path class="st0" d="M1560.1,43.3v19h19v-19H1560.1z M1574,57.7h-2v-6.1l-0.2,0.5c-0.5,1.1-1.1,2.2-1.6,3.3h-1.3l-1.6-3.3l0,0
		l-0.2-0.5v6.1h-2v-9.8h2.2l2.2,4.5c0.8-1.5,1.4-3,2.2-4.5h2.2L1574,57.7L1574,57.7z"/>
</g>
<g>
	<path class="st0" d="M802.8,43.3v19h19v-19H802.8z M816.5,51.1h-2v-0.8c-0.2-0.2-0.4-0.5-0.6-0.6h-3.2c-0.2,0.1-0.4,0.3-0.6,0.6
		v4.9c0.2,0.3,0.5,0.5,0.6,0.6h3.2c0.2-0.1,0.4-0.3,0.6-0.6v-0.8h2v0.8c0,0.3-0.1,0.7-0.3,1s-0.8,0.9-1.2,1.2
		c-0.3,0.2-0.7,0.3-1.1,0.3h-3.4c-0.4,0-0.8-0.2-1.1-0.3c-0.3-0.2-1-0.9-1.2-1.2s-0.3-0.7-0.3-1v-5c0-0.3,0.1-0.8,0.3-1
		c0.2-0.3,0.8-0.9,1.2-1.2c0.3-0.2,0.7-0.3,1.1-0.3h3.4c0.4,0,0.8,0.2,1.1,0.3c0.3,0.2,0.9,0.9,1.2,1.2c0.2,0.3,0.3,0.7,0.3,1V51.1z
		"/>
	<g>
		<path class="st0" d="M905,49.7h-3.2c-0.2,0.1-0.4,0.3-0.6,0.6v4.9c0.2,0.3,0.5,0.5,0.6,0.6h3.2c0.2-0.1,0.4-0.3,0.6-0.6v-5
			C905.5,50.1,905.2,49.8,905,49.7z"/>
		<path class="st0" d="M893.8,43.3v19h19v-19H893.8z M907.6,55.3c0,0.3-0.1,0.7-0.3,1s-0.8,0.9-1.2,1.2c-0.3,0.2-0.7,0.3-1.1,0.3
			h-3.4c-0.4,0-0.8-0.2-1.1-0.3c-0.3-0.2-1-0.9-1.2-1.2s-0.3-0.7-0.3-1v-4.9c0-0.3,0.1-0.8,0.3-1c0.2-0.3,0.8-0.9,1.2-1.2
			c0.3-0.2,0.7-0.3,1.1-0.3h3.4c0.4,0,0.8,0.2,1.1,0.3c0.3,0.2,0.9,0.9,1.2,1.2c0.2,0.3,0.3,0.7,0.3,1V55.3z"/>
	</g>
	<g>
		<path class="st0" d="M825.6,43.3v19h19v-19H825.6z M836.9,57.7L836.9,57.7l-2.5-3.8h-1.2v3.8h-2v-9.8h4.8c0.4,0,0.9,0.2,1.3,0.3
			c0.2,0.2,0.7,0.7,0.9,0.9c0.2,0.3,0.3,0.8,0.3,1.1v1.4c0,0.4-0.1,0.8-0.3,1.1c-0.2,0.2-0.6,0.8-0.9,0.9c-0.3,0.2-0.5,0.2-0.6,0.3
			c0,0,0,0-0.1,0c0.8,1.2,1.7,2.6,2.5,3.8H836.9L836.9,57.7z"/>
		<path class="st0" d="M836.1,49.8h-2.8v2.3h2.8c0.1,0,0.3-0.2,0.4-0.4v-1.4C836.4,50.1,836.2,49.8,836.1,49.8z"/>
	</g>
	<g>
		<path class="st0" d="M856.7,53.9h2.2l-1.1-3.4C857.5,51.5,857.1,52.9,856.7,53.9z"/>
		<path class="st0" d="M848.3,43.3v19h19v-19H848.3z M860.2,57.7l-0.7-1.9H856c-0.2,0.6-0.5,1.3-0.7,1.9h-2.1l3.5-9.8h2.2l3.5,9.8
			H860.2z"/>
	</g>
	<path class="st0" d="M871.1,43.3v19h19v-19H871.1z M885,57.7h-2v-6.1l-0.2,0.5c-0.6,1.1-1.1,2.2-1.6,3.3h-1.3l-1.6-3.3l0,0
		l-0.2-0.5v6.1h-2v-9.8h2.2l2.2,4.5c0.8-1.5,1.4-3,2.2-4.5h2.2L885,57.7L885,57.7z"/>
</g>
<g>
	<path class="st0" d="M367.1,47.1c0-0.8-0.4-1-0.8-1.1c-0.4-0.1-0.4-0.1-0.4-0.4v-1.3c0-0.3,0.4-0.4,0.8-0.4h6
		c0.4,0,0.6,0.1,0.6,0.4v19.4c0,0.4,0.1,0.4,0.4,0.5c0.8,0.3,0.8,0.4,0.8,1.7c0,0.4-0.1,0.8-0.8,0.8h-7.3c-0.4,0-0.4-0.4-0.4-1
		c0-1,0.3-1,0.4-1c0.4-0.1,0.5-0.3,0.5-0.6V47.1H367.1z M411.1,54.9L411.1,54.9c-0.6,1-1.8,1.8-1.8,1.8v-9.6c0-0.6,0.4-1.7,1.3-1.7
		c1,0,1.3,0.8,1.3,1.7v4C411.8,51,411.8,53.5,411.1,54.9 M409.8,59.5L409.8,59.5c0.6-0.6,1-0.6,3.2-1.7c2.8-1.1,4.6-3.3,4.6-5.4
		c0-4.3-0.6-9.2-7-9.2c-4,0-8.3,2.8-8.3,11.6c0,11.2,7.5,11.5,8.7,11.5c4.6,0,6.9-3.6,6.9-6.5c0-1-0.4-1-1.1-1c-1.8,0-1.9,0-1.9,1
		c0,3.2-1.7,4.3-3.2,4.3c-1.3,0-2-1-2-2.8C409.3,61.4,409.1,60.1,409.8,59.5 M427.4,54.9L427.4,54.9c-0.6,1-1.8,1.8-1.8,1.8v-9.6
		c0-0.6,0.4-1.7,1.3-1.7c1,0,1.3,0.8,1.3,1.7v4C428.1,51,428.1,53.5,427.4,54.9 M426.1,59.5L426.1,59.5c0.6-0.6,0.9-0.6,3.2-1.7
		c2.8-1.1,4.6-3.3,4.6-5.4c0-4.3-0.6-9.2-7-9.2c-4,0-8.3,2.8-8.3,11.6c0,11.2,7.7,11.5,8.7,11.5c4.6,0,6.9-3.6,6.9-6.5
		c0-1-0.4-1-1.1-1c-1.8,0-1.9,0-1.9,1c0,3.2-1.7,4.3-3.2,4.3c-1.3,0-2-1-2-2.8C425.6,61.4,425.5,60.1,426.1,59.5 M307.6,66.2
		L307.6,66.2h8.2c0.5,0,0.6-0.4,0.6-0.9c0-1-0.3-1.3-0.8-1.4c-0.4-0.1-0.9-0.4-0.9-1.3v-5.4h2.2c3.4,0,7.9-1.8,7.9-8.8
		c0-5.4-3.2-8.8-8.3-8.8h-8.8c-0.6,0-0.6,0.4-0.6,0.9c0,1.1,0,1.3,0.5,1.5c0.4,0.3,1,0.5,1,1v20.1c0,0.4-0.4,0.4-0.6,0.5
		c-0.4,0.1-0.4,0.3-0.5,0.4c-0.1,0.1-0.3,0.4-0.3,0.8C306.9,65.3,306.9,66.2,307.6,66.2 M314.7,41.5h0.9c1.4,0,1.9,1.4,1.9,2.8v8.2
		c0,1.7-0.6,2.8-1.7,2.8h-1.1V41.5L314.7,41.5z M341.9,54.5L341.9,54.5c0-9.2-5.4-11-8.2-11c-2.6,0-4.5,1.3-5,1.8
		c-2.6,2.3-3.3,6-3.3,9.9c0,8.9,4.8,11.1,8.2,11.1C335.9,66.3,341.9,64.9,341.9,54.5 M335.1,47.7v14c0,0.9-0.3,2.4-1.5,2.4
		c-1,0-1.4-1.1-1.4-2.4V48.1c0-0.8,0.1-2.4,1.5-2.4C334.9,45.7,335.1,46.8,335.1,47.7 M343,60.7l1,5.1c0.1,0.4,0.5,0.5,1,0.5
		c1.3,0,1.3-0.1,1.4-0.6c0-0.1,0-0.4,0.4-0.4s0.8,0.1,1,0.4c1.1,0.6,1.8,0.8,2.4,0.8c2.2,0,4.7-1.5,4.7-5.5c0-3.4-1.8-6-3.7-8.5
		c-0.1-0.1-0.6-0.8-0.8-0.9l-0.5-0.8c-0.1-0.1-0.3-0.3-0.3-0.3c-0.8-0.9-2.3-2.9-2.3-3.7c0-0.4,0.4-0.8,0.8-0.8c1,0,2.4,1.7,3.3,2.7
		c0.5,0.8,0.8,1,1.8,1c1,0,1.3-0.1,1-0.8l-1-4.6c-0.1-0.4-0.4-0.5-0.9-0.5c-1,0-1.3,0-1.4,0.4c0,0.3-0.1,0.4-0.4,0.4
		c-0.1,0-0.4,0.1-1-0.3c-1.1-0.6-1.8-0.6-2.4-0.6c-1.7,0-4.7,1-4.7,5.4c0,2.3,0.8,3.7,2.4,6.1c0.4,0.5,0.5,1,1.7,2.3
		c1.1,1.5,3.3,4.3,3.3,5.7c0,0.8-0.4,1-0.9,1c-0.9,0-1.7-0.4-3.1-2.7c-0.4-0.8-0.8-1-1.4-1C343.6,60.2,343,60.4,343,60.7
		 M356.9,45.9v17c0,1.1,0.4,2.4,1.4,3.2h6.2c0.1,0,0.3-0.3,0.3-0.4c0-1.1-0.3-1.3-0.6-1.5c-0.4-0.3-0.9-0.4-0.9-1.3v-17h1.4
		c0.3,0,0.4-0.1,0.4-0.4v-1.7c0-0.1-0.3-0.4-0.4-0.4h-1.4v-4.1c0-0.3-0.3-0.4-0.5-0.4h-1.7c-0.4,0-0.4,0.4-0.4,0.6
		c-0.8,2.8-3.8,3.7-4.5,3.8c-0.1,0-0.6,0.1-0.6,0.4v1.7c0,0.1,0.1,0.4,0.4,0.4H356.9L356.9,45.9z M382.7,45.9v-1.7
		c0-0.1-0.1-0.4-0.4-0.4h-6.5c-0.3,0-0.4,0.1-0.4,0.3v1.4c0,0.1,0.4,0.4,0.4,0.4c0.4,0.1,0.6,0.4,0.6,0.8v16.7c0,0.1,0,0.4-0.5,0.8
		c-0.5,0.4-0.5,0.5-0.5,0.8v1c0,0.3,0.4,0.4,0.5,0.4h7.3c0.3,0,0.4-0.1,0.4-0.4v-1.3c0-0.1,0-0.3-0.4-0.4c-0.4-0.4-0.6-0.4-0.6-0.9
		V47.9c0.9-0.4,1.4-0.6,1.8-0.6c0.6,0,1,0.4,1,0.9v15.7c0,1.4,0.5,1.9,1,2.4h5.7c0.3,0,0.4-0.3,0.4-0.4v-1.3c0-0.1,0-0.3-0.4-0.4
		c-0.4-0.4-0.4-0.4-0.4-0.9V48.1c0-0.4,0.9-1,1.7-1s1.3,0.5,1.3,1v15.6c0,1.3,0.4,1.8,1,2.4h5.6c0.3,0,0.4-0.3,0.4-0.4v-1
		c0-0.4,0-0.4-0.4-0.8s-0.4-0.4-0.4-0.6V47.5c0-2.4-1.7-4-4.1-4c-2.3,0-3.6,1-5.2,2.4c-0.6-1-1.5-2.4-4-2.4
		C385.4,43.6,383.9,44.9,382.7,45.9 M435.1,60.7l1,5.1c0.1,0.4,0.6,0.5,1,0.5c1.3,0,1.3-0.1,1.4-0.6c0-0.1,0-0.4,0.3-0.4
		c0.4,0,0.8,0.1,1,0.4c1.1,0.6,1.8,0.8,2.4,0.8c2.2,0,4.7-1.5,4.7-5.5c0-3.4-1.8-6-3.7-8.5c-0.1-0.1-0.6-0.8-0.8-0.9l-0.5-0.8
		c-0.1-0.1-0.3-0.3-0.3-0.3c-0.8-0.9-2.3-2.9-2.3-3.7c0-0.4,0.4-0.8,0.8-0.8c1,0,2.4,1.7,3.2,2.7c0.5,0.8,0.8,1,1.8,1s1.3-0.1,1-0.8
		l-1-4.6c-0.1-0.4-0.4-0.5-0.9-0.5c-1,0-1.3,0-1.4,0.4c0,0.3-0.1,0.4-0.4,0.4c-0.1,0-0.4,0.1-1-0.3c-1.1-0.6-1.8-0.6-2.4-0.6
		c-1.7,0-4.7,1-4.7,5.4c0,2.3,0.8,3.7,2.4,6.1c0.4,0.5,0.6,1,1.7,2.3c1,1.5,3.3,4.3,3.3,5.7c0,0.8-0.4,1-0.9,1
		c-0.9,0-1.7-0.4-3.1-2.7c-0.4-0.8-0.8-1-1.4-1C435.8,60.2,435.1,60.4,435.1,60.7 M369.9,43c1.9,0,3.6-0.9,3.6-1.9
		c0-1-1.7-1.9-3.6-1.9c-1.9,0-3.6,0.9-3.6,1.9C366.3,42.1,367.8,43,369.9,43"/>
</g>
<g>
	<path class="st0" d="M1090.8,47.1c0-0.8-0.4-1-0.8-1.1c-0.4-0.1-0.4-0.1-0.4-0.4v-1.3c0-0.3,0.4-0.4,0.8-0.4h6
		c0.4,0,0.6,0.1,0.6,0.4v19.4c0,0.4,0.1,0.4,0.4,0.5c0.8,0.3,0.8,0.4,0.8,1.7c0,0.4-0.1,0.8-0.8,0.8h-7.3c-0.4,0-0.4-0.4-0.4-1
		c0-1,0.3-1,0.4-1c0.4-0.1,0.5-0.3,0.5-0.6L1090.8,47.1L1090.8,47.1z M1134.6,54.9L1134.6,54.9c-0.6,1-1.8,1.8-1.8,1.8v-9.6
		c0-0.6,0.4-1.7,1.3-1.7s1.3,0.8,1.3,1.7v4C1135.5,51,1135.5,53.5,1134.6,54.9 M1133.5,59.5L1133.5,59.5c0.6-0.6,1-0.6,3.2-1.7
		c2.8-1.1,4.6-3.3,4.6-5.4c0-4.3-0.6-9.2-7-9.2c-4,0-8.3,2.8-8.3,11.6c0,11.2,7.5,11.5,8.7,11.5c4.6,0,6.9-3.6,6.9-6.5
		c0-1-0.4-1-1.1-1c-1.8,0-1.9,0-1.9,1c0,3.2-1.7,4.3-3.2,4.3c-1.3,0-2-1-2-2.8C1132.9,61.4,1132.9,60.1,1133.5,59.5 M1151,54.9
		L1151,54.9c-0.6,1-1.8,1.8-1.8,1.8v-9.6c0-0.6,0.4-1.7,1.3-1.7s1.3,0.8,1.3,1.7v4C1151.9,51,1151.9,53.5,1151,54.9 M1149.8,59.5
		L1149.8,59.5c0.6-0.6,0.9-0.6,3.2-1.7c2.8-1.1,4.6-3.3,4.6-5.4c0-4.3-0.6-9.2-7-9.2c-4,0-8.3,2.8-8.3,11.6
		c0,11.2,7.7,11.5,8.7,11.5c4.6,0,6.9-3.6,6.9-6.5c0-1-0.4-1-1.1-1c-1.8,0-1.9,0-1.9,1c0,3.2-1.7,4.3-3.2,4.3c-1.3,0-2-1-2-2.8
		C1149.2,61.4,1149.2,60.1,1149.8,59.5 M1031.2,66.2L1031.2,66.2h8.2c0.5,0,0.6-0.4,0.6-0.9c0-1-0.3-1.3-0.8-1.4
		c-0.4-0.1-0.9-0.4-0.9-1.3v-5.4h2.2c3.4,0,7.9-1.8,7.9-8.8c0-5.4-3.2-8.8-8.3-8.8h-8.8c-0.6,0-0.6,0.4-0.6,0.9c0,1.1,0,1.3,0.5,1.5
		c0.4,0.3,1,0.5,1,1v20.2c0,0.4-0.4,0.4-0.6,0.5c-0.4,0.1-0.4,0.3-0.5,0.4c-0.1,0.1-0.3,0.4-0.3,0.8
		C1030.5,65.3,1030.5,66.2,1031.2,66.2 M1038.3,41.5h0.9c1.4,0,1.9,1.4,1.9,2.8v8.2c0,1.7-0.6,2.8-1.7,2.8h-1.1L1038.3,41.5
		L1038.3,41.5z M1065.5,54.5L1065.5,54.5c0-9.2-5.4-11-8.2-11c-2.6,0-4.5,1.3-5,1.8c-2.6,2.3-3.3,6-3.3,10c0,8.9,4.8,11.1,8.2,11.1
		C1059.6,66.4,1065.5,65,1065.5,54.5 M1058.6,47.7v14c0,0.9-0.3,2.4-1.5,2.4c-1,0-1.4-1.1-1.4-2.4V48.1c0-0.8,0.1-2.4,1.5-2.4
		C1058.5,45.7,1058.6,46.8,1058.6,47.7 M1066.6,60.7l1,5.1c0.1,0.4,0.5,0.5,1,0.5c1.3,0,1.3-0.1,1.4-0.6c0-0.1,0-0.4,0.4-0.4
		c0.4,0,0.8,0.1,1,0.4c1.1,0.6,1.8,0.8,2.4,0.8c2.2,0,4.7-1.5,4.7-5.5c0-3.4-1.8-6-3.7-8.5c-0.1-0.1-0.6-0.8-0.8-0.9l-0.5-0.8
		c-0.1-0.1-0.3-0.3-0.3-0.3c-0.8-0.9-2.3-2.9-2.3-3.7c0-0.4,0.4-0.8,0.8-0.8c1,0,2.4,1.7,3.3,2.7c0.5,0.8,0.8,1,1.8,1
		c1,0,1.3-0.1,1-0.8l-1-4.6c-0.1-0.4-0.4-0.5-0.9-0.5c-1,0-1.3,0-1.4,0.4c0,0.3-0.1,0.4-0.4,0.4c-0.1,0-0.4,0.1-1-0.3
		c-1.1-0.6-1.8-0.6-2.4-0.6c-1.7,0-4.7,1-4.7,5.4c0,2.3,0.8,3.7,2.4,6.1c0.4,0.5,0.5,1,1.7,2.3c1.1,1.5,3.3,4.3,3.3,5.7
		c0,0.8-0.4,1-0.9,1c-0.9,0-1.7-0.4-3.1-2.7c-0.4-0.8-0.8-1-1.4-1C1067.2,60.2,1066.5,60.4,1066.6,60.7 M1080.4,45.9v17
		c0,1.1,0.4,2.4,1.4,3.2h6.3c0.1,0,0.3-0.3,0.3-0.4c0-1.1-0.3-1.3-0.6-1.5c-0.4-0.3-0.9-0.4-0.9-1.3v-17h1.4c0.3,0,0.4-0.1,0.4-0.4
		v-1.7c0-0.1-0.3-0.4-0.4-0.4h-1.4v-4.1c0-0.3-0.3-0.4-0.5-0.4h-1.7c-0.4,0-0.4,0.4-0.4,0.6c-0.8,2.8-3.8,3.7-4.5,3.8
		c-0.1,0-0.6,0.1-0.6,0.4v1.7c0,0.1,0.1,0.4,0.4,0.4H1080.4L1080.4,45.9z M1106.3,45.9v-1.7c0-0.1-0.1-0.4-0.4-0.4h-6.5
		c-0.3,0-0.4,0.1-0.4,0.3v1.4c0,0.1,0.4,0.4,0.4,0.4c0.4,0.1,0.6,0.4,0.6,0.8v16.7c0,0.1,0,0.4-0.5,0.8c-0.5,0.4-0.5,0.5-0.5,0.8v1
		c0,0.3,0.4,0.4,0.5,0.4h7.3c0.3,0,0.4-0.1,0.4-0.4v-1.3c0-0.1,0-0.3-0.4-0.4c-0.4-0.4-0.6-0.4-0.6-0.9V47.9
		c0.9-0.4,1.4-0.6,1.8-0.6c0.6,0,1,0.4,1,0.9v15.7c0,1.4,0.5,1.9,1,2.4h5.7c0.3,0,0.4-0.3,0.4-0.4v-1.3c0-0.1,0-0.3-0.4-0.4
		c-0.4-0.4-0.4-0.4-0.4-0.9V48.1c0-0.4,0.9-1,1.7-1s1.3,0.5,1.3,1v15.6c0,1.3,0.4,1.8,1,2.4h5.6c0.3,0,0.4-0.3,0.4-0.4v-1
		c0-0.4,0-0.4-0.4-0.8s-0.4-0.4-0.4-0.6V47.5c0-2.4-1.7-4-4.1-4c-2.3,0-3.6,1-5.2,2.4c-0.6-1-1.5-2.4-4-2.4
		C1109,43.6,1107.5,44.9,1106.3,45.9 M1158.8,60.7l1,5.1c0.1,0.4,0.6,0.5,1,0.5c1.3,0,1.3-0.1,1.4-0.6c0-0.1,0-0.4,0.3-0.4
		c0.4,0,0.8,0.1,1,0.4c1.1,0.6,1.8,0.8,2.4,0.8c2.2,0,4.7-1.5,4.7-5.5c0-3.4-1.8-6-3.7-8.5c-0.1-0.1-0.6-0.8-0.8-0.9l-0.5-0.8
		c-0.1-0.1-0.3-0.3-0.3-0.3c-0.8-0.9-2.3-2.9-2.3-3.7c0-0.4,0.4-0.8,0.8-0.8c1,0,2.4,1.7,3.2,2.7c0.5,0.8,0.8,1,1.8,1
		c1,0,1.3-0.1,1-0.8l-1-4.6c-0.1-0.4-0.4-0.5-0.9-0.5c-1,0-1.3,0-1.4,0.4c0,0.3-0.1,0.4-0.4,0.4c-0.1,0-0.4,0.1-1-0.3
		c-1.1-0.6-1.8-0.6-2.4-0.6c-1.7,0-4.7,1-4.7,5.4c0,2.3,0.8,3.7,2.4,6.1c0.4,0.5,0.6,1,1.7,2.3c1,1.5,3.3,4.3,3.3,5.7
		c0,0.8-0.4,1-0.9,1c-0.9,0-1.7-0.4-3.1-2.7c-0.4-0.8-0.8-1-1.4-1C1159.4,60.2,1158.8,60.4,1158.8,60.7 M1093.4,43
		c1.9,0,3.6-0.9,3.6-1.9s-1.7-1.9-3.6-1.9s-3.6,0.9-3.6,1.9S1091.4,43,1093.4,43"/>
</g>
<g>
	<path class="st1" d="M62.2,30.8h30.7v44.1H62.2V30.8z M66.7,70.4h21.9V35.3H66.7V70.4z"/>
	<path class="st1" d="M113.5,50.6h-1.9c-2.5-3.6-4.9-7-7.5-10.9l0,0v10.9h-2.1V35.3h1.9c2.5,3.4,4.9,7,7.5,10.9l0,0V35.3h2.1V50.6
		L113.5,50.6z M118.4,44.4c0.6-1.9,1.2-3.9,1.8-6.3l0,0c0.6,2.4,1.2,4.2,1.8,6.3H118.4z M119.5,35.3l-5.2,15.3h2.1l1.3-4.2h4.6
		l1.2,4.2h3l-4.9-15.3H119.5z M128.9,50.6V37.2h-4v-1.9h10.6v2.1h-4v13.3h-2.5C128.9,50.7,128.9,50.6,128.9,50.6z M136.4,35.3h2.5
		v15.3h-2.5V35.3z M147.2,48.6c-2.7,0-3.7-3-3.7-6c0-2.8,1-5.5,3.7-5.5c2.5,0,3.7,2.7,3.7,5.5C150.9,45.6,149.9,48.6,147.2,48.6z
		 M147.2,50.9c4,0,6.4-3.6,6.4-8.1c0-4.3-2.7-7.6-6.4-7.6c-3.7,0-6.4,3.4-6.4,7.6C140.6,47.3,143.1,50.9,147.2,50.9z M166.7,50.6
		h-1.9c-2.5-3.6-4.9-7-7.5-10.9l0,0v10.9h-1.9V35.3h1.9c2.5,3.4,4.9,7,7.3,10.9l0,0V35.3h2.1L166.7,50.6L166.7,50.6z M171.8,44.4
		c0.6-1.9,1.2-3.9,1.8-6.3l0,0c0.6,2.4,1.2,4.2,1.8,6.3H171.8z M172.8,35.3l-5.2,15.3h2.2l1.3-4.2h4.6l1.2,4.2h3l-5.1-15.3H172.8z
		 M180.6,35.3h2.5v13.3h5.2v2.1h-7.8C180.6,50.7,180.6,35.3,180.6,35.3z M111.8,63.5v6.3c-1.3,0.6-2.8,0.9-4.3,0.9
		c-4.5,0-7.3-3.4-7.3-7.9c0-4.2,2.8-7.8,7.5-7.8c1.3,0,2.8,0.6,3.7,1.2l-1,1.6c-0.7-0.4-1.8-0.7-2.8-0.7c-2.8,0-4.6,2.2-4.6,5.7
		c0,3.6,2.2,5.8,4.5,5.8c0.7,0,1.3-0.1,1.8-0.3v-4.6L111.8,63.5L111.8,63.5z M121.3,57.2h-4.3v4.2h4.3v2.1h-4.3v4.8h5.1v2.1h-7.8
		V55.1h7V57.2z M129.4,68.4c-2.7,0-3.7-3-3.7-6c0-2.8,1-5.5,3.7-5.5c2.5,0,3.7,2.7,3.7,5.5C133,65.4,132.1,68.4,129.4,68.4
		L129.4,68.4z M129.4,70.7c4,0,6.4-3.6,6.4-8.1c0-4.3-2.7-7.6-6.4-7.6c-3.7,0-6.4,3.4-6.4,7.6C122.8,67.1,125.3,70.7,129.4,70.7
		L129.4,70.7z M148.4,63.5v6.3c-1.3,0.6-2.8,0.9-4.3,0.9c-4.5,0-7.3-3.4-7.3-7.9c0-4.2,2.8-7.8,7.5-7.8c1.5,0,2.8,0.6,3.7,1.2
		l-0.9,1.8c-0.7-0.4-1.8-0.7-2.8-0.7c-2.8,0-4.6,2.2-4.6,5.7c0,3.6,2.2,5.8,4.5,5.8c0.7,0,1.3-0.1,1.8-0.3v-4.6h2.5
		C148.4,63.8,148.4,63.5,148.4,63.5z M153.5,57.2h1.2c1.5,0,2.4,0.9,2.4,2.4c0,2.1-1.2,3-2.5,3c-0.3,0-0.9,0-1,0L153.5,57.2
		L153.5,57.2z M160.1,70.4l-3.1-6.3c1.6-0.9,2.7-2.7,2.7-4.5c0-3-1.8-4.5-4.8-4.5h-4v15.3h2.7v-5.8h1.2l2.4,5.8H160.1z M164.4,64.4
		c0.6-1.9,1.2-3.9,1.8-6.3l0,0c0.6,2.4,1.2,4.2,1.8,6.3H164.4z M165.5,55.1l-5.2,15.3h2.2l1.3-4.2h4.6l1.2,4.2h3l-4.9-15.3H165.5z
		 M177.5,55.1h-4.2v15.3h2.7v-5.8h1.2c3.1,0,5.1-2.5,5.1-5.1C182.3,56.6,180.3,55.1,177.5,55.1L177.5,55.1z M177,62.7
		c-0.3,0-0.9,0-1,0v-5.5h1.2c1.5,0,2.4,0.9,2.4,2.4C179.6,61.7,178.4,62.6,177,62.7z M194.4,70.4h-2.7V63h-5.4v7.3h-2.5V55.1h2.5
		v5.8h5.4v-5.8h2.7V70.4z M196.9,55.1h2.5v15.3h-2.5V55.1z M211.3,57.9c-0.6-0.4-1.6-0.9-2.7-0.9c-2.7,0-4.6,2.2-4.6,5.7
		c0,3.6,2.1,5.8,4.6,5.8c0.9,0,1.8-0.3,2.7-0.7l0.7,1.9c-0.7,0.6-2.2,1-3.4,1c-4.5,0-7.3-3.4-7.3-7.9c0-4.2,2.8-7.8,7.3-7.8
		c1.3,0,2.7,0.6,3.6,1.2L211.3,57.9z"/>
</g>
<g>
	<path class="st1" d="M1705.2,30.8h30.8v44.1h-30.8V30.8z M1709.5,70.4h21.9V35.3h-21.9V70.4z"/>
	<path class="st1" d="M1756.3,50.6h-2c-2.5-3.6-5-7.1-7.5-11l0,0v11h-2.1V35.3h2c2.5,3.5,5,7.1,7.5,11l0,0v-11h2.1V50.6L1756.3,50.6
		z M1761.3,44.4c0.6-2,1.2-3.9,1.8-6.3l0,0c0.6,2.4,1.2,4.2,1.8,6.3H1761.3z M1762.3,35.3l-5.2,15.3h2.2l1.4-4.2h4.6l1.2,4.2h3
		l-5-15.3H1762.3z M1771.9,50.6V37.2h-4v-2h10.6v2.1h-4v13.4h-2.5L1771.9,50.6L1771.9,50.6z M1779.4,35.3h2.5v15.3h-2.5V35.3z
		 M1790.1,48.6c-2.7,0-3.8-3-3.8-6c0-2.9,1-5.6,3.8-5.6s3.8,2.7,3.8,5.6C1793.8,45.6,1792.9,48.6,1790.1,48.6z M1790.1,50.9
		c4,0,6.5-3.6,6.5-8.1c0-4.4-2.7-7.7-6.5-7.7s-6.5,3.5-6.5,7.7C1783.6,47.3,1786.2,50.9,1790.1,50.9z M1809.7,50.6h-2
		c-2.5-3.6-5-7.1-7.5-11l0,0v11h-2.1V35.3h2c2.5,3.5,5,7.1,7.3,11l0,0v-11h2.1L1809.7,50.6L1809.7,50.6z M1814.7,44.4
		c0.6-2,1.2-3.9,1.8-6.3l0,0c0.6,2.4,1.2,4.2,1.8,6.3H1814.7z M1815.7,35.3l-5.2,15.3h2.2l1.4-4.2h4.6l1.2,4.2h3l-5-15.3H1815.7z
		 M1823.5,35.3h2.5v13.4h5.2v2.1h-7.8V35.3z M1754.7,63.5v6.3c-1.4,0.6-2.9,0.9-4.4,0.9c-4.5,0-7.3-3.5-7.3-8c0-4.2,2.8-7.8,7.5-7.8
		c1.3,0,2.8,0.6,3.8,1.2l-0.9,1.8c-0.8-0.4-1.8-0.8-2.8-0.8c-2.9,0-4.7,2.3-4.7,5.7c0,3.6,2.2,5.9,4.5,5.9c0.8,0,1.4-0.2,1.8-0.3
		v-4.7h2.5L1754.7,63.5L1754.7,63.5z M1764.1,57.2h-4.3v4.2h4.3v2.1h-4.3v4.8h5.1v2.1h-7.8V55.1h7V57.2z M1772.2,68.4
		c-2.7,0-3.8-3-3.8-6c0-2.9,1-5.6,3.8-5.6c2.5,0,3.8,2.7,3.8,5.6C1776,65.4,1774.9,68.4,1772.2,68.4L1772.2,68.4z M1772.2,70.7
		c4,0,6.5-3.6,6.5-8.1c0-4.4-2.7-7.7-6.5-7.7s-6.5,3.5-6.5,7.7C1765.8,67.1,1768.2,70.7,1772.2,70.7L1772.2,70.7z M1791.4,63.5v6.3
		c-1.3,0.6-2.8,0.9-4.3,0.9c-4.5,0-7.4-3.5-7.4-8c0-4.2,2.9-7.8,7.5-7.8c1.5,0,2.9,0.6,3.8,1.2l-0.9,1.8c-0.8-0.4-1.8-0.8-2.9-0.8
		c-2.8,0-4.6,2.3-4.6,5.7c0,3.6,2.2,5.9,4.5,5.9c0.8,0,1.3-0.2,1.8-0.3v-4.7h2.5L1791.4,63.5L1791.4,63.5z M1796.4,57.2h1.2
		c1.5,0,2.4,0.9,2.4,2.4c0,2.1-1.2,3-2.5,3c-0.3,0-0.9,0-1,0L1796.4,57.2L1796.4,57.2z M1803.1,70.4l-3.2-6.3
		c1.7-0.9,2.7-2.7,2.7-4.5c0-3-1.8-4.5-4.8-4.5h-4v15.3h2.7v-5.9h1.2l2.4,5.9H1803.1z M1807.5,64.4c0.6-2,1.2-3.9,1.8-6.3l0,0
		c0.6,2.4,1.2,4.2,1.8,6.3H1807.5z M1808.4,55.1l-5.2,15.3h2.2l1.3-4.2h4.7l1.2,4.2h3l-5-15.3H1808.4z M1820.4,55.1h-4v15.3h2.7
		v-5.9h1.2c3.1,0,5.1-2.6,5.1-5.1C1825.2,56.6,1823.4,55.1,1820.4,55.1L1820.4,55.1z M1820.1,62.7c-0.3,0-0.9,0-1,0v-5.6h1.2
		c1.5,0,2.4,0.9,2.4,2.4C1822.5,61.7,1821.3,62.6,1820.1,62.7z M1837.3,70.4h-2.7V63h-5.4v7.4h-2.5V55.1h2.5v5.9h5.4v-5.9h2.7V70.4z
		 M1839.9,55.1h2.5v15.3h-2.5V55.1z M1854.3,57.9c-0.6-0.4-1.7-0.9-2.7-0.9c-2.7,0-4.7,2.3-4.7,5.7c0,3.6,2.1,5.8,4.7,5.8
		c0.9,0,1.8-0.3,2.7-0.8l0.8,2c-0.8,0.6-2.2,1-3.5,1c-4.5,0-7.4-3.5-7.4-8c0-4.2,2.9-7.8,7.4-7.8c1.3,0,2.7,0.6,3.6,1.2L1854.3,57.9
		z"/>
</g>
<g>
	<path class="st2" d="M588.6,34.6h-13.7v18.3h5.3V46h6.8l0.5-3.7h-7.3v-3.9h7.9L588.6,34.6L588.6,34.6z M587.6,35.4l-0.2,2.1h-8v5.6
		h7.2l-0.2,2h-6.9v6.9h-3.6V35.4H587.6L587.6,35.4z"/>
	<path class="st2" d="M597.9,49.4c-1.2,0-2.1-0.4-2.6-1c-0.5-0.7-0.7-1.8-0.7-3.5v-2.3c0-1.6,0.3-2.8,0.8-3.5c0.5-0.7,1.4-1,2.6-1
		c1.2,0,2.1,0.4,2.6,1c0.5,0.7,0.7,1.8,0.7,3.5v2.3c0,1.7-0.3,2.8-0.8,3.5C600,49,599.1,49.4,597.9,49.4 M598,34.2
		c-1.7,0-3,0.2-4.2,0.7c-1.1,0.5-2,1.1-2.6,1.8c-0.7,0.8-1.1,1.7-1.4,2.8c-0.3,1.1-0.4,2.3-0.4,3.6v1.4c0,1.2,0.1,2.3,0.4,3.4
		c0.2,1.1,0.7,2,1.3,2.8c0.6,0.8,1.5,1.4,2.6,1.9c1.1,0.5,2.5,0.7,4.3,0.7c1.6,0,3-0.2,4.1-0.6c1.1-0.4,2-1,2.7-1.8
		c0.7-0.8,1.2-1.7,1.4-2.8s0.4-2.3,0.4-3.6v-1.4c0-1.2-0.1-2.4-0.4-3.5c-0.3-1.1-0.7-2-1.4-2.8c-0.7-0.8-1.6-1.4-2.6-1.9
		C601,34.4,599.7,34.2,598,34.2 M597.9,50.2c1.4,0,2.5-0.5,3.2-1.3c0.7-0.8,1-2.2,1-4v-2.3c0-1.8-0.3-3.1-0.9-4
		c-0.7-0.9-1.8-1.4-3.3-1.4c-1.5,0-2.5,0.5-3.2,1.3c-0.7,0.8-1,2.2-1,4v2.3c0,1.8,0.3,3.1,0.9,4C595.3,49.7,596.4,50.2,597.9,50.2
		 M598,35c1.6,0,2.9,0.2,3.9,0.6c1,0.4,1.8,1,2.3,1.7c0.6,0.7,1,1.5,1.2,2.5c0.2,1,0.4,2.1,0.4,3.2v1.4c0,1.2-0.1,2.4-0.4,3.4
		c-0.2,1-0.7,1.8-1.3,2.5c-0.6,0.7-1.4,1.2-2.3,1.6c-1,0.4-2.3,0.6-3.8,0.6c-1.6,0-2.9-0.2-4-0.6c-1-0.4-1.8-1-2.3-1.7
		c-0.6-0.7-1-1.6-1.2-2.5c-0.2-1-0.4-2.1-0.4-3.2v-1.4c0-1.2,0.1-2.3,0.4-3.4c0.2-1,0.7-1.8,1.2-2.5c0.6-0.7,1.3-1.2,2.3-1.6
		C595.1,35.2,596.4,35,598,35"/>
	<path class="st2" d="M613.8,42.8v-4.4h3.3c1.4,0,2.1,0.7,2.1,2v0.4c0,0.7-0.2,1.2-0.5,1.5c-0.4,0.4-0.9,0.5-1.6,0.5L613.8,42.8
		L613.8,42.8z M618.5,34.6h-9.8v18.3h5.1v-6.3h2.4l3.2,6.3h5.5l-3.8-6.9c0.5-0.2,1-0.5,1.4-0.8c0.4-0.3,0.7-0.7,1-1.1
		s0.5-0.9,0.6-1.4c0.1-0.5,0.2-1.2,0.2-1.9v-0.5c0-0.8-0.1-1.5-0.3-2.2c-0.2-0.7-0.5-1.3-1-1.8c-0.5-0.5-1.1-0.9-1.8-1.2
		C620.4,34.7,619.5,34.6,618.5,34.6 M613,43.7h4.1c0.9,0,1.6-0.2,2.2-0.8c0.5-0.5,0.8-1.2,0.8-2.1v-0.4c0-1.8-1.1-2.8-2.9-2.8H613
		L613,43.7L613,43.7z M618.5,35.4c1,0,1.8,0.1,2.4,0.4c0.6,0.2,1.1,0.6,1.5,1c0.4,0.4,0.6,0.9,0.8,1.5c0.2,0.6,0.3,1.2,0.3,1.9v0.5
		c0,0.7-0.1,1.2-0.2,1.7c-0.1,0.5-0.2,0.8-0.5,1.2c-0.2,0.3-0.5,0.6-0.8,0.9c-0.3,0.2-0.7,0.5-1.2,0.7l-0.8,0.4l0.4,0.8l3.1,5.7
		h-3.6l-3-5.9l-0.2-0.5h-3.8v6.3h-3.4V35.4H618.5L618.5,35.4z"/>
	<path class="st2" d="M642.7,34.6v18.3h-4.6l-0.3-1.9c-0.6,0.7-1.4,1.3-2.3,1.7c-0.9,0.4-1.9,0.6-3,0.6c-1,0-1.8-0.1-2.6-0.4
		s-1.4-0.6-2-1.2c-0.6-0.5-1-1.2-1.3-2c-0.3-0.8-0.5-1.7-0.5-2.8V34.6h5.2v11.3c0,1.3,0.2,2.2,0.7,2.7c0.5,0.5,1.2,0.8,2.2,0.8
		c1.1,0,1.9-0.3,2.5-0.9c0.5-0.6,0.8-1.7,0.8-3.1V34.6H642.7L642.7,34.6z"/>
	<path class="st2" d="M654.5,41.8c1,0.1,1.9,0.4,2.5,0.7c0.7,0.4,1.2,0.7,1.6,1.2c0.4,0.5,0.6,1,0.8,1.6c0.1,0.6,0.2,1.1,0.2,1.7
		v0.4c0,0.9-0.1,1.7-0.5,2.4c-0.3,0.7-0.8,1.4-1.4,1.9c-0.6,0.5-1.5,1-2.5,1.2c-1,0.3-2.3,0.5-3.7,0.5c-1.3,0-2.5-0.1-3.7-0.3
		c-1.2-0.2-2.3-0.5-3.2-0.8l0.9-3.8c1.2,0.3,2.2,0.5,3.1,0.7s1.8,0.2,2.7,0.2c1.1,0,2-0.1,2.5-0.4s0.8-0.7,0.8-1.4
		c0-0.5-0.1-0.9-0.4-1.1c-0.2-0.2-0.7-0.4-1.3-0.5l-2.6-0.3c-1.8-0.2-3.1-0.7-4.1-1.6c-0.9-0.8-1.4-2-1.4-3.6v-0.4
		c0-1,0.2-1.9,0.6-2.6c0.4-0.7,1-1.3,1.7-1.8c0.7-0.5,1.6-0.8,2.6-1.1c1-0.2,2.2-0.4,3.4-0.4c1.3,0,2.5,0.1,3.6,0.3
		c1.1,0.2,2,0.4,2.6,0.7l-0.9,3.7c-0.8-0.2-1.7-0.5-2.5-0.6c-0.8-0.1-1.7-0.2-2.6-0.2c-1.3,0-2.2,0.1-2.8,0.4
		c-0.6,0.2-0.9,0.7-0.9,1.4c0,0.5,0.1,0.8,0.4,1c0.3,0.2,0.8,0.4,1.5,0.5L654.5,41.8L654.5,41.8z"/>
	<path class="st2" d="M663.8,25.5l11-3.5c0.1-0.5,0.1-1,0.1-1.5c0-2.1-0.6-4-1.6-5.7l-8.3,5.9L663.8,25.5z"/>
	<path class="st2" d="M665.8,17.4l6.2-4.3c-1.2-1.3-2.7-2.3-4.4-2.8L665.8,17.4z"/>
	<path class="st2" d="M661.7,24.7l-6.9-9.8c-1,1.7-1.6,3.6-1.6,5.7c0,4.7,3,8.6,7.1,10.2L661.7,24.7z"/>
	<path class="st2" d="M663.2,28l-0.8,3.4c0.6,0.1,1.1,0.1,1.7,0.1c4.6,0,8.5-2.9,10.1-6.9L663.2,28L663.2,28z"/>
	<path class="st2" d="M662.4,21.9l3-12.1c-0.5-0.1-0.9-0.1-1.4-0.1c-3.1,0-5.9,1.3-7.8,3.4L662.4,21.9L662.4,21.9z"/>
	<polygon class="st2" points="589.5,55.8 589.2,58.5 583.8,58.5 583.8,74.2 580.6,74.2 580.6,58.5 574.9,58.5 575.3,55.8 	"/>
	<path class="st2" d="M587.2,70.1c0-0.8,0.1-1.4,0.4-1.9c0.2-0.5,0.6-1,1-1.3c0.4-0.3,1-0.6,1.6-0.7c0.6-0.1,1.3-0.2,2-0.2
		c0.8,0,1.4,0.1,2,0.2c0.5,0.1,1,0.4,1.4,0.8v-0.9c0-1.1-0.3-1.9-0.8-2.4c-0.6-0.5-1.5-0.7-2.7-0.7c-0.6,0-1.2,0-1.8,0.1
		c-0.6,0.1-1.2,0.2-1.8,0.4l0.4-2.4c0.6-0.1,1.2-0.3,1.9-0.4c0.7-0.1,1.4-0.1,2-0.1c0.9,0,1.7,0.1,2.4,0.3c0.7,0.2,1.3,0.5,1.8,0.9
		c0.5,0.4,0.9,0.9,1.2,1.6c0.3,0.6,0.4,1.4,0.4,2.3v8.6h-2.7l-0.2-1.3c-0.4,0.6-0.9,1-1.6,1.2c-0.6,0.2-1.4,0.4-2.4,0.4
		c-0.7,0-1.3-0.1-1.8-0.2c-0.6-0.1-1-0.4-1.4-0.7s-0.7-0.7-0.9-1.3c-0.2-0.5-0.3-1.2-0.3-1.9L587.2,70.1L587.2,70.1z M590.2,70.1
		c0,0.6,0.2,1.1,0.6,1.4c0.4,0.3,1.1,0.5,1.9,0.5c1,0,1.7-0.2,2.2-0.6c0.5-0.4,0.7-0.9,0.7-1.5v-0.2c0-0.6-0.2-1-0.6-1.3
		S593.9,68,593,68h-0.4c-0.8,0-1.4,0.1-1.8,0.5c-0.4,0.3-0.6,0.8-0.6,1.4C590.2,69.9,590.2,70.1,590.2,70.1z"/>
	<polygon class="st2" points="609.8,74.2 606.5,69.3 603.3,74.2 599.9,74.2 604.9,67.2 600.4,60.8 603.9,60.8 606.7,65.1 
		609.5,60.8 612.9,60.8 608.3,67.2 613.3,74.2 	"/>
	<path class="st2" d="M616.7,55.5c0.7,0,1.2,0.1,1.4,0.5c0.3,0.3,0.5,0.7,0.5,1.3c0,0.6-0.1,1-0.5,1.3c-0.3,0.3-0.8,0.5-1.4,0.5
		c-0.7,0-1.2-0.1-1.4-0.5c-0.3-0.3-0.5-0.7-0.5-1.3c0-0.6,0.1-1,0.5-1.3C615.5,55.6,616,55.5,616.7,55.5 M615.1,60.8h3.1v13.4h-3.1
		V60.8z"/>
</g>
<g>
	<path class="st2" d="M1310.1,33.5h-13.7v18.3h5.3v-6.9h6.8l0.5-3.7h-7.3v-3.9h7.9L1310.1,33.5L1310.1,33.5z M1309.1,34.4l-0.2,2.1
		h-8V42h7.2l-0.2,2h-6.9V51h-3.6V34.4H1309.1L1309.1,34.4z"/>
	<path class="st2" d="M1319.4,48.3c-1.2,0-2.1-0.4-2.6-1c-0.5-0.7-0.7-1.8-0.7-3.5v-2.3c0-1.6,0.3-2.8,0.8-3.5c0.5-0.7,1.4-1,2.6-1
		s2.1,0.4,2.6,1c0.5,0.7,0.7,1.8,0.7,3.5v2.3c0,1.7-0.3,2.8-0.8,3.5C1321.4,48,1320.6,48.3,1319.4,48.3 M1319.4,33.1
		c-1.7,0-3,0.2-4.2,0.7c-1.1,0.5-2,1.1-2.6,1.8s-1.1,1.7-1.4,2.8c-0.3,1.1-0.4,2.3-0.4,3.6v1.4c0,1.2,0.1,2.3,0.4,3.4
		c0.2,1.1,0.7,2,1.3,2.8c0.6,0.8,1.5,1.4,2.6,1.9s2.5,0.7,4.3,0.7c1.6,0,3-0.2,4.1-0.6c1.1-0.4,2-1,2.7-1.8c0.7-0.8,1.2-1.7,1.4-2.8
		c0.3-1.1,0.4-2.3,0.4-3.6V42c0-1.2-0.1-2.4-0.4-3.5c-0.3-1.1-0.7-2-1.4-2.8c-0.7-0.8-1.6-1.4-2.6-1.9
		C1322.5,33.3,1321.1,33.1,1319.4,33.1 M1319.4,49.1c1.4,0,2.5-0.5,3.2-1.3c0.7-0.8,1-2.2,1-4v-2.3c0-1.8-0.3-3.1-0.9-4
		c-0.7-0.9-1.8-1.4-3.3-1.4c-1.5,0-2.5,0.5-3.2,1.3c-0.7,0.8-1,2.2-1,4v2.3c0,1.8,0.3,3.1,0.9,4
		C1316.8,48.7,1317.9,49.1,1319.4,49.1 M1319.4,34c1.6,0,2.9,0.2,3.9,0.6c1,0.4,1.8,1,2.3,1.7c0.6,0.7,1,1.5,1.2,2.5
		c0.2,1,0.4,2.1,0.4,3.2v1.4c0,1.2-0.1,2.4-0.4,3.4c-0.2,1-0.7,1.8-1.3,2.5c-0.6,0.7-1.4,1.2-2.3,1.6c-1,0.4-2.3,0.6-3.8,0.6
		c-1.6,0-2.9-0.2-4-0.6c-1-0.4-1.8-1-2.3-1.7c-0.6-0.7-1-1.6-1.2-2.5c-0.2-1-0.4-2.1-0.4-3.2V42c0-1.2,0.1-2.3,0.4-3.4
		c0.2-1,0.7-1.8,1.2-2.5c0.6-0.7,1.3-1.2,2.3-1.6C1316.6,34.2,1317.9,34,1319.4,34"/>
	<path class="st2" d="M1335.3,41.7v-4.4h3.3c1.4,0,2.1,0.7,2.1,2v0.4c0,0.7-0.2,1.2-0.5,1.5c-0.4,0.4-0.9,0.5-1.6,0.5L1335.3,41.7
		L1335.3,41.7z M1339.9,33.5h-9.8v18.3h5.1v-6.3h2.4l3.2,6.3h5.5l-3.8-6.9c0.5-0.2,1-0.5,1.4-0.8c0.4-0.3,0.7-0.7,1-1.1
		c0.2-0.4,0.5-0.9,0.6-1.4c0.1-0.5,0.2-1.2,0.2-1.9v-0.5c0-0.8-0.1-1.5-0.3-2.2c-0.2-0.7-0.5-1.3-1-1.8c-0.5-0.5-1.1-0.9-1.8-1.2
		C1341.9,33.7,1341,33.5,1339.9,33.5 M1334.4,42.6h4.1c0.9,0,1.6-0.2,2.2-0.8c0.5-0.5,0.8-1.2,0.8-2.1v-0.4c0-1.8-1.1-2.8-2.9-2.8
		h-4.1L1334.4,42.6L1334.4,42.6z M1339.9,34.4c1,0,1.8,0.1,2.4,0.4c0.6,0.2,1.1,0.6,1.5,1c0.4,0.4,0.6,0.9,0.8,1.5
		c0.2,0.6,0.3,1.2,0.3,1.9v0.5c0,0.7-0.1,1.2-0.2,1.7c-0.1,0.5-0.2,0.8-0.5,1.2c-0.2,0.3-0.5,0.6-0.8,0.9c-0.3,0.2-0.7,0.5-1.2,0.7
		l-0.8,0.4l0.4,0.8l3.1,5.7h-3.6l-3-5.9l-0.2-0.5h-3.8V51h-3.4V34.4H1339.9L1339.9,34.4z"/>
	<path class="st2" d="M1364.2,33.5v18.3h-4.6l-0.3-1.9c-0.6,0.7-1.4,1.3-2.3,1.7c-0.9,0.4-1.9,0.6-3,0.6c-1,0-1.8-0.1-2.6-0.4
		c-0.8-0.2-1.4-0.6-2-1.2c-0.6-0.5-1-1.2-1.3-2c-0.3-0.8-0.5-1.7-0.5-2.8V33.5h5.2v11.3c0,1.3,0.2,2.2,0.7,2.7
		c0.5,0.5,1.2,0.8,2.2,0.8c1.1,0,1.9-0.3,2.5-0.9c0.5-0.6,0.8-1.7,0.8-3.1V33.5H1364.2L1364.2,33.5z"/>
	<path class="st2" d="M1375.9,40.7c1,0.1,1.9,0.4,2.5,0.7c0.7,0.4,1.2,0.7,1.6,1.2c0.4,0.5,0.6,1,0.8,1.6c0.1,0.6,0.2,1.1,0.2,1.7
		v0.4c0,0.9-0.1,1.7-0.5,2.4c-0.3,0.7-0.8,1.4-1.4,1.9c-0.6,0.5-1.5,1-2.5,1.2c-1,0.3-2.3,0.5-3.7,0.5c-1.3,0-2.5-0.1-3.7-0.3
		s-2.3-0.5-3.2-0.8l0.9-3.8c1.2,0.3,2.2,0.5,3.1,0.7c0.9,0.1,1.8,0.2,2.7,0.2c1.1,0,2-0.1,2.5-0.4c0.5-0.2,0.8-0.7,0.8-1.4
		c0-0.5-0.1-0.9-0.4-1.1c-0.2-0.2-0.7-0.4-1.3-0.5l-2.6-0.3c-1.8-0.2-3.1-0.7-4.1-1.6c-0.9-0.8-1.4-2-1.4-3.6v-0.4
		c0-1,0.2-1.9,0.6-2.6c0.4-0.7,1-1.3,1.7-1.8c0.7-0.5,1.6-0.8,2.6-1.1c1-0.2,2.2-0.4,3.4-0.4c1.3,0,2.5,0.1,3.6,0.3
		c1.1,0.2,2,0.4,2.6,0.7l-0.9,3.7c-0.8-0.2-1.7-0.5-2.5-0.6c-0.8-0.1-1.7-0.2-2.6-0.2c-1.3,0-2.2,0.1-2.8,0.4
		c-0.6,0.2-0.9,0.7-0.9,1.4c0,0.5,0.1,0.8,0.4,1c0.3,0.2,0.8,0.4,1.5,0.5L1375.9,40.7L1375.9,40.7z"/>
	<path class="st2" d="M1385.3,24.4l11-3.5c0.1-0.5,0.1-1,0.1-1.5c0-2.1-0.6-4-1.6-5.7l-8.3,5.9L1385.3,24.4z"/>
	<path class="st2" d="M1387.2,16.4l6.2-4.3c-1.2-1.3-2.7-2.3-4.4-2.8L1387.2,16.4z"/>
	<path class="st2" d="M1383.2,23.6l-6.9-9.8c-1,1.7-1.6,3.6-1.6,5.7c0,4.7,3,8.6,7.1,10.2L1383.2,23.6z"/>
	<path class="st2" d="M1384.7,26.9l-0.8,3.4c0.6,0.1,1.1,0.1,1.7,0.1c4.6,0,8.5-2.9,10.1-6.9L1384.7,26.9L1384.7,26.9z"/>
	<path class="st2" d="M1383.9,20.8l3-12.1c-0.5-0.1-0.9-0.1-1.4-0.1c-3.1,0-5.9,1.3-7.8,3.4L1383.9,20.8L1383.9,20.8z"/>
	<polygon class="st2" points="1311,54.8 1310.6,57.4 1305.3,57.4 1305.3,73.1 1302.1,73.1 1302.1,57.4 1296.4,57.4 1296.7,54.8 	"/>
	<path class="st2" d="M1308.6,69c0-0.8,0.1-1.4,0.4-1.9c0.2-0.5,0.6-1,1-1.3c0.4-0.3,1-0.6,1.6-0.7c0.6-0.1,1.3-0.2,2-0.2
		c0.8,0,1.4,0.1,2,0.2c0.5,0.1,1,0.4,1.4,0.8V65c0-1.1-0.3-1.9-0.8-2.4c-0.6-0.5-1.5-0.7-2.7-0.7c-0.6,0-1.2,0-1.8,0.1
		c-0.6,0.1-1.2,0.2-1.8,0.4l0.4-2.4c0.6-0.1,1.2-0.3,1.9-0.4c0.7-0.1,1.4-0.1,2-0.1c0.9,0,1.7,0.1,2.4,0.3c0.7,0.2,1.3,0.5,1.8,0.9
		c0.5,0.4,0.9,0.9,1.2,1.6c0.3,0.6,0.4,1.4,0.4,2.3v8.6h-2.7l-0.2-1.3c-0.4,0.6-0.9,1-1.6,1.2c-0.6,0.2-1.4,0.4-2.4,0.4
		c-0.7,0-1.3-0.1-1.8-0.2c-0.6-0.1-1-0.4-1.4-0.7c-0.4-0.3-0.7-0.7-0.9-1.3s-0.3-1.2-0.3-1.9L1308.6,69L1308.6,69z M1311.6,69.1
		c0,0.6,0.2,1.1,0.6,1.4c0.4,0.3,1.1,0.5,1.9,0.5c1,0,1.7-0.2,2.2-0.6c0.5-0.4,0.7-0.9,0.7-1.5v-0.2c0-0.6-0.2-1-0.6-1.3
		c-0.4-0.3-1.1-0.5-1.9-0.5h-0.4c-0.8,0-1.4,0.1-1.8,0.5c-0.4,0.3-0.6,0.8-0.6,1.4C1311.6,68.8,1311.6,69.1,1311.6,69.1z"/>
	<polygon class="st2" points="1331.3,73.1 1328,68.2 1324.8,73.1 1321.4,73.1 1326.3,66.1 1321.8,59.8 1325.3,59.8 1328.1,64.1 
		1331,59.8 1334.3,59.8 1329.8,66.1 1334.8,73.1 	"/>
	<path class="st2" d="M1338.1,54.4c0.7,0,1.2,0.1,1.4,0.5c0.3,0.3,0.5,0.7,0.5,1.3c0,0.6-0.1,1-0.5,1.3c-0.3,0.3-0.8,0.5-1.4,0.5
		c-0.7,0-1.2-0.1-1.4-0.5c-0.3-0.3-0.5-0.7-0.5-1.3c0-0.6,0.1-1,0.5-1.3C1337,54.5,1337.5,54.4,1338.1,54.4 M1336.5,59.8h3.1v13.4
		h-3.1V59.8z"/>
</g>
</svg>
