<?xml version="1.0" encoding="utf-8"?>
<!-- Generator: Adobe Illustrator 27.9.0, SVG Export Plug-In . SVG Version: 6.00 Build 0)  -->
<svg version="1.1" id="Layer_1" xmlns="http://www.w3.org/2000/svg" xmlns:xlink="http://www.w3.org/1999/xlink" x="0px" y="0px"
	 viewBox="0 0 1920 100" style="enable-background:new 0 0 1920 100;" xml:space="preserve">
<style type="text/css">
	.st0{fill:#606068;}
	.st1{fill-rule:evenodd;clip-rule:evenodd;fill:#606068;}
	.st2{fill:#606060;}
</style>
<g>
	<path class="st0" d="M1133.1,38.5v29.8h29.3V38.5H1133.1z M1154.2,50.8h-3.1v-1.3c-0.3-0.3-0.6-0.8-0.9-0.9h-4.9
		c-0.3,0.2-0.6,0.5-0.9,0.9v7.7c0.3,0.5,0.8,0.8,0.9,0.9h4.9c0.3-0.2,0.6-0.5,0.9-0.9V56h3.1v1.3c0,0.5-0.2,1.1-0.5,1.6
		c-0.3,0.5-1.2,1.4-1.8,1.9c-0.5,0.3-1.1,0.5-1.7,0.5h-5.2c-0.6,0-1.2-0.3-1.7-0.5c-0.5-0.3-1.5-1.4-1.8-1.9
		c-0.3-0.5-0.5-1.1-0.5-1.6v-7.8c0-0.5,0.2-1.3,0.5-1.6c0.3-0.5,1.2-1.4,1.8-1.9c0.5-0.3,1.1-0.5,1.7-0.5h5.2c0.6,0,1.2,0.3,1.7,0.5
		c0.5,0.3,1.4,1.4,1.8,1.9c0.3,0.5,0.5,1.1,0.5,1.6V50.8z"/>
	<g>
		<path class="st0" d="M1290.5,48.6h-4.9c-0.3,0.2-0.6,0.5-0.9,0.9v7.7c0.3,0.5,0.8,0.8,0.9,0.9h4.9c0.3-0.2,0.6-0.5,0.9-0.9v-7.8
			C1291.3,49.2,1290.9,48.7,1290.5,48.6z"/>
		<path class="st0" d="M1273.3,38.5v29.8h29.3V38.5H1273.3z M1294.5,57.4c0,0.5-0.2,1.1-0.5,1.6c-0.3,0.5-1.2,1.4-1.8,1.9
			c-0.5,0.3-1.1,0.5-1.7,0.5h-5.2c-0.6,0-1.2-0.3-1.7-0.5c-0.5-0.3-1.5-1.4-1.8-1.9c-0.3-0.5-0.5-1.1-0.5-1.6v-7.7
			c0-0.5,0.2-1.3,0.5-1.6c0.3-0.5,1.2-1.4,1.8-1.9c0.5-0.3,1.1-0.5,1.7-0.5h5.2c0.6,0,1.2,0.3,1.7,0.5c0.5,0.3,1.4,1.4,1.8,1.9
			c0.3,0.5,0.5,1.1,0.5,1.6V57.4z"/>
	</g>
	<g>
		<path class="st0" d="M1168.2,38.5v29.8h29.3V38.5H1168.2z M1185.6,61.1L1185.6,61.1l-3.9-6h-1.8v6h-3.1V45.8h7.4
			c0.6,0,1.4,0.3,2,0.5c0.3,0.3,1.1,1.1,1.4,1.4c0.3,0.5,0.5,1.3,0.5,1.7v2.2c0,0.6-0.2,1.3-0.5,1.7c-0.3,0.3-0.9,1.3-1.4,1.4
			c-0.5,0.3-0.8,0.3-0.9,0.5c0,0,0,0-0.2,0c1.2,1.9,2.6,4.1,3.9,6H1185.6L1185.6,61.1z"/>
		<path class="st0" d="M1184.4,48.7h-4.3v3.6h4.3c0.2,0,0.5-0.3,0.6-0.6v-2.2C1184.9,49.2,1184.6,48.7,1184.4,48.7z"/>
	</g>
	<g>
		<path class="st0" d="M1216.1,55.2h3.4l-1.7-5.3C1217.4,51.4,1216.8,53.6,1216.1,55.2z"/>
		<path class="st0" d="M1203.2,38.5v29.8h29.3V38.5H1203.2z M1221.5,61.1l-1.1-3h-5.4c-0.3,0.9-0.8,2-1.1,3h-3.2l5.4-15.4h3.4
			l5.4,15.4H1221.5z"/>
	</g>
	<path class="st0" d="M1238.3,38.5v29.8h29.3V38.5H1238.3z M1259.7,61.1h-3.1v-9.6l-0.3,0.8c-0.9,1.7-1.7,3.5-2.5,5.2h-2l-2.5-5.2
		l0,0l-0.3-0.8v9.6h-3.1V45.8h3.4l3.4,7.1c1.2-2.4,2.2-4.7,3.4-7.1h3.4L1259.7,61.1L1259.7,61.1z"/>
</g>
<g>
	<path class="st0" d="M387.9,44.4c0-0.9-0.4-1.1-0.9-1.2c-0.4-0.1-0.4-0.1-0.4-0.4v-1.4c0-0.3,0.4-0.4,0.9-0.4h6.5
		c0.4,0,0.7,0.1,0.7,0.4v21.6c0,0.4,0.1,0.4,0.4,0.6c0.9,0.3,0.9,0.4,0.9,1.9c0,0.4-0.1,0.9-0.9,0.9h-8c-0.4,0-0.4-0.4-0.4-1.1
		c0-1.1,0.3-1.1,0.4-1.1c0.4-0.1,0.5-0.3,0.5-0.7V44.4H387.9z M435.9,53L435.9,53c-0.7,1.1-2,2-2,2V44.4c0-0.7,0.4-1.9,1.4-1.9
		c1.1,0,1.4,0.9,1.4,1.9v4.4C436.7,48.7,436.7,51.5,435.9,53 M434.5,58.1L434.5,58.1c0.7-0.7,1.1-0.7,3.5-1.9c3.1-1.2,5-3.7,5-6
		c0-4.8-0.7-10.2-7.6-10.2c-4.4,0-9.1,3.1-9.1,12.9c0,12.5,8.2,12.8,9.5,12.8c5,0,7.5-4,7.5-7.2c0-1.1-0.4-1.1-1.2-1.1
		c-2,0-2.1,0-2.1,1.1c0,3.6-1.9,4.8-3.5,4.8c-1.4,0-2.2-1.1-2.2-3.1C434,60.3,433.8,58.8,434.5,58.1 M453.7,53L453.7,53
		c-0.7,1.1-2,2-2,2V44.4c0-0.7,0.4-1.9,1.4-1.9c1.1,0,1.4,0.9,1.4,1.9v4.4C454.5,48.7,454.5,51.5,453.7,53 M452.3,58.1L452.3,58.1
		c0.7-0.7,1-0.7,3.5-1.9c3.1-1.2,5-3.7,5-6c0-4.8-0.7-10.2-7.6-10.2c-4.4,0-9.1,3.1-9.1,12.9c0,12.5,8.4,12.8,9.5,12.8
		c5,0,7.5-4,7.5-7.2c0-1.1-0.4-1.1-1.2-1.1c-2,0-2.1,0-2.1,1.1c0,3.6-1.9,4.8-3.5,4.8c-1.4,0-2.2-1.1-2.2-3.1
		C451.8,60.3,451.7,58.8,452.3,58.1 M323,65.6L323,65.6h8.9c0.5,0,0.7-0.4,0.7-1c0-1.1-0.3-1.4-0.9-1.6c-0.4-0.1-1-0.4-1-1.4v-6h2.4
		c3.7,0,8.6-2,8.6-9.8c0-6-3.5-9.8-9.1-9.8h-9.6c-0.7,0-0.7,0.4-0.7,1c0,1.2,0,1.4,0.5,1.7c0.4,0.3,1.1,0.6,1.1,1.1v22.4
		c0,0.4-0.4,0.4-0.7,0.6c-0.4,0.1-0.4,0.3-0.5,0.4c-0.1,0.1-0.3,0.4-0.3,0.9C322.2,64.6,322.2,65.6,323,65.6 M330.7,38.1h1
		c1.5,0,2.1,1.6,2.1,3.1v9.1c0,1.9-0.7,3.1-1.9,3.1h-1.2L330.7,38.1L330.7,38.1z M360.4,52.6L360.4,52.6c0-10.2-5.9-12.2-8.9-12.2
		c-2.8,0-4.9,1.4-5.5,2c-2.8,2.6-3.6,6.7-3.6,11c0,9.9,5.2,12.3,8.9,12.3C353.9,65.7,360.4,64.1,360.4,52.6 M353,45v15.6
		c0,1-0.3,2.7-1.6,2.7c-1.1,0-1.5-1.2-1.5-2.7V45.5c0-0.9,0.1-2.7,1.6-2.7C352.8,42.8,353,44,353,45 M361.6,59.5l1.1,5.7
		c0.1,0.4,0.5,0.6,1.1,0.6c1.4,0,1.4-0.1,1.5-0.7c0-0.1,0-0.4,0.4-0.4c0.4,0,0.9,0.1,1.1,0.4c1.2,0.7,2,0.9,2.6,0.9
		c2.4,0,5.1-1.7,5.1-6.1c0-3.8-2-6.7-4-9.5c-0.1-0.1-0.7-0.9-0.9-1l-0.5-0.9c-0.1-0.1-0.3-0.3-0.3-0.3c-0.9-1-2.5-3.2-2.5-4.1
		c0-0.4,0.4-0.9,0.9-0.9c1.1,0,2.6,1.9,3.6,3c0.5,0.9,0.9,1.1,2,1.1c1.1,0,1.4-0.1,1.1-0.9l-1.1-5.1c-0.1-0.4-0.4-0.6-1-0.6
		c-1.1,0-1.4,0-1.5,0.4c0,0.3-0.1,0.4-0.4,0.4c-0.1,0-0.4,0.1-1.1-0.3c-1.2-0.7-2-0.7-2.6-0.7c-1.9,0-5.1,1.1-5.1,6
		c0,2.6,0.9,4.1,2.6,6.8c0.4,0.6,0.5,1.1,1.9,2.6c1.2,1.7,3.6,4.8,3.6,6.3c0,0.9-0.4,1.1-1,1.1c-1,0-1.9-0.4-3.4-3
		c-0.4-0.9-0.9-1.1-1.5-1.1C362.3,58.9,361.6,59.1,361.6,59.5 M376.8,43v18.9c0,1.2,0.4,2.7,1.5,3.6h6.8c0.1,0,0.3-0.3,0.3-0.4
		c0-1.2-0.3-1.4-0.7-1.7c-0.4-0.3-1-0.4-1-1.4V43h1.5c0.3,0,0.4-0.1,0.4-0.4v-1.9c0-0.1-0.3-0.4-0.4-0.4h-1.5v-4.6
		c0-0.3-0.3-0.4-0.5-0.4h-1.9c-0.4,0-0.4,0.4-0.4,0.7c-0.9,3.1-4.1,4.1-4.9,4.2c-0.1,0-0.7,0.1-0.7,0.4v1.9c0,0.1,0.1,0.4,0.4,0.4h1
		V43z M404.9,43v-1.9c0-0.1-0.1-0.4-0.4-0.4h-7.1c-0.3,0-0.4,0.1-0.4,0.3v1.6c0,0.1,0.4,0.4,0.4,0.4c0.4,0.1,0.7,0.4,0.7,0.9v18.6
		c0,0.1,0,0.4-0.5,0.9c-0.5,0.4-0.5,0.6-0.5,0.9v1.1c0,0.3,0.4,0.4,0.5,0.4h8c0.3,0,0.4-0.1,0.4-0.4v-1.4c0-0.1,0-0.3-0.4-0.4
		c-0.4-0.4-0.7-0.4-0.7-1V45.2c1-0.4,1.5-0.7,2-0.7c0.7,0,1.1,0.4,1.1,1V63c0,1.6,0.5,2.1,1.1,2.7h6.2c0.3,0,0.4-0.3,0.4-0.4v-1.4
		c0-0.1,0-0.3-0.4-0.4c-0.4-0.4-0.4-0.4-0.4-1V45.5c0-0.4,1-1.1,1.9-1.1s1.4,0.6,1.4,1.1v17.3c0,1.4,0.4,2,1.1,2.7h6.1
		c0.3,0,0.4-0.3,0.4-0.4v-1.1c0-0.4,0-0.4-0.4-0.9c-0.4-0.4-0.4-0.4-0.4-0.7V44.8c0-2.7-1.9-4.4-4.5-4.4c-2.5,0-3.9,1.1-5.7,2.7
		c-0.7-1.1-1.6-2.7-4.4-2.7C407.9,40.5,406.2,41.9,404.9,43 M462.1,59.5l1.1,5.7c0.1,0.4,0.7,0.6,1.1,0.6c1.4,0,1.4-0.1,1.5-0.7
		c0-0.1,0-0.4,0.3-0.4c0.4,0,0.9,0.1,1.1,0.4c1.2,0.7,2,0.9,2.6,0.9c2.4,0,5.1-1.7,5.1-6.1c0-3.8-2-6.7-4-9.5
		c-0.1-0.1-0.7-0.9-0.9-1l-0.5-0.9c-0.1-0.1-0.3-0.3-0.3-0.3c-0.9-1-2.5-3.2-2.5-4.1c0-0.4,0.4-0.9,0.9-0.9c1.1,0,2.6,1.9,3.5,3
		c0.5,0.9,0.9,1.1,2,1.1s1.4-0.1,1.1-0.9l-1.1-5.1c-0.1-0.4-0.4-0.6-1-0.6c-1.1,0-1.4,0-1.5,0.4c0,0.3-0.1,0.4-0.4,0.4
		c-0.1,0-0.4,0.1-1.1-0.3c-1.2-0.7-2-0.7-2.6-0.7c-1.9,0-5.1,1.1-5.1,6c0,2.6,0.9,4.1,2.6,6.8c0.4,0.6,0.7,1.1,1.9,2.6
		c1.1,1.7,3.6,4.8,3.6,6.3c0,0.9-0.4,1.1-1,1.1c-1,0-1.9-0.4-3.4-3c-0.4-0.9-0.9-1.1-1.5-1.1C462.9,58.9,462.1,59.1,462.1,59.5
		 M391,39.8c2.1,0,3.9-1,3.9-2.1s-1.9-2.1-3.9-2.1s-3.9,1-3.9,2.1S388.7,39.8,391,39.8"/>
</g>
<g>
	<path class="st1" d="M27.1,28.2h31v45.4h-31V28.2z M31.6,69h22.1V32.9H31.6V69z"/>
	<path class="st1" d="M78.9,48.6h-1.9c-2.5-3.7-4.9-7.2-7.6-11.2l0,0v11.2h-2.1V32.9h1.9c2.5,3.5,4.9,7.2,7.6,11.2l0,0V32.9h2.1
		V48.6L78.9,48.6z M83.8,42.2c0.6-2,1.2-4,1.8-6.5l0,0c0.6,2.5,1.2,4.3,1.8,6.5H83.8z M84.9,32.9l-5.2,15.7h2.1l1.3-4.3h4.6l1.2,4.3
		h3L87,32.9H84.9z M94.4,48.6V34.8h-4v-2h10.7V35h-4v13.7h-2.5C94.4,48.7,94.4,48.6,94.4,48.6z M102,32.9h2.5v15.7H102V32.9z
		 M112.9,46.5c-2.7,0-3.7-3.1-3.7-6.2c0-2.9,1-5.7,3.7-5.7c2.5,0,3.7,2.8,3.7,5.7C116.6,43.5,115.6,46.5,112.9,46.5z M112.9,48.9
		c4,0,6.5-3.7,6.5-8.3c0-4.4-2.7-7.8-6.5-7.8s-6.5,3.5-6.5,7.8C106.2,45.2,108.7,48.9,112.9,48.9z M132.6,48.6h-1.9
		c-2.5-3.7-4.9-7.2-7.6-11.2l0,0v11.2h-1.9V32.9h1.9c2.5,3.5,4.9,7.2,7.4,11.2l0,0V32.9h2.1L132.6,48.6L132.6,48.6z M137.7,42.2
		c0.6-2,1.2-4,1.8-6.5l0,0c0.6,2.5,1.2,4.3,1.8,6.5H137.7z M138.7,32.9l-5.2,15.7h2.2l1.3-4.3h4.6l1.2,4.3h3l-5.1-15.7H138.7z
		 M146.6,32.9h2.5v13.7h5.2v2.2h-7.9C146.6,48.7,146.6,32.9,146.6,32.9z M77.1,61.9v6.5c-1.3,0.6-2.8,0.9-4.3,0.9
		c-4.5,0-7.4-3.5-7.4-8.1c0-4.3,2.8-8,7.6-8c1.3,0,2.8,0.6,3.7,1.2l-1,1.6c-0.7-0.4-1.8-0.7-2.8-0.7c-2.8,0-4.6,2.3-4.6,5.9
		c0,3.7,2.2,6,4.5,6c0.7,0,1.3-0.1,1.8-0.3v-4.7L77.1,61.9L77.1,61.9z M86.7,55.4h-4.3v4.3h4.3v2.2h-4.3v4.9h5.1V69h-7.9V53.2h7.1
		C86.7,53.2,86.7,55.4,86.7,55.4z M94.9,66.9c-2.7,0-3.7-3.1-3.7-6.2c0-2.9,1-5.7,3.7-5.7c2.5,0,3.7,2.8,3.7,5.7
		C98.5,63.8,97.6,66.9,94.9,66.9L94.9,66.9z M94.9,69.3c4,0,6.5-3.7,6.5-8.3c0-4.4-2.7-7.8-6.5-7.8c-3.7,0-6.5,3.5-6.5,7.8
		C88.2,65.6,90.8,69.3,94.9,69.3L94.9,69.3z M114.1,61.9v6.5c-1.3,0.6-2.8,0.9-4.3,0.9c-4.5,0-7.4-3.5-7.4-8.1c0-4.3,2.8-8,7.6-8
		c1.5,0,2.8,0.6,3.7,1.2l-0.9,1.9c-0.7-0.4-1.8-0.7-2.8-0.7c-2.8,0-4.6,2.3-4.6,5.9c0,3.7,2.2,6,4.5,6c0.7,0,1.3-0.1,1.8-0.3v-4.7
		h2.5C114.1,62.2,114.1,61.9,114.1,61.9z M119.2,55.4h1.2c1.5,0,2.4,0.9,2.4,2.5c0,2.2-1.2,3.1-2.5,3.1c-0.3,0-0.9,0-1,0L119.2,55.4
		L119.2,55.4z M125.9,69l-3.1-6.5c1.6-0.9,2.7-2.8,2.7-4.6c0-3.1-1.8-4.6-4.8-4.6h-4V69h2.7v-6h1.2l2.4,6H125.9z M130.2,62.8
		c0.6-2,1.2-4,1.8-6.5l0,0c0.6,2.5,1.2,4.3,1.8,6.5H130.2z M131.3,53.2L126.1,69h2.2l1.3-4.3h4.6l1.2,4.3h3l-4.9-15.7
		C133.6,53.2,131.3,53.2,131.3,53.2z M143.5,53.2h-4.2V69h2.7v-6h1.2c3.1,0,5.1-2.6,5.1-5.2C148.3,54.8,146.3,53.2,143.5,53.2
		L143.5,53.2z M143,61c-0.3,0-0.9,0-1,0v-5.7h1.2c1.5,0,2.4,0.9,2.4,2.5C145.6,60,144.4,60.9,143,61z M160.5,69h-2.7v-7.6h-5.5v7.5
		h-2.5V53.2h2.5v6h5.5v-6h2.7V69z M163,53.2h2.5V69H163V53.2z M177.6,56.1c-0.6-0.4-1.6-0.9-2.7-0.9c-2.7,0-4.6,2.3-4.6,5.9
		c0,3.7,2.1,6,4.6,6c0.9,0,1.8-0.3,2.7-0.7l0.7,2c-0.7,0.6-2.2,1-3.4,1c-4.5,0-7.4-3.5-7.4-8.1c0-4.3,2.8-8,7.4-8
		c1.3,0,2.7,0.6,3.6,1.2L177.6,56.1z"/>
</g>
<g>
	<path class="st2" d="M1893.9,81.3h-93.5c-6.1,0-11-5-11-11.2V25.6h93.5c6.1,0,11,5,11,11.2V81.3L1893.9,81.3z M1792.6,28.8v41.3
		c0,4.4,3.5,8,7.9,8h90.4V36.8c0-4.4-3.5-8-7.9-8L1792.6,28.8L1792.6,28.8z"/>
	<path class="st2" d="M1854,45.6V69h3.2V45.6c0-1.7,1.4-3.2,3.1-3.2h4.7v-3.2h-4.7c-1,0-2,0.3-2.9,0.7l0,0c-0.4,0.2-0.8,0.5-1.2,0.8
		c-0.3,0.2-0.5,0.5-0.7,0.7c-0.2,0.3-0.4,0.6-0.6,0.9c-0.1,0.1-0.1,0.2-0.2,0.4C1854.3,43.6,1854,44.6,1854,45.6"/>
	<rect x="1861.7" y="45.6" class="st2" width="3.2" height="23.4"/>
	<path class="st2" d="M1820.1,45.6c0-0.1,0-0.2,0-0.4c0.2-1.3,1.1-2.5,2.4-2.8c0.2,0,0.4-0.1,0.6-0.1c1.3,0,2.4,0.9,2.9,2.1
		c0.1,0.4,0.2,0.7,0.2,1.1v16.9c0,0.4-0.1,0.8-0.2,1.1c-0.1,0.3-0.3,0.7-0.5,0.9c-0.2,0.3-0.5,0.5-0.8,0.7c-0.3,0.2-0.7,0.3-1.1,0.4
		c-0.2,0-0.3,0.1-0.5,0.1c-0.4,0-0.8-0.1-1.1-0.2c-0.3-0.1-0.6-0.3-0.8-0.6c-0.7-0.6-1.1-1.5-1.1-2.4L1820.1,45.6L1820.1,45.6z
		 M1816.9,62.5c0,2,0.9,3.8,2.3,5c0.4,0.4,0.9,0.7,1.4,0.9c0.6,0.3,1.3,0.5,2,0.5c0.2,0,0.4,0,0.6,0c0.3,0,0.6,0,0.9-0.1
		c0.7-0.1,1.5-0.3,2.1-0.7c0.3-0.2,0.6-0.4,0.9-0.6c0.3-0.2,0.5-0.5,0.8-0.7c0.2-0.3,0.5-0.5,0.6-0.8c0.2-0.3,0.3-0.6,0.5-0.9
		c0.2-0.3,0.3-0.7,0.4-1.1c0.1-0.5,0.2-1,0.2-1.5v-0.7V60v-1.7v-1.7V45.6c0-0.2,0-0.4,0-0.6c-0.1-0.7-0.3-1.4-0.5-2
		c-0.6-1.4-1.8-2.6-3.2-3.2c-0.1-0.1-0.2-0.1-0.4-0.1c-0.7-0.2-1.4-0.4-2.1-0.4c-3.5,0-6.3,2.9-6.3,6.4L1816.9,62.5L1816.9,62.5z"/>
	<path class="st2" d="M1867.6,44.8c0,0.3-0.1,0.5-0.1,0.8c0,0.2,0,0.4,0.1,0.6c0.1,0.7,0.3,1.4,0.6,2.2c0.1,0.3,0.3,0.6,0.5,0.9l0,0
		c0.1,0.2,7.3,11,7.3,11c0.4,0.6,0.7,1.2,0.7,1.7c0,0.2,0.1,0.4,0.1,0.5c0,1.7-1.3,3.1-3,3.1c-0.9,0-1.6-0.4-2.2-1
		c-0.3-0.3-0.5-0.7-0.7-1.1c-0.1-0.2-0.1-0.3-0.1-0.5c0-0.2-0.1-0.4-0.1-0.6h-0.5h-1.7h-1.1h0c0,0,0,0,0,0.1c0,0.5,0.1,1,0.2,1.5
		c0.3,1.3,1,2.4,1.9,3.2c0.4,0.3,0.8,0.6,1.2,0.9c0.9,0.5,1.9,0.8,3.1,0.8c3.5,0,6.3-2.9,6.3-6.4c0-1-0.3-2-0.8-3.1
		c-0.1-0.2-0.2-0.4-0.4-0.7c0,0-7.2-11-7.3-11c-0.4-0.6-0.7-1.3-0.8-1.8c0-0.2,0-0.3,0-0.5c0-0.2,0-0.4,0.1-0.6
		c0.1-0.7,0.4-1.3,0.9-1.7c0.3-0.3,0.6-0.5,0.9-0.6c0.3-0.1,1.1-0.2,1.1-0.2c0.5,0,0.9,0.1,1.3,0.3c1,0.5,1.7,1.6,1.7,2.9h3.2
		c0-0.1,0-0.2,0-0.3c-0.1-2.9-2.2-5.3-4.9-6c-0.4-0.1-0.9-0.2-1.4-0.2c-0.1,0-0.2,0-0.2,0c-0.5,0-0.9,0.1-1.3,0.2
		c-0.4,0.1-0.7,0.2-1.1,0.4c-0.5,0.2-1,0.6-1.4,1c-0.3,0.3-0.6,0.5-0.8,0.9c-0.2,0.3-0.4,0.6-0.6,0.9c-0.2,0.3-0.3,0.7-0.4,1
		C1867.7,44,1867.6,44.4,1867.6,44.8"/>
	<path class="st2" d="M1802.6,44.8c0,0.3-0.1,0.5-0.1,0.8c0,0.2,0,0.4,0,0.6c0.1,0.7,0.3,1.4,0.6,2.2c0.1,0.3,0.3,0.6,0.5,0.9l0,0
		c0.1,0.2,7.3,11,7.3,11c0.4,0.6,0.7,1.2,0.8,1.7c0,0.2,0.1,0.4,0.1,0.5c0,1.7-1.3,3.1-3,3.1c-0.9,0-1.6-0.4-2.2-1
		c-0.3-0.3-0.5-0.7-0.7-1.1c-0.1-0.2-0.1-0.3-0.1-0.5c0-0.2-0.1-0.4-0.1-0.6h-0.5h-1.7h-1.1h0c0,0,0,0,0,0.1c0,0.5,0.1,1,0.2,1.5
		c0.3,1.3,1,2.4,1.9,3.2c0.4,0.3,0.8,0.6,1.2,0.9c0.9,0.5,1.9,0.8,3.1,0.8c3.5,0,6.3-2.9,6.3-6.4c0-1-0.3-2-0.8-3.1
		c-0.1-0.2-0.2-0.4-0.4-0.7c0,0-7.2-11-7.3-11c-0.4-0.6-0.7-1.3-0.8-1.8c0-0.2-0.1-0.3-0.1-0.5c0-0.2,0-0.4,0.1-0.6
		c0.1-0.7,0.4-1.3,0.9-1.7c0.3-0.3,0.6-0.5,0.9-0.6c0.3-0.1,1.1-0.2,1.1-0.2c0.5,0,0.9,0.1,1.3,0.3c1,0.5,1.7,1.6,1.7,2.9h3.2
		c0-0.1,0-0.2,0-0.3c-0.1-2.9-2.2-5.3-4.9-6c-0.4-0.1-0.9-0.2-1.4-0.2c-0.1,0-0.2,0-0.2,0c-0.5,0-0.9,0.1-1.3,0.2
		c-0.4,0.1-0.7,0.2-1.1,0.4c-0.5,0.2-1,0.6-1.4,1c-0.3,0.3-0.6,0.5-0.8,0.9c-0.2,0.3-0.4,0.6-0.6,0.9c-0.2,0.3-0.3,0.7-0.4,1
		C1802.7,44,1802.6,44.4,1802.6,44.8"/>
	<path class="st2" d="M1831.8,62.5c0,0.3,0,0.5,0,0.8c0.1,0.7,0.3,1.5,0.6,2.1c0.9,1.8,2.6,3.1,4.7,3.5c0.3,0.1,0.6,0.1,1,0.1h4.7
		v-3.2h-4.7c-1.7,0-3.1-1.5-3.1-3.2V39.2h-3.2L1831.8,62.5L1831.8,62.5z"/>
	<path class="st2" d="M1841.3,54.3c0-1.7,1.4-3,3.1-3h3.1v5.5c0,0.9-0.4,1.8-1,2.4c-0.2,0.2-0.5,0.4-0.7,0.5
		c-0.4,0.2-0.8,0.3-1.3,0.3c-1.7,0-3.1-1.3-3.1-3.2V54.3L1841.3,54.3z M1838.5,59.5c0.9,2.1,2.7,3.4,5,3.7c0.3,0,0.5,0.1,0.8,0.1
		c0.2,0,0.4,0,0.6-0.1c0.8-0.1,1.6-0.4,2.2-0.8c0.1,0,0.1-0.1,0.2-0.1v6.7h3.2V45.6c0-0.2,0-0.4,0-0.7c-0.1-0.6-0.2-1.2-0.4-1.8
		c-0.4-1-1-1.9-1.8-2.5c-0.3-0.3-0.7-0.5-1.1-0.7c-0.2-0.1-0.5-0.2-0.7-0.3c-0.7-0.3-1.4-0.4-2.2-0.4c-3.5,0-6.3,2.9-6.3,6.4h3.2
		c0-0.1,0-0.1,0-0.2c0-0.4,0.1-0.7,0.2-1c0.5-1.2,1.5-2.1,2.8-2.1c0.2,0,0.4,0,0.5,0.1c1.2,0.2,2.2,1.2,2.4,2.4
		c0.1,0.2,0.1,0.5,0.1,0.7h0v2.5h-1.1h-1.9c-0.8,0-1.5,0.1-2.2,0.4c-0.5,0.2-1,0.5-1.5,0.8c-1.5,1.1-2.6,3-2.6,5.2v1.7v0.7
		C1838,57.9,1838.2,58.7,1838.5,59.5"/>
</g>
<g>
	<path class="st0" d="M735,33.8c0,0-0.4,0-1,0c-1,0-2.4,0-3.8-0.1c-2.9-0.1-7.1-0.4-10.1-1.5c-1.5-0.5-3.4-1.4-5.6-2.5
		c-8.1-3.8-20.3-9.7-37-9.7c-16.5,0-28.4,5.7-36.4,9.5c-2.3,1.1-4.3,2.1-5.8,2.6c-3.5,1.2-8.2,1.4-10.1,1.5c-1.1,0-2.3,0-3.2,0
		c-0.9,0-1.6,0-1.6,0l-1.5,0v46.1l117.6,0v-46L735,33.8z M733.8,77.3l-112.3,0V35.8c0,0,2.8,0,4.8,0c3-0.1,7.2-0.5,10.3-1.5
		c6.7-2.3,20.2-11.8,40.9-11.8c20.7,0,34.6,9.4,41.2,11.8c3.1,1.1,7.3,1.4,10.3,1.5c2.4,0.1,4.8,0,4.8,0V77.3z"/>
	<path class="st0" d="M650.2,56.8c-0.2,0.8-0.7,3.4-1,4.3h-12.1v-0.8c2.2-0.2,2.5-0.4,2.5-2.7V46.7c0-2.3-0.2-2.5-2.4-2.6v-0.8h7
		v0.8c-2.1,0.2-2.4,0.3-2.4,2.6v10.8c0,1.5,0.1,2,0.6,2.3c0.5,0.3,1.4,0.4,2.6,0.4c1.5,0,2.4-0.1,3-0.8c0.5-0.5,1-1.4,1.4-2.7
		L650.2,56.8z"/>
	<path class="st0" d="M658.2,61.1v-0.8c2.2-0.2,2.4-0.3,2.4-2.6V46.7c0-2.3-0.2-2.5-2.4-2.6v-0.8h7.1v0.8c-2.2,0.2-2.4,0.3-2.4,2.6
		v10.9c0,2.3,0.2,2.5,2.4,2.6v0.8H658.2z"/>
	<path class="st0" d="M679.7,57.5c0,2.1,0.9,2.6,2.8,2.6c5,0,7.3-3.8,7.3-8.2c0-2.8-1-5.3-3.2-6.6c-1.2-0.8-2.8-1.1-4.6-1.1
		c-1.1,0-1.8,0.1-2.1,0.4c-0.2,0.2-0.4,0.5-0.4,1.6L679.7,57.5L679.7,57.5z M682.6,43.3c3.4,0,5.9,0.7,7.6,2.3
		c1.3,1.3,2.3,3.3,2.3,5.9c0,3.3-1.3,5.7-3.3,7.3c-2,1.6-4.7,2.3-8,2.3h-6.3v-0.7c2.3-0.2,2.5-0.3,2.5-2.6v-11
		c0-2.3-0.2-2.5-2.3-2.6v-0.8C675.1,43.3,682.6,43.3,682.6,43.3z"/>
	<path class="st0" d="M703.3,51.6c0,5.1,2.8,8.9,6.5,8.9c3,0,5.6-2.5,5.6-7.8c0-5.8-2.9-8.8-6.5-8.8
		C706.1,43.9,703.3,46.5,703.3,51.6 M718.3,52c0,5.9-4,9.5-8.9,9.5c-4.9,0-8.7-3.8-8.7-9.1c0-4.9,3.4-9.5,9-9.5
		C714.2,42.9,718.3,46.5,718.3,52"/>
</g>
<g>
	<path class="st2" d="M1549.7,49.3C1549.7,49.3,1549.7,49.3,1549.7,49.3l2.7,0c3.8,0,6-2.1,8-4.8l1.8-2.3l-4.9,0c-0.2,0-1.7,0-2.3,0
		c-4.2,0-6.8,3.4-8.6,7.3l-7.5-7.3h-9.4l14.5,14c0,0,0,0,0,0h0l0,0c-0.7,1.1-1.3,1.5-2,1.5c0,0,0,0,0,0l-2.7,0c-3.8,0-6,2.1-8,4.8
		l-1.8,2.3l4.9,0c0.2,0,1.7,0,2.3,0c4.2,0,6.8-3.4,8.6-7.3l7.5,7.3h9.4l-14.5-14c0,0,0,0,0,0h0l0,0
		C1548.4,49.7,1549,49.3,1549.7,49.3L1549.7,49.3z"/>
	<path class="st2" d="M1458.7,42.1h-3.3l6.4,11.3h-3.3c-3.5,0-6.7,1.9-8.5,5l-3.6,6.4h3.3c3.5,0,6.7-1.9,8.5-5l0.8-1.4
		c0.9-1.5,2-2.9,3.2-4.2l3.2,5.6c1.8,3.1,5,5,8.5,5h3.4l-10.1-17.7C1465.4,44,1462.2,42.1,1458.7,42.1L1458.7,42.1z"/>
	<path class="st2" d="M1635.6,47.1c-1.8-3.1-5-5-8.5-5h-3.3l6.4,11.3h-3.3c-3.5,0-6.7,1.9-8.5,5l-3.6,6.4h3.3c3.5,0,6.7-1.9,8.5-5
		l0.8-1.4c0.9-1.5,2-2.9,3.2-4.2l3.2,5.6c1.8,3.1,5,5,8.5,5h3.4L1635.6,47.1L1635.6,47.1z"/>
	<path class="st2" d="M1483.6,60.6L1483.6,60.6c1.3-1.4,2.1-3.3,2.1-5.4V42.1h-7v22.7h22.9v-6h-13.2
		C1486.7,58.8,1485,59.4,1483.6,60.6L1483.6,60.6z"/>
	<path class="st2" d="M1595.4,60.6L1595.4,60.6c1.3-1.4,2.1-3.3,2.1-5.4V42.1h-7v22.7h22.9v-6h-13.2
		C1598.5,58.8,1596.7,59.4,1595.4,60.6L1595.4,60.6z"/>
	<path class="st2" d="M1507.4,42.1h-3.4v22.7h23.5v-6h-12.4c-2.8,0-4.7,0.7-5.6,1.9c-0.1,0.1,0,0.1,0,0l0,0c0.2-0.3,0.4-0.7,0.6-1
		c0.2-0.3,0.8-1.3,1-1.6c1-1.4,2-2,3.9-2h2.2c2.7,0,5.1-1.4,6.4-3.8l0.9-1.6h-6.2c-2.7,0-5.1,1.4-6.4,3.8l-0.7,1.3l-0.4,0.7
		l-0.9,1.6l0.3-0.8c0.5-1.4,0.8-2.9,0.8-4.4v-5.3h16.5v-5.5H1507.4L1507.4,42.1z"/>
	<path class="st2" d="M1567.3,42.1h-3.4v22.7h23.5v-6H1575c-2.8,0-4.7,0.7-5.6,1.9c-0.1,0.1,0,0.1,0,0h0c0.2-0.3,0.4-0.7,0.6-1
		c0.2-0.3,0.8-1.3,1-1.6c1-1.4,2-2,3.9-2h2.2c2.7,0,5.1-1.4,6.4-3.8l0.9-1.6h-6.2c-2.7,0-5.1,1.4-6.4,3.8l-0.7,1.3l-0.4,0.7
		l-0.9,1.6l0.3-0.8c0.5-1.4,0.8-2.9,0.8-4.4v-5.3h16.5v-5.5H1567.3L1567.3,42.1z"/>
</g>
<g>
	<g>
		<path class="st2" d="M979.5,42.2L979.5,42.2c0-2.8,2.2-5.1,4.9-5.1c2.8,0,4.9,2.3,4.9,5v0c0,2.7-2.2,5-4.9,5
			C981.6,47.2,979.5,45,979.5,42.2z M988.5,42.2L988.5,42.2c0-2.4-1.8-4.3-4.2-4.3c-2.4,0-4.2,2-4.2,4.3v0c0,2.4,1.8,4.3,4.2,4.3
			C986.7,46.5,988.5,44.6,988.5,42.2z M982.2,39.5h2.5c1.3,0,2.2,0.5,2.2,1.8c0,0.8-0.4,1.4-1.1,1.7l1.2,1.8h-1.7l-1-1.6h-0.6v1.6
			h-1.5V39.5z M984.6,42c0.5,0,0.8-0.3,0.8-0.6c0-0.4-0.3-0.6-0.8-0.6h-0.9V42L984.6,42L984.6,42z"/>
	</g>
	<path class="st2" d="M904.9,42.2h5.9v22.4h13.5v5.2h-19.4V42.2z M927,42.2h5.9v12l11-12h7.2l-11,11.7l11.5,15.9h-7.1L936.1,58
		l-3.1,3.3v8.4H927V42.2z M954.4,42.2h20.4v5.1h-14.5v6.1h12.5v4.8h-12.5v6.5h14.7v5.1h-20.6L954.4,42.2L954.4,42.2z M880.3,42.2
		h20.4v5.1h-14.5v6.1h12.5v4.8h-12.5v6.5h14.7v5.1h-20.6V42.2z"/>
</g>
</svg>
