<?xml version="1.0" encoding="utf-8"?>
<!-- Generator: Adobe Illustrator 26.0.2, SVG Export Plug-In . SVG Version: 6.00 Build 0)  -->
<svg version="1.1" id="Layer_1" xmlns="http://www.w3.org/2000/svg" xmlns:xlink="http://www.w3.org/1999/xlink" x="0px" y="0px"
	 viewBox="0 0 396 102" style="enable-background:new 0 0 396 102;" xml:space="preserve">
<style type="text/css">
	.st0{fill:#55C3BE;}
	.st1{fill:#ED1C24;}
	.st2{fill:#111111;}
	.st3{fill:#FFFFFF;}
	.st4{fill:#29333A;}
	.st5{fill:none;stroke:#29333A;stroke-width:1.5;stroke-miterlimit:10;}
</style>
<g>
	<g>
		<path class="st0" d="M126.6,26.2c1.4,0.7,2.4,1.7,3.1,3.1c0.7,1.4,1.1,3.1,1.2,5.1c0,2.8-0.7,5-2.1,6.5s-3.4,2.3-5.9,2.3h-6.4
			c-0.3,0-0.5-0.2-0.5-0.5V10.6c0-0.3,0.2-0.5,0.5-0.5h6.2c2.6,0,4.5,0.7,6,2.2c1.4,1.5,2.1,3.5,2.1,6.3c0,1.8-0.4,3.4-1.1,4.6
			c-0.7,1.2-1.7,2.2-3.1,2.8C126.5,26,126.5,26.1,126.6,26.2z M117.8,12v13.1c0,0.1,0.1,0.2,0.2,0.2h4.7c2,0,3.5-0.6,4.6-1.7
			c1.1-1.2,1.7-2.8,1.7-4.9c0-2.2-0.6-3.9-1.7-5.1c-1.1-1.2-2.6-1.8-4.6-1.8H118C117.9,11.8,117.8,11.9,117.8,12z M127.4,39.6
			c1.1-1.3,1.7-3.1,1.7-5.4s-0.6-4.1-1.7-5.4c-1.1-1.3-2.7-2-4.6-2H118c-0.1,0-0.2,0.1-0.2,0.2v14.3c0,0.1,0.1,0.2,0.2,0.2h4.8
			C124.8,41.5,126.3,40.9,127.4,39.6z"/>
		<path class="st0" d="M135.8,42.7V10.6c0-0.3,0.2-0.5,0.5-0.5h0.9c0.3,0,0.5,0.2,0.5,0.5v32.1c0,0.3-0.2,0.5-0.5,0.5h-0.9
			C136,43.2,135.8,43.1,135.8,42.7z"/>
		<path class="st0" d="M155,21.3c1.1,1.4,1.7,3.3,1.7,5.7v15.8c0,0.3-0.2,0.5-0.5,0.5h-0.9c-0.3,0-0.5-0.2-0.5-0.5v-1.9
			c0-0.1,0-0.1-0.1-0.1s-0.1,0-0.2,0.1c-0.6,0.9-1.4,1.7-2.4,2.1c-1,0.5-2.1,0.7-3.3,0.7c-1.6,0-3-0.5-4.2-1.4c-1.2-1-1.7-2.6-1.7-5
			c0-2.6,0.7-4.4,2.1-5.7c1.4-1.2,3.2-1.9,5.6-1.9h4c0.1,0,0.2-0.1,0.2-0.2V27c0-1.9-0.4-3.4-1.2-4.5c-0.8-1.1-2-1.7-3.5-1.7
			c-1.2,0-2.2,0.4-3.1,1.1c-0.9,0.7-1.4,1.7-1.5,2.9c0,0.3-0.2,0.5-0.5,0.5l-1,0c-0.1,0-0.2,0-0.3-0.1c-0.1-0.1-0.1-0.2-0.1-0.4
			c0.2-1.7,0.9-3,2.1-4c1.2-1,2.7-1.5,4.5-1.5C152.2,19.1,153.8,19.8,155,21.3z M153.2,40.5c1.1-1,1.6-2.4,1.6-4.2v-5
			c0-0.1-0.1-0.2-0.2-0.2h-4c-1.8,0-3.2,0.5-4.2,1.5c-1.1,1-1.6,2.4-1.6,4.3c0,1.7,0.4,2.9,1.2,3.7c0.8,0.8,1.9,1.2,3.2,1.2
			C150.8,41.9,152.2,41.5,153.2,40.5z"/>
		<path class="st0" d="M164.1,41.7c-1.2-1.3-1.9-3-1.9-5V26.1c0-2,0.6-3.7,1.9-5c1.2-1.3,2.9-1.9,4.8-1.9c1.3,0,2.5,0.3,3.5,0.8
			c1,0.6,1.8,1.3,2.4,2.2c0.6,0.9,0.8,1.9,0.8,3v0.2c0,0.3-0.2,0.5-0.5,0.5l-0.9,0c-0.3,0-0.5-0.2-0.5-0.5v-0.2
			c0-1.2-0.5-2.2-1.4-3.1c-0.9-0.9-2.1-1.3-3.5-1.3s-2.6,0.5-3.5,1.5c-0.9,1-1.4,2.3-1.4,3.8v10.5c0,1.5,0.5,2.8,1.4,3.8
			s2.1,1.5,3.5,1.5s2.6-0.4,3.5-1.3c0.9-0.9,1.4-1.9,1.4-3.1v-0.2c0-0.3,0.2-0.5,0.5-0.5h0.9c0.3,0,0.5,0.2,0.5,0.5v0.2
			c0,1.1-0.3,2.1-0.8,3c-0.6,0.9-1.4,1.7-2.4,2.2c-1,0.6-2.2,0.9-3.5,0.9C167,43.6,165.3,42.9,164.1,41.7z"/>
		<path class="st0" d="M181.2,42.7V10.6c0-0.3,0.2-0.5,0.5-0.5h0.9c0.3,0,0.5,0.2,0.5,0.5v20.5c0,0.1,0,0.1,0.1,0.1s0.1,0,0.1-0.1
			l8.4-11.4c0.1-0.2,0.3-0.3,0.6-0.3h0.9c0.2,0,0.3,0.1,0.4,0.2c0.1,0.1,0,0.2-0.1,0.4l-4.5,6.1c-0.1,0.1-0.1,0.2,0,0.2l5.5,16.2
			l0,0.2c0,0.2-0.1,0.3-0.4,0.3h-0.9c-0.3,0-0.5-0.1-0.6-0.4l-4.7-14.8c0-0.2-0.1-0.2-0.3,0l-4.4,6c-0.1,0.1-0.1,0.1-0.1,0.2v8.5
			c0,0.3-0.2,0.5-0.5,0.5h-0.9C181.3,43.2,181.2,43.1,181.2,42.7z"/>
		<path class="st0" d="M223,10.2h0.9c0.3,0,0.5,0.2,0.5,0.5v32.1c0,0.3-0.2,0.5-0.5,0.5h-1.1c-0.3,0-0.4-0.1-0.5-0.4l-10.7-28
			c0-0.1-0.1-0.1-0.1-0.1c-0.1,0-0.1,0.1-0.1,0.2v27.8c0,0.3-0.2,0.5-0.5,0.5h-0.9c-0.3,0-0.5-0.2-0.5-0.5V10.6
			c0-0.3,0.2-0.5,0.5-0.5h1.1c0.3,0,0.4,0.1,0.5,0.4l10.8,27.8c0,0.1,0.1,0.1,0.1,0.1c0.1,0,0.1-0.1,0.1-0.2V10.6
			C222.5,10.3,222.7,10.2,223,10.2z"/>
		<path class="st0" d="M231.6,13.8c-0.4-0.4-0.6-0.9-0.6-1.5c0-0.6,0.2-1.1,0.6-1.6c0.4-0.4,0.9-0.6,1.5-0.6s1.1,0.2,1.6,0.6
			s0.6,0.9,0.6,1.6c0,0.6-0.2,1.1-0.6,1.5s-0.9,0.6-1.6,0.6C232.5,14.4,232,14.2,231.6,13.8z M232.2,42.7V20c0-0.3,0.2-0.5,0.5-0.5
			h0.9c0.3,0,0.5,0.2,0.5,0.5v22.8c0,0.3-0.2,0.5-0.5,0.5h-0.9C232.3,43.2,232.2,43.1,232.2,42.7z"/>
		<path class="st0" d="M252.6,19.5h0.9c0.3,0,0.5,0.2,0.5,0.5v23.1c0,6.4-2.8,9.6-8.5,9.6c-0.5,0-0.7-0.2-0.7-0.5v-0.8
			c0-0.3,0.2-0.5,0.6-0.5c2.4,0,4.1-0.7,5.1-2c1.1-1.4,1.6-3.4,1.6-6v-2.1c0-0.1,0-0.1-0.1-0.1s-0.1,0-0.2,0.1c-0.5,0.9-1.2,1.6-2,2
			c-0.8,0.5-1.8,0.7-2.9,0.7c-1.9,0-3.5-0.6-4.6-1.9c-1.2-1.3-1.7-2.9-1.7-5V26.1c0-2,0.6-3.7,1.7-5c1.2-1.3,2.7-1.9,4.6-1.9
			c1.1,0,2,0.2,2.9,0.7c0.9,0.5,1.5,1.1,2,2c0.1,0.1,0.1,0.1,0.2,0.1s0.1,0,0.1-0.1V20C252.2,19.7,252.3,19.5,252.6,19.5z
			 M250.8,40.4c0.9-1,1.3-2.3,1.3-3.8V26.1c0-1.6-0.4-2.9-1.3-3.8c-0.9-1-2-1.5-3.4-1.5c-1.4,0-2.6,0.5-3.6,1.5
			c-0.9,1-1.4,2.3-1.4,3.8v10.4c0,1.6,0.5,2.9,1.4,3.8c0.9,1,2.1,1.5,3.6,1.5C248.8,41.8,250,41.4,250.8,40.4z"/>
		<path class="st0" d="M271.8,21.1c1,1.3,1.6,3,1.6,5.3v16.3c0,0.3-0.2,0.5-0.5,0.5h-0.9c-0.3,0-0.5-0.2-0.5-0.5V26.6
			c0-1.8-0.4-3.2-1.2-4.2c-0.8-1-2-1.5-3.4-1.5c-1.5,0-2.7,0.5-3.5,1.6S262,25,262,26.9v15.8c0,0.3-0.2,0.5-0.5,0.5h-0.9
			c-0.3,0-0.5-0.2-0.5-0.5V10.6c0-0.3,0.2-0.5,0.5-0.5h0.9c0.3,0,0.5,0.2,0.5,0.5v11.4c0,0.1,0,0.1,0.1,0.1s0.1,0,0.2-0.1
			c1.1-2,2.8-2.9,5.1-2.9C269.2,19.2,270.7,19.8,271.8,21.1z"/>
		<path class="st0" d="M286.4,21h-3.9c-0.1,0-0.2,0.1-0.2,0.2v15.9c0,1.7,0.3,2.8,0.9,3.5c0.6,0.7,1.5,1,2.7,1h0.5
			c0.3,0,0.5,0.2,0.5,0.5v0.7c0,0.3-0.2,0.5-0.5,0.5h-0.8c-1.7,0-2.9-0.4-3.8-1.2s-1.3-2.3-1.3-4.6V21.2c0-0.1-0.1-0.2-0.2-0.2h-1.9
			c-0.3,0-0.5-0.2-0.5-0.5V20c0-0.3,0.2-0.5,0.5-0.5h1.9c0.1,0,0.2-0.1,0.2-0.2V14c0-0.3,0.2-0.5,0.5-0.5h0.9c0.3,0,0.5,0.2,0.5,0.5
			v5.3c0,0.1,0.1,0.2,0.2,0.2h3.9c0.3,0,0.5,0.2,0.5,0.5v0.6C286.9,20.9,286.8,21,286.4,21z"/>
		<path class="st0" d="M292.6,41.8c-1.2-1.1-1.8-2.5-1.8-4.2v-0.2c0-0.3,0.2-0.5,0.5-0.5h0.8c0.3,0,0.5,0.2,0.5,0.5v0.2
			c0,1.2,0.4,2.2,1.3,3c0.9,0.8,2,1.2,3.4,1.2c1.4,0,2.5-0.4,3.3-1.3c0.8-0.8,1.2-1.9,1.2-3.3c0-1-0.2-1.8-0.7-2.4
			c-0.5-0.6-1-1.2-1.7-1.6c-0.7-0.4-1.6-0.8-2.8-1.3c-1.2-0.5-2.2-1-3-1.5c-0.8-0.5-1.4-1.1-2-1.9c-0.5-0.8-0.8-1.9-0.8-3.2
			c0-1.9,0.6-3.4,1.7-4.5c1.1-1.1,2.7-1.7,4.6-1.7c1.9,0,3.5,0.6,4.6,1.7c1.1,1.1,1.7,2.6,1.7,4.4v0.1c0,0.3-0.2,0.5-0.5,0.5h-0.8
			c-0.3,0-0.5-0.2-0.5-0.5v-0.2c0-1.3-0.4-2.3-1.3-3.2c-0.9-0.9-2-1.3-3.3-1.3c-1.4,0-2.4,0.4-3.3,1.3c-0.8,0.8-1.2,1.9-1.2,3.3
			c0,0.9,0.2,1.7,0.6,2.3s1,1.1,1.6,1.5s1.5,0.8,2.6,1.3c1.3,0.5,2.4,1,3.2,1.5c0.8,0.5,1.5,1.1,2.1,2c0.6,0.9,0.9,2,0.9,3.3
			c0,1.9-0.6,3.3-1.7,4.5c-1.2,1.1-2.7,1.7-4.7,1.7S293.8,42.9,292.6,41.8z"/>
	</g>
	<path class="st4" d="M116,91.8V59.7c0-0.3,0.2-0.5,0.5-0.5h6.7c2.2,0,4,0.8,5.3,2.3c1.3,1.5,2,3.6,2,6.3v15.9c0,2.7-0.7,4.8-2,6.3
		c-1.3,1.5-3.1,2.3-5.3,2.3h-6.7C116.2,92.3,116,92.1,116,91.8z M118,90.7h5.1c1.6,0,2.9-0.7,3.9-1.9c1-1.2,1.4-2.9,1.4-5.1V67.9
		c0-2.2-0.5-3.9-1.4-5.1c-0.9-1.2-2.3-1.9-3.9-1.9H118c-0.1,0-0.2,0.1-0.2,0.2v29.4C117.8,90.6,117.9,90.7,118,90.7z"/>
	<path class="st4" d="M137.1,62.9c-0.4-0.4-0.6-0.9-0.6-1.5c0-0.6,0.2-1.1,0.6-1.6c0.4-0.4,0.9-0.6,1.5-0.6s1.1,0.2,1.6,0.6
		s0.6,0.9,0.6,1.6c0,0.6-0.2,1.1-0.6,1.5s-0.9,0.6-1.6,0.6C138,63.5,137.5,63.3,137.1,62.9z M137.7,91.8V69.1c0-0.3,0.2-0.5,0.5-0.5
		h0.9c0.3,0,0.5,0.2,0.5,0.5v22.8c0,0.3-0.2,0.5-0.5,0.5h-0.9C137.8,92.3,137.7,92.1,137.7,91.8z"/>
	<path class="st4" d="M147.5,90.9c-1.2-1.1-1.8-2.5-1.8-4.2v-0.2c0-0.3,0.2-0.5,0.5-0.5h0.8c0.3,0,0.5,0.2,0.5,0.5v0.2
		c0,1.2,0.4,2.2,1.3,3c0.9,0.8,2,1.2,3.4,1.2c1.4,0,2.5-0.4,3.3-1.3c0.8-0.8,1.2-1.9,1.2-3.3c0-1-0.2-1.8-0.7-2.4
		c-0.5-0.6-1-1.2-1.7-1.6c-0.7-0.4-1.6-0.8-2.8-1.3c-1.2-0.5-2.2-1-3-1.5c-0.8-0.5-1.4-1.1-2-1.9c-0.5-0.8-0.8-1.9-0.8-3.2
		c0-1.9,0.6-3.4,1.7-4.5c1.1-1.1,2.7-1.7,4.6-1.7c1.9,0,3.5,0.6,4.6,1.7c1.1,1.1,1.7,2.6,1.7,4.4v0.1c0,0.3-0.2,0.5-0.5,0.5h-0.8
		c-0.3,0-0.5-0.2-0.5-0.5v-0.2c0-1.3-0.4-2.3-1.3-3.2c-0.9-0.9-2-1.3-3.3-1.3c-1.4,0-2.4,0.4-3.3,1.3c-0.8,0.8-1.2,1.9-1.2,3.3
		c0,0.9,0.2,1.7,0.6,2.3s1,1.1,1.6,1.5s1.5,0.8,2.6,1.3c1.3,0.5,2.4,1,3.2,1.5c0.8,0.5,1.5,1.1,2.1,2c0.6,0.9,0.9,2,0.9,3.3
		c0,1.9-0.6,3.3-1.7,4.5c-1.2,1.1-2.7,1.7-4.7,1.7S148.7,92,147.5,90.9z"/>
	<path class="st4" d="M164.9,90.7c-1.2-1.3-1.9-3-1.9-5V75.2c0-2,0.6-3.7,1.9-5c1.2-1.3,2.9-1.9,4.8-1.9c1.3,0,2.5,0.3,3.5,0.8
		c1,0.6,1.8,1.3,2.4,2.2c0.6,0.9,0.8,1.9,0.8,3v0.2c0,0.3-0.2,0.5-0.5,0.5l-0.9,0c-0.3,0-0.5-0.2-0.5-0.5v-0.2
		c0-1.2-0.5-2.2-1.4-3.1c-0.9-0.9-2.1-1.3-3.5-1.3s-2.6,0.5-3.5,1.5c-0.9,1-1.4,2.3-1.4,3.8v10.5c0,1.5,0.5,2.8,1.4,3.8
		s2.1,1.5,3.5,1.5s2.6-0.4,3.5-1.3c0.9-0.9,1.4-1.9,1.4-3.1v-0.2c0-0.3,0.2-0.5,0.5-0.5h0.9c0.3,0,0.5,0.2,0.5,0.5v0.2
		c0,1.1-0.3,2.1-0.8,3c-0.6,0.9-1.4,1.7-2.4,2.2c-1,0.6-2.2,0.9-3.5,0.9C167.7,92.7,166.1,92,164.9,90.7z"/>
	<path class="st4" d="M183.2,90.7c-1.2-1.3-1.9-3-1.9-5V75.2c0-2,0.6-3.7,1.9-5c1.2-1.3,2.9-1.9,4.8-1.9c2,0,3.6,0.6,4.9,1.9
		c1.2,1.3,1.9,3,1.9,5v10.6c0,2-0.6,3.7-1.9,5c-1.2,1.3-2.9,1.9-4.9,1.9C186,92.7,184.4,92,183.2,90.7z M191.6,89.5
		c0.9-1,1.4-2.3,1.4-3.8V75.2c0-1.6-0.5-2.9-1.4-3.8c-0.9-1-2.1-1.5-3.5-1.5c-1.4,0-2.6,0.5-3.5,1.5s-1.4,2.3-1.4,3.8v10.5
		c0,1.5,0.5,2.8,1.4,3.8s2.1,1.5,3.5,1.5C189.5,91,190.7,90.5,191.6,89.5z"/>
	<path class="st4" d="M204.2,91.9l-5.9-22.8l0-0.1c0-0.3,0.2-0.4,0.5-0.4h1c0.3,0,0.5,0.1,0.5,0.4l4.9,20c0,0.1,0.1,0.1,0.1,0.1
		c0,0,0.1,0,0.1-0.1l4.8-20c0.1-0.3,0.2-0.4,0.5-0.4h1.1c0.3,0,0.5,0.2,0.4,0.5l-5.9,22.8c0,0.3-0.2,0.4-0.5,0.4h-1.1
		C204.5,92.3,204.3,92.2,204.2,91.9z"/>
	<path class="st4" d="M229.3,81h-11c-0.1,0-0.2,0.1-0.2,0.2v4.5c0,1.6,0.5,2.9,1.4,3.8s2.1,1.5,3.5,1.5c1.2,0,2.2-0.3,3.1-1
		c0.9-0.7,1.4-1.6,1.7-2.8c0.1-0.3,0.3-0.4,0.5-0.4l0.9,0c0.2,0,0.3,0,0.4,0.1c0.1,0.1,0.1,0.2,0.1,0.4c-0.3,1.6-1,2.9-2.2,3.9
		s-2.6,1.5-4.4,1.5c-2,0-3.6-0.6-4.8-1.9c-1.2-1.3-1.9-2.9-1.9-5V75.2c0-2,0.6-3.7,1.9-5c1.2-1.3,2.9-1.9,4.8-1.9
		c2,0,3.6,0.6,4.9,1.9c1.2,1.3,1.9,3,1.9,5v5.3C229.7,80.8,229.6,81,229.3,81z M219.5,71.4c-0.9,1-1.4,2.3-1.4,3.8v4
		c0,0.1,0.1,0.2,0.2,0.2h9.4c0.1,0,0.2-0.1,0.2-0.2v-4c0-1.6-0.5-2.9-1.4-3.8c-0.9-1-2.1-1.5-3.5-1.5
		C221.6,69.9,220.4,70.4,219.5,71.4z"/>
	<path class="st4" d="M244.4,68.9c0.2,0.1,0.3,0.3,0.2,0.6l-0.3,0.9c-0.1,0.3-0.3,0.4-0.6,0.2c-0.4-0.2-1-0.3-1.7-0.2
		c-1.3,0-2.4,0.6-3.3,1.9c-0.9,1.3-1.3,2.9-1.3,4.8v14.6c0,0.3-0.2,0.5-0.5,0.5H236c-0.3,0-0.5-0.2-0.5-0.5V69.1
		c0-0.3,0.2-0.5,0.5-0.5h0.9c0.3,0,0.5,0.2,0.5,0.5v3.1c0,0.1,0,0.1,0.1,0.1s0.1,0,0.1-0.1c0.5-1.2,1.1-2.1,1.9-2.7
		c0.8-0.7,1.7-1,2.8-1C243.1,68.4,243.8,68.6,244.4,68.9z"/>
	<path class="st4" d="M248.1,101.6c-0.1-0.1-0.1-0.2-0.1-0.3v-0.7c0-0.3,0.2-0.5,0.5-0.5c0.9,0,1.7-0.2,2.2-0.6
		c0.5-0.4,0.9-1.1,1.3-2.1c0.3-1,0.8-2.7,1.3-4.9c0-0.1,0-0.1,0-0.2c0,0,0-0.1,0-0.1l-6.1-23l0-0.1c0-0.3,0.2-0.4,0.5-0.4h1
		c0.3,0,0.5,0.1,0.5,0.4l5.1,20.5c0,0.1,0.1,0.1,0.1,0.1c0,0,0.1,0,0.1-0.1l5-20.5c0.1-0.3,0.2-0.4,0.5-0.4h0.9c0.2,0,0.3,0,0.4,0.1
		c0.1,0.1,0.1,0.2,0.1,0.4l-6.7,25.8c-0.5,2-1,3.4-1.5,4.4c-0.5,0.9-1.1,1.6-1.7,1.9c-0.6,0.3-1.6,0.5-2.7,0.5h-0.2
		C248.3,101.8,248.2,101.7,248.1,101.6z"/>
	<path class="st4" d="M276.8,90.6c-1.4-1.4-2-3.3-2-5.5V66.5c0-2.3,0.7-4.1,2-5.5c1.4-1.4,3.1-2.1,5.3-2.1c2.2,0,4,0.7,5.4,2.1
		c1.4,1.4,2.1,3.2,2.1,5.5v0.9c0,0.3-0.2,0.5-0.5,0.5l-0.9,0c-0.3,0-0.5-0.2-0.5-0.5v-1.1c0-1.8-0.5-3.2-1.5-4.3
		c-1-1.1-2.4-1.6-4-1.6s-3,0.5-4,1.6c-1,1.1-1.5,2.5-1.5,4.3v18.8c0,1.8,0.5,3.2,1.5,4.2c1,1.1,2.4,1.6,4,1.6c1.7,0,3-0.5,4-1.6
		s1.5-2.5,1.5-4.2v-1c0-0.3,0.2-0.5,0.5-0.5l0.9,0c0.3,0,0.5,0.2,0.5,0.5V85c0,2.3-0.7,4.1-2.1,5.5c-1.4,1.4-3.2,2.1-5.4,2.1
		C279.9,92.7,278.2,92,276.8,90.6z"/>
	<path class="st4" d="M306.6,70.3c1.1,1.4,1.7,3.3,1.7,5.7v15.8c0,0.3-0.2,0.5-0.5,0.5h-0.9c-0.3,0-0.5-0.2-0.5-0.5v-1.9
		c0-0.1,0-0.1-0.1-0.1s-0.1,0-0.2,0.1c-0.6,0.9-1.4,1.7-2.4,2.1c-1,0.5-2.1,0.7-3.3,0.7c-1.6,0-3-0.5-4.2-1.4c-1.2-1-1.7-2.6-1.7-5
		c0-2.6,0.7-4.4,2.1-5.7c1.4-1.2,3.2-1.9,5.6-1.9h4c0.1,0,0.2-0.1,0.2-0.2v-2.4c0-1.9-0.4-3.4-1.2-4.5c-0.8-1.1-2-1.7-3.5-1.7
		c-1.2,0-2.2,0.4-3.1,1.1c-0.9,0.7-1.4,1.7-1.5,2.9c0,0.3-0.2,0.5-0.5,0.5l-1,0c-0.1,0-0.2,0-0.3-0.1c-0.1-0.1-0.1-0.2-0.1-0.4
		c0.2-1.7,0.9-3,2.1-4c1.2-1,2.7-1.5,4.5-1.5C303.8,68.2,305.4,68.9,306.6,70.3z M304.8,89.6c1.1-1,1.6-2.4,1.6-4.2v-5
		c0-0.1-0.1-0.2-0.2-0.2h-4c-1.8,0-3.2,0.5-4.2,1.5c-1.1,1-1.6,2.4-1.6,4.3c0,1.7,0.4,2.9,1.2,3.7c0.8,0.8,1.9,1.2,3.2,1.2
		C302.4,91,303.7,90.5,304.8,89.6z"/>
	<path class="st4" d="M336.5,70.3c1.1,1.4,1.6,3.2,1.6,5.6v15.9c0,0.3-0.2,0.5-0.5,0.5h-0.9c-0.3,0-0.5-0.2-0.5-0.5V76.1
		c0-1.9-0.4-3.4-1.2-4.5c-0.8-1.1-1.9-1.7-3.2-1.7c-1.4,0-2.5,0.5-3.4,1.6c-0.8,1.1-1.3,2.6-1.3,4.5v15.8c0,0.3-0.2,0.5-0.5,0.5
		h-0.9c-0.3,0-0.5-0.2-0.5-0.5V76.1c0-1.9-0.4-3.4-1.2-4.5c-0.8-1.1-1.9-1.7-3.2-1.7c-1.4,0-2.5,0.5-3.4,1.6
		c-0.8,1.1-1.3,2.6-1.3,4.5v15.8c0,0.3-0.2,0.5-0.5,0.5h-0.9c-0.3,0-0.5-0.2-0.5-0.5V69.1c0-0.3,0.2-0.5,0.5-0.5h0.9
		c0.3,0,0.5,0.2,0.5,0.5V71c0,0.1,0,0.1,0.1,0.1s0.1,0,0.2-0.1c0.6-0.9,1.3-1.6,2.1-2.1c0.8-0.5,1.8-0.7,2.8-0.7
		c1.2,0,2.2,0.3,3.1,1c0.9,0.7,1.6,1.6,2,2.8c0.1,0.2,0.1,0.2,0.2,0c0.5-1.2,1.2-2.2,2.2-2.8c1-0.6,2.1-1,3.3-1
		C334,68.3,335.4,69,336.5,70.3z"/>
	<path class="st4" d="M356.4,70.2c1.2,1.3,1.8,2.9,1.8,5v10.6c0,2.1-0.6,3.8-1.8,5c-1.2,1.3-2.7,1.9-4.7,1.9c-1,0-1.9-0.2-2.8-0.7
		c-0.8-0.4-1.5-1.1-2.1-1.9c-0.1-0.1-0.1-0.1-0.2-0.1c0,0-0.1,0.1-0.1,0.2v11c0,0.3-0.2,0.5-0.5,0.5h-0.9c-0.3,0-0.5-0.2-0.5-0.5
		V69.1c0-0.3,0.2-0.5,0.5-0.5h0.9c0.3,0,0.5,0.2,0.5,0.5v1.6c0,0.1,0,0.2,0.1,0.2c0,0,0.1,0,0.2-0.1c0.5-0.8,1.2-1.4,2.1-1.9
		c0.8-0.4,1.8-0.7,2.8-0.7C353.6,68.2,355.2,68.9,356.4,70.2z M355,71.4c-0.9-1-2.1-1.5-3.6-1.5c-1.4,0-2.5,0.5-3.4,1.5
		c-0.9,1-1.3,2.3-1.3,3.8v10.5c0,1.6,0.4,2.9,1.3,3.8c0.9,1,2,1.5,3.4,1.5c1.4,0,2.6-0.5,3.6-1.5s1.4-2.3,1.4-3.8V75.2
		C356.3,73.6,355.9,72.4,355,71.4z"/>
	<path class="st4" d="M375.7,68.6h0.9c0.3,0,0.5,0.2,0.5,0.5v22.8c0,0.3-0.2,0.5-0.5,0.5h-0.9c-0.3,0-0.5-0.2-0.5-0.5v-1.9
		c0-0.1,0-0.1-0.1-0.2c-0.1,0-0.1,0-0.1,0.1c-1,1.8-2.6,2.7-4.9,2.7c-1.9,0-3.4-0.6-4.5-1.7c-1.1-1.2-1.6-2.9-1.6-5.1V69.1
		c0-0.3,0.2-0.5,0.5-0.5h0.9c0.3,0,0.5,0.2,0.5,0.5v16.3c0,1.8,0.4,3.2,1.2,4.2c0.8,1,1.9,1.4,3.4,1.4c1.5,0,2.7-0.5,3.5-1.6
		c0.9-1.1,1.3-2.6,1.3-4.5V69.1C375.2,68.8,375.4,68.6,375.7,68.6z"/>
	<path class="st4" d="M384.6,90.9c-1.2-1.1-1.8-2.5-1.8-4.2v-0.2c0-0.3,0.2-0.5,0.5-0.5h0.8c0.3,0,0.5,0.2,0.5,0.5v0.2
		c0,1.2,0.4,2.2,1.3,3c0.9,0.8,2,1.2,3.4,1.2c1.4,0,2.5-0.4,3.3-1.3c0.8-0.8,1.2-1.9,1.2-3.3c0-1-0.2-1.8-0.7-2.4
		c-0.5-0.6-1-1.2-1.7-1.6c-0.7-0.4-1.6-0.8-2.8-1.3c-1.2-0.5-2.2-1-3-1.5c-0.8-0.5-1.4-1.1-2-1.9c-0.5-0.8-0.8-1.9-0.8-3.2
		c0-1.9,0.6-3.4,1.7-4.5c1.1-1.1,2.7-1.7,4.6-1.7c1.9,0,3.5,0.6,4.6,1.7c1.1,1.1,1.7,2.6,1.7,4.4v0.1c0,0.3-0.2,0.5-0.5,0.5h-0.8
		c-0.3,0-0.5-0.2-0.5-0.5v-0.2c0-1.3-0.4-2.3-1.3-3.2c-0.9-0.9-2-1.3-3.3-1.3c-1.4,0-2.4,0.4-3.3,1.3c-0.8,0.8-1.2,1.9-1.2,3.3
		c0,0.9,0.2,1.7,0.6,2.3s1,1.1,1.6,1.5s1.5,0.8,2.6,1.3c1.3,0.5,2.4,1,3.2,1.5c0.8,0.5,1.5,1.1,2.1,2c0.6,0.9,0.9,2,0.9,3.3
		c0,1.9-0.6,3.3-1.7,4.5c-1.2,1.1-2.7,1.7-4.7,1.7S385.7,92,384.6,90.9z"/>
	<g>
		<path class="st0" d="M30.5,95c-0.3-1-0.7-2.1-1-3.1c-0.3-1-0.7-2-0.7-3.1c-0.1-0.8,0.1-1.5,0.7-2.2c0.3-0.4,0.6-0.7,0.9-1
			c1.1-1.5,1.4-3.2,1.6-5c0.1-0.7,0-1.5,0-2.2c0-0.1,0.1-0.4-0.1-0.4c-0.1-0.1-0.2,0.1-0.4,0.2c-0.3,0.4-0.6,0.8-1,1.2
			c-0.9,0.9-1.8,1.8-2.6,2.8c-0.7,0.7-1.4,1.5-2.1,2c-0.7,0.6-1.3,1.2-1.8,2c-0.7,1.1-1.3,2.2-2,3.3c-0.7,1.1-1,2.2-1,3.5
			c-0.1,1,0,2,0.2,2.9c0.1,0.1,0.1,0.4,0.1,0.5c3.4,1.8,7,3.1,11.1,3.9c-0.3-0.8-0.6-1.6-0.9-2.4C31.2,97,30.8,96,30.5,95"/>
		<path class="st0" d="M56.8,92.4c-0.2-1.1-0.4-2.2-0.6-3.3c-0.2-1.7-0.5-3.4-0.7-5.1c-0.1-1.8-0.4-3.5-0.5-5.3
			c0-0.8-0.2-1.6-0.2-2.5c-0.1-0.7-0.3-1-0.9-0.7c-1,0.4-2,0.4-3,0.7c-0.4,0.1-1,0.1-1.4,0.2c-1.3,0.4-2.6,0.4-4,0.5
			C44.5,77,43.4,77,42.3,77c-0.2,0-0.4,0.1-0.5,0.4c-0.3,1.2-1.1,2.1-1.8,3c-0.6,0.7-1.1,1.4-1.7,2c-0.8,1.1-1.6,2.3-2.3,3.4
			c-0.6,0.9-1.2,1.7-1.5,2.8c-0.1,0.4-0.2,1-0.4,1.5c-0.2,0.9-0.2,1.8,0.1,2.7c0.1,0.6,0.4,1.2,0.5,1.8c0.3,1.2,0.8,2.3,1.1,3.5
			c0.1,0.1,0.1,0.3,0.2,0.3c0.4,0.1,0.7,0.4,1.2,0.5c0.7,0.3,1.4,0.7,1.8,1.5c0.1,0.3,0.1,0.6,0.1,0.8H39c6.1,0.2,12.2-0.7,18.1-2.7
			c0-1.2-0.1-2.6-0.1-3.9C57,93.8,56.9,93.1,56.8,92.4"/>
		<path class="st0" d="M59.9,0.3C33.4-0.8,7.2,20.9,1.5,48.7c-4,19.2,2.9,36.4,16.2,45.5c-0.1-0.4-0.1-0.8-0.1-1.2
			c-0.2-1.3-0.2-2.6-0.2-4c0-0.4,0.1-0.7,0.2-1c0.3-0.7,0.7-1.2,1-1.8c0.4-0.8,0.9-1.6,1.4-2.3c0.7-1,1.2-2.2,1.7-3.4
			c0.3-0.8,0.4-1.5,0.7-2.3c0.2-1,0.4-1.9,0.3-2.9c-0.1-1-0.1-1.8-0.3-2.8c0,0-0.7-3-0.7-7c-0.5,1-1,2.8-1.5,4.8
			c-1,4.2-1.9,9.7-2.3,11.3c-0.7,3-0.6,3-1.3,3.1c-0.3,0.1-0.6-0.3-0.7-1c-0.4-2.1-4.5-7.4,0.3-19s12-16.1,20.8-17.2
			c8.8-1.1,18.4,0.1,20.3-3.4c1.7-2.9,4-7,5-8.6c0.1-0.2,0-0.7-0.1-1.1c-1.1-3.7,0.6-9,1.2-8.9c0.6,0.1,3.9,4.9,4.2,4.5
			c0.1-0.2,2-0.4,3.8-0.4c1.8,0,3.7,0.2,3.8,0.4c0.2,0.4,3.6-4.4,4.2-4.5c0.6-0.1,2.2,5.3,1.2,8.9c-0.1,0.4-0.1,0.7-0.1,1.1
			c0,0.7,0.1,1.2,0.4,1.8c0.3,0.9,1.5,6.2,0.8,11.5c-0.6,5.3-3.1,8.1-3.3,8.6s-0.2,4.5-2,7.9c0,0.1-0.1,0.3-0.1,0.4
			c-0.2,1.1-0.6,2.2-1,3.2c-0.2,0.5-0.4,1-0.6,1.5c-0.3,0.6-0.6,1.2-1,1.8c-0.7,1.2-1.5,2.2-2.3,3.2c-0.7,0.8-1.4,1.7-1.7,2.8
			c-0.1,0.1-0.1,0.4-0.2,0.4c-0.4,0.4-0.6,1-0.7,1.6c-0.1,0.8-0.3,1.6-0.5,2.4c-0.2,1-0.3,1.9-0.6,2.8c-0.1,0.5-0.1,1-0.2,1.5
			c-0.3,1.1-0.4,2.3-0.5,3.4c-0.1,1.2-0.2,2.4-0.1,3.7C82,85.6,93.9,70.4,97.6,52.6C103.3,24.8,86.4,1.3,59.9,0.3"/>
		<path class="st0" d="M62.2,93.5c0-1.8,0.1-3.7,0.1-5.5c0-1.1,0.2-2.1,0.3-3.2c0.1-1.2,0.3-2.3,0.4-3.6c0.1-0.4,0.3-0.7,0.2-1.1
			c0-0.5,0.1-1,0.3-1.4c0.2-1,0.4-1.9,0.8-2.8c0.1-0.4,0.2-0.7,0.1-1.2c-0.2,0.4-0.4,0.6-0.5,0.9c-0.4,0.7-0.7,1.5-1,2.3
			c-0.3,0.9-0.6,1.7-0.7,2.6c-0.2,1.1-0.4,2.2-0.4,3.3c-0.1,1-0.2,1.8-0.3,2.8c-0.1,1.8-0.2,3.6-0.3,5.3c-0.1,1.7-0.2,3.3,0,5
			c0.3-0.1,0.7-0.3,1-0.4C62,96,62,95.7,62,95.2C62,94.6,62.2,94,62.2,93.5"/>
	</g>
</g>
</svg>
