<?xml version="1.0" encoding="utf-8"?>
<!-- Generator: Adobe Illustrator 25.4.1, SVG Export Plug-In . SVG Version: 6.00 Build 0)  -->
<svg version="1.1" id="Layer_1" xmlns="http://www.w3.org/2000/svg" xmlns:xlink="http://www.w3.org/1999/xlink" x="0px" y="0px"
	 viewBox="0 0 1200 100" style="enable-background:new 0 0 1200 100;" xml:space="preserve">
<style type="text/css">
	.st0{fill:#F59132;}
	.st1{fill:#414042;}
	.st2{fill:#29333A;}
</style>
<g>
	<path class="st2" d="M50.6,72.9c0,17.2-12,25.5-30.5,25.5H0V8h17c19.6,0,30.4,8.1,30.4,22.7c0,10.8-6.3,17.2-16,19.8
		C42.2,52.7,50.6,58.1,50.6,72.9z M10.9,16.8v30h8.7c11,0,16.4-5.5,16.4-15.1c0-10.9-5.9-14.8-18-14.8H10.9z M39.2,72.9
		c0-12.5-6.3-17.6-18.8-17.6h-9.5v34.2h9.2C31.8,89.5,39.2,85.4,39.2,72.9z"/>
	<path class="st2" d="M96.2,28.6l-1.8,10.2c-1.6-0.4-2.9-0.7-4.7-0.7c-7.1,0-11.4,6.3-13.9,19.1v41.1H65V29.3h9.2l0.9,13
		c3.3-9.7,8.4-14.5,15.8-14.5C92.9,27.9,94.6,28.1,96.2,28.6z"/>
	<path class="st2" d="M150.2,98.4H141l-0.7-10.1c-4.2,7.2-9.6,11.7-17.3,11.7c-10,0-16.4-7.6-16.4-18.7v-52h10.6v51
		c0,7.4,2.8,11.3,8.1,11.3c6.4,0,10.8-5.4,14.2-12.2V29.3h10.6V98.4z"/>
	<path class="st2" d="M213.9,47.7v50.7h-10.6V49.1c0-9.5-2.9-12.9-8.1-12.9c-5.7,0-10.4,5.1-14.6,13.3v48.9h-10.6V29.3h9.2l0.9,10.8
		c4.3-7.2,9.3-12.2,17.6-12.2C207.7,27.9,213.9,35.7,213.9,47.7z"/>
	<path class="st2" d="M280.7,63.7c0,22.5-9.6,36.3-25.6,36.3c-16.2,0-25.6-13.4-25.6-36.1c0-23.4,9.6-36,25.8-36
		C271.2,27.9,280.7,39.8,280.7,63.7z M240.7,63.9c0,19.7,5.1,27.5,14.3,27.5c9.2,0,14.3-7.6,14.3-27.6c0-19.7-5.1-27.2-14.2-27.2
		C245.9,36.5,240.7,44,240.7,63.9z"/>
	<path class="st2" d="M384.2,53.2c0,31.8-12.4,46.8-31.5,46.8c-18.9,0-31.5-14.5-31.5-46.6c0-31.7,12.6-46.8,31.5-46.8
		C371.7,6.6,384.2,20.9,384.2,53.2z M332.7,53.4c0,27.9,8,37.5,20,37.5c12.5,0,20-9.6,20-37.6c0-27.7-7.5-37.6-20-37.6
		C340.5,15.6,332.7,25.6,332.7,53.4z"/>
	<path class="st2" d="M410.6,7.2c0,2.2-0.7,4.1-2.1,7.6l-6.8,17.6h-6.3l4.5-18.9c-2-1.4-3.2-3.5-3.2-6c0-4.1,2.6-7.5,7.1-7.5
		C408.1,0,410.6,3.4,410.6,7.2z"/>
	<path class="st2" d="M453.1,63.5v35h-11V63.6L418.2,8h11.7l17.9,45.9L465.6,8h11.3L453.1,63.5z"/>
	<path class="st2" d="M520,92.6l-2.2,7.4c-6-1.2-9.7-3.8-11.2-10.1c-4.1,7-10,10.1-16.7,10.1c-11.6,0-18.5-8.4-18.5-20.9
		c0-14.6,9.2-22.6,26.3-22.6h7.4v-6.6c0-9.5-3.7-13.5-11.3-13.5c-5.1,0-10.1,1.3-15.6,3.5l-2.8-7.5c6.8-3,13.5-4.6,19.7-4.6
		c14.2,0,20.5,8.3,20.5,21.6v34.7C515.5,89.4,517.1,91.2,520,92.6z M505,80.6V63.7h-6.2c-11.3,0-16.4,5-16.4,15
		c0,8.9,3.5,13.1,9.6,13.1C497.7,91.9,501.9,88,505,80.6z"/>
	<path class="st2" d="M564.1,8H604l-1.3,8.9H575v32.2h24v8.8h-24v40.5h-10.9V8z"/>
	<path class="st2" d="M659,63.7c0,22.5-9.6,36.3-25.6,36.3c-16.2,0-25.6-13.4-25.6-36.1c0-23.4,9.6-36,25.8-36
		C649.5,27.9,659,39.8,659,63.7z M619,63.9c0,19.7,5.1,27.5,14.3,27.5c9.2,0,14.3-7.6,14.3-27.6c0-19.7-5.1-27.2-14.2-27.2
		C624.2,36.5,619,44,619,63.9z"/>
	<path class="st2" d="M718.9,47.7v50.7h-10.6V49.1c0-9.5-2.9-12.9-8.1-12.9c-5.7,0-10.4,5.1-14.6,13.3v48.9h-10.6V29.3h9.2l0.9,10.8
		c4.3-7.2,9.3-12.2,17.6-12.2C712.7,27.9,718.9,35.7,718.9,47.7z"/>
	<path class="st2" d="M782.6,1.4v97h-9.5l-0.7-8.9c-3.8,6.4-8.9,10.5-16,10.5c-14.2,0-22.1-13.5-22.1-35.9
		c0-22.2,9.3-36.3,22.6-36.3c7,0,11.7,3.5,15,8.1V0.1L782.6,1.4z M772,81.1V45.6c-3.3-5.4-7.4-9.2-12.9-9.2c-8,0-13.4,8.1-13.4,27.6
		c0,19.2,4.9,27.5,12.7,27.5C764.4,91.5,768.4,87.5,772,81.1z"/>
</g>
<g>
	<g>
		<path class="st2" d="M907,93.8c-0.3-1-0.6-2.1-0.9-3.1c-0.3-1-0.7-2-0.7-3.1c-0.1-0.8,0.1-1.5,0.6-2.1c0.3-0.3,0.6-0.7,0.9-1
			c1.1-1.4,1.3-3.2,1.6-4.9c0.1-0.7,0-1.4,0-2.1c0-0.2,0.1-0.4-0.1-0.4c-0.2,0-0.2,0.1-0.3,0.2c-0.3,0.4-0.6,0.8-1,1.2
			c-0.9,0.9-1.7,1.8-2.6,2.7c-0.7,0.7-1.3,1.4-2.1,2.1c-0.7,0.6-1.3,1.2-1.8,1.9c-0.6,1.1-1.3,2.2-1.9,3.2c-0.6,1.1-1,2.2-1,3.5
			c0,1,0,1.9,0.2,2.9c0,0.2,0.1,0.4,0.2,0.5c3.3,1.8,7,3,10.9,3.8c-0.3-0.8-0.6-1.6-0.9-2.4C907.7,95.8,907.3,94.9,907,93.8"/>
		<path class="st2" d="M933.1,91.2c-0.2-1.1-0.4-2.2-0.6-3.3c-0.2-1.6-0.5-3.3-0.6-5c-0.1-1.8-0.4-3.5-0.5-5.3
			c0-0.8-0.2-1.6-0.3-2.5c0-0.7-0.3-0.9-0.8-0.7c-1,0.4-2,0.5-3,0.7c-0.5,0.1-1,0.1-1.4,0.2c-1.3,0.4-2.6,0.4-3.9,0.5
			c-1.1,0.1-2.2,0.1-3.2,0.1c-0.3,0-0.4,0-0.5,0.4c-0.3,1.2-1.1,2.1-1.8,3c-0.6,0.7-1.1,1.4-1.6,2c-0.8,1.1-1.6,2.2-2.3,3.4
			c-0.6,0.9-1.2,1.7-1.5,2.7c-0.1,0.5-0.2,0.9-0.3,1.4c-0.2,0.9-0.2,1.8,0,2.6c0.2,0.6,0.4,1.2,0.5,1.8c0.3,1.2,0.8,2.3,1.1,3.5
			c0,0.1,0.1,0.3,0.3,0.3c0.4,0.1,0.7,0.4,1.1,0.5c0.7,0.3,1.4,0.7,1.7,1.5c0.1,0.3,0.2,0.6,0.1,0.8c0,0,0,0,0.1,0
			c6.1,0.2,12.1-0.7,17.9-2.7c0-1.3-0.1-2.5-0.1-3.8C933.3,92.7,933.2,92,933.1,91.2"/>
		<path class="st2" d="M936.2,0c-26.3-1.1-52.2,20.5-57.9,48c-3.9,19.1,2.8,36.1,16.1,45.1c0-0.4-0.1-0.8-0.2-1.2
			c-0.2-1.3-0.2-2.6-0.2-4c0-0.4,0.1-0.7,0.2-1c0.3-0.7,0.6-1.2,1-1.8c0.5-0.8,0.9-1.6,1.4-2.3c0.7-1,1.2-2.1,1.6-3.3
			c0.3-0.8,0.5-1.6,0.7-2.3c0.2-0.9,0.4-1.9,0.3-2.8c-0.1-0.9-0.2-1.8-0.3-2.7c0,0-0.6-3-0.6-7c-0.5,1-1,2.8-1.5,4.8
			c-1,4.2-1.9,9.6-2.3,11.2c-0.7,2.9-0.6,2.9-1.3,3.1c-0.3,0-0.5-0.3-0.7-0.9c-0.4-2.1-4.4-7.3,0.3-18.9c4.7-11.6,11.8-16,20.6-17
			c8.8-1.1,18.2,0,20.2-3.4c1.7-2.9,4-6.9,4.9-8.5c0.2-0.2,0-0.7-0.1-1.1c-1.1-3.6,0.6-8.9,1.2-8.8c0.6,0.1,3.9,4.9,4.1,4.5
			c0.1-0.2,1.9-0.5,3.8-0.5c1.8,0,3.6,0.3,3.8,0.5c0.3,0.4,3.5-4.4,4.1-4.5c0.6-0.1,2.2,5.2,1.1,8.8c-0.1,0.4-0.2,0.7-0.2,1.1
			c0,0.7,0.2,1.3,0.4,1.8c0.3,0.9,1.4,6.1,0.8,11.4c-0.6,5.3-3,7.9-3.3,8.5c-0.2,0.6-0.2,4.4-2,7.8c0,0.1-0.1,0.3-0.1,0.4
			c-0.2,1.1-0.6,2.2-1,3.2c-0.2,0.5-0.3,1-0.6,1.5c-0.3,0.6-0.6,1.2-0.9,1.8c-0.6,1.2-1.4,2.2-2.3,3.2c-0.7,0.8-1.4,1.6-1.7,2.8
			c0,0.2-0.1,0.3-0.2,0.4c-0.5,0.4-0.6,1-0.6,1.6c-0.1,0.8-0.3,1.6-0.5,2.4c-0.2,0.9-0.3,1.9-0.6,2.7c-0.1,0.5-0.1,1-0.2,1.5
			c-0.3,1.1-0.4,2.3-0.5,3.4c-0.1,1.2-0.2,2.4-0.2,3.6c15-8.4,26.9-23.5,30.5-41.1C979.2,24.3,962.5,1.1,936.2,0"/>
		<path class="st2" d="M938.4,92.4c0-1.8,0.1-3.6,0.1-5.4c0-1.1,0.2-2.1,0.3-3.2c0.1-1.2,0.3-2.3,0.5-3.5c0-0.4,0.3-0.7,0.2-1.1
			c0-0.5,0.2-0.9,0.3-1.4c0.3-0.9,0.5-1.9,0.8-2.8c0.1-0.3,0.2-0.7,0.2-1.2c-0.2,0.3-0.3,0.6-0.5,0.8c-0.4,0.7-0.7,1.5-1,2.3
			c-0.3,0.8-0.6,1.7-0.8,2.6c-0.2,1.1-0.3,2.2-0.5,3.3c-0.1,0.9-0.2,1.8-0.3,2.8c-0.1,1.8-0.2,3.5-0.3,5.3c-0.1,1.6-0.2,3.3,0,4.9
			c0.3-0.1,0.6-0.3,1-0.4c-0.1-0.4-0.2-0.8-0.2-1.2C938.2,93.5,938.4,93,938.4,92.4"/>
	</g>
	<g>
		<path class="st2" d="M1023.9,27.7c13.9,0,19.4,9.7,19.4,19.7c0,10-7.2,19.7-19.8,19.7h-12.3v22.5h-14.3V27.7H1023.9z M1011.1,54.3
			h10.5c5.3,0,7.5-3.1,7.5-6.9c0-3.8-2-6.9-7.5-6.9h-10.5V54.3z"/>
		<path class="st2" d="M1074.5,90.2c-12.8,0-24.2-6.6-24.2-20.2V46.8c0-13.6,12.6-19.7,24.2-19.7c11.8,0,24.2,6.6,24.2,20.1V70
			C1098.7,83.6,1087.5,90.2,1074.5,90.2z M1065.9,9.8c3.9,0,7,3.1,7,6.9s-3.1,7-7,7c-3.9,0-6.9-3.1-6.9-7S1062,9.8,1065.9,9.8z
			 M1084.4,49.9c0-7.1-5.2-9.7-9.9-9.7c-4.7,0-10,2.6-10,9.7v17.5c0,7.1,5.3,9.7,10,9.7c4.7,0,9.9-2.6,9.9-9.7V49.9z M1083.7,9.8
			c3.9,0,6.9,3.1,6.9,6.9s-3.1,7-6.9,7c-3.9,0-7-3.1-7-7S1079.9,9.8,1083.7,9.8z"/>
		<path class="st2" d="M1121.1,52.7h24.7v12.7h-24.7v24.2h-14.3V27.7h43.2v12.7h-28.9V52.7z"/>
		<path class="st2" d="M1171.1,52.7h24.7v12.7h-24.7v24.2h-14.3V27.7h43.2v12.7h-28.9V52.7z"/>
	</g>
</g>
</svg>
