<?xml version="1.0" encoding="utf-8"?>
<!-- Generator: Adobe Illustrator 25.4.1, SVG Export Plug-In . SVG Version: 6.00 Build 0)  -->
<svg version="1.1" id="Layer_1" xmlns="http://www.w3.org/2000/svg" xmlns:xlink="http://www.w3.org/1999/xlink" x="0px" y="0px"
	 viewBox="0 0 1200 100" style="enable-background:new 0 0 1200 100;" xml:space="preserve">
<style type="text/css">
	.st0{fill:#F59132;}
	.st1{fill:#414042;}
	.st2{fill:#29333A;}
</style>
<g>
	<path class="st2" d="M44,74c0,17.3-10.4,24.7-27.2,24.7H0V7.1h13.6c17.6,0,26.5,8.2,26.5,22.6c0,11.4-6.4,19-17.6,20.5
		C35.1,50.9,44,58.7,44,74z M1.9,8.9v40.5h16.2c12.9,0,19.9-8.5,19.9-19.7c0-13.3-7.9-20.8-24.2-20.8H1.9z M42,74
		c0-14.7-8.6-22.8-23.3-22.8H1.9v45.7h15C32.4,96.9,42,90.5,42,74z"/>
	<path class="st2" d="M83.4,27.6c2.3,0,3.9,0.3,5.2,0.7l-0.3,1.6c-1.4-0.4-2.9-0.7-4.9-0.7c-8.9,0-13.8,6.6-17.4,21.3v48.1h-1.9V29
		h1.7l0.1,17.1C69.3,33.2,74.6,27.6,83.4,27.6L83.4,27.6z"/>
	<path class="st2" d="M141.2,98.7h-1.7l-0.1-14.5c-4.2,9.1-10.6,15.8-19.8,15.8c-10.2,0-16.2-7.3-16.2-19.4V29h1.9v51.6
		c0,11.2,5.3,17.7,14.3,17.7c9,0,15.1-6.9,19.6-16.7V29h1.9V98.7z"/>
	<path class="st2" d="M205.9,47.7v51H204V48c0-11.6-4.1-18.6-13.4-18.6c-9,0-15.8,6.9-21.1,17.8v51.6h-1.9V29h1.7l0.2,15.3
		c5.1-10.2,11.8-16.6,21.3-16.6C201.2,27.6,205.9,35.6,205.9,47.7z"/>
	<path class="st2" d="M272,63.5c0,25-8.8,36.5-22.7,36.5c-14,0-22.6-11.8-22.6-36.1c0-24.9,9.1-36.3,22.8-36.3
		C263.4,27.6,272,38.9,272,63.5z M228.6,63.9c0,23.4,7.8,34.3,20.6,34.3c12.8,0,20.8-10.7,20.8-34.8c0-23.5-7.7-34.1-20.6-34.1
		C236.9,29.4,228.6,39.8,228.6,63.9z"/>
	<path class="st2" d="M380.5,53c0,31.5-10.7,47-29.2,47c-17.7,0-29.2-15.4-29.2-46.8c0-31.7,11.8-47.4,29.2-47.4
		C369.2,5.7,380.5,20.7,380.5,53z M324.2,53.2c0,30.5,10.7,45,27.2,45c17.3,0,27.2-14.5,27.2-45.2c0-31.2-10.5-45.4-27.2-45.4
		C335.2,7.6,324.2,22.3,324.2,53.2z"/>
	<path class="st2" d="M404.3,4.3c0,0.6-0.2,1.3-0.7,2.7l-5.1,15.4h-1.3l4.6-16.3c-0.9-0.3-1.3-1-1.3-1.8c0-1.2,0.7-2.1,2-2.1
		C403.6,2.2,404.3,3,404.3,4.3z"/>
	<path class="st2" d="M444.2,62.3v36.4h-1.9V62.4L418.4,7.1h2.1l22.8,53.4l22.4-53.4h2L444.2,62.3z"/>
	<path class="st2" d="M510.5,98.6L510,100c-4.8-1.8-6.5-5.5-6.6-13.8c-4.1,9-9.8,13.8-18.3,13.8c-11.2,0-17.4-8.6-17.4-20.7
		c0-13.9,8.7-21.8,23.7-21.8h11.9v-9.3c0-11.8-3.9-18.9-14.5-18.9c-5.3,0-10.5,1.5-16.3,4.3l-0.6-1.5c5.9-3,11.3-4.6,17-4.6
		c11.6,0,16.4,7.7,16.4,20.5v37C505.1,93.4,506.3,96.9,510.5,98.6z M503.2,83.3V59.2h-11.8c-14.2,0-21.8,7-21.8,20
		c0,11.6,5.6,19,15.5,19C493.8,98.2,499.3,92.8,503.2,83.3z"/>
	<path class="st2" d="M565.2,7.1h34.4l-0.2,1.8h-32.2v42.4H595v1.8h-27.8v45.6h-1.9V7.1z"/>
	<path class="st2" d="M652.4,63.5c0,25-8.8,36.5-22.7,36.5c-14,0-22.6-11.8-22.6-36.1c0-24.9,9.1-36.3,22.8-36.3
		C643.8,27.6,652.4,38.9,652.4,63.5z M609,63.9c0,23.4,7.8,34.3,20.6,34.3c12.8,0,20.8-10.7,20.8-34.8c0-23.5-7.7-34.1-20.6-34.1
		C617.3,29.4,609,39.8,609,63.9z"/>
	<path class="st2" d="M712.1,47.7v51h-1.9V48c0-11.6-4.1-18.6-13.4-18.6c-9,0-15.8,6.9-21.1,17.8v51.6h-1.9V29h1.7l0.2,15.3
		c5.1-10.2,11.8-16.6,21.3-16.6C707.4,27.6,712.1,35.6,712.1,47.7z"/>
	<path class="st2" d="M774.3,0.2v98.5h-1.7l-0.2-12.4c-3.5,7.6-8.8,13.7-18.2,13.7c-13,0-21.3-12.3-21.3-35.9
		c0-22.5,8.3-36.5,22.2-36.5c8.9,0,14.3,6.1,17.3,12V0L774.3,0.2z M772.4,83.2V42.5c-3.1-6.7-8.5-13.1-17.3-13.1
		c-12.5,0-20.3,12.7-20.2,34.7c0.1,22.6,7.5,34.2,19.3,34.2C763.3,98.2,768.5,92.2,772.4,83.2z"/>
</g>
<g>
	<g>
		<path class="st2" d="M907,93.8c-0.3-1-0.6-2.1-0.9-3.1c-0.3-1-0.7-2-0.7-3.1c-0.1-0.8,0.1-1.5,0.6-2.1c0.3-0.3,0.6-0.7,0.9-1
			c1.1-1.4,1.3-3.2,1.6-4.9c0.1-0.7,0-1.4,0-2.1c0-0.2,0.1-0.4-0.1-0.4c-0.2,0-0.2,0.1-0.3,0.2c-0.3,0.4-0.6,0.8-1,1.2
			c-0.9,0.9-1.7,1.8-2.6,2.7c-0.7,0.7-1.3,1.4-2.1,2.1c-0.7,0.6-1.3,1.2-1.8,1.9c-0.6,1.1-1.3,2.2-1.9,3.2c-0.6,1.1-1,2.2-1,3.5
			c0,1,0,1.9,0.2,2.9c0,0.2,0.1,0.4,0.2,0.5c3.3,1.8,7,3,10.9,3.8c-0.3-0.8-0.6-1.6-0.9-2.4C907.7,95.8,907.3,94.9,907,93.8"/>
		<path class="st2" d="M933.1,91.2c-0.2-1.1-0.4-2.2-0.6-3.3c-0.2-1.6-0.5-3.3-0.6-5c-0.1-1.8-0.4-3.5-0.5-5.3
			c0-0.8-0.2-1.6-0.3-2.5c0-0.7-0.3-0.9-0.8-0.7c-1,0.4-2,0.5-3,0.7c-0.5,0.1-1,0.1-1.4,0.2c-1.3,0.4-2.6,0.4-3.9,0.5
			c-1.1,0.1-2.2,0.1-3.2,0.1c-0.3,0-0.4,0-0.5,0.4c-0.3,1.2-1.1,2.1-1.8,3c-0.6,0.7-1.1,1.4-1.6,2c-0.8,1.1-1.6,2.2-2.3,3.4
			c-0.6,0.9-1.2,1.7-1.5,2.7c-0.1,0.5-0.2,0.9-0.3,1.4c-0.2,0.9-0.2,1.8,0,2.6c0.2,0.6,0.4,1.2,0.5,1.8c0.3,1.2,0.8,2.3,1.1,3.5
			c0,0.1,0.1,0.3,0.3,0.3c0.4,0.1,0.7,0.4,1.1,0.5c0.7,0.3,1.4,0.7,1.7,1.5c0.1,0.3,0.2,0.6,0.1,0.8c0,0,0,0,0.1,0
			c6.1,0.2,12.1-0.7,17.9-2.7c0-1.3-0.1-2.5-0.1-3.8C933.3,92.7,933.2,92,933.1,91.2"/>
		<path class="st2" d="M936.2,0c-26.3-1.1-52.2,20.5-57.9,48c-3.9,19.1,2.8,36.1,16.1,45.1c0-0.4-0.1-0.8-0.2-1.2
			c-0.2-1.3-0.2-2.6-0.2-4c0-0.4,0.1-0.7,0.2-1c0.3-0.7,0.6-1.2,1-1.8c0.5-0.8,0.9-1.6,1.4-2.3c0.7-1,1.2-2.1,1.6-3.3
			c0.3-0.8,0.5-1.6,0.7-2.3c0.2-0.9,0.4-1.9,0.3-2.8c-0.1-0.9-0.2-1.8-0.3-2.7c0,0-0.6-3-0.6-7c-0.5,1-1,2.8-1.5,4.8
			c-1,4.2-1.9,9.6-2.3,11.2c-0.7,2.9-0.6,2.9-1.3,3.1c-0.3,0-0.5-0.3-0.7-0.9c-0.4-2.1-4.4-7.3,0.3-18.9c4.7-11.6,11.8-16,20.6-17
			c8.8-1.1,18.2,0,20.2-3.4c1.7-2.9,4-6.9,4.9-8.5c0.2-0.2,0-0.7-0.1-1.1c-1.1-3.6,0.6-8.9,1.2-8.8c0.6,0.1,3.9,4.9,4.1,4.5
			c0.1-0.2,1.9-0.5,3.8-0.5c1.8,0,3.6,0.3,3.8,0.5c0.3,0.4,3.5-4.4,4.1-4.5c0.6-0.1,2.2,5.2,1.1,8.8c-0.1,0.4-0.2,0.7-0.2,1.1
			c0,0.7,0.2,1.3,0.4,1.8c0.3,0.9,1.4,6.1,0.8,11.4c-0.6,5.3-3,7.9-3.3,8.5c-0.2,0.6-0.2,4.4-2,7.8c0,0.1-0.1,0.3-0.1,0.4
			c-0.2,1.1-0.6,2.2-1,3.2c-0.2,0.5-0.3,1-0.6,1.5c-0.3,0.6-0.6,1.2-0.9,1.8c-0.6,1.2-1.4,2.2-2.3,3.2c-0.7,0.8-1.4,1.6-1.7,2.8
			c0,0.2-0.1,0.3-0.2,0.4c-0.5,0.4-0.6,1-0.6,1.6c-0.1,0.8-0.3,1.6-0.5,2.4c-0.2,0.9-0.3,1.9-0.6,2.7c-0.1,0.5-0.1,1-0.2,1.5
			c-0.3,1.1-0.4,2.3-0.5,3.4c-0.1,1.2-0.2,2.4-0.2,3.6c15-8.4,26.9-23.5,30.5-41.1C979.2,24.3,962.5,1.1,936.2,0"/>
		<path class="st2" d="M938.4,92.4c0-1.8,0.1-3.6,0.1-5.4c0-1.1,0.2-2.1,0.3-3.2c0.1-1.2,0.3-2.3,0.5-3.5c0-0.4,0.3-0.7,0.2-1.1
			c0-0.5,0.2-0.9,0.3-1.4c0.3-0.9,0.5-1.9,0.8-2.8c0.1-0.3,0.2-0.7,0.2-1.2c-0.2,0.3-0.3,0.6-0.5,0.8c-0.4,0.7-0.7,1.5-1,2.3
			c-0.3,0.8-0.6,1.7-0.8,2.6c-0.2,1.1-0.3,2.2-0.5,3.3c-0.1,0.9-0.2,1.8-0.3,2.8c-0.1,1.8-0.2,3.5-0.3,5.3c-0.1,1.6-0.2,3.3,0,4.9
			c0.3-0.1,0.6-0.3,1-0.4c-0.1-0.4-0.2-0.8-0.2-1.2C938.2,93.5,938.4,93,938.4,92.4"/>
	</g>
	<g>
		<path class="st2" d="M1023.9,27.7c13.9,0,19.4,9.7,19.4,19.7c0,10-7.2,19.7-19.8,19.7h-12.3v22.5h-14.3V27.7H1023.9z M1011.1,54.3
			h10.5c5.3,0,7.5-3.1,7.5-6.9c0-3.8-2-6.9-7.5-6.9h-10.5V54.3z"/>
		<path class="st2" d="M1074.5,90.2c-12.8,0-24.2-6.6-24.2-20.2V46.8c0-13.6,12.6-19.7,24.2-19.7c11.8,0,24.2,6.6,24.2,20.1V70
			C1098.7,83.6,1087.5,90.2,1074.5,90.2z M1065.9,9.8c3.9,0,7,3.1,7,6.9s-3.1,7-7,7c-3.9,0-6.9-3.1-6.9-7S1062,9.8,1065.9,9.8z
			 M1084.4,49.9c0-7.1-5.2-9.7-9.9-9.7c-4.7,0-10,2.6-10,9.7v17.5c0,7.1,5.3,9.7,10,9.7c4.7,0,9.9-2.6,9.9-9.7V49.9z M1083.7,9.8
			c3.9,0,6.9,3.1,6.9,6.9s-3.1,7-6.9,7c-3.9,0-7-3.1-7-7S1079.9,9.8,1083.7,9.8z"/>
		<path class="st2" d="M1121.1,52.7h24.7v12.7h-24.7v24.2h-14.3V27.7h43.2v12.7h-28.9V52.7z"/>
		<path class="st2" d="M1171.1,52.7h24.7v12.7h-24.7v24.2h-14.3V27.7h43.2v12.7h-28.9V52.7z"/>
	</g>
</g>
</svg>
