<?xml version="1.0" encoding="utf-8"?>
<!-- Generator: Adobe Illustrator 25.4.1, SVG Export Plug-In . SVG Version: 6.00 Build 0)  -->
<svg version="1.1" id="Layer_1" xmlns="http://www.w3.org/2000/svg" xmlns:xlink="http://www.w3.org/1999/xlink" x="0px" y="0px"
	 viewBox="0 0 1200 100" style="enable-background:new 0 0 1200 100;" xml:space="preserve">
<style type="text/css">
	.st0{fill:#F59132;}
	.st1{fill:#414042;}
	.st2{fill:#29333A;}
</style>
<g>
	<path class="st2" d="M45.8,73.8c0,15.9-9.7,24.8-26.3,24.8H0V7.6h15.5c17.1,0,26.7,8.1,26.7,22.6c0,11.5-5.5,17.9-15.6,20.2
		C37.6,51.7,45.8,58.1,45.8,73.8z M4.7,11.7v36.7H19c12.1,0,18.4-7.3,18.4-18.2c0-12.1-7.5-18.6-21.4-18.6H4.7z M41,73.8
		c0-14.6-7.6-21.2-21.5-21.2H4.7v41.8h15C33.1,94.4,41,87.7,41,73.8z"/>
	<path class="st2" d="M90.8,28.6l-0.9,4c-1.5-0.4-2.9-0.7-4.8-0.7c-8.4,0-12.8,7.5-16.2,21.2v45.5h-4.5V29.2h3.9l0.3,14.3
		c3.3-10.4,8.5-15.8,16.8-15.8C87.7,27.8,89.4,28.2,90.8,28.6z"/>
	<path class="st2" d="M143.5,98.7h-4L139.2,86c-3.6,7.5-9.7,14-18.7,14c-10.3,0-16.6-7.2-16.6-19.4V29.2h4.5v51.1
		c0,10.4,4.7,15.5,12.1,15.5c8.4,0,13.9-6.5,18.3-15.8V29.2h4.5V98.7z"/>
	<path class="st2" d="M208,47.9v50.7h-4.5V48.5c0-10.9-4-16.7-11.6-16.7c-8,0-14.3,6.7-19.4,16.4v50.5h-4.5V29.2h3.9l0.5,12.8
		c4.8-8.4,10.9-14.3,20-14.3C202.7,27.8,208,35.6,208,47.9z"/>
	<path class="st2" d="M273.8,63.7c0,24.2-9.1,36.3-23.5,36.3c-14.6,0-23.5-12.4-23.5-35.9c0-24.2,9.3-36.3,23.6-36.3
		C265,27.8,273.8,39.3,273.8,63.7z M231.6,64.1c0,21.8,6.9,31.8,18.7,31.8c11.6,0,18.8-9.9,18.8-32.2c0-22-6.9-31.8-18.7-31.8
		C239,31.9,231.6,41.5,231.6,64.1z"/>
	<path class="st2" d="M380.4,53.3c0,31-11.6,46.7-30,46.7c-17.8,0-29.9-15.4-29.9-46.6c0-31.8,12.3-47.3,29.9-47.3
		C368.2,6.1,380.4,20.8,380.4,53.3z M325.2,53.4c0,29.2,10.4,42.3,25.1,42.3c15.6,0,25.1-13.1,25.1-42.5c0-30-9.9-42.7-25.1-42.7
		C335.5,10.5,325.2,23.5,325.2,53.4z"/>
	<path class="st2" d="M404.8,4.9c0,1.1-0.4,2.3-1.5,4.9l-5.6,14.8h-3.1L399,8.4c-1.5-0.7-2.1-2-2.1-3.5c0-2.3,1.3-4.1,4-4.1
		C403.4,0.8,404.8,2.7,404.8,4.9z"/>
	<path class="st2" d="M444.8,62.6v36H440V62.8L416.3,7.6h5.1l21.2,50.7l20.8-50.7h4.8L444.8,62.6z"/>
	<path class="st2" d="M510.9,96.8l-1.1,3.2c-5.1-1.6-7.5-4.9-7.7-11.9C498,96,492.2,100,484.2,100c-11.1,0-17.6-8.3-17.6-20.6
		c0-14.4,9.1-22.2,24.2-22.2h10.8v-9.1c0-10.5-3.6-16.4-13.2-16.4c-5.5,0-10.5,1.5-16,4l-1.6-3.3c5.9-2.9,11.5-4.7,17.9-4.7
		c12,0,17.5,7.3,17.5,20v38.6C506.1,92.7,507.6,95.3,510.9,96.8z M501.6,82.1v-21h-10.4c-13.2,0-19.8,6-19.8,18.3
		c0,10.8,5.1,16.6,13.1,16.6C492.5,96,498.1,90.7,501.6,82.1z"/>
	<path class="st2" d="M562.3,7.6h36l-0.5,4.3H567v38.7h26.6v4.1H567v43.9h-4.7V7.6z"/>
	<path class="st2" d="M651.2,63.7c0,24.2-9.1,36.3-23.5,36.3c-14.6,0-23.5-12.4-23.5-35.9c0-24.2,9.3-36.3,23.6-36.3
		C642.4,27.8,651.2,39.3,651.2,63.7z M609,64.1c0,21.8,6.9,31.8,18.7,31.8c11.6,0,18.8-9.9,18.8-32.2c0-22-6.9-31.8-18.7-31.8
		C616.4,31.9,609,41.5,609,64.1z"/>
	<path class="st2" d="M711,47.9v50.7h-4.5V48.5c0-10.9-4-16.7-11.6-16.7c-8,0-14.3,6.7-19.4,16.4v50.5H671V29.2h3.9l0.5,12.8
		c4.8-8.4,10.9-14.3,20-14.3C705.7,27.8,711,35.6,711,47.9z"/>
	<path class="st2" d="M773.3,0.7v98h-4.1l-0.4-10.8c-3.3,6.7-8.5,12.1-17.2,12.1c-13.2,0-21.6-12.7-21.6-35.8
		c0-22.4,8.8-36.4,22.6-36.4c8.1,0,13.2,4.9,16.3,9.9V0L773.3,0.7z M768.7,81.2V43.7c-3.3-6.3-8.3-11.7-16-11.7
		c-10.7,0-18,10.8-18,32.3c0.1,21.1,6.5,31.6,17,31.6C759.8,95.9,764.8,90.5,768.7,81.2z"/>
</g>
<g>
	<g>
		<path class="st2" d="M907,93.8c-0.3-1-0.6-2.1-0.9-3.1c-0.3-1-0.7-2-0.7-3.1c-0.1-0.8,0.1-1.5,0.6-2.1c0.3-0.3,0.6-0.7,0.9-1
			c1.1-1.4,1.3-3.2,1.6-4.9c0.1-0.7,0-1.4,0-2.1c0-0.2,0.1-0.4-0.1-0.4c-0.2,0-0.2,0.1-0.3,0.2c-0.3,0.4-0.6,0.8-1,1.2
			c-0.9,0.9-1.7,1.8-2.6,2.7c-0.7,0.7-1.3,1.4-2.1,2.1c-0.7,0.6-1.3,1.2-1.8,1.9c-0.6,1.1-1.3,2.2-1.9,3.2c-0.6,1.1-1,2.2-1,3.5
			c0,1,0,1.9,0.2,2.9c0,0.2,0.1,0.4,0.2,0.5c3.3,1.8,7,3,10.9,3.8c-0.3-0.8-0.6-1.6-0.9-2.4C907.7,95.8,907.3,94.9,907,93.8"/>
		<path class="st2" d="M933.1,91.2c-0.2-1.1-0.4-2.2-0.6-3.3c-0.2-1.6-0.5-3.3-0.6-5c-0.1-1.8-0.4-3.5-0.5-5.3
			c0-0.8-0.2-1.6-0.3-2.5c0-0.7-0.3-0.9-0.8-0.7c-1,0.4-2,0.5-3,0.7c-0.5,0.1-1,0.1-1.4,0.2c-1.3,0.4-2.6,0.4-3.9,0.5
			c-1.1,0.1-2.2,0.1-3.2,0.1c-0.3,0-0.4,0-0.5,0.4c-0.3,1.2-1.1,2.1-1.8,3c-0.6,0.7-1.1,1.4-1.6,2c-0.8,1.1-1.6,2.2-2.3,3.4
			c-0.6,0.9-1.2,1.7-1.5,2.7c-0.1,0.5-0.2,0.9-0.3,1.4c-0.2,0.9-0.2,1.8,0,2.6c0.2,0.6,0.4,1.2,0.5,1.8c0.3,1.2,0.8,2.3,1.1,3.5
			c0,0.1,0.1,0.3,0.3,0.3c0.4,0.1,0.7,0.4,1.1,0.5c0.7,0.3,1.4,0.7,1.7,1.5c0.1,0.3,0.2,0.6,0.1,0.8c0,0,0,0,0.1,0
			c6.1,0.2,12.1-0.7,17.9-2.7c0-1.3-0.1-2.5-0.1-3.8C933.3,92.7,933.2,92,933.1,91.2"/>
		<path class="st2" d="M936.2,0c-26.3-1.1-52.2,20.5-57.9,48c-3.9,19.1,2.8,36.1,16.1,45.1c0-0.4-0.1-0.8-0.2-1.2
			c-0.2-1.3-0.2-2.6-0.2-4c0-0.4,0.1-0.7,0.2-1c0.3-0.7,0.6-1.2,1-1.8c0.5-0.8,0.9-1.6,1.4-2.3c0.7-1,1.2-2.1,1.6-3.3
			c0.3-0.8,0.5-1.6,0.7-2.3c0.2-0.9,0.4-1.9,0.3-2.8c-0.1-0.9-0.2-1.8-0.3-2.7c0,0-0.6-3-0.6-7c-0.5,1-1,2.8-1.5,4.8
			c-1,4.2-1.9,9.6-2.3,11.2c-0.7,2.9-0.6,2.9-1.3,3.1c-0.3,0-0.5-0.3-0.7-0.9c-0.4-2.1-4.4-7.3,0.3-18.9c4.7-11.6,11.8-16,20.6-17
			c8.8-1.1,18.2,0,20.2-3.4c1.7-2.9,4-6.9,4.9-8.5c0.2-0.2,0-0.7-0.1-1.1c-1.1-3.6,0.6-8.9,1.2-8.8c0.6,0.1,3.9,4.9,4.1,4.5
			c0.1-0.2,1.9-0.5,3.8-0.5c1.8,0,3.6,0.3,3.8,0.5c0.3,0.4,3.5-4.4,4.1-4.5c0.6-0.1,2.2,5.2,1.1,8.8c-0.1,0.4-0.2,0.7-0.2,1.1
			c0,0.7,0.2,1.3,0.4,1.8c0.3,0.9,1.4,6.1,0.8,11.4c-0.6,5.3-3,7.9-3.3,8.5c-0.2,0.6-0.2,4.4-2,7.8c0,0.1-0.1,0.3-0.1,0.4
			c-0.2,1.1-0.6,2.2-1,3.2c-0.2,0.5-0.3,1-0.6,1.5c-0.3,0.6-0.6,1.2-0.9,1.8c-0.6,1.2-1.4,2.2-2.3,3.2c-0.7,0.8-1.4,1.6-1.7,2.8
			c0,0.2-0.1,0.3-0.2,0.4c-0.5,0.4-0.6,1-0.6,1.6c-0.1,0.8-0.3,1.6-0.5,2.4c-0.2,0.9-0.3,1.9-0.6,2.7c-0.1,0.5-0.1,1-0.2,1.5
			c-0.3,1.1-0.4,2.3-0.5,3.4c-0.1,1.2-0.2,2.4-0.2,3.6c15-8.4,26.9-23.5,30.5-41.1C979.2,24.3,962.5,1.1,936.2,0"/>
		<path class="st2" d="M938.4,92.4c0-1.8,0.1-3.6,0.1-5.4c0-1.1,0.2-2.1,0.3-3.2c0.1-1.2,0.3-2.3,0.5-3.5c0-0.4,0.3-0.7,0.2-1.1
			c0-0.5,0.2-0.9,0.3-1.4c0.3-0.9,0.5-1.9,0.8-2.8c0.1-0.3,0.2-0.7,0.2-1.2c-0.2,0.3-0.3,0.6-0.5,0.8c-0.4,0.7-0.7,1.5-1,2.3
			c-0.3,0.8-0.6,1.7-0.8,2.6c-0.2,1.1-0.3,2.2-0.5,3.3c-0.1,0.9-0.2,1.8-0.3,2.8c-0.1,1.8-0.2,3.5-0.3,5.3c-0.1,1.6-0.2,3.3,0,4.9
			c0.3-0.1,0.6-0.3,1-0.4c-0.1-0.4-0.2-0.8-0.2-1.2C938.2,93.5,938.4,93,938.4,92.4"/>
	</g>
	<g>
		<path class="st2" d="M1023.9,27.7c13.9,0,19.4,9.7,19.4,19.7c0,10-7.2,19.7-19.8,19.7h-12.3v22.5h-14.3V27.7H1023.9z M1011.1,54.3
			h10.5c5.3,0,7.5-3.1,7.5-6.9c0-3.8-2-6.9-7.5-6.9h-10.5V54.3z"/>
		<path class="st2" d="M1074.5,90.2c-12.8,0-24.2-6.6-24.2-20.2V46.8c0-13.6,12.6-19.7,24.2-19.7c11.8,0,24.2,6.6,24.2,20.1V70
			C1098.7,83.6,1087.5,90.2,1074.5,90.2z M1065.9,9.8c3.9,0,7,3.1,7,6.9s-3.1,7-7,7c-3.9,0-6.9-3.1-6.9-7S1062,9.8,1065.9,9.8z
			 M1084.4,49.9c0-7.1-5.2-9.7-9.9-9.7c-4.7,0-10,2.6-10,9.7v17.5c0,7.1,5.3,9.7,10,9.7c4.7,0,9.9-2.6,9.9-9.7V49.9z M1083.7,9.8
			c3.9,0,6.9,3.1,6.9,6.9s-3.1,7-6.9,7c-3.9,0-7-3.1-7-7S1079.9,9.8,1083.7,9.8z"/>
		<path class="st2" d="M1121.1,52.7h24.7v12.7h-24.7v24.2h-14.3V27.7h43.2v12.7h-28.9V52.7z"/>
		<path class="st2" d="M1171.1,52.7h24.7v12.7h-24.7v24.2h-14.3V27.7h43.2v12.7h-28.9V52.7z"/>
	</g>
</g>
</svg>
