<svg version="1.1" id="Layer_1" xmlns="http://www.w3.org/2000/svg" xmlns:xlink="http://www.w3.org/1999/xlink" x="0px" y="0px"
	 viewBox="0 0 24 24" fill="currentColor" stroke="currentColor" stroke-width="0" style="enable-background:new 0 0 24 24;" xml:space="preserve">
<path d="M3.6,18.9c-0.1,0-0.1-0.1-0.2-0.2v-0.5c-0.2,0.1-0.3,0.1-0.5,0.1c-0.4,0.1-0.9,0-1.2-0.1C1.2,18,1,17.6,1,17.2
	c0-0.2,0-0.5,0.2-0.6c0.4-0.3,0.4-0.7,0.4-1.2c0-0.2-0.1-0.4-0.1-0.6s0-0.4,0.1-0.6c0-0.2,0.2-0.4,0.3-0.7c0-0.1,0.1-0.2,0.1-0.3
	c-0.3-0.5-0.5-1.1-0.7-1.7c-0.1-0.4-0.2-0.9-0.3-1.2C1,10,1,9.8,1,9.4s0.1-0.9,0.3-1.2c-0.1-0.3,0-0.4,0-0.5
	C1.2,7.5,1.2,7.4,1.2,7.3c0.3-0.2,0.6-0.4,0.9-0.6C2.4,6.5,2.6,6.3,2.8,6c0.4-0.3,1-0.6,1.4-0.9C4.5,5.1,4.7,5,5,5
	c0.3-0.1,0.7-0.2,1.1-0.3c0.4-0.1,1-0.2,1.4-0.3c0.2,0,0.5-0.1,0.7-0.1c0.5,0,1,0,1.5,0c0.3,0,0.6,0,1.1,0.1c0.4,0,0.7,0.1,1.1,0.2
	c0.6,0,1.2,0.2,1.8,0.4c0.4,0.2,0.9,0.3,1.3,0.6c0.5,0.3,1.1,0.6,1.6,1.1c0.1,0,0.1,0.1,0.2,0.1c0-0.1,0-0.2,0-0.3
	c-0.1-0.2-0.1-0.2,0-0.4c0.3,0,0.6,0.1,1,0.1c0.1,0,0.3,0.1,0.4,0.2c0.4,0.2,0.6,0.6,0.6,1.1c0,0.2,0,0.5-0.1,0.7c0,0.1,0,0.2,0,0.3
	s0,0.2,0,0.3v2.3c0,0.5,0.1,1,0.4,1.5c0,0,0,0.1,0.1,0.1c0.2,0,0.3-0.2,0.6-0.2c0.2,0.2,0.1,0.4,0.1,0.6c0,0.2,0,0.4,0,0.5
	c0.3,0.1,0.6,0.1,1-0.1c0.5-0.3,0.9-0.9,1-1.4c0.1-0.4,0.4-0.5,0.9-0.4h0.1C23,12,23,12.2,23,12.4c0,0.4-0.2,0.9-0.4,1.2
	c-0.3,0.6-0.6,1.2-1,1.7c-0.3,0.4-0.5,0.7-1,1.1c-0.2,0.2-0.4,0.5-0.4,0.9s-0.2,0.5-0.6,0.5c-0.1,0-0.2,0-0.2,0
	c-0.2,0-0.4,0.1-0.5,0.2c-0.3,0.2-0.6,0.2-1,0.2c-0.2,0-0.4-0.1-0.5-0.2c-0.1-0.2-0.2-0.3-0.3-0.5c-1-0.9-1.9-1.8-2.3-3.1
	c-0.2,0.2-0.2,0.4-0.2,0.5c-0.1,0.6,0.1,1.3,0.3,1.8c0.1,0.2,0.2,0.5,0.3,0.7s0.3,0.4,0.5,0.5s0.3,0.2,0.4,0.4c0,0.1,0,0.2,0,0.2
	c0,0.4-0.2,0.5-0.5,0.7c-0.4,0.2-0.9,0.4-1.4,0.4c-0.2,0-0.3,0-0.5,0c-0.3,0-0.5-0.2-0.5-0.4c0,0,0-0.1-0.1-0.2
	c-0.2,0-0.5-0.1-0.9-0.1s-0.9-0.1-1.2-0.3c-0.1-0.1-0.2-0.2-0.3-0.3c0-0.4,0.1-0.7,0.3-1.1c0-0.1,0.1-0.1,0.1-0.1
	c0.2-0.2,0.2-0.5,0.2-0.7c0-0.3,0-0.6,0-1c0-0.2-0.1-0.4-0.1-0.6c-0.1-0.2-0.2-0.4-0.5-0.5c-2,0.5-3.8,0.3-5.6-0.9
	c-0.1,0-0.2,0.1-0.2,0.1c-0.1,0.1-0.1,0.1-0.2,0.2c0.3,1.1,0.6,2.1,1,3.2c0.2,0,0.3,0.2,0.5,0.3c0.3,0.4-0.2,1.1-0.7,1.2
	c-0.3,0-0.7,0-1.2,0.1C4.1,19.1,3.8,19.1,3.6,18.9L3.6,18.9L3.6,18.9z"/>
</svg>
