<?xml version="1.0" encoding="utf-8"?>
<!-- Generator: Adobe Illustrator 27.2.0, SVG Export Plug-In . SVG Version: 6.00 Build 0)  -->
<svg version="1.1" id="Layer_1" xmlns="http://www.w3.org/2000/svg" xmlns:xlink="http://www.w3.org/1999/xlink" x="0px" y="0px"
	 viewBox="0 0 600 600" style="enable-background:new 0 0 600 600;" xml:space="preserve">
<style type="text/css">
	.st0{fill:none;}
	.st1{fill:#55C3BE;}
</style>
<polygon class="st0" points="25,171 29,171 29,171 "/>
<polygon class="st0" points="645,171 649,171 649,171 "/>
<g>
	<path class="st1" d="M269.2,269.2c-17.4,17.4-17.4,44.8,0,61c17.4,17.4,44.8,16.2,61,0c17.4-17.4,17.4-44.8,0-61
		C314.1,253,285.4,253,269.2,269.2z"/>
	<path class="st1" d="M519.5,65C410-38.4,223.2-16,103.6,114.8S-24.7,438.6,86.2,539.4s295.1,72.2,413.4-59.8
		C611.7,353.9,625.4,165.8,519.5,65z M376.3,376.3c-42.3,42.3-110.8,42.3-153.2,0s-42.3-110.8,0-153.2s110.8-42.3,153.2,0
		S418.7,334,376.3,376.3z"/>
</g>
</svg>
