<svg viewBox="0 0 24 24" width="24" height="24" stroke="currentColor" stroke-width="1,5" fill="none" stroke-linecap="round" stroke-linejoin="round" class="svg_icon_footer">


	<path class="st0" d="M10.5,16.5c1.5-0.8,3.3-0.3,4.2,1.1c0.2,0.3,0.3,0.6,0.3,0.9c-2,0.9-4.2,0.9-6,0C9.2,17.6,9.7,16.9,10.5,16.5z
		"/>
	<path class="st0" d="M8.5,14c0.7,1.3,0.5,2.9-0.6,3.8c-0.8-0.6-1.5-1.3-2.1-2.3c-0.5-0.9-0.8-1.9-0.9-2.9C6.3,12.2,7.8,12.7,8.5,14
		z"/>
	<path class="st0" d="M13.7,11c0.5,0.9,0.2,2.1-0.7,2.7c-0.9,0.5-2.1,0.2-2.7-0.7c-0.5-0.9-0.2-2.1,0.7-2.6
		C12,9.8,13.1,10.1,13.7,11z"/>
	<path class="st0" d="M4.9,11.4c0.2-2,1.2-4,3-5.2c0.2,0.2,0.4,0.4,0.6,0.7c0.8,1.5,0.3,3.4-1.1,4.2C6.6,11.6,5.7,11.6,4.9,11.4z"/>
	<path class="st0" d="M15,18.4c0.3,1.3-0.3,2.6-1.5,3.3c-1.5,0.8-3.4,0.3-4.2-1.1C8.9,20,8.8,19.2,9,18.5C10.8,19.3,13,19.4,15,18.4
		z"/>
	<path class="st0" d="M4.3,5.8C5.5,5.1,7,5.3,7.9,6.2c-1.8,1.2-2.8,3.2-3,5.2c-0.7-0.2-1.3-0.7-1.7-1.4C2.3,8.5,2.8,6.6,4.3,5.8z"/>
	<path class="st1" d="M13,13.7c0.9-0.5,1.2-1.7,0.7-2.7c-0.5-0.9-1.7-1.2-2.6-0.7c-0.9,0.5-1.2,1.7-0.7,2.6
		C10.9,13.9,12,14.2,13,13.7z M21.5,6.5c-3-5.3-9.8-7.1-15-4c-5.3,3-7.1,9.8-4,15s9.8,7.1,15,4C22.8,18.5,24.6,11.8,21.5,6.5z
		 M16.1,17.8c1,0.9,2.4,1.1,3.6,0.4c1.5-0.8,2-2.7,1.1-4.2c-0.4-0.7-1-1.2-1.7-1.4c-0.8-0.3-1.7-0.2-2.5,0.3c-1.5,0.9-2,2.7-1.1,4.2
		C15.7,17.4,15.9,17.6,16.1,17.8z M9,18.5c0.2-0.8,0.7-1.5,1.5-2c1.5-0.8,3.3-0.3,4.2,1.1c0.2,0.3,0.3,0.6,0.3,0.9
		c0.3,1.3-0.3,2.6-1.5,3.3c-1.5,0.8-3.4,0.3-4.2-1.1C8.9,20,8.8,19.2,9,18.5z M4.9,11.4c0.8,0.3,1.7,0.2,2.5-0.3
		c1.5-0.8,2-2.7,1.1-4.2C8.3,6.6,8.1,6.4,7.9,6.2C7,5.3,5.5,5.1,4.3,5.8c-1.5,0.9-2,2.7-1.1,4.2C3.6,10.7,4.2,11.1,4.9,11.4z
		 M4.9,12.6c-0.2,0.1-0.4,0.2-0.6,0.3c-1.5,0.9-2,2.7-1.1,4.2c0.8,1.5,2.7,2,4.2,1.1c0.2-0.1,0.4-0.2,0.5-0.4c1-0.9,1.3-2.5,0.6-3.8
		C7.8,12.7,6.3,12.2,4.9,12.6z M16.1,6.2c-1,1-1.3,2.5-0.6,3.8c0.7,1.3,2.2,1.8,3.6,1.4c0.2-0.1,0.4-0.2,0.6-0.3
		c1.5-0.8,2-2.7,1.1-4.2c-0.8-1.5-2.7-2-4.2-1.1C16.4,5.9,16.3,6,16.1,6.2z M9,5.5c-0.3-1.3,0.3-2.6,1.5-3.3
		c1.5-0.8,3.3-0.3,4.2,1.1C15.1,4,15.2,4.8,15,5.5c-0.2,0.8-0.7,1.5-1.5,2c-1.5,0.8-3.4,0.3-4.2-1.1C9.2,6.1,9.1,5.8,9,5.5z"/>
	<path class="st0" d="M9,5.5c2-0.9,4.2-0.9,6,0c-0.2,0.8-0.7,1.5-1.5,2c-1.5,0.8-3.4,0.3-4.2-1.1C9.2,6.1,9.1,5.8,9,5.5z"/>
	<path class="st0" d="M15.5,17.1c-0.8-1.5-0.3-3.3,1.1-4.2c0.8-0.4,1.7-0.5,2.5-0.3c-0.2,2-1.2,4-3,5.2
		C15.9,17.6,15.7,17.4,15.5,17.1z"/>
	<path class="st0" d="M18.2,8.4c0.5,0.9,0.8,1.9,0.9,2.9c-1.3,0.4-2.9-0.1-3.6-1.4c-0.7-1.3-0.5-2.9,0.6-3.8
		C16.9,6.7,17.6,7.5,18.2,8.4z"/>
	<path class="st0" d="M20.8,14c0.9,1.5,0.3,3.4-1.1,4.2c-1.2,0.7-2.6,0.5-3.6-0.4c1.8-1.2,2.8-3.2,3-5.2
		C19.8,12.9,20.4,13.3,20.8,14z"/>
	<path class="st0" d="M5.8,15.6c0.5,0.9,1.3,1.7,2.1,2.3c-0.2,0.1-0.3,0.3-0.5,0.4c-1.5,0.8-3.3,0.3-4.2-1.1
		c-0.9-1.5-0.3-3.3,1.1-4.2c0.2-0.1,0.4-0.2,0.6-0.3C5,13.6,5.3,14.6,5.8,15.6z"/>
	<path class="st0" d="M20.8,6.9c0.9,1.5,0.3,3.4-1.1,4.2c-0.2,0.1-0.4,0.2-0.6,0.3c-0.1-1-0.4-2-0.9-2.9c-0.5-0.9-1.3-1.7-2.1-2.3
		c0.2-0.1,0.3-0.3,0.5-0.4C18.1,4.9,20,5.4,20.8,6.9z"/>
	<path class="st0" d="M15,5.5c-1.9-0.9-4-0.9-6,0c-0.3-1.3,0.3-2.6,1.5-3.3c1.5-0.8,3.3-0.3,4.2,1.1C15.1,4,15.2,4.8,15,5.5z"/>
</svg>
