<svg version="1.1" id="Layer_1" xmlns="http://www.w3.org/2000/svg" xmlns:xlink="http://www.w3.org/1999/xlink" x="0px" y="0px" width="24" height="24" viewBox="0 0 24 24" fill="currentColor" stroke="currentColor" stroke-width="0" style="enable-background:new 0 0 24 24;" xml:space="preserve">

<g>
	<path class="st0"d="M16.2,19.1c0.6-0.7,0.8-1.4,1-2c0.2-0.5,0.3-0.7,0.7-0.4c0.3,0.1,0.5,0.1,0.8,0.1c1.2,0,2.3,0.4,3.6,0.2c-0.2,0.8-0.6,1.3-0.9,1.8c-0.8,1.1-2,2.2-3,2.9c-0.6,0.4-1.2,0.7-1.9,1c-0.6,0.3-1.3,0.5-2,0.6c-1.1,0.2-2.2,0.4-3.4,0.2c-0.7-0.2-1.5-0.3-2.2-0.5c-1-0.3-1.9-0.8-2.8-1.3c-0.5-0.2-0.9-0.6-1.3-1c-1-0.9-2-1.8-2.6-3.1c-0.1-0.3-0.4-0.6-0.6-1c0.1-0.2,0.3-0.1,0.4-0.1c0.5,0,1.1,0.1,1.5-0.1c0.5-0.2,0.9-0.1,1.4-0.1s1,0,1.6,0C7,17.1,7,18.1,7.7,18.8c0-0.9,0-1.7,0-2.5c2.9,0,5.7,0,8.5,0c0.5,0.4,0.3,0.9,0.2,1.4c0,0.1-0.1,0.2-0.1,0.4C16.2,18.4,16.2,18.7,16.2,19.1z"/>
	<path class="st0" d="M16.2,14c0,0.4,0,0.8,0,1.2c-0.2,0.2-0.5,0.1-0.8,0.1c-1.2,0-2.3,0-3.5,0c-0.6,0-1.2,0.3-1.8,0.2s-1.3,0-1.9,0c-0.2,0-0.3,0-0.5,0c-0.3-0.7,0.2-1.3,0.2-2c1.5,0,3,0,4.5,0c1,0.4,2,0.2,3.1,0.2C15.8,13.7,16,13.8,16.2,14z"/>
	<path class="st0" d="M15.9,11.8c0,0.4,0,0.9,0,1.4c-1.2,0-2.3,0.1-3.4,0c-0.9-0.1-1.8,0-2.7-0.2c-0.7-0.1-1.3-0.1-2-0.2c0.1-0.4-0.2-0.9,0.3-1.2c0.5,0,1.1,0.2,1.6,0s1.1-0.2,1.5-0.1c0.5,0.1,1,0.1,1.4,0.2c0.5,0,1.1,0,1.6,0C14.9,11.4,15.4,11.5,15.9,11.8z"/>
	<path class="st0" d="M23.1,8.7c-0.3-0.8-0.4-1.7-1-2.3c-0.4-0.5-0.8-1.1-1.2-1.7c-0.8-1.2-2-2-3.2-2.7c-0.7-0.4-1.4-0.8-2.2-1c-0.7-0.2-1.4-0.2-2-0.5C13,0.4,10,0.5,9.4,0.7c-0.9,0.3-3,1.1-4,1.9c-1,0.9-2,1.8-2.8,2.9C2,6.3,1.6,7.2,1.2,8c-0.4,0.9-0.5,1.9-0.6,2.8c-0.2,1.8,0,3.5,0.7,5.1c1.7,0.2,3.4-0.1,5.1-0.2c0-0.7,0-1.3,0-2c-0.7,0-1.3-0.1-1.9,0c-0.3,0-0.5,0.2-0.7,0s-0.6-0.1-0.6-0.6c0.6-0.5,0.7-0.5,1.3-0.5s1.1,0,1.7,0c0.1-0.1,0.2-0.2,0.3-0.3c0.1-0.9,0.1-1.9,0-2.8c-0.3-0.6-0.4-1.4,0.2-2C7.2,7.3,7.6,7.6,7.9,8c0,0.9,0,1.9,0,2.8c0.2,0.3,0.4,0.4,0.7,0.3c0.1,0,0.2-0.2,0.3-0.2c1,0.1,2-0.2,3.1-0.2c0.8,0,1.6,0.3,2.5,0.2c0.5,0.4,1,0.1,1.6,0.2c0-1.1,0-2.2,0-3.1c0.2-0.3,0.4-0.5,0.5-0.6c0.3,0.1,0.5-0.1,0.7,0.1c0.4,0.7,0.4,0.7,0.4,1.2c0,1.1,0,2.2,0,3.2c0,0.2,0,0.4-0.1,0.6c-0.2,0.6-0.1,0.9,0.6,0.8c0.9-0.1,1.8,0.3,2.8,0.2c-0.1,0.1-0.1,0.1-0.1,0.1c-1,0-2.1,0-3.1,0c-0.5,0.6-0.2,1.1-0.3,1.6c1.9,0,3.8,0,5.6,0c0.2-0.7,0.4-1.4,0.4-2.1c0-0.6,0-1.3,0-1.9C23.5,10.4,23.4,9.6,23.1,8.7z M16.5,7c-0.5-0.3-1.2,0.1-1.7-0.4c-1.2,0.1-2.3-0.5-3.5-0.4c-0.9,0-1.8,0.2-2.6,0.5C8.3,6.9,7.9,6.7,7.6,7C7.3,7.2,7.1,7,6.5,6.5l0,0l0,0c0-0.2,0-0.4,0-0.7C7.2,5.3,8,5.1,8.9,5c0.4,0,0.8,0,1.2,0c1.3-0.1,2.5,0.4,3.7,0.6l0,0l0,0c0,0.1,0.1,0.1,0.1,0.1c0.2,0.2,0.6,0,0.9,0.2c0.3,0.2,0.7,0.2,1.1,0.3c0.3,0.1,0.7,0.2,1,0.2c0.2,0,0.4,0.2,0.6,0.3C17.3,7.2,16.8,7.1,16.5,7z"/>
</g>
</svg>
