<?xml version="1.0" encoding="utf-8"?>
<!-- Generator: Adobe Illustrator 25.2.0, SVG Export Plug-In . SVG Version: 6.00 Build 0)  -->
<svg version="1.1" id="Layer_1" xmlns="http://www.w3.org/2000/svg" xmlns:xlink="http://www.w3.org/1999/xlink" x="0px" y="0px"
	 viewBox="0 0 329 110" style="enable-background:new 0 0 329 110;" xml:space="preserve">
<style type="text/css">
	.st0{fill:#1E1E24;}
	.st1{fill:#F59132;}
</style>
<g>
	<g>
		<path class="st0" d="M29.4,104c-0.3-1-0.6-2-0.9-3c-0.3-1-0.6-1.9-0.7-3c-0.1-0.8,0.1-1.5,0.6-2.1c0.3-0.3,0.6-0.6,0.8-1
			c1.1-1.4,1.3-3.1,1.5-4.8c0.1-0.7,0-1.4,0-2.1c0-0.2,0.1-0.4-0.1-0.4c-0.1,0-0.2,0.1-0.3,0.2c-0.3,0.4-0.6,0.8-0.9,1.2
			c-0.9,0.9-1.7,1.8-2.5,2.7c-0.7,0.7-1.3,1.4-2.1,2c-0.7,0.5-1.3,1.1-1.7,1.9c-0.6,1-1.2,2.1-1.9,3.1c-0.6,1-1,2.1-1,3.4
			c0,1,0,1.9,0.2,2.8c0,0.2,0.1,0.3,0.1,0.5c3.2,1.7,6.8,3,10.6,3.7c-0.3-0.8-0.6-1.5-0.8-2.3C30,105.9,29.7,104.9,29.4,104"/>
		<path class="st0" d="M54.7,101.4c-0.2-1.1-0.4-2.1-0.5-3.2c-0.2-1.6-0.5-3.2-0.6-4.8c-0.1-1.7-0.4-3.4-0.5-5.1
			c0-0.8-0.2-1.6-0.2-2.4c0-0.7-0.3-0.9-0.8-0.7c-0.9,0.4-1.9,0.4-2.9,0.7c-0.4,0.1-0.9,0.1-1.4,0.2c-1.3,0.4-2.6,0.3-3.8,0.5
			c-1,0.1-2.1,0.1-3.2,0.1c-0.2,0-0.4,0-0.5,0.3c-0.3,1.2-1,2-1.8,2.9c-0.5,0.7-1.1,1.3-1.6,2c-0.8,1-1.5,2.2-2.3,3.3
			c-0.6,0.8-1.2,1.6-1.5,2.6c-0.1,0.5-0.2,0.9-0.3,1.4c-0.2,0.9-0.2,1.7,0,2.6c0.2,0.6,0.4,1.2,0.5,1.7c0.3,1.2,0.8,2.2,1.1,3.4
			c0,0.1,0.1,0.3,0.2,0.3c0.4,0.1,0.7,0.4,1.1,0.5c0.7,0.3,1.3,0.7,1.7,1.4c0.1,0.3,0.2,0.6,0.1,0.8c0,0,0,0,0.1,0
			c5.9,0.2,11.8-0.7,17.4-2.6c0-1.2-0.1-2.5-0.1-3.7C55,102.9,54.9,102.1,54.7,101.4"/>
		<path class="st0" d="M57.8,12.6c-25.6-1-50.9,19.9-56.5,46.8C-2.5,78,4.2,94.6,17.1,103.3c0-0.4-0.1-0.8-0.2-1.2
			c-0.2-1.3-0.2-2.6-0.2-3.9c0-0.3,0.1-0.7,0.2-1c0.2-0.6,0.6-1.2,1-1.8c0.5-0.7,0.9-1.5,1.4-2.2c0.7-1,1.2-2.1,1.6-3.2
			c0.3-0.7,0.5-1.5,0.7-2.3c0.2-0.9,0.4-1.8,0.3-2.8c-0.1-0.9-0.2-1.8-0.3-2.7c0,0-0.6-2.9-0.6-6.8c-0.5,1-1,2.7-1.4,4.7
			c-1,4.1-1.9,9.3-2.2,10.9c-0.7,2.9-0.6,2.9-1.3,3c-0.3,0-0.5-0.3-0.7-0.9C15,91,11.1,86,15.7,74.7c4.6-11.3,11.5-15.5,20.1-16.6
			c8.5-1.1,17.7,0,19.7-3.3c1.6-2.8,3.9-6.7,4.8-8.3c0.2-0.2,0-0.7-0.1-1.1c-1-3.5,0.5-8.7,1.1-8.6c0.6,0.1,3.8,4.7,4,4.4
			c0.1-0.2,1.9-0.4,3.7-0.4c1.7,0,3.5,0.2,3.7,0.4c0.2,0.4,3.4-4.3,4-4.4c0.6-0.1,2.1,5,1.1,8.6c-0.1,0.4-0.2,0.7-0.2,1
			c0,0.6,0.2,1.2,0.4,1.8c0.3,0.9,1.4,6,0.8,11.1c-0.6,5.1-2.9,7.7-3.2,8.3c-0.2,0.5-0.2,4.3-1.9,7.6c0,0.1-0.1,0.3-0.1,0.4
			c-0.2,1.1-0.5,2.1-1,3.1c-0.2,0.5-0.3,1-0.6,1.4c-0.3,0.6-0.6,1.2-0.9,1.7c-0.6,1.1-1.4,2.1-2.2,3.1c-0.7,0.8-1.4,1.6-1.6,2.7
			c0,0.2-0.1,0.3-0.2,0.4c-0.4,0.4-0.5,1-0.6,1.6c-0.1,0.8-0.3,1.6-0.5,2.3c-0.2,0.9-0.3,1.8-0.6,2.7c-0.1,0.5-0.1,1-0.2,1.4
			c-0.3,1.1-0.4,2.2-0.5,3.3c-0.1,1.2-0.2,2.3-0.2,3.5c14.6-8.1,26.2-22.9,29.7-40.1C99.6,36.2,83.4,13.6,57.8,12.6"/>
		<path class="st0" d="M59.9,102.6c0-1.8,0.1-3.5,0.1-5.3c0-1.1,0.2-2.1,0.3-3.1c0.1-1.1,0.3-2.3,0.4-3.4c0-0.4,0.3-0.7,0.2-1
			c0-0.5,0.2-0.9,0.3-1.4c0.2-0.9,0.4-1.8,0.8-2.7c0.1-0.3,0.2-0.7,0.2-1.2c-0.2,0.3-0.3,0.6-0.5,0.8c-0.4,0.7-0.7,1.4-1,2.2
			c-0.3,0.8-0.6,1.6-0.7,2.5c-0.2,1.1-0.3,2.1-0.5,3.2c-0.1,0.9-0.2,1.8-0.3,2.7c-0.1,1.7-0.2,3.4-0.3,5.1c-0.1,1.6-0.2,3.2,0,4.8
			c0.3-0.1,0.6-0.3,0.9-0.4c-0.1-0.4-0.2-0.8-0.2-1.2C59.7,103.7,59.9,103.1,59.9,102.6"/>
	</g>
	<g>
		<path class="st0" d="M126.1,66.9h-15.4c-0.2,0-0.3,0.1-0.3,0.3v18.5c0,0.2,0.1,0.3,0.3,0.3h10c0.4,0,0.6,0.2,0.6,0.6v1
			c0,0.4-0.2,0.6-0.6,0.6h-10c-0.2,0-0.3,0.1-0.3,0.3v20.4c0,0.4-0.2,0.6-0.6,0.6h-1.2c-0.4,0-0.6-0.2-0.6-0.6V65.4
			c0-0.4,0.2-0.6,0.6-0.6h17.5c0.4,0,0.6,0.2,0.6,0.6v1C126.8,66.7,126.5,66.9,126.1,66.9z"/>
		<path class="st0" d="M133.4,108.8V65.3c0-0.4,0.2-0.6,0.6-0.6h1.2c0.4,0,0.6,0.2,0.6,0.6v43.5c0,0.4-0.2,0.6-0.6,0.6H134
			C133.6,109.5,133.4,109.2,133.4,108.8z"/>
		<path class="st0" d="M146.7,108.8V65.3c0-0.4,0.2-0.6,0.6-0.6h1.2c0.4,0,0.6,0.2,0.6,0.6V107c0,0.2,0.1,0.3,0.3,0.3h15.2
			c0.4,0,0.6,0.2,0.6,0.6v1c0,0.4-0.2,0.6-0.6,0.6h-17.3C146.9,109.5,146.7,109.2,146.7,108.8z"/>
		<path class="st0" d="M191,64.7h1.3c0.4,0,0.6,0.2,0.6,0.6v43.5c0,0.4-0.2,0.6-0.6,0.6h-1.2c-0.4,0-0.6-0.2-0.6-0.6V71
			c0-0.1,0-0.2-0.1-0.2s-0.2,0-0.2,0.1l-7.4,17c-0.1,0.3-0.4,0.5-0.7,0.5c-0.3,0-0.6-0.2-0.7-0.5L174,71c0-0.1-0.1-0.1-0.2-0.1
			s-0.1,0.1-0.1,0.2v37.7c0,0.4-0.2,0.6-0.6,0.6h-1.2c-0.4,0-0.6-0.2-0.6-0.6V65.3c0-0.4,0.2-0.6,0.6-0.6h1.3c0.3,0,0.6,0.2,0.7,0.5
			l8.1,18.4c0,0.1,0.1,0.1,0.2,0.1c0.1,0,0.1,0,0.2-0.1l8-18.4C190.4,64.8,190.6,64.7,191,64.7z"/>
		<path class="st0" d="M203.7,108.8V65.3c0-0.4,0.2-0.6,0.6-0.6h1.2c0.4,0,0.6,0.2,0.6,0.6v43.5c0,0.4-0.2,0.6-0.6,0.6h-1.2
			C203.9,109.5,203.7,109.2,203.7,108.8z"/>
	</g>
	<g>
		<path class="st1" d="M214.7,109.2c-0.2-0.1-0.2-0.3-0.2-0.5V65.4c0-0.2,0.1-0.4,0.2-0.5c0.1-0.1,0.3-0.2,0.5-0.2h7.5
			c0.2,0,0.4,0.1,0.5,0.2c0.1,0.2,0.2,0.3,0.2,0.5v16.1c0,0.2,0.1,0.3,0.2,0.3s0.2-0.1,0.2-0.2l8.3-16.4c0.2-0.4,0.5-0.6,0.9-0.6
			h7.9c0.3,0,0.5,0.1,0.6,0.2c0.1,0.2,0.1,0.4,0,0.7l-9.5,18.4c0,0.2-0.1,0.3-0.1,0.4l10,24.2c0,0.1,0.1,0.2,0.1,0.4
			c0,0.3-0.2,0.5-0.6,0.5h-8c-0.5,0-0.8-0.2-0.9-0.6L225.9,92c0-0.1-0.1-0.2-0.2-0.2c-0.1,0-0.2,0.1-0.3,0.2l-1.9,3.3
			c-0.1,0.2-0.1,0.3-0.1,0.4v12.9c0,0.2-0.1,0.4-0.2,0.5c-0.2,0.1-0.3,0.2-0.5,0.2h-7.5C215,109.5,214.8,109.4,214.7,109.2z"/>
		<path class="st1" d="M247.5,106.5c-2.3-2.3-3.5-5.4-3.5-9.2V76.8c0-3.8,1.2-6.9,3.5-9.2c2.3-2.3,5.5-3.5,9.4-3.5
			c3.9,0,7.1,1.2,9.4,3.5c2.4,2.3,3.6,5.4,3.6,9.2v20.5c0,3.8-1.2,6.9-3.6,9.2c-2.4,2.3-5.5,3.5-9.4,3.5
			C253,110.1,249.8,108.8,247.5,106.5z M259.8,101c0.7-0.8,1.1-1.9,1.1-3.3V76.5c0-1.4-0.4-2.5-1.1-3.3c-0.7-0.8-1.7-1.2-2.9-1.2
			c-1.2,0-2.1,0.4-2.8,1.2c-0.7,0.8-1.1,1.9-1.1,3.3v21.2c0,1.4,0.4,2.5,1.1,3.3c0.7,0.8,1.7,1.2,2.8,1.2
			C258,102.2,259.1,101.8,259.8,101z"/>
		<path class="st1" d="M277.8,106.5c-2.3-2.3-3.5-5.4-3.5-9.2V76.8c0-3.8,1.2-6.9,3.5-9.2c2.3-2.3,5.5-3.5,9.4-3.5s7.1,1.2,9.4,3.5
			c2.4,2.3,3.6,5.4,3.6,9.2v20.5c0,3.8-1.2,6.9-3.6,9.2c-2.4,2.3-5.5,3.5-9.4,3.5S280.1,108.8,277.8,106.5z M290.1,101
			c0.7-0.8,1.1-1.9,1.1-3.3V76.5c0-1.4-0.4-2.5-1.1-3.3c-0.7-0.8-1.7-1.2-2.9-1.2s-2.1,0.4-2.8,1.2c-0.7,0.8-1.1,1.9-1.1,3.3v21.2
			c0,1.4,0.4,2.5,1.1,3.3c0.7,0.8,1.7,1.2,2.8,1.2S289.3,101.8,290.1,101z"/>
		<path class="st1" d="M305.4,109.2c-0.2-0.1-0.2-0.3-0.2-0.5V65.4c0-0.2,0.1-0.4,0.2-0.5s0.3-0.2,0.5-0.2h7.5
			c0.2,0,0.4,0.1,0.5,0.2c0.1,0.2,0.2,0.3,0.2,0.5v36c0,0.2,0.1,0.3,0.3,0.3h13.4c0.2,0,0.4,0.1,0.5,0.2c0.1,0.1,0.2,0.3,0.2,0.5
			v6.2c0,0.2-0.1,0.4-0.2,0.5s-0.3,0.2-0.5,0.2h-22C305.7,109.5,305.5,109.4,305.4,109.2z"/>
	</g>
	<path class="st0" d="M125.1,15.9c1.8,2.2,2.7,5.1,2.7,8.7c0,3.5-0.9,6.3-2.6,8.5c-1.8,2.2-4.1,3.2-7,3.2h-7.4
		c-0.2,0-0.3,0.1-0.3,0.3V57c0,0.4-0.2,0.6-0.6,0.6h-1.2c-0.4,0-0.6-0.2-0.6-0.6V13.4c0-0.4,0.2-0.6,0.6-0.6h9.5
		C121,12.6,123.4,13.7,125.1,15.9z M123.3,31.5c1.3-1.7,2-4.1,2-6.9c0-2.9-0.7-5.3-2-7s-3.1-2.6-5.4-2.6h-7.1
		c-0.2,0-0.3,0.1-0.3,0.3V34c0,0.2,0.1,0.3,0.3,0.3h7.1C120.1,34.1,121.9,33.2,123.3,31.5z"/>
	<path class="st0" d="M137.2,55.1c-1.9-1.9-2.8-4.5-2.8-7.6V22.7c0-3.2,0.9-5.7,2.8-7.6s4.3-2.9,7.3-2.9s5.5,1,7.4,2.9
		c1.9,2,2.8,4.5,2.8,7.6v24.8c0,3.1-1,5.6-2.8,7.6c-1.9,1.9-4.4,2.9-7.4,2.9S139.1,57.1,137.2,55.1z M150.2,53.5
		c1.4-1.5,2.1-3.5,2.1-5.9v-25c0-2.4-0.7-4.4-2.1-5.9c-1.4-1.5-3.3-2.3-5.6-2.3c-2.3,0-4.1,0.8-5.5,2.3c-1.4,1.5-2.1,3.5-2.1,5.9v25
		c0,2.4,0.7,4.3,2.1,5.9c1.4,1.5,3.2,2.3,5.5,2.3S148.7,55,150.2,53.5z M138.2,5c-0.5-0.6-0.8-1.2-0.8-2c0-0.9,0.3-1.6,0.8-2.1
		c0.5-0.6,1.2-0.8,2.1-0.8s1.6,0.3,2.1,0.8s0.8,1.3,0.8,2.1c0,0.9-0.3,1.5-0.8,2.1c-0.6,0.5-1.3,0.8-2.1,0.8
		C139.4,5.9,138.7,5.6,138.2,5z M146.8,5c-0.5-0.6-0.8-1.2-0.8-2c0-0.9,0.3-1.6,0.8-2.1c0.5-0.6,1.2-0.8,2.1-0.8
		c0.9,0,1.6,0.3,2.1,0.8c0.6,0.6,0.8,1.3,0.8,2.1c0,0.9-0.3,1.5-0.8,2.1c-0.6,0.5-1.3,0.8-2.1,0.8C148.1,5.9,147.3,5.6,146.8,5z"/>
	<path class="st0" d="M182.4,14.9H167c-0.2,0-0.3,0.1-0.3,0.3v18.5c0,0.2,0.1,0.3,0.3,0.3h10c0.4,0,0.6,0.2,0.6,0.6v1
		c0,0.4-0.2,0.6-0.6,0.6h-10c-0.2,0-0.3,0.1-0.3,0.3v20.4c0,0.4-0.2,0.6-0.6,0.6h-1.2c-0.4,0-0.6-0.2-0.6-0.6V13.4
		c0-0.4,0.2-0.6,0.6-0.6h17.5c0.4,0,0.6,0.2,0.6,0.6v1C183.1,14.7,182.9,14.9,182.4,14.9z"/>
	<path class="st0" d="M208.6,14.9h-15.4c-0.2,0-0.3,0.1-0.3,0.3v18.5c0,0.2,0.1,0.3,0.3,0.3h10c0.4,0,0.6,0.2,0.6,0.6v1
		c0,0.4-0.2,0.6-0.6,0.6h-10c-0.2,0-0.3,0.1-0.3,0.3v20.4c0,0.4-0.2,0.6-0.6,0.6h-1.2c-0.4,0-0.6-0.2-0.6-0.6V13.4
		c0-0.4,0.2-0.6,0.6-0.6h17.5c0.4,0,0.6,0.2,0.6,0.6v1C209.2,14.7,209,14.9,208.6,14.9z"/>
	<path class="st0" d="M217,17.6c-0.6-0.6-0.8-1.2-0.8-2c0-0.9,0.3-1.6,0.8-2.1c0.5-0.6,1.2-0.8,2.1-0.8s1.6,0.3,2.1,0.8
		c0.6,0.6,0.8,1.3,0.8,2.1c0,0.8-0.3,1.5-0.8,2c-0.6,0.6-1.3,0.8-2.1,0.8C218.3,18.5,217.6,18.2,217,17.6z M217.8,56.9V26
		c0-0.4,0.2-0.6,0.6-0.6h1.2c0.4,0,0.6,0.2,0.6,0.6v30.8c0,0.4-0.2,0.6-0.6,0.6h-1.1C218.1,57.5,217.8,57.3,217.8,56.9z"/>
</g>
</svg>
