<?xml version="1.0" encoding="utf-8"?>
<!-- Generator: Adobe Illustrator 25.2.1, SVG Export Plug-In . SVG Version: 6.00 Build 0)  -->
<svg version="1.1" id="Layer_1" xmlns="http://www.w3.org/2000/svg" xmlns:xlink="http://www.w3.org/1999/xlink" x="0px" y="0px"
	 viewBox="0 0 360 110" style="enable-background:new 0 0 360 110;" xml:space="preserve">
<style type="text/css">
	.st0{fill:#1E1E24;}
	.st1{fill:#F59132;}
</style>
<g>
	<path class="st0" d="M32.9,103.2c-0.3-1.1-0.7-2.3-1-3.4c-0.3-1.1-0.7-2.1-0.8-3.4c-0.1-0.9,0.1-1.7,0.7-2.4
		c0.3-0.3,0.7-0.7,0.9-1.1c1.2-1.6,1.5-3.5,1.7-5.4c0.1-0.8,0-1.6,0-2.4c0-0.2,0.1-0.5-0.1-0.5c-0.1,0-0.2,0.1-0.3,0.2
		c-0.3,0.5-0.7,0.9-1,1.4c-1,1-1.9,2-2.8,3.1c-0.8,0.8-1.5,1.6-2.4,2.3c-0.8,0.6-1.5,1.2-1.9,2.1c-0.7,1.1-1.4,2.4-2.1,3.5
		c-0.7,1.1-1.1,2.4-1.1,3.8c0,1.1,0,2.1,0.2,3.2c0,0.2,0.1,0.3,0.1,0.6c3.6,1.9,7.7,3.4,12,4.2c-0.3-0.9-0.7-1.7-0.9-2.6
		C33.6,105.4,33.3,104.2,32.9,103.2"/>
	<path class="st0" d="M61.5,100.3c-0.2-1.2-0.5-2.4-0.6-3.6c-0.2-1.8-0.6-3.6-0.7-5.4c-0.1-1.9-0.5-3.8-0.6-5.8
		c0-0.9-0.2-1.8-0.2-2.7c0-0.8-0.3-1-0.9-0.8c-1,0.5-2.1,0.5-3.3,0.8c-0.5,0.1-1,0.1-1.6,0.2c-1.5,0.5-2.9,0.3-4.3,0.6
		c-1.1,0.1-2.4,0.1-3.6,0.1c-0.2,0-0.5,0-0.6,0.3c-0.3,1.4-1.1,2.3-2,3.3c-0.6,0.8-1.2,1.5-1.8,2.3c-0.9,1.1-1.7,2.5-2.6,3.7
		c-0.7,0.9-1.4,1.8-1.7,2.9c-0.1,0.6-0.2,1-0.3,1.6c-0.2,1-0.2,1.9,0,2.9c0.2,0.7,0.5,1.4,0.6,1.9c0.3,1.4,0.9,2.5,1.2,3.8
		c0,0.1,0.1,0.3,0.2,0.3c0.5,0.1,0.8,0.5,1.2,0.6c0.8,0.3,1.5,0.8,1.9,1.6c0.1,0.3,0.2,0.7,0.1,0.9c0,0,0,0,0.1,0
		c6.7,0.2,13.3-0.8,19.7-2.9c0-1.4-0.1-2.8-0.1-4.2C61.9,102,61.8,101.1,61.5,100.3"/>
	<path class="st0" d="M65,0C36.1-1.2,7.5,22.4,1.2,52.8c-4.3,21,3.3,39.8,17.9,49.6c0-0.5-0.1-0.9-0.2-1.4c-0.2-1.5-0.2-2.9-0.2-4.4
		c0-0.3,0.1-0.8,0.2-1.1c0.2-0.7,0.7-1.4,1.1-2c0.6-0.8,1-1.7,1.6-2.5c0.8-1.1,1.4-2.4,1.8-3.6c0.3-0.8,0.6-1.7,0.8-2.6
		c0.2-1,0.5-2,0.3-3.2c-0.1-1-0.2-2-0.3-3.1c0,0-0.7-3.3-0.7-7.7c-0.6,1.1-1.1,3.1-1.6,5.3c-1.1,4.6-2.1,10.5-2.5,12.3
		c-0.8,3.3-0.7,3.3-1.5,3.4c-0.3,0-0.6-0.3-0.8-1c-0.5-2.4-4.9-8,0.3-20.8s13-17.5,22.7-18.8c9.6-1.2,20,0,22.3-3.7
		c1.8-3.2,4.4-7.6,5.4-9.4c0.2-0.2,0-0.8-0.1-1.2c-1.1-4,0.6-9.8,1.2-9.7c0.7,0.1,4.3,5.3,4.5,5c0.1-0.2,2.1-0.5,4.2-0.5
		c1.9,0,4,0.2,4.2,0.5c0.2,0.5,3.8-4.9,4.5-5c0.7-0.1,2.4,5.6,1.2,9.7c-0.1,0.5-0.2,0.8-0.2,1.1c0,0.7,0.2,1.4,0.5,2
		c0.3,1,1.6,6.8,0.9,12.5c-0.7,5.8-3.3,8.7-3.6,9.4c-0.2,0.6-0.2,4.9-2.1,8.6c0,0.1-0.1,0.3-0.1,0.5c-0.2,1.2-0.6,2.4-1.1,3.5
		c-0.2,0.6-0.3,1.1-0.7,1.6c-0.3,0.7-0.7,1.4-1,1.9c-0.7,1.2-1.6,2.4-2.5,3.5c-0.8,0.9-1.6,1.8-1.8,3.1c0,0.2-0.1,0.3-0.2,0.5
		c-0.5,0.5-0.6,1.1-0.7,1.8c-0.1,0.9-0.3,1.8-0.6,2.6c-0.2,1-0.3,2-0.7,3.1c-0.1,0.6-0.1,1.1-0.2,1.6c-0.3,1.2-0.5,2.5-0.6,3.7
		c-0.1,1.4-0.2,2.6-0.2,4c16.5-9.2,29.6-25.9,33.6-45.3C112.3,26.6,94,1.1,65,0"/>
	<path class="st0" d="M67.4,101.6c0-2,0.1-4,0.1-6c0-1.2,0.2-2.4,0.3-3.5c0.1-1.2,0.3-2.6,0.5-3.8c0-0.5,0.3-0.8,0.2-1.1
		c0-0.6,0.2-1,0.3-1.6c0.2-1,0.5-2,0.9-3.1c0.1-0.3,0.2-0.8,0.2-1.4c-0.2,0.3-0.3,0.7-0.6,0.9c-0.5,0.8-0.8,1.6-1.1,2.5
		c-0.3,0.9-0.7,1.8-0.8,2.8c-0.2,1.2-0.3,2.4-0.6,3.6c-0.1,1-0.2,2-0.3,3.1c-0.1,1.9-0.2,3.8-0.3,5.8c-0.1,1.8-0.2,3.6,0,5.4
		c0.3-0.1,0.7-0.3,1-0.5c-0.1-0.5-0.2-0.9-0.2-1.4C67.2,102.9,67.4,102.2,67.4,101.6"/>
</g>
<g>
	<g>
		<path class="st0" d="M157.6,66.9h-15.4c-0.2,0-0.3,0.1-0.3,0.3v18.5c0,0.2,0.1,0.3,0.3,0.3h10c0.4,0,0.6,0.2,0.6,0.6v1
			c0,0.4-0.2,0.6-0.6,0.6h-10c-0.2,0-0.3,0.1-0.3,0.3v20.4c0,0.4-0.2,0.6-0.6,0.6h-1.2c-0.4,0-0.6-0.2-0.6-0.6V65.4
			c0-0.4,0.2-0.6,0.6-0.6h17.5c0.4,0,0.6,0.2,0.6,0.6v1C158.3,66.7,158,66.9,157.6,66.9z"/>
		<path class="st0" d="M164.9,108.8V65.3c0-0.4,0.2-0.6,0.6-0.6h1.2c0.4,0,0.6,0.2,0.6,0.6v43.5c0,0.4-0.2,0.6-0.6,0.6h-1.2
			C165.1,109.5,164.9,109.2,164.9,108.8z"/>
		<path class="st0" d="M178.2,108.8V65.3c0-0.4,0.2-0.6,0.6-0.6h1.2c0.4,0,0.6,0.2,0.6,0.6V107c0,0.2,0.1,0.3,0.3,0.3h15.2
			c0.4,0,0.6,0.2,0.6,0.6v1c0,0.4-0.2,0.6-0.6,0.6h-17.3C178.4,109.5,178.2,109.2,178.2,108.8z"/>
		<path class="st0" d="M222.5,64.7h1.3c0.4,0,0.6,0.2,0.6,0.6v43.5c0,0.4-0.2,0.6-0.6,0.6h-1.2c-0.4,0-0.6-0.2-0.6-0.6V71
			c0-0.1,0-0.2-0.1-0.2s-0.2,0-0.2,0.1l-7.4,17c-0.1,0.3-0.4,0.5-0.7,0.5s-0.6-0.2-0.7-0.5L205.5,71c0-0.1-0.1-0.1-0.2-0.1
			s-0.1,0.1-0.1,0.2v37.7c0,0.4-0.2,0.6-0.6,0.6h-1.2c-0.4,0-0.6-0.2-0.6-0.6V65.3c0-0.4,0.2-0.6,0.6-0.6h1.3c0.3,0,0.6,0.2,0.7,0.5
			l8.1,18.4c0,0.1,0.1,0.1,0.2,0.1c0.1,0,0.1,0,0.2-0.1l8-18.4C221.9,64.8,222.1,64.7,222.5,64.7z"/>
		<path class="st0" d="M235.2,108.8V65.3c0-0.4,0.2-0.6,0.6-0.6h1.2c0.4,0,0.6,0.2,0.6,0.6v43.5c0,0.4-0.2,0.6-0.6,0.6h-1.2
			C235.4,109.5,235.2,109.2,235.2,108.8z"/>
	</g>
	<g>
		<path class="st1" d="M246.2,109.2c-0.2-0.1-0.2-0.3-0.2-0.5V65.4c0-0.2,0.1-0.4,0.2-0.5c0.1-0.1,0.3-0.2,0.5-0.2h7.5
			c0.2,0,0.4,0.1,0.5,0.2c0.1,0.2,0.2,0.3,0.2,0.5v16.1c0,0.2,0.1,0.3,0.2,0.3s0.2-0.1,0.2-0.2l8.3-16.4c0.2-0.4,0.5-0.6,0.9-0.6
			h7.9c0.3,0,0.5,0.1,0.6,0.2c0.1,0.2,0.1,0.4,0,0.7l-9.5,18.4c0,0.2-0.1,0.3-0.1,0.4l10,24.2c0,0.1,0.1,0.2,0.1,0.4
			c0,0.3-0.2,0.5-0.6,0.5h-8c-0.5,0-0.8-0.2-0.9-0.6L257.4,92c0-0.1-0.1-0.2-0.2-0.2c-0.1,0-0.2,0.1-0.3,0.2l-1.9,3.3
			c-0.1,0.2-0.1,0.3-0.1,0.4v12.9c0,0.2-0.1,0.4-0.2,0.5c-0.2,0.1-0.3,0.2-0.5,0.2h-7.5C246.5,109.5,246.3,109.4,246.2,109.2z"/>
		<path class="st1" d="M279,106.5c-2.3-2.3-3.5-5.4-3.5-9.2V76.8c0-3.8,1.2-6.9,3.5-9.2c2.3-2.3,5.5-3.5,9.4-3.5s7.1,1.2,9.4,3.5
			c2.4,2.3,3.6,5.4,3.6,9.2v20.5c0,3.8-1.2,6.9-3.6,9.2c-2.4,2.3-5.5,3.5-9.4,3.5C284.5,110.1,281.3,108.8,279,106.5z M291.3,101
			c0.7-0.8,1.1-1.9,1.1-3.3V76.5c0-1.4-0.4-2.5-1.1-3.3s-1.7-1.2-2.9-1.2s-2.1,0.4-2.8,1.2c-0.7,0.8-1.1,1.9-1.1,3.3v21.2
			c0,1.4,0.4,2.5,1.1,3.3s1.7,1.2,2.8,1.2S290.6,101.8,291.3,101z"/>
		<path class="st1" d="M309.3,106.5c-2.3-2.3-3.5-5.4-3.5-9.2V76.8c0-3.8,1.2-6.9,3.5-9.2c2.3-2.3,5.5-3.5,9.4-3.5s7.1,1.2,9.4,3.5
			c2.4,2.3,3.6,5.4,3.6,9.2v20.5c0,3.8-1.2,6.9-3.6,9.2c-2.4,2.3-5.5,3.5-9.4,3.5S311.6,108.8,309.3,106.5z M321.6,101
			c0.7-0.8,1.1-1.9,1.1-3.3V76.5c0-1.4-0.4-2.5-1.1-3.3s-1.7-1.2-2.9-1.2s-2.1,0.4-2.8,1.2c-0.7,0.8-1.1,1.9-1.1,3.3v21.2
			c0,1.4,0.4,2.5,1.1,3.3s1.7,1.2,2.8,1.2S320.8,101.8,321.6,101z"/>
		<path class="st1" d="M336.9,109.2c-0.2-0.1-0.2-0.3-0.2-0.5V65.4c0-0.2,0.1-0.4,0.2-0.5s0.3-0.2,0.5-0.2h7.5
			c0.2,0,0.4,0.1,0.5,0.2c0.1,0.2,0.2,0.3,0.2,0.5v36c0,0.2,0.1,0.3,0.3,0.3h13.4c0.2,0,0.4,0.1,0.5,0.2s0.2,0.3,0.2,0.5v6.2
			c0,0.2-0.1,0.4-0.2,0.5s-0.3,0.2-0.5,0.2h-22C337.2,109.5,337,109.4,336.9,109.2z"/>
	</g>
	<path class="st0" d="M156.6,15.9c1.8,2.2,2.7,5.1,2.7,8.7c0,3.5-0.9,6.3-2.6,8.5c-1.8,2.2-4.1,3.2-7,3.2h-7.4
		c-0.2,0-0.3,0.1-0.3,0.3V57c0,0.4-0.2,0.6-0.6,0.6h-1.2c-0.4,0-0.6-0.2-0.6-0.6V13.4c0-0.4,0.2-0.6,0.6-0.6h9.5
		C152.5,12.6,154.9,13.7,156.6,15.9z M154.8,31.5c1.3-1.7,2-4.1,2-6.9c0-2.9-0.7-5.3-2-7s-3.1-2.6-5.4-2.6h-7.1
		c-0.2,0-0.3,0.1-0.3,0.3V34c0,0.2,0.1,0.3,0.3,0.3h7.1C151.6,34.1,153.4,33.2,154.8,31.5z"/>
	<path class="st0" d="M168.7,55.1c-1.9-1.9-2.8-4.5-2.8-7.6V22.7c0-3.2,0.9-5.7,2.8-7.6s4.3-2.9,7.3-2.9s5.5,1,7.4,2.9
		c1.9,2,2.8,4.5,2.8,7.6v24.8c0,3.1-1,5.6-2.8,7.6C181.5,57,179,58,176,58S170.6,57.1,168.7,55.1z M181.7,53.5
		c1.4-1.5,2.1-3.5,2.1-5.9v-25c0-2.4-0.7-4.4-2.1-5.9c-1.4-1.5-3.3-2.3-5.6-2.3s-4.1,0.8-5.5,2.3s-2.1,3.5-2.1,5.9v25
		c0,2.4,0.7,4.3,2.1,5.9c1.4,1.5,3.2,2.3,5.5,2.3S180.2,55,181.7,53.5z M169.7,5c-0.5-0.6-0.8-1.2-0.8-2c0-0.9,0.3-1.6,0.8-2.1
		c0.5-0.6,1.2-0.8,2.1-0.8s1.6,0.3,2.1,0.8s0.8,1.3,0.8,2.1c0,0.9-0.3,1.5-0.8,2.1c-0.6,0.5-1.3,0.8-2.1,0.8
		C170.9,5.9,170.2,5.6,169.7,5z M178.3,5c-0.5-0.6-0.8-1.2-0.8-2c0-0.9,0.3-1.6,0.8-2.1c0.5-0.6,1.2-0.8,2.1-0.8
		c0.9,0,1.6,0.3,2.1,0.8c0.6,0.6,0.8,1.3,0.8,2.1c0,0.9-0.3,1.5-0.8,2.1c-0.6,0.5-1.3,0.8-2.1,0.8S178.8,5.6,178.3,5z"/>
	<path class="st0" d="M213.9,14.9h-15.4c-0.2,0-0.3,0.1-0.3,0.3v18.5c0,0.2,0.1,0.3,0.3,0.3h10c0.4,0,0.6,0.2,0.6,0.6v1
		c0,0.4-0.2,0.6-0.6,0.6h-10c-0.2,0-0.3,0.1-0.3,0.3v20.4c0,0.4-0.2,0.6-0.6,0.6h-1.2c-0.4,0-0.6-0.2-0.6-0.6V13.4
		c0-0.4,0.2-0.6,0.6-0.6h17.5c0.4,0,0.6,0.2,0.6,0.6v1C214.6,14.7,214.4,14.9,213.9,14.9z"/>
	<path class="st0" d="M240.1,14.9h-15.4c-0.2,0-0.3,0.1-0.3,0.3v18.5c0,0.2,0.1,0.3,0.3,0.3h10c0.4,0,0.6,0.2,0.6,0.6v1
		c0,0.4-0.2,0.6-0.6,0.6h-10c-0.2,0-0.3,0.1-0.3,0.3v20.4c0,0.4-0.2,0.6-0.6,0.6h-1.2c-0.4,0-0.6-0.2-0.6-0.6V13.4
		c0-0.4,0.2-0.6,0.6-0.6h17.5c0.4,0,0.6,0.2,0.6,0.6v1C240.7,14.7,240.5,14.9,240.1,14.9z"/>
	<path class="st0" d="M248.5,17.6c-0.6-0.6-0.8-1.2-0.8-2c0-0.9,0.3-1.6,0.8-2.1c0.5-0.6,1.2-0.8,2.1-0.8s1.6,0.3,2.1,0.8
		c0.6,0.6,0.8,1.3,0.8,2.1c0,0.8-0.3,1.5-0.8,2c-0.6,0.6-1.3,0.8-2.1,0.8C249.8,18.5,249.1,18.2,248.5,17.6z M249.3,56.9V26
		c0-0.4,0.2-0.6,0.6-0.6h1.2c0.4,0,0.6,0.2,0.6,0.6v30.8c0,0.4-0.2,0.6-0.6,0.6H250C249.6,57.5,249.3,57.3,249.3,56.9z"/>
</g>
</svg>
