<?xml version="1.0" encoding="utf-8"?>
<!-- Generator: Adobe Illustrator 26.5.0, SVG Export Plug-In . SVG Version: 6.00 Build 0)  -->
<svg version="1.1" id="Layer_1" xmlns="http://www.w3.org/2000/svg" xmlns:xlink="http://www.w3.org/1999/xlink" x="0px" y="0px"
	 viewBox="0 0 500 500" style="enable-background:new 0 0 500 500;" xml:space="preserve">
<style type="text/css">
	.st0{fill:#D4FFFC;}
	.st1{fill:none;stroke:#000000;stroke-width:3;stroke-linecap:round;stroke-linejoin:round;}
	.st2{fill:#D4FFFC;stroke:#000000;stroke-width:3;stroke-linecap:round;stroke-linejoin:round;}
</style>
<rect class="st0" width="500" height="500"/>
<path class="st1" d="M448.9,443.8v-39.7c0-43.9-35.6-79.5-79.5-79.5H210.5c-43.9,0-79.5,35.6-79.5,79.5v39.7"/>
<g>
	<path d="M168.1,454.6v3.5h4.9l-0.3,1.8h-4.6v18.7h-2.2v-18.7h-3.2v-1.8h3.2v-3.6c0-3.1,2-5,5.2-5c1.6,0,3,0.4,4.3,1.1l-0.7,1.6
		c-1.2-0.6-2.3-0.9-3.4-0.9C169.2,451.4,168.1,452.3,168.1,454.6z"/>
	<path d="M186.2,457.9l-0.4,2.1c-0.5-0.2-1-0.2-1.6-0.2c-2.5,0-4,2.1-4.9,6.2v12.6h-2.2v-20.5h1.9l0.2,4.3c1-3.2,2.7-4.8,5.3-4.8
		C185.1,457.7,185.7,457.8,186.2,457.9z"/>
	<path d="M202.8,469.3h-12.3c0.2,5.8,2.5,7.9,5.7,7.9c2,0,3.4-0.7,4.9-2l1.1,1.4c-1.7,1.5-3.6,2.5-6.1,2.5c-4.9,0-7.9-3.7-7.9-10.5
		s2.9-10.9,7.5-10.9c4.7,0,7.2,3.6,7.2,9.9C202.9,468.3,202.8,468.9,202.8,469.3z M200.7,466.9c0-4.7-1.6-7.4-5-7.4
		c-2.9,0-5,2.2-5.3,8h10.3V466.9z"/>
	<path d="M221.7,469.3h-12.3c0.2,5.8,2.5,7.9,5.7,7.9c2,0,3.4-0.7,4.9-2l1.1,1.4c-1.7,1.5-3.6,2.5-6.1,2.5c-4.9,0-7.9-3.7-7.9-10.5
		s2.9-10.9,7.5-10.9c4.7,0,7.2,3.6,7.2,9.9C221.8,468.3,221.8,468.9,221.7,469.3z M219.7,466.9c0-4.7-1.6-7.4-5-7.4
		c-2.9,0-5,2.2-5.3,8h10.3V466.9z"/>
	<path d="M250.2,477.5l-0.5,1.5c-1.7-0.4-2.7-1.3-2.9-3.3c-1.3,2.2-3.3,3.3-5.7,3.3c-3.6,0-5.8-2.5-5.8-6.1c0-4.3,3-6.6,7.9-6.6h3.3
		v-2.2c0-3.1-1.2-4.6-4.2-4.6c-1.6,0-3.3,0.4-5.1,1.2l-0.6-1.6c2-0.9,4-1.4,6-1.4c4.2,0,6.1,2.3,6.1,6.3v10.5
		C248.7,476.4,249.2,477.1,250.2,477.5z M246.5,473.5v-5.6h-3c-3.8,0-5.8,1.6-5.8,4.9c0,2.9,1.4,4.4,3.8,4.4
		C243.8,477.3,245.4,475.9,246.5,473.5z"/>
	<path d="M266.5,460l-1.1,1.4c-1.6-1.3-2.9-1.9-4.8-1.9c-2.4,0-4,1.3-4,3.5c0,2,1.1,2.9,4.5,4c4,1.3,5.9,2.8,5.9,6.2
		c0,3.7-3,5.9-6.7,5.9c-3,0-5.1-1.1-6.7-2.6l1.2-1.3c1.6,1.3,3.1,2.1,5.4,2.1c2.6,0,4.5-1.4,4.5-4c0-2.4-1.1-3.4-4.9-4.6
		c-4-1.3-5.5-2.9-5.5-5.6c0-3.1,2.7-5.4,6.2-5.4C262.9,457.7,264.8,458.5,266.5,460z"/>
	<path d="M286.7,468.3c0,6.7-2.5,10.8-7,10.8c-2.3,0-4.1-1.2-5.3-2.8v10.1l-2.2,0.3v-28.5h1.9l0.2,2.9c1.4-2,3.3-3.4,5.7-3.4
		C284.4,457.7,286.7,461.4,286.7,468.3z M284.4,468.3c0-6-1.6-8.7-4.8-8.7c-2.3,0-3.9,1.6-5.2,3.5v11c1.2,1.9,2.8,3.1,4.9,3.1
		C282.6,477.2,284.4,474.4,284.4,468.3z"/>
	<path d="M305.8,469.3h-12.3c0.2,5.8,2.5,7.9,5.7,7.9c2,0,3.4-0.7,4.9-2l1.1,1.4c-1.7,1.5-3.6,2.5-6.1,2.5c-4.9,0-7.9-3.7-7.9-10.5
		s2.9-10.9,7.5-10.9c4.7,0,7.2,3.6,7.2,9.9C305.9,468.3,305.8,468.9,305.8,469.3z M303.7,466.9c0-4.7-1.6-7.4-5-7.4
		c-2.9,0-5,2.2-5.3,8h10.3V466.9z"/>
	<path d="M323.2,459.8l-1.1,1.4c-1.2-1-2.4-1.6-4.1-1.6c-3.3,0-5.6,2.7-5.6,8.9c0,6.2,2.3,8.7,5.6,8.7c1.7,0,2.9-0.6,4.2-1.6
		l1.1,1.4c-1.4,1.4-3.2,2.2-5.3,2.2c-4.8,0-7.9-3.6-7.9-10.5s3.1-10.8,7.9-10.8C320.1,457.7,321.7,458.3,323.2,459.8z"/>
	<path d="M336.6,477.8c-1.1,0.8-2.4,1.3-3.9,1.3c-2.9,0-4.6-1.8-4.6-4.9V460H325v-1.8h3.1v-4.9l2.2-0.3v5.2h4.7l-0.3,1.8h-4.5v14.1
		c0,2,0.8,3.1,2.6,3.1c1.1,0,1.9-0.4,2.8-0.9L336.6,477.8z"/>
	<path d="M359.1,457.9l-0.4,2.1c-0.5-0.2-1-0.2-1.6-0.2c-2.5,0-4,2.1-4.9,6.2v12.6H350v-20.5h1.9l0.2,4.3c1-3.2,2.7-4.8,5.3-4.8
		C358,457.7,358.6,457.8,359.1,457.9z"/>
	<path d="M375.4,477.5l-0.5,1.5c-1.7-0.4-2.7-1.3-2.9-3.3c-1.3,2.2-3.3,3.3-5.7,3.3c-3.6,0-5.8-2.5-5.8-6.1c0-4.3,3-6.6,7.9-6.6h3.3
		v-2.2c0-3.1-1.2-4.6-4.2-4.6c-1.6,0-3.3,0.4-5.1,1.2l-0.6-1.6c2-0.9,4-1.4,6-1.4c4.2,0,6.1,2.3,6.1,6.3v10.5
		C373.9,476.4,374.4,477.1,375.4,477.5z M371.7,473.5v-5.6h-3c-3.8,0-5.8,1.6-5.8,4.9c0,2.9,1.4,4.4,3.8,4.4
		C368.9,477.3,370.5,475.9,371.7,473.5z"/>
	<path d="M389.7,477.8c-1.1,0.8-2.4,1.3-3.9,1.3c-2.9,0-4.6-1.8-4.6-4.9V460h-3.1v-1.8h3.1v-4.9l2.2-0.3v5.2h4.7l-0.3,1.8h-4.5v14.1
		c0,2,0.8,3.1,2.6,3.1c1.1,0,1.9-0.4,2.8-0.9L389.7,477.8z"/>
	<path d="M396.1,450.8c0,0.9-0.6,1.6-1.6,1.6c-0.9,0-1.6-0.7-1.6-1.6s0.7-1.6,1.6-1.6C395.5,449.2,396.1,449.9,396.1,450.8z
		 M395.6,478.6h-2.2v-20.5h2.2V478.6z"/>
	<path d="M417.3,468.3c0,6.8-3,10.7-7.9,10.7s-7.8-3.9-7.8-10.7c0-6.8,3-10.7,7.9-10.7C414.3,457.7,417.3,461.4,417.3,468.3z
		 M403.8,468.4c0,6,2,8.8,5.5,8.8s5.6-2.8,5.6-8.9c0-6-2-8.7-5.5-8.7C405.9,459.6,403.8,462.3,403.8,468.4z"/>
</g>
<polyline class="st1" points="449,183.4 349.7,90.6 131.3,294.8 "/>
<polyline class="st1" points="241.9,189.9 182,134 50.4,257.1 "/>
<circle class="st2" cx="290" cy="180.7" r="79.5"/>
<circle class="st2" cx="71.8" cy="78.3" r="38.3"/>
</svg>
