<?xml version="1.0" encoding="utf-8"?>
<!-- Generator: Adobe Illustrator 26.4.1, SVG Export Plug-In . SVG Version: 6.00 Build 0)  -->
<svg version="1.1" id="Layer_1" xmlns="http://www.w3.org/2000/svg" xmlns:xlink="http://www.w3.org/1999/xlink" x="0px" y="0px"
	 viewBox="0 0 889 500" style="enable-background:new 0 0 889 500;" xml:space="preserve">
<style type="text/css">
	.st0{fill:#D4FFFC;}
	.st1{fill:none;stroke:#000000;stroke-width:3;stroke-linecap:round;stroke-linejoin:round;}
	.st2{fill:#D4FFFC;stroke:#000000;stroke-width:3;stroke-linecap:round;stroke-linejoin:round;}
</style>
<rect class="st0" width="889" height="500"/>
<path class="st1" d="M703.4,433.8v-39.7c0-43.9-35.6-79.5-79.5-79.5H465c-43.9,0-79.5,35.6-79.5,79.5v39.7"/>
<g>
	<path d="M612.6,457v3.5h4.9l-0.3,1.8h-4.6V481h-2.2v-18.7h-3.2v-1.8h3.2v-3.6c0-3.1,2-5,5.2-5c1.6,0,3,0.4,4.3,1.1l-0.7,1.6
		c-1.2-0.6-2.3-0.9-3.4-0.9C613.7,453.8,612.6,454.7,612.6,457z"/>
	<path d="M630.7,460.3l-0.4,2.1c-0.5-0.2-1-0.2-1.6-0.2c-2.5,0-4,2.1-4.9,6.2V481h-2.2v-20.5h1.9l0.2,4.3c1-3.2,2.7-4.8,5.3-4.8
		C629.6,460.1,630.2,460.2,630.7,460.3z"/>
	<path d="M647.3,471.7H635c0.2,5.8,2.5,7.9,5.7,7.9c2,0,3.4-0.7,4.9-2l1.1,1.4c-1.7,1.5-3.6,2.5-6.1,2.5c-4.9,0-7.9-3.7-7.9-10.5
		c0-6.8,2.9-10.9,7.5-10.9c4.7,0,7.2,3.6,7.2,9.9C647.4,470.7,647.3,471.3,647.3,471.7z M645.2,469.3c0-4.7-1.6-7.4-5-7.4
		c-2.9,0-5,2.2-5.3,8h10.3V469.3z"/>
	<path d="M666.2,471.7h-12.3c0.2,5.8,2.5,7.9,5.7,7.9c2,0,3.4-0.7,4.9-2l1.1,1.4c-1.7,1.5-3.6,2.5-6.1,2.5c-4.9,0-7.9-3.7-7.9-10.5
		c0-6.8,2.9-10.9,7.5-10.9c4.7,0,7.2,3.6,7.2,9.9C666.3,470.7,666.3,471.3,666.2,471.7z M664.2,469.3c0-4.7-1.6-7.4-5-7.4
		c-2.9,0-5,2.2-5.3,8h10.3V469.3z"/>
	<path d="M694.7,479.9l-0.5,1.5c-1.7-0.4-2.7-1.3-2.9-3.3c-1.3,2.2-3.3,3.3-5.7,3.3c-3.6,0-5.8-2.5-5.8-6.1c0-4.3,3-6.6,7.9-6.6h3.3
		v-2.2c0-3.1-1.2-4.6-4.2-4.6c-1.6,0-3.3,0.4-5.1,1.2l-0.6-1.6c2-0.9,4-1.4,6-1.4c4.2,0,6.1,2.3,6.1,6.3v10.5
		C693.2,478.8,693.7,479.5,694.7,479.9z M691,475.9v-5.6h-3c-3.8,0-5.8,1.6-5.8,4.9c0,2.9,1.4,4.4,3.8,4.4
		C688.3,479.7,689.9,478.3,691,475.9z"/>
	<path d="M711,462.4l-1.1,1.4c-1.6-1.3-2.9-1.9-4.8-1.9c-2.4,0-4,1.3-4,3.5c0,2,1.1,2.9,4.5,4c4,1.3,5.9,2.8,5.9,6.2
		c0,3.7-3,5.9-6.7,5.9c-3,0-5.1-1.1-6.7-2.6l1.2-1.3c1.6,1.3,3.1,2.1,5.4,2.1c2.6,0,4.5-1.4,4.5-4c0-2.4-1.1-3.4-4.9-4.6
		c-4-1.3-5.5-2.9-5.5-5.6c0-3.1,2.7-5.4,6.2-5.4C707.4,460.1,709.3,460.9,711,462.4z"/>
	<path d="M731.2,470.7c0,6.7-2.5,10.8-7,10.8c-2.3,0-4.1-1.2-5.3-2.8v10.1l-2.2,0.3v-28.5h1.9l0.2,2.9c1.4-2,3.3-3.4,5.7-3.4
		C728.9,460.1,731.2,463.8,731.2,470.7z M728.9,470.7c0-6-1.6-8.7-4.8-8.7c-2.3,0-3.9,1.6-5.2,3.5v11c1.2,1.9,2.8,3.1,4.9,3.1
		C727.1,479.6,728.9,476.8,728.9,470.7z"/>
	<path d="M750.3,471.7H738c0.2,5.8,2.5,7.9,5.7,7.9c2,0,3.4-0.7,4.9-2l1.1,1.4c-1.7,1.5-3.6,2.5-6.1,2.5c-4.9,0-7.9-3.7-7.9-10.5
		c0-6.8,2.9-10.9,7.5-10.9c4.7,0,7.2,3.6,7.2,9.9C750.4,470.7,750.3,471.3,750.3,471.7z M748.2,469.3c0-4.7-1.6-7.4-5-7.4
		c-2.9,0-5,2.2-5.3,8h10.3V469.3z"/>
	<path d="M767.7,462.2l-1.1,1.4c-1.2-1-2.4-1.6-4.1-1.6c-3.3,0-5.6,2.7-5.6,8.9c0,6.2,2.3,8.7,5.6,8.7c1.7,0,2.9-0.6,4.2-1.6
		l1.1,1.4c-1.4,1.4-3.2,2.2-5.3,2.2c-4.8,0-7.9-3.6-7.9-10.5c0-6.9,3.1-10.8,7.9-10.8C764.6,460.1,766.2,460.7,767.7,462.2z"/>
	<path d="M781.1,480.2c-1.1,0.8-2.4,1.3-3.9,1.3c-2.9,0-4.6-1.8-4.6-4.9v-14.2h-3.1v-1.8h3.1v-4.9l2.2-0.3v5.2h4.7l-0.3,1.8h-4.5
		v14.1c0,2,0.8,3.1,2.6,3.1c1.1,0,1.9-0.4,2.8-0.9L781.1,480.2z"/>
	<path d="M803.6,460.3l-0.4,2.1c-0.5-0.2-1-0.2-1.6-0.2c-2.5,0-4,2.1-4.9,6.2V481h-2.2v-20.5h1.9l0.2,4.3c1-3.2,2.7-4.8,5.3-4.8
		C802.5,460.1,803.1,460.2,803.6,460.3z"/>
	<path d="M819.9,479.9l-0.5,1.5c-1.7-0.4-2.7-1.3-2.9-3.3c-1.3,2.2-3.3,3.3-5.7,3.3c-3.6,0-5.8-2.5-5.8-6.1c0-4.3,3-6.6,7.9-6.6h3.3
		v-2.2c0-3.1-1.2-4.6-4.2-4.6c-1.6,0-3.3,0.4-5.1,1.2l-0.6-1.6c2-0.9,4-1.4,6-1.4c4.2,0,6.1,2.3,6.1,6.3v10.5
		C818.4,478.8,818.9,479.5,819.9,479.9z M816.2,475.9v-5.6h-3c-3.8,0-5.8,1.6-5.8,4.9c0,2.9,1.4,4.4,3.8,4.4
		C813.4,479.7,815,478.3,816.2,475.9z"/>
	<path d="M834.2,480.2c-1.1,0.8-2.4,1.3-3.9,1.3c-2.9,0-4.6-1.8-4.6-4.9v-14.2h-3.1v-1.8h3.1v-4.9l2.2-0.3v5.2h4.7l-0.3,1.8h-4.5
		v14.1c0,2,0.8,3.1,2.6,3.1c1.1,0,1.9-0.4,2.8-0.9L834.2,480.2z"/>
	<path d="M840.6,453.2c0,0.9-0.6,1.6-1.6,1.6c-0.9,0-1.6-0.7-1.6-1.6c0-0.9,0.7-1.6,1.6-1.6C840,451.6,840.6,452.3,840.6,453.2z
		 M840.1,481h-2.2v-20.5h2.2V481z"/>
	<path d="M861.8,470.7c0,6.8-3,10.7-7.9,10.7s-7.8-3.9-7.8-10.7c0-6.8,3-10.7,7.9-10.7C858.8,460.1,861.8,463.8,861.8,470.7z
		 M848.3,470.8c0,6,2,8.8,5.5,8.8s5.6-2.8,5.6-8.9c0-6-2-8.7-5.5-8.7C850.4,462,848.3,464.7,848.3,470.8z"/>
</g>
<polyline class="st1" points="482.5,203.4 383.2,110.6 164.8,314.8 "/>
<polyline class="st1" points="275.4,209.9 215.5,154 83.9,277.1 "/>
<circle class="st2" cx="544.5" cy="170.7" r="79.5"/>
<circle class="st2" cx="88.3" cy="88.3" r="38.3"/>
</svg>
