<?xml version="1.0" encoding="utf-8"?>
<!-- Generator: Adobe Illustrator 26.1.0, SVG Export Plug-In . SVG Version: 6.00 Build 0)  -->
<svg version="1.1" id="Layer_1" xmlns="http://www.w3.org/2000/svg" xmlns:xlink="http://www.w3.org/1999/xlink" x="0px" y="0px"
	 viewBox="0 0 1280 720" style="enable-background:new 0 0 1280 720;" xml:space="preserve">
<style type="text/css">
	.st0{fill:#666666;}
</style>
<path class="st0" d="M649.3,574.5c-29.4,0-58.7-6.1-86.6-18.4c-20.8-9.3-39.9-21.5-56.8-36.6c-2.2-2-2.4-5.6-0.4-7.8
	c2-2.2,5.6-2.4,7.8-0.4c16,14.3,34,26,53.9,34.7c49.6,21.9,105,23.2,155.5,3.5c50.7-19.7,90.7-57.8,112.6-107.6
	c21.9-49.6,23.2-105,3.5-155.5C819,235.9,781,195.9,731.2,174c-49.6-21.9-105-23.2-155.5-3.5C525,190.2,485,228.3,463.1,278.1
	c-9.8,22.5-15.6,46.1-17.1,70.4c-0.2,3.2-2.8,5.4-5.9,5.2s-5.4-2.8-5.2-5.9c1.5-25.6,7.4-50.5,18-74.3
	c23-52.4,65.2-92.7,118.7-113.3s111.6-19.3,164,3.7S828.3,229,849,282.5s19.3,111.6-3.7,164c-23,52.4-65.2,92.7-118.7,113.3
	C701.6,569.7,675.4,574.5,649.3,574.5z"/>
<g>
	<path class="st0" d="M503.8,288.5c-2.2-2-5.8-1.9-7.8,0.6l-56.7,63.7l-33.8-78.2c-1.3-2.8-4.5-4.1-7.2-3c-2.8,1.3-4.1,4.5-3,7.2
		l37.3,86.2c0.7,1.7,2.4,3,4.3,3.3c1.9,0.4,3.7-0.4,5-1.9l62.4-70.4c0.7-0.7,1.1-1.9,1.3-2.8C505.8,291.6,505.3,289.8,503.8,288.5z"
		/>
</g>
<path class="st0" d="M694.6,446.2c-1.9,0-3.8-1-4.9-2.8L652,376.3c-1.5-2.7-0.6-6.1,2.1-7.6c2.7-1.5,6.1-0.6,7.6,2.1l37.7,67.1
	c1.5,2.7,0.6,6.1-2.1,7.6C696.4,445.9,695.5,446.2,694.6,446.2z"/>
<path class="st0" d="M649.1,349.9c-3.1,0-5.6-2.5-5.6-5.6V210.2c0-3.1,2.5-5.6,5.6-5.6c3.1,0,5.6,2.5,5.6,5.6v134.1
	C654.6,347.4,652.1,349.9,649.1,349.9z"/>
</svg>
