<?xml version="1.0" encoding="utf-8"?>
<!-- Generator: Adobe Illustrator 26.1.0, SVG Export Plug-In . SVG Version: 6.00 Build 0)  -->
<svg version="1.1" id="Layer_1" xmlns="http://www.w3.org/2000/svg" xmlns:xlink="http://www.w3.org/1999/xlink" x="0px" y="0px"
	 viewBox="0 0 1280 720" style="enable-background:new 0 0 1280 720;" xml:space="preserve">
<style type="text/css">
	.st0{fill:url(#SVGID_1_);stroke:#000000;stroke-miterlimit:10;}
	.st1{fill:#999999;}
</style>
<radialGradient id="SVGID_1_" cx="640" cy="360" r="519.2302" gradientUnits="userSpaceOnUse">
	<stop  offset="0" style="stop-color:#FFFFFF"/>
	<stop  offset="1" style="stop-color:#CCCCCC"/>
</radialGradient>
<rect class="st0" width="1280" height="720"/>
<path class="st1" d="M635.6,428.7c-9.4,0-18.8-2-27.7-5.9c-6.7-3-12.8-6.9-18.2-11.7c-0.7-0.7-0.8-1.8-0.1-2.5
	c0.7-0.7,1.8-0.8,2.5-0.1c5.1,4.6,10.9,8.3,17.2,11.1c15.9,7,33.6,7.4,49.8,1.1c16.2-6.3,29-18.5,36-34.4c7-15.9,7.4-33.6,1.1-49.8
	c-6.3-16.2-18.5-29-34.4-36c-15.9-7-33.6-7.4-49.8-1.1c-16.2,6.3-29,18.5-36,34.4c-3.2,7.2-5,14.7-5.5,22.5c-0.1,1-0.9,1.7-1.9,1.7
	c-1-0.1-1.7-0.9-1.7-1.9c0.5-8.2,2.4-16.2,5.8-23.8c7.4-16.8,20.9-29.7,38-36.3s35.7-6.2,52.5,1.2s29.7,20.9,36.3,38
	c6.6,17.1,6.2,35.7-1.2,52.5c-7.4,16.8-20.9,29.7-38,36.3C652.4,427.1,644,428.7,635.6,428.7z"/>
<g>
	<path class="st1" d="M589.1,337.1c-0.7-0.7-1.8-0.6-2.5,0.2l-18.1,20.4l-10.8-25c-0.4-0.9-1.4-1.3-2.3-1c-0.9,0.4-1.3,1.4-1,2.3
		l12,27.6c0.2,0.5,0.8,1,1.4,1.1c0.6,0.1,1.2-0.1,1.6-0.6l20-22.5c0.2-0.2,0.4-0.6,0.4-0.9C589.7,338.1,589.5,337.5,589.1,337.1z"/>
</g>
<path class="st1" d="M650.1,387.6c-0.6,0-1.2-0.3-1.6-0.9l-12.1-21.5c-0.5-0.9-0.2-1.9,0.7-2.4c0.9-0.5,1.9-0.2,2.4,0.7l12.1,21.5
	c0.5,0.9,0.2,1.9-0.7,2.4C650.7,387.5,650.4,387.6,650.1,387.6z"/>
<path class="st1" d="M635.6,356.8c-1,0-1.8-0.8-1.8-1.8v-42.9c0-1,0.8-1.8,1.8-1.8s1.8,0.8,1.8,1.8V355
	C637.4,356,636.6,356.8,635.6,356.8z"/>
</svg>
