<?xml version="1.0" encoding="utf-8"?>
<!-- Generator: Adobe Illustrator 25.1.0, SVG Export Plug-In . SVG Version: 6.00 Build 0)  -->
<svg version="1.1" id="Layer_1" xmlns="http://www.w3.org/2000/svg" xmlns:xlink="http://www.w3.org/1999/xlink" x="0px" y="0px"
	 viewBox="0 0 346 102" style="enable-background:new 0 0 346 102;" xml:space="preserve">
<style type="text/css">
	.st0{fill:#ED1C24;}
	.st1{fill:#111111;}
	.st2{fill:#FFFFFF;}
</style>
<g>
	<path class="st0" d="M68.5,11c-2.7,1.1-5,0.4-5.9,0.7c-1.1,0.5-0.9,1.4-2.3,2.5c-1.1,0.9-2.1,0.3-3,1.6c-0.6,0.9-2.4,3-4.8,2.8
		c-1.8-0.1-3.1-1.4-3.6-3.1c0.1-3.2-0.8-1.8-1.4-5.2c-0.4-2.2,1.7-3.6,4-4c1.8-0.1,2.4-4.5,7.1-4.3c1.5,0.1,3.9,1.1,5.4,1.5
		c2.6,0.7,6.4-2.1,7.9-2c3.6,0.3,3-1.7,6.6-0.8c2.8,0.7,4.5,4.5,6.2,5.6c3.8,2.5,6.7,1.1,9,1.9c12.1,3.9,12.3-5.4,14.1-2.5
		c1.8,2.7-3.6,5.2-7,5.7c-3.3,0.4-6.7,2.5-7.7,2.7c-2.2,0.5-3.7-1.1-6.5-1.5c-3.5-0.5-3.1-3.4-6.6-4.5c-0.8-0.2-1.9-0.7-3.4-1.3
		c-0.7-0.3-1.9,1.6-4,1.7C69.7,8.6,70.3,10,68.5,11z"/>
	<path class="st1" d="M20.5,32.3c0-0.3,0.1-0.5,0.2-0.6c0.2-0.2,0.5-0.3,0.7-0.3h9.5c0.3,0,0.5,0.1,0.6,0.3c0.2,0.2,0.3,0.4,0.3,0.6
		v54.9c0,0.3-0.1,0.5-0.3,0.7c-0.2,0.2-0.4,0.2-0.6,0.2h-9.5c-0.3,0-0.5-0.1-0.7-0.2c-0.2-0.2-0.2-0.5-0.2-0.7V65.1
		c0-0.3-0.1-0.4-0.4-0.4H12c-0.3,0-0.4,0.1-0.4,0.4v22.1c0,0.3-0.1,0.5-0.3,0.7c-0.2,0.2-0.5,0.3-0.7,0.3H1.1
		c-0.3,0-0.5-0.1-0.7-0.2c-0.2-0.3-0.3-0.5-0.3-0.8V32.3c0-0.3,0.1-0.5,0.2-0.6c0.2-0.2,0.5-0.3,0.7-0.3h9.5c0.3,0,0.5,0.1,0.6,0.3
		c0.2,0.2,0.3,0.4,0.3,0.6v22.1c0,0.3,0.1,0.4,0.4,0.4h8.3c0.3,0,0.4-0.1,0.4-0.4V32.3z"/>
	<path class="st1" d="M145.3,40.2c0,0.3-0.1,0.5-0.3,0.7s-0.4,0.2-0.6,0.2h-16.9c-0.3,0-0.4,0.1-0.4,0.4v12.8c0,0.3,0.1,0.4,0.4,0.4
		h9.7c0.3,0,0.5,0.1,0.6,0.3c0.2,0.2,0.3,0.4,0.3,0.6v7.9c0,0.3-0.1,0.5-0.3,0.7c-0.2,0.2-0.4,0.2-0.6,0.2h-9.7
		c-0.3,0-0.4,0.1-0.4,0.4v22.4c0,0.3-0.1,0.5-0.3,0.7c-0.2,0.2-0.4,0.2-0.6,0.2h-9.5c-0.3,0-0.5-0.1-0.7-0.2
		c-0.2-0.2-0.2-0.5-0.2-0.7V32.3c0-0.3,0.1-0.5,0.2-0.6c0.2-0.2,0.5-0.3,0.7-0.3h27.8c0.3,0,0.5,0.1,0.6,0.3
		c0.2,0.2,0.3,0.4,0.3,0.6v7.9H145.3z"/>
	<path class="st1" d="M179.5,40.2c0,0.3-0.1,0.5-0.3,0.7s-0.4,0.2-0.6,0.2h-16.9c-0.3,0-0.4,0.1-0.4,0.4v12.8c0,0.3,0.1,0.4,0.4,0.4
		h9.7c0.3,0,0.5,0.1,0.6,0.3c0.2,0.2,0.3,0.4,0.3,0.6v7.9c0,0.3-0.1,0.5-0.3,0.7c-0.2,0.2-0.4,0.2-0.6,0.2h-9.7
		c-0.3,0-0.4,0.1-0.4,0.4v22.4c0,0.3-0.1,0.5-0.3,0.7s-0.4,0.2-0.6,0.2h-9.5c-0.3,0-0.5-0.1-0.7-0.2c-0.2-0.2-0.2-0.5-0.2-0.7V32.3
		c0-0.3,0.1-0.5,0.2-0.6c0.2-0.2,0.5-0.3,0.7-0.3h27.8c0.3,0,0.5,0.1,0.6,0.3c0.2,0.2,0.3,0.4,0.3,0.6v7.9H179.5z"/>
	<path class="st0" d="M91.8,45.2c-0.5,0.3-0.9,0.7-0.4,1.5c0.6,0.8,1.6,1.9,1.8,1.8c0.2-0.1,0.4-0.2,0.1-1.4
		C93,45.8,92.3,44.9,91.8,45.2z"/>
	<path class="st0" d="M94.1,44.3c-0.8,0.3,0,2.3,0.1,2.9c0.1,0.6,0.3,1,0.5,0.3s0-1.6,0.3-2.5C95.2,44.4,94.5,44,94.1,44.3z"/>
	<path class="st0" d="M90.8,41.9c-0.5-0.5-1.8-1.9-2.2-2.2c-0.8-0.5-1.5,0-1.9,0.2c-0.6,0.4-0.9,1.4-1.1,2s0.6,1.5,1,1.6
		s1.3-0.1,2.4,0.5c1,0.6,1.9,0.8,2.3,0.2C91.6,43.4,91.2,42.4,90.8,41.9z"/>
	<path class="st0" d="M95.6,37.7c-0.5-0.4-0.7-1-1.4-0.5c-0.7,0.5-0.8,1.4-0.6,1.9c0.2,0.5,0,1.7,0,2.2c0,0.6,0.1,1.2,0.4,1.3
		s0.7,0.2,0.9-0.7c0.2-0.9,0.6-1.3,1.1-2.2C96.6,38.8,96.1,38.1,95.6,37.7z"/>
	<path class="st0" d="M120.7,29.9c-1.3-1.1-4.1-2.3-6.6-0.1c-1.4,1.2-1.6,2.7-2.5,5.1c-0.8,2.1-1.6,2.7-3.6,3.6
		c-2.6,1-3.1,1.4-4.1-0.6c0.6-0.8,1.3-1.5,0.8-2.3c-0.7-1.5-1.8-0.4-3.5,0c-1.6-1,0.9-2.1-2.6-2.9c-0.9-0.4-1.7-1.1-0.8-1.3
		c0.8,0.4,1.9,0.2,3.2-0.7c0.5-0.6,0.5-1.7-0.4-2.3c-2.1-1-5.9,1-6.5-0.7c-0.7-1.6-1.4-1.1-3.5,1.5c-2.6,1-3.5-0.8-3.2-2.3
		c0-1.3,3.3-5.6,0.4-6.9c-2.3-0.7-3.7,0-3.9,6.9c-0.5,2.1-2.6,1-3.6,0.7c-2.7-2-1.9-4.2-4-4.8c-2.7-0.7-2.8,3.6-5.7,3.3
		c-1.2-0.8-1.1-1.9-2.5-1.9c-1.6,0-1.3,2-2.7,2.7c-2.3,1.3-1-0.8-3.9,0.3c-2.7-1.6-1.6,2-2.7,1.3c-3.5-2.2-5-2.4-5.3,0.7
		c-1.2,0.4-1.7-0.7-3.6-1.3c-2.1-0.7-2.4,2.1-0.2,3.9c0.7,1.9-3.1-0.6-2.1,3.2c0.5,1.8-1.8,1.9-3.4,1.7c-1.4-0.5-3.4-2.3-5.2-1.1
		c-1.2,1.4,0.6,2.8,2,4c3.6,3.2,0.4,3.8-2.8,2.9c-4.7-0.4,0.1,2.1,1.1,6.5c0.3,4.8-7.3,2-9.7,1.4c-3.8-1-3.4,2.1-0.2,2.4
		c5.1,1.1,10.4,4.4,6.7,6.7c-0.7,0.3-1.6,0.4-1.8,2.1c-0.2,1.8,4.8,2.4,4.8,4.7c-3.1,1.9-1.6,3-2,5.4c-0.3,1.6-2.9,1.7-2.7,3.9
		c0.1,0.7,1,0.9,2,1.1c0.1-0.6,0.1-1.1,0.1-1.1s0-0.1,0.4,0s0.7-0.1,0.3,0.3c-0.2,0.2-0.3,0.5-0.5,0.9c1.6,0.4,3.4,1.1,3.2,4.7
		c-0.4,1.9-1.9,1.9-3.7,2.8c-0.4,0.2-0.8,0.5-1.1,0.7c0,0.3,0,0.6,0.1,0.8c0.1,0.3-0.1,0.3-0.3,0.3s-0.5,0-0.4-0.2
		c-0.4,0.7-0.4,1.3-0.1,1.9c0-0.1,0.1-0.3,0.1-0.4c0.1-0.5,0-1,0-1s0,0,0.3,0s0.6-0.1,0.3,0.2c-0.3,0.3-0.4,1.2-0.5,1.5l0,0
		c0.5,0.8,1.5,1.2,2.8,1c3.9-1.5,3-5.8,5.2-6c4.2-0.4,3.1,2.5,2.7,5.4c0.4-0.4,0.8-1.1,0.8-1.1s0.1,0,0.2,0c0.2,0.1,0.4,0.1,0.6,0.1
		c0.2,0,0.5-0.1,0.7-0.2c0.4-0.2,0.8-0.5,1.1-0.7c0,0,0,0.1,0.1,0.1c0,0.3-0.1,0.5,0.1,0.6c0.2,0.2,0.5,1-0.4,1.5
		c-0.5,0.3-1.7,1-3.2,2.2c0,0.2,0.1,0.4,0.2,0.6c0.6-0.5,1.2-0.9,1.7-1.2c0.2-0.1,0.5-0.3,0.8-0.5c0.4-0.2,0.7-0.4,0.8-0.5
		c1-0.5,1.1-1.3,0.9-1.9c0.1,0,0.2,0,0.6,0.1c0.6,0.1,0.8,0.4,0.9,0.3c0.1-0.1-0.3-0.4-0.7-0.5c-0.3-0.1-1-0.2-0.9-0.4
		c0.5,0,0.8-0.3,1-0.7c0.1-0.2,0.2-0.4,0.3-0.6c0.4-0.7,0.3-1.4,0-1.9c-0.1-0.2-0.3-0.3-0.6-0.3v-0.1l0.1-0.3
		c0.2-0.6,0.6-1.5,0.8-3.1s0.2-2.8,0-3.6c-0.1-0.6-0.3-1-0.4-1.3c0-0.2-0.1-0.3-0.1-0.5c0.1-0.2,0.2-0.3,0.3-0.4s0.2-0.3,0.3-0.5
		c0.3-0.4,0.3-0.9,0.4-1.3c0-0.2,0-0.4,0.1-0.6c0-0.1,0-0.3,0.1-0.4c0.1,0,0.3-0.1,0.4-0.2c0.2-0.2,0.6-0.5,1.1-1
		c0.4-0.4,0.6-0.8,0.7-1.1c0.2-0.1,0.3-0.1,0.4,0.1c0.4,0.7,0.5,1.1,0.3,1.6s0.3,1.1,0.2,2.9s-0.9,5.5-1.7,7.6s-0.3,2.4-0.2,2.6
		s-0.1,0.6-0.4,0.8c-0.3,0.2-0.8,1.4-0.8,1.7c0,0.4,0.6,0.7,0.3,1.1s-0.8,0.9-0.8,1.3s-0.3,0.8-0.5,0.8c-0.3,0-1.2,0.2-1.9,0.7
		c-0.6,0.5-1.1,0.6-2.6,2c2.7,3,4.7,0.2,6.9,4.1c0.7,2.3,1.3-1.9,3.5-2.4c0.9,2.8,1.7-1.1,2.4-0.6c0.6,0.2,0.8,2.6,1.7,2.5
		c1.3,0.2,1.2-2.3,2.7-2.6c1.5,0.2-2.4,5.4,2.1,8c4.7,1.4,5.7-3.1,7.8-4.2c1,0.3,0.7,1.7,1.4,2.3c1.2,1.3,2.8,1.5,3.8,1.1
		c0-1.2,0-2.4-0.2-3.2c-0.5-1.1-0.4-2.1-0.7-3.1c-0.3-1.1-0.8-1.6-0.6-2.1c0.1-0.3,0.5-0.8,1-1.1c0.2,0,0.5-0.1,0.7-0.1
		c0.1,0,0.2,0,0.5,0c0.2,0,0.4,0.1,0.7,0.2c0.2,0.1,0.5,0.1,0.7,0.2c-0.1,0.3-0.5,0.9-0.6,1.4c-0.2,0.8-0.2,2.5,0,4.3
		c0,0.1,0,0.1,0,0.2c0.1-0.4,0.3-0.7,0.5-1c-0.1-1.5,0-2.8,0.1-3.4c0-0.2,0.1-0.4,0.2-0.6c0.1-0.3,0.3-0.5,0.3-0.7
		c0.1,0,0.3,0,0.4,0c0.8,0,1.3-0.7,1.4-1.3c0.1-0.3,0.1-0.6,0.1-1c0.1-0.2,0.3-0.4,0.5-0.6c0.5-0.5,1.2-1.4,1.3-2.1
		c0.2-0.7,0.6-1.3,1.6-3.8c0.9-2.5,0.9-3.8,0.8-4.5s0.2-1.8,0.3-2c0-0.1,0-0.3-0.1-0.4v-0.2c0.1,0.2,0.2,0.4,0.4,0.5
		c0.2,0.2,0.6,0.4,1.1,0.2c0.3-0.2,0.5-0.4,0.6-0.8c0.2,0,0.4-0.1,0.6-0.3c0.4-0.3,1-0.9,1.8-1.9s1.8-1.9,2.7-2.7
		c0.2,0.1,0.3,0.5,0.3,0.8c0,0.4,0.4,0.9,0.1,1.9s-1.1,2.2-1.8,2.8c-0.7,0.6-2,1.5-3.2,4.3s-2.9,5.3-3.1,6.4c-0.2,1,0,1.6-0.4,2.4
		s-1,1.2-1.6,0.9c-0.6-0.3-1-0.6-1.2-0.1c-0.2,0.4,0.8,0.6,1,0.7s0.1,0.3-0.1,0.4c-0.3,0.1-0.5,0.6-0.5,0.9s-0.4,1.7-0.7,2.6
		c1,0,1.9,0.5,2.2,1.5c3.2-1.1,0.6,0.8,3.3,0.4c0-0.2,0.7-0.5,1.3-1.1c2.5-2.6,1.3-3.1,0.7-4.3c-1.7-3.4-0.3-3.9,2-2.7
		c1.5,0.7,3.4,5.1,5.9,3.2c1.3-0.8,0.4-2.8-0.7-3.8c-2.4-2.9-0.4-4.7,2-2.9c1.5,1.3,4.8,2.6,7,1.6c2-2-3.5-4.8-2.8-8.6
		c0.4-0.9,1.7-1.1,2.3-1.9c1-1.4-0.4-1.8-0.5-2.7c0.5-0.9,1.8-1.4,2.3-2.5c1.2-2.7-2.2-5.1-1-5.9c1.1-0.8,2.1-1,2.1-1.9
		c0.1-1.6-1.6-0.9-2.9-2.8c1.9-1.4,3.6-5.5,0.2-8c1.8-1,2-3.8,0.5-5.3c0.6-0.9,2-0.9,2.5-1.9c0.1-1.1-0.3-2.5,0.5-3
		c2.9-3.4,4.4-1.4,9.1-3.6C122.5,36.4,123.2,31.9,120.7,29.9z M86.4,90.9c-0.2,0.6-1,0.7-1,0.7s0.1-0.2,0.1-0.5c0-0.1,0-0.2-0.1-0.3
		c0.1-0.1,0.1-0.2,0.1-0.3c0.3,0,0.5-0.2,0.8-0.4C86.4,90.3,86.5,90.5,86.4,90.9z M80.6,53.7c0.4-0.1,1.6,0.3,1.3-0.3
		c-0.3-0.7,0.2-0.4,0.4-0.3c0.3,0.2,0.6,0.2,0.3,0.7c-0.2,0.4,0,0.8,0,1.3c0,0.1,0,0.3-0.1,0.4c-0.2,0.3-0.2,0.7-0.2,1
		c0,0.2,0.1,0.3,0.1,0.5c0,0.1,0.1,0.1,0.1,0.2l0.1,0.1h0.1c0.3,0.2,0.2,0.5-0.2,0.5c-0.5,0-1.2-1.1-2.4-0.3
		c-1.2,0.8-3.2,4.1-3.2,12.4c-0.1,8.2,2.4,10.4,3,11.4c0.3,0.4,0.6,0.9,0.9,1.2l-0.4,1.2c-3.3-1.3-5.2-5.9-5.3-15.5
		c0-2,0.2-5.9,1.1-7c1.2-1.7,0.7-1.9,1.3-2.6c0.6-0.7,2-1.6,2-2.3s0.3-1.9,0.8-1.9C80.8,54.3,80.2,53.8,80.6,53.7z M85.8,49.7
		c0.8,1.1,1.1,0.8,1.6,1.2c0.2,0.1,0.3,0.3,0.3,0.4c0,0.6,0.1,1.3,0,2.1c-0.1,0.3,0,0.6-0.1,0.8l-0.5-0.5c-0.2-0.2-0.4-0.3-0.6-0.4
		c-0.2-0.2-0.5-0.2-1.1-0.1h-0.1c-0.1,0-0.3,0.1-0.4,0.1h-0.1c-0.2,0-0.4,0-0.6,0C84,53.1,83.9,53,83.7,53c-0.1-0.2-0.1-0.4-0.1-0.6
		c0-0.9,1.2-1.9,1.1-2.3C84.7,49.6,85,48.6,85.8,49.7z M85.4,46.5c0.5-0.7,0.9-0.3,1.4,0c0.6,0.3,1.2,2,1.4,2.4
		c0.1,0.2,0.1,0.4,0.1,0.6c-0.2,0.1-0.4,0.4-0.4,0.5s-0.1,0.3-0.1,0.4c-0.2-0.2-0.4-0.2-0.5-0.3c-0.1,0-0.2-0.1-0.3-0.1
		c-0.2-0.1-0.4-0.2-0.7-0.7c-0.2-0.3-0.5-0.6-0.7-0.6c-0.1,0-0.3-0.1-0.4,0C84.6,48.1,84.9,47.2,85.4,46.5z M83.7,53.8
		c0.4,0.5,0.8,0.3,1.2,0.2c0.5-0.1,1.2-0.4,1.7,0.2c0.5,0.6,1.1,0.8,1.3,1.3c0.2,0.6,0.6,0.9,0.8,1.3c0.2,0.3,0.2,0.7,0.2,0.7
		s-2.1,0.6-2.6,0.1s-0.9-0.8-1.5-0.4c-0.6,0.4-0.8,0.2-1.4,0c-0.1-0.2-0.2-0.3-0.4-0.3c-0.1-0.1-0.1-0.2-0.1-0.4
		c0-0.3,0-0.6,0.1-0.6c0.1-0.2,0.2-0.5,0.2-0.7c0-0.1,0-0.2,0-0.2C83.3,54.2,83.3,53.3,83.7,53.8z M92.7,61.4
		c-0.7,0.8-1.5,2.4-1.8,3.6c-0.2,0.8-0.5,2.1-0.7,2.3c-0.1,0.3,0-1.3-0.1-2.4c0-0.4-0.1-0.6-0.4-0.7c-0.2,0-0.6-0.2-0.7-0.2
		c-0.3,0.1-0.6-0.2-0.7-0.1c-0.6-0.2-1.3-1.1-1-1.8c0.3-0.9,1.6-0.4,1.6,0.2c0,0.6,1.1,1.2,1.3,0.6c0.2-0.6,0.5-0.4,0.9-0.5
		c0.4,0,0.6-0.5,0.5-1s0.9-1.6-0.3-1.2c-1.2,0.4-1-0.2-1-0.2s0.9-0.2,1.3-0.4s1.1-0.5,0.8,0.1C92,60.5,93.3,60.5,92.7,61.4z
		 M86.5,62c-0.8-0.7-1.9-1-3-1.1l-0.1-0.1l0.2-0.1c0.1,0,0.3,0,0.6,0.1c0.2,0.1,0.4,0.1,0.6,0.2c0.2,0.1,0.5,0.1,0.7,0.2
		c0.4,0,0.7-0.1,1-0.2c0,0.1,0,0.2-0.1,0.4C86.3,61.6,86.4,61.8,86.5,62z M85.6,60.6c-0.8-0.1-1.5-0.7-2.2-0.4s-1.5,0.6-1.6,0
		c0-0.6,1.5-0.8,1.8-1.1c0.2-0.2,0.4-0.8,0.7-1.2c0.3,0,0.5-0.1,0.8-0.3c0.1-0.1,0.2-0.1,0.3,0c0.1,0,0.2,0.1,0.4,0.3
		c0.1,0.1,0.2,0.2,0.4,0.3c0.3,0.2,0.7,0.2,1,0.1c0.4,0.2-0.2,0.6-0.1,1C87.1,59.8,86.4,60.6,85.6,60.6z M81.7,61
		c-0.7,0.2-1.4,0.5-1.7,1c-0.6,0.8-0.1,1.4,0.2,1.7c0.2,0.1,0.3,0.3,0.5,0.4c0.1,0,0.1,0.1,0.2,0.1c0.2,0.2,0.2,0.5,0.3,0.7l0.1,0.4
		c0,0.1,0.1,0.3,0.1,0.3c0.1,0.3,0,1.1-0.4,1.5c-0.3,0.3-0.4,0.6-0.4,0.8c-0.5,0.6-1.3,0.1-1.5-0.1s0.2-1,0.3-1.3
		c0.1-0.3,0.8-1.2,0.3-1.1c-0.5,0-0.4-0.4-0.1-0.6c0.2-0.3,0.2-0.5-0.3-0.3s-1,0.4-1,1.1s-0.1,0.7-0.4,0.7c-0.1,0-0.1-0.1-0.1-0.4
		c0.1-1.2,0.3-2.2,0.5-3.1c0.3-1.1,0.7-2,1.1-2.3c0.3-0.3,0.1-0.6-0.2-0.8c0.5-1.1,1-1.7,1.3-1.9s0.6-0.2,0.9-0.1
		c0.2,0.1,0.3,0.2,0.5,0.3c0.1,0.1,0.2,0.1,0.3,0.1s0.2,0.1,0.4,0.1c0.3,0,0.9-0.1,1.1-0.6c0.3,0.2-0.4,0.9-0.9,1.1
		c-0.1,0-0.2,0.1-0.3,0.1c-0.2,0.1-0.4,0.2-0.6,0.3c-0.2,0.2-0.5,0.5-0.5,0.9C81.3,60.6,81.5,60.8,81.7,61z M90.4,59.7
		c-0.2,0.1-0.4,0.2-0.6,0.3c-0.5,0.3-0.6,0.3-1.1,0.1c-0.3-0.1-0.4-0.2-0.8-0.2c-0.3,0-0.7,0.2-0.7-0.2c0-0.2,0.2-0.6,0.3-0.8
		c0.1-0.4-0.1-0.6,0.4-0.6c0.6,0,1.1-0.3,1.4,0.2l0,0c0.3,0.1,0.5,0.3,0.7,0.5c0.2,0.1,1,0.3,0.8,0.5C91,59.6,90.5,59.6,90.4,59.7z
		 M39.1,72.7c-0.4,0.3-0.8,1.4-1,1.7c-0.2,0.3-0.3,0.7-0.3,1s-0.2,0.2-0.4,0.1s-0.6-0.2-0.2-0.4c0.3-0.2,0.7-0.9,1-1.5
		s0.3-1.3,0.3-1.3s0-0.1,0.4,0.1C39.2,72.4,39.5,72.4,39.1,72.7z M39.4,72c-0.3,0.2-0.6,0.1-0.4-0.5c0.2-0.6,0.9-1,1.2-1.5
		s0.2-1.1,0.6-1.3c0.3-0.2,0.7,0,0.7-0.5c0-0.4,0.6-1,0.8-0.6c0,0.4,0.2,0.8,0.3,1.1c0.2,0.5,0.3,0.9,0.4,1.1c0,0.1,0.1,0.2,0.1,0.4
		c0,0.1-0.1,0.3-0.2,0.5c-0.2,0.5-0.5,1-0.8,1.6c-0.2,0.3-0.4,0.7-0.6,1c0.3-0.6,0.6-1.4,0.3-1.5c-0.5-0.1-1.7-0.2-1.2-0.8
		c0.5-0.6,1.5-1.5,1.3-1.7c-0.2-0.3-1,0.1-1.2,0.5C40.6,70,39.7,71.8,39.4,72z M51.3,71.7c-0.2,0.7-0.1,1.5-0.5,2.1
		s-0.8,0.8-0.6,1.5c0.2,0.6,1,1.8,0.5,4.9s-1.3,3.5-0.9,4.1c0.3,0.6,0.5-0.2,0.7,0.1c0.2,0.3,0.2,0.9,0,1.3
		c-0.4,0.5-0.4,0.9-0.8,0.9c-0.5,0-0.3-0.7-1-0.2s-1.6,1.2-1.9,0.8c-0.3-0.3,1-1.5,0.6-1.7c-0.4-0.3-0.1-1.8,0.2-2.7
		s0.7-4.9,0.2-5.2c-0.5-0.3-0.2-1.7-0.6-1.9c-0.4-0.2,0.1-0.6,0.1-0.6S45.9,74.2,46,73c0-1.3,0.7-2.7,1.6-2.8
		c0.9-0.1,1.1,0.4,1.5,0.3c0.4,0,0.3-0.8,1.2-0.5C51.1,70.3,51.5,71,51.3,71.7z M52.9,70.3c-0.5,0.5-0.8,0.8-1,0.9
		c0-0.8-0.5-1.4-1.3-1.8c-0.4-0.2-0.6-0.3-0.8-0.2c-0.3,0-0.6,0.1-0.8,0.4h-0.2c0,0-0.1,0-0.2-0.1c-0.4-0.4-1.5-0.2-2,0.3
		c-0.9,0.7-1.3,2.1-1.3,3.1c0,0.5,0.1,1,0.4,1.4c-0.2,0.2-0.7,0.4-1,0.4s-2.1,0.9-2.8,1.4s-1.6,1.6-2,1.5c-0.5-0.1,0.8-1.7,1.3-2.4
		c0.5-0.7,2.8-4.4,2.8-5.3c0-1-1.2-1.4-0.9-2.7c0.3-1.3,0.7-2,1.1-2.1c0.4-0.1,0.9-1.3,1.5-1.9c0.6-0.5,2.7-1.7,3.5-1.9
		c1.1-0.2,2,0,2.2,0.1c0.3,0.1,0.7-0.1,0.7-0.1s0.5,0.8,0.7,1.1s0.3,0.7-0.4,1.2s-1.3,1.5-1,2.6c0.4,1.1,0.8,1.6,1.4,2
		C53.3,68.5,53.9,69.3,52.9,70.3z M54.1,59.8c-0.1,1.1-0.2,1.5-0.1,1.6c0.1,0.2,0.1,0.4-0.1,0.2c-0.3-0.2-0.6,0-0.8,0.3
		c-0.2-0.3-0.7-1.1-0.7-1.1c-0.1-0.2-0.5-0.3-0.7-0.1l-0.2,0.1c-0.4-0.1-1.3-0.3-2.5-0.1c-0.3,0.1-0.9,0.3-1.4,0.5
		c0-0.1,0-0.3,0.3-0.5c0.7-0.7,0.8-0.7,0.8-1.4s0.7-1.1,2.1-1.4c1.4-0.2,1.8-0.2,1.8,0c0,0.3-1.1,0.5-1.8,1s-0.8,0.7-0.7,1
		c0.2,0.3,0.5,0.1,0.6-0.3c0.1-0.3,0.8-0.8,1.6-1.1c0.7-0.3,1.1-0.4,1.3-0.2c0.2,0.1-0.8,0.8-0.4,0.8s0.7-0.3,0.7-0.5s0-0.6,0.3-0.9
		c0.3-0.4,0.5-0.3,0.5-0.3S54.1,58.7,54.1,59.8z M56.3,59.5c-0.1,0.8,0,1.3,0,1.3s-0.1-0.1-0.4-0.3c-0.3-0.2-0.7,0.6-1.3,1
		c0-0.1-0.1-0.2-0.1-0.3c0,0,0-0.1,0-0.2c0-0.2,0.1-0.6,0.1-1.2c0-0.5,0.1-1.1,0.3-1.5c0.1-0.4,0.2-0.7,0.2-0.7c0-0.1,0-0.3,0-0.4
		c0.2-0.1,0.4-0.2,0.5,0c0.2,0.2,0.6,0.1,1-0.2s0.6,0,0.6,0s0,0.7-0.3,0.7C56.5,57.8,56.3,58.7,56.3,59.5z M58.4,60.6
		c-0.2,0.3-1,0.6-1.6,0.4c0-0.1,0-0.2,0-0.4c0,0,0-0.1,0-0.3s0-0.5,0-0.8c0-0.4,0.1-0.7,0.2-1.1c0-0.1,0-0.2,0.1-0.2
		c0.2-0.1,0.3-0.3,0.4-0.4c0.1-0.1,0.1-0.3,0.1-0.4c0-0.1,0-0.1,0-0.2c0.1,0,0.2-0.1,0.3-0.2c0.9-0.8,1.3-0.4,1.8,0
		c0.5,0.5-0.1,0.5,0.1,0.8c0.1,0.1,0.4,0.2,0.6,0.1c-0.1,0.1-0.3,0.3-0.5,0.5c-0.1,0.1-0.2,0.3-0.3,0.4c-0.1,0.1-0.1,0.2-0.2,0.3
		c-0.1,0.2-0.3,0.5-0.7,1.1C58.6,60.4,58.5,60.5,58.4,60.6z M74,83c-1.2-0.1-2.2-0.4-3-1.2h-0.1c-2.6,0.2-4.3-1.1-5.4-4.2
		c-1.1-0.6-1.9-1.4-2.6-2.8c-2.4-0.7-4-2.8-4.1-9.5c0-1.4-0.1-4.1,0.5-4.9c0.8-1.2,0.8-1.3,1.2-1.8s1.4-1.1,1.4-1.6s0.2-1.3,0.5-1.3
		s0-0.4,0.2-0.5c0.3,0,1.1,0.2,0.9-0.2c-0.2-0.5,0.1-0.3,0.3-0.2s1.1,0.1,0.9,0.4c-0.1,0.4-0.6,0.6-0.5,1.2c0,0.2,0,0.4-0.1,0.5
		c-0.2,0.2-0.4,0.3-0.6,0.5c-0.2,0.2-0.4,0.4-0.5,0.6c-0.1,0.2-0.2,0.3-0.3,0.4c-0.1,0.2-0.5,0.7-0.6,1L62,59.5
		c-0.1,0.2-0.2,0.3-0.4,0.6c-0.1,0.2-0.3,0.5-0.4,0.8c-0.3,0.3-1.1,0.7-1.1,5.4c0,4.3,1.3,5.6,2.1,6.3c-0.4-1.6-0.6-3.7-0.7-6.5
		c0-1.6-0.1-4.7,0.5-5.7c1-1.3,0.9-1.5,1.4-2.1S65,57,65,56.5s0.2-1.5,0.6-1.5s0-0.5,0.3-0.5c0.3-0.1,1.3,0.3,1-0.3
		c-0.2-0.6,0.1-0.3,0.4-0.2c0.2,0.1,0.9,0.1,1.1,0.3c-0.2,0.2-0.3,0.5-0.4,0.7c-0.2,0.3-0.3,0.5-0.2,0.9c0,0.2,0,0.4-0.1,0.6
		c-0.1,0.1-0.2,0.2-0.4,0.4c-0.2,0.2-0.4,0.4-0.6,0.6c-0.2,0.2-0.4,0.4-0.6,0.6c-0.1,0.2-0.3,0.4-0.4,0.5s-0.2,0.3-0.3,0.5
		c-0.2,0.3-0.4,0.7-1,1.5c-0.2,0.3-0.3,0.6-0.4,1c-0.4,0.5-0.9,1.7-1,5.9c0,4.2,1,5.7,1.8,7c-0.3-1.9-0.5-4.3-0.5-7.1
		c0-1.9-0.2-5.5,0.6-6.6c1.1-1.5,1.1-1.7,1.6-2.4s1.9-1.5,1.9-2.1s0.2-1.8,0.7-1.8s0-0.6,0.3-0.6c0.4-0.1,1.5,0.3,1.2-0.3
		s0.2-0.4,0.4-0.2c0.2,0.1,1.4,0.1,1.3,0.6c-0.2,0.5-0.8,0.8-0.7,1.7v0.1c0,0.1,0,0.3,0,0.4c0,0.2-0.1,0.4-0.2,0.5S71.2,56.9,71,57
		c-0.2,0.2-0.4,0.4-0.6,0.6c-0.2,0.2-0.5,0.4-0.6,0.6l-0.1,0.2c-0.1,0.2-0.6,0.9-0.8,1.3c0,0.1-0.1,0.2-0.2,0.3
		c-0.1,0.2-0.3,0.4-0.5,0.7s-0.3,0.6-0.4,1c-0.4,0.5-1.4,0.9-1.5,7.3c-0.1,7.7,2.2,9.7,2.7,10.6c0.3,0.4,0.8,0.6,1.2,0.7
		c-1.4-2.3-2.1-6.2-2.2-12.5c0-1.9-0.2-5.7,0.6-6.8c1.2-1.6,1.1-1.8,1.7-2.5s2-1.6,2-2.2c0-0.6,0.3-1.9,0.7-1.9c0.5,0,0-0.6,0.3-0.6
		c0.4-0.1,1.5,0.3,1.2-0.3c-0.3-0.7,0.2-0.4,0.4-0.3c0.2,0.2,1.5,0.1,1.3,0.6C76.1,53.9,76,54,76,54.1c-0.1,0.1-0.2,0.3-0.3,0.5
		c-0.1,0.2-0.3,0.5-0.2,0.9c0,0.3-0.1,0.5-0.1,0.7v0.1c-0.2,0.2-0.3,0.4-0.5,0.6c-0.2,0.2-0.5,0.4-0.7,0.6c-0.2,0.2-0.5,0.4-0.6,0.7
		c-0.2,0.2-0.3,0.4-0.4,0.6c-0.1,0.2-0.2,0.3-0.3,0.5c-0.2,0.3-0.5,0.8-1.1,1.6c-0.2,0.3-0.4,0.7-0.5,1.2c-0.5,0.5-1.5,1.1-1.5,7.5
		c-0.1,8,2,10.3,2.6,11.2c0.4,0.6,0.9,0.8,1.4,1.1c0.2,0.4,0.4,0.7,0.6,1.1C74.2,83,74.1,83.1,74,83z M71.4,68.3
		c0-2-0.2-5.9,0.7-7.1c1.2-1.7,1.1-1.9,1.7-2.6c0.6-0.8,2-1.6,2-2.3s0.3-1.9,0.8-1.9s0-0.6,0.3-0.7c0.4-0.1,1.6,0.3,1.3-0.3
		c-0.3-0.7,0.2-0.4,0.4-0.3c0.2,0.1,1.2,0.1,1.3,0.5c0,0.1,0,0.1,0,0.2v0.1c-0.2,0.1-0.3,0.2-0.4,0.4c-0.2,0.2-0.3,0.5-0.3,0.7
		C79,55.5,79,56,79,56.4c0,0,0,0.1-0.1,0.1c-0.1,0.1-0.3,0.3-0.5,0.5s-0.5,0.4-0.7,0.6c-0.2,0.2-0.5,0.4-0.6,0.7
		c-0.2,0.2-0.3,0.5-0.4,0.7s-0.1,0.3-0.2,0.5c-0.1,0.3-0.2,0.7-0.8,1.5c-0.2,0.3-0.3,0.6-0.5,1h-0.1c-0.5-0.4-1.8-0.2-1.8,8
		c-0.1,8.2,2,10.8,2.6,11.7c0.6,0.9,1.8,1.7,2.7,1.4c0.2,0.1,0.3,0.3,0.5,0.5c-0.1,0.1-0.2,0.2-0.4,0.2
		C73.7,85.1,71.5,79.4,71.4,68.3z M86.7,76c-0.4,0.3-0.5,0.7-0.9,1.1c-0.5,0.3-1.4,1.8-2.3,4.8c-1,3-0.9,5.4-0.8,6.5s0,2.4-0.9,2.4
		s-2-0.7-2.9-0.5s-1.6,0.2-1.4-0.4s1-0.5,1.3-0.7s0.9-1.5,1-1.8c3-8.3,2.7-9.9,3-10.5s-0.3-2.2-0.5-2.7c-0.3-0.5,0.4-2,1.1-1.8
		c0.6,0.1,1.5,0.5,2,1c0.5,0.6,0.3,1.1,0.8,1c0.5,0,0.8-0.4,0.9,0C87.1,74.7,87.2,75.7,86.7,76z M89.1,73.4
		c-0.5,1.3,0.4,1.8-0.2,2.1c-0.5,0.3-0.9-1.1-1.5-1.7c-0.1-0.1-0.2-0.1-0.2-0.2c-0.2-0.1-0.3-0.1-0.5,0h-0.1c-0.1,0-0.2,0-0.3,0.1
		h-0.1c0-0.1-0.1-0.2-0.1-0.3c-0.1-0.1-0.2-0.3-0.3-0.5c-0.6-0.7-1.6-1.1-2.3-1.2c-0.1,0-0.2,0-0.3,0c-0.1-0.5-0.2-0.9-0.5-1.2
		c-0.3-0.4-1.3-0.9-1.3-1.4s-0.4-1,0.1-1.7c0.6-0.6,0.6-1.7,0.5-2.1c-0.1-0.2-0.2-1-0.5-1.5c-0.3-0.5-1.6-0.9-1-1.7
		c0.7-1.1,4.8-1.4,6.3,1s0.5,3.6,2.4,4.5c0.5,0.3,0.6,0.8,0.3,1.3C89.1,69.5,89.6,72.1,89.1,73.4z M94.7,69.5
		c-0.7,0.5-1.4,1.3-3.1,3.2c-1.6,1.9-2.1,2.3-2.1,1.6c-0.1-0.6-0.2-0.8,0.1-1.1c0.3-0.3,0.3-1.9,0.2-2.3c0-0.5,0-1.7,0.1-1.9
		c0.1-0.3-0.1-0.9,0.5-1s0.5-1.8,1.3-3.8c0.6-1.4,0.7-2.2,1.8-2.9c0.2-0.2,0.8,0,1.3,0.9c0.2,0.3-0.1,1.3-0.2,1.7
		c0,0.4-0.5,1.7-0.2,2.7c0.1,0.2,0.5,0.7,0.6,1C95.4,67.9,95.5,69,94.7,69.5z M97.1,54c-0.6,0.9-1.6,1.3-2.6,1.5
		c-0.9,0.2-2.1,0.6-2.6-0.1c-0.3-0.4-1.2-1.1-1.2-1.6v-0.2l-0.1-0.5c0.1-0.1,0.4,0.9,0.7,0.4c0.1-0.2,0.2,0.8,0.6,0.5
		c0.2-0.5,0.2,0.6,0.6,0.3c0.1-0.5-0.3-1.8-0.1-2.2c0.3,0.4,0.5,1.5,1,1.9c0-0.2,0.1-0.5,0.1-0.6c0.4,0.1,0.3,0.6,0.7,0.7
		c0-0.3-0.1-0.6,0.1-0.9c0.2,0.1,0.3,0.5,0.6,0.6c0-0.1,0.1-0.8,0.2-0.8c0.2,0.1,0.3,0.5,0.4,0.5c0.1-0.1,0.1-0.7,0.2-0.7
		c0.1,0.1,0.2,0.3,0.3,0.4c0.1-0.1,0.1-0.3,0.2-0.4c0.1-0.6-0.1-1.1,0-1.7c0.4,0.5,0.4,1.5,0.6,2.2c0.1-0.7,0.3-0.1,0.3-0.2
		c0-0.1,0-0.6,0-0.8c0.1-0.1,0.3,0.5,0.4,0.4c0,0,0-0.2,0.1-0.3C97.6,51.1,97.7,53.2,97.1,54z M97.6,40.1c-0.2,0.3-0.1,1.1-0.5,1.7
		c-0.2,0.1-0.4,0.9-0.4,1c-0.1,0.2-0.1,0.8-0.2,1c0,0.2-0.1,0.3-0.1,0.5c0.2,1.1,0.4,2.5,0.6,3.2c0.2,1,0.4,2.8,0,3.8
		c-0.1-0.6-0.4-1.8-0.5-2.4c-0.1-0.4-0.2-0.8-0.4-1.2L96,47.8c0.1,0.4,0.1,1.1,0,1.4c-0.2-0.1-0.4-0.7-0.6-0.9c-0.1,0.3,0,1-0.2,1.3
		c-0.2-0.1-0.5-0.6-0.7-0.7c-0.1,0.3-0.1,0.9-0.1,1.2c-0.1-0.1-0.5-0.6-0.7-0.8c-0.1,0.3,0,0.8-0.2,1.1c-0.3-0.1-0.5-0.7-0.6-0.9
		c-0.2,0.3-0.2,1.2-0.4,1.5c-0.1-0.3-0.3-1.2-0.6-1.5l0,0c-0.2,0.4-0.1,1-0.4,1.3c-0.1-0.4-0.4-0.7-0.4-1.1v-0.1c0-0.1,0-0.3,0-0.4
		c-0.1-0.1-0.3-0.1-0.3-0.2l0,0c0.1,0.6,0.2,1.1,0.3,1.7c0.1,0.6,0.5,1.8,0.6,2.4c-0.8-0.6-1.4-2.3-1.7-3.2
		c-0.3-0.9-0.8-2.2-1.1-3.2c-1-0.8-2.4-1.9-4.1-2.3c-2-0.5-3.4-1.4-3.2-2c0.2-0.6-0.5-0.8-0.5-1.2s-0.3-2,0.1-2.3
		c0.5-0.3,1.8-1.6,1.8-2.9c0-1.3,1.2-1.9,1.7-2.2s1.3-0.3,1.6-0.6c0.3-0.3,0.8-0.6,1.5-0.3c0.6,0.2,0.9-0.4,1.2-0.8
		c0.3-0.4,0.9-0.3,1.2-0.1c0.2,0.2,0.8-0.4,0.8-0.4s0.1,0,1.2-0.1s1.6-0.3,2,0.7c0.5,1,1.9,0.6,2.7,0.5c0.8-0.1,0.8,1.3,0.7,1.9
		C97.7,35.4,98.3,38.8,97.6,40.1z"/>
	<path class="st2" d="M86.5,60.9c-0.2,0.2-0.6,0.3-1,0.2c-0.3,0-0.5-0.1-0.7-0.2c-0.2-0.1-0.4-0.1-0.6-0.2c-0.4-0.1-0.5-0.1-0.6-0.1
		l-0.2,0.1l0.1,0.1c1.1,0.1,2.2,0.5,3,1.1c0-0.2-0.2-0.4,0-0.6C86.5,61.1,86.5,61,86.5,60.9z"/>
	<path class="st2" d="M79.5,56.3c0,0.7-1.4,1.5-2,2.3c-0.6,0.7-0.1,1-1.3,2.6c-0.8,1.2-1.1,5-1.1,7c0.1,9.6,2,14.2,5.4,15.4l0.4-1.2
		c-0.4-0.3-0.7-0.8-0.9-1.2c-0.6-0.9-3-3.1-3-11.4c0.1-8.2,2.1-11.6,3.2-12.4c1.2-0.8,1.9,0.3,2.4,0.3c0.4,0,0.5-0.3,0.2-0.5h-0.1
		l-0.1-0.1c0,0-0.1-0.1-0.1-0.2c-0.1-0.1-0.1-0.3-0.1-0.5c0-0.4,0-0.8,0.2-1c0.1-0.1,0.1-0.3,0.1-0.4c0-0.4-0.2-0.9,0-1.3
		c0.2-0.5-0.1-0.6-0.3-0.7c-0.3-0.2-0.7-0.4-0.4,0.3c0.3,0.7-0.9,0.2-1.3,0.3s0.2,0.7-0.3,0.7C79.7,54.3,79.5,55.6,79.5,56.3z"/>
	<path class="st2" d="M50.2,69.9c-0.9-0.3-0.8,0.4-1.2,0.5c-0.4,0-0.5-0.5-1.5-0.3c-1,0.1-1.6,1.5-1.6,2.8s1.3,2.1,1.3,2.1
		s-0.5,0.4-0.1,0.6s0.1,1.7,0.6,1.9c0.5,0.3,0.1,4.3-0.2,5.2c-0.3,0.9-0.6,2.5-0.2,2.7c0.4,0.3-0.9,1.4-0.6,1.7
		c0.3,0.3,1.3-0.4,1.9-0.8c0.7-0.5,0.5,0.3,1,0.2c0.5,0,0.5-0.5,0.7-0.9c0.2-0.5,0.2-1,0-1.3s-0.4,0.5-0.7-0.1s0.5-1,0.9-4.1
		c0.5-3.1-0.3-4.3-0.5-4.9s0.3-0.9,0.6-1.5s0.3-1.4,0.5-2.1C51.5,71,51.1,70.3,50.2,69.9z"/>
	<path class="st2" d="M83.3,54.8c0,0.1,0,0.2,0,0.2c0,0.2-0.1,0.5-0.2,0.7C83,55.8,83,56.1,83,56.3c0,0.1,0,0.2,0.1,0.4
		c0.1,0.1,0.3,0.2,0.4,0.3c0.6,0.1,0.8,0.4,1.4,0s1-0.1,1.5,0.4s2.6-0.1,2.6-0.1s0-0.4-0.2-0.7s-0.6-0.7-0.8-1.3
		c-0.2-0.4-0.8-0.7-1.3-1.3s-1.2-0.3-1.7-0.2s-0.8,0.3-1.2-0.2C83.3,53.3,83.3,54.2,83.3,54.8z"/>
	<path class="st2" d="M54.1,57.7c-0.3,0.4-0.3,0.8-0.3,0.9c0,0.2-0.3,0.5-0.7,0.5s0.6-0.7,0.4-0.8s-0.6,0-1.3,0.2
		c-0.7,0.3-1.5,0.7-1.6,1.1c-0.1,0.3-0.4,0.6-0.6,0.3c-0.2-0.3,0-0.5,0.7-1s1.7-0.7,1.8-1c0-0.3-0.4-0.3-1.8,0
		c-1.4,0.2-2.1,0.7-2.1,1.4s-0.1,0.7-0.8,1.4c-0.3,0.3-0.4,0.4-0.3,0.5c0.5-0.3,1.1-0.5,1.4-0.5c1.2-0.2,2.1,0,2.5,0.1
		c0,0,0.1,0,0.2-0.1c0.2-0.1,0.6-0.1,0.7,0.1c0,0,0.5,0.7,0.7,1.1c0.2-0.3,0.5-0.5,0.8-0.3s0.2,0,0.1-0.2c-0.1-0.2,0-0.5,0.1-1.6
		s0.5-2.3,0.5-2.3S54.4,57.4,54.1,57.7z"/>
	<path class="st2" d="M41.9,69.2c0.2,0.3-0.8,1.1-1.3,1.7s0.7,0.7,1.2,0.8c0.3,0.1,0,0.9-0.3,1.5c0.2-0.3,0.4-0.6,0.6-1
		c0.3-0.5,0.6-1.1,0.8-1.6c0.1-0.2,0.2-0.4,0.2-0.5c0-0.2,0-0.3-0.1-0.4c-0.1-0.2-0.3-0.6-0.4-1.1c-0.2-0.3-0.3-0.6-0.3-1.1
		c-0.3-0.5-0.8,0.2-0.8,0.6s-0.4,0.3-0.7,0.5s-0.3,0.9-0.6,1.3c-0.3,0.5-0.9,0.9-1.2,1.5s0,0.6,0.4,0.5c0.3-0.2,1.2-1.9,1.4-2.3
		C40.9,69.4,41.8,69,41.9,69.2z"/>
	<path class="st2" d="M52.7,68.1c-0.6-0.4-1-0.9-1.4-2s0.3-2.1,1-2.6s0.6-0.9,0.4-1.2C52.5,62,52,61.2,52,61.2s-0.4,0.2-0.7,0.1
		c-0.3-0.1-1.1-0.3-2.2-0.1c-0.8,0.1-2.8,1.3-3.5,1.9c-0.6,0.5-1.1,1.8-1.5,1.9s-0.8,0.7-1.1,2.1c-0.3,1.3,0.9,1.8,0.9,2.7
		c0,0.9-2.3,4.6-2.8,5.3c-0.5,0.7-1.8,2.3-1.3,2.4s1.3-1,2-1.5s2.5-1.4,2.8-1.4c0.2,0,0.8-0.2,1-0.4c-0.2-0.4-0.4-0.8-0.4-1.4
		c0-1,0.5-2.4,1.3-3.1c0.5-0.5,1.6-0.7,2-0.3c0.1,0,0.1,0,0.2,0.1h0.2c0.2-0.2,0.5-0.4,0.8-0.4c0.2-0.1,0.4,0,0.8,0.2
		c0.8,0.3,1.3,1,1.3,1.8c0.2-0.2,0.5-0.5,1-0.9C53.9,69.3,53.3,68.5,52.7,68.1z"/>
	<path class="st2" d="M81.7,59.3c0.2-0.1,0.4-0.3,0.6-0.3c0.1,0,0.2-0.1,0.3-0.1c0.5-0.2,1.1-0.9,0.9-1.1c-0.2,0.6-0.7,0.7-1.1,0.6
		c-0.1,0-0.3-0.1-0.4-0.1s-0.2-0.1-0.3-0.1c-0.1-0.1-0.3-0.2-0.5-0.3c-0.3-0.1-0.6-0.1-0.9,0.1c-0.3,0.2-0.8,0.8-1.3,1.9
		c0.2,0.2,0.5,0.5,0.2,0.8c-0.4,0.4-0.8,1.2-1.1,2.3c-0.2,0.9-0.4,1.9-0.5,3.1c0,0.3,0.1,0.4,0.1,0.4c0.2,0,0.3-0.1,0.4-0.7
		c0-0.7,0.5-0.9,1-1.1s0.6,0,0.3,0.3c-0.2,0.2-0.4,0.7,0.1,0.6c0.5,0-0.1,0.9-0.3,1.1c-0.1,0.3-0.6,1.1-0.3,1.3
		c0.2,0.2,1,0.6,1.5,0.1c0-0.3,0.2-0.6,0.4-0.8c0.4-0.4,0.5-1.3,0.4-1.5c0-0.1-0.1-0.2-0.1-0.3L81,65.1c-0.1-0.3-0.1-0.5-0.3-0.7
		c0,0-0.1-0.1-0.2-0.1c-0.2-0.1-0.4-0.3-0.5-0.4c-0.3-0.3-0.8-0.9-0.2-1.7c0.3-0.5,0.9-0.8,1.7-1c-0.2-0.1-0.4-0.3-0.4-0.7
		C81.2,59.8,81.5,59.5,81.7,59.3z"/>
	<path class="st2" d="M85.6,90.5c0,0.1,0,0.2-0.1,0.3c0.1,0.1,0.1,0.1,0.1,0.3c-0.1,0.3-0.1,0.5-0.1,0.5s0.7-0.1,1-0.7
		c0.1-0.3,0.1-0.6,0-0.7C86.1,90.3,85.9,90.4,85.6,90.5z"/>
	<path class="st2" d="M83.7,53.1c0.1,0,0.3,0.1,0.5,0.3c0.1,0,0.3,0,0.6,0h0.1c0.1,0,0.2-0.1,0.4-0.1h0.1c0.6-0.2,0.9-0.1,1.1,0.1
		c0.2,0.1,0.4,0.2,0.6,0.4l0.7,0.5c0.1-0.2,0-0.6,0.1-0.8c0-0.7-0.1-1.5,0-2.1c-0.1-0.1-0.2-0.3-0.3-0.4c-0.5-0.4-0.8-0.1-1.6-1.2
		c-0.8-1.1-1.1,0-1.1,0.4c0,0.5-1.1,1.5-1.1,2.3C83.6,52.7,83.6,52.9,83.7,53.1z"/>
	<path class="st2" d="M91.4,59.7c-0.4,0.2-1.3,0.4-1.3,0.4s-0.2,0.5,1,0.2c1.2-0.4,0.2,0.8,0.3,1.2c0.1,0.5-0.1,0.9-0.5,1
		c-0.4,0-0.6-0.1-0.9,0.5c-0.2,0.6-1.4,0-1.3-0.6c0-0.6-1.3-1.2-1.6-0.2c-0.2,0.7,0.4,1.5,1,1.8c0.1,0,0.5,0.2,0.7,0.1
		c0.2,0,0.5,0.1,0.7,0.2c0.3,0,0.4,0.2,0.4,0.7c0.1,1,0.1,2.6,0.1,2.4c0.2-0.2,0.6-1.5,0.7-2.3c0.2-1.3,1.1-2.8,1.8-3.6
		c0.7-0.8-0.6-0.9-0.4-1.5C92.5,59.2,91.8,59.5,91.4,59.7z"/>
	<path class="st2" d="M85.6,48.7c0.3,0.1,0.5,0.3,0.7,0.6c0.4,0.5,0.6,0.6,0.7,0.7c0.1,0,0.2,0.1,0.3,0.1c0.1,0.1,0.3,0.1,0.5,0.3
		c0-0.1,0.1-0.3,0.1-0.4c0-0.1,0.1-0.3,0.4-0.5c0-0.2,0-0.4-0.1-0.6c-0.2-0.4-0.8-2.1-1.4-2.4c-0.6-0.3-0.9-0.7-1.4,0
		s-0.8,1.6-0.3,2.1C85.3,48.6,85.4,48.6,85.6,48.7z"/>
	<path class="st2" d="M87,59.2c0-0.4,0.5-0.8,0.1-1c-0.3,0-0.7,0-1-0.1c-0.1,0-0.3-0.1-0.4-0.3c-0.2-0.2-0.3-0.3-0.4-0.3
		s-0.1,0-0.3,0c-0.3,0.2-0.6,0.3-0.8,0.3c-0.3,0.4-0.4,0.9-0.7,1.2c-0.3,0.4-1.9,0.5-1.8,1.1c0,0.6,0.8,0.3,1.6,0
		c0.7-0.3,1.3,0.3,2.2,0.4C86.4,60.6,87.1,59.8,87,59.2z"/>
	<path class="st2" d="M72.2,80.9c-0.6-0.9-2.7-3.2-2.6-11.2c0-6.4,1.1-7.1,1.5-7.5c0.1-0.5,0.3-0.9,0.5-1.2c0.6-0.8,0.9-1.3,1.1-1.6
		c0.1-0.2,0.2-0.3,0.3-0.5c0.1-0.2,0.2-0.3,0.4-0.6c0.2-0.2,0.4-0.5,0.6-0.7s0.5-0.4,0.7-0.6c0.2-0.2,0.4-0.4,0.5-0.6v-0.1
		c0-0.2,0-0.5,0.1-0.7c0-0.4,0.1-0.6,0.2-0.9c0.1-0.2,0.2-0.3,0.3-0.5c0.1-0.1,0.1-0.2,0.2-0.3c0.2-0.5-1-0.5-1.3-0.6
		c-0.3-0.2-0.7-0.4-0.4,0.3c0.3,0.7-0.8,0.2-1.2,0.3c-0.4,0.1,0.1,0.6-0.3,0.6c-0.5,0-0.8,1.2-0.7,1.9c0,0.6-1.4,1.5-2,2.2
		s-0.5,0.9-1.7,2.5c-0.8,1.1-0.7,4.9-0.6,6.8c0.1,6.2,0.8,10.2,2.2,12.5c0.2,0.1,0.3,0.1,0.5,0.2c0.2,0.4,0.4,0.8,0.6,1.1l0,0
		c0.8,0.7,1.9,1.1,3,1.2c0.1,0,0.2,0,0.2,0c-0.2-0.3-0.5-0.7-0.6-1.1C73.1,81.6,72.6,81.5,72.2,80.9z"/>
	<path class="st2" d="M79,83.5c-0.1-0.1-0.3-0.3-0.5-0.5c-0.9,0.3-2.1-0.5-2.7-1.4s-2.7-3.5-2.6-11.7c0.1-8.3,1.4-8.5,1.8-8h0.1
		c0.1-0.4,0.3-0.8,0.5-1c0.6-0.8,0.7-1.2,0.8-1.5c0.1-0.2,0.1-0.4,0.2-0.5c0.1-0.2,0.2-0.4,0.4-0.7c0.2-0.2,0.4-0.5,0.6-0.7
		s0.5-0.4,0.7-0.6c0.2-0.2,0.4-0.4,0.5-0.5c0-0.1,0.1-0.1,0.1-0.1c0-0.4,0.1-0.9,0.2-1.4c0.1-0.2,0.2-0.5,0.3-0.7
		c0.1-0.1,0.2-0.3,0.4-0.4v-0.1c0-0.1,0-0.1,0-0.2c-0.1-0.3-1.1-0.3-1.3-0.5c-0.3-0.2-0.7-0.4-0.4,0.3c0.3,0.7-0.9,0.2-1.3,0.3
		s0.2,0.7-0.3,0.7s-0.8,1.3-0.8,1.9c0,0.7-1.4,1.5-2,2.3c-0.6,0.7-0.5,0.9-1.7,2.6c-0.8,1.2-0.7,5.1-0.7,7.1
		c0.1,11.2,2.3,16.8,7.3,15.4C78.8,83.7,79,83.6,79,83.5z"/>
	<path class="st2" d="M86.1,74.4c-0.5,0-0.4-0.5-0.8-1c-0.5-0.6-1.4-0.9-2-1s-1.3,1.3-1.1,1.8c0.3,0.5,0.8,2.2,0.5,2.7
		c-0.3,0.6,0,2.2-3,10.5c-0.1,0.3-0.7,1.6-1,1.8c-0.3,0.2-1.1,0.1-1.3,0.7c-0.2,0.6,0.6,0.6,1.4,0.4c0.9-0.2,2,0.5,2.9,0.5
		s1-1.3,0.9-2.4s-0.1-3.5,0.8-6.5c1-3,1.9-4.4,2.3-4.8c0.5-0.3,0.5-0.7,0.9-1.1c0.4-0.3,0.3-1.2,0.3-1.6
		C86.9,74,86.6,74.4,86.1,74.4z"/>
	<path class="st2" d="M63,67.7c0-4.2,0.6-5.4,1-5.9c0.1-0.4,0.2-0.7,0.4-1c0.5-0.7,0.8-1.2,1-1.5c0.1-0.2,0.2-0.3,0.3-0.5
		c0.1-0.1,0.2-0.3,0.4-0.5c0.2-0.2,0.4-0.4,0.6-0.6c0.2-0.2,0.4-0.4,0.6-0.6c0.2-0.2,0.3-0.3,0.4-0.4c0.1-0.2,0.1-0.4,0.1-0.6
		c0-0.4,0.1-0.6,0.2-0.9c0.1-0.2,0.2-0.5,0.4-0.7c-0.2-0.2-0.9-0.2-1.1-0.3s-0.6-0.3-0.4,0.2c0.2,0.6-0.7,0.2-1,0.3s0.1,0.5-0.3,0.5
		s-0.6,1-0.6,1.5s-1.2,1.2-1.6,1.8c-0.5,0.6-0.4,0.8-1.4,2.1c-0.7,0.9-0.6,4-0.5,5.7c0,2.7,0.3,4.8,0.7,6.5c0.3,0.2,0.5,0.4,0.6,0.5
		c0,0.1,0.1,0.1,0.1,0.2c0.1,0.5,0.2,1,0.4,1.4c-0.1,0-0.3-0.1-0.4-0.1c0.7,1.4,1.5,2.3,2.6,2.8c-0.3-0.9-0.5-1.9-0.7-3
		C64,73.4,63,71.9,63,67.7z"/>
	<path class="st2" d="M89.1,67.7c-1.8-1-0.9-2.2-2.4-4.5c-1.5-2.4-5.6-2.1-6.3-1c-0.6,0.8,0.7,1.2,1,1.7s0.4,1.2,0.5,1.5
		c0.2,0.4,0.1,1.5-0.5,2.1s-0.2,1.1-0.1,1.7c0,0.5,1,1.1,1.3,1.4s0.4,0.7,0.5,1.2c0.1,0,0.2,0,0.3,0c0.7,0.1,1.7,0.5,2.3,1.2
		c0.1,0.2,0.2,0.3,0.3,0.5c0.1,0.1,0.1,0.2,0.1,0.3h0.1c0.1,0,0.2-0.1,0.3-0.1h0.1c0.1-0.1,0.3-0.1,0.5,0c0,0,0.1,0.1,0.2,0.2
		c0.5,0.6,0.9,1.9,1.5,1.7c0.6-0.3-0.3-0.8,0.2-2.1c0.5-1.3,0-3.9,0.3-4.4C89.7,68.5,89.6,68,89.1,67.7z"/>
	<path class="st2" d="M60.1,66.6c0-4.7,0.8-5,1.1-5.4c0.1-0.3,0.2-0.6,0.4-0.8s0.3-0.4,0.4-0.6l0.1-0.1c0.1-0.3,0.5-0.8,0.6-1
		c0.1-0.1,0.2-0.3,0.3-0.4c0.2-0.2,0.4-0.4,0.5-0.6c0.2-0.2,0.4-0.3,0.6-0.5c0.1-0.2,0.1-0.4,0.1-0.5c0-0.6,0.4-0.9,0.5-1.2
		s-0.7-0.3-0.9-0.4c-0.2-0.1-0.5-0.3-0.3,0.2s-0.6,0.2-0.9,0.2c-0.3,0,0.1,0.5-0.2,0.5s-0.5,0.9-0.5,1.3c0,0.5-1,1.1-1.4,1.6
		s-0.4,0.6-1.2,1.8c-0.6,0.8-0.5,3.5-0.5,4.9c0.1,6.7,1.6,8.7,4.1,9.5c-0.3-0.6-0.5-1.3-0.7-2.1C61.3,72.2,60.1,70.8,60.1,66.6z"/>
	<path class="st2" d="M62.9,73.5c0-0.1-0.1-0.1-0.1-0.2c-0.1-0.1-0.3-0.3-0.6-0.5c0.2,0.8,0.4,1.5,0.7,2.1c0.1,0,0.2,0.1,0.4,0.1
		C63.1,74.5,63,74.1,62.9,73.5z"/>
	<path class="st2" d="M84.7,90.8c0.3-0.2,0.3-0.3,0.1-0.4c-0.2-0.1-1.2-0.2-1-0.7c0.2-0.4,0.6-0.2,1.2,0.1c0.6,0.3,1.2-0.1,1.6-0.9
		s0.1-1.4,0.4-2.4c0.2-1,1.9-3.6,3.1-6.4s2.5-3.7,3.2-4.3c0.7-0.6,1.5-1.8,1.8-2.8S95,71.5,95,71.1c0-0.3-0.1-0.6-0.3-0.8
		C93.9,71.1,92.9,72,92,73c-0.8,0.9-1.4,1.6-1.8,1.9c-0.2,0.2-0.5,0.3-0.6,0.3c0,0.3-0.3,0.6-0.6,0.8c-0.5,0.3-0.9,0-1.1-0.2
		c-0.2-0.1-0.3-0.3-0.4-0.5v0.2c0.1,0.2,0.1,0.3,0.1,0.4c-0.1,0.3-0.4,1.4-0.3,2c0.1,0.7,0.1,2-0.8,4.5s-1.4,3-1.6,3.8
		c-0.2,0.7-0.8,1.7-1.3,2.1c-0.2,0.2-0.4,0.4-0.5,0.6c0,0.3,0,0.7-0.1,1c-0.1,0.6-0.6,1.3-1.4,1.3c-0.1,0-0.2,0-0.4,0
		c-0.1,0.2-0.2,0.4-0.3,0.7c-0.1,0.2-0.2,0.5-0.2,0.6c-0.1,0.6-0.2,2-0.1,3.4c0.8-1.2,1.9-1.8,2.9-1.8c0.3-0.8,0.7-2.3,0.7-2.6
		C84.2,91.3,84.5,90.9,84.7,90.8z"/>
	<path class="st2" d="M79.7,99.6c0-1,0.2-1.8,0.5-2.5c0-0.1,0-0.1,0-0.2c-0.2-1.8-0.1-3.5,0-4.3c0.1-0.5,0.5-1.1,0.6-1.4
		c-0.2-0.1-0.5-0.1-0.7-0.2s-0.5-0.1-0.7-0.2c-0.2,0-0.3,0-0.5,0c-0.2,0.1-0.5,0.1-0.7,0.1c-0.4,0.3-0.8,0.8-1,1.1
		c-0.3,0.6,0.3,1.1,0.6,2.1c0.3,1.1,0.2,2,0.6,3.6c0.2,0.8,0.2,2,0.2,3.2C79.3,100.7,79.7,100.2,79.7,99.6z"/>
	<path class="st2" d="M94.6,66.6c-0.4-1.1,0.1-2.4,0.2-2.7c0-0.4,0.4-1.4,0.2-1.7c-0.6-0.9-1.1-1-1.3-0.9c-1.1,0.7-1.3,1.5-1.8,2.9
		c-0.8,2-0.7,3.7-1.3,3.8c-0.6,0.1-0.4,0.7-0.5,1S90,70.4,90,70.9s0,2-0.2,2.3c-0.3,0.4-0.2,0.5-0.1,1.1s0.5,0.3,2.1-1.6
		s2.3-2.7,3.1-3.2c0.7-0.5,0.6-1.6,0.5-1.9C95.1,67.3,94.7,66.8,94.6,66.6z"/>
	<path class="st2" d="M69.9,80.5c-0.4-0.2-1-0.3-1.2-0.7c-0.5-0.8-2.8-2.9-2.7-10.6c0-6.4,1.1-6.8,1.5-7.3c0.1-0.4,0.3-0.7,0.4-1
		c0.2-0.3,0.4-0.5,0.5-0.7c0.1-0.1,0.1-0.2,0.2-0.3c0.2-0.4,0.7-1.2,0.8-1.3l0.1-0.2c0.2-0.2,0.4-0.5,0.6-0.6
		c0.2-0.2,0.4-0.4,0.6-0.6c0.1-0.1,0.3-0.2,0.4-0.3s0.1-0.3,0.2-0.5c0-0.1,0-0.2,0-0.4v-0.1c-0.1-0.9,0.5-1.2,0.7-1.7
		s-1-0.5-1.3-0.6s-0.7-0.4-0.4,0.2c0.3,0.6-0.8,0.2-1.2,0.3c-0.4,0.1,0.1,0.6-0.3,0.6c-0.5,0-0.7,1.2-0.7,1.8s-1.3,1.4-1.9,2.1
		c-0.5,0.7-0.5,0.9-1.6,2.4c-0.8,1.1-0.6,4.7-0.6,6.6c0,2.8,0.2,5.1,0.5,7.1c0.2,0.3,0.4,0.7,0.5,1c0.2,1,0.6,1.4,0.9,2.2
		c-0.2-0.1-0.4-0.2-0.6-0.3c1.1,3.1,2.8,4.4,5.4,4.2h0.1C70.6,81.5,70.2,81.1,69.9,80.5z"/>
	<path class="st2" d="M70.4,80.8c-0.1-0.1-0.3-0.1-0.5-0.2c0.3,0.5,0.7,1,1.1,1.3l0,0C70.8,81.5,70.6,81.1,70.4,80.8z"/>
	<path class="st2" d="M65.2,75.8c-0.1-0.4-0.3-0.7-0.5-1c0.2,1.1,0.4,2.1,0.7,3c0.2,0.1,0.4,0.2,0.6,0.3
		C65.9,77.2,65.4,76.7,65.2,75.8z"/>
	<path class="st2" d="M59.5,59.2c0.1-0.1,0.1-0.2,0.2-0.3c0.1-0.1,0.2-0.2,0.3-0.4s0.3-0.3,0.5-0.5c-0.2,0-0.5,0-0.6-0.1
		c-0.2-0.3,0.4-0.3-0.1-0.8s-0.9-0.9-1.8,0c-0.1,0.1-0.2,0.1-0.3,0.2c0,0.1,0,0.1,0,0.2c0,0.1-0.1,0.3-0.1,0.4
		c-0.1,0.1-0.2,0.3-0.4,0.4c0,0,0,0.1-0.1,0.2c-0.1,0.3-0.2,0.7-0.2,1.1c0,0.3,0,0.6,0,0.8s0,0.3,0,0.3c0,0.2,0,0.3,0,0.4
		c0.6,0.1,1.4-0.1,1.6-0.4c0.1-0.1,0.2-0.2,0.4-0.3C59.2,59.7,59.4,59.4,59.5,59.2z"/>
	<path class="st2" d="M37.1,75.8c-0.4-0.1-0.4,0-0.4,0s0,0.5-0.1,1.1c0.1,0,0.2,0,0.3,0.1c0.1-0.4,0.3-0.7,0.5-0.9
		C37.8,75.7,37.5,75.9,37.1,75.8z"/>
	<path class="st2" d="M38.8,72.3c-0.3-0.1-0.3-0.1-0.3-0.1s-0.1,0.7-0.3,1.3c-0.3,0.6-0.7,1.3-1,1.5s0,0.4,0.2,0.4
		c0.2,0.1,0.4,0.2,0.4-0.1c0-0.3,0.1-0.6,0.3-1c0.2-0.3,0.6-1.4,1-1.7C39.5,72.4,39.2,72.4,38.8,72.3z"/>
	<path class="st2" d="M50.8,90c0.3,0,0.5-0.4,0.5-0.8s0.6-0.9,0.8-1.3c0.3-0.4-0.4-0.8-0.3-1.1c0-0.4,0.6-1.6,0.8-1.7
		c0.3-0.1,0.5-0.6,0.4-0.8c-0.1-0.2-0.5-0.6,0.2-2.6c0.8-2,1.6-5.8,1.7-7.6c0.1-1.8-0.4-2.4-0.2-2.9s0.1-0.9-0.3-1.6
		c-0.1-0.2-0.3-0.2-0.4-0.1c-0.1,0.4-0.3,0.7-0.7,1.1c-0.5,0.5-0.8,0.8-1.1,1c-0.1,0.1-0.3,0.2-0.4,0.2c0,0.1-0.1,0.3-0.1,0.4
		c0,0.2,0,0.4-0.1,0.6c0,0.4-0.1,0.8-0.4,1.3c-0.1,0.2-0.2,0.3-0.3,0.5c-0.1,0.1-0.1,0.2-0.3,0.4c0,0.1,0.1,0.3,0.1,0.5
		c0.1,0.3,0.3,0.7,0.4,1.3c0.2,0.8,0.2,2,0,3.6s-0.6,2.5-0.8,3.1l-0.1,0.3v0.1c0.3,0,0.5,0.1,0.6,0.3c0.3,0.5,0.3,1.2,0,1.9
		c-0.1,0.2-0.2,0.5-0.3,0.6c-0.2,0.3-0.5,0.6-1,0.7c-0.1,0.2,0.6,0.2,0.9,0.4c0.3,0.1,0.8,0.4,0.7,0.5s-0.3-0.2-0.9-0.3
		c-0.3-0.1-0.5-0.1-0.6-0.1c0.2,0.6,0.1,1.4-0.9,1.9c-0.2,0.1-0.5,0.3-0.8,0.5c-0.2,0.2-0.5,0.4-0.8,0.5c-0.5,0.3-1.1,0.7-1.7,1.2
		l0,0c0.2,0.3,0.4,0.6,0.7,0.8c1.5-1.4,1.9-1.5,2.6-2C49.6,90.2,50.5,89.9,50.8,90z"/>
	<path class="st2" d="M57.1,57c0,0-0.2-0.3-0.6,0c-0.4,0.3-0.8,0.4-1,0.2c-0.1-0.1-0.3-0.1-0.5,0c0,0.1,0.1,0.3,0,0.4
		c0,0-0.1,0.3-0.2,0.7c-0.1,0.4-0.2,1-0.3,1.5c0,0.6-0.1,0.9-0.1,1.2c0,0.1,0,0.2,0,0.2c0,0.1,0.1,0.2,0.1,0.3c0.6-0.4,1-1.2,1.3-1
		s0.4,0.3,0.4,0.3s-0.1-0.6,0-1.3c0.1-0.8,0.3-1.7,0.6-1.7C57.1,57.7,57.1,57,57.1,57z"/>
	<path class="st2" d="M49.1,87.6c-0.2-0.1,0-0.4-0.1-0.6c0,0,0-0.1-0.1-0.1c-0.3,0.2-0.7,0.5-1.1,0.7c-0.2,0.1-0.4,0.2-0.7,0.2
		c-0.2,0-0.4,0-0.6-0.1c-0.1,0-0.2,0-0.2,0s-0.4,0.6-0.8,1.1c-0.1,0.9-0.2,1.7,0,2.5c1.5-1.1,2.7-1.9,3.2-2.2
		C49.5,88.7,49.3,87.9,49.1,87.6z"/>
	<path class="st2" d="M97,32.8c-0.8,0.1-2.2,0.5-2.7-0.5c-0.5-1-1-0.8-2-0.7c-1.1,0.1-1.2,0.1-1.2,0.1s-0.6,0.7-0.8,0.4
		c-0.3-0.2-0.9-0.2-1.2,0.1c-0.3,0.4-0.6,1-1.2,0.8s-1.2,0-1.5,0.3s-1.2,0.4-1.6,0.6c-0.5,0.2-1.7,0.9-1.7,2.2s-1.4,2.5-1.8,2.9
		c-0.5,0.3-0.1,1.9-0.1,2.3s0.7,0.6,0.5,1.2c-0.2,0.6,1.2,1.5,3.2,2c1.7,0.4,3.2,1.5,4.1,2.3c0-0.2-0.1-0.4-0.1-0.5l0.4,0.5
		c-0.1-0.2,0.3-0.4,0.5-0.3c0.2,0.1,0.4,0.5,0.6,0.7c0.3,0.5,0.3,1.2,0.4,1.7c0,0.1,0,0.1,0,0.2l0,0c0,0.1,0.2,0.2,0.3,0.2
		c0.1-1,1.9-0.1,2.3-0.2c0.9-0.1,1.8-0.9,2.5-1.4c0.1,0,0.1,0.1,0.1,0.2l0.1-0.1c-0.1-0.2-0.1-0.5-0.2-0.7c-0.2-0.6-0.5-1.1-0.5-1.7
		c0-0.2,0-0.7,0.2-0.9s0.5-0.3,0.6-0.1v-1.1c0.1,0.2,0.2,0.6,0.3,1c0-0.1,0.1-0.3,0.1-0.5s0.1-0.8,0.2-1c0-0.1,0.2-0.9,0.4-1
		c0.4-0.6,0.4-1.4,0.5-1.7c0.7-1.4,0.1-4.8,0.2-5.4C97.8,34,97.8,32.7,97,32.8z M89,43.9c-1-0.6-1.9-0.4-2.4-0.5
		c-0.4-0.1-1.2-1-1-1.6s0.6-1.6,1.1-2c0.3-0.2,1-0.7,1.9-0.2c0.4,0.3,1.7,1.8,2.2,2.2c0.5,0.5,0.9,1.5,0.5,2.2
		C90.9,44.8,90,44.5,89,43.9z M93.2,48.5c-0.2,0.1-1.2-0.9-1.8-1.8c-0.6-0.8-0.1-1.3,0.4-1.5c0.5-0.3,1.3,0.6,1.5,1.9
		C93.6,48.3,93.4,48.4,93.2,48.5z M95,45.1c-0.2,0.9,0,1.8-0.3,2.5c-0.2,0.7-0.4,0.3-0.5-0.3s-0.9-2.6-0.1-2.9
		C94.5,44,95.2,44.4,95,45.1z M96.1,39.7c-0.6,0.9-0.9,1.3-1.1,2.2s-0.6,0.9-0.9,0.7c-0.3-0.1-0.4-0.7-0.4-1.3s0.2-1.8,0-2.2
		c-0.2-0.5-0.2-1.4,0.6-1.9c0.8-0.5,0.9,0.2,1.4,0.5C96.1,38.1,96.6,38.8,96.1,39.7z"/>
	<path class="st2" d="M91.8,49.5L91.8,49.5L91.8,49.5L91.8,49.5z"/>
	<path class="st2" d="M90,47.8c0,0-0.1-0.1-0.3-0.1c-0.2-0.2-0.3-0.4-0.5-0.6c-0.1-0.1-0.2-0.2-0.4-0.3c0.2,1,0.8,2.3,1,3.2
		c0.3,1,0.9,2.6,1.7,3.2c-0.1-0.6-0.5-1.8-0.6-2.4c-0.1-0.6-0.2-1.1-0.3-1.7c-0.3-0.7-0.2-0.7-0.4-0.9C90.2,48,90.1,47.9,90,47.8z"
		/>
	<path class="st2" d="M90.3,47.1c-0.1-0.2-0.3-0.6-0.6-0.7c-0.3-0.1-0.6,0-0.5,0.3l-0.5-0.5c0,0.1,0.1,0.3,0.1,0.5
		c0.1,0.1,0.2,0.2,0.4,0.3c0.2,0.2,0.4,0.3,0.5,0.6c0.1,0,0.2,0.1,0.3,0.1c0.1,0.1,0.2,0.2,0.3,0.4c0.1,0.2,0,0.2,0.4,0.9
		c0-0.1,0-0.1,0-0.2C90.5,48.3,90.5,47.7,90.3,47.1z"/>
	<path class="st2" d="M96.3,45.4c0.3,1.1,0.2,1.9-0.3,2.5c0.1,0.4,0.2,0.8,0.4,1.2c0.2,0.6,0.4,1.8,0.5,2.4c0.4-1,0.2-2.8,0-3.8
		c-0.1-0.7-0.3-2.2-0.6-3.2C96.3,44.6,96.2,44.9,96.3,45.4z"/>
	<path class="st2" d="M96.1,44.4c0-0.2-0.4-0.1-0.6,0.1c-0.2,0.2-0.2,0.7-0.2,0.9c0,0.6,0.3,1.2,0.5,1.7c0.1,0.2,0.1,0.4,0.2,0.7
		c0.5-0.6,0.6-1.3,0.3-2.5c-0.1-0.5,0-0.7,0-1c-0.1-0.4-0.2-0.8-0.3-1L96.1,44.4z"/>
	<path class="st2" d="M94.1,48.9c-0.5,0.2-1.7,0.5-2.1,0.6h-0.1c0.2,0.3,0.4,1.2,0.6,1.5c0.2-0.3,0.2-1.1,0.4-1.5
		c0.1,0.2,0.4,0.8,0.6,0.9c0.2-0.3,0.1-0.8,0.2-1.1c0.2,0.3,0.5,0.7,0.7,0.8c0.1-0.3,0-0.9,0.1-1.2c0.2,0.1,0.5,0.6,0.7,0.7
		c0.2-0.3,0.1-0.9,0.2-1.3c0.2,0.2,0.4,0.8,0.6,0.9c0.1-0.3,0.1-1,0-1.4c-0.2,0.1-0.4,0.3-0.6,0.4C95.1,48.5,94.9,48.6,94.1,48.9z"
		/>
	<path class="st2" d="M91,49.7L91,49.7c0,0.5,0.3,0.7,0.4,1.2c0.3-0.3,0.2-1,0.4-1.3c-0.2,0-0.6-0.1-0.8-0.2
		C91,49.4,91,49.5,91,49.7z"/>
	<path class="st2" d="M93.3,49.1c-0.4,0.1-2.2-0.8-2.3,0.2c0.3,0.1,0.6,0.2,0.8,0.2l0,0l0,0c0.1,0,0.1,0,0.1,0
		c0.4-0.1,1.6-0.4,2.1-0.6c0.7-0.3,1-0.4,1.2-0.5s0.4-0.3,0.6-0.4c0-0.1-0.1-0.2-0.1-0.2C95,48.2,94.1,48.9,93.3,49.1z"/>
	<path class="st2" d="M97.3,52.5c0,0-0.1,0.2-0.1,0.3c-0.1,0-0.3-0.5-0.4-0.4c0,0.1,0,0.6,0,0.8c0,0-0.2-0.5-0.3,0.2
		c-0.2-0.6-0.2-1.7-0.6-2.2c-0.1,0.5,0.1,1.1,0,1.7c0,0.2-0.1,0.3-0.2,0.4c0.1,0.1,0.2,0.3,0.3,0.4c0.1,0.4-0.4,0.7-0.7,0.9
		c-0.4,0.3-1,0.6-1.5,0.4c-0.2-0.1-0.2-0.2-0.3-0.3c-0.1-0.1-0.3-0.1-0.4-0.2h0.2c-0.1-0.1-0.1-0.2,0-0.4c-0.5-0.4-0.7-1.5-1-1.9
		c-0.2,0.4,0.2,1.7,0.1,2.2c-0.4,0.2-0.5-0.9-0.6-0.3c-0.4,0.3-0.5-0.6-0.6-0.5c-0.3,0.5-0.5-0.5-0.7-0.4l0.1,0.5v0.2
		c0,0.5,0.9,1.2,1.2,1.6c0.6,0.7,1.7,0.3,2.6,0.1c1-0.2,2-0.6,2.6-1.5C97.7,53.2,97.6,51.1,97.3,52.5z"/>
	<path class="st2" d="M95.9,53.2c-0.1-0.1-0.2-0.3-0.3-0.4c0,0-0.1,0.6-0.2,0.7c-0.1,0-0.2-0.4-0.4-0.5c-0.1,0-0.2,0.7-0.2,0.8
		c-0.2-0.1-0.3-0.5-0.6-0.6c-0.1,0.3-0.1,0.6-0.1,0.9c-0.3-0.1-0.3-0.6-0.7-0.7c0,0.1,0,0.4-0.1,0.6c0.1,0.1,0.3,0.2,0.5,0.2
		C94.2,54.1,95.4,53.9,95.9,53.2z"/>
	<path class="st2" d="M93.5,54.4h-0.2c0.1,0.1,0.3,0.1,0.4,0.2c0.1,0.1,0.1,0.2,0.3,0.3c0.5,0.2,1.1-0.1,1.5-0.4
		c0.3-0.2,0.8-0.6,0.7-0.9c0-0.1-0.1-0.3-0.3-0.4c-0.5,0.7-1.7,1-1.9,0.9c-0.2,0-0.4,0-0.5-0.2C93.4,54.2,93.4,54.3,93.5,54.4z"/>
	<path class="st2" d="M90.2,59c-0.2-0.2-0.5-0.4-0.7-0.5c0.2,0.3,0.7,1.2,0.1,1.2l-0.5-1.2c0.1,0,0.2,0,0.3,0l0,0
		c-0.3-0.5-0.8-0.3-1.4-0.3c-0.5,0-0.3,0.1-0.4,0.6c0,0.2-0.3,0.6-0.3,0.8c0,0.4,0.4,0.3,0.7,0.2c0.3,0,0.5,0,0.8,0.2
		c0.4,0.2,0.6,0.2,1.1-0.1c0.2-0.1,0.4-0.2,0.6-0.3c0.1,0,0.5,0,0.6-0.2C91.2,59.3,90.4,59.1,90.2,59z"/>
	<path class="st2" d="M89.1,58.5l0.5,1.2c0.6,0,0.1-0.9-0.1-1.2C89.4,58.5,89.2,58.5,89.1,58.5z"/>
	<g>
		<path class="st1" d="M200.5,31.6h1.1c0.2,0,0.3,0.1,0.3,0.3v21.8c0,0.2-0.1,0.3-0.3,0.3h-1.1c-0.2,0-0.3-0.1-0.3-0.3v-10
			c0-0.1,0-0.1-0.1-0.1h-6.4c-0.1,0-0.1,0-0.1,0.1v10.1c0,0.2-0.1,0.3-0.3,0.3h-1.1c-0.2,0-0.3-0.1-0.3-0.3V31.9
			c0-0.2,0.1-0.3,0.3-0.3h1.1c0.2,0,0.3,0.1,0.3,0.3v10c0,0.1,0,0.1,0.1,0.1h6.4c0.1,0,0.1,0,0.1-0.1v-10
			C200.2,31.7,200.3,31.6,200.5,31.6z"/>
		<path class="st1" d="M214.9,53.8l-0.9-4.2v-0.1h-0.1h-6.3h-0.1v0.1l-0.9,4.2c0,0.2-0.1,0.3-0.4,0.3h-1.1c-0.1,0-0.2,0-0.2-0.1
			s-0.1-0.1,0-0.3l4.9-21.8c0-0.2,0.2-0.3,0.4-0.3h1.3c0.2,0,0.3,0.1,0.4,0.3l4.9,21.8v0.1c0,0.2-0.1,0.3-0.3,0.3h-1.1
			C215,54.1,214.9,54,214.9,53.8z M207.8,48.1h5.7c0.1,0,0.1,0,0.1-0.1l-2.9-13.6c0-0.1,0-0.1-0.1-0.1c0,0,0,0-0.1,0.1L207.6,48
			C207.7,48,207.8,48.1,207.8,48.1z"/>
		<path class="st1" d="M228.7,53.8l-0.9-4.2v-0.1h-0.1h-6.3h-0.1v0.1l-0.9,4.2c0,0.2-0.1,0.3-0.4,0.3h-1.1c-0.1,0-0.2,0-0.2-0.1
			s-0.1-0.1,0-0.3l4.9-21.8c0-0.2,0.2-0.3,0.4-0.3h1.3c0.2,0,0.3,0.1,0.4,0.3l4.9,21.8v0.1c0,0.2-0.1,0.3-0.3,0.3h-1.2
			C228.9,54.1,228.8,54,228.7,53.8z M221.7,48.1h5.7c0.1,0,0.1,0,0.1-0.1l-2.9-13.6c0-0.1,0-0.1-0.1-0.1c0,0,0,0-0.1,0.1L221.5,48
			C221.6,48,221.6,48.1,221.7,48.1z"/>
		<path class="st1" d="M242.3,33.2c0.9,1.1,1.4,2.6,1.4,4.4c0,1.8-0.5,3.3-1.4,4.4c-0.9,1.1-2.1,1.6-3.6,1.6h-3.6
			c-0.1,0-0.1,0-0.1,0.1v10c0,0.2-0.1,0.3-0.3,0.3h-1.1c-0.2,0-0.3-0.1-0.3-0.3V31.9c0-0.2,0.1-0.3,0.3-0.3h5
			C240.2,31.6,241.4,32.1,242.3,33.2z M241,41c0.6-0.8,1-1.9,1-3.3c0-1.4-0.3-2.5-1-3.3c-0.6-0.8-1.5-1.3-2.5-1.3h-3.3
			c-0.1,0-0.1,0-0.1,0.1v8.9c0,0.1,0,0.1,0.1,0.1h3.3C239.5,42.3,240.4,41.8,241,41z"/>
		<path class="st1" d="M247.7,52.8c-0.9-1-1.4-2.4-1.4-4.1V48c0-0.2,0.1-0.3,0.3-0.3h1c0.2,0,0.3,0.1,0.3,0.3v0.6
			c0,1.3,0.3,2.3,0.9,3.1c0.6,0.8,1.5,1.2,2.5,1.2s1.8-0.4,2.5-1.1c0.7-0.8,1-1.7,1-2.9c0-0.8-0.2-1.5-0.5-2.1s-0.7-1.1-1.2-1.5
			s-1.3-1-2.4-1.9c-1.1-0.8-2-1.5-2.6-2.1c-0.6-0.5-1.1-1.2-1.5-2s-0.6-1.7-0.6-2.7c0-1.6,0.5-2.9,1.4-3.9c0.9-0.9,2.1-1.4,3.6-1.4
			c1.6,0,2.8,0.5,3.8,1.6c0.9,1,1.4,2.4,1.4,4.1v0.8c0,0.2-0.1,0.3-0.3,0.3h-1.1c-0.2,0-0.3-0.1-0.3-0.3V37c0-1.3-0.3-2.3-0.9-3.1
			c-0.6-0.8-1.5-1.2-2.5-1.2c-0.9,0-1.7,0.3-2.3,1s-0.9,1.6-0.9,2.8c0,0.7,0.1,1.4,0.4,1.9c0.3,0.5,0.7,1,1.2,1.5s1.3,1.1,2.3,1.9
			c1.3,0.9,2.2,1.7,2.8,2.3s1.1,1.2,1.4,1.9s0.5,1.5,0.5,2.5c0,1.8-0.5,3.2-1.4,4.2c-1,1-2.2,1.6-3.7,1.6
			C249.9,54.4,248.7,53.8,247.7,52.8z"/>
		<path class="st1" d="M268.4,53.8l-0.9-4.2v-0.1h-0.1h-6.3H261v0.1l-0.9,4.2c0,0.2-0.1,0.3-0.4,0.3h-1.1c-0.1,0-0.2,0-0.2-0.1
			s-0.1-0.1,0-0.3l4.9-21.8c0-0.2,0.2-0.3,0.4-0.3h1.3c0.2,0,0.3,0.1,0.4,0.3l4.9,21.8v0.1c0,0.2-0.1,0.3-0.3,0.3h-1.1
			C268.6,54.1,268.5,54,268.4,53.8z M261.4,48.1h5.7c0.1,0,0.1,0,0.1-0.1l-2.9-13.6c0-0.1,0-0.1-0.1-0.1c0,0,0,0-0.1,0.1L261.2,48
			C261.3,48,261.3,48.1,261.4,48.1z"/>
		<path class="st1" d="M273.1,53.8V31.9c0-0.2,0.1-0.3,0.3-0.3h1.1c0.2,0,0.3,0.1,0.3,0.3v20.5c0,0.1,0,0.1,0.1,0.1h7.5
			c0.2,0,0.3,0.1,0.3,0.3v0.9c0,0.2-0.1,0.3-0.3,0.3h-9C273.2,54.1,273.1,54,273.1,53.8z"/>
		<path class="st1" d="M286.8,52.7c-1-1.1-1.4-2.6-1.4-4.4V31.9c0-0.2,0.1-0.3,0.3-0.3h1.1c0.2,0,0.3,0.1,0.3,0.3v16.5
			c0,1.3,0.3,2.4,1,3.2s1.5,1.2,2.6,1.2s1.9-0.4,2.6-1.2s1-1.9,1-3.2V31.9c0-0.2,0.1-0.3,0.3-0.3h1.1c0.2,0,0.3,0.1,0.3,0.3v16.3
			c0,1.8-0.5,3.3-1.5,4.4c-1,1.1-2.3,1.7-3.9,1.7S287.8,53.8,286.8,52.7z"/>
	</g>
	<g>
		<g>
			<path class="st1" d="M200.5,31.6h1.1c0.2,0,0.3,0.1,0.3,0.3v21.8c0,0.2-0.1,0.3-0.3,0.3h-1.1c-0.2,0-0.3-0.1-0.3-0.3v-10
				c0-0.1,0-0.1-0.1-0.1h-6.4c-0.1,0-0.1,0-0.1,0.1v10.1c0,0.2-0.1,0.3-0.3,0.3h-1.1c-0.2,0-0.3-0.1-0.3-0.3V31.9
				c0-0.2,0.1-0.3,0.3-0.3h1.1c0.2,0,0.3,0.1,0.3,0.3v10c0,0.1,0,0.1,0.1,0.1h6.4c0.1,0,0.1,0,0.1-0.1v-10
				C200.2,31.7,200.3,31.6,200.5,31.6z"/>
			<path class="st1" d="M214.9,53.8l-0.9-4.2v-0.1h-0.1h-6.3h-0.1v0.1l-0.9,4.2c0,0.2-0.1,0.3-0.4,0.3h-1.1c-0.1,0-0.2,0-0.2-0.1
				s-0.1-0.1,0-0.3l4.9-21.8c0-0.2,0.2-0.3,0.4-0.3h1.3c0.2,0,0.3,0.1,0.4,0.3l4.9,21.8v0.1c0,0.2-0.1,0.3-0.3,0.3h-1.1
				C215,54.1,214.9,54,214.9,53.8z M207.8,48.1h5.7c0.1,0,0.1,0,0.1-0.1l-2.9-13.6c0-0.1,0-0.1-0.1-0.1c0,0,0,0-0.1,0.1L207.6,48
				C207.7,48,207.8,48.1,207.8,48.1z"/>
			<path class="st1" d="M228.7,53.8l-0.9-4.2v-0.1h-0.1h-6.3h-0.1v0.1l-0.9,4.2c0,0.2-0.1,0.3-0.4,0.3h-1.1c-0.1,0-0.2,0-0.2-0.1
				s-0.1-0.1,0-0.3l4.9-21.8c0-0.2,0.2-0.3,0.4-0.3h1.3c0.2,0,0.3,0.1,0.4,0.3l4.9,21.8v0.1c0,0.2-0.1,0.3-0.3,0.3h-1.2
				C228.9,54.1,228.8,54,228.7,53.8z M221.7,48.1h5.7c0.1,0,0.1,0,0.1-0.1l-2.9-13.6c0-0.1,0-0.1-0.1-0.1c0,0,0,0-0.1,0.1L221.5,48
				C221.6,48,221.6,48.1,221.7,48.1z"/>
			<path class="st1" d="M242.3,33.2c0.9,1.1,1.4,2.6,1.4,4.4c0,1.8-0.5,3.3-1.4,4.4c-0.9,1.1-2.1,1.6-3.6,1.6h-3.6
				c-0.1,0-0.1,0-0.1,0.1v10c0,0.2-0.1,0.3-0.3,0.3h-1.1c-0.2,0-0.3-0.1-0.3-0.3V31.9c0-0.2,0.1-0.3,0.3-0.3h5
				C240.2,31.6,241.4,32.1,242.3,33.2z M241,41c0.6-0.8,1-1.9,1-3.3c0-1.4-0.3-2.5-1-3.3c-0.6-0.8-1.5-1.3-2.5-1.3h-3.3
				c-0.1,0-0.1,0-0.1,0.1v8.9c0,0.1,0,0.1,0.1,0.1h3.3C239.5,42.3,240.4,41.8,241,41z"/>
			<path class="st1" d="M247.7,52.8c-0.9-1-1.4-2.4-1.4-4.1V48c0-0.2,0.1-0.3,0.3-0.3h1c0.2,0,0.3,0.1,0.3,0.3v0.6
				c0,1.3,0.3,2.3,0.9,3.1c0.6,0.8,1.5,1.2,2.5,1.2s1.8-0.4,2.5-1.1c0.7-0.8,1-1.7,1-2.9c0-0.8-0.2-1.5-0.5-2.1s-0.7-1.1-1.2-1.5
				s-1.3-1-2.4-1.9c-1.1-0.8-2-1.5-2.6-2.1c-0.6-0.5-1.1-1.2-1.5-2s-0.6-1.7-0.6-2.7c0-1.6,0.5-2.9,1.4-3.9c0.9-0.9,2.1-1.4,3.6-1.4
				c1.6,0,2.8,0.5,3.8,1.6c0.9,1,1.4,2.4,1.4,4.1v0.8c0,0.2-0.1,0.3-0.3,0.3h-1.1c-0.2,0-0.3-0.1-0.3-0.3V37c0-1.3-0.3-2.3-0.9-3.1
				c-0.6-0.8-1.5-1.2-2.5-1.2c-0.9,0-1.7,0.3-2.3,1s-0.9,1.6-0.9,2.8c0,0.7,0.1,1.4,0.4,1.9c0.3,0.5,0.7,1,1.2,1.5s1.3,1.1,2.3,1.9
				c1.3,0.9,2.2,1.7,2.8,2.3s1.1,1.2,1.4,1.9s0.5,1.5,0.5,2.5c0,1.8-0.5,3.2-1.4,4.2c-1,1-2.2,1.6-3.7,1.6
				C249.9,54.4,248.7,53.8,247.7,52.8z"/>
			<path class="st1" d="M268.4,53.8l-0.9-4.2v-0.1h-0.1h-6.3H261v0.1l-0.9,4.2c0,0.2-0.1,0.3-0.4,0.3h-1.1c-0.1,0-0.2,0-0.2-0.1
				s-0.1-0.1,0-0.3l4.9-21.8c0-0.2,0.2-0.3,0.4-0.3h1.3c0.2,0,0.3,0.1,0.4,0.3l4.9,21.8v0.1c0,0.2-0.1,0.3-0.3,0.3h-1.1
				C268.6,54.1,268.5,54,268.4,53.8z M261.4,48.1h5.7c0.1,0,0.1,0,0.1-0.1l-2.9-13.6c0-0.1,0-0.1-0.1-0.1c0,0,0,0-0.1,0.1L261.2,48
				C261.3,48,261.3,48.1,261.4,48.1z"/>
			<path class="st1" d="M273.1,53.8V31.9c0-0.2,0.1-0.3,0.3-0.3h1.1c0.2,0,0.3,0.1,0.3,0.3v20.5c0,0.1,0,0.1,0.1,0.1h7.5
				c0.2,0,0.3,0.1,0.3,0.3v0.9c0,0.2-0.1,0.3-0.3,0.3h-9C273.2,54.1,273.1,54,273.1,53.8z"/>
			<path class="st1" d="M286.8,52.7c-1-1.1-1.4-2.6-1.4-4.4V31.9c0-0.2,0.1-0.3,0.3-0.3h1.1c0.2,0,0.3,0.1,0.3,0.3v16.5
				c0,1.3,0.3,2.4,1,3.2s1.5,1.2,2.6,1.2s1.9-0.4,2.6-1.2s1-1.9,1-3.2V31.9c0-0.2,0.1-0.3,0.3-0.3h1.1c0.2,0,0.3,0.1,0.3,0.3v16.3
				c0,1.8-0.5,3.3-1.5,4.4c-1,1.1-2.3,1.7-3.9,1.7S287.8,53.8,286.8,52.7z"/>
		</g>
		<g>
			<path class="st1" d="M201.6,81.4c0,1.2-0.1,2.3-0.4,3.2c-0.6,2.5-2.1,3.8-4.5,3.8c-1.2,0-2.3-0.3-3.1-1s-1.3-1.7-1.6-3
				c-0.2-0.8-0.2-1.7-0.3-2.6c0-0.2,0.1-0.3,0.3-0.3h1.1c0.2,0,0.3,0.1,0.3,0.3c0,0.9,0.1,1.7,0.2,2.3c0.4,1.9,1.4,2.8,3,2.8
				c1.5,0,2.4-0.8,2.9-2.5c0.2-0.9,0.3-1.9,0.3-3.1c0-1.5-0.1-2.7-0.4-3.6c-0.5-1.5-1.4-2.2-2.7-2.2c-0.3,0-0.5,0-0.7,0.1
				c-0.1,0-0.2,0.1-0.2,0c-0.1,0-0.1,0-0.2-0.1l-0.5-0.5c-0.1-0.1-0.1-0.3,0-0.4l4.3-7.2v-0.1h-0.1h-7c-0.2,0-0.3-0.1-0.3-0.3v-0.9
				c0-0.2,0.1-0.3,0.3-0.3h8.9c0.2,0,0.3,0.1,0.3,0.3v1c0,0.1,0,0.3-0.1,0.4l-4.1,6.8v0.1c0,0,0,0,0.1,0c0.9,0,1.6,0.3,2.2,0.9
				s1.1,1.3,1.4,2.2C201.4,78.5,201.6,79.8,201.6,81.4z"/>
			<path class="st1" d="M206.7,86.9c-1-1-1.4-2.4-1.4-4v-12c0-1.7,0.5-3,1.4-4c1-1,2.2-1.5,3.8-1.5s2.9,0.5,3.8,1.5
				c1,1,1.4,2.4,1.4,4v11.9c0,1.7-0.5,3-1.4,4c-1,1-2.2,1.5-3.8,1.5C209,88.4,207.7,87.9,206.7,86.9z M213.1,85.8
				c0.7-0.7,1-1.7,1-2.8V70.8c0-1.2-0.3-2.1-1-2.8c-0.7-0.7-1.5-1.1-2.6-1.1c-1,0-1.9,0.4-2.6,1.1s-1,1.7-1,2.8V83
				c0,1.2,0.3,2.1,1,2.8c0.7,0.7,1.5,1.1,2.6,1.1S212.5,86.5,213.1,85.8z"/>
			<path class="st1" d="M219.4,87.5c-0.3-0.3-0.4-0.7-0.4-1.2s0.1-0.9,0.4-1.2s0.7-0.5,1.2-0.5s0.9,0.2,1.2,0.5s0.5,0.7,0.5,1.2
				s-0.2,0.9-0.5,1.2s-0.7,0.4-1.2,0.4S219.7,87.8,219.4,87.5z"/>
			<path class="st1" d="M235.4,80.6v0.9c0,0.2-0.1,0.3-0.3,0.3h-1c-0.1,0-0.1,0-0.1,0.1v5.8c0,0.2-0.1,0.3-0.3,0.3h-1.1
				c-0.2,0-0.3-0.1-0.3-0.3v-5.8c0-0.1,0-0.1-0.1-0.1h-7.6c-0.2,0-0.3-0.1-0.3-0.3v-0.8c0-0.1,0-0.2,0.1-0.4l4.9-14.4
				c0.1-0.2,0.2-0.3,0.4-0.3h1.2c0.2,0,0.3,0.1,0.3,0.4l-4.8,14.2v0.1h0.1h5.9c0.1,0,0.1,0,0.1-0.1v-5.3c0-0.2,0.1-0.3,0.3-0.3h1.1
				c0.2,0,0.3,0.1,0.3,0.3v5.3c0,0.1,0,0.1,0.1,0.1h1C235.3,80.3,235.4,80.4,235.4,80.6z"/>
			<path class="st1" d="M238,87.5c-0.3-0.3-0.4-0.7-0.4-1.2s0.1-0.9,0.4-1.2s0.7-0.5,1.2-0.5s0.9,0.2,1.2,0.5s0.5,0.7,0.5,1.2
				s-0.2,0.9-0.5,1.2s-0.7,0.4-1.2,0.4S238.2,87.8,238,87.5z"/>
			<path class="st1" d="M249.5,78.4v-0.9c0-0.2,0.1-0.3,0.3-0.3h7.1c0.2,0,0.3,0.1,0.3,0.3v0.9c0,0.2-0.1,0.3-0.3,0.3h-7.1
				C249.7,78.8,249.5,78.7,249.5,78.4z"/>
			<path class="st1" d="M268.3,86.5C268.3,86.6,268.4,86.6,268.3,86.5h7.8c0.2,0,0.3,0.1,0.3,0.3v0.9c0,0.2-0.1,0.3-0.3,0.3h-9.6
				c-0.2,0-0.3-0.1-0.3-0.3v-1c0-0.1,0-0.3,0.1-0.4c0.2-0.3,0.3-0.5,0.4-0.7c0.5-0.9,1.3-2.2,2.4-4s2-3.3,2.8-4.7
				c1.4-2.5,2.1-4.6,2.1-6.2c0-1.2-0.3-2.2-0.8-2.9c-0.6-0.7-1.3-1.1-2.2-1.1c-0.9,0-1.7,0.4-2.2,1.1s-0.8,1.7-0.8,2.9v1.2
				c0,0.2-0.1,0.3-0.3,0.3h-1.1c-0.2,0-0.3-0.1-0.3-0.3v-1.2c0-1.6,0.5-2.9,1.4-3.9s2-1.5,3.4-1.5s2.6,0.5,3.5,1.5s1.3,2.3,1.3,4
				c0,1.9-0.8,4.3-2.3,6.9c-0.6,1.1-1.5,2.7-2.8,4.8l-2.3,3.9C268.3,86.5,268.3,86.5,268.3,86.5z"/>
			<path class="st1" d="M279.1,87.5c-0.3-0.3-0.4-0.7-0.4-1.2s0.1-0.9,0.4-1.2s0.7-0.5,1.2-0.5s0.9,0.2,1.2,0.5s0.5,0.7,0.5,1.2
				s-0.2,0.9-0.5,1.2s-0.7,0.4-1.2,0.4S279.4,87.8,279.1,87.5z"/>
			<path class="st1" d="M294.8,81.3c0,1.1-0.1,2.1-0.2,2.8c-0.2,1.4-0.8,2.4-1.6,3.1c-0.8,0.7-1.8,1.1-3.1,1.1
				c-1.3,0-2.3-0.4-3.1-1.1c-0.8-0.7-1.3-1.8-1.6-3.2c0-0.2-0.1-0.5-0.1-1c0-0.2,0.1-0.3,0.3-0.3h1.1c0.2,0,0.3,0.1,0.3,0.3l0.1,0.8
				c0.4,2,1.4,3,3,3c1.5,0,2.5-0.9,2.9-2.8c0.2-0.7,0.3-1.6,0.3-2.8c0-1.2-0.1-2.2-0.4-3.1c-0.5-1.6-1.4-2.4-2.8-2.4
				c-1.6,0-2.7,0.8-3.1,2.5c-0.1,0.2-0.2,0.3-0.4,0.3h-1.1c-0.2,0-0.3-0.1-0.3-0.3V65.9c0-0.2,0.1-0.3,0.3-0.3h8.5
				c0.2,0,0.3,0.1,0.3,0.3v0.9c0,0.2-0.1,0.3-0.3,0.3h-7c-0.1,0-0.1,0-0.1,0.1v8.6c0,0.1,0,0.1,0,0.1s0.1,0,0.1-0.1
				c0.3-0.5,0.8-0.9,1.4-1.2s1.2-0.4,2-0.4c1.1,0,2,0.3,2.6,0.9c0.7,0.6,1.2,1.5,1.5,2.7C294.7,78.8,294.8,80,294.8,81.3z"/>
			<path class="st1" d="M297.8,87.5c-0.3-0.3-0.4-0.7-0.4-1.2s0.1-0.9,0.4-1.2s0.7-0.5,1.2-0.5s0.9,0.2,1.2,0.5s0.5,0.7,0.5,1.2
				s-0.2,0.9-0.5,1.2s-0.7,0.4-1.2,0.4S298.1,87.8,297.8,87.5z"/>
			<path class="st1" d="M305.4,86.5C305.4,86.6,305.5,86.6,305.4,86.5h7.8c0.2,0,0.3,0.1,0.3,0.3v0.9c0,0.2-0.1,0.3-0.3,0.3h-9.6
				c-0.2,0-0.3-0.1-0.3-0.3v-1c0-0.1,0-0.3,0.1-0.4c0.2-0.3,0.3-0.5,0.4-0.7c0.5-0.9,1.3-2.2,2.4-4s2-3.3,2.8-4.7
				c1.4-2.5,2.1-4.6,2.1-6.2c0-1.2-0.3-2.2-0.8-2.9c-0.6-0.7-1.3-1.1-2.2-1.1c-0.9,0-1.7,0.4-2.2,1.1s-0.8,1.7-0.8,2.9v1.2
				c0,0.2-0.1,0.3-0.3,0.3h-1.1c-0.2,0-0.3-0.1-0.3-0.3v-1.2c0-1.6,0.5-2.9,1.4-3.9s2-1.5,3.4-1.5s2.6,0.5,3.5,1.5s1.3,2.3,1.3,4
				c0,1.9-0.8,4.3-2.3,6.9c-0.6,1.1-1.5,2.7-2.8,4.8l-2.3,3.9C305.4,86.5,305.4,86.5,305.4,86.5z"/>
			<path class="st1" d="M317.8,86.9c-1-1-1.4-2.4-1.4-4v-12c0-1.7,0.5-3,1.4-4c1-1,2.2-1.5,3.8-1.5c1.6,0,2.9,0.5,3.8,1.5
				c1,1,1.4,2.4,1.4,4v11.9c0,1.7-0.5,3-1.4,4c-1,1-2.2,1.5-3.8,1.5C320,88.4,318.7,87.9,317.8,86.9z M324.1,85.8
				c0.7-0.7,1-1.7,1-2.8V70.8c0-1.2-0.3-2.1-1-2.8c-0.7-0.7-1.5-1.1-2.6-1.1c-1,0-1.9,0.4-2.6,1.1s-1,1.7-1,2.8V83
				c0,1.2,0.3,2.1,1,2.8c0.7,0.7,1.5,1.1,2.6,1.1S323.5,86.5,324.1,85.8z"/>
			<path class="st1" d="M332.2,86.5C332.2,86.6,332.2,86.6,332.2,86.5h7.8c0.2,0,0.3,0.1,0.3,0.3v0.9c0,0.2-0.1,0.3-0.3,0.3h-9.6
				c-0.2,0-0.3-0.1-0.3-0.3v-1c0-0.1,0-0.3,0.1-0.4c0.2-0.3,0.3-0.5,0.4-0.7c0.5-0.9,1.3-2.2,2.4-4s2-3.3,2.8-4.7
				c1.4-2.5,2.1-4.6,2.1-6.2c0-1.2-0.3-2.2-0.8-2.9c-0.6-0.7-1.3-1.1-2.2-1.1c-0.9,0-1.7,0.4-2.2,1.1s-0.8,1.7-0.8,2.9v1.2
				c0,0.2-0.1,0.3-0.3,0.3h-1.1c-0.2,0-0.3-0.1-0.3-0.3v-1.2c0-1.6,0.5-2.9,1.4-3.9s2-1.5,3.4-1.5s2.6,0.5,3.5,1.5s1.3,2.3,1.3,4
				c0,1.9-0.8,4.3-2.3,6.9c-0.6,1.1-1.5,2.7-2.8,4.8l-2.3,3.9C332.2,86.5,332.2,86.5,332.2,86.5z"/>
			<path class="st1" d="M344.4,65.6h1.2c0.2,0,0.3,0.1,0.3,0.3v21.8c0,0.2-0.1,0.3-0.3,0.3h-1.1c-0.2,0-0.3-0.1-0.3-0.3v-20v-0.1
				h-0.1l-3.1,1.3h-0.1c-0.1,0-0.2-0.1-0.3-0.3l-0.2-0.7v-0.1c0-0.2,0.1-0.3,0.2-0.4l3.4-1.8C344.1,65.7,344.3,65.6,344.4,65.6z"/>
		</g>
	</g>
</g>
</svg>
