<?xml version="1.0" encoding="UTF-8"?>
<svg id="Layer_1" xmlns="http://www.w3.org/2000/svg" version="1.1" viewBox="0 0 422 102">
  <!-- Generator: Adobe Illustrator 29.7.1, SVG Export Plug-In . SVG Version: 2.1.1 Build 8)  -->
  <defs>
    <style>
      .st0 {
        fill: #fc0;
      }

      .st1 {
        fill: #06c;
      }

      .st2 {
        fill: #fff;
      }

      .st3 {
        fill: #223;
      }
    </style>
  </defs>
  <path class="st0" d="M68.6,10.5c-2.7,1.1-5,.4-5.9.7-1.1.5-.9,1.4-2.3,2.5-1.1.9-2.1.3-3,1.6-.6.9-2.4,3-4.8,2.8-1.8-.1-3.1-1.4-3.6-3.1,0-3.2-.8-1.8-1.4-5.2-.4-2.2,1.7-3.6,4-4,1.8,0,2.4-4.5,7.1-4.3,1.5.1,3.9,1.1,5.4,1.5,2.6.7,6.4-2.1,7.9-2,3.6.3,3-1.7,6.6-.8,2.8.7,4.5,4.5,6.2,5.6,3.8,2.5,6.7,1.1,9,1.9,12.1,3.9,12.3-5.4,14.1-2.5,1.8,2.7-3.6,5.2-7,5.7-3.3.4-6.7,2.5-7.7,2.7-2.2.5-3.7-1.1-6.5-1.5-3.5-.5-3.1-3.4-6.6-4.5-.8-.2-1.9-.7-3.4-1.3-.7-.3-1.9,1.6-4,1.7-2.9.2-2.3,1.5-4.1,2.5Z"/>
  <path class="st1" d="M20.6,31.9c0-.3.1-.5.2-.6.2-.2.5-.3.7-.3h9.5c.3,0,.5.1.6.3.2.2.3.4.3.6v54.9c0,.3-.1.5-.3.7-.2.2-.4.2-.6.2h-9.5c-.3,0-.5,0-.7-.2-.2-.2-.2-.5-.2-.7v-22.2c0-.3-.1-.4-.4-.4h-8.1c-.3,0-.4,0-.4.4v22.2c0,.3-.1.5-.3.7s-.4.2-.6.2H1.2c-.3,0-.5,0-.7-.2-.2-.2-.3-.4-.3-.7V31.9c0-.3,0-.5.2-.6.3-.3.5-.4.8-.4h9.5c.3,0,.5.1.6.3.2.2.3.4.3.6v22.2c0,.3.1.4.4.4h8.2c.3,0,.4,0,.4-.4v-22.1Z"/>
  <path class="st1" d="M145.4,39.8c0,.3-.1.5-.3.7s-.4.2-.6.2h-16.9c-.3,0-.4,0-.4.4v12.9c0,.3,0,.4.4.4h9.7c.3,0,.5,0,.6.3.2.2.3.4.3.6v7.9c0,.3-.1.5-.3.7-.2.2-.4.2-.6.2h-9.7c-.3,0-.4,0-.4.4v22.2c0,.3,0,.5-.3.7-.2.2-.4.2-.6.2h-9.5c-.3,0-.5,0-.7-.2-.2-.2-.2-.5-.2-.7V31.9c0-.3,0-.5.2-.6.2-.2.5-.3.7-.3h27.8c.3,0,.5.1.6.3.2.2.3.4.3.6v7.9h-.1Z"/>
  <path class="st1" d="M179.6,39.8c0,.3-.1.5-.3.7s-.4.2-.6.2h-16.9c-.3,0-.4,0-.4.4v12.9c0,.3.1.4.4.4h9.7c.3,0,.5,0,.6.3.2.2.3.4.3.6v7.9c0,.3-.1.5-.3.7-.2.2-.4.2-.6.2h-9.7c-.3,0-.4,0-.4.4v22.2c0,.3-.1.5-.3.7s-.4.2-.6.2h-9.5c-.3,0-.5,0-.7-.2-.2-.2-.2-.5-.2-.7V31.9c0-.3.1-.5.2-.6.2-.2.5-.3.7-.3h27.8c.3,0,.5.1.6.3.2.2.3.4.3.6v7.9h-.1Z"/>
  <path class="st0" d="M91.9,44.8c-.5.3-.9.7-.4,1.5.6.8,1.6,1.9,1.8,1.8s.4-.2,0-1.4c-.3-1.3-1-2.2-1.5-1.9Z"/>
  <path class="st0" d="M94.2,43.9c-.8.3,0,2.3,0,2.9,0,.6.3,1,.5.3s0-1.6.3-2.5c.2-.6-.5-1-.9-.7Z"/>
  <path class="st0" d="M90.9,41.5c-.5-.5-1.8-1.9-2.2-2.2-.8-.5-1.5,0-1.9.2-.6.4-.9,1.4-1.1,2s.6,1.5,1,1.6,1.3,0,2.4.5c1,.6,1.9.8,2.3.2.3-.8-.1-1.8-.5-2.3Z"/>
  <path class="st0" d="M95.7,37.3c-.5-.4-.7-1-1.4-.5-.7.5-.8,1.4-.6,1.9.2.5,0,1.7,0,2.2s0,1.2.4,1.3.7.2.9-.7c.2-.9.6-1.3,1.1-2.2.6-1,0-1.6-.4-2Z"/>
  <path class="st0" d="M120.8,29.5c-1.3-1.1-4.1-2.3-6.6-.1-1.4,1.2-1.6,2.7-2.5,5.1-.8,2.1-1.6,2.7-3.6,3.6-2.6,1-3.1,1.4-4.1-.6.6-.8,1.3-1.5.8-2.3-.7-1.5-1.8-.4-3.5,0-1.6-1,.9-2.1-2.6-2.9-.9-.4-1.7-1.1-.8-1.3.8.4,1.9.2,3.2-.7.5-.6.5-1.7-.4-2.3-2.1-1-5.9,1-6.5-.7-.7-1.6-1.4-1.1-3.5,1.5-2.6,1-3.5-.8-3.2-2.3,0-1.3,3.3-5.6.4-6.9-2.3-.7-3.7,0-3.9,6.9-.5,2.1-2.6,1-3.6.7-2.7-2-1.9-4.2-4-4.8-2.7-.7-2.8,3.6-5.7,3.3-1.2-.8-1.1-1.9-2.5-1.9s-1.3,2-2.7,2.7c-2.3,1.3-1-.8-3.9.3-2.7-1.6-1.6,2-2.7,1.3-3.5-2.2-5-2.4-5.3.7-1.2.4-1.7-.7-3.6-1.3-2.1-.7-2.4,2.1-.2,3.9.7,1.9-3.1-.6-2.1,3.2.5,1.8-1.8,1.9-3.4,1.7-1.4-.5-3.4-2.3-5.2-1.1-1.2,1.4.6,2.8,2,4,3.6,3.2.4,3.8-2.8,2.9-4.7-.4,0,2.1,1.1,6.5.3,4.8-7.3,2-9.7,1.4-3.8-1-3.4,2.1-.2,2.4,5.1,1.1,10.4,4.4,6.7,6.7-.7.3-1.6.4-1.8,2.1-.2,1.8,4.8,2.4,4.8,4.7-3.1,1.9-1.6,3-2,5.4-.3,1.6-2.9,1.7-2.7,3.9,0,.7,1,.9,2,1.1,0-.6,0-1.1,0-1.1,0,0,0,0,.4,0s.7,0,.3.3c-.2.2-.3.5-.5.9,1.6.4,3.4,1.1,3.2,4.7-.4,1.9-1.9,1.9-3.7,2.8-.4.2-.8.5-1.1.7,0,.3,0,.6,0,.8,0,.3,0,.3-.3.3s-.5,0-.4-.2c-.4.7-.4,1.3,0,1.9,0,0,0-.3,0-.4,0-.5,0-1,0-1h.3c.3,0,.6,0,.3.2-.3.3-.4,1.2-.5,1.5h0c.5.8,1.5,1.2,2.8,1,3.9-1.5,3-5.8,5.2-6,4.2-.4,3.1,2.5,2.7,5.4.4-.4.8-1.1.8-1.1h.2c.2,0,.4,0,.6,0s.5,0,.7-.2c.4-.2.8-.5,1.1-.7,0,0,0,0,0,0,0,.3,0,.5,0,.6.2.2.5,1-.4,1.5-.5.3-1.7,1-3.2,2.2,0,.2,0,.4.2.6.6-.5,1.2-.9,1.7-1.2.2,0,.5-.3.8-.5.4-.2.7-.4.8-.5,1-.5,1.1-1.3.9-1.9,0,0,.2,0,.6,0,.6,0,.8.4.9.3,0,0-.3-.4-.7-.5-.3,0-1-.2-.9-.4.5,0,.8-.3,1-.7l.3-.6c.4-.7.3-1.4,0-1.9,0-.2-.3-.3-.6-.3h0c0-.1,0-.4,0-.4.2-.6.6-1.5.8-3.1s.2-2.8,0-3.6c0-.6-.3-1-.4-1.3,0-.2,0-.3,0-.5,0-.2.2-.3.3-.4s.2-.3.3-.5c.3-.4.3-.9.4-1.3,0-.2,0-.4,0-.6,0,0,0-.3,0-.4,0,0,.3,0,.4-.2.2-.2.6-.5,1.1-1s.6-.8.7-1.1c.2,0,.3,0,.4,0,.4.7.5,1.1.3,1.6s.3,1.1.2,2.9-.9,5.5-1.7,7.6c-.8,2-.3,2.4-.2,2.6s0,.6-.4.8c-.3.2-.8,1.4-.8,1.7s.6.7.3,1.1-.8.9-.8,1.3-.3.8-.5.8c-.3,0-1.2.2-1.9.7-.6.5-1.1.6-2.6,2,2.7,3,4.7.2,6.9,4.1.7,2.3,1.3-1.9,3.5-2.4.9,2.8,1.7-1.1,2.4-.6.6.2.8,2.6,1.7,2.5,1.3.2,1.2-2.3,2.7-2.6,1.5.2-2.4,5.4,2.1,8,4.7,1.4,5.7-3.1,7.8-4.2,1,.3.7,1.7,1.4,2.3,1.2,1.3,2.8,1.5,3.8,1.1,0-1.2,0-2.4-.2-3.2-.4-1.5-.3-2.5-.6-3.6-.3-1.1-.8-1.6-.6-2.1,0-.3.5-.8,1-1.1.2,0,.5,0,.7,0h.5c.2,0,.4,0,.7.2.2,0,.5,0,.7.2,0,.3-.5.9-.6,1.4-.2.8-.2,2.5,0,4.3v.2c0-.4.3-.7.5-1,0-1.5,0-2.8,0-3.4,0-.2,0-.4.2-.6,0-.3.3-.5.3-.7h.4c.8,0,1.3-.7,1.4-1.3,0-.3,0-.6,0-1,0-.2.3-.4.5-.6.5-.5,1.2-1.4,1.3-2.1.2-.7.6-1.3,1.6-3.8.9-2.5.9-3.8.8-4.5s.2-1.8.3-2c0,0,0-.3,0-.4v-.2c0,.2.2.4.4.5.2.2.6.4,1.1.2.3-.2.5-.4.6-.8.2,0,.4,0,.6-.3.4-.3,1-.9,1.8-1.9s1.8-1.9,2.7-2.7c.2,0,.3.5.3.8s.4.9,0,1.9-1.1,2.2-1.8,2.8c-.7.6-2,1.5-3.2,4.3s-2.9,5.3-3.1,6.4c-.2,1,0,1.6-.4,2.4s-1,1.2-1.6.9c-.6-.3-1-.6-1.2,0-.2.4.8.6,1,.7s0,.3,0,.4c-.3,0-.5.6-.5.9s-.4,1.7-.7,2.6c1,0,1.9.5,2.2,1.5,3.2-1.1.6.8,3.3.4,0-.2.7-.5,1.3-1.1,2.5-2.6,1.3-3.1.7-4.3-1.7-3.4-.3-3.9,2-2.7,1.5.7,3.4,5.1,5.9,3.2,1.3-.8.4-2.8-.7-3.8-2.4-2.9-.4-4.7,2-2.9,1.5,1.3,4.8,2.6,7,1.6,2-2-3.5-4.8-2.8-8.6.4-.9,1.7-1.1,2.3-1.9,1-1.4-.4-1.8-.5-2.7.5-.9,1.8-1.4,2.3-2.5,1.2-2.7-2.2-5.1-1-5.9,1.1-.8,2.1-1,2.1-1.9,0-1.6-1.6-.9-2.9-2.8,1.9-1.4,3.6-5.5.2-8,1.8-1,2-3.8.5-5.3.6-.9,2-.9,2.5-1.9,0-1.1-.3-2.5.5-3,2.9-3.4,4.4-1.4,9.1-3.6,2.8-1.5,3.5-6,1-8ZM86.5,90.4c-.2.6-1,.7-1,.7,0,0,0-.2,0-.5s0-.2,0-.3c0,0,0-.2,0-.3.3,0,.5-.2.8-.4,0,.2.2.5,0,.8ZM80.7,53.2c.4,0,1.6.3,1.3-.3-.3-.7.2-.4.4-.3.3.2.6.2.3.7-.2.4,0,.8,0,1.3s0,.3,0,.4c-.2.3-.2.7-.2,1s0,.3,0,.5,0,0,0,.2h0c0,0,0,0,0,0,.3.2.2.5-.2.5s-1.2-1.1-2.4-.3c-1.2.8-3.2,4.1-3.2,12.4,0,8.2,2.4,10.4,3,11.4.3.4.6.9.9,1.2l-.4,1.2c-3.3-1.2-5.2-5.8-5.3-15.4,0-2,.2-5.9,1.1-7,1.2-1.7.7-1.9,1.3-2.6.6-.7,2-1.6,2-2.3s.3-1.9.8-1.9c.5,0,0-.7.3-.8ZM85.9,49.2c.8,1.1,1.1.8,1.6,1.2.2,0,.3.3.3.4,0,.6,0,1.3,0,2.1,0,.3,0,.6,0,.8l-.5-.4c-.2-.2-.4-.3-.6-.4-.2-.2-.5-.2-1.1,0h0c0,0-.3,0-.4,0h-.7c-.2-.2-.3-.3-.5-.3,0-.2,0-.4,0-.6,0-.9,1.2-1.9,1.1-2.3,0-.5.3-1.6,1.1-.5ZM85.5,46.1c.5-.7.9-.3,1.4,0,.6.3,1.2,2,1.4,2.4,0,.2,0,.4,0,.6-.2,0-.4.4-.4.5s0,.3,0,.4c-.2-.2-.4-.2-.5-.3,0,0-.2,0-.3,0-.2,0-.4-.2-.7-.7-.2-.3-.5-.6-.7-.6s-.3,0-.4,0c-.6-.6-.3-1.5.2-2.2ZM83.8,53.4c.4.5.8.3,1.2.2.5,0,1.2-.4,1.7.2.5.6,1.1.8,1.3,1.3.2.6.6.9.8,1.3.2.3.2.7.2.7,0,0-2.1.6-2.6,0s-.9-.8-1.5-.4c-.6.4-.8.2-1.4,0,0-.2-.2-.3-.4-.3,0,0,0-.2,0-.4,0-.3,0-.6,0-.6,0-.2.2-.5.2-.7v-.2c.1-.8.1-1.7.5-1.2ZM92.8,60.9c-.7.8-1.5,2.4-1.8,3.6-.2.8-.5,2.1-.7,2.3,0,.3,0-1.3,0-2.4,0-.4,0-.6-.4-.7-.2,0-.6-.2-.7-.2-.3,0-.6-.2-.7,0-.6-.2-1.3-1.1-1-1.8.3-.9,1.6-.4,1.6.2s1.1,1.2,1.3.6c.2-.6.5-.4.9-.5.4,0,.6-.5.5-1s.9-1.6-.3-1.2c-1.2.4-1-.2-1-.2,0,0,.9-.2,1.3-.4s1.1-.5.8,0c-.4.9.9.9.3,1.7ZM86.6,61.6c-.8-.7-1.9-1-3-1.1h0c0,0,.2-.2.2-.2,0,0,.3,0,.6,0,.2,0,.4,0,.6.2.2,0,.5,0,.7.2.4,0,.7,0,1-.2,0,0,0,.2,0,.4,0,0,0,.4.1.6ZM85.7,60.1c-.8,0-1.5-.7-2.2-.4s-1.5.6-1.6,0c0-.6,1.5-.8,1.8-1.1.2-.2.4-.8.7-1.2.3,0,.5,0,.8-.3,0,0,.2,0,.3,0,0,0,.2,0,.4.3,0,0,.2.2.4.3.3.2.7.2,1,0,.4.2-.2.6,0,1,0,.6-.7,1.4-1.5,1.3ZM81.8,60.5c-.7.2-1.4.5-1.7,1-.6.8,0,1.4.2,1.7.2,0,.3.3.5.4,0,0,0,0,.2,0,.2.2.2.5.3.7v.4c0,0,.2.3.2.3,0,.3,0,1.1-.4,1.5s-.4.6-.4.8c-.5.6-1.3,0-1.5,0s.2-1,.3-1.3c0-.3.8-1.2.3-1.1-.5,0-.4-.4,0-.6.2-.3.2-.5-.3-.3s-1,.4-1,1.1,0,.7-.4.7,0,0,0-.4c0-1.2.3-2.2.5-3.1.3-1.1.7-2,1.1-2.3.3-.3,0-.6-.2-.8.5-1.1,1-1.7,1.3-1.9s.6-.2.9,0c.2,0,.3.2.5.3,0,0,.2,0,.3,0s.2,0,.4,0c.3,0,.9,0,1.1-.6.3.2-.4.9-.9,1.1,0,0-.2,0-.3,0l-.6.3c-.2.2-.5.5-.5.9-.1.7,0,.9.3,1ZM90.5,59.3l-.6.3c-.5.3-.6.3-1.1,0-.3,0-.4-.2-.8-.2s-.7.2-.7-.2.2-.6.3-.8c0-.4,0-.6.4-.6s1.1-.3,1.4.2h0c.3,0,.5.3.7.5.2,0,1,.3.8.5.2.1-.3.1-.4.2ZM39.2,72.2c-.4.3-.8,1.4-1,1.7-.2.3-.3.7-.3,1s-.2.2-.4,0-.6-.2-.2-.4c.3-.2.7-.9,1-1.5s.3-1.3.3-1.3c0,0,0,0,.4,0,.3.1.6,0,.2.3ZM39.5,71.5c-.3.2-.6,0-.4-.5.2-.6.9-1,1.2-1.5s.2-1.1.6-1.3c.3-.2.7,0,.7-.5s.6-1,.8-.6c0,.4.2.8.3,1.1.2.5.3.9.4,1.1,0,0,0,.2,0,.4s0,.3-.2.5c-.2.5-.5,1-.8,1.6-.2.3-.4.7-.6,1,.3-.6.6-1.4.3-1.5-.5,0-1.7-.2-1.2-.8.5-.6,1.5-1.5,1.3-1.7-.2-.3-1,0-1.2.5,0,.3-1,2.1-1.3,2.2ZM51.4,71.2c-.2.7,0,1.5-.5,2.1s-.8.8-.6,1.5c.2.6,1,1.8.5,4.9s-1.3,3.5-.9,4.1c.3.6.5-.2.7,0,.2.3.2.9,0,1.3-.2.5-.3.9-.7.9s-.3-.7-1-.2-1.6,1.2-1.9.8c-.3-.3,1-1.5.6-1.7-.4-.3,0-1.8.2-2.7.3-.9.7-4.9.2-5.2-.5-.3-.2-1.7-.6-1.9-.4-.2,0-.6,0-.6,0,0-1.4-.9-1.3-2.1,0-1.3.7-2.7,1.6-2.8.9,0,1.1.4,1.5.3.4,0,.3-.8,1.2-.5.7.3,1.1,1,.9,1.7ZM53,69.8c-.5.5-.8.8-1,.9,0-.8-.5-1.4-1.3-1.8-.4-.2-.6-.3-.8-.2-.3,0-.6,0-.8.4h-.2s0,0-.2,0c-.4-.4-1.5-.2-2,.3-.9.7-1.3,2.1-1.3,3.1s0,1,.4,1.4c-.2.2-.7.4-1,.4s-2.1.9-2.8,1.4-1.6,1.6-2,1.5c-.5,0,.8-1.7,1.3-2.4.5-.7,2.8-4.4,2.8-5.3s-1.2-1.4-.9-2.7c.3-1.3.7-2,1.1-2.1.4,0,.9-1.3,1.5-1.9.6-.5,2.7-1.7,3.5-1.9,1.1-.2,2,0,2.2,0,.3,0,.7,0,.7,0,0,0,.5.8.7,1.1s.3.7-.4,1.2-1.3,1.5-1,2.6c.4,1.1.8,1.6,1.4,2,.5.4,1.1,1.2,0,2.1ZM54.2,59.4c0,1.1-.2,1.5,0,1.6,0,.2,0,.4,0,.2-.3-.2-.6,0-.8.3-.2-.3-.7-1.1-.7-1.1,0-.2-.5-.3-.7,0h-.2c-.4,0-1.3-.2-2.5,0-.3,0-.9.3-1.4.5,0,0,0-.3.3-.5.7-.7.8-.7.8-1.4s.7-1.1,2.1-1.4c1.4-.2,1.8-.2,1.8,0,0,.3-1.1.5-1.8,1s-.8.7-.7,1c.2.3.5,0,.6-.3,0-.3.8-.8,1.6-1.1.7-.3,1.1-.4,1.3-.2.2,0-.8.8-.4.8s.7-.3.7-.5,0-.6.3-.9c.3-.4.5-.3.5-.3,0,0-.6,1.3-.6,2.4ZM56.4,59.1c0,.8,0,1.3,0,1.3,0,0,0,0-.4-.3-.3-.2-.7.6-1.3,1,0,0,0-.2,0-.3v-.2c0-.2,0-.6,0-1.2s0-1.1.3-1.5c0-.4.2-.7.2-.7v-.4c.2,0,.4-.2.5,0,.2.2.6,0,1-.2s.6,0,.6,0c0,0,0,.7-.3.7-.4.1-.6,1-.6,1.8ZM58.5,60.2c-.2.3-1,.6-1.6.4v-1.5c0-.4,0-.7.2-1.1,0,0,0-.2,0-.2.2,0,.3-.3.4-.4s0-.3,0-.4v-.2c0,0,.2,0,.3-.2.9-.8,1.3-.4,1.8,0,.5.5,0,.5,0,.8,0,0,.4.2.6,0l-.5.5c0,0-.2.3-.3.4,0,0,0,.2-.2.3,0,.2-.3.5-.7,1.1,0,.2-.2.2-.3.4ZM74.1,82.6c-1.2,0-2.2-.4-3-1.2h0c-2.6.2-4.3-1.1-5.4-4.2-1.1-.6-1.9-1.4-2.6-2.8-2.4-.7-4-2.8-4.1-9.5,0-1.4,0-4.1.5-4.9.8-1.2.8-1.3,1.2-1.8s1.4-1.1,1.4-1.6.2-1.3.5-1.3,0-.4.2-.5c.3,0,1.1.2.9-.2-.2-.5,0-.3.3-.2s1.1,0,.9.4c0,.4-.6.6-.5,1.2,0,.2,0,.4,0,.5-.2.2-.4.3-.6.5-.2.2-.4.4-.5.6,0,.2-.2.3-.3.4,0,.2-.5.7-.6,1h0c0,.3-.2.4-.4.7,0,.2-.3.5-.4.8-.3.3-1.1.7-1.1,5.4s1.3,5.6,2.1,6.3c-.4-1.6-.6-3.7-.7-6.5,0-1.6,0-4.7.5-5.7,1-1.3.9-1.5,1.4-2.1s1.6-1.3,1.6-1.8.2-1.5.6-1.5,0-.5.3-.5c.3,0,1.3.3,1-.3-.2-.6,0-.3.4-.2.2,0,.9,0,1.1.3-.2.2-.3.5-.4.7-.2.3-.3.5-.2.9,0,.2,0,.4,0,.6,0,0-.2.2-.4.4-.2.2-.4.4-.6.6-.2.2-.4.4-.6.6,0,.2-.3.4-.4.5s-.2.3-.3.5c-.2.3-.4.7-1,1.5-.2.3-.3.6-.4,1-.4.5-.9,1.7-1,5.9,0,4.2,1,5.7,1.8,7-.3-1.9-.5-4.3-.5-7.1s-.2-5.5.6-6.6c1.1-1.5,1.1-1.7,1.6-2.4s1.9-1.5,1.9-2.1.2-1.8.7-1.8,0-.6.3-.6c.4,0,1.5.3,1.2-.3s.2-.4.4-.2c.2,0,1.4,0,1.3.6-.2.5-.8.8-.7,1.7h0v.5c0,.2,0,.4-.2.5s-.2.2-.4.3c-.2.2-.4.4-.6.6-.2.2-.5.4-.6.6v.2c-.2.2-.7.9-.9,1.3,0,0,0,.2-.2.3,0,.2-.3.4-.5.7s-.3.6-.4,1c-.4.5-1.4.9-1.5,7.3,0,7.7,2.2,9.7,2.7,10.6.3.4.8.6,1.2.7-1.4-2.3-2.1-6.2-2.2-12.5,0-1.9-.2-5.7.6-6.8,1.2-1.6,1.1-1.8,1.7-2.5s2-1.6,2-2.2.3-1.9.7-1.9,0-.6.3-.6c.4,0,1.5.3,1.2-.3-.3-.7.2-.4.4-.3.2.2,1.5,0,1.3.6,0,0-.2.2-.2.3,0,0-.2.3-.3.5,0,.2-.3.5-.2.9,0,.3,0,.5,0,.7h0c-.2.3-.3.5-.5.7-.2.2-.5.4-.7.6-.2.2-.5.4-.6.7-.2.2-.3.4-.4.6,0,.2-.2.3-.3.5-.2.3-.5.8-1.1,1.6-.2.3-.4.7-.5,1.2-.5.5-1.5,1.1-1.5,7.5,0,8,2,10.3,2.6,11.2.4.6.9.8,1.4,1.1.2.4.4.7.6,1.1-.2,0-.3,0-.4,0ZM71.5,67.9c0-2-.2-5.9.7-7.1,1.2-1.7,1.1-1.9,1.7-2.6.6-.8,2-1.6,2-2.3s.3-1.9.8-1.9,0-.6.3-.7c.4,0,1.6.3,1.3-.3-.3-.7.2-.4.4-.3s1.2,0,1.3.5v.2h0c-.2.2-.3.3-.4.5-.2.2-.3.5-.3.7-.2.5-.2,1-.2,1.4,0,0,0,0,0,0,0,0-.3.3-.5.5s-.5.4-.7.6-.5.4-.6.7c-.2.2-.3.5-.4.7s0,.3-.2.5c0,.3-.2.7-.8,1.5-.2.3-.3.6-.5,1h0c-.5-.4-1.8-.2-1.8,8,0,8.2,2,10.8,2.6,11.7.6.9,1.8,1.7,2.7,1.4.2,0,.3.3.5.5,0,0-.2.2-.4.2-5,1.3-7.2-4.4-7.3-15.5ZM86.8,75.5c-.4.3-.5.7-.9,1.1-.5.3-1.4,1.8-2.3,4.8-1,3-.9,5.4-.8,6.5s0,2.4-.9,2.4-2-.7-2.9-.5-1.6.2-1.4-.4,1-.5,1.3-.7.9-1.5,1-1.8c3-8.3,2.7-9.9,3-10.5s-.3-2.2-.5-2.7c-.3-.5.4-2,1.1-1.8.6,0,1.5.5,2,1,.5.6.3,1.1.8,1,.5,0,.8-.4.9,0,0,.4.1,1.3-.4,1.6ZM89.2,73c-.5,1.3.4,1.8-.2,2.1-.5.3-.9-1.1-1.5-1.7s-.2,0-.2-.2c-.2,0-.3,0-.5,0h0c0,0-.2,0-.3,0h0c0,0,0-.2,0-.3,0,0-.2-.3-.3-.5-.6-.7-1.6-1.1-2.3-1.2h-.3c0-.5-.2-.9-.5-1.2-.3-.4-1.3-.9-1.3-1.4s-.4-1,0-1.7c.6-.6.6-1.7.5-2.1,0-.2-.2-1-.5-1.5s-1.6-.9-1-1.7c.7-1.1,4.8-1.4,6.3,1,1.5,2.4.5,3.6,2.4,4.5.5.3.6.8.3,1.3-.4.6,0,3.2-.4,4.5ZM94.8,69.1c-.7.5-1.4,1.3-3.1,3.2-1.6,1.9-2.1,2.3-2.1,1.6,0-.6-.2-.8,0-1.1s.3-1.9.2-2.3c0-.5,0-1.7,0-1.9,0-.3,0-.9.5-1s.5-1.8,1.3-3.8c.6-1.4.7-2.2,1.8-2.9.2-.2.8,0,1.3.9.2.3,0,1.3-.2,1.7,0,.4-.5,1.7-.2,2.7,0,.2.5.7.6,1,.4.3.5,1.4-.3,1.9ZM97.2,53.5c-.6.9-1.6,1.3-2.6,1.5-.9.2-2.1.6-2.6,0-.3-.4-1.2-1.1-1.2-1.6v-.7c0,0,.3.9.6.4,0-.2.2.8.6.5.2-.5.2.6.6.3,0-.5-.3-1.8,0-2.2.3.4.5,1.5,1,1.9,0-.2,0-.5,0-.6.4,0,.3.6.7.7,0-.3,0-.6,0-.9.2,0,.3.5.6.6,0,0,0-.8.2-.8.2,0,.3.5.4.5,0,0,0-.7.2-.7,0,0,.2.3.3.4,0,0,0-.3.2-.4,0-.6,0-1.1,0-1.7.4.5.4,1.5.6,2.2,0-.7.3,0,.3-.2v-.8c0,0,.3.5.4.4,0,0,0-.2,0-.3,0-1.3.1.8-.5,1.6ZM97.7,39.7c-.2.3,0,1.1-.5,1.7-.2,0-.4.9-.4,1,0,.2,0,.8-.2,1,0,.2,0,.3,0,.5.2,1.1.4,2.5.6,3.2.2,1,.4,2.8,0,3.8,0-.6-.4-1.8-.5-2.4,0-.4-.2-.8-.4-1.2h0c0,.5,0,1.2,0,1.5-.2,0-.4-.7-.6-.9,0,.3,0,1-.2,1.3-.2,0-.5-.6-.7-.7,0,.3,0,.9,0,1.2,0,0-.5-.6-.7-.8,0,.3,0,.8-.2,1.1-.3,0-.5-.7-.6-.9-.2.3-.2,1.2-.4,1.5,0-.3-.3-1.2-.6-1.5h0c-.2.4,0,1-.4,1.3,0-.4-.4-.7-.4-1.1h0v-.5c0,0-.3,0-.3-.2h0c0,.6.2,1.1.3,1.7,0,.6.5,1.8.6,2.4-.8-.6-1.4-2.3-1.7-3.2-.3-.9-.8-2.2-1.1-3.2-1-.8-2.4-1.9-4.1-2.3-2-.5-3.4-1.4-3.2-2,.2-.6-.5-.8-.5-1.2s-.3-2,0-2.3c.5-.3,1.8-1.6,1.8-2.9s1.2-1.9,1.7-2.2,1.3-.3,1.6-.6c.3-.3.8-.6,1.5-.3.6.2.9-.4,1.2-.8.3-.4.9-.3,1.2-.1.2.2.8-.4.8-.4,0,0,0,0,1.2-.1s1.6-.3,2,.7c.5,1,1.9.6,2.7.5.8,0,.8,1.3.7,1.9,0,.7.7,4.1,0,5.5Z"/>
  <path class="st2" d="M86.6,60.5c-.2.2-.6.3-1,.2-.3,0-.5,0-.7-.2-.2,0-.4,0-.6-.2-.4,0-.5,0-.6,0h-.2c0,0,0,.2,0,.2,1.1,0,2.2.5,3,1.1,0-.2-.2-.4,0-.6,0-.2,0-.4,0-.4Z"/>
  <path class="st2" d="M79.6,55.8c0,.7-1.4,1.5-2,2.3-.6.7,0,1-1.3,2.6-.8,1.2-1.1,5-1.1,7,0,9.6,2,14.2,5.4,15.4l.4-1.2c-.4-.3-.7-.8-.9-1.2-.6-.9-3-3.1-3-11.4,0-8.2,2.1-11.6,3.2-12.4,1.2-.8,1.9.3,2.4.3s.5-.3.2-.5h-.2c0,0,0-.2,0-.3,0,0,0-.3,0-.5,0-.4,0-.8.2-1,0,0,0-.3,0-.4,0-.4-.2-.9,0-1.3.2-.5,0-.6-.3-.7-.3-.2-.7-.4-.4.3.3.7-.9.2-1.3.3s.2.7-.3.7c-.7.1-.9,1.4-.9,2Z"/>
  <path class="st2" d="M50.3,69.5c-.9-.3-.8.4-1.2.5-.4,0-.5-.5-1.5-.3-1,0-1.6,1.5-1.6,2.8s1.3,2.1,1.3,2.1c0,0-.5.4,0,.6s0,1.7.6,1.9c.5.3,0,4.3-.2,5.2s-.6,2.5-.2,2.7c.4.3-.9,1.4-.6,1.7.3.3,1.3-.4,1.9-.8.7-.5.5.3,1,.2.5,0,.5-.5.7-.9.2-.5.2-1,0-1.3s-.4.5-.7,0,.5-1,.9-4.1c.5-3.1-.3-4.3-.5-4.9s.3-.9.6-1.5.3-1.4.5-2.1c.4-.7,0-1.4-.9-1.7Z"/>
  <path class="st2" d="M83.4,54.4v.2c0,.2,0,.5-.2.7,0,0,0,.4,0,.6s0,.2,0,.4c0,0,.3.2.4.3.6,0,.8.4,1.4,0s1,0,1.5.4,2.6,0,2.6,0c0,0,0-.4-.2-.7s-.6-.7-.8-1.3c-.2-.4-.8-.7-1.3-1.3s-1.2-.3-1.7-.2-.8.3-1.2-.2c-.5-.3-.5.6-.5,1.2Z"/>
  <path class="st2" d="M54.2,57.3c-.3.4-.3.8-.3.9,0,.2-.3.5-.7.5s.6-.7.4-.8-.6,0-1.3.2c-.7.3-1.5.7-1.6,1.1,0,.3-.4.6-.6.3-.2-.3,0-.5.7-1s1.7-.7,1.8-1c0-.3-.4-.3-1.8,0-1.4.2-2.1.7-2.1,1.4s0,.7-.8,1.4-.4.4-.3.5c.5-.3,1.1-.5,1.4-.5,1.2-.2,2.1,0,2.5,0,0,0,0,0,.2,0,.2,0,.6,0,.7,0,0,0,.5.7.7,1.1.2-.3.5-.5.8-.3s.2,0,0-.2c0-.2,0-.5,0-1.6s.5-2.3.5-2.3c0,0-.1-.2-.4.2Z"/>
  <path class="st2" d="M42,68.8c.2.3-.8,1.1-1.3,1.7s.7.7,1.2.8c.3,0,0,.9-.3,1.5.2-.3.4-.6.6-1,.3-.5.6-1.1.8-1.6,0-.2.2-.4.2-.5,0-.2,0-.3,0-.4,0-.2-.3-.6-.4-1.1-.2-.3-.3-.6-.3-1.1-.3-.5-.8.2-.8.6s-.4.3-.7.5-.3.9-.6,1.3c-.3.5-.9.9-1.2,1.5s0,.6.4.5c.3-.2,1.2-1.9,1.4-2.3,0-.3,1-.7,1.1-.4Z"/>
  <path class="st2" d="M52.8,67.7c-.6-.4-1-.9-1.4-2s.3-2.1,1-2.6.6-.9.4-1.2c-.2-.3-.7-1.1-.7-1.1,0,0-.4.2-.7,0-.3,0-1.1-.3-2.2,0-.8,0-2.8,1.3-3.5,1.9-.6.5-1.1,1.8-1.5,1.9s-.8.7-1.1,2.1c-.3,1.3.9,1.8.9,2.7s-2.3,4.6-2.8,5.3c-.5.7-1.8,2.3-1.3,2.4s1.3-1,2-1.5,2.5-1.4,2.8-1.4.8-.2,1-.4c-.2-.4-.4-.8-.4-1.4,0-1,.5-2.4,1.3-3.1.5-.5,1.6-.7,2-.3q0,0,.2,0h.2c.2-.2.5-.4.8-.4.2,0,.4,0,.8.2.8.3,1.3,1,1.3,1.8.2-.2.5-.5,1-.9,1.1-.9.5-1.7,0-2.1Z"/>
  <path class="st2" d="M81.8,58.9c.2,0,.4-.3.6-.3s.2,0,.3,0c.5-.2,1.1-.9.9-1.1-.2.6-.7.7-1.1.6,0,0-.3,0-.4,0s-.2,0-.3,0c0,0-.3-.2-.5-.3-.3,0-.6,0-.9,0-.3.2-.8.8-1.3,1.9.2.2.5.5.2.8-.4.4-.8,1.2-1.1,2.3-.2.9-.4,1.9-.5,3.1,0,.3,0,.4,0,.4.2,0,.3,0,.4-.7,0-.7.5-.9,1-1.1s.6,0,.3.3c-.2.2-.4.7,0,.6.5,0,0,.9-.3,1.1,0,.3-.6,1.1-.3,1.3.2.2,1,.6,1.5,0,0-.3.2-.6.4-.8.4-.4.5-1.3.4-1.5,0,0,0-.2,0-.3v-.4c-.2-.3-.2-.5-.4-.7,0,0,0,0-.2,0-.2,0-.4-.3-.5-.4-.3-.3-.8-.9-.2-1.7.3-.5.9-.8,1.7-1-.2,0-.4-.3-.4-.7,0-.7.4-1,.6-1.2Z"/>
  <path class="st2" d="M85.7,90c0,0,0,.2,0,.3q0,0,0,.3c0,.3,0,.5,0,.5,0,0,.7,0,1-.7,0-.3,0-.6,0-.7-.4.2-.6.3-.9.3Z"/>
  <path class="st2" d="M83.8,52.6c0,0,.3,0,.5.3h.7c0,0,.2,0,.4,0h0c.6-.2.9,0,1.1,0,.2,0,.4.2.6.4l.7.5c0-.2,0-.6,0-.8,0-.7,0-1.5,0-2.1,0,0-.2-.3-.3-.4-.5-.4-.8,0-1.6-1.2-.8-1.1-1.1,0-1.1.4s-1.1,1.5-1.1,2.3c-.2.2-.2.5,0,.6Z"/>
  <path class="st2" d="M91.5,59.3c-.4.2-1.3.4-1.3.4,0,0-.2.5,1,.2,1.2-.4.2.8.3,1.2,0,.5,0,.9-.5,1-.4,0-.6,0-.9.5-.2.6-1.4,0-1.3-.6,0-.6-1.3-1.2-1.6-.2-.2.7.4,1.5,1,1.8,0,0,.5.2.7,0,.2,0,.5,0,.7.2.3,0,.4.2.4.7,0,1,0,2.6,0,2.4.2-.2.6-1.5.7-2.3.2-1.3,1.1-2.8,1.8-3.6.7-.8-.6-.9-.4-1.5.4-.9-.3-.5-.7-.3Z"/>
  <path class="st2" d="M85.7,48.2c.3,0,.5.3.7.6.4.5.6.6.7.7,0,0,.2,0,.3,0,0,0,.3,0,.5.3,0,0,0-.3,0-.4s0-.3.4-.5c0-.2,0-.4,0-.6-.2-.4-.8-2.1-1.4-2.4-.6-.3-.9-.7-1.4,0s-.8,1.6-.3,2.1c.2.1.3.1.5.1Z"/>
  <path class="st2" d="M87.1,58.8c0-.4.5-.8,0-1-.3,0-.7,0-1,0,0,0-.3,0-.4-.3-.2-.2-.3-.3-.4-.3h-.3c-.3.2-.6.3-.8.3-.3.4-.4.9-.7,1.2-.3.4-1.9.5-1.8,1.1,0,.6.8.3,1.6,0,.7-.3,1.3.3,2.2.4.9,0,1.6-.7,1.5-1.3Z"/>
  <path class="st2" d="M72.3,80.4c-.6-.9-2.7-3.2-2.6-11.2,0-6.4,1.1-7.1,1.5-7.5,0-.5.3-.9.5-1.2.6-.8.9-1.3,1.1-1.6,0-.2.2-.3.3-.5,0-.2.2-.3.4-.6.2-.2.4-.5.6-.7s.5-.4.7-.6c.2-.2.4-.4.5-.6h0c0-.3,0-.6,0-.8,0-.4,0-.6.2-.9,0-.2.2-.3.3-.5,0,0,0-.2.2-.3.2-.5-1-.5-1.3-.6-.3-.2-.7-.4-.4.3.3.7-.8.2-1.2.3-.4,0,0,.6-.3.6s-.8,1.2-.7,1.9c0,.6-1.4,1.5-2,2.2s-.5.9-1.7,2.5c-.8,1.1-.7,4.9-.6,6.8,0,6.2.8,10.2,2.2,12.5.2,0,.3,0,.5.2.2.4.4.8.6,1.1h0c.8.7,1.9,1.1,3,1.2h.2c-.2-.3-.5-.7-.6-1.1-.6-.1-1.1-.2-1.5-.9Z"/>
  <path class="st2" d="M79.1,83.1l-.5-.5c-.9.3-2.1-.5-2.7-1.4s-2.7-3.5-2.6-11.7c0-8.3,1.4-8.5,1.8-8h0c0-.4.3-.8.5-1,.6-.8.7-1.2.8-1.5,0-.2,0-.4.2-.5,0-.2.2-.4.4-.7.2-.2.4-.5.6-.7s.5-.4.7-.6c.2-.2.4-.4.5-.5,0,0,0,0,0,0,0-.4,0-.9.2-1.4,0-.2.2-.5.3-.7,0,0,.2-.3.4-.4h0v-.3c0-.3-1.1-.3-1.3-.5-.3-.2-.7-.4-.4.3.3.7-.9.2-1.3.3s.2.7-.3.7-.8,1.3-.8,1.9-1.4,1.5-2,2.3c-.6.7-.5.9-1.7,2.6-.8,1.2-.7,5.1-.7,7.1,0,11.2,2.3,16.8,7.3,15.4.2,0,.4,0,.4,0Z"/>
  <path class="st2" d="M86.2,74c-.5,0-.4-.5-.8-1-.5-.6-1.4-.9-2-1s-1.3,1.3-1.1,1.8c.3.5.8,2.2.5,2.7-.3.6,0,2.2-3,10.5,0,.3-.7,1.6-1,1.8-.3.2-1.1,0-1.3.7-.2.6.6.6,1.4.4.9-.2,2,.5,2.9.5s1-1.3.9-2.4,0-3.5.8-6.5c1-3,1.9-4.4,2.3-4.8.5-.3.5-.7.9-1.1.4-.3.3-1.2.3-1.6,0-.4-.3,0-.8,0Z"/>
  <path class="st2" d="M63.1,67.3c0-4.2.6-5.4,1-5.9,0-.4.2-.7.4-1,.5-.7.8-1.2,1-1.5,0-.2.2-.3.3-.5,0,0,.2-.3.4-.5.2-.2.4-.4.6-.6.2-.2.4-.4.6-.6.2-.2.3-.3.4-.4,0-.2,0-.4,0-.6,0-.4,0-.6.2-.9,0-.2.2-.5.4-.7-.2-.2-.9-.2-1.1-.3s-.6-.3-.4.2c.2.6-.7.2-1,.3s0,.5-.3.5-.6,1-.6,1.5-1.2,1.2-1.6,1.8c-.5.6-.4.8-1.4,2.1-.7.9-.6,4-.5,5.7,0,2.7.3,4.8.7,6.5.3.2.5.4.6.5,0,0,0,0,0,.2,0,.5.2,1,.4,1.4,0,0-.3,0-.4,0,.7,1.4,1.5,2.3,2.6,2.8-.3-.9-.5-1.9-.7-3-.8-1.2-1.8-2.7-1.8-6.9Z"/>
  <path class="st2" d="M89.2,67.3c-1.8-1-.9-2.2-2.4-4.5-1.5-2.4-5.6-2.1-6.3-1-.6.8.7,1.2,1,1.7.3.5.4,1.2.5,1.5.2.4,0,1.5-.5,2.1s-.2,1.1,0,1.7c0,.5,1,1.1,1.3,1.4s.4.7.5,1.2h.3c.7,0,1.7.5,2.3,1.2,0,.2.2.3.3.5,0,0,0,.2,0,.3h0c0,0,.2,0,.3,0h0c0,0,.3,0,.5,0l.2.2c.5.6.9,1.9,1.5,1.7.6-.3-.3-.8.2-2.1.5-1.3,0-3.9.3-4.4.4-.6.3-1.1-.2-1.4Z"/>
  <path class="st2" d="M60.2,66.1c0-4.7.8-5,1.1-5.4,0-.3.2-.6.4-.8s.3-.4.4-.6h0c0-.4.5-.9.6-1.1,0,0,.2-.3.3-.4.2-.2.4-.4.5-.6.2-.2.4-.3.6-.5,0-.2,0-.4,0-.5,0-.6.4-.9.5-1.2s-.7-.3-.9-.4c-.2,0-.5-.3-.3.2s-.6.2-.9.2,0,.5-.2.5-.5.9-.5,1.3-1,1.1-1.4,1.6-.4.6-1.2,1.8c-.6.8-.5,3.5-.5,4.9,0,6.7,1.6,8.7,4.1,9.5-.3-.6-.5-1.3-.7-2.1-.9-.8-2.1-2.1-2.1-6.4Z"/>
  <path class="st2" d="M63,73.1c0,0,0,0,0-.2,0,0-.3-.3-.6-.5.2.8.4,1.5.7,2.1,0,0,.2,0,.4,0-.2-.5-.3-1-.4-1.5Z"/>
  <path class="st2" d="M84.8,90.3c.3-.2.3-.3,0-.4-.2,0-1.2-.2-1-.7.2-.4.6-.2,1.2,0,.6.3,1.2,0,1.6-.9s0-1.4.4-2.4c.2-1,1.9-3.6,3.1-6.4s2.5-3.7,3.2-4.3c.7-.6,1.5-1.8,1.8-2.8s0-1.5,0-1.9,0-.6-.3-.8c-.8.8-1.8,1.7-2.7,2.7-.8.9-1.4,1.6-1.8,1.9-.2.2-.5.3-.6.3,0,.3-.3.6-.6.8-.5.3-.9,0-1.1-.2-.2,0-.3-.3-.4-.5v.2c0,.2,0,.3,0,.4,0,.3-.4,1.4-.3,2,0,.7,0,2-.8,4.5s-1.4,3-1.6,3.8c-.2.7-.8,1.7-1.3,2.1-.2.2-.4.4-.5.6,0,.3,0,.7,0,1,0,.6-.6,1.3-1.4,1.3h-.4c0,.2-.2.4-.3.7,0,.2-.2.5-.2.6,0,.6-.2,2,0,3.4.8-1.2,1.9-1.8,2.9-1.8.3-.8.7-2.3.7-2.6,0,0,.3-.5.5-.7Z"/>
  <path class="st2" d="M79.8,99.1c0-1,.2-1.8.5-2.5v-.2c-.2-1.8,0-3.5,0-4.3,0-.5.5-1.1.6-1.4-.2,0-.5,0-.7-.2s-.5,0-.7-.2h-.5c-.2,0-.5,0-.7,0-.4.3-.8.8-1,1.1-.3.6.3,1.1.6,2.1.3,1.1.2,2,.6,3.6.2.8.2,2,.2,3.2.7-.2,1.1-.7,1.1-1.3Z"/>
  <path class="st2" d="M94.7,66.1c-.4-1.1,0-2.4.2-2.7,0-.4.4-1.4.2-1.7-.6-.9-1.1-1-1.3-.9-1.1.7-1.3,1.5-1.8,2.9-.8,2-.7,3.7-1.3,3.8-.6,0-.4.7-.5,1s0,1.4,0,1.9,0,2-.2,2.3c-.3.4-.2.5,0,1.1s.5.3,2.1-1.6,2.3-2.7,3.1-3.2c.7-.5.6-1.6.5-1.9-.3-.2-.7-.7-.8-1Z"/>
  <path class="st2" d="M70,80.1c-.4-.2-1-.3-1.2-.7-.5-.8-2.8-2.9-2.7-10.6,0-6.4,1.1-6.8,1.5-7.3,0-.4.3-.7.4-1,.2-.3.4-.5.5-.7,0,0,0-.2.2-.3.2-.4.7-1.2.8-1.3v-.2c.3-.2.5-.5.7-.6.2-.2.4-.4.6-.6s.3-.2.4-.3,0-.3.2-.5v-.4h0c0-1,.5-1.3.7-1.8s-1-.5-1.3-.6-.7-.4-.4.2c.3.6-.8.2-1.2.3-.4,0,0,.6-.3.6s-.7,1.2-.7,1.8-1.3,1.4-1.9,2.1c-.5.7-.5.9-1.6,2.4-.8,1.1-.6,4.7-.6,6.6,0,2.8.2,5.1.5,7.1.2.3.4.7.5,1,.2,1,.6,1.4.9,2.2-.2,0-.4-.2-.6-.3,1.1,3.1,2.8,4.4,5.4,4.2h0c-.2-.3-.6-.8-.9-1.3Z"/>
  <path class="st2" d="M70.5,80.3c0,0-.3,0-.5-.2.3.5.7,1,1.1,1.3h0c-.2-.3-.4-.7-.6-1.1Z"/>
  <path class="st2" d="M65.3,75.3c0-.4-.3-.7-.5-1,.2,1.1.4,2.1.7,3,.2,0,.4.2.6.3,0-.8-.6-1.3-.8-2.3Z"/>
  <path class="st2" d="M59.6,58.8c0,0,0-.2.2-.3,0,0,.2-.2.3-.4s.3-.3.5-.5c-.2,0-.5,0-.6,0-.2-.3.4-.3,0-.8s-.9-.9-1.8,0c0,0-.2,0-.3.2v.2c0,0,0,.3,0,.4,0,0-.2.3-.4.4,0,0,0,0,0,.2,0,.3-.2.7-.2,1.1v1.5c.6,0,1.4,0,1.6-.4,0,0,.2-.2.4-.3.3-.7.5-1,.6-1.2Z"/>
  <path class="st2" d="M37.2,75.4c-.4,0-.4,0-.4,0,0,0,0,.5,0,1.1,0,0,.2,0,.3,0,0-.4.3-.7.5-.9.4-.4,0-.3-.3-.3Z"/>
  <path class="st2" d="M38.9,71.9h-.4c0,0,0,.6-.3,1.2-.3.6-.7,1.3-1,1.5s0,.4.2.4c.2,0,.4.2.4,0s0-.6.3-1c.2-.3.6-1.4,1-1.7.5-.3.2-.2-.2-.3Z"/>
  <path class="st2" d="M50.9,89.6c.3,0,.5-.4.5-.8s.6-.9.8-1.3c.3-.4-.4-.8-.3-1.1,0-.4.6-1.6.8-1.7.3,0,.5-.6.4-.8,0-.2-.5-.6.2-2.6.8-2,1.6-5.8,1.7-7.6,0-1.8-.4-2.4-.2-2.9s0-.9-.3-1.6c0-.2-.3-.2-.4,0,0,.4-.3.7-.7,1.1s-.8.8-1.1,1c0,0-.3.2-.4.2,0,0,0,.3,0,.4,0,.2,0,.4,0,.6,0,.4,0,.8-.4,1.3,0,.2-.2.3-.3.5,0,0,0,.2-.3.4,0,0,0,.3,0,.5,0,.3.3.7.4,1.3.2.8.2,2,0,3.6s-.6,2.5-.8,3.1v.3c0,0,0,0,0,0,.3,0,.5,0,.6.3.3.5.3,1.2,0,1.9,0,.2-.2.5-.3.6-.2.3-.5.6-1,.7,0,.2.6.2.9.4.3,0,.8.4.7.5s-.3-.2-.9-.3c-.3,0-.5,0-.6,0,.2.6,0,1.4-.9,1.9-.2,0-.5.3-.8.5-.2.2-.5.4-.8.5-.5.3-1.1.7-1.7,1.2h0c.2.3.4.6.7.8,1.5-1.4,1.9-1.5,2.6-2,.9-.7,1.8-.9,2.1-.8Z"/>
  <path class="st2" d="M57.2,56.6s-.2-.3-.6,0c-.4.3-.8.4-1,.2s-.3,0-.5,0c0,0,0,.3,0,.4,0,0,0,.3-.2.7,0,.4-.2,1-.3,1.5,0,.6,0,.9,0,1.2v.2c0,0,0,.2,0,.3.6-.4,1-1.2,1.3-1s.4.3.4.3c0,0,0-.6,0-1.3,0-.8.3-1.7.6-1.7.3-.2.3-.8.3-.8Z"/>
  <path class="st2" d="M49.2,87.2c-.2,0,0-.4,0-.6,0,0,0,0,0,0-.3.2-.7.5-1.1.7-.2,0-.4.2-.7.2s-.4,0-.6,0h-.2s-.4.6-.8,1.1c0,.9-.2,1.7,0,2.5,1.5-1.1,2.7-1.9,3.2-2.2.8-.5.6-1.3.4-1.5Z"/>
  <path class="st2" d="M97.1,32.3c-.8,0-2.2.5-2.7-.5s-1-.8-2-.7c-1.1.1-1.2.1-1.2.1,0,0-.6.7-.8.4-.3-.2-.9-.2-1.2.1-.3.4-.6,1-1.2.8-.6-.2-1.2,0-1.5.3s-1.2.4-1.6.6c-.5.2-1.7.9-1.7,2.2s-1.4,2.5-1.8,2.9c-.5.3,0,1.9,0,2.3s.7.6.5,1.2c-.2.6,1.2,1.5,3.2,2,1.7.4,3.2,1.5,4.1,2.3,0-.2,0-.4,0-.5l.4.5c0-.2.3-.4.5-.3.2,0,.4.5.6.7.3.5.3,1.2.4,1.7v.2h0c0,0,.2.2.3.2,0-1,1.9,0,2.3-.2.9,0,1.8-.9,2.5-1.4,0,0,0,0,0,.2h0c0-.3,0-.6-.2-.8-.2-.6-.5-1.1-.5-1.7s0-.7.2-.9.5-.3.6,0v-1.1c0,.2.2.6.3,1,0,0,0-.3,0-.5s0-.8.2-1c0,0,.2-.9.4-1,.4-.6.4-1.4.5-1.7.7-1.4,0-4.8.2-5.4-.1-.6-.1-1.9-.9-1.9ZM89.1,43.5c-1-.6-1.9-.4-2.4-.5-.4,0-1.2-1-1-1.6s.6-1.6,1.1-2c.3-.2,1-.7,1.9-.2.4.3,1.7,1.8,2.2,2.2.5.5.9,1.5.5,2.2-.4.7-1.3.5-2.3-.1ZM93.3,48.1c-.2,0-1.2-.9-1.8-1.8-.6-.8,0-1.3.4-1.5.5-.3,1.3.6,1.5,1.9.3,1.2,0,1.3,0,1.4ZM95.1,44.6c-.2.9,0,1.8-.3,2.5-.2.7-.4.3-.5-.3s-.9-2.6,0-2.9c.4-.3,1.1.1.9.7ZM96.2,39.3c-.6.9-.9,1.3-1.1,2.2s-.6.9-.9.7c-.3,0-.4-.7-.4-1.3s.2-1.8,0-2.2c-.2-.5-.2-1.4.6-1.9.8-.5.9.2,1.4.5.4.4.9,1,.4,2Z"/>
  <path class="st2" d="M91.9,49.1h0Z"/>
  <path class="st2" d="M90.1,47.3s0,0-.3,0c-.2-.2-.3-.4-.5-.6s-.2-.2-.4-.3c.2,1,.8,2.3,1,3.2.3,1,.9,2.6,1.7,3.2,0-.6-.5-1.8-.6-2.4,0-.6-.2-1.1-.3-1.7-.3-.7-.2-.7-.4-.9,0-.1,0-.3-.2-.4Z"/>
  <path class="st2" d="M90.4,46.7c0-.2-.3-.6-.6-.7-.3,0-.6,0-.5.3l-.4-.5c0,0,0,.3,0,.5,0,0,.2.2.4.3.2.2.4.3.5.6,0,0,.2,0,.3,0,0,0,.2.2.3.4,0,.2,0,.2.4.9v-.2c-.3-.6-.3-1.2-.5-1.7Z"/>
  <path class="st2" d="M96.4,44.9c.3,1.1.2,1.9-.3,2.5,0,.4.2.8.4,1.2.2.6.4,1.8.5,2.4.4-1,.2-2.8,0-3.8,0-.7-.3-2.2-.6-3.2,0,.2,0,.4,0,.9Z"/>
  <path class="st2" d="M96.2,44c0-.2-.4,0-.6,0-.2.2-.2.7-.2.9,0,.6.3,1.2.5,1.7,0,.2,0,.4.2.7.5-.6.6-1.3.3-2.5,0-.5,0-.7,0-1,0-.4-.2-.8-.3-1v1.1Z"/>
  <path class="st2" d="M94.2,48.5c-.5.2-1.7.5-2.1.6h0c.2.3.4,1.2.6,1.5.2-.3.2-1.1.4-1.5,0,.2.4.8.6.9.2-.3,0-.8.2-1.1.2.3.5.7.7.8,0-.3,0-.9,0-1.2.2,0,.5.6.7.7.2-.3,0-.9.2-1.3.2.2.4.8.6.9,0-.3,0-1,0-1.4-.2,0-.4.3-.6.4-.3.3-.5.4-1.3.7Z"/>
  <path class="st2" d="M91.1,49.3h0c0,.5.3.7.4,1.2.3-.3.2-1,.4-1.3-.2,0-.6,0-.8-.2v.3Z"/>
  <path class="st2" d="M93.4,48.7c-.4,0-2.2-.8-2.3.2.3,0,.6.2.8.2h0c.4,0,1.6-.4,2.1-.6.7-.3,1-.4,1.2-.5s.4-.3.6-.4c0,0,0-.2,0-.2-.7.4-1.6,1.1-2.4,1.3Z"/>
  <path class="st2" d="M97.4,52.1s0,.2,0,.3c0,0-.3-.5-.4-.4v.8s-.2-.5-.3.2c-.2-.6-.2-1.7-.6-2.2,0,.5,0,1.1,0,1.7,0,.2,0,.3-.2.4,0,0,.2.3.3.4,0,.4-.4.7-.7.9-.4.3-1,.6-1.5.4-.2,0-.2-.2-.3-.3,0,0-.3,0-.4-.2h.2c0,0,0-.2,0-.4-.5-.4-.7-1.5-1-1.9-.2.4.2,1.7,0,2.2-.3,0-.3-1-.5-.5-.4.3-.5-.6-.6-.5-.3.5-.5-.5-.7-.4v.5c0,0,0,.2,0,.2,0,.5.9,1.2,1.2,1.6.6.7,1.7.3,2.6,0,1-.2,2-.6,2.6-1.5.6-.8.5-2.9.2-1.4Z"/>
  <path class="st2" d="M96,52.7c0,0-.2-.3-.3-.4,0,0,0,.6-.2.7,0,0-.2-.4-.4-.5,0,0-.2.7-.2.8-.2,0-.3-.5-.6-.6,0,.4,0,.6,0,.9-.3,0-.3-.6-.7-.7,0,0,0,.4,0,.6,0,0,.3.2.5.2.4,0,1.6-.3,2.1-1Z"/>
  <path class="st2" d="M93.6,54h-.2c0,0,.3,0,.4.2,0,0,0,.2.3.3.5.2,1.1,0,1.5-.4.3-.2.8-.6.7-.9,0,0,0-.3-.3-.4-.5.7-1.7,1-1.9.9-.2,0-.4,0-.5-.2,0,.2,0,.4,0,.5Z"/>
  <path class="st2" d="M90.3,58.6c-.2-.2-.5-.4-.7-.5.2.3.7,1.2,0,1.2l-.5-1.2h.3c-.3-.5-.8-.2-1.4-.2s-.3,0-.4.6c0,.2-.3.6-.3.8,0,.4.4.3.7.2.3,0,.5,0,.8.2.4.2.6.2,1.1,0l.6-.3c0,0,.5,0,.6-.2.1-.2-.7-.4-.9-.5Z"/>
  <path class="st2" d="M89.2,58.1l.5,1.2c.6,0,0-.9,0-1.2h-.4Z"/>
  <g>
    <path class="st3" d="M201.3,33c.9,1,1.4,2.3,1.4,3.9s-.3,2.6-1,3.4c-.7.9-1.7,1.4-2.9,1.7,1.4.1,2.4.7,3.3,1.6.8.9,1.2,2.2,1.2,3.9s-.2,2.4-.7,3.4c-.5,1-1.2,1.8-2,2.3-.9.6-1.9.8-3,.8s-2.1-.2-2.9-.7c-.8-.5-1.6-1.2-2.4-2.1l1.2-.9c.7.8,1.3,1.4,1.9,1.7.6.3,1.3.5,2.2.5s2.2-.4,2.9-1.3c.7-.9,1.1-2.1,1.1-3.7,0-3.1-1.4-4.6-4.3-4.6h-1.2l.2-1.4h.9c1.1,0,2.1-.4,2.8-1.1.8-.8,1.2-1.9,1.2-3.3s-.3-2.3-.9-3c-.6-.7-1.5-1.1-2.6-1.1s-1.4.2-2,.5c-.6.3-1.2.8-1.9,1.4l-1.1-1c.7-.8,1.5-1.5,2.4-1.9s1.7-.6,2.7-.6c1.6,0,2.8.5,3.7,1.5Z"/>
    <path class="st3" d="M216.9,34.2c1,1.8,1.4,4.7,1.4,8.6s-.5,6.7-1.4,8.5c-1,1.8-2.4,2.7-4.3,2.7s-3.4-.9-4.3-2.8c-1-1.9-1.5-4.7-1.5-8.5s.5-6.7,1.4-8.5c1-1.8,2.4-2.8,4.3-2.8s3.3.9,4.3,2.8ZM209.7,35.2c-.6,1.5-1,4-1,7.5s.3,6,1,7.5c.6,1.5,1.6,2.3,2.9,2.3s2.3-.8,2.9-2.3c.6-1.5.9-4,.9-7.5s-.3-6-.9-7.5c-.6-1.5-1.6-2.3-2.9-2.3s-2.3.8-2.9,2.3Z"/>
    <path class="st3" d="M224.4,51.5c.3.3.4.6.4,1.1s-.1.8-.4,1.1c-.3.3-.6.4-1.1.4s-.8-.1-1.1-.4c-.3-.3-.4-.7-.4-1.1s.1-.8.4-1.1.6-.4,1.1-.4.8.1,1.1.4Z"/>
    <path class="st3" d="M245.9,51.9c.2.3.5.6.9.8l-.4,1.3c-.7-.2-1.2-.5-1.6-.9s-.6-1-.7-1.8c-1,1.8-2.5,2.7-4.3,2.7s-2.4-.5-3.3-1.4c-.8-.9-1.2-2.2-1.2-3.7s.5-3.2,1.6-4.1c1.1-1,2.6-1.4,4.7-1.4h2.3v-2c0-1.3-.2-2.2-.7-2.8-.5-.6-1.3-.9-2.3-.9s-2.5.3-3.9.9l-.5-1.3c1.6-.8,3.2-1.2,4.6-1.2s2.8.4,3.5,1.3c.8.9,1.2,2.2,1.2,3.8v9.1c0,.7,0,1.2.3,1.6ZM243.8,49.4v-4.7h-2.1c-1.5,0-2.7.3-3.4,1-.7.7-1.1,1.7-1.1,3.1s.2,2.1.7,2.8c.5.6,1.2,1,2.1,1,1.7,0,2.9-1.1,3.8-3.2Z"/>
    <path class="st3" d="M261.1,38.3c.9,1.5,1.3,3.7,1.3,6.6s-.5,5.1-1.4,6.7-2.3,2.4-4,2.4-1.6-.2-2.2-.6c-.7-.4-1.2-1-1.7-1.7v8.4l-1.8.3v-24h1.6v2.4c1.2-1.8,2.7-2.8,4.5-2.8s2.9.7,3.8,2.2ZM260.4,45c0-2.5-.3-4.4-.9-5.6s-1.5-1.8-2.6-1.8-2.8,1-3.9,2.9v9.3c1,1.7,2.2,2.6,3.7,2.6,2.5,0,3.8-2.5,3.8-7.5Z"/>
    <path class="st3" d="M273.9,36.3l-.3,1.7c-.4-.1-.8-.2-1.2-.2-.9,0-1.7.4-2.3,1.2-.6.8-1.1,2.1-1.4,3.7v10.9h-1.8v-17.2h1.6l.2,3.5c.4-1.3,1-2.3,1.6-2.9.7-.6,1.5-.9,2.4-.9s.8,0,1.3.2Z"/>
    <path class="st3" d="M278.9,29.3c.2.3.4.6.4,1s-.1.7-.4.9c-.2.3-.6.4-1,.4s-.7-.1-.9-.4c-.3-.3-.4-.6-.4-.9s.1-.7.4-1c.2-.3.6-.4,1-.4s.7.1,1,.4ZM278.9,36.5v17.2h-1.8v-17.2h1.8Z"/>
    <path class="st3" d="M285,53.3c-.5-.5-.7-1.2-.7-2.1v-21.7l1.8-.2v21.8c0,.9.4,1.4,1.1,1.4s.6,0,.9-.2l.5,1.3c-.5.3-1.1.5-1.7.5s-1.4-.3-1.9-.8Z"/>
    <path class="st3" d="M292.7,53.3c-.5-.5-.7-1.2-.7-2.1v-21.7l1.8-.2v21.8c0,.9.4,1.4,1.1,1.4s.6,0,.9-.2l.5,1.3c-.5.3-1.1.5-1.7.5s-1.4-.3-1.9-.8Z"/>
    <path class="st3" d="M306.3,44.2v-1.6h7.3v1.6h-7.3Z"/>
  </g>
  <g>
    <path class="st3" d="M201.1,66.6c.9,1,1.4,2.4,1.4,4s-.2,2.7-.7,4-1.3,2.7-2.3,4.2c-1.1,1.6-2.7,3.8-5,6.8h8.5l-.3,1.6h-10.3v-1.5c2.3-3.1,4.1-5.5,5.2-7.1,1.1-1.6,1.9-3.1,2.3-4.2s.7-2.4.7-3.8-.3-2.3-.9-3c-.6-.7-1.4-1.1-2.4-1.1s-1.5.2-2.1.6c-.6.4-1.2,1-1.8,1.8l-1.2-.9c.7-1.1,1.5-1.9,2.4-2.4.8-.5,1.8-.8,2.9-.8,1.6,0,2.8.5,3.7,1.5Z"/>
    <path class="st3" d="M208.4,85.1c.3.3.4.6.4,1.1s-.1.8-.4,1.1c-.3.3-.6.4-1.1.4s-.8-.1-1.1-.4c-.3-.3-.4-.7-.4-1.1s.1-.8.4-1.1c.3-.3.6-.4,1.1-.4s.8.1,1.1.4Z"/>
    <path class="st3" d="M237.2,71.1c.7.9,1,2.1,1,3.6v12.6h-1.8v-12.4c0-1.2-.2-2.1-.6-2.8-.4-.6-.9-.9-1.7-.9-1.4,0-2.7,1.2-3.8,3.6v12.5h-1.8v-12.4c0-1.2-.2-2.1-.6-2.8-.4-.6-1-.9-1.7-.9-1.4,0-2.7,1.2-3.8,3.6v12.5h-1.8v-17.2h1.6l.2,2.8c1.2-2.1,2.6-3.2,4.3-3.2s1.7.3,2.3.9c.6.6,1,1.4,1.2,2.5,1.2-2.2,2.7-3.4,4.4-3.4s2.1.5,2.7,1.4Z"/>
    <path class="st3" d="M252.9,85.6c.2.3.5.6.9.8l-.4,1.3c-.7-.2-1.2-.5-1.6-.9s-.6-1-.7-1.8c-1,1.8-2.5,2.7-4.3,2.7s-2.4-.5-3.3-1.4c-.8-.9-1.2-2.2-1.2-3.7s.5-3.2,1.6-4.1c1.1-1,2.6-1.4,4.7-1.4h2.3v-2c0-1.3-.2-2.2-.7-2.8-.5-.6-1.3-.9-2.3-.9s-2.5.3-3.9.9l-.5-1.3c1.6-.8,3.2-1.2,4.6-1.2s2.8.4,3.5,1.3c.8.9,1.2,2.2,1.2,3.8v9.1c0,.7,0,1.2.3,1.6ZM250.8,83v-4.7h-2.1c-1.5,0-2.7.3-3.4,1-.7.7-1.1,1.7-1.1,3.1s.2,2.1.7,2.8c.5.6,1.2,1,2.1,1,1.7,0,2.9-1.1,3.8-3.2Z"/>
    <path class="st3" d="M260,63c.2.3.4.6.4,1s-.1.7-.4.9c-.2.3-.6.4-1,.4s-.7-.1-.9-.4c-.3-.3-.4-.6-.4-.9s.1-.7.4-1c.2-.3.6-.4,1-.4s.7.1,1,.4ZM260,70.1v17.2h-1.8v-17.2h1.8Z"/>
    <path class="st3" d="M279.7,66.6c.9,1,1.4,2.4,1.4,4s-.2,2.7-.7,4-1.3,2.7-2.3,4.2c-1.1,1.6-2.7,3.8-5,6.8h8.5l-.3,1.6h-10.3v-1.5c2.3-3.1,4.1-5.5,5.2-7.1,1.1-1.6,1.9-3.1,2.3-4.2s.7-2.4.7-3.8-.3-2.3-.9-3c-.6-.7-1.4-1.1-2.4-1.1s-1.5.2-2.1.6c-.6.4-1.2,1-1.8,1.8l-1.2-.9c.7-1.1,1.5-1.9,2.4-2.4.8-.5,1.8-.8,2.9-.8,1.6,0,2.8.5,3.7,1.5Z"/>
    <path class="st3" d="M294.9,67.9c1,1.8,1.4,4.7,1.4,8.6s-.5,6.7-1.4,8.5c-1,1.8-2.4,2.7-4.3,2.7s-3.4-.9-4.3-2.8-1.5-4.7-1.5-8.5.5-6.7,1.4-8.5c1-1.8,2.4-2.8,4.3-2.8s3.3.9,4.3,2.8ZM287.7,68.9c-.6,1.5-1,4-1,7.5s.3,6,1,7.5c.6,1.5,1.6,2.3,2.9,2.3s2.3-.8,2.9-2.3.9-4,.9-7.5-.3-6-.9-7.5-1.6-2.3-2.9-2.3-2.3.8-2.9,2.3Z"/>
    <path class="st3" d="M307.4,66.6c.9,1,1.4,2.4,1.4,4s-.2,2.7-.7,4-1.3,2.7-2.3,4.2c-1.1,1.6-2.7,3.8-5,6.8h8.5l-.3,1.6h-10.3v-1.5c2.3-3.1,4.1-5.5,5.2-7.1,1.1-1.6,1.9-3.1,2.3-4.2s.7-2.4.7-3.8-.3-2.3-.9-3c-.6-.7-1.4-1.1-2.4-1.1s-1.5.2-2.1.6c-.6.4-1.2,1-1.8,1.8l-1.2-.9c.7-1.1,1.5-1.9,2.4-2.4.8-.5,1.8-.8,2.9-.8,1.6,0,2.8.5,3.7,1.5Z"/>
    <path class="st3" d="M322.5,74.8c.9,1.2,1.4,2.9,1.4,5.1s-.5,4.4-1.5,5.7-2.3,2-3.9,2-3.5-.9-4.4-2.7c-.9-1.8-1.4-4.3-1.4-7.5s.6-7,1.8-9.2c1.2-2.2,2.8-3.2,4.9-3.2s2.4.4,3.4,1.3l-.8,1.2c-.8-.6-1.7-1-2.6-1-1.4,0-2.6.8-3.4,2.5-.8,1.7-1.3,4-1.4,7,.6-1,1.2-1.7,2-2.3.8-.5,1.6-.8,2.5-.8,1.4,0,2.6.6,3.5,1.7ZM321.1,84.6c.6-1.1.9-2.6.9-4.5s-.3-3.2-.9-4.1c-.6-.9-1.4-1.3-2.4-1.3s-1.6.3-2.4,1c-.7.6-1.4,1.5-1.9,2.7,0,2.7.4,4.7,1,6,.6,1.3,1.6,1.9,3,1.9s2.1-.5,2.7-1.6Z"/>
  </g>
</svg>