<?xml version="1.0" encoding="utf-8"?>
<!-- Generator: Adobe Illustrator 27.2.0, SVG Export Plug-In . SVG Version: 6.00 Build 0)  -->
<svg version="1.1" id="Layer_1" xmlns="http://www.w3.org/2000/svg" xmlns:xlink="http://www.w3.org/1999/xlink" x="0px" y="0px"
	 viewBox="0 0 422 102" style="enable-background:new 0 0 422 102;" xml:space="preserve">
<style type="text/css">
	.st0{fill:#FFCC00;}
	.st1{fill:#0066CC;}
	.st2{fill:#FFFFFF;}
	.st3{fill:#222233;}
</style>
<path class="st0" d="M68.6,10.5c-2.7,1.1-5,0.4-5.9,0.7c-1.1,0.5-0.9,1.4-2.3,2.5c-1.1,0.9-2.1,0.3-3,1.6c-0.6,0.9-2.4,3-4.8,2.8
	C50.8,18,49.5,16.7,49,15c0.1-3.2-0.8-1.8-1.4-5.2c-0.4-2.2,1.7-3.6,4-4c1.8-0.1,2.4-4.5,7.1-4.3c1.5,0.1,3.9,1.1,5.4,1.5
	c2.6,0.7,6.4-2.1,7.9-2c3.6,0.3,3-1.7,6.6-0.8c2.8,0.7,4.5,4.5,6.2,5.6c3.8,2.5,6.7,1.1,9,1.9c12.1,3.9,12.3-5.4,14.1-2.5
	c1.8,2.7-3.6,5.2-7,5.7c-3.3,0.4-6.7,2.5-7.7,2.7c-2.2,0.5-3.7-1.1-6.5-1.5c-3.5-0.5-3.1-3.4-6.6-4.5c-0.8-0.2-1.9-0.7-3.4-1.3
	C76,6,74.8,7.9,72.7,8C69.8,8.2,70.4,9.5,68.6,10.5z"/>
<path class="st1" d="M20.6,31.9c0-0.3,0.1-0.5,0.2-0.6c0.2-0.2,0.5-0.3,0.7-0.3H31c0.3,0,0.5,0.1,0.6,0.3c0.2,0.2,0.3,0.4,0.3,0.6
	v54.9c0,0.3-0.1,0.5-0.3,0.7c-0.2,0.2-0.4,0.2-0.6,0.2h-9.5c-0.3,0-0.5-0.1-0.7-0.2c-0.2-0.2-0.2-0.5-0.2-0.7V64.6
	c0-0.3-0.1-0.4-0.4-0.4h-8.1c-0.3,0-0.4,0.1-0.4,0.4v22.2c0,0.3-0.1,0.5-0.3,0.7s-0.4,0.2-0.6,0.2H1.2c-0.3,0-0.5-0.1-0.7-0.2
	c-0.2-0.2-0.3-0.4-0.3-0.7V31.9c0-0.3,0.1-0.5,0.2-0.6c0.3-0.3,0.5-0.4,0.8-0.4h9.5c0.3,0,0.5,0.1,0.6,0.3c0.2,0.2,0.3,0.4,0.3,0.6
	V54c0,0.3,0.1,0.4,0.4,0.4h8.2c0.3,0,0.4-0.1,0.4-0.4V31.9z"/>
<path class="st1" d="M145.4,39.8c0,0.3-0.1,0.5-0.3,0.7s-0.4,0.2-0.6,0.2h-16.9c-0.3,0-0.4,0.1-0.4,0.4V54c0,0.3,0.1,0.4,0.4,0.4
	h9.7c0.3,0,0.5,0.1,0.6,0.3c0.2,0.2,0.3,0.4,0.3,0.6v7.9c0,0.3-0.1,0.5-0.3,0.7c-0.2,0.2-0.4,0.2-0.6,0.2h-9.7
	c-0.3,0-0.4,0.1-0.4,0.4v22.2c0,0.3-0.1,0.5-0.3,0.7c-0.2,0.2-0.4,0.2-0.6,0.2h-9.5c-0.3,0-0.5-0.1-0.7-0.2
	c-0.2-0.2-0.2-0.5-0.2-0.7V31.9c0-0.3,0.1-0.5,0.2-0.6c0.2-0.2,0.5-0.3,0.7-0.3h27.8c0.3,0,0.5,0.1,0.6,0.3c0.2,0.2,0.3,0.4,0.3,0.6
	v7.9H145.4z"/>
<path class="st1" d="M179.6,39.8c0,0.3-0.1,0.5-0.3,0.7s-0.4,0.2-0.6,0.2h-16.9c-0.3,0-0.4,0.1-0.4,0.4V54c0,0.3,0.1,0.4,0.4,0.4
	h9.7c0.3,0,0.5,0.1,0.6,0.3c0.2,0.2,0.3,0.4,0.3,0.6v7.9c0,0.3-0.1,0.5-0.3,0.7c-0.2,0.2-0.4,0.2-0.6,0.2h-9.7
	c-0.3,0-0.4,0.1-0.4,0.4v22.2c0,0.3-0.1,0.5-0.3,0.7s-0.4,0.2-0.6,0.2H151c-0.3,0-0.5-0.1-0.7-0.2c-0.2-0.2-0.2-0.5-0.2-0.7V31.9
	c0-0.3,0.1-0.5,0.2-0.6c0.2-0.2,0.5-0.3,0.7-0.3h27.8c0.3,0,0.5,0.1,0.6,0.3c0.2,0.2,0.3,0.4,0.3,0.6v7.9H179.6z"/>
<path class="st0" d="M91.9,44.8c-0.5,0.3-0.9,0.7-0.4,1.5c0.6,0.8,1.6,1.9,1.8,1.8c0.2-0.1,0.4-0.2,0.1-1.4
	C93.1,45.4,92.4,44.5,91.9,44.8z"/>
<path class="st0" d="M94.2,43.9c-0.8,0.3,0,2.3,0.1,2.9c0.1,0.6,0.3,1,0.5,0.3s0-1.6,0.3-2.5C95.3,44,94.6,43.6,94.2,43.9z"/>
<path class="st0" d="M90.9,41.5c-0.5-0.5-1.8-1.9-2.2-2.2c-0.8-0.5-1.5,0-1.9,0.2c-0.6,0.4-0.9,1.4-1.1,2s0.6,1.5,1,1.6
	s1.3-0.1,2.4,0.5c1,0.6,1.9,0.8,2.3,0.2C91.7,43,91.3,42,90.9,41.5z"/>
<path class="st0" d="M95.7,37.3c-0.5-0.4-0.7-1-1.4-0.5c-0.7,0.5-0.8,1.4-0.6,1.9c0.2,0.5,0,1.7,0,2.2c0,0.6,0.1,1.2,0.4,1.3
	s0.7,0.2,0.9-0.7c0.2-0.9,0.6-1.3,1.1-2.2C96.7,38.3,96.2,37.7,95.7,37.3z"/>
<path class="st0" d="M120.8,29.5c-1.3-1.1-4.1-2.3-6.6-0.1c-1.4,1.2-1.6,2.7-2.5,5.1c-0.8,2.1-1.6,2.7-3.6,3.6
	c-2.6,1-3.1,1.4-4.1-0.6c0.6-0.8,1.3-1.5,0.8-2.3c-0.7-1.5-1.8-0.4-3.5,0c-1.6-1,0.9-2.1-2.6-2.9c-0.9-0.4-1.7-1.1-0.8-1.3
	c0.8,0.4,1.9,0.2,3.2-0.7c0.5-0.6,0.5-1.7-0.4-2.3c-2.1-1-5.9,1-6.5-0.7c-0.7-1.6-1.4-1.1-3.5,1.5c-2.6,1-3.5-0.8-3.2-2.3
	c0-1.3,3.3-5.6,0.4-6.9c-2.3-0.7-3.7,0-3.9,6.9c-0.5,2.1-2.6,1-3.6,0.7c-2.7-2-1.9-4.2-4-4.8c-2.7-0.7-2.8,3.6-5.7,3.3
	c-1.2-0.8-1.1-1.9-2.5-1.9c-1.6,0-1.3,2-2.7,2.7c-2.3,1.3-1-0.8-3.9,0.3c-2.7-1.6-1.6,2-2.7,1.3c-3.5-2.2-5-2.4-5.3,0.7
	c-1.2,0.4-1.7-0.7-3.6-1.3c-2.1-0.7-2.4,2.1-0.2,3.9c0.7,1.9-3.1-0.6-2.1,3.2c0.5,1.8-1.8,1.9-3.4,1.7c-1.4-0.5-3.4-2.3-5.2-1.1
	c-1.2,1.4,0.6,2.8,2,4c3.6,3.2,0.4,3.8-2.8,2.9c-4.7-0.4,0.1,2.1,1.1,6.5c0.3,4.8-7.3,2-9.7,1.4c-3.8-1-3.4,2.1-0.2,2.4
	c5.1,1.1,10.4,4.4,6.7,6.7c-0.7,0.3-1.6,0.4-1.8,2.1c-0.2,1.8,4.8,2.4,4.8,4.7c-3.1,1.9-1.6,3-2,5.4c-0.3,1.6-2.9,1.7-2.7,3.9
	c0.1,0.7,1,0.9,2,1.1c0.1-0.6,0.1-1.1,0.1-1.1s0-0.1,0.4,0s0.7-0.1,0.3,0.3c-0.2,0.2-0.3,0.5-0.5,0.9c1.6,0.4,3.4,1.1,3.2,4.7
	c-0.4,1.9-1.9,1.9-3.7,2.8c-0.4,0.2-0.8,0.5-1.1,0.7c0,0.3,0,0.6,0.1,0.8c0.1,0.3-0.1,0.3-0.3,0.3s-0.5,0-0.4-0.2
	c-0.4,0.7-0.4,1.3-0.1,1.9c0-0.1,0.1-0.3,0.1-0.4c0.1-0.5,0-1,0-1s0,0,0.3,0s0.6-0.1,0.3,0.2c-0.3,0.3-0.4,1.2-0.5,1.5l0,0
	c0.5,0.8,1.5,1.2,2.8,1c3.9-1.5,3-5.8,5.2-6c4.2-0.4,3.1,2.5,2.7,5.4c0.4-0.4,0.8-1.1,0.8-1.1s0.1,0,0.2,0c0.2,0.1,0.4,0.1,0.6,0.1
	c0.2,0,0.5-0.1,0.7-0.2c0.4-0.2,0.8-0.5,1.1-0.7c0,0,0,0.1,0.1,0.1c0,0.3-0.1,0.5,0.1,0.6c0.2,0.2,0.5,1-0.4,1.5
	c-0.5,0.3-1.7,1-3.2,2.2c0,0.2,0.1,0.4,0.2,0.6c0.6-0.5,1.2-0.9,1.7-1.2c0.2-0.1,0.5-0.3,0.8-0.5c0.4-0.2,0.7-0.4,0.8-0.5
	c1-0.5,1.1-1.3,0.9-1.9c0.1,0,0.2,0,0.6,0.1c0.6,0.1,0.8,0.4,0.9,0.3c0.1-0.1-0.3-0.4-0.7-0.5c-0.3-0.1-1-0.2-0.9-0.4
	c0.5,0,0.8-0.3,1-0.7c0.1-0.2,0.2-0.4,0.3-0.6c0.4-0.7,0.3-1.4,0-1.9c-0.1-0.2-0.3-0.3-0.6-0.3V83l0.1-0.3c0.2-0.6,0.6-1.5,0.8-3.1
	s0.2-2.8,0-3.6c-0.1-0.6-0.3-1-0.4-1.3c0-0.2-0.1-0.3-0.1-0.5c0.1-0.2,0.2-0.3,0.3-0.4s0.2-0.3,0.3-0.5c0.3-0.4,0.3-0.9,0.4-1.3
	c0-0.2,0-0.4,0.1-0.6c0-0.1,0-0.3,0.1-0.4c0.1,0,0.3-0.1,0.4-0.2c0.2-0.2,0.6-0.5,1.1-1c0.4-0.4,0.6-0.8,0.7-1.1
	c0.2-0.1,0.3-0.1,0.4,0.1c0.4,0.7,0.5,1.1,0.3,1.6s0.3,1.1,0.2,2.9s-0.9,5.5-1.7,7.6c-0.8,2-0.3,2.4-0.2,2.6s-0.1,0.6-0.4,0.8
	C52.5,84.5,52,85.7,52,86c0,0.4,0.6,0.7,0.3,1.1s-0.8,0.9-0.8,1.3s-0.3,0.8-0.5,0.8c-0.3,0-1.2,0.2-1.9,0.7c-0.6,0.5-1.1,0.6-2.6,2
	c2.7,3,4.7,0.2,6.9,4.1c0.7,2.3,1.3-1.9,3.5-2.4c0.9,2.8,1.7-1.1,2.4-0.6c0.6,0.2,0.8,2.6,1.7,2.5c1.3,0.2,1.2-2.3,2.7-2.6
	c1.5,0.2-2.4,5.4,2.1,8c4.7,1.4,5.7-3.1,7.8-4.2c1,0.3,0.7,1.7,1.4,2.3c1.2,1.3,2.8,1.5,3.8,1.1c0-1.2,0-2.4-0.2-3.2
	c-0.4-1.5-0.3-2.5-0.6-3.6c-0.3-1.1-0.8-1.6-0.6-2.1c0.1-0.3,0.5-0.8,1-1.1c0.2,0,0.5-0.1,0.7-0.1c0.1,0,0.2,0,0.5,0
	c0.2,0,0.4,0.1,0.7,0.2c0.2,0.1,0.5,0.1,0.7,0.2c-0.1,0.3-0.5,0.9-0.6,1.4c-0.2,0.8-0.2,2.5,0,4.3c0,0.1,0,0.1,0,0.2
	c0.1-0.4,0.3-0.7,0.5-1c-0.1-1.5,0-2.8,0.1-3.4c0-0.2,0.1-0.4,0.2-0.6c0.1-0.3,0.3-0.5,0.3-0.7c0.1,0,0.3,0,0.4,0
	c0.8,0,1.3-0.7,1.4-1.3c0.1-0.3,0.1-0.6,0.1-1c0.1-0.2,0.3-0.4,0.5-0.6c0.5-0.5,1.2-1.4,1.3-2.1c0.2-0.7,0.6-1.3,1.6-3.8
	c0.9-2.5,0.9-3.8,0.8-4.5s0.2-1.8,0.3-2c0-0.1,0-0.3-0.1-0.4v-0.2c0.1,0.2,0.2,0.4,0.4,0.5c0.2,0.2,0.6,0.4,1.1,0.2
	c0.3-0.2,0.5-0.4,0.6-0.8c0.2,0,0.4-0.1,0.6-0.3c0.4-0.3,1-0.9,1.8-1.9s1.8-1.9,2.7-2.7c0.2,0.1,0.3,0.5,0.3,0.8
	c0,0.4,0.4,0.9,0.1,1.9s-1.1,2.2-1.8,2.8c-0.7,0.6-2,1.5-3.2,4.3s-2.9,5.3-3.1,6.4c-0.2,1,0,1.6-0.4,2.4s-1,1.2-1.6,0.9
	c-0.6-0.3-1-0.6-1.2-0.1c-0.2,0.4,0.8,0.6,1,0.7s0.1,0.3-0.1,0.4c-0.3,0.1-0.5,0.6-0.5,0.9s-0.4,1.7-0.7,2.6c1,0,1.9,0.5,2.2,1.5
	c3.2-1.1,0.6,0.8,3.3,0.4c0-0.2,0.7-0.5,1.3-1.1c2.5-2.6,1.3-3.1,0.7-4.3c-1.7-3.4-0.3-3.9,2-2.7c1.5,0.7,3.4,5.1,5.9,3.2
	c1.3-0.8,0.4-2.8-0.7-3.8c-2.4-2.9-0.4-4.7,2-2.9c1.5,1.3,4.8,2.6,7,1.6c2-2-3.5-4.8-2.8-8.6c0.4-0.9,1.7-1.1,2.3-1.9
	c1-1.4-0.4-1.8-0.5-2.7c0.5-0.9,1.8-1.4,2.3-2.5c1.2-2.7-2.2-5.1-1-5.9c1.1-0.8,2.1-1,2.1-1.9c0.1-1.6-1.6-0.9-2.9-2.8
	c1.9-1.4,3.6-5.5,0.2-8c1.8-1,2-3.8,0.5-5.3c0.6-0.9,2-0.9,2.5-1.9c0.1-1.1-0.3-2.5,0.5-3c2.9-3.4,4.4-1.4,9.1-3.6
	C122.6,36,123.3,31.5,120.8,29.5z M86.5,90.4c-0.2,0.6-1,0.7-1,0.7s0.1-0.2,0.1-0.5c0-0.1,0-0.2-0.1-0.3c0.1-0.1,0.1-0.2,0.1-0.3
	c0.3,0,0.5-0.2,0.8-0.4C86.5,89.8,86.6,90.1,86.5,90.4z M80.7,53.2c0.4-0.1,1.6,0.3,1.3-0.3c-0.3-0.7,0.2-0.4,0.4-0.3
	c0.3,0.2,0.6,0.2,0.3,0.7c-0.2,0.4,0,0.8,0,1.3c0,0.1,0,0.3-0.1,0.4c-0.2,0.3-0.2,0.7-0.2,1c0,0.2,0.1,0.3,0.1,0.5
	c0,0.1,0.1,0.1,0.1,0.2l0.1,0.1h0.1c0.3,0.2,0.2,0.5-0.2,0.5c-0.5,0-1.2-1.1-2.4-0.3C79,57.8,77,61.1,77,69.4
	c-0.1,8.2,2.4,10.4,3,11.4c0.3,0.4,0.6,0.9,0.9,1.2l-0.4,1.2c-3.3-1.2-5.2-5.8-5.3-15.4c0-2,0.2-5.9,1.1-7c1.2-1.7,0.7-1.9,1.3-2.6
	c0.6-0.7,2-1.6,2-2.3s0.3-1.9,0.8-1.9C80.9,53.9,80.3,53.3,80.7,53.2z M85.9,49.2c0.8,1.1,1.1,0.8,1.6,1.2c0.2,0.1,0.3,0.3,0.3,0.4
	c0,0.6,0.1,1.3,0,2.1c-0.1,0.3,0,0.6-0.1,0.8l-0.5-0.4c-0.2-0.2-0.4-0.3-0.6-0.4c-0.2-0.2-0.5-0.2-1.1-0.1h-0.1
	c-0.1,0-0.3,0.1-0.4,0.1h-0.1c-0.2,0-0.4,0-0.6,0c-0.2-0.2-0.3-0.3-0.5-0.3c-0.1-0.2-0.1-0.4-0.1-0.6c0-0.9,1.2-1.9,1.1-2.3
	C84.8,49.2,85.1,48.1,85.9,49.2z M85.5,46.1c0.5-0.7,0.9-0.3,1.4,0c0.6,0.3,1.2,2,1.4,2.4c0.1,0.2,0.1,0.4,0.1,0.6
	c-0.2,0.1-0.4,0.4-0.4,0.5s-0.1,0.3-0.1,0.4c-0.2-0.2-0.4-0.2-0.5-0.3c-0.1,0-0.2-0.1-0.3-0.1c-0.2-0.1-0.4-0.2-0.7-0.7
	c-0.2-0.3-0.5-0.6-0.7-0.6c-0.1,0-0.3-0.1-0.4,0C84.7,47.7,85,46.8,85.5,46.1z M83.8,53.4c0.4,0.5,0.8,0.3,1.2,0.2
	c0.5-0.1,1.2-0.4,1.7,0.2c0.5,0.6,1.1,0.8,1.3,1.3c0.2,0.6,0.6,0.9,0.8,1.3c0.2,0.3,0.2,0.7,0.2,0.7s-2.1,0.6-2.6,0.1
	s-0.9-0.8-1.5-0.4c-0.6,0.4-0.8,0.2-1.4,0c-0.1-0.2-0.2-0.3-0.4-0.3C83,56.4,83,56.3,83,56.1c0-0.3,0-0.6,0.1-0.6
	c0.1-0.2,0.2-0.5,0.2-0.7c0-0.1,0-0.2,0-0.2C83.4,53.8,83.4,52.9,83.8,53.4z M92.8,60.9c-0.7,0.8-1.5,2.4-1.8,3.6
	c-0.2,0.8-0.5,2.1-0.7,2.3c-0.1,0.3,0-1.3-0.1-2.4c0-0.4-0.1-0.6-0.4-0.7c-0.2,0-0.6-0.2-0.7-0.2c-0.3,0.1-0.6-0.2-0.7-0.1
	c-0.6-0.2-1.3-1.1-1-1.8c0.3-0.9,1.6-0.4,1.6,0.2c0,0.6,1.1,1.2,1.3,0.6c0.2-0.6,0.5-0.4,0.9-0.5c0.4,0,0.6-0.5,0.5-1
	s0.9-1.6-0.3-1.2c-1.2,0.4-1-0.2-1-0.2s0.9-0.2,1.3-0.4s1.1-0.5,0.8,0.1C92.1,60.1,93.4,60.1,92.8,60.9z M86.6,61.6
	c-0.8-0.7-1.9-1-3-1.1l-0.1-0.1l0.2-0.1c0.1,0,0.3,0,0.6,0.1c0.2,0.1,0.4,0.1,0.6,0.2c0.2,0.1,0.5,0.1,0.7,0.2c0.4,0,0.7-0.1,1-0.2
	c0,0.1,0,0.2-0.1,0.4C86.4,61.1,86.5,61.4,86.6,61.6z M85.7,60.1c-0.8-0.1-1.5-0.7-2.2-0.4s-1.5,0.6-1.6,0c0-0.6,1.5-0.8,1.8-1.1
	c0.2-0.2,0.4-0.8,0.7-1.2c0.3,0,0.5-0.1,0.8-0.3c0.1-0.1,0.2-0.1,0.3,0c0.1,0,0.2,0.1,0.4,0.3c0.1,0.1,0.2,0.2,0.4,0.3
	c0.3,0.2,0.7,0.2,1,0.1c0.4,0.2-0.2,0.6-0.1,1C87.2,59.4,86.5,60.2,85.7,60.1z M81.8,60.5c-0.7,0.2-1.4,0.5-1.7,1
	c-0.6,0.8-0.1,1.4,0.2,1.7c0.2,0.1,0.3,0.3,0.5,0.4c0.1,0,0.1,0.1,0.2,0.1c0.2,0.2,0.2,0.5,0.3,0.7l0.1,0.4c0,0.1,0.1,0.3,0.1,0.3
	c0.1,0.3,0,1.1-0.4,1.5c-0.3,0.3-0.4,0.6-0.4,0.8c-0.5,0.6-1.3,0.1-1.5-0.1s0.2-1,0.3-1.3c0.1-0.3,0.8-1.2,0.3-1.1
	c-0.5,0-0.4-0.4-0.1-0.6c0.2-0.3,0.2-0.5-0.3-0.3s-1,0.4-1,1.1s-0.1,0.7-0.4,0.7c-0.1,0-0.1-0.1-0.1-0.4c0.1-1.2,0.3-2.2,0.5-3.1
	c0.3-1.1,0.7-2,1.1-2.3c0.3-0.3,0.1-0.6-0.2-0.8c0.5-1.1,1-1.7,1.3-1.9s0.6-0.2,0.9-0.1c0.2,0.1,0.3,0.2,0.5,0.3
	c0.1,0.1,0.2,0.1,0.3,0.1c0.1,0,0.2,0.1,0.4,0.1c0.3,0,0.9-0.1,1.1-0.6c0.3,0.2-0.4,0.9-0.9,1.1c-0.1,0-0.2,0.1-0.3,0.1
	c-0.2,0.1-0.4,0.2-0.6,0.3c-0.2,0.2-0.5,0.5-0.5,0.9C81.4,60.2,81.6,60.4,81.8,60.5z M90.5,59.3c-0.2,0.1-0.4,0.2-0.6,0.3
	c-0.5,0.3-0.6,0.3-1.1,0.1c-0.3-0.1-0.4-0.2-0.8-0.2c-0.3,0-0.7,0.2-0.7-0.2c0-0.2,0.2-0.6,0.3-0.8c0.1-0.4-0.1-0.6,0.4-0.6
	c0.6,0,1.1-0.3,1.4,0.2l0,0c0.3,0.1,0.5,0.3,0.7,0.5c0.2,0.1,1,0.3,0.8,0.5C91.1,59.2,90.6,59.2,90.5,59.3z M39.2,72.2
	c-0.4,0.3-0.8,1.4-1,1.7c-0.2,0.3-0.3,0.7-0.3,1s-0.2,0.2-0.4,0.1s-0.6-0.2-0.2-0.4c0.3-0.2,0.7-0.9,1-1.5s0.3-1.3,0.3-1.3
	s0-0.1,0.4,0.1C39.3,72,39.6,71.9,39.2,72.2z M39.5,71.5c-0.3,0.2-0.6,0.1-0.4-0.5c0.2-0.6,0.9-1,1.2-1.5s0.2-1.1,0.6-1.3
	c0.3-0.2,0.7,0,0.7-0.5c0-0.4,0.6-1,0.8-0.6c0,0.4,0.2,0.8,0.3,1.1c0.2,0.5,0.3,0.9,0.4,1.1c0,0.1,0.1,0.2,0.1,0.4
	c0,0.1-0.1,0.3-0.2,0.5c-0.2,0.5-0.5,1-0.8,1.6c-0.2,0.3-0.4,0.7-0.6,1c0.3-0.6,0.6-1.4,0.3-1.5c-0.5-0.1-1.7-0.2-1.2-0.8
	c0.5-0.6,1.5-1.5,1.3-1.7c-0.2-0.3-1,0.1-1.2,0.5C40.7,69.6,39.8,71.4,39.5,71.5z M51.4,71.2c-0.2,0.7-0.1,1.5-0.5,2.1
	s-0.8,0.8-0.6,1.5c0.2,0.6,1,1.8,0.5,4.9s-1.3,3.5-0.9,4.1c0.3,0.6,0.5-0.2,0.7,0.1c0.2,0.3,0.2,0.9,0,1.3c-0.2,0.5-0.3,0.9-0.7,0.9
	c-0.5,0-0.3-0.7-1-0.2s-1.6,1.2-1.9,0.8c-0.3-0.3,1-1.5,0.6-1.7c-0.4-0.3-0.1-1.8,0.2-2.7c0.3-0.9,0.7-4.9,0.2-5.2
	c-0.5-0.3-0.2-1.7-0.6-1.9c-0.4-0.2,0.1-0.6,0.1-0.6s-1.4-0.9-1.3-2.1c0-1.3,0.7-2.7,1.6-2.8c0.9-0.1,1.1,0.4,1.5,0.3
	c0.4,0,0.3-0.8,1.2-0.5C51.2,69.8,51.6,70.5,51.4,71.2z M53,69.8c-0.5,0.5-0.8,0.8-1,0.9c0-0.8-0.5-1.4-1.3-1.8
	c-0.4-0.2-0.6-0.3-0.8-0.2c-0.3,0-0.6,0.1-0.8,0.4h-0.2c0,0-0.1,0-0.2-0.1c-0.4-0.4-1.5-0.2-2,0.3c-0.9,0.7-1.3,2.1-1.3,3.1
	c0,0.5,0.1,1,0.4,1.4c-0.2,0.2-0.7,0.4-1,0.4s-2.1,0.9-2.8,1.4s-1.6,1.6-2,1.5c-0.5-0.1,0.8-1.7,1.3-2.4c0.5-0.7,2.8-4.4,2.8-5.3
	c0-1-1.2-1.4-0.9-2.7c0.3-1.3,0.7-2,1.1-2.1c0.4-0.1,0.9-1.3,1.5-1.9c0.6-0.5,2.7-1.7,3.5-1.9c1.1-0.2,2,0,2.2,0.1
	c0.3,0.1,0.7-0.1,0.7-0.1s0.5,0.8,0.7,1.1s0.3,0.7-0.4,1.2s-1.3,1.5-1,2.6c0.4,1.1,0.8,1.6,1.4,2C53.4,68.1,54,68.9,53,69.8z
	 M54.2,59.4c-0.1,1.1-0.2,1.5-0.1,1.6c0.1,0.2,0.1,0.4-0.1,0.2c-0.3-0.2-0.6,0-0.8,0.3c-0.2-0.3-0.7-1.1-0.7-1.1
	c-0.1-0.2-0.5-0.3-0.7-0.1l-0.2,0.1c-0.4-0.1-1.3-0.3-2.5-0.1c-0.3,0.1-0.9,0.3-1.4,0.5c0-0.1,0-0.3,0.3-0.5
	c0.7-0.7,0.8-0.7,0.8-1.4s0.7-1.1,2.1-1.4c1.4-0.2,1.8-0.2,1.8,0c0,0.3-1.1,0.5-1.8,1s-0.8,0.7-0.7,1c0.2,0.3,0.5,0.1,0.6-0.3
	c0.1-0.3,0.8-0.8,1.6-1.1c0.7-0.3,1.1-0.4,1.3-0.2c0.2,0.1-0.8,0.8-0.4,0.8s0.7-0.3,0.7-0.5s0-0.6,0.3-0.9c0.3-0.4,0.5-0.3,0.5-0.3
	S54.2,58.3,54.2,59.4z M56.4,59.1c-0.1,0.8,0,1.3,0,1.3s-0.1-0.1-0.4-0.3c-0.3-0.2-0.7,0.6-1.3,1c0-0.1-0.1-0.2-0.1-0.3
	c0,0,0-0.1,0-0.2c0-0.2,0.1-0.6,0.1-1.2c0-0.5,0.1-1.1,0.3-1.5c0.1-0.4,0.2-0.7,0.2-0.7c0-0.1,0-0.3,0-0.4c0.2-0.1,0.4-0.2,0.5,0
	c0.2,0.2,0.6,0.1,1-0.2s0.6,0,0.6,0s0,0.7-0.3,0.7C56.6,57.4,56.4,58.3,56.4,59.1z M58.5,60.2c-0.2,0.3-1,0.6-1.6,0.4
	c0-0.1,0-0.2,0-0.4c0,0,0-0.1,0-0.3s0-0.5,0-0.8c0-0.4,0.1-0.7,0.2-1.1c0-0.1,0-0.2,0.1-0.2c0.2-0.1,0.3-0.3,0.4-0.4
	c0.1-0.1,0.1-0.3,0.1-0.4c0-0.1,0-0.1,0-0.2c0.1,0,0.2-0.1,0.3-0.2c0.9-0.8,1.3-0.4,1.8,0c0.5,0.5-0.1,0.5,0.1,0.8
	c0.1,0.1,0.4,0.2,0.6,0.1c-0.1,0.1-0.3,0.3-0.5,0.5c-0.1,0.1-0.2,0.3-0.3,0.4c-0.1,0.1-0.1,0.2-0.2,0.3c-0.1,0.2-0.3,0.5-0.7,1.1
	C58.7,60,58.6,60,58.5,60.2z M74.1,82.6c-1.2-0.1-2.2-0.4-3-1.2H71c-2.6,0.2-4.3-1.1-5.4-4.2c-1.1-0.6-1.9-1.4-2.6-2.8
	c-2.4-0.7-4-2.8-4.1-9.5c0-1.4-0.1-4.1,0.5-4.9c0.8-1.2,0.8-1.3,1.2-1.8s1.4-1.1,1.4-1.6s0.2-1.3,0.5-1.3s0-0.4,0.2-0.5
	c0.3,0,1.1,0.2,0.9-0.2c-0.2-0.5,0.1-0.3,0.3-0.2s1.1,0.1,0.9,0.4c-0.1,0.4-0.6,0.6-0.5,1.2c0,0.2,0,0.4-0.1,0.5
	c-0.2,0.2-0.4,0.3-0.6,0.5c-0.2,0.2-0.4,0.4-0.5,0.6c-0.1,0.2-0.2,0.3-0.3,0.4c-0.1,0.2-0.5,0.7-0.6,1l-0.1,0.1
	c-0.1,0.2-0.2,0.3-0.4,0.6c-0.1,0.2-0.3,0.5-0.4,0.8c-0.3,0.3-1.1,0.7-1.1,5.4c0,4.3,1.3,5.6,2.1,6.3c-0.4-1.6-0.6-3.7-0.7-6.5
	c0-1.6-0.1-4.7,0.5-5.7c1-1.3,0.9-1.5,1.4-2.1s1.6-1.3,1.6-1.8s0.2-1.5,0.6-1.5s0-0.5,0.3-0.5c0.3-0.1,1.3,0.3,1-0.3
	c-0.2-0.6,0.1-0.3,0.4-0.2c0.2,0.1,0.9,0.1,1.1,0.3c-0.2,0.2-0.3,0.5-0.4,0.7c-0.2,0.3-0.3,0.5-0.2,0.9c0,0.2,0,0.4-0.1,0.6
	c-0.1,0.1-0.2,0.2-0.4,0.4c-0.2,0.2-0.4,0.4-0.6,0.6c-0.2,0.2-0.4,0.4-0.6,0.6c-0.1,0.2-0.3,0.4-0.4,0.5s-0.2,0.3-0.3,0.5
	c-0.2,0.3-0.4,0.7-1,1.5c-0.2,0.3-0.3,0.6-0.4,1c-0.4,0.5-0.9,1.7-1,5.9c0,4.2,1,5.7,1.8,7c-0.3-1.9-0.5-4.3-0.5-7.1
	c0-1.9-0.2-5.5,0.6-6.6c1.1-1.5,1.1-1.7,1.6-2.4s1.9-1.5,1.9-2.1s0.2-1.8,0.7-1.8s0-0.6,0.3-0.6c0.4-0.1,1.5,0.3,1.2-0.3
	s0.2-0.4,0.4-0.2c0.2,0.1,1.4,0.1,1.3,0.6c-0.2,0.5-0.8,0.8-0.7,1.7v0.1c0,0.1,0,0.3,0,0.4c0,0.2-0.1,0.4-0.2,0.5s-0.2,0.2-0.4,0.3
	c-0.2,0.2-0.4,0.4-0.6,0.6c-0.2,0.2-0.5,0.4-0.6,0.6L69.8,58c-0.1,0.2-0.6,0.9-0.8,1.3c0,0.1-0.1,0.2-0.2,0.3
	c-0.1,0.2-0.3,0.4-0.5,0.7s-0.3,0.6-0.4,1c-0.4,0.5-1.4,0.9-1.5,7.3c-0.1,7.7,2.2,9.7,2.7,10.6c0.3,0.4,0.8,0.6,1.2,0.7
	c-1.4-2.3-2.1-6.2-2.2-12.5c0-1.9-0.2-5.7,0.6-6.8c1.2-1.6,1.1-1.8,1.7-2.5s2-1.6,2-2.2c0-0.6,0.3-1.9,0.7-1.9c0.5,0,0-0.6,0.3-0.6
	c0.4-0.1,1.5,0.3,1.2-0.3c-0.3-0.7,0.2-0.4,0.4-0.3c0.2,0.2,1.5,0.1,1.3,0.6c-0.1,0.1-0.2,0.2-0.2,0.3c-0.1,0.1-0.2,0.3-0.3,0.5
	c-0.1,0.2-0.3,0.5-0.2,0.9c0,0.3-0.1,0.5-0.1,0.7v0.1c-0.2,0.2-0.3,0.4-0.5,0.6c-0.2,0.2-0.5,0.4-0.7,0.6c-0.2,0.2-0.5,0.4-0.6,0.7
	c-0.2,0.2-0.3,0.4-0.4,0.6c-0.1,0.2-0.2,0.3-0.3,0.5c-0.2,0.3-0.5,0.8-1.1,1.6c-0.2,0.3-0.4,0.7-0.5,1.2c-0.5,0.5-1.5,1.1-1.5,7.5
	c-0.1,8,2,10.3,2.6,11.2c0.4,0.6,0.9,0.8,1.4,1.1c0.2,0.4,0.4,0.7,0.6,1.1C74.3,82.6,74.2,82.6,74.1,82.6z M71.5,67.9
	c0-2-0.2-5.9,0.7-7.1c1.2-1.7,1.1-1.9,1.7-2.6c0.6-0.8,2-1.6,2-2.3s0.3-1.9,0.8-1.9s0-0.6,0.3-0.7c0.4-0.1,1.6,0.3,1.3-0.3
	c-0.3-0.7,0.2-0.4,0.4-0.3c0.2,0.1,1.2,0.1,1.3,0.5c0,0.1,0,0.1,0,0.2v0.1c-0.2,0.1-0.3,0.2-0.4,0.4c-0.2,0.2-0.3,0.5-0.3,0.7
	c-0.2,0.5-0.2,1-0.2,1.4c0,0,0,0.1-0.1,0.1c-0.1,0.1-0.3,0.3-0.5,0.5S78,57,77.8,57.2s-0.5,0.4-0.6,0.7c-0.2,0.2-0.3,0.5-0.4,0.7
	s-0.1,0.3-0.2,0.5c-0.1,0.3-0.2,0.7-0.8,1.5c-0.2,0.3-0.3,0.6-0.5,1h-0.1c-0.5-0.4-1.8-0.2-1.8,8c-0.1,8.2,2,10.8,2.6,11.7
	c0.6,0.9,1.8,1.7,2.7,1.4c0.2,0.1,0.3,0.3,0.5,0.5c-0.1,0.1-0.2,0.2-0.4,0.2C73.8,84.7,71.6,79,71.5,67.9z M86.8,75.5
	c-0.4,0.3-0.5,0.7-0.9,1.1c-0.5,0.3-1.4,1.8-2.3,4.8c-1,3-0.9,5.4-0.8,6.5s0,2.4-0.9,2.4s-2-0.7-2.9-0.5s-1.6,0.2-1.4-0.4
	s1-0.5,1.3-0.7s0.9-1.5,1-1.8c3-8.3,2.7-9.9,3-10.5s-0.3-2.2-0.5-2.7c-0.3-0.5,0.4-2,1.1-1.8c0.6,0.1,1.5,0.5,2,1
	c0.5,0.6,0.3,1.1,0.8,1c0.5,0,0.8-0.4,0.9,0C87.2,74.3,87.3,75.2,86.8,75.5z M89.2,73c-0.5,1.3,0.4,1.8-0.2,2.1
	c-0.5,0.3-0.9-1.1-1.5-1.7c-0.1-0.1-0.2-0.1-0.2-0.2c-0.2-0.1-0.3-0.1-0.5,0h-0.1c-0.1,0-0.2,0-0.3,0.1h-0.1c0-0.1-0.1-0.2-0.1-0.3
	c-0.1-0.1-0.2-0.3-0.3-0.5c-0.6-0.7-1.6-1.1-2.3-1.2c-0.1,0-0.2,0-0.3,0c-0.1-0.5-0.2-0.9-0.5-1.2c-0.3-0.4-1.3-0.9-1.3-1.4
	s-0.4-1,0.1-1.7c0.6-0.6,0.6-1.7,0.5-2.1c-0.1-0.2-0.2-1-0.5-1.5s-1.6-0.9-1-1.7c0.7-1.1,4.8-1.4,6.3,1c1.5,2.4,0.5,3.6,2.4,4.5
	c0.5,0.3,0.6,0.8,0.3,1.3C89.2,69.1,89.7,71.7,89.2,73z M94.8,69.1c-0.7,0.5-1.4,1.3-3.1,3.2c-1.6,1.9-2.1,2.3-2.1,1.6
	c-0.1-0.6-0.2-0.8,0.1-1.1c0.3-0.3,0.3-1.9,0.2-2.3c0-0.5,0-1.7,0.1-1.9c0.1-0.3-0.1-0.9,0.5-1s0.5-1.8,1.3-3.8
	c0.6-1.4,0.7-2.2,1.8-2.9c0.2-0.2,0.8,0,1.3,0.9c0.2,0.3-0.1,1.3-0.2,1.7c0,0.4-0.5,1.7-0.2,2.7c0.1,0.2,0.5,0.7,0.6,1
	C95.5,67.5,95.6,68.6,94.8,69.1z M97.2,53.5c-0.6,0.9-1.6,1.3-2.6,1.5c-0.9,0.2-2.1,0.6-2.6-0.1c-0.3-0.4-1.2-1.1-1.2-1.6v-0.2
	l-0.1-0.5c0.1-0.1,0.4,0.9,0.7,0.4c0.1-0.2,0.2,0.8,0.6,0.5c0.2-0.5,0.2,0.6,0.6,0.3c0.1-0.5-0.3-1.8-0.1-2.2c0.3,0.4,0.5,1.5,1,1.9
	c0-0.2,0.1-0.5,0.1-0.6c0.4,0.1,0.3,0.6,0.7,0.7c0-0.3-0.1-0.6,0.1-0.9c0.2,0.1,0.3,0.5,0.6,0.6c0-0.1,0.1-0.8,0.2-0.8
	c0.2,0.1,0.3,0.5,0.4,0.5c0.1-0.1,0.1-0.7,0.2-0.7c0.1,0.1,0.2,0.3,0.3,0.4c0.1-0.1,0.1-0.3,0.2-0.4c0.1-0.6-0.1-1.1,0-1.7
	c0.4,0.5,0.4,1.5,0.6,2.2c0.1-0.7,0.3-0.1,0.3-0.2c0-0.1,0-0.6,0-0.8c0.1-0.1,0.3,0.5,0.4,0.4c0,0,0-0.2,0.1-0.3
	C97.7,50.6,97.8,52.7,97.2,53.5z M97.7,39.7c-0.2,0.3-0.1,1.1-0.5,1.7c-0.2,0.1-0.4,0.9-0.4,1c-0.1,0.2-0.1,0.8-0.2,1
	c0,0.2-0.1,0.3-0.1,0.5c0.2,1.1,0.4,2.5,0.6,3.2c0.2,1,0.4,2.8,0,3.8c-0.1-0.6-0.4-1.8-0.5-2.4c-0.1-0.4-0.2-0.8-0.4-1.2l-0.1,0.1
	c0.1,0.4,0.1,1.1,0,1.4c-0.2-0.1-0.4-0.7-0.6-0.9c-0.1,0.3,0,1-0.2,1.3c-0.2-0.1-0.5-0.6-0.7-0.7c-0.1,0.3-0.1,0.9-0.1,1.2
	c-0.1-0.1-0.5-0.6-0.7-0.8c-0.1,0.3,0,0.8-0.2,1.1c-0.3-0.1-0.5-0.7-0.6-0.9c-0.2,0.3-0.2,1.2-0.4,1.5c-0.1-0.3-0.3-1.2-0.6-1.5l0,0
	c-0.2,0.4-0.1,1-0.4,1.3c-0.1-0.4-0.4-0.7-0.4-1.1v-0.1c0-0.1,0-0.3,0-0.4c-0.1-0.1-0.3-0.1-0.3-0.2l0,0c0.1,0.6,0.2,1.1,0.3,1.7
	c0.1,0.6,0.5,1.8,0.6,2.4c-0.8-0.6-1.4-2.3-1.7-3.2c-0.3-0.9-0.8-2.2-1.1-3.2c-1-0.8-2.4-1.9-4.1-2.3c-2-0.5-3.4-1.4-3.2-2
	c0.2-0.6-0.5-0.8-0.5-1.2s-0.3-2,0.1-2.3c0.5-0.3,1.8-1.6,1.8-2.9c0-1.3,1.2-1.9,1.7-2.2s1.3-0.3,1.6-0.6c0.3-0.3,0.8-0.6,1.5-0.3
	c0.6,0.2,0.9-0.4,1.2-0.8c0.3-0.4,0.9-0.3,1.2-0.1c0.2,0.2,0.8-0.4,0.8-0.4s0.1,0,1.2-0.1s1.6-0.3,2,0.7c0.5,1,1.9,0.6,2.7,0.5
	c0.8-0.1,0.8,1.3,0.7,1.9C97.8,34.9,98.4,38.3,97.7,39.7z"/>
<path class="st2" d="M86.6,60.5c-0.2,0.2-0.6,0.3-1,0.2c-0.3,0-0.5-0.1-0.7-0.2c-0.2-0.1-0.4-0.1-0.6-0.2c-0.4-0.1-0.5-0.1-0.6-0.1
	l-0.2,0.1l0.1,0.1c1.1,0.1,2.2,0.5,3,1.1c0-0.2-0.2-0.4,0-0.6C86.6,60.7,86.6,60.5,86.6,60.5z"/>
<path class="st2" d="M79.6,55.8c0,0.7-1.4,1.5-2,2.3c-0.6,0.7-0.1,1-1.3,2.6c-0.8,1.2-1.1,5-1.1,7c0.1,9.6,2,14.2,5.4,15.4l0.4-1.2
	c-0.4-0.3-0.7-0.8-0.9-1.2c-0.6-0.9-3-3.1-3-11.4c0.1-8.2,2.1-11.6,3.2-12.4c1.2-0.8,1.9,0.3,2.4,0.3c0.4,0,0.5-0.3,0.2-0.5h-0.1
	l-0.1-0.1c0,0-0.1-0.1-0.1-0.2c-0.1-0.1-0.1-0.3-0.1-0.5c0-0.4,0-0.8,0.2-1c0.1-0.1,0.1-0.3,0.1-0.4c0-0.4-0.2-0.9,0-1.3
	c0.2-0.5-0.1-0.6-0.3-0.7c-0.3-0.2-0.7-0.4-0.4,0.3c0.3,0.7-0.9,0.2-1.3,0.3s0.2,0.7-0.3,0.7C79.8,53.9,79.6,55.2,79.6,55.8z"/>
<path class="st2" d="M50.3,69.5c-0.9-0.3-0.8,0.4-1.2,0.5c-0.4,0-0.5-0.5-1.5-0.3c-1,0.1-1.6,1.5-1.6,2.8s1.3,2.1,1.3,2.1
	s-0.5,0.4-0.1,0.6s0.1,1.7,0.6,1.9c0.5,0.3,0.1,4.3-0.2,5.2S47,84.8,47.4,85c0.4,0.3-0.9,1.4-0.6,1.7c0.3,0.3,1.3-0.4,1.9-0.8
	c0.7-0.5,0.5,0.3,1,0.2c0.5,0,0.5-0.5,0.7-0.9c0.2-0.5,0.2-1,0-1.3s-0.4,0.5-0.7-0.1s0.5-1,0.9-4.1c0.5-3.1-0.3-4.3-0.5-4.9
	s0.3-0.9,0.6-1.5s0.3-1.4,0.5-2.1C51.6,70.5,51.2,69.8,50.3,69.5z"/>
<path class="st2" d="M83.4,54.4c0,0.1,0,0.2,0,0.2c0,0.2-0.1,0.5-0.2,0.7c-0.1,0.1-0.1,0.4-0.1,0.6c0,0.1,0,0.2,0.1,0.4
	c0.1,0.1,0.3,0.2,0.4,0.3c0.6,0.1,0.8,0.4,1.4,0s1-0.1,1.5,0.4s2.6-0.1,2.6-0.1s0-0.4-0.2-0.7s-0.6-0.7-0.8-1.3
	c-0.2-0.4-0.8-0.7-1.3-1.3s-1.2-0.3-1.7-0.2s-0.8,0.3-1.2-0.2C83.4,52.9,83.4,53.8,83.4,54.4z"/>
<path class="st2" d="M54.2,57.3c-0.3,0.4-0.3,0.8-0.3,0.9c0,0.2-0.3,0.5-0.7,0.5s0.6-0.7,0.4-0.8s-0.6,0-1.3,0.2
	c-0.7,0.3-1.5,0.7-1.6,1.1c-0.1,0.3-0.4,0.6-0.6,0.3c-0.2-0.3,0-0.5,0.7-1s1.7-0.7,1.8-1c0-0.3-0.4-0.3-1.8,0
	c-1.4,0.2-2.1,0.7-2.1,1.4s-0.1,0.7-0.8,1.4c-0.3,0.3-0.4,0.4-0.3,0.5c0.5-0.3,1.1-0.5,1.4-0.5c1.2-0.2,2.1,0,2.5,0.1
	c0,0,0.1,0,0.2-0.1c0.2-0.1,0.6-0.1,0.7,0.1c0,0,0.5,0.7,0.7,1.1c0.2-0.3,0.5-0.5,0.8-0.3s0.2,0,0.1-0.2c-0.1-0.2,0-0.5,0.1-1.6
	s0.5-2.3,0.5-2.3S54.5,56.9,54.2,57.3z"/>
<path class="st2" d="M42,68.8c0.2,0.3-0.8,1.1-1.3,1.7s0.7,0.7,1.2,0.8c0.3,0.1,0,0.9-0.3,1.5c0.2-0.3,0.4-0.6,0.6-1
	c0.3-0.5,0.6-1.1,0.8-1.6c0.1-0.2,0.2-0.4,0.2-0.5c0-0.2,0-0.3-0.1-0.4c-0.1-0.2-0.3-0.6-0.4-1.1c-0.2-0.3-0.3-0.6-0.3-1.1
	c-0.3-0.5-0.8,0.2-0.8,0.6s-0.4,0.3-0.7,0.5s-0.3,0.9-0.6,1.3C40,70,39.4,70.4,39.1,71s0,0.6,0.4,0.5c0.3-0.2,1.2-1.9,1.4-2.3
	C41,68.9,41.9,68.5,42,68.8z"/>
<path class="st2" d="M52.8,67.7c-0.6-0.4-1-0.9-1.4-2s0.3-2.1,1-2.6s0.6-0.9,0.4-1.2c-0.2-0.3-0.7-1.1-0.7-1.1s-0.4,0.2-0.7,0.1
	c-0.3-0.1-1.1-0.3-2.2-0.1c-0.8,0.1-2.8,1.3-3.5,1.9c-0.6,0.5-1.1,1.8-1.5,1.9s-0.8,0.7-1.1,2.1C42.8,68,44,68.5,44,69.4
	s-2.3,4.6-2.8,5.3c-0.5,0.7-1.8,2.3-1.3,2.4s1.3-1,2-1.5s2.5-1.4,2.8-1.4c0.2,0,0.8-0.2,1-0.4c-0.2-0.4-0.4-0.8-0.4-1.4
	c0-1,0.5-2.4,1.3-3.1c0.5-0.5,1.6-0.7,2-0.3c0.1,0,0.1,0,0.2,0.1H49c0.2-0.2,0.5-0.4,0.8-0.4c0.2-0.1,0.4,0,0.8,0.2
	c0.8,0.3,1.3,1,1.3,1.8c0.2-0.2,0.5-0.5,1-0.9C54,68.9,53.4,68.1,52.8,67.7z"/>
<path class="st2" d="M81.8,58.9c0.2-0.1,0.4-0.3,0.6-0.3c0.1,0,0.2-0.1,0.3-0.1c0.5-0.2,1.1-0.9,0.9-1.1c-0.2,0.6-0.7,0.7-1.1,0.6
	c-0.1,0-0.3-0.1-0.4-0.1s-0.2-0.1-0.3-0.1c-0.1-0.1-0.3-0.2-0.5-0.3c-0.3-0.1-0.6-0.1-0.9,0.1c-0.3,0.2-0.8,0.8-1.3,1.9
	c0.2,0.2,0.5,0.5,0.2,0.8c-0.4,0.4-0.8,1.2-1.1,2.3c-0.2,0.9-0.4,1.9-0.5,3.1c0,0.3,0.1,0.4,0.1,0.4c0.2,0,0.3-0.1,0.4-0.7
	c0-0.7,0.5-0.9,1-1.1s0.6,0,0.3,0.3c-0.2,0.2-0.4,0.7,0.1,0.6c0.5,0-0.1,0.9-0.3,1.1c-0.1,0.3-0.6,1.1-0.3,1.3
	c0.2,0.2,1,0.6,1.5,0.1c0-0.3,0.2-0.6,0.4-0.8c0.4-0.4,0.5-1.3,0.4-1.5c0-0.1-0.1-0.2-0.1-0.3l-0.1-0.4C81,64.4,81,64.2,80.8,64
	c0,0-0.1-0.1-0.2-0.1c-0.2-0.1-0.4-0.3-0.5-0.4c-0.3-0.3-0.8-0.9-0.2-1.7c0.3-0.5,0.9-0.8,1.7-1c-0.2-0.1-0.4-0.3-0.4-0.7
	C81.3,59.4,81.6,59.1,81.8,58.9z"/>
<path class="st2" d="M85.7,90c0,0.1,0,0.2-0.1,0.3c0.1,0.1,0.1,0.1,0.1,0.3c-0.1,0.3-0.1,0.5-0.1,0.5s0.7-0.1,1-0.7
	c0.1-0.3,0.1-0.6,0-0.7C86.2,89.9,86,90,85.7,90z"/>
<path class="st2" d="M83.8,52.6c0.1,0,0.3,0.1,0.5,0.3c0.1,0,0.3,0,0.6,0H85c0.1,0,0.2-0.1,0.4-0.1h0.1c0.6-0.2,0.9-0.1,1.1,0.1
	c0.2,0.1,0.4,0.2,0.6,0.4l0.7,0.5c0.1-0.2,0-0.6,0.1-0.8c0-0.7-0.1-1.5,0-2.1c-0.1-0.1-0.2-0.3-0.3-0.4c-0.5-0.4-0.8-0.1-1.6-1.2
	c-0.8-1.1-1.1,0-1.1,0.4c0,0.5-1.1,1.5-1.1,2.3C83.7,52.2,83.7,52.5,83.8,52.6z"/>
<path class="st2" d="M91.5,59.3c-0.4,0.2-1.3,0.4-1.3,0.4s-0.2,0.5,1,0.2c1.2-0.4,0.2,0.8,0.3,1.2c0.1,0.5-0.1,0.9-0.5,1
	c-0.4,0-0.6-0.1-0.9,0.5c-0.2,0.6-1.4,0-1.3-0.6c0-0.6-1.3-1.2-1.6-0.2c-0.2,0.7,0.4,1.5,1,1.8c0.1,0,0.5,0.2,0.7,0.1
	c0.2,0,0.5,0.1,0.7,0.2c0.3,0,0.4,0.2,0.4,0.7c0.1,1,0.1,2.6,0.1,2.4c0.2-0.2,0.6-1.5,0.7-2.3c0.2-1.3,1.1-2.8,1.8-3.6
	c0.7-0.8-0.6-0.9-0.4-1.5C92.6,58.7,91.9,59.1,91.5,59.3z"/>
<path class="st2" d="M85.7,48.2c0.3,0.1,0.5,0.3,0.7,0.6c0.4,0.5,0.6,0.6,0.7,0.7c0.1,0,0.2,0.1,0.3,0.1c0.1,0.1,0.3,0.1,0.5,0.3
	c0-0.1,0.1-0.3,0.1-0.4c0-0.1,0.1-0.3,0.4-0.5c0-0.2,0-0.4-0.1-0.6c-0.2-0.4-0.8-2.1-1.4-2.4c-0.6-0.3-0.9-0.7-1.4,0
	s-0.8,1.6-0.3,2.1C85.4,48.2,85.5,48.2,85.7,48.2z"/>
<path class="st2" d="M87.1,58.8c0-0.4,0.5-0.8,0.1-1c-0.3,0-0.7,0-1-0.1c-0.1,0-0.3-0.1-0.4-0.3c-0.2-0.2-0.3-0.3-0.4-0.3
	s-0.1,0-0.3,0c-0.3,0.2-0.6,0.3-0.8,0.3c-0.3,0.4-0.4,0.9-0.7,1.2c-0.3,0.4-1.9,0.5-1.8,1.1c0,0.6,0.8,0.3,1.6,0
	c0.7-0.3,1.3,0.3,2.2,0.4C86.5,60.2,87.2,59.4,87.1,58.8z"/>
<path class="st2" d="M72.3,80.4c-0.6-0.9-2.7-3.2-2.6-11.2c0-6.4,1.1-7.1,1.5-7.5c0.1-0.5,0.3-0.9,0.5-1.2c0.6-0.8,0.9-1.3,1.1-1.6
	c0.1-0.2,0.2-0.3,0.3-0.5c0.1-0.2,0.2-0.3,0.4-0.6c0.2-0.2,0.4-0.5,0.6-0.7s0.5-0.4,0.7-0.6c0.2-0.2,0.4-0.4,0.5-0.6v-0.1
	c0-0.2,0-0.5,0.1-0.7c0-0.4,0.1-0.6,0.2-0.9c0.1-0.2,0.2-0.3,0.3-0.5c0.1-0.1,0.1-0.2,0.2-0.3c0.2-0.5-1-0.5-1.3-0.6
	c-0.3-0.2-0.7-0.4-0.4,0.3c0.3,0.7-0.8,0.2-1.2,0.3c-0.4,0.1,0.1,0.6-0.3,0.6c-0.5,0-0.8,1.2-0.7,1.9c0,0.6-1.4,1.5-2,2.2
	s-0.5,0.9-1.7,2.5c-0.8,1.1-0.7,4.9-0.6,6.8c0.1,6.2,0.8,10.2,2.2,12.5c0.2,0.1,0.3,0.1,0.5,0.2c0.2,0.4,0.4,0.8,0.6,1.1l0,0
	c0.8,0.7,1.9,1.1,3,1.2c0.1,0,0.2,0,0.2,0c-0.2-0.3-0.5-0.7-0.6-1.1C73.2,81.2,72.7,81.1,72.3,80.4z"/>
<path class="st2" d="M79.1,83.1c-0.1-0.1-0.3-0.3-0.5-0.5c-0.9,0.3-2.1-0.5-2.7-1.4s-2.7-3.5-2.6-11.7c0.1-8.3,1.4-8.5,1.8-8h0.1
	c0.1-0.4,0.3-0.8,0.5-1c0.6-0.8,0.7-1.2,0.8-1.5c0.1-0.2,0.1-0.4,0.2-0.5c0.1-0.2,0.2-0.4,0.4-0.7c0.2-0.2,0.4-0.5,0.6-0.7
	s0.5-0.4,0.7-0.6c0.2-0.2,0.4-0.4,0.5-0.5c0-0.1,0.1-0.1,0.1-0.1c0-0.4,0.1-0.9,0.2-1.4c0.1-0.2,0.2-0.5,0.3-0.7
	c0.1-0.1,0.2-0.3,0.4-0.4v-0.1c0-0.1,0-0.1,0-0.2c-0.1-0.3-1.1-0.3-1.3-0.5c-0.3-0.2-0.7-0.4-0.4,0.3c0.3,0.7-0.9,0.2-1.3,0.3
	s0.2,0.7-0.3,0.7s-0.8,1.3-0.8,1.9c0,0.7-1.4,1.5-2,2.3c-0.6,0.7-0.5,0.9-1.7,2.6c-0.8,1.2-0.7,5.1-0.7,7.1
	c0.1,11.2,2.3,16.8,7.3,15.4C78.9,83.2,79.1,83.1,79.1,83.1z"/>
<path class="st2" d="M86.2,74c-0.5,0-0.4-0.5-0.8-1c-0.5-0.6-1.4-0.9-2-1s-1.3,1.3-1.1,1.8c0.3,0.5,0.8,2.2,0.5,2.7
	c-0.3,0.6,0,2.2-3,10.5c-0.1,0.3-0.7,1.6-1,1.8c-0.3,0.2-1.1,0.1-1.3,0.7c-0.2,0.6,0.6,0.6,1.4,0.4c0.9-0.2,2,0.5,2.9,0.5
	s1-1.3,0.9-2.4s-0.1-3.5,0.8-6.5c1-3,1.9-4.4,2.3-4.8c0.5-0.3,0.5-0.7,0.9-1.1c0.4-0.3,0.3-1.2,0.3-1.6C87,73.6,86.7,74,86.2,74z"/>
<path class="st2" d="M63.1,67.3c0-4.2,0.6-5.4,1-5.9c0.1-0.4,0.2-0.7,0.4-1c0.5-0.7,0.8-1.2,1-1.5c0.1-0.2,0.2-0.3,0.3-0.5
	c0.1-0.1,0.2-0.3,0.4-0.5c0.2-0.2,0.4-0.4,0.6-0.6c0.2-0.2,0.4-0.4,0.6-0.6c0.2-0.2,0.3-0.3,0.4-0.4c0.1-0.2,0.1-0.4,0.1-0.6
	c0-0.4,0.1-0.6,0.2-0.9c0.1-0.2,0.2-0.5,0.4-0.7c-0.2-0.2-0.9-0.2-1.1-0.3S66.8,53.5,67,54c0.2,0.6-0.7,0.2-1,0.3s0.1,0.5-0.3,0.5
	s-0.6,1-0.6,1.5s-1.2,1.2-1.6,1.8c-0.5,0.6-0.4,0.8-1.4,2.1c-0.7,0.9-0.6,4-0.5,5.7c0,2.7,0.3,4.8,0.7,6.5c0.3,0.2,0.5,0.4,0.6,0.5
	c0,0.1,0.1,0.1,0.1,0.2c0.1,0.5,0.2,1,0.4,1.4c-0.1,0-0.3-0.1-0.4-0.1c0.7,1.4,1.5,2.3,2.6,2.8c-0.3-0.9-0.5-1.9-0.7-3
	C64.1,73,63.1,71.5,63.1,67.3z"/>
<path class="st2" d="M89.2,67.3c-1.8-1-0.9-2.2-2.4-4.5c-1.5-2.4-5.6-2.1-6.3-1c-0.6,0.8,0.7,1.2,1,1.7c0.3,0.5,0.4,1.2,0.5,1.5
	c0.2,0.4,0.1,1.5-0.5,2.1s-0.2,1.1-0.1,1.7c0,0.5,1,1.1,1.3,1.4s0.4,0.7,0.5,1.2c0.1,0,0.2,0,0.3,0c0.7,0.1,1.7,0.5,2.3,1.2
	c0.1,0.2,0.2,0.3,0.3,0.5c0.1,0.1,0.1,0.2,0.1,0.3h0.1c0.1,0,0.2-0.1,0.3-0.1h0.1c0.1-0.1,0.3-0.1,0.5,0c0,0,0.1,0.1,0.2,0.2
	c0.5,0.6,0.9,1.9,1.5,1.7c0.6-0.3-0.3-0.8,0.2-2.1c0.5-1.3,0-3.9,0.3-4.4C89.8,68.1,89.7,67.6,89.2,67.3z"/>
<path class="st2" d="M60.2,66.1c0-4.7,0.8-5,1.1-5.4c0.1-0.3,0.2-0.6,0.4-0.8s0.3-0.4,0.4-0.6l0.1-0.1c0.1-0.3,0.5-0.8,0.6-1
	c0.1-0.1,0.2-0.3,0.3-0.4c0.2-0.2,0.4-0.4,0.5-0.6c0.2-0.2,0.4-0.3,0.6-0.5c0.1-0.2,0.1-0.4,0.1-0.5c0-0.6,0.4-0.9,0.5-1.2
	s-0.7-0.3-0.9-0.4c-0.2-0.1-0.5-0.3-0.3,0.2S63,55,62.7,55s0.1,0.5-0.2,0.5S62,56.4,62,56.8c0,0.5-1,1.1-1.4,1.6s-0.4,0.6-1.2,1.8
	c-0.6,0.8-0.5,3.5-0.5,4.9c0.1,6.7,1.6,8.7,4.1,9.5c-0.3-0.6-0.5-1.3-0.7-2.1C61.4,71.7,60.2,70.4,60.2,66.1z"/>
<path class="st2" d="M63,73.1c0-0.1-0.1-0.1-0.1-0.2c-0.1-0.1-0.3-0.3-0.6-0.5c0.2,0.8,0.4,1.5,0.7,2.1c0.1,0,0.2,0.1,0.4,0.1
	C63.2,74.1,63.1,73.6,63,73.1z"/>
<path class="st2" d="M84.8,90.3c0.3-0.2,0.3-0.3,0.1-0.4c-0.2-0.1-1.2-0.2-1-0.7c0.2-0.4,0.6-0.2,1.2,0.1c0.6,0.3,1.2-0.1,1.6-0.9
	s0.1-1.4,0.4-2.4c0.2-1,1.9-3.6,3.1-6.4s2.5-3.7,3.2-4.3c0.7-0.6,1.5-1.8,1.8-2.8s-0.1-1.5-0.1-1.9c0-0.3-0.1-0.6-0.3-0.8
	c-0.8,0.8-1.8,1.7-2.7,2.7c-0.8,0.9-1.4,1.6-1.8,1.9c-0.2,0.2-0.5,0.3-0.6,0.3c0,0.3-0.3,0.6-0.6,0.8c-0.5,0.3-0.9,0-1.1-0.2
	c-0.2-0.1-0.3-0.3-0.4-0.5V75c0.1,0.2,0.1,0.3,0.1,0.4c-0.1,0.3-0.4,1.4-0.3,2c0.1,0.7,0.1,2-0.8,4.5s-1.4,3-1.6,3.8
	c-0.2,0.7-0.8,1.7-1.3,2.1c-0.2,0.2-0.4,0.4-0.5,0.6c0,0.3,0,0.7-0.1,1c-0.1,0.6-0.6,1.3-1.4,1.3c-0.1,0-0.2,0-0.4,0
	c-0.1,0.2-0.2,0.4-0.3,0.7c-0.1,0.2-0.2,0.5-0.2,0.6c-0.1,0.6-0.2,2-0.1,3.4c0.8-1.2,1.9-1.8,2.9-1.8c0.3-0.8,0.7-2.3,0.7-2.6
	C84.3,90.9,84.6,90.5,84.8,90.3z"/>
<path class="st2" d="M79.8,99.1c0-1,0.2-1.8,0.5-2.5c0-0.1,0-0.1,0-0.2c-0.2-1.8-0.1-3.5,0-4.3c0.1-0.5,0.5-1.1,0.6-1.4
	c-0.2-0.1-0.5-0.1-0.7-0.2s-0.5-0.1-0.7-0.2c-0.2,0-0.3,0-0.5,0c-0.2,0.1-0.5,0.1-0.7,0.1c-0.4,0.3-0.8,0.8-1,1.1
	c-0.3,0.6,0.3,1.1,0.6,2.1c0.3,1.1,0.2,2,0.6,3.6c0.2,0.8,0.2,2,0.2,3.2C79.4,100.2,79.8,99.7,79.8,99.1z"/>
<path class="st2" d="M94.7,66.1c-0.4-1.1,0.1-2.4,0.2-2.7c0-0.4,0.4-1.4,0.2-1.7c-0.6-0.9-1.1-1-1.3-0.9c-1.1,0.7-1.3,1.5-1.8,2.9
	c-0.8,2-0.7,3.7-1.3,3.8c-0.6,0.1-0.4,0.7-0.5,1s-0.1,1.4-0.1,1.9s0,2-0.2,2.3c-0.3,0.4-0.2,0.5-0.1,1.1s0.5,0.3,2.1-1.6
	s2.3-2.7,3.1-3.2c0.7-0.5,0.6-1.6,0.5-1.9C95.2,66.9,94.8,66.4,94.7,66.1z"/>
<path class="st2" d="M70,80.1c-0.4-0.2-1-0.3-1.2-0.7c-0.5-0.8-2.8-2.9-2.7-10.6c0-6.4,1.1-6.8,1.5-7.3c0.1-0.4,0.3-0.7,0.4-1
	c0.2-0.3,0.4-0.5,0.5-0.7c0.1-0.1,0.1-0.2,0.2-0.3c0.2-0.4,0.7-1.2,0.8-1.3l0.1-0.2c0.2-0.2,0.4-0.5,0.6-0.6
	c0.2-0.2,0.4-0.4,0.6-0.6c0.1-0.1,0.3-0.2,0.4-0.3s0.1-0.3,0.2-0.5c0-0.1,0-0.2,0-0.4v-0.1c-0.1-0.9,0.5-1.2,0.7-1.7s-1-0.5-1.3-0.6
	s-0.7-0.4-0.4,0.2c0.3,0.6-0.8,0.2-1.2,0.3c-0.4,0.1,0.1,0.6-0.3,0.6c-0.5,0-0.7,1.2-0.7,1.8s-1.3,1.4-1.9,2.1
	c-0.5,0.7-0.5,0.9-1.6,2.4c-0.8,1.1-0.6,4.7-0.6,6.6c0,2.8,0.2,5.1,0.5,7.1c0.2,0.3,0.4,0.7,0.5,1c0.2,1,0.6,1.4,0.9,2.2
	c-0.2-0.1-0.4-0.2-0.6-0.3c1.1,3.1,2.8,4.4,5.4,4.2h0.1C70.7,81.1,70.3,80.6,70,80.1z"/>
<path class="st2" d="M70.5,80.3c-0.1-0.1-0.3-0.1-0.5-0.2c0.3,0.5,0.7,1,1.1,1.3l0,0C70.9,81.1,70.7,80.7,70.5,80.3z"/>
<path class="st2" d="M65.3,75.3c-0.1-0.4-0.3-0.7-0.5-1c0.2,1.1,0.4,2.1,0.7,3c0.2,0.1,0.4,0.2,0.6,0.3C66,76.8,65.5,76.3,65.3,75.3
	z"/>
<path class="st2" d="M59.6,58.8c0.1-0.1,0.1-0.2,0.2-0.3c0.1-0.1,0.2-0.2,0.3-0.4s0.3-0.3,0.5-0.5c-0.2,0-0.5,0-0.6-0.1
	c-0.2-0.3,0.4-0.3-0.1-0.8s-0.9-0.9-1.8,0c-0.1,0.1-0.2,0.1-0.3,0.2c0,0.1,0,0.1,0,0.2c0,0.1-0.1,0.3-0.1,0.4
	c-0.1,0.1-0.2,0.3-0.4,0.4c0,0,0,0.1-0.1,0.2c-0.1,0.3-0.2,0.7-0.2,1.1c0,0.3,0,0.6,0,0.8s0,0.3,0,0.3c0,0.2,0,0.3,0,0.4
	c0.6,0.1,1.4-0.1,1.6-0.4c0.1-0.1,0.2-0.2,0.4-0.3C59.3,59.3,59.5,59,59.6,58.8z"/>
<path class="st2" d="M37.2,75.4c-0.4-0.1-0.4,0-0.4,0s0,0.5-0.1,1.1c0.1,0,0.2,0,0.3,0.1c0.1-0.4,0.3-0.7,0.5-0.9
	C37.9,75.3,37.6,75.4,37.2,75.4z"/>
<path class="st2" d="M38.9,71.9c-0.4-0.1-0.4-0.1-0.4-0.1s-0.1,0.7-0.3,1.3c-0.3,0.6-0.7,1.3-1,1.5s0,0.4,0.2,0.4
	c0.2,0.1,0.4,0.2,0.4-0.1c0-0.3,0.1-0.6,0.3-1c0.2-0.3,0.6-1.4,1-1.7C39.6,71.9,39.3,72,38.9,71.9z"/>
<path class="st2" d="M50.9,89.6c0.3,0,0.5-0.4,0.5-0.8s0.6-0.9,0.8-1.3c0.3-0.4-0.4-0.8-0.3-1.1c0-0.4,0.6-1.6,0.8-1.7
	c0.3-0.1,0.5-0.6,0.4-0.8c-0.1-0.2-0.5-0.6,0.2-2.6c0.8-2,1.6-5.8,1.7-7.6c0.1-1.8-0.4-2.4-0.2-2.9s0.1-0.9-0.3-1.6
	c-0.1-0.2-0.3-0.2-0.4-0.1c-0.1,0.4-0.3,0.7-0.7,1.1c-0.5,0.5-0.8,0.8-1.1,1c-0.1,0.1-0.3,0.2-0.4,0.2c0,0.1-0.1,0.3-0.1,0.4
	c0,0.2,0,0.4-0.1,0.6c0,0.4-0.1,0.8-0.4,1.3c-0.1,0.2-0.2,0.3-0.3,0.5c-0.1,0.1-0.1,0.2-0.3,0.4c0,0.1,0.1,0.3,0.1,0.5
	c0.1,0.3,0.3,0.7,0.4,1.3c0.2,0.8,0.2,2,0,3.6s-0.6,2.5-0.8,3.1l-0.1,0.3v0.1c0.3,0,0.5,0.1,0.6,0.3c0.3,0.5,0.3,1.2,0,1.9
	c-0.1,0.2-0.2,0.5-0.3,0.6c-0.2,0.3-0.5,0.6-1,0.7c-0.1,0.2,0.6,0.2,0.9,0.4c0.3,0.1,0.8,0.4,0.7,0.5s-0.3-0.2-0.9-0.3
	c-0.3-0.1-0.5-0.1-0.6-0.1c0.2,0.6,0.1,1.4-0.9,1.9c-0.2,0.1-0.5,0.3-0.8,0.5c-0.2,0.2-0.5,0.4-0.8,0.5c-0.5,0.3-1.1,0.7-1.7,1.2
	l0,0c0.2,0.3,0.4,0.6,0.7,0.8c1.5-1.4,1.9-1.5,2.6-2C49.7,89.7,50.6,89.5,50.9,89.6z"/>
<path class="st2" d="M57.2,56.6c0,0-0.2-0.3-0.6,0c-0.4,0.3-0.8,0.4-1,0.2c-0.1-0.1-0.3-0.1-0.5,0c0,0.1,0.1,0.3,0,0.4
	c0,0-0.1,0.3-0.2,0.7c-0.1,0.4-0.2,1-0.3,1.5c0,0.6-0.1,0.9-0.1,1.2c0,0.1,0,0.2,0,0.2c0,0.1,0.1,0.2,0.1,0.3c0.6-0.4,1-1.2,1.3-1
	s0.4,0.3,0.4,0.3s-0.1-0.6,0-1.3c0.1-0.8,0.3-1.7,0.6-1.7C57.2,57.2,57.2,56.6,57.2,56.6z"/>
<path class="st2" d="M49.2,87.2c-0.2-0.1,0-0.4-0.1-0.6c0,0,0-0.1-0.1-0.1c-0.3,0.2-0.7,0.5-1.1,0.7c-0.2,0.1-0.4,0.2-0.7,0.2
	c-0.2,0-0.4,0-0.6-0.1c-0.1,0-0.2,0-0.2,0s-0.4,0.6-0.8,1.1c-0.1,0.9-0.2,1.7,0,2.5c1.5-1.1,2.7-1.9,3.2-2.2
	C49.6,88.2,49.4,87.4,49.2,87.2z"/>
<path class="st2" d="M97.1,32.3c-0.8,0.1-2.2,0.5-2.7-0.5s-1-0.8-2-0.7c-1.1,0.1-1.2,0.1-1.2,0.1s-0.6,0.7-0.8,0.4
	c-0.3-0.2-0.9-0.2-1.2,0.1c-0.3,0.4-0.6,1-1.2,0.8c-0.6-0.2-1.2,0-1.5,0.3s-1.2,0.4-1.6,0.6c-0.5,0.2-1.7,0.9-1.7,2.2
	s-1.4,2.5-1.8,2.9c-0.5,0.3-0.1,1.9-0.1,2.3c0,0.4,0.7,0.6,0.5,1.2c-0.2,0.6,1.2,1.5,3.2,2c1.7,0.4,3.2,1.5,4.1,2.3
	c0-0.2-0.1-0.4-0.1-0.5l0.4,0.5c-0.1-0.2,0.3-0.4,0.5-0.3c0.2,0.1,0.4,0.5,0.6,0.7c0.3,0.5,0.3,1.2,0.4,1.7c0,0.1,0,0.1,0,0.2l0,0
	c0,0.1,0.2,0.2,0.3,0.2c0.1-1,1.9-0.1,2.3-0.2c0.9-0.1,1.8-0.9,2.5-1.4c0.1,0,0.1,0.1,0.1,0.2l0.1-0.1c-0.1-0.2-0.1-0.5-0.2-0.7
	c-0.2-0.6-0.5-1.1-0.5-1.7c0-0.2,0-0.7,0.2-0.9s0.5-0.3,0.6-0.1v-1.1c0.1,0.2,0.2,0.6,0.3,1c0-0.1,0.1-0.3,0.1-0.5s0.1-0.8,0.2-1
	c0-0.1,0.2-0.9,0.4-1c0.4-0.6,0.4-1.4,0.5-1.7c0.7-1.4,0.1-4.8,0.2-5.4C97.9,33.6,97.9,32.3,97.1,32.3z M89.1,43.5
	c-1-0.6-1.9-0.4-2.4-0.5c-0.4-0.1-1.2-1-1-1.6s0.6-1.6,1.1-2c0.3-0.2,1-0.7,1.9-0.2c0.4,0.3,1.7,1.8,2.2,2.2
	c0.5,0.5,0.9,1.5,0.5,2.2C91,44.3,90.1,44.1,89.1,43.5z M93.3,48.1c-0.2,0.1-1.2-0.9-1.8-1.8c-0.6-0.8-0.1-1.3,0.4-1.5
	c0.5-0.3,1.3,0.6,1.5,1.9C93.7,47.9,93.5,48,93.3,48.1z M95.1,44.6c-0.2,0.9,0,1.8-0.3,2.5c-0.2,0.7-0.4,0.3-0.5-0.3
	s-0.9-2.6-0.1-2.9C94.6,43.6,95.3,44,95.1,44.6z M96.2,39.3c-0.6,0.9-0.9,1.3-1.1,2.2s-0.6,0.9-0.9,0.7c-0.3-0.1-0.4-0.7-0.4-1.3
	s0.2-1.8,0-2.2c-0.2-0.5-0.2-1.4,0.6-1.9c0.8-0.5,0.9,0.2,1.4,0.5C96.2,37.7,96.7,38.3,96.2,39.3z"/>
<path class="st2" d="M91.9,49.1L91.9,49.1L91.9,49.1L91.9,49.1z"/>
<path class="st2" d="M90.1,47.3c0,0-0.1-0.1-0.3-0.1c-0.2-0.2-0.3-0.4-0.5-0.6c-0.1-0.1-0.2-0.2-0.4-0.3c0.2,1,0.8,2.3,1,3.2
	c0.3,1,0.9,2.6,1.7,3.2c-0.1-0.6-0.5-1.8-0.6-2.4c-0.1-0.6-0.2-1.1-0.3-1.7c-0.3-0.7-0.2-0.7-0.4-0.9C90.3,47.6,90.2,47.4,90.1,47.3
	z"/>
<path class="st2" d="M90.4,46.7c-0.1-0.2-0.3-0.6-0.6-0.7c-0.3-0.1-0.6,0-0.5,0.3l-0.4-0.5c0,0.1,0.1,0.3,0.1,0.5
	c0.1,0.1,0.2,0.2,0.4,0.3c0.2,0.2,0.4,0.3,0.5,0.6c0.1,0,0.2,0.1,0.3,0.1c0.1,0.1,0.2,0.2,0.3,0.4c0.1,0.2,0,0.2,0.4,0.9
	c0-0.1,0-0.1,0-0.2C90.6,47.8,90.6,47.2,90.4,46.7z"/>
<path class="st2" d="M96.4,44.9c0.3,1.1,0.2,1.9-0.3,2.5c0.1,0.4,0.2,0.8,0.4,1.2c0.2,0.6,0.4,1.8,0.5,2.4c0.4-1,0.2-2.8,0-3.8
	c-0.1-0.7-0.3-2.2-0.6-3.2C96.4,44.2,96.3,44.4,96.4,44.9z"/>
<path class="st2" d="M96.2,44c0-0.2-0.4-0.1-0.6,0.1c-0.2,0.2-0.2,0.7-0.2,0.9c0,0.6,0.3,1.2,0.5,1.7c0.1,0.2,0.1,0.4,0.2,0.7
	c0.5-0.6,0.6-1.3,0.3-2.5c-0.1-0.5,0-0.7,0-1c-0.1-0.4-0.2-0.8-0.3-1L96.2,44z"/>
<path class="st2" d="M94.2,48.5c-0.5,0.2-1.7,0.5-2.1,0.6H92c0.2,0.3,0.4,1.2,0.6,1.5c0.2-0.3,0.2-1.1,0.4-1.5
	c0.1,0.2,0.4,0.8,0.6,0.9c0.2-0.3,0.1-0.8,0.2-1.1c0.2,0.3,0.5,0.7,0.7,0.8c0.1-0.3,0-0.9,0.1-1.2c0.2,0.1,0.5,0.6,0.7,0.7
	c0.2-0.3,0.1-0.9,0.2-1.3c0.2,0.2,0.4,0.8,0.6,0.9c0.1-0.3,0.1-1,0-1.4c-0.2,0.1-0.4,0.3-0.6,0.4C95.2,48.1,95,48.2,94.2,48.5z"/>
<path class="st2" d="M91.1,49.3L91.1,49.3c0,0.5,0.3,0.7,0.4,1.2c0.3-0.3,0.2-1,0.4-1.3c-0.2,0-0.6-0.1-0.8-0.2
	C91.1,49,91.1,49.1,91.1,49.3z"/>
<path class="st2" d="M93.4,48.7c-0.4,0.1-2.2-0.8-2.3,0.2c0.3,0.1,0.6,0.2,0.8,0.2l0,0l0,0c0.1,0,0.1,0,0.1,0
	c0.4-0.1,1.6-0.4,2.1-0.6c0.7-0.3,1-0.4,1.2-0.5s0.4-0.3,0.6-0.4c0-0.1-0.1-0.2-0.1-0.2C95.1,47.8,94.2,48.5,93.4,48.7z"/>
<path class="st2" d="M97.4,52.1c0,0-0.1,0.2-0.1,0.3c-0.1,0-0.3-0.5-0.4-0.4c0,0.1,0,0.6,0,0.8c0,0-0.2-0.5-0.3,0.2
	c-0.2-0.6-0.2-1.7-0.6-2.2c-0.1,0.5,0.1,1.1,0,1.7c0,0.2-0.1,0.3-0.2,0.4c0.1,0.1,0.2,0.3,0.3,0.4c0.1,0.4-0.4,0.7-0.7,0.9
	c-0.4,0.3-1,0.6-1.5,0.4c-0.2-0.1-0.2-0.2-0.3-0.3c-0.1-0.1-0.3-0.1-0.4-0.2h0.2c-0.1-0.1-0.1-0.2,0-0.4c-0.5-0.4-0.7-1.5-1-1.9
	c-0.2,0.4,0.2,1.7,0.1,2.2c-0.3,0.1-0.3-1-0.5-0.5c-0.4,0.3-0.5-0.6-0.6-0.5c-0.3,0.5-0.5-0.5-0.7-0.4l0.1,0.5v0.2
	c0,0.5,0.9,1.2,1.2,1.6c0.6,0.7,1.7,0.3,2.6,0.1c1-0.2,2-0.6,2.6-1.5C97.8,52.7,97.7,50.6,97.4,52.1z"/>
<path class="st2" d="M96,52.7c-0.1-0.1-0.2-0.3-0.3-0.4c0,0-0.1,0.6-0.2,0.7c-0.1,0-0.2-0.4-0.4-0.5c-0.1,0-0.2,0.7-0.2,0.8
	c-0.2-0.1-0.3-0.5-0.6-0.6c-0.1,0.4-0.1,0.6-0.1,0.9c-0.3-0.1-0.3-0.6-0.7-0.7c0,0.1,0,0.4-0.1,0.6c0.1,0.1,0.3,0.2,0.5,0.2
	C94.3,53.7,95.5,53.4,96,52.7z"/>
<path class="st2" d="M93.6,54h-0.2c0.1,0.1,0.3,0.1,0.4,0.2c0.1,0.1,0.1,0.2,0.3,0.3c0.5,0.2,1.1-0.1,1.5-0.4
	c0.3-0.2,0.8-0.6,0.7-0.9c0-0.1-0.1-0.3-0.3-0.4c-0.5,0.7-1.7,1-1.9,0.9c-0.2,0-0.4,0-0.5-0.2C93.5,53.7,93.5,53.9,93.6,54z"/>
<path class="st2" d="M90.3,58.6c-0.2-0.2-0.5-0.4-0.7-0.5c0.2,0.3,0.7,1.2,0.1,1.2l-0.5-1.2c0.1,0,0.2,0,0.3,0l0,0
	c-0.3-0.5-0.8-0.2-1.4-0.2c-0.5,0-0.3,0.1-0.4,0.6c0,0.2-0.3,0.6-0.3,0.8c0,0.4,0.4,0.3,0.7,0.2c0.3,0,0.5,0,0.8,0.2
	c0.4,0.2,0.6,0.2,1.1-0.1c0.2-0.1,0.4-0.2,0.6-0.3c0.1,0,0.5,0,0.6-0.2C91.3,58.9,90.5,58.7,90.3,58.6z"/>
<path class="st2" d="M89.2,58.1l0.5,1.2c0.6,0,0.1-0.9-0.1-1.2C89.5,58.1,89.3,58.1,89.2,58.1z"/>
<g>
	<path class="st3" d="M202.5,42.8h-8.5v11h-1.9V31.4h1.9v9.8h8.5v-9.8h1.9v22.4h-1.9V42.8z"/>
	<path class="st3" d="M218.9,47.6h-7.6l-1.6,6.1h-1.9l6.1-22.4h2.4l6.1,22.4h-1.9L218.9,47.6z M218.4,46l-3.4-13.1L211.7,46H218.4z"
		/>
	<path class="st3" d="M234.5,47.6h-7.6l-1.6,6.1h-1.9l6.1-22.4h2.4l6.1,22.4h-1.9L234.5,47.6z M234.1,46l-3.4-13.1L227.3,46H234.1z"
		/>
	<path class="st3" d="M252.8,38.1c0,4.9-2.9,6.9-7.8,6.9h-1.7v8.8h-1.9V31.4h3.6C250.2,31.4,252.8,33.5,252.8,38.1z M250.8,38.1
		c0-3.7-1.8-5.2-5.8-5.2h-1.8v10.5h1.7C248.8,43.4,250.8,42.1,250.8,38.1z"/>
	<path class="st3" d="M265.6,33.5l-1.1,1.1c-1.3-1.3-2.5-1.9-4.2-1.9c-2.2,0-3.7,1.6-3.7,3.8s1,3.4,4.2,4.6c3.4,1.3,5.3,2.9,5.3,6.6
		c0,3.6-2.5,6.5-6.2,6.5c-2.6,0-4.4-1.1-6-2.8l1.1-1.1c1.4,1.3,2.8,2.3,4.9,2.3c2.6,0,4.3-1.9,4.3-4.8c0-2.6-1-3.8-4.2-5.1
		c-3.7-1.4-5.3-3.2-5.3-6.1c0-3,2.3-5.5,5.6-5.5C262.7,31,264.2,31.9,265.6,33.5z"/>
	<path class="st3" d="M279,47.6h-7.6l-1.6,6.1H268l6.1-22.4h2.4l6.1,22.4h-1.9L279,47.6z M278.5,46l-3.4-13.1L271.8,46H278.5z"/>
	<path class="st3" d="M287.8,52h7.6l-0.2,1.7h-9.2V31.4h1.9V52z"/>
	<path class="st3" d="M309.9,47.9c0,3.4-2,6.2-6.1,6.2c-4.2,0-6.1-2.8-6.1-6.2V31.4h1.9v16.4c0,2.8,1.3,4.7,4.3,4.7
		c3,0,4.2-1.9,4.2-4.7V31.4h1.9V47.9z"/>
</g>
<g>
	<path class="st3" d="M202.5,71c0,4.2-2,7.1-8,15h8.5l-0.3,1.6h-10.2V86c6.6-8.6,8.1-11.2,8.1-15c0-2.6-1.3-4-3.3-4
		c-1.7,0-2.8,0.8-3.9,2.4l-1.2-0.9c1.4-2.1,3.1-3.1,5.2-3.1C200.6,65.5,202.5,67.8,202.5,71z"/>
	<path class="st3" d="M217.4,80.2c0,5.1-2.3,7.7-5.4,7.7c-4.2,0-5.8-4.1-5.8-10.1c0-7.9,2.5-12.3,6.6-12.3c1.4,0,2.5,0.5,3.4,1.3
		l-0.8,1.2c-0.8-0.6-1.6-0.9-2.6-0.9c-2.9,0-4.6,3.5-4.8,9.4c1.1-1.9,2.6-3,4.5-3C215.2,73.4,217.4,75.5,217.4,80.2z M215.6,80.3
		c0-3.9-1.4-5.4-3.3-5.4c-1.8,0-3.2,1.4-4.2,3.6c0.1,5.2,1.2,7.9,4,7.9C214.4,86.4,215.6,84.2,215.6,80.3z"/>
	<path class="st3" d="M223.2,86.4c0,0.8-0.6,1.5-1.5,1.5c-0.9,0-1.5-0.7-1.5-1.5c0-0.8,0.6-1.5,1.5-1.5
		C222.7,85,223.2,85.6,223.2,86.4z"/>
	<path class="st3" d="M234,76.6h7.2v1.6H234V76.6z"/>
	<path class="st3" d="M261.1,71c0,4.2-2,7.1-8,15h8.5l-0.3,1.6h-10.2V86c6.6-8.6,8.1-11.2,8.1-15c0-2.6-1.3-4-3.3-4
		c-1.7,0-2.8,0.8-3.9,2.4l-1.2-0.9c1.4-2.1,3.1-3.1,5.2-3.1C259.2,65.5,261.1,67.8,261.1,71z"/>
	<path class="st3" d="M276.2,81.9c0,3.8-2.4,6-5.9,6c-3.6,0-5.9-2.3-5.9-5.9c0-2.9,1.4-4.9,4.1-6.1c-2.4-1.2-3.3-2.6-3.3-5
		c0-3.6,2.5-5.4,5.2-5.4c2.6,0,5.2,1.6,5.2,5.4c0,2.3-1,3.8-3.4,5.2C274.9,77.4,276.2,79,276.2,81.9z M274.3,81.9c0-2.7-1-3.8-3.9-5
		l-0.9-0.4c-2.4,1.1-3.4,2.8-3.4,5.5c0,3.1,1.7,4.4,4.1,4.4C272.7,86.4,274.3,85.1,274.3,81.9z M270.1,75.1l0.8,0.4
		c1.9-1.3,2.7-2.6,2.7-4.6c0-2.8-1.4-4-3.4-4c-1.9,0-3.4,1.1-3.4,4C266.9,73.1,267.7,74,270.1,75.1z"/>
	<path class="st3" d="M282.1,86.4c0,0.8-0.6,1.5-1.5,1.5c-0.9,0-1.5-0.7-1.5-1.5c0-0.8,0.6-1.5,1.5-1.5
		C281.5,85,282.1,85.6,282.1,86.4z"/>
	<path class="st3" d="M303.7,86.7l-0.4,1.3c-1.4-0.3-2.1-1.1-2.4-2.7c-1,1.8-2.4,2.7-4.2,2.7c-2.8,0-4.4-2.1-4.4-5.1
		c0-3.6,2.3-5.5,6.2-5.5h2.3v-2c0-2.5-0.9-3.7-3-3.7c-1.3,0-2.5,0.3-3.9,0.9l-0.5-1.3c1.6-0.7,3.1-1.1,4.6-1.1
		c3.2,0,4.7,1.9,4.7,5.1v9.1C302.6,85.7,302.9,86.3,303.7,86.7z M300.7,83.3v-4.7h-2.1c-3,0-4.5,1.3-4.5,4.1c0,2.5,1.1,3.7,2.8,3.7
		S299.9,85.3,300.7,83.3z"/>
	<path class="st3" d="M319.2,78.9c0,5.8-2,9-5.4,9c-1.7,0-3-1-3.9-2.3V94l-1.8,0.3V70.5h1.6l0.1,2.4c1-1.7,2.4-2.7,4.3-2.7
		C317.4,70.1,319.2,73.1,319.2,78.9z M317.2,78.9c0-5.1-1.2-7.3-3.5-7.3c-1.7,0-2.9,1.2-3.9,2.9v9.3c0.9,1.6,2.1,2.5,3.6,2.5
		C315.9,86.4,317.2,84.1,317.2,78.9z"/>
	<path class="st3" d="M330.7,70.3l-0.3,1.7c-0.4-0.1-0.7-0.2-1.2-0.2c-1.9,0-3,1.7-3.7,4.9v10.8h-1.8V70.5h1.6l0.2,3.4
		c0.8-2.5,2.1-3.8,4-3.8C329.9,70.1,330.3,70.2,330.7,70.3z"/>
	<path class="st3" d="M336,64.4c0,0.7-0.5,1.3-1.3,1.3c-0.8,0-1.3-0.6-1.3-1.3c0-0.8,0.6-1.4,1.3-1.4C335.4,63,336,63.6,336,64.4z
		 M335.6,87.6h-1.8V70.5h1.8V87.6z"/>
	<path class="st3" d="M340.9,85.1V63.5l1.8-0.2V85c0,0.9,0.4,1.4,1.1,1.4c0.3,0,0.7-0.1,0.9-0.2l0.5,1.3c-0.4,0.3-1.1,0.5-1.7,0.5
		C342,87.9,340.9,86.9,340.9,85.1z"/>
	<path class="st3" d="M348.8,85.1V63.5l1.8-0.2V85c0,0.9,0.4,1.4,1.1,1.4c0.3,0,0.7-0.1,0.9-0.2l0.5,1.3c-0.4,0.3-1.1,0.5-1.7,0.5
		C349.9,87.9,348.8,86.9,348.8,85.1z"/>
	<path class="st3" d="M372.2,71c0,4.2-2,7.1-8,15h8.5l-0.3,1.6h-10.2V86c6.6-8.6,8.1-11.2,8.1-15c0-2.6-1.3-4-3.3-4
		c-1.7,0-2.8,0.8-3.9,2.4l-1.2-0.9c1.4-2.1,3.1-3.1,5.2-3.1C370.3,65.5,372.2,67.8,372.2,71z"/>
	<path class="st3" d="M387.4,76.7c0,7.8-2,11.2-5.7,11.2c-3.8,0-5.8-3.5-5.8-11.2s2-11.2,5.8-11.2C385.5,65.5,387.4,68.9,387.4,76.7
		z M377.9,76.7c0,7.1,1.3,9.7,3.9,9.7c2.5,0,3.8-2.6,3.8-9.7c0-7.1-1.3-9.7-3.8-9.7C379.3,67,377.9,69.6,377.9,76.7z"/>
	<path class="st3" d="M399.8,71c0,4.2-2,7.1-8,15h8.5l-0.3,1.6h-10.2V86c6.6-8.6,8.1-11.2,8.1-15c0-2.6-1.3-4-3.3-4
		c-1.7,0-2.8,0.8-3.9,2.4l-1.2-0.9c1.4-2.1,3.1-3.1,5.2-3.1C397.9,65.5,399.8,67.8,399.8,71z"/>
	<path class="st3" d="M412.5,70.9c0,2.9-1.5,4.5-3.9,5.1c2.5,0.3,4.4,1.9,4.4,5.4c0,3.8-2.3,6.5-5.8,6.5c-2.3,0-3.9-0.9-5.3-2.8
		l1.2-0.9c1.3,1.6,2.4,2.2,4.1,2.2c2.4,0,4-1.9,4-5c0-3.3-1.8-4.6-4.3-4.6h-1.2l0.2-1.4h0.9c2,0,4-1.3,4-4.4c0-2.5-1.3-4-3.5-4
		c-1.5,0-2.6,0.6-3.8,1.9l-1-0.9c1.5-1.6,3-2.5,5-2.5C410.6,65.5,412.5,67.8,412.5,70.9z"/>
</g>
</svg>
