<?xml version="1.0" encoding="utf-8"?>
<!-- Generator: Adobe Illustrator 25.2.3, SVG Export Plug-In . SVG Version: 6.00 Build 0)  -->
<svg version="1.1" id="Layer_1" xmlns="http://www.w3.org/2000/svg" xmlns:xlink="http://www.w3.org/1999/xlink" x="0px" y="0px"
	 viewBox="0 0 400 102" style="enable-background:new 0 0 400 102;" xml:space="preserve">
<style type="text/css">
	.st0{fill:#ED1C24;}
	.st1{fill:#111111;}
	.st2{fill:#FFFFFF;}
</style>
<g>
	<path class="st0" d="M68.4,10.5c-2.7,1.1-5,0.4-5.9,0.7c-1.1,0.5-0.9,1.4-2.3,2.5c-1.1,0.9-2.1,0.3-3,1.6c-0.6,0.9-2.4,3-4.8,2.8
		c-1.8-0.1-3.1-1.4-3.6-3.1c0.1-3.2-0.8-1.8-1.4-5.2c-0.4-2.2,1.7-3.6,4-4c1.8-0.1,2.4-4.5,7.1-4.3c1.5,0.1,3.9,1.1,5.4,1.5
		c2.6,0.7,6.4-2.1,7.9-2c3.6,0.3,3-1.7,6.6-0.8c2.8,0.7,4.5,4.5,6.2,5.6c3.8,2.5,6.7,1.1,9,1.9c12.1,3.9,12.3-5.4,14.1-2.5
		c1.8,2.7-3.6,5.2-7,5.7c-3.3,0.4-6.7,2.5-7.7,2.7c-2.2,0.5-3.7-1.1-6.5-1.5c-3.5-0.5-3.1-3.4-6.6-4.5c-0.8-0.2-1.9-0.7-3.4-1.3
		c-0.7-0.3-1.9,1.6-4,1.7C69.6,8.2,70.2,9.5,68.4,10.5z"/>
	<path class="st1" d="M20.4,31.9c0-0.3,0.1-0.5,0.2-0.6c0.2-0.2,0.5-0.3,0.7-0.3h9.5c0.3,0,0.5,0.1,0.6,0.3c0.2,0.2,0.3,0.4,0.3,0.6
		v54.9c0,0.3-0.1,0.5-0.3,0.7c-0.2,0.2-0.4,0.2-0.6,0.2h-9.5c-0.3,0-0.5-0.1-0.7-0.2c-0.2-0.2-0.2-0.5-0.2-0.7V64.6
		c0-0.3-0.1-0.4-0.4-0.4h-8.1c-0.3,0-0.4,0.1-0.4,0.4v22.2c0,0.3-0.1,0.5-0.3,0.7c-0.2,0.2-0.4,0.2-0.6,0.2H1
		c-0.3,0-0.5-0.1-0.7-0.2C0.1,87.3,0,87.1,0,86.8V31.9c0-0.3,0.1-0.5,0.2-0.6C0.5,31,0.7,30.9,1,30.9h9.5c0.3,0,0.5,0.1,0.6,0.3
		c0.2,0.2,0.3,0.4,0.3,0.6V54c0,0.3,0.1,0.4,0.4,0.4H20c0.3,0,0.4-0.1,0.4-0.4V31.9z"/>
	<path class="st1" d="M145.2,39.8c0,0.3-0.1,0.5-0.3,0.7c-0.2,0.2-0.4,0.2-0.6,0.2h-16.9c-0.3,0-0.4,0.1-0.4,0.4V54
		c0,0.3,0.1,0.4,0.4,0.4h9.7c0.3,0,0.5,0.1,0.6,0.3c0.2,0.2,0.3,0.4,0.3,0.6v7.9c0,0.3-0.1,0.5-0.3,0.7c-0.2,0.2-0.4,0.2-0.6,0.2
		h-9.7c-0.3,0-0.4,0.1-0.4,0.4v22.2c0,0.3-0.1,0.5-0.3,0.7c-0.2,0.2-0.4,0.2-0.6,0.2h-9.5c-0.3,0-0.5-0.1-0.7-0.2
		c-0.2-0.2-0.2-0.5-0.2-0.7V31.9c0-0.3,0.1-0.5,0.2-0.6c0.2-0.2,0.5-0.3,0.7-0.3h27.8c0.3,0,0.5,0.1,0.6,0.3
		c0.2,0.2,0.3,0.4,0.3,0.6V39.8z"/>
	<path class="st1" d="M179.4,39.8c0,0.3-0.1,0.5-0.3,0.7c-0.2,0.2-0.4,0.2-0.6,0.2h-16.9c-0.3,0-0.4,0.1-0.4,0.4V54
		c0,0.3,0.1,0.4,0.4,0.4h9.7c0.3,0,0.5,0.1,0.6,0.3c0.2,0.2,0.3,0.4,0.3,0.6v7.9c0,0.3-0.1,0.5-0.3,0.7c-0.2,0.2-0.4,0.2-0.6,0.2
		h-9.7c-0.3,0-0.4,0.1-0.4,0.4v22.2c0,0.3-0.1,0.5-0.3,0.7c-0.2,0.2-0.4,0.2-0.6,0.2h-9.5c-0.3,0-0.5-0.1-0.7-0.2
		c-0.2-0.2-0.2-0.5-0.2-0.7V31.9c0-0.3,0.1-0.5,0.2-0.6c0.2-0.2,0.5-0.3,0.7-0.3h27.8c0.3,0,0.5,0.1,0.6,0.3
		c0.2,0.2,0.3,0.4,0.3,0.6V39.8z"/>
	<path class="st0" d="M91.7,44.8c-0.5,0.3-0.9,0.7-0.4,1.5c0.6,0.8,1.6,1.9,1.8,1.8c0.2-0.1,0.4-0.2,0.1-1.4
		C92.9,45.4,92.2,44.5,91.7,44.8z"/>
	<path class="st0" d="M94,43.9c-0.8,0.3,0,2.3,0.1,2.9c0.1,0.6,0.3,1,0.5,0.3c0.2-0.7,0-1.6,0.3-2.5C95.1,44,94.4,43.6,94,43.9z"/>
	<path class="st0" d="M90.7,41.5c-0.5-0.5-1.8-1.9-2.2-2.2c-0.8-0.5-1.5,0-1.9,0.2c-0.6,0.4-0.9,1.4-1.1,2c-0.2,0.6,0.6,1.5,1,1.6
		c0.4,0.1,1.3-0.1,2.4,0.5c1,0.6,1.9,0.8,2.3,0.2C91.5,43,91.1,42,90.7,41.5z"/>
	<path class="st0" d="M95.5,37.3c-0.5-0.4-0.7-1-1.4-0.5c-0.7,0.5-0.8,1.4-0.6,1.9c0.2,0.5,0,1.7,0,2.2c0,0.6,0.1,1.2,0.4,1.3
		c0.3,0.1,0.7,0.2,0.9-0.7c0.2-0.9,0.6-1.3,1.1-2.2C96.5,38.3,96,37.7,95.5,37.3z"/>
	<path class="st0" d="M120.6,29.5c-1.3-1.1-4.1-2.3-6.6-0.1c-1.4,1.2-1.6,2.7-2.5,5.1c-0.8,2.1-1.6,2.7-3.6,3.6
		c-2.6,1-3.1,1.4-4.1-0.6c0.6-0.8,1.3-1.5,0.8-2.3c-0.7-1.5-1.8-0.4-3.5,0c-1.6-1,0.9-2.1-2.6-2.9c-0.9-0.4-1.7-1.1-0.8-1.3
		c0.8,0.4,1.9,0.2,3.2-0.7c0.5-0.6,0.5-1.7-0.4-2.3c-2.1-1-5.9,1-6.5-0.7c-0.7-1.6-1.4-1.1-3.5,1.5c-2.6,1-3.5-0.8-3.2-2.3
		c0-1.3,3.3-5.6,0.4-6.9c-2.3-0.7-3.7,0-3.9,6.9c-0.5,2.1-2.6,1-3.6,0.7c-2.7-2-1.9-4.2-4-4.8c-2.7-0.7-2.8,3.6-5.7,3.3
		c-1.2-0.8-1.1-1.9-2.5-1.9c-1.6,0-1.3,2-2.7,2.7c-2.3,1.3-1-0.8-3.9,0.3c-2.7-1.6-1.6,2-2.7,1.3c-3.5-2.2-5-2.4-5.3,0.7
		c-1.2,0.4-1.7-0.7-3.6-1.3c-2.1-0.7-2.4,2.1-0.2,3.9c0.7,1.9-3.1-0.6-2.1,3.2c0.5,1.8-1.8,1.9-3.4,1.7c-1.4-0.5-3.4-2.3-5.2-1.1
		c-1.2,1.4,0.6,2.8,2,4c3.6,3.2,0.4,3.8-2.8,2.9c-4.7-0.4,0.1,2.1,1.1,6.5c0.3,4.8-7.3,2-9.7,1.4c-3.8-1-3.4,2.1-0.2,2.4
		c5.1,1.1,10.4,4.4,6.7,6.7c-0.7,0.3-1.6,0.4-1.8,2.1c-0.2,1.8,4.8,2.4,4.8,4.7c-3.1,1.9-1.6,3-2,5.4c-0.3,1.6-2.9,1.7-2.7,3.9
		c0.1,0.7,1,0.9,2,1.1c0.1-0.6,0.1-1.1,0.1-1.1s0-0.1,0.4,0c0.4,0.1,0.7-0.1,0.3,0.3c-0.2,0.2-0.3,0.5-0.5,0.9
		c1.6,0.4,3.4,1.1,3.2,4.7c-0.4,1.9-1.9,1.9-3.7,2.8c-0.4,0.2-0.8,0.5-1.1,0.7c0,0.3,0,0.6,0.1,0.8c0.1,0.3-0.1,0.3-0.3,0.3
		c-0.2,0-0.5,0-0.4-0.2c-0.4,0.7-0.4,1.3-0.1,1.9c0-0.1,0.1-0.3,0.1-0.4c0.1-0.5,0-1,0-1s0,0,0.3,0c0.3,0,0.6-0.1,0.3,0.2
		c-0.3,0.3-0.4,1.2-0.5,1.5c0,0,0,0,0,0c0.5,0.8,1.5,1.2,2.8,1c3.9-1.5,3-5.8,5.2-6c4.2-0.4,3.1,2.5,2.7,5.4
		c0.4-0.4,0.8-1.1,0.8-1.1s0.1,0,0.2,0c0.2,0.1,0.4,0.1,0.6,0.1c0.2,0,0.5-0.1,0.7-0.2c0.4-0.2,0.8-0.5,1.1-0.7c0,0,0,0.1,0.1,0.1
		c0,0.3-0.1,0.5,0.1,0.6c0.2,0.2,0.5,1-0.4,1.5c-0.5,0.3-1.7,1-3.2,2.2c0,0.2,0.1,0.4,0.2,0.6c0.6-0.5,1.2-0.9,1.7-1.2
		c0.2-0.1,0.5-0.3,0.8-0.5c0.4-0.2,0.7-0.4,0.8-0.5c1-0.5,1.1-1.3,0.9-1.9c0.1,0,0.2,0,0.6,0.1c0.6,0.1,0.8,0.4,0.9,0.3
		c0.1-0.1-0.3-0.4-0.7-0.5c-0.3-0.1-1-0.2-0.9-0.4c0.5,0,0.8-0.3,1-0.7c0.1-0.2,0.2-0.4,0.3-0.6c0.4-0.7,0.3-1.4,0-1.9
		c-0.1-0.2-0.3-0.3-0.6-0.3l0-0.1l0.1-0.3c0.2-0.6,0.6-1.5,0.8-3.1c0.2-1.6,0.2-2.8,0-3.6c-0.1-0.6-0.3-1-0.4-1.3
		c0-0.2-0.1-0.3-0.1-0.5c0.1-0.2,0.2-0.3,0.3-0.4c0.1-0.1,0.2-0.3,0.3-0.5c0.3-0.4,0.3-0.9,0.4-1.3c0-0.2,0-0.4,0.1-0.6
		c0-0.1,0-0.3,0.1-0.4c0.1,0,0.3-0.1,0.4-0.2c0.2-0.2,0.6-0.5,1.1-1c0.4-0.4,0.6-0.8,0.7-1.1c0.2-0.1,0.3-0.1,0.4,0.1
		c0.4,0.7,0.5,1.1,0.3,1.6c-0.2,0.5,0.3,1.1,0.2,2.9c-0.1,1.8-0.9,5.5-1.7,7.6c-0.8,2-0.3,2.4-0.2,2.6c0.1,0.2-0.1,0.6-0.4,0.8
		c-0.3,0.2-0.8,1.4-0.8,1.7c0,0.4,0.6,0.7,0.3,1.1c-0.3,0.4-0.8,0.9-0.8,1.3c0,0.4-0.3,0.8-0.5,0.8c-0.3,0-1.2,0.2-1.9,0.7
		c-0.6,0.5-1.1,0.6-2.6,2c2.7,3,4.7,0.2,6.9,4.1c0.7,2.3,1.3-1.9,3.5-2.4c0.9,2.8,1.7-1.1,2.4-0.6c0.6,0.2,0.8,2.6,1.7,2.5
		c1.3,0.2,1.2-2.3,2.7-2.6c1.5,0.2-2.4,5.4,2.1,8c4.7,1.4,5.7-3.1,7.8-4.2c1,0.3,0.7,1.7,1.4,2.3c1.2,1.3,2.8,1.5,3.8,1.1
		c0-1.2,0-2.4-0.2-3.2c-0.4-1.5-0.3-2.5-0.6-3.6c-0.3-1.1-0.8-1.6-0.6-2.1c0.1-0.3,0.5-0.8,1-1.1c0.2,0,0.5-0.1,0.7-0.1
		c0.1,0,0.2,0,0.5,0c0.2,0,0.4,0.1,0.7,0.2c0.2,0.1,0.5,0.1,0.7,0.2c-0.1,0.3-0.5,0.9-0.6,1.4c-0.2,0.8-0.2,2.5,0,4.3
		c0,0.1,0,0.1,0,0.2c0.1-0.4,0.3-0.7,0.5-1c-0.1-1.5,0-2.8,0.1-3.4c0-0.2,0.1-0.4,0.2-0.6c0.1-0.3,0.3-0.5,0.3-0.7
		c0.1,0,0.3,0,0.4,0c0.8,0,1.3-0.7,1.4-1.3c0.1-0.3,0.1-0.6,0.1-1c0.1-0.2,0.3-0.4,0.5-0.6c0.5-0.5,1.2-1.4,1.3-2.1
		c0.2-0.7,0.6-1.3,1.6-3.8c0.9-2.5,0.9-3.8,0.8-4.5c-0.1-0.7,0.2-1.8,0.3-2c0-0.1,0-0.3-0.1-0.4l0-0.2c0.1,0.2,0.2,0.4,0.4,0.5
		c0.2,0.2,0.6,0.4,1.1,0.2c0.3-0.2,0.5-0.4,0.6-0.8c0.2,0,0.4-0.1,0.6-0.3c0.4-0.3,1-0.9,1.8-1.9c0.8-1,1.8-1.9,2.7-2.7
		c0.2,0.1,0.3,0.5,0.3,0.8c0,0.4,0.4,0.9,0.1,1.9c-0.3,1-1.1,2.2-1.8,2.8c-0.7,0.6-2,1.5-3.2,4.3c-1.2,2.8-2.9,5.3-3.1,6.4
		c-0.2,1,0,1.6-0.4,2.4c-0.4,0.8-1,1.2-1.6,0.9c-0.6-0.3-1-0.6-1.2-0.1c-0.2,0.4,0.8,0.6,1,0.7c0.2,0.1,0.1,0.3-0.1,0.4
		c-0.3,0.1-0.5,0.6-0.5,0.9c0,0.3-0.4,1.7-0.7,2.6c1,0,1.9,0.5,2.2,1.5c3.2-1.1,0.6,0.8,3.3,0.4c0-0.2,0.7-0.5,1.3-1.1
		c2.5-2.6,1.3-3.1,0.7-4.3c-1.7-3.4-0.3-3.9,2-2.7c1.5,0.7,3.4,5.1,5.9,3.2c1.3-0.8,0.4-2.8-0.7-3.8c-2.4-2.9-0.4-4.7,2-2.9
		c1.5,1.3,4.8,2.6,7,1.6c2-2-3.5-4.8-2.8-8.6c0.4-0.9,1.7-1.1,2.3-1.9c1-1.4-0.4-1.8-0.5-2.7c0.5-0.9,1.8-1.4,2.3-2.5
		c1.2-2.7-2.2-5.1-1-5.9c1.1-0.8,2.1-1,2.1-1.9c0.1-1.6-1.6-0.9-2.9-2.8c1.9-1.4,3.6-5.5,0.2-8c1.8-1,2-3.8,0.5-5.3
		c0.6-0.9,2-0.9,2.5-1.9c0.1-1.1-0.3-2.5,0.5-3c2.9-3.4,4.4-1.4,9.1-3.6C122.4,36,123.1,31.5,120.6,29.5z M86.3,90.4
		c-0.2,0.6-1,0.7-1,0.7s0.1-0.2,0.1-0.5c0-0.1,0-0.2-0.1-0.3c0.1-0.1,0.1-0.2,0.1-0.3c0.3,0,0.5-0.2,0.8-0.4
		C86.3,89.8,86.4,90.1,86.3,90.4z M80.5,53.2c0.4-0.1,1.6,0.3,1.3-0.3c-0.3-0.7,0.2-0.4,0.4-0.3c0.3,0.2,0.6,0.2,0.3,0.7
		c-0.2,0.4,0,0.8,0,1.3c0,0.1,0,0.3-0.1,0.4c-0.2,0.3-0.2,0.7-0.2,1c0,0.2,0.1,0.3,0.1,0.5c0,0.1,0.1,0.1,0.1,0.2
		c0,0,0.1,0.1,0.1,0.1l0.1,0c0.3,0.2,0.2,0.5-0.2,0.5c-0.5,0-1.2-1.1-2.4-0.3c-1.2,0.8-3.2,4.1-3.2,12.4c-0.1,8.2,2.4,10.4,3,11.4
		c0.3,0.4,0.6,0.9,0.9,1.2l-0.4,1.2C77,82,75.1,77.4,75,67.8c0-2,0.2-5.9,1.1-7c1.2-1.7,0.7-1.9,1.3-2.6c0.6-0.7,2-1.6,2-2.3
		c0-0.7,0.3-1.9,0.8-1.9C80.7,53.9,80.1,53.3,80.5,53.2z M85.7,49.2c0.8,1.1,1.1,0.8,1.6,1.2c0.2,0.1,0.3,0.3,0.3,0.4
		c0,0.6,0.1,1.3,0,2.1c-0.1,0.3,0,0.6-0.1,0.8L87,53.3c-0.2-0.2-0.4-0.3-0.6-0.4c-0.2-0.2-0.5-0.2-1.1-0.1l-0.1,0
		c-0.1,0-0.3,0.1-0.4,0.1l-0.1,0c-0.2,0-0.4,0-0.6,0c-0.2-0.2-0.3-0.3-0.5-0.3c-0.1-0.2-0.1-0.4-0.1-0.6c0-0.9,1.2-1.9,1.1-2.3
		C84.6,49.2,84.9,48.1,85.7,49.2z M85.3,46.1c0.5-0.7,0.9-0.3,1.4,0c0.6,0.3,1.2,2,1.4,2.4c0.1,0.2,0.1,0.4,0.1,0.6
		c-0.2,0.1-0.4,0.4-0.4,0.5c0,0.1-0.1,0.3-0.1,0.4c-0.2-0.2-0.4-0.2-0.5-0.3c-0.1,0-0.2-0.1-0.3-0.1c-0.2-0.1-0.4-0.2-0.7-0.7
		c-0.2-0.3-0.5-0.6-0.7-0.6c-0.1,0-0.3-0.1-0.4,0C84.5,47.7,84.8,46.8,85.3,46.1z M83.6,53.4c0.4,0.5,0.8,0.3,1.2,0.2
		c0.5-0.1,1.2-0.4,1.7,0.2c0.5,0.6,1.1,0.8,1.3,1.3c0.2,0.6,0.6,0.9,0.8,1.3c0.2,0.3,0.2,0.7,0.2,0.7s-2.1,0.6-2.6,0.1
		c-0.5-0.5-0.9-0.8-1.5-0.4c-0.6,0.4-0.8,0.2-1.4,0c-0.1-0.2-0.2-0.3-0.4-0.3c-0.1-0.1-0.1-0.2-0.1-0.4c0-0.3,0-0.6,0.1-0.6
		c0.1-0.2,0.2-0.5,0.2-0.7c0-0.1,0-0.2,0-0.2C83.2,53.8,83.2,52.9,83.6,53.4z M92.6,60.9c-0.7,0.8-1.5,2.4-1.8,3.6
		c-0.2,0.8-0.5,2.1-0.7,2.3c-0.1,0.3,0-1.3-0.1-2.4c0-0.4-0.1-0.6-0.4-0.7c-0.2,0-0.6-0.2-0.7-0.2c-0.3,0.1-0.6-0.2-0.7-0.1
		c-0.6-0.2-1.3-1.1-1-1.8c0.3-0.9,1.6-0.4,1.6,0.2c0,0.6,1.1,1.2,1.3,0.6c0.2-0.6,0.5-0.4,0.9-0.5c0.4,0,0.6-0.5,0.5-1
		c-0.1-0.5,0.9-1.6-0.3-1.2c-1.2,0.4-1-0.2-1-0.2s0.9-0.2,1.3-0.4c0.4-0.2,1.1-0.5,0.8,0.1C91.9,60.1,93.2,60.1,92.6,60.9z
		 M86.4,61.6c-0.8-0.7-1.9-1-3-1.1l-0.1-0.1l0.2-0.1c0.1,0,0.3,0,0.6,0.1c0.2,0.1,0.4,0.1,0.6,0.2c0.2,0.1,0.5,0.1,0.7,0.2
		c0.4,0,0.7-0.1,1-0.2c0,0.1,0,0.2-0.1,0.4C86.2,61.1,86.3,61.4,86.4,61.6z M85.5,60.1c-0.8-0.1-1.5-0.7-2.2-0.4
		c-0.7,0.3-1.5,0.6-1.6,0c0-0.6,1.5-0.8,1.8-1.1c0.2-0.2,0.4-0.8,0.7-1.2c0.3,0,0.5-0.1,0.8-0.3c0.1-0.1,0.2-0.1,0.3,0
		c0.1,0,0.2,0.1,0.4,0.3c0.1,0.1,0.2,0.2,0.4,0.3c0.3,0.2,0.7,0.2,1,0.1c0.4,0.2-0.2,0.6-0.1,1C87,59.4,86.3,60.2,85.5,60.1z
		 M81.6,60.5c-0.7,0.2-1.4,0.5-1.7,1c-0.6,0.8-0.1,1.4,0.2,1.7c0.2,0.1,0.3,0.3,0.5,0.4c0.1,0,0.1,0.1,0.2,0.1
		c0.2,0.2,0.2,0.5,0.3,0.7l0.1,0.4c0,0.1,0.1,0.3,0.1,0.3c0.1,0.3,0,1.1-0.4,1.5c-0.3,0.3-0.4,0.6-0.4,0.8c-0.5,0.6-1.3,0.1-1.5-0.1
		c-0.2-0.2,0.2-1,0.3-1.3c0.1-0.3,0.8-1.2,0.3-1.1c-0.5,0-0.4-0.4-0.1-0.6c0.2-0.3,0.2-0.5-0.3-0.3c-0.5,0.2-1,0.4-1,1.1
		c0,0.7-0.1,0.7-0.4,0.7c-0.1,0-0.1-0.1-0.1-0.4c0.1-1.2,0.3-2.2,0.5-3.1c0.3-1.1,0.7-2,1.1-2.3c0.3-0.3,0.1-0.6-0.2-0.8
		c0.5-1.1,1-1.7,1.3-1.9c0.3-0.2,0.6-0.2,0.9-0.1c0.2,0.1,0.3,0.2,0.5,0.3c0.1,0.1,0.2,0.1,0.3,0.1c0.1,0,0.2,0.1,0.4,0.1
		c0.3,0,0.9-0.1,1.1-0.6c0.3,0.2-0.4,0.9-0.9,1.1c-0.1,0-0.2,0.1-0.3,0.1c-0.2,0.1-0.4,0.2-0.6,0.3c-0.2,0.2-0.5,0.5-0.5,0.9
		C81.2,60.2,81.4,60.4,81.6,60.5z M90.3,59.3c-0.2,0.1-0.4,0.2-0.6,0.3c-0.5,0.3-0.6,0.3-1.1,0.1c-0.3-0.1-0.4-0.2-0.8-0.2
		c-0.3,0-0.7,0.2-0.7-0.2c0-0.2,0.2-0.6,0.3-0.8c0.1-0.4-0.1-0.6,0.4-0.6c0.6,0,1.1-0.3,1.4,0.2c0,0,0,0,0,0
		c0.3,0.1,0.5,0.3,0.7,0.5c0.2,0.1,1,0.3,0.8,0.5C90.9,59.2,90.4,59.2,90.3,59.3z M39,72.2c-0.4,0.3-0.8,1.4-1,1.7
		c-0.2,0.3-0.3,0.7-0.3,1c0,0.3-0.2,0.2-0.4,0.1c-0.2-0.1-0.6-0.2-0.2-0.4c0.3-0.2,0.7-0.9,1-1.5s0.3-1.3,0.3-1.3s0-0.1,0.4,0.1
		C39.1,72,39.4,71.9,39,72.2z M39.3,71.5c-0.3,0.2-0.6,0.1-0.4-0.5c0.2-0.6,0.9-1,1.2-1.5c0.3-0.5,0.2-1.1,0.6-1.3
		c0.3-0.2,0.7,0,0.7-0.5c0-0.4,0.6-1,0.8-0.6c0,0.4,0.2,0.8,0.3,1.1c0.2,0.5,0.3,0.9,0.4,1.1c0,0.1,0.1,0.2,0.1,0.4
		c0,0.1-0.1,0.3-0.2,0.5c-0.2,0.5-0.5,1-0.8,1.6c-0.2,0.3-0.4,0.7-0.6,1c0.3-0.6,0.6-1.4,0.3-1.5c-0.5-0.1-1.7-0.2-1.2-0.8
		c0.5-0.6,1.5-1.5,1.3-1.7c-0.2-0.3-1,0.1-1.2,0.5C40.5,69.6,39.6,71.4,39.3,71.5z M51.2,71.2c-0.2,0.7-0.1,1.5-0.5,2.1
		c-0.4,0.6-0.8,0.8-0.6,1.5c0.2,0.6,1,1.8,0.5,4.9c-0.5,3.1-1.3,3.5-0.9,4.1c0.3,0.6,0.5-0.2,0.7,0.1c0.2,0.3,0.2,0.9,0,1.3
		c-0.2,0.5-0.3,0.9-0.7,0.9c-0.5,0-0.3-0.7-1-0.2c-0.7,0.5-1.6,1.2-1.9,0.8c-0.3-0.3,1-1.5,0.6-1.7c-0.4-0.3-0.1-1.8,0.2-2.7
		c0.3-0.9,0.7-4.9,0.2-5.2c-0.5-0.3-0.2-1.7-0.6-1.9c-0.4-0.2,0.1-0.6,0.1-0.6s-1.4-0.9-1.3-2.1c0-1.3,0.7-2.7,1.6-2.8
		c0.9-0.1,1.1,0.4,1.5,0.3c0.4,0,0.3-0.8,1.2-0.5C51,69.8,51.4,70.5,51.2,71.2z M52.8,69.8c-0.5,0.5-0.8,0.8-1,0.9
		c0-0.8-0.5-1.4-1.3-1.8c-0.4-0.2-0.6-0.3-0.8-0.2c-0.3,0-0.6,0.1-0.8,0.4l-0.2,0c0,0-0.1,0-0.2-0.1c-0.4-0.4-1.5-0.2-2,0.3
		c-0.9,0.7-1.3,2.1-1.3,3.1c0,0.5,0.1,1,0.4,1.4c-0.2,0.2-0.7,0.4-1,0.4c-0.3,0-2.1,0.9-2.8,1.4c-0.7,0.5-1.6,1.6-2,1.5
		c-0.5-0.1,0.8-1.7,1.3-2.4c0.5-0.7,2.8-4.4,2.8-5.3c0-1-1.2-1.4-0.9-2.7c0.3-1.3,0.7-2,1.1-2.1c0.4-0.1,0.9-1.3,1.5-1.9
		c0.6-0.5,2.7-1.7,3.5-1.9c1.1-0.2,2,0,2.2,0.1c0.3,0.1,0.7-0.1,0.7-0.1s0.5,0.8,0.7,1.1c0.2,0.3,0.3,0.7-0.4,1.2
		c-0.7,0.5-1.3,1.5-1,2.6c0.4,1.1,0.8,1.6,1.4,2C53.2,68.1,53.8,68.9,52.8,69.8z M54,59.4c-0.1,1.1-0.2,1.5-0.1,1.6
		c0.1,0.2,0.1,0.4-0.1,0.2c-0.3-0.2-0.6,0-0.8,0.3c-0.2-0.3-0.7-1.1-0.7-1.1c-0.1-0.2-0.5-0.3-0.7-0.1c0,0-0.2,0.1-0.2,0.1
		c-0.4-0.1-1.3-0.3-2.5-0.1c-0.3,0.1-0.9,0.3-1.4,0.5c0-0.1,0-0.3,0.3-0.5c0.7-0.7,0.8-0.7,0.8-1.4c0-0.7,0.7-1.1,2.1-1.4
		c1.4-0.2,1.8-0.2,1.8,0c0,0.3-1.1,0.5-1.8,1c-0.7,0.5-0.8,0.7-0.7,1c0.2,0.3,0.5,0.1,0.6-0.3c0.1-0.3,0.8-0.8,1.6-1.1
		c0.7-0.3,1.1-0.4,1.3-0.2c0.2,0.1-0.8,0.8-0.4,0.8s0.7-0.3,0.7-0.5c0-0.2,0-0.6,0.3-0.9c0.3-0.4,0.5-0.3,0.5-0.3S54,58.3,54,59.4z
		 M56.2,59.1c-0.1,0.8,0,1.3,0,1.3s-0.1-0.1-0.4-0.3c-0.3-0.2-0.7,0.6-1.3,1c0-0.1-0.1-0.2-0.1-0.3c0,0,0-0.1,0-0.2
		c0-0.2,0.1-0.6,0.1-1.2c0-0.5,0.1-1.1,0.3-1.5c0.1-0.4,0.2-0.7,0.2-0.7c0-0.1,0-0.3,0-0.4c0.2-0.1,0.4-0.2,0.5,0
		c0.2,0.2,0.6,0.1,1-0.2c0.4-0.3,0.6,0,0.6,0s0,0.7-0.3,0.7C56.4,57.4,56.2,58.3,56.2,59.1z M58.3,60.2c-0.2,0.3-1,0.6-1.6,0.4
		c0-0.1,0-0.2,0-0.4c0,0,0-0.1,0-0.3c0-0.2,0-0.5,0-0.8c0-0.4,0.1-0.7,0.2-1.1c0-0.1,0-0.2,0.1-0.2c0.2-0.1,0.3-0.3,0.4-0.4
		c0.1-0.1,0.1-0.3,0.1-0.4c0-0.1,0-0.1,0-0.2c0.1,0,0.2-0.1,0.3-0.2c0.9-0.8,1.3-0.4,1.8,0c0.5,0.5-0.1,0.5,0.1,0.8
		c0.1,0.1,0.4,0.2,0.6,0.1c-0.1,0.1-0.3,0.3-0.5,0.5c-0.1,0.1-0.2,0.3-0.3,0.4c-0.1,0.1-0.1,0.2-0.2,0.3c-0.1,0.2-0.3,0.5-0.7,1.1
		C58.5,60,58.4,60,58.3,60.2z M73.9,82.6c-1.2-0.1-2.2-0.4-3-1.2c0,0-0.1,0-0.1,0c-2.6,0.2-4.3-1.1-5.4-4.2
		c-1.1-0.6-1.9-1.4-2.6-2.8c-2.4-0.7-4-2.8-4.1-9.5c0-1.4-0.1-4.1,0.5-4.9c0.8-1.2,0.8-1.3,1.2-1.8c0.4-0.5,1.4-1.1,1.4-1.6
		c0-0.5,0.2-1.3,0.5-1.3c0.3,0,0-0.4,0.2-0.5c0.3,0,1.1,0.2,0.9-0.2c-0.2-0.5,0.1-0.3,0.3-0.2c0.2,0.1,1.1,0.1,0.9,0.4
		c-0.1,0.4-0.6,0.6-0.5,1.2c0,0.2,0,0.4-0.1,0.5c-0.2,0.2-0.4,0.3-0.6,0.5c-0.2,0.2-0.4,0.4-0.5,0.6c-0.1,0.2-0.2,0.3-0.3,0.4
		c-0.1,0.2-0.5,0.7-0.6,1l-0.1,0.1c-0.1,0.2-0.2,0.3-0.4,0.6c-0.1,0.2-0.3,0.5-0.4,0.8c-0.3,0.3-1.1,0.7-1.1,5.4
		c0,4.3,1.3,5.6,2.1,6.3c-0.4-1.6-0.6-3.7-0.7-6.5c0-1.6-0.1-4.7,0.5-5.7c1-1.3,0.9-1.5,1.4-2.1c0.5-0.6,1.6-1.3,1.6-1.8
		c0-0.5,0.2-1.5,0.6-1.5c0.4,0,0-0.5,0.3-0.5c0.3-0.1,1.3,0.3,1-0.3c-0.2-0.6,0.1-0.3,0.4-0.2c0.2,0.1,0.9,0.1,1.1,0.3
		c-0.2,0.2-0.3,0.5-0.4,0.7c-0.2,0.3-0.3,0.5-0.2,0.9c0,0.2,0,0.4-0.1,0.6c-0.1,0.1-0.2,0.2-0.4,0.4c-0.2,0.2-0.4,0.4-0.6,0.6
		c-0.2,0.2-0.4,0.4-0.6,0.6c-0.1,0.2-0.3,0.4-0.4,0.5c-0.1,0.1-0.2,0.3-0.3,0.5c-0.2,0.3-0.4,0.7-1,1.5c-0.2,0.3-0.3,0.6-0.4,1
		c-0.4,0.5-0.9,1.7-1,5.9c0,4.2,1,5.7,1.8,7c-0.3-1.9-0.5-4.3-0.5-7.1c0-1.9-0.2-5.5,0.6-6.6c1.1-1.5,1.1-1.7,1.6-2.4
		c0.5-0.7,1.9-1.5,1.9-2.1c0-0.6,0.2-1.8,0.7-1.8c0.5,0,0-0.6,0.3-0.6c0.4-0.1,1.5,0.3,1.2-0.3c-0.3-0.6,0.2-0.4,0.4-0.2
		c0.2,0.1,1.4,0.1,1.3,0.6c-0.2,0.5-0.8,0.8-0.7,1.7l0,0.1c0,0.1,0,0.3,0,0.4c0,0.2-0.1,0.4-0.2,0.5c-0.1,0.1-0.2,0.2-0.4,0.3
		c-0.2,0.2-0.4,0.4-0.6,0.6c-0.2,0.2-0.5,0.4-0.6,0.6l-0.1,0.2c-0.1,0.2-0.6,0.9-0.8,1.3c0,0.1-0.1,0.2-0.2,0.3
		c-0.1,0.2-0.3,0.4-0.5,0.7c-0.2,0.3-0.3,0.6-0.4,1c-0.4,0.5-1.4,0.9-1.5,7.3c-0.1,7.7,2.2,9.7,2.7,10.6c0.3,0.4,0.8,0.6,1.2,0.7
		c-1.4-2.3-2.1-6.2-2.2-12.5c0-1.9-0.2-5.7,0.6-6.8c1.2-1.6,1.1-1.8,1.7-2.5c0.6-0.7,2-1.6,2-2.2c0-0.6,0.3-1.9,0.7-1.9
		c0.5,0,0-0.6,0.3-0.6c0.4-0.1,1.5,0.3,1.2-0.3c-0.3-0.7,0.2-0.4,0.4-0.3c0.2,0.2,1.5,0.1,1.3,0.6c-0.1,0.1-0.2,0.2-0.2,0.3
		c-0.1,0.1-0.2,0.3-0.3,0.5c-0.1,0.2-0.3,0.5-0.2,0.9c0,0.3-0.1,0.5-0.1,0.7l0,0.1c-0.2,0.2-0.3,0.4-0.5,0.6
		c-0.2,0.2-0.5,0.4-0.7,0.6c-0.2,0.2-0.5,0.4-0.6,0.7c-0.2,0.2-0.3,0.4-0.4,0.6c-0.1,0.2-0.2,0.3-0.3,0.5c-0.2,0.3-0.5,0.8-1.1,1.6
		c-0.2,0.3-0.4,0.7-0.5,1.2c-0.5,0.5-1.5,1.1-1.5,7.5c-0.1,8,2,10.3,2.6,11.2c0.4,0.6,0.9,0.8,1.4,1.1c0.2,0.4,0.4,0.7,0.6,1.1
		C74.1,82.6,74,82.6,73.9,82.6z M71.3,67.9c0-2-0.2-5.9,0.7-7.1c1.2-1.7,1.1-1.9,1.7-2.6c0.6-0.8,2-1.6,2-2.3c0-0.7,0.3-1.9,0.8-1.9
		c0.5,0,0-0.6,0.3-0.7c0.4-0.1,1.6,0.3,1.3-0.3c-0.3-0.7,0.2-0.4,0.4-0.3c0.2,0.1,1.2,0.1,1.3,0.5c0,0.1,0,0.1,0,0.2v0.1
		c-0.2,0.1-0.3,0.2-0.4,0.4c-0.2,0.2-0.3,0.5-0.3,0.7c-0.2,0.5-0.2,1-0.2,1.4c0,0,0,0.1-0.1,0.1c-0.1,0.1-0.3,0.3-0.5,0.5
		c-0.2,0.2-0.5,0.4-0.7,0.6c-0.2,0.2-0.5,0.4-0.6,0.7c-0.2,0.2-0.3,0.5-0.4,0.7c-0.1,0.2-0.1,0.3-0.2,0.5c-0.1,0.3-0.2,0.7-0.8,1.5
		c-0.2,0.3-0.3,0.6-0.5,1c0,0-0.1,0-0.1,0c-0.5-0.4-1.8-0.2-1.8,8c-0.1,8.2,2,10.8,2.6,11.7c0.6,0.9,1.8,1.7,2.7,1.4
		c0.2,0.1,0.3,0.3,0.5,0.5c-0.1,0.1-0.2,0.2-0.4,0.2C73.6,84.7,71.4,79,71.3,67.9z M86.6,75.5c-0.4,0.3-0.5,0.7-0.9,1.1
		c-0.5,0.3-1.4,1.8-2.3,4.8c-1,3-0.9,5.4-0.8,6.5c0.1,1.1,0,2.4-0.9,2.4c-0.9,0-2-0.7-2.9-0.5c-0.9,0.2-1.6,0.2-1.4-0.4
		c0.2-0.6,1-0.5,1.3-0.7c0.3-0.2,0.9-1.5,1-1.8c3-8.3,2.7-9.9,3-10.5c0.3-0.6-0.3-2.2-0.5-2.7c-0.3-0.5,0.4-2,1.1-1.8
		c0.6,0.1,1.5,0.5,2,1c0.5,0.6,0.3,1.1,0.8,1c0.5,0,0.8-0.4,0.9,0C87,74.3,87.1,75.2,86.6,75.5z M89,73c-0.5,1.3,0.4,1.8-0.2,2.1
		c-0.5,0.3-0.9-1.1-1.5-1.7c-0.1-0.1-0.2-0.1-0.2-0.2c-0.2-0.1-0.3-0.1-0.5,0c0,0-0.1,0-0.1,0c-0.1,0-0.2,0-0.3,0.1c0,0-0.1,0-0.1,0
		c0-0.1-0.1-0.2-0.1-0.3c-0.1-0.1-0.2-0.3-0.3-0.5c-0.6-0.7-1.6-1.1-2.3-1.2c-0.1,0-0.2,0-0.3,0c-0.1-0.5-0.2-0.9-0.5-1.2
		c-0.3-0.4-1.3-0.9-1.3-1.4c0-0.5-0.4-1,0.1-1.7c0.6-0.6,0.6-1.7,0.5-2.1c-0.1-0.2-0.2-1-0.5-1.5c-0.3-0.5-1.6-0.9-1-1.7
		c0.7-1.1,4.8-1.4,6.3,1c1.5,2.4,0.5,3.6,2.4,4.5c0.5,0.3,0.6,0.8,0.3,1.3C89,69.1,89.5,71.7,89,73z M94.6,69.1
		c-0.7,0.5-1.4,1.3-3.1,3.2c-1.6,1.9-2.1,2.3-2.1,1.6c-0.1-0.6-0.2-0.8,0.1-1.1c0.3-0.3,0.3-1.9,0.2-2.3c0-0.5,0-1.7,0.1-1.9
		c0.1-0.3-0.1-0.9,0.5-1c0.6-0.1,0.5-1.8,1.3-3.8c0.6-1.4,0.7-2.2,1.8-2.9c0.2-0.2,0.8,0,1.3,0.9c0.2,0.3-0.1,1.3-0.2,1.7
		c0,0.4-0.5,1.7-0.2,2.7c0.1,0.2,0.5,0.7,0.6,1C95.3,67.5,95.4,68.6,94.6,69.1z M97,53.5c-0.6,0.9-1.6,1.3-2.6,1.5
		c-0.9,0.2-2.1,0.6-2.6-0.1c-0.3-0.4-1.2-1.1-1.2-1.6l0-0.2c0,0-0.1-0.5-0.1-0.5c0.1-0.1,0.4,0.9,0.7,0.4c0.1-0.2,0.2,0.8,0.6,0.5
		c0.2-0.5,0.2,0.6,0.6,0.3c0.1-0.5-0.3-1.8-0.1-2.2c0.3,0.4,0.5,1.5,1,1.9c0-0.2,0.1-0.5,0.1-0.6c0.4,0.1,0.3,0.6,0.7,0.7
		c0-0.3-0.1-0.6,0.1-0.9c0.2,0.1,0.3,0.5,0.6,0.6c0-0.1,0.1-0.8,0.2-0.8c0.2,0.1,0.3,0.5,0.4,0.5c0.1-0.1,0.1-0.7,0.2-0.7
		c0.1,0.1,0.2,0.3,0.3,0.4c0.1-0.1,0.1-0.3,0.2-0.4c0.1-0.6-0.1-1.1,0-1.7c0.4,0.5,0.4,1.5,0.6,2.2c0.1-0.7,0.3-0.1,0.3-0.2
		c0-0.1,0-0.6,0-0.8c0.1-0.1,0.3,0.5,0.4,0.4c0,0,0-0.2,0.1-0.3C97.5,50.6,97.6,52.7,97,53.5z M97.5,39.7c-0.2,0.3-0.1,1.1-0.5,1.7
		c-0.2,0.1-0.4,0.9-0.4,1c-0.1,0.2-0.1,0.8-0.2,1c0,0.2-0.1,0.3-0.1,0.5c0.2,1.1,0.4,2.5,0.6,3.2c0.2,1,0.4,2.8,0,3.8
		c-0.1-0.6-0.4-1.8-0.5-2.4c-0.1-0.4-0.2-0.8-0.4-1.2c0,0-0.1,0.1-0.1,0.1c0.1,0.4,0.1,1.1,0,1.4c-0.2-0.1-0.4-0.7-0.6-0.9
		c-0.1,0.3,0,1-0.2,1.3c-0.2-0.1-0.5-0.6-0.7-0.7c-0.1,0.3-0.1,0.9-0.1,1.2c-0.1-0.1-0.5-0.6-0.7-0.8c-0.1,0.3,0,0.8-0.2,1.1
		c-0.3-0.1-0.5-0.7-0.6-0.9c-0.2,0.3-0.2,1.2-0.4,1.5c-0.1-0.3-0.3-1.2-0.6-1.5c0,0,0,0,0,0c-0.2,0.4-0.1,1-0.4,1.3
		c-0.1-0.4-0.4-0.7-0.4-1.1l0-0.1c0-0.1,0-0.3,0-0.4c-0.1-0.1-0.3-0.1-0.3-0.2c0,0,0,0,0,0c0.1,0.6,0.2,1.1,0.3,1.7
		c0.1,0.6,0.5,1.8,0.6,2.4c-0.8-0.6-1.4-2.3-1.7-3.2c-0.3-0.9-0.8-2.2-1.1-3.2c-1-0.8-2.4-1.9-4.1-2.3c-2-0.5-3.4-1.4-3.2-2
		c0.2-0.6-0.5-0.8-0.5-1.2c0-0.4-0.3-2,0.1-2.3c0.5-0.3,1.8-1.6,1.8-2.9c0-1.3,1.2-1.9,1.7-2.2c0.5-0.3,1.3-0.3,1.6-0.6
		c0.3-0.3,0.8-0.6,1.5-0.3c0.6,0.2,0.9-0.4,1.2-0.8c0.3-0.4,0.9-0.3,1.2-0.1c0.2,0.2,0.8-0.4,0.8-0.4s0.1,0,1.2-0.1
		c1.1-0.1,1.6-0.3,2,0.7c0.5,1,1.9,0.6,2.7,0.5c0.8-0.1,0.8,1.3,0.7,1.9C97.6,34.9,98.2,38.3,97.5,39.7z"/>
	<path class="st2" d="M86.4,60.5c-0.2,0.2-0.6,0.3-1,0.2c-0.3,0-0.5-0.1-0.7-0.2c-0.2-0.1-0.4-0.1-0.6-0.2c-0.4-0.1-0.5-0.1-0.6-0.1
		l-0.2,0.1l0.1,0.1c1.1,0.1,2.2,0.5,3,1.1c0-0.2-0.2-0.4,0-0.6C86.4,60.7,86.4,60.5,86.4,60.5z"/>
	<path class="st2" d="M79.4,55.8c0,0.7-1.4,1.5-2,2.3c-0.6,0.7-0.1,1-1.3,2.6c-0.8,1.2-1.1,5-1.1,7c0.1,9.6,2,14.2,5.4,15.4l0.4-1.2
		c-0.4-0.3-0.7-0.8-0.9-1.2c-0.6-0.9-3-3.1-3-11.4c0.1-8.2,2.1-11.6,3.2-12.4c1.2-0.8,1.9,0.3,2.4,0.3c0.4,0,0.5-0.3,0.2-0.5l-0.1,0
		c0,0-0.1-0.1-0.1-0.1c0,0-0.1-0.1-0.1-0.2c-0.1-0.1-0.1-0.3-0.1-0.5c0-0.4,0-0.8,0.2-1c0.1-0.1,0.1-0.3,0.1-0.4
		c0-0.4-0.2-0.9,0-1.3c0.2-0.5-0.1-0.6-0.3-0.7c-0.3-0.2-0.7-0.4-0.4,0.3c0.3,0.7-0.9,0.2-1.3,0.3c-0.4,0.1,0.2,0.7-0.3,0.7
		C79.6,53.9,79.4,55.2,79.4,55.8z"/>
	<path class="st2" d="M50.1,69.5c-0.9-0.3-0.8,0.4-1.2,0.5c-0.4,0-0.5-0.5-1.5-0.3c-1,0.1-1.6,1.5-1.6,2.8c0,1.3,1.3,2.1,1.3,2.1
		s-0.5,0.4-0.1,0.6c0.4,0.2,0.1,1.7,0.6,1.9c0.5,0.3,0.1,4.3-0.2,5.2s-0.6,2.5-0.2,2.7c0.4,0.3-0.9,1.4-0.6,1.7
		c0.3,0.3,1.3-0.4,1.9-0.8c0.7-0.5,0.5,0.3,1,0.2c0.5,0,0.5-0.5,0.7-0.9c0.2-0.5,0.2-1,0-1.3c-0.2-0.3-0.4,0.5-0.7-0.1
		c-0.3-0.6,0.5-1,0.9-4.1c0.5-3.1-0.3-4.3-0.5-4.9c-0.2-0.6,0.3-0.9,0.6-1.5c0.3-0.6,0.3-1.4,0.5-2.1C51.4,70.5,51,69.8,50.1,69.5z"
		/>
	<path class="st2" d="M83.2,54.4c0,0.1,0,0.2,0,0.2c0,0.2-0.1,0.5-0.2,0.7c-0.1,0.1-0.1,0.4-0.1,0.6c0,0.1,0,0.2,0.1,0.4
		c0.1,0.1,0.3,0.2,0.4,0.3c0.6,0.1,0.8,0.4,1.4,0c0.6-0.4,1-0.1,1.5,0.4c0.5,0.5,2.6-0.1,2.6-0.1s0-0.4-0.2-0.7
		c-0.2-0.3-0.6-0.7-0.8-1.3c-0.2-0.4-0.8-0.7-1.3-1.3c-0.5-0.6-1.2-0.3-1.7-0.2c-0.5,0.1-0.8,0.3-1.2-0.2
		C83.2,52.9,83.2,53.8,83.2,54.4z"/>
	<path class="st2" d="M54,57.3c-0.3,0.4-0.3,0.8-0.3,0.9c0,0.2-0.3,0.5-0.7,0.5s0.6-0.7,0.4-0.8s-0.6,0-1.3,0.2
		c-0.7,0.3-1.5,0.7-1.6,1.1c-0.1,0.3-0.4,0.6-0.6,0.3c-0.2-0.3,0-0.5,0.7-1c0.7-0.5,1.7-0.7,1.8-1c0-0.3-0.4-0.3-1.8,0
		c-1.4,0.2-2.1,0.7-2.1,1.4c0,0.7-0.1,0.7-0.8,1.4c-0.3,0.3-0.4,0.4-0.3,0.5c0.5-0.3,1.1-0.5,1.4-0.5c1.2-0.2,2.1,0,2.5,0.1
		c0,0,0.1,0,0.2-0.1c0.2-0.1,0.6-0.1,0.7,0.1c0,0,0.5,0.7,0.7,1.1c0.2-0.3,0.5-0.5,0.8-0.3c0.3,0.2,0.2,0,0.1-0.2
		c-0.1-0.2,0-0.5,0.1-1.6c0.1-1.1,0.5-2.3,0.5-2.3S54.3,56.9,54,57.3z"/>
	<path class="st2" d="M41.8,68.8c0.2,0.3-0.8,1.1-1.3,1.7c-0.5,0.6,0.7,0.7,1.2,0.8c0.3,0.1,0,0.9-0.3,1.5c0.2-0.3,0.4-0.6,0.6-1
		c0.3-0.5,0.6-1.1,0.8-1.6c0.1-0.2,0.2-0.4,0.2-0.5c0-0.2,0-0.3-0.1-0.4c-0.1-0.2-0.3-0.6-0.4-1.1c-0.2-0.3-0.3-0.6-0.3-1.1
		c-0.3-0.5-0.8,0.2-0.8,0.6c0,0.4-0.4,0.3-0.7,0.5c-0.3,0.2-0.3,0.9-0.6,1.3c-0.3,0.5-0.9,0.9-1.2,1.5c-0.3,0.6,0,0.6,0.4,0.5
		c0.3-0.2,1.2-1.9,1.4-2.3C40.8,68.9,41.7,68.5,41.8,68.8z"/>
	<path class="st2" d="M52.6,67.7c-0.6-0.4-1-0.9-1.4-2c-0.4-1.1,0.3-2.1,1-2.6c0.7-0.5,0.6-0.9,0.4-1.2c-0.2-0.3-0.7-1.1-0.7-1.1
		s-0.4,0.2-0.7,0.1c-0.3-0.1-1.1-0.3-2.2-0.1c-0.8,0.1-2.8,1.3-3.5,1.9c-0.6,0.5-1.1,1.8-1.5,1.9c-0.4,0.1-0.8,0.7-1.1,2.1
		c-0.3,1.3,0.9,1.8,0.9,2.7c0,0.9-2.3,4.6-2.8,5.3c-0.5,0.7-1.8,2.3-1.3,2.4c0.5,0.1,1.3-1,2-1.5c0.7-0.5,2.5-1.4,2.8-1.4
		c0.2,0,0.8-0.2,1-0.4c-0.2-0.4-0.4-0.8-0.4-1.4c0-1,0.5-2.4,1.3-3.1c0.5-0.5,1.6-0.7,2-0.3c0.1,0,0.1,0,0.2,0.1l0.2,0
		c0.2-0.2,0.5-0.4,0.8-0.4c0.2-0.1,0.4,0,0.8,0.2c0.8,0.3,1.3,1,1.3,1.8c0.2-0.2,0.5-0.5,1-0.9C53.8,68.9,53.2,68.1,52.6,67.7z"/>
	<path class="st2" d="M81.6,58.9c0.2-0.1,0.4-0.3,0.6-0.3c0.1,0,0.2-0.1,0.3-0.1c0.5-0.2,1.1-0.9,0.9-1.1c-0.2,0.6-0.7,0.7-1.1,0.6
		c-0.1,0-0.3-0.1-0.4-0.1c-0.1,0-0.2-0.1-0.3-0.1c-0.1-0.1-0.3-0.2-0.5-0.3c-0.3-0.1-0.6-0.1-0.9,0.1c-0.3,0.2-0.8,0.8-1.3,1.9
		c0.2,0.2,0.5,0.5,0.2,0.8c-0.4,0.4-0.8,1.2-1.1,2.3c-0.2,0.9-0.4,1.9-0.5,3.1c0,0.3,0.1,0.4,0.1,0.4c0.2,0,0.3-0.1,0.4-0.7
		c0-0.7,0.5-0.9,1-1.1c0.5-0.2,0.6,0,0.3,0.3c-0.2,0.2-0.4,0.7,0.1,0.6c0.5,0-0.1,0.9-0.3,1.1c-0.1,0.3-0.6,1.1-0.3,1.3
		c0.2,0.2,1,0.6,1.5,0.1c0-0.3,0.2-0.6,0.4-0.8c0.4-0.4,0.5-1.3,0.4-1.5c0-0.1-0.1-0.2-0.1-0.3l-0.1-0.4c-0.1-0.3-0.1-0.5-0.3-0.7
		c0,0-0.1-0.1-0.2-0.1c-0.2-0.1-0.4-0.3-0.5-0.4c-0.3-0.3-0.8-0.9-0.2-1.7c0.3-0.5,0.9-0.8,1.7-1c-0.2-0.1-0.4-0.3-0.4-0.7
		C81.1,59.4,81.4,59.1,81.6,58.9z"/>
	<path class="st2" d="M85.5,90c0,0.1,0,0.2-0.1,0.3c0.1,0.1,0.1,0.1,0.1,0.3c-0.1,0.3-0.1,0.5-0.1,0.5s0.7-0.1,1-0.7
		c0.1-0.3,0.1-0.6,0-0.7C86,89.9,85.8,90,85.5,90z"/>
	<path class="st2" d="M83.6,52.6c0.1,0,0.3,0.1,0.5,0.3c0.1,0,0.3,0,0.6,0l0.1,0c0.1,0,0.2-0.1,0.4-0.1l0.1,0
		c0.6-0.2,0.9-0.1,1.1,0.1c0.2,0.1,0.4,0.2,0.6,0.4l0.7,0.5c0.1-0.2,0-0.6,0.1-0.8c0-0.7-0.1-1.5,0-2.1c-0.1-0.1-0.2-0.3-0.3-0.4
		c-0.5-0.4-0.8-0.1-1.6-1.2c-0.8-1.1-1.1,0-1.1,0.4c0,0.5-1.1,1.5-1.1,2.3C83.5,52.2,83.5,52.5,83.6,52.6z"/>
	<path class="st2" d="M91.3,59.3c-0.4,0.2-1.3,0.4-1.3,0.4s-0.2,0.5,1,0.2c1.2-0.4,0.2,0.8,0.3,1.2c0.1,0.5-0.1,0.9-0.5,1
		c-0.4,0-0.6-0.1-0.9,0.5c-0.2,0.6-1.4,0-1.3-0.6c0-0.6-1.3-1.2-1.6-0.2c-0.2,0.7,0.4,1.5,1,1.8c0.1,0,0.5,0.2,0.7,0.1
		c0.2,0,0.5,0.1,0.7,0.2c0.3,0,0.4,0.2,0.4,0.7c0.1,1,0.1,2.6,0.1,2.4c0.2-0.2,0.6-1.5,0.7-2.3c0.2-1.3,1.1-2.8,1.8-3.6
		c0.7-0.8-0.6-0.9-0.4-1.5C92.4,58.7,91.7,59.1,91.3,59.3z"/>
	<path class="st2" d="M85.5,48.2c0.3,0.1,0.5,0.3,0.7,0.6c0.4,0.5,0.6,0.6,0.7,0.7c0.1,0,0.2,0.1,0.3,0.1c0.1,0.1,0.3,0.1,0.5,0.3
		c0-0.1,0.1-0.3,0.1-0.4c0-0.1,0.1-0.3,0.4-0.5c0-0.2,0-0.4-0.1-0.6c-0.2-0.4-0.8-2.1-1.4-2.4c-0.6-0.3-0.9-0.7-1.4,0
		c-0.5,0.7-0.8,1.6-0.3,2.1C85.2,48.2,85.3,48.2,85.5,48.2z"/>
	<path class="st2" d="M86.9,58.8c0-0.4,0.5-0.8,0.1-1c-0.3,0-0.7,0-1-0.1c-0.1,0-0.3-0.1-0.4-0.3c-0.2-0.2-0.3-0.3-0.4-0.3
		c-0.1,0-0.1,0-0.3,0c-0.3,0.2-0.6,0.3-0.8,0.3c-0.3,0.4-0.4,0.9-0.7,1.2c-0.3,0.4-1.9,0.5-1.8,1.1c0,0.6,0.8,0.3,1.6,0
		c0.7-0.3,1.3,0.3,2.2,0.4C86.3,60.2,87,59.4,86.9,58.8z"/>
	<path class="st2" d="M72.1,80.4c-0.6-0.9-2.7-3.2-2.6-11.2c0-6.4,1.1-7.1,1.5-7.5c0.1-0.5,0.3-0.9,0.5-1.2c0.6-0.8,0.9-1.3,1.1-1.6
		c0.1-0.2,0.2-0.3,0.3-0.5c0.1-0.2,0.2-0.3,0.4-0.6c0.2-0.2,0.4-0.5,0.6-0.7c0.2-0.2,0.5-0.4,0.7-0.6c0.2-0.2,0.4-0.4,0.5-0.6l0-0.1
		c0-0.2,0-0.5,0.1-0.7c0-0.4,0.1-0.6,0.2-0.9c0.1-0.2,0.2-0.3,0.3-0.5c0.1-0.1,0.1-0.2,0.2-0.3c0.2-0.5-1-0.5-1.3-0.6
		c-0.3-0.2-0.7-0.4-0.4,0.3c0.3,0.7-0.8,0.2-1.2,0.3c-0.4,0.1,0.1,0.6-0.3,0.6c-0.5,0-0.8,1.2-0.7,1.9c0,0.6-1.4,1.5-2,2.2
		c-0.6,0.7-0.5,0.9-1.7,2.5c-0.8,1.1-0.7,4.9-0.6,6.8c0.1,6.2,0.8,10.2,2.2,12.5c0.2,0.1,0.3,0.1,0.5,0.2c0.2,0.4,0.4,0.8,0.6,1.1
		c0,0,0,0,0,0c0.8,0.7,1.9,1.1,3,1.2c0.1,0,0.2,0,0.2,0c-0.2-0.3-0.5-0.7-0.6-1.1C73,81.2,72.5,81.1,72.1,80.4z"/>
	<path class="st2" d="M78.9,83.1c-0.1-0.1-0.3-0.3-0.5-0.5c-0.9,0.3-2.1-0.5-2.7-1.4c-0.6-0.9-2.7-3.5-2.6-11.7
		c0.1-8.3,1.4-8.5,1.8-8c0,0,0.1,0,0.1,0c0.1-0.4,0.3-0.8,0.5-1c0.6-0.8,0.7-1.2,0.8-1.5c0.1-0.2,0.1-0.4,0.2-0.5
		c0.1-0.2,0.2-0.4,0.4-0.7c0.2-0.2,0.4-0.5,0.6-0.7c0.2-0.2,0.5-0.4,0.7-0.6c0.2-0.2,0.4-0.4,0.5-0.5c0-0.1,0.1-0.1,0.1-0.1
		c0-0.4,0.1-0.9,0.2-1.4c0.1-0.2,0.2-0.5,0.3-0.7c0.1-0.1,0.2-0.3,0.4-0.4v-0.1c0-0.1,0-0.1,0-0.2c-0.1-0.3-1.1-0.3-1.3-0.5
		c-0.3-0.2-0.7-0.4-0.4,0.3c0.3,0.7-0.9,0.2-1.3,0.3c-0.4,0.1,0.2,0.7-0.3,0.7c-0.5,0-0.8,1.3-0.8,1.9c0,0.7-1.4,1.5-2,2.3
		c-0.6,0.7-0.5,0.9-1.7,2.6c-0.8,1.2-0.7,5.1-0.7,7.1c0.1,11.2,2.3,16.8,7.3,15.4C78.7,83.2,78.9,83.1,78.9,83.1z"/>
	<path class="st2" d="M86,74c-0.5,0-0.4-0.5-0.8-1c-0.5-0.6-1.4-0.9-2-1c-0.6-0.1-1.3,1.3-1.1,1.8c0.3,0.5,0.8,2.2,0.5,2.7
		c-0.3,0.6,0,2.2-3,10.5c-0.1,0.3-0.7,1.6-1,1.8c-0.3,0.2-1.1,0.1-1.3,0.7c-0.2,0.6,0.6,0.6,1.4,0.4c0.9-0.2,2,0.5,2.9,0.5
		c0.9,0,1-1.3,0.9-2.4c-0.1-1.1-0.1-3.5,0.8-6.5c1-3,1.9-4.4,2.3-4.8c0.5-0.3,0.5-0.7,0.9-1.1c0.4-0.3,0.3-1.2,0.3-1.6
		C86.8,73.6,86.5,74,86,74z"/>
	<path class="st2" d="M62.9,67.3c0-4.2,0.6-5.4,1-5.9c0.1-0.4,0.2-0.7,0.4-1c0.5-0.7,0.8-1.2,1-1.5c0.1-0.2,0.2-0.3,0.3-0.5
		c0.1-0.1,0.2-0.3,0.4-0.5c0.2-0.2,0.4-0.4,0.6-0.6c0.2-0.2,0.4-0.4,0.6-0.6c0.2-0.2,0.3-0.3,0.4-0.4c0.1-0.2,0.1-0.4,0.1-0.6
		c0-0.4,0.1-0.6,0.2-0.9c0.1-0.2,0.2-0.5,0.4-0.7c-0.2-0.2-0.9-0.2-1.1-0.3c-0.2-0.1-0.6-0.3-0.4,0.2c0.2,0.6-0.7,0.2-1,0.3
		c-0.3,0.1,0.1,0.5-0.3,0.5c-0.4,0-0.6,1-0.6,1.5c0,0.5-1.2,1.2-1.6,1.8c-0.5,0.6-0.4,0.8-1.4,2.1c-0.7,0.9-0.6,4-0.5,5.7
		c0,2.7,0.3,4.8,0.7,6.5c0.3,0.2,0.5,0.4,0.6,0.5c0,0.1,0.1,0.1,0.1,0.2c0.1,0.5,0.2,1,0.4,1.4c-0.1,0-0.3-0.1-0.4-0.1
		c0.7,1.4,1.5,2.3,2.6,2.8c-0.3-0.9-0.5-1.9-0.7-3C63.9,73,62.9,71.5,62.9,67.3z"/>
	<path class="st2" d="M89,67.3c-1.8-1-0.9-2.2-2.4-4.5c-1.5-2.4-5.6-2.1-6.3-1c-0.6,0.8,0.7,1.2,1,1.7c0.3,0.5,0.4,1.2,0.5,1.5
		c0.2,0.4,0.1,1.5-0.5,2.1c-0.6,0.6-0.2,1.1-0.1,1.7c0,0.5,1,1.1,1.3,1.4c0.3,0.3,0.4,0.7,0.5,1.2c0.1,0,0.2,0,0.3,0
		c0.7,0.1,1.7,0.5,2.3,1.2c0.1,0.2,0.2,0.3,0.3,0.5c0.1,0.1,0.1,0.2,0.1,0.3c0,0,0.1,0,0.1,0c0.1,0,0.2-0.1,0.3-0.1c0,0,0.1,0,0.1,0
		c0.1-0.1,0.3-0.1,0.5,0c0,0,0.1,0.1,0.2,0.2c0.5,0.6,0.9,1.9,1.5,1.7c0.6-0.3-0.3-0.8,0.2-2.1c0.5-1.3,0-3.9,0.3-4.4
		C89.6,68.1,89.5,67.6,89,67.3z"/>
	<path class="st2" d="M60,66.1c0-4.7,0.8-5,1.1-5.4c0.1-0.3,0.2-0.6,0.4-0.8c0.2-0.2,0.3-0.4,0.4-0.6l0.1-0.1c0.1-0.3,0.5-0.8,0.6-1
		c0.1-0.1,0.2-0.3,0.3-0.4c0.2-0.2,0.4-0.4,0.5-0.6c0.2-0.2,0.4-0.3,0.6-0.5c0.1-0.2,0.1-0.4,0.1-0.5c0-0.6,0.4-0.9,0.5-1.2
		c0.1-0.3-0.7-0.3-0.9-0.4c-0.2-0.1-0.5-0.3-0.3,0.2c0.2,0.5-0.6,0.2-0.9,0.2c-0.3,0,0.1,0.5-0.2,0.5c-0.3,0-0.5,0.9-0.5,1.3
		c0,0.5-1,1.1-1.4,1.6c-0.4,0.5-0.4,0.6-1.2,1.8c-0.6,0.8-0.5,3.5-0.5,4.9c0.1,6.7,1.6,8.7,4.1,9.5c-0.3-0.6-0.5-1.3-0.7-2.1
		C61.2,71.7,60,70.4,60,66.1z"/>
	<path class="st2" d="M62.8,73.1c0-0.1-0.1-0.1-0.1-0.2c-0.1-0.1-0.3-0.3-0.6-0.5c0.2,0.8,0.4,1.5,0.7,2.1c0.1,0,0.2,0.1,0.4,0.1
		C63,74.1,62.9,73.6,62.8,73.1z"/>
	<path class="st2" d="M84.6,90.3c0.3-0.2,0.3-0.3,0.1-0.4c-0.2-0.1-1.2-0.2-1-0.7c0.2-0.4,0.6-0.2,1.2,0.1c0.6,0.3,1.2-0.1,1.6-0.9
		c0.4-0.8,0.1-1.4,0.4-2.4c0.2-1,1.9-3.6,3.1-6.4c1.2-2.8,2.5-3.7,3.2-4.3c0.7-0.6,1.5-1.8,1.8-2.8c0.3-1-0.1-1.5-0.1-1.9
		c0-0.3-0.1-0.6-0.3-0.8c-0.8,0.8-1.8,1.7-2.7,2.7c-0.8,0.9-1.4,1.6-1.8,1.9c-0.2,0.2-0.5,0.3-0.6,0.3c0,0.3-0.3,0.6-0.6,0.8
		c-0.5,0.3-0.9,0-1.1-0.2c-0.2-0.1-0.3-0.3-0.4-0.5l0,0.2c0.1,0.2,0.1,0.3,0.1,0.4c-0.1,0.3-0.4,1.4-0.3,2c0.1,0.7,0.1,2-0.8,4.5
		c-0.9,2.5-1.4,3-1.6,3.8c-0.2,0.7-0.8,1.7-1.3,2.1c-0.2,0.2-0.4,0.4-0.5,0.6c0,0.3,0,0.7-0.1,1c-0.1,0.6-0.6,1.3-1.4,1.3
		c-0.1,0-0.2,0-0.4,0c-0.1,0.2-0.2,0.4-0.3,0.7c-0.1,0.2-0.2,0.5-0.2,0.6c-0.1,0.6-0.2,2-0.1,3.4c0.8-1.2,1.9-1.8,2.9-1.8
		c0.3-0.8,0.7-2.3,0.7-2.6C84.1,90.9,84.4,90.5,84.6,90.3z"/>
	<path class="st2" d="M79.6,99.1c0-1,0.2-1.8,0.5-2.5c0-0.1,0-0.1,0-0.2c-0.2-1.8-0.1-3.5,0-4.3c0.1-0.5,0.5-1.1,0.6-1.4
		c-0.2-0.1-0.5-0.1-0.7-0.2c-0.2-0.1-0.5-0.1-0.7-0.2c-0.2,0-0.3,0-0.5,0c-0.2,0.1-0.5,0.1-0.7,0.1c-0.4,0.3-0.8,0.8-1,1.1
		c-0.3,0.6,0.3,1.1,0.6,2.1c0.3,1.1,0.2,2,0.6,3.6c0.2,0.8,0.2,2,0.2,3.2C79.2,100.2,79.6,99.7,79.6,99.1z"/>
	<path class="st2" d="M94.5,66.1c-0.4-1.1,0.1-2.4,0.2-2.7c0-0.4,0.4-1.4,0.2-1.7c-0.6-0.9-1.1-1-1.3-0.9c-1.1,0.7-1.3,1.5-1.8,2.9
		c-0.8,2-0.7,3.7-1.3,3.8c-0.6,0.1-0.4,0.7-0.5,1c-0.1,0.3-0.1,1.4-0.1,1.9c0,0.5,0,2-0.2,2.3c-0.3,0.4-0.2,0.5-0.1,1.1
		c0.1,0.6,0.5,0.3,2.1-1.6c1.6-1.9,2.3-2.7,3.1-3.2c0.7-0.5,0.6-1.6,0.5-1.9C95,66.9,94.6,66.4,94.5,66.1z"/>
	<path class="st2" d="M69.8,80.1c-0.4-0.2-1-0.3-1.2-0.7c-0.5-0.8-2.8-2.9-2.7-10.6c0-6.4,1.1-6.8,1.5-7.3c0.1-0.4,0.3-0.7,0.4-1
		c0.2-0.3,0.4-0.5,0.5-0.7c0.1-0.1,0.1-0.2,0.2-0.3c0.2-0.4,0.7-1.2,0.8-1.3l0.1-0.2c0.2-0.2,0.4-0.5,0.6-0.6
		c0.2-0.2,0.4-0.4,0.6-0.6c0.1-0.1,0.3-0.2,0.4-0.3c0.1-0.1,0.1-0.3,0.2-0.5c0-0.1,0-0.2,0-0.4l0-0.1c-0.1-0.9,0.5-1.2,0.7-1.7
		c0.2-0.5-1-0.5-1.3-0.6s-0.7-0.4-0.4,0.2c0.3,0.6-0.8,0.2-1.2,0.3c-0.4,0.1,0.1,0.6-0.3,0.6c-0.5,0-0.7,1.2-0.7,1.8
		c0,0.6-1.3,1.4-1.9,2.1c-0.5,0.7-0.5,0.9-1.6,2.4c-0.8,1.1-0.6,4.7-0.6,6.6c0,2.8,0.2,5.1,0.5,7.1c0.2,0.3,0.4,0.7,0.5,1
		c0.2,1,0.6,1.4,0.9,2.2c-0.2-0.1-0.4-0.2-0.6-0.3c1.1,3.1,2.8,4.4,5.4,4.2c0,0,0.1,0,0.1,0C70.5,81.1,70.1,80.6,69.8,80.1z"/>
	<path class="st2" d="M70.3,80.3c-0.1-0.1-0.3-0.1-0.5-0.2c0.3,0.5,0.7,1,1.1,1.3c0,0,0,0,0,0C70.7,81.1,70.5,80.7,70.3,80.3z"/>
	<path class="st2" d="M65.1,75.3c-0.1-0.4-0.3-0.7-0.5-1c0.2,1.1,0.4,2.1,0.7,3c0.2,0.1,0.4,0.2,0.6,0.3
		C65.8,76.8,65.3,76.3,65.1,75.3z"/>
	<path class="st2" d="M59.4,58.8c0.1-0.1,0.1-0.2,0.2-0.3c0.1-0.1,0.2-0.2,0.3-0.4c0.1-0.2,0.3-0.3,0.5-0.5c-0.2,0-0.5,0-0.6-0.1
		c-0.2-0.3,0.4-0.3-0.1-0.8c-0.5-0.5-0.9-0.9-1.8,0c-0.1,0.1-0.2,0.1-0.3,0.2c0,0.1,0,0.1,0,0.2c0,0.1-0.1,0.3-0.1,0.4
		c-0.1,0.1-0.2,0.3-0.4,0.4c0,0,0,0.1-0.1,0.2c-0.1,0.3-0.2,0.7-0.2,1.1c0,0.3,0,0.6,0,0.8c0,0.2,0,0.3,0,0.3c0,0.2,0,0.3,0,0.4
		c0.6,0.1,1.4-0.1,1.6-0.4c0.1-0.1,0.2-0.2,0.4-0.3C59.1,59.3,59.3,59,59.4,58.8z"/>
	<path class="st2" d="M37,75.4c-0.4-0.1-0.4,0-0.4,0s0,0.5-0.1,1.1c0.1,0,0.2,0,0.3,0.1c0.1-0.4,0.3-0.7,0.5-0.9
		C37.7,75.3,37.4,75.4,37,75.4z"/>
	<path class="st2" d="M38.7,71.9c-0.4-0.1-0.4-0.1-0.4-0.1s-0.1,0.7-0.3,1.3c-0.3,0.6-0.7,1.3-1,1.5c-0.3,0.2,0,0.4,0.2,0.4
		c0.2,0.1,0.4,0.2,0.4-0.1c0-0.3,0.1-0.6,0.3-1c0.2-0.3,0.6-1.4,1-1.7C39.4,71.9,39.1,72,38.7,71.9z"/>
	<path class="st2" d="M50.7,89.6c0.3,0,0.5-0.4,0.5-0.8c0-0.4,0.6-0.9,0.8-1.3c0.3-0.4-0.4-0.8-0.3-1.1c0-0.4,0.6-1.6,0.8-1.7
		c0.3-0.1,0.5-0.6,0.4-0.8c-0.1-0.2-0.5-0.6,0.2-2.6c0.8-2,1.6-5.8,1.7-7.6c0.1-1.8-0.4-2.4-0.2-2.9c0.2-0.5,0.1-0.9-0.3-1.6
		c-0.1-0.2-0.3-0.2-0.4-0.1c-0.1,0.4-0.3,0.7-0.7,1.1c-0.5,0.5-0.8,0.8-1.1,1c-0.1,0.1-0.3,0.2-0.4,0.2c0,0.1-0.1,0.3-0.1,0.4
		c0,0.2,0,0.4-0.1,0.6c0,0.4-0.1,0.8-0.4,1.3c-0.1,0.2-0.2,0.3-0.3,0.5c-0.1,0.1-0.1,0.2-0.3,0.4c0,0.1,0.1,0.3,0.1,0.5
		c0.1,0.3,0.3,0.7,0.4,1.3c0.2,0.8,0.2,2,0,3.6c-0.2,1.6-0.6,2.5-0.8,3.1l-0.1,0.3l0,0.1c0.3,0,0.5,0.1,0.6,0.3
		c0.3,0.5,0.3,1.2,0,1.9c-0.1,0.2-0.2,0.5-0.3,0.6c-0.2,0.3-0.5,0.6-1,0.7c-0.1,0.2,0.6,0.2,0.9,0.4c0.3,0.1,0.8,0.4,0.7,0.5
		c-0.1,0.1-0.3-0.2-0.9-0.3c-0.3-0.1-0.5-0.1-0.6-0.1c0.2,0.6,0.1,1.4-0.9,1.9c-0.2,0.1-0.5,0.3-0.8,0.5c-0.2,0.2-0.5,0.4-0.8,0.5
		c-0.5,0.3-1.1,0.7-1.7,1.2v0c0.2,0.3,0.4,0.6,0.7,0.8c1.5-1.4,1.9-1.5,2.6-2C49.5,89.7,50.4,89.5,50.7,89.6z"/>
	<path class="st2" d="M57,56.6c0,0-0.2-0.3-0.6,0c-0.4,0.3-0.8,0.4-1,0.2c-0.1-0.1-0.3-0.1-0.5,0c0,0.1,0.1,0.3,0,0.4
		c0,0-0.1,0.3-0.2,0.7c-0.1,0.4-0.2,1-0.3,1.5c0,0.6-0.1,0.9-0.1,1.2c0,0.1,0,0.2,0,0.2c0,0.1,0.1,0.2,0.1,0.3c0.6-0.4,1-1.2,1.3-1
		c0.3,0.2,0.4,0.3,0.4,0.3s-0.1-0.6,0-1.3c0.1-0.8,0.3-1.7,0.6-1.7C57,57.2,57,56.6,57,56.6z"/>
	<path class="st2" d="M49,87.2c-0.2-0.1,0-0.4-0.1-0.6c0,0,0-0.1-0.1-0.1c-0.3,0.2-0.7,0.5-1.1,0.7c-0.2,0.1-0.4,0.2-0.7,0.2
		c-0.2,0-0.4,0-0.6-0.1c-0.1,0-0.2,0-0.2,0s-0.4,0.6-0.8,1.1c-0.1,0.9-0.2,1.7,0,2.5c1.5-1.1,2.7-1.9,3.2-2.2
		C49.4,88.2,49.2,87.4,49,87.2z"/>
	<path class="st2" d="M96.9,32.3c-0.8,0.1-2.2,0.5-2.7-0.5c-0.5-1-1-0.8-2-0.7c-1.1,0.1-1.2,0.1-1.2,0.1s-0.6,0.7-0.8,0.4
		c-0.3-0.2-0.9-0.2-1.2,0.1c-0.3,0.4-0.6,1-1.2,0.8c-0.6-0.2-1.2,0-1.5,0.3c-0.3,0.3-1.2,0.4-1.6,0.6c-0.5,0.2-1.7,0.9-1.7,2.2
		c0,1.3-1.4,2.5-1.8,2.9c-0.5,0.3-0.1,1.9-0.1,2.3c0,0.4,0.7,0.6,0.5,1.2c-0.2,0.6,1.2,1.5,3.2,2c1.7,0.4,3.2,1.5,4.1,2.3
		c0-0.2-0.1-0.4-0.1-0.5l0.4,0.5c-0.1-0.2,0.3-0.4,0.5-0.3c0.2,0.1,0.4,0.5,0.6,0.7c0.3,0.5,0.3,1.2,0.4,1.7c0,0.1,0,0.1,0,0.2
		c0,0,0,0,0,0c0,0.1,0.2,0.2,0.3,0.2c0.1-1,1.9-0.1,2.3-0.2c0.9-0.1,1.8-0.9,2.5-1.4c0.1,0,0.1,0.1,0.1,0.2c0,0,0.1-0.1,0.1-0.1
		c-0.1-0.2-0.1-0.5-0.2-0.7c-0.2-0.6-0.5-1.1-0.5-1.7c0-0.2,0-0.7,0.2-0.9c0.2-0.2,0.5-0.3,0.6-0.1l0-1.1c0.1,0.2,0.2,0.6,0.3,1
		c0-0.1,0.1-0.3,0.1-0.5c0-0.2,0.1-0.8,0.2-1c0-0.1,0.2-0.9,0.4-1c0.4-0.6,0.4-1.4,0.5-1.7c0.7-1.4,0.1-4.8,0.2-5.4
		C97.7,33.6,97.7,32.3,96.9,32.3z M88.9,43.5c-1-0.6-1.9-0.4-2.4-0.5c-0.4-0.1-1.2-1-1-1.6c0.2-0.6,0.6-1.6,1.1-2
		c0.3-0.2,1-0.7,1.9-0.2c0.4,0.3,1.7,1.8,2.2,2.2c0.5,0.5,0.9,1.5,0.5,2.2C90.8,44.3,89.9,44.1,88.9,43.5z M93.1,48.1
		c-0.2,0.1-1.2-0.9-1.8-1.8c-0.6-0.8-0.1-1.3,0.4-1.5c0.5-0.3,1.3,0.6,1.5,1.9C93.5,47.9,93.3,48,93.1,48.1z M94.9,44.6
		c-0.2,0.9,0,1.8-0.3,2.5c-0.2,0.7-0.4,0.3-0.5-0.3c-0.1-0.6-0.9-2.6-0.1-2.9C94.4,43.6,95.1,44,94.9,44.6z M96,39.3
		c-0.6,0.9-0.9,1.3-1.1,2.2c-0.2,0.9-0.6,0.9-0.9,0.7c-0.3-0.1-0.4-0.7-0.4-1.3c0-0.6,0.2-1.8,0-2.2c-0.2-0.5-0.2-1.4,0.6-1.9
		c0.8-0.5,0.9,0.2,1.4,0.5C96,37.7,96.5,38.3,96,39.3z"/>
	<path class="st2" d="M91.7,49.1C91.7,49.1,91.7,49.1,91.7,49.1C91.7,49.1,91.7,49.1,91.7,49.1C91.7,49.1,91.7,49.1,91.7,49.1z"/>
	<path class="st2" d="M89.9,47.3c0,0-0.1-0.1-0.3-0.1c-0.2-0.2-0.3-0.4-0.5-0.6c-0.1-0.1-0.2-0.2-0.4-0.3c0.2,1,0.8,2.3,1,3.2
		c0.3,1,0.9,2.6,1.7,3.2c-0.1-0.6-0.5-1.8-0.6-2.4c-0.1-0.6-0.2-1.1-0.3-1.7c-0.3-0.7-0.2-0.7-0.4-0.9C90.1,47.6,90,47.4,89.9,47.3z
		"/>
	<path class="st2" d="M90.2,46.7c-0.1-0.2-0.3-0.6-0.6-0.7c-0.3-0.1-0.6,0-0.5,0.3l-0.4-0.5c0,0.1,0.1,0.3,0.1,0.5
		c0.1,0.1,0.2,0.2,0.4,0.3c0.2,0.2,0.4,0.3,0.5,0.6c0.1,0,0.2,0.1,0.3,0.1c0.1,0.1,0.2,0.2,0.3,0.4c0.1,0.2,0,0.2,0.4,0.9
		c0-0.1,0-0.1,0-0.2C90.4,47.8,90.4,47.2,90.2,46.7z"/>
	<path class="st2" d="M96.2,44.9c0.3,1.1,0.2,1.9-0.3,2.5c0.1,0.4,0.2,0.8,0.4,1.2c0.2,0.6,0.4,1.8,0.5,2.4c0.4-1,0.2-2.8,0-3.8
		c-0.1-0.7-0.3-2.2-0.6-3.2C96.2,44.2,96.1,44.4,96.2,44.9z"/>
	<path class="st2" d="M96,44c0-0.2-0.4-0.1-0.6,0.1c-0.2,0.2-0.2,0.7-0.2,0.9c0,0.6,0.3,1.2,0.5,1.7c0.1,0.2,0.1,0.4,0.2,0.7
		c0.5-0.6,0.6-1.3,0.3-2.5c-0.1-0.5,0-0.7,0-1c-0.1-0.4-0.2-0.8-0.3-1L96,44z"/>
	<path class="st2" d="M94,48.5c-0.5,0.2-1.7,0.5-2.1,0.6c0,0-0.1,0-0.1,0c0.2,0.3,0.4,1.2,0.6,1.5c0.2-0.3,0.2-1.1,0.4-1.5
		c0.1,0.2,0.4,0.8,0.6,0.9c0.2-0.3,0.1-0.8,0.2-1.1c0.2,0.3,0.5,0.7,0.7,0.8c0.1-0.3,0-0.9,0.1-1.2c0.2,0.1,0.5,0.6,0.7,0.7
		c0.2-0.3,0.1-0.9,0.2-1.3c0.2,0.2,0.4,0.8,0.6,0.9c0.1-0.3,0.1-1,0-1.4c-0.2,0.1-0.4,0.3-0.6,0.4C95,48.1,94.8,48.2,94,48.5z"/>
	<path class="st2" d="M90.9,49.3L90.9,49.3c0,0.5,0.3,0.7,0.4,1.2c0.3-0.3,0.2-1,0.4-1.3c-0.2,0-0.6-0.1-0.8-0.2
		C90.9,49,90.9,49.1,90.9,49.3z"/>
	<path class="st2" d="M93.2,48.7c-0.4,0.1-2.2-0.8-2.3,0.2c0.3,0.1,0.6,0.2,0.8,0.2c0,0,0,0,0,0c0,0,0,0,0,0c0.1,0,0.1,0,0.1,0
		c0.4-0.1,1.6-0.4,2.1-0.6c0.7-0.3,1-0.4,1.2-0.5c0.2-0.1,0.4-0.3,0.6-0.4c0-0.1-0.1-0.2-0.1-0.2C94.9,47.8,94,48.5,93.2,48.7z"/>
	<path class="st2" d="M97.2,52.1c0,0-0.1,0.2-0.1,0.3c-0.1,0-0.3-0.5-0.4-0.4c0,0.1,0,0.6,0,0.8c0,0-0.2-0.5-0.3,0.2
		c-0.2-0.6-0.2-1.7-0.6-2.2c-0.1,0.5,0.1,1.1,0,1.7c0,0.2-0.1,0.3-0.2,0.4c0.1,0.1,0.2,0.3,0.3,0.4c0.1,0.4-0.4,0.7-0.7,0.9
		c-0.4,0.3-1,0.6-1.5,0.4c-0.2-0.1-0.2-0.2-0.3-0.3c-0.1-0.1-0.3-0.1-0.4-0.2h0.2c-0.1-0.1-0.1-0.2,0-0.4c-0.5-0.4-0.7-1.5-1-1.9
		c-0.2,0.4,0.2,1.7,0.1,2.2C92,54.1,92,53,91.8,53.5c-0.4,0.3-0.5-0.6-0.6-0.5c-0.3,0.5-0.5-0.5-0.7-0.4c0,0,0.1,0.5,0.1,0.5l0,0.2
		c0,0.5,0.9,1.2,1.2,1.6c0.6,0.7,1.7,0.3,2.6,0.1c1-0.2,2-0.6,2.6-1.5C97.6,52.7,97.5,50.6,97.2,52.1z"/>
	<path class="st2" d="M95.8,52.7c-0.1-0.1-0.2-0.3-0.3-0.4c0,0-0.1,0.6-0.2,0.7c-0.1,0-0.2-0.4-0.4-0.5c-0.1,0-0.2,0.7-0.2,0.8
		c-0.2-0.1-0.3-0.5-0.6-0.6C94,53.1,94,53.3,94,53.6c-0.3-0.1-0.3-0.6-0.7-0.7c0,0.1,0,0.4-0.1,0.6c0.1,0.1,0.3,0.2,0.5,0.2
		C94.1,53.7,95.3,53.4,95.8,52.7z"/>
	<path class="st2" d="M93.4,54h-0.2c0.1,0.1,0.3,0.1,0.4,0.2c0.1,0.1,0.1,0.2,0.3,0.3c0.5,0.2,1.1-0.1,1.5-0.4
		c0.3-0.2,0.8-0.6,0.7-0.9c0-0.1-0.1-0.3-0.3-0.4c-0.5,0.7-1.7,1-1.9,0.9c-0.2,0-0.4,0-0.5-0.2C93.3,53.7,93.3,53.9,93.4,54z"/>
	<path class="st2" d="M90.1,58.6c-0.2-0.2-0.5-0.4-0.7-0.5c0.2,0.3,0.7,1.2,0.1,1.2L89,58.1c0.1,0,0.2,0,0.3,0c0,0,0,0,0,0
		c-0.3-0.5-0.8-0.2-1.4-0.2c-0.5,0-0.3,0.1-0.4,0.6c0,0.2-0.3,0.6-0.3,0.8c0,0.4,0.4,0.3,0.7,0.2c0.3,0,0.5,0,0.8,0.2
		c0.4,0.2,0.6,0.2,1.1-0.1c0.2-0.1,0.4-0.2,0.6-0.3c0.1,0,0.5,0,0.6-0.2C91.1,58.9,90.3,58.7,90.1,58.6z"/>
	<path class="st2" d="M89,58.1l0.5,1.2c0.6,0,0.1-0.9-0.1-1.2C89.3,58.1,89.1,58.1,89,58.1z"/>
	<g>
		<path d="M202.6,31.2h1.1c0.2,0,0.3,0.1,0.3,0.3v21.8c0,0.2-0.1,0.3-0.3,0.3h-1.1c-0.2,0-0.3-0.1-0.3-0.3V43.3c0-0.1,0-0.1-0.1-0.1
			h-6.4c-0.1,0-0.1,0-0.1,0.1v10.1c0,0.2-0.1,0.3-0.3,0.3h-1.1c-0.2,0-0.3-0.1-0.3-0.3V31.5c0-0.2,0.1-0.3,0.3-0.3h1.1
			c0.2,0,0.3,0.1,0.3,0.3v10c0,0.1,0,0.1,0.1,0.1h6.4c0.1,0,0.1,0,0.1-0.1v-10C202.2,31.3,202.3,31.2,202.6,31.2z"/>
		<path d="M216.9,53.4l-0.9-4.2c0,0,0-0.1,0-0.1c0,0-0.1,0-0.1,0h-6.3c0,0-0.1,0-0.1,0c0,0,0,0.1,0,0.1l-0.9,4.2
			c0,0.2-0.1,0.3-0.4,0.3h-1.1c-0.1,0-0.2,0-0.2-0.1c-0.1-0.1-0.1-0.1,0-0.3l4.9-21.8c0-0.2,0.2-0.3,0.4-0.3h1.3
			c0.2,0,0.3,0.1,0.4,0.3l4.9,21.8v0.1c0,0.2-0.1,0.3-0.3,0.3h-1.1C217.1,53.7,217,53.6,216.9,53.4z M209.9,47.6h5.7
			c0.1,0,0.1,0,0.1-0.1l-2.9-13.6c0-0.1,0-0.1-0.1-0.1c0,0,0,0-0.1,0.1l-2.9,13.6C209.8,47.6,209.8,47.6,209.9,47.6z"/>
		<path d="M230.8,53.4l-0.9-4.2c0,0,0-0.1,0-0.1c0,0-0.1,0-0.1,0h-6.3c0,0-0.1,0-0.1,0c0,0,0,0.1,0,0.1l-0.9,4.2
			c0,0.2-0.1,0.3-0.4,0.3H221c-0.1,0-0.2,0-0.2-0.1c-0.1-0.1-0.1-0.1,0-0.3l4.9-21.8c0-0.2,0.2-0.3,0.4-0.3h1.3
			c0.2,0,0.3,0.1,0.4,0.3l4.9,21.8v0.1c0,0.2-0.1,0.3-0.3,0.3h-1.1C230.9,53.7,230.8,53.6,230.8,53.4z M223.7,47.6h5.7
			c0.1,0,0.1,0,0.1-0.1l-2.9-13.6c0-0.1,0-0.1-0.1-0.1c0,0,0,0-0.1,0.1l-2.9,13.6C223.7,47.6,223.7,47.6,223.7,47.6z"/>
		<path d="M244.4,32.8c0.9,1.1,1.4,2.6,1.4,4.4c0,1.8-0.5,3.3-1.4,4.4c-0.9,1.1-2.1,1.6-3.6,1.6h-3.6c-0.1,0-0.1,0-0.1,0.1v10
			c0,0.2-0.1,0.3-0.3,0.3h-1.1c-0.2,0-0.3-0.1-0.3-0.3V31.4c0-0.2,0.1-0.3,0.3-0.3h5C242.2,31.1,243.4,31.7,244.4,32.8z M243.1,40.6
			c0.6-0.8,1-1.9,1-3.3c0-1.4-0.3-2.5-1-3.3c-0.6-0.8-1.5-1.3-2.5-1.3h-3.3c-0.1,0-0.1,0-0.1,0.1v8.9c0,0.1,0,0.1,0.1,0.1h3.3
			C241.6,41.8,242.4,41.4,243.1,40.6z"/>
		<path d="M249.8,52.4c-0.9-1-1.4-2.4-1.4-4.1v-0.7c0-0.2,0.1-0.3,0.3-0.3h1c0.2,0,0.3,0.1,0.3,0.3v0.6c0,1.3,0.3,2.3,0.9,3.1
			c0.6,0.8,1.5,1.2,2.5,1.2c1,0,1.8-0.4,2.5-1.1c0.7-0.7,1-1.7,1-2.9c0-0.8-0.2-1.5-0.5-2.1s-0.7-1.1-1.2-1.5
			c-0.5-0.4-1.3-1-2.4-1.9c-1.1-0.8-2-1.5-2.6-2.1c-0.6-0.5-1.1-1.2-1.5-2c-0.4-0.8-0.6-1.7-0.6-2.7c0-1.6,0.5-2.9,1.4-3.9
			c0.9-0.9,2.1-1.4,3.6-1.4c1.6,0,2.8,0.5,3.8,1.6c0.9,1,1.4,2.4,1.4,4.1v0.8c0,0.2-0.1,0.3-0.3,0.3h-1.1c-0.2,0-0.3-0.1-0.3-0.3
			v-0.8c0-1.3-0.3-2.3-0.9-3.1c-0.6-0.8-1.5-1.2-2.5-1.2c-0.9,0-1.7,0.3-2.3,1c-0.6,0.7-0.9,1.6-0.9,2.8c0,0.7,0.1,1.4,0.4,1.9
			c0.3,0.5,0.7,1,1.2,1.5c0.5,0.5,1.3,1.1,2.3,1.9c1.3,0.9,2.2,1.7,2.8,2.3s1.1,1.2,1.4,1.9c0.3,0.7,0.5,1.5,0.5,2.5
			c0,1.8-0.5,3.2-1.4,4.2c-1,1-2.2,1.6-3.7,1.6C251.9,53.9,250.7,53.4,249.8,52.4z"/>
		<path d="M270.5,53.4l-0.9-4.2c0,0,0-0.1,0-0.1c0,0-0.1,0-0.1,0h-6.3c0,0-0.1,0-0.1,0c0,0,0,0.1,0,0.1l-0.9,4.2
			c0,0.2-0.1,0.3-0.4,0.3h-1.1c-0.1,0-0.2,0-0.2-0.1c-0.1-0.1-0.1-0.1,0-0.3l4.9-21.8c0-0.2,0.2-0.3,0.4-0.3h1.3
			c0.2,0,0.3,0.1,0.4,0.3l4.9,21.8v0.1c0,0.2-0.1,0.3-0.3,0.3h-1.1C270.6,53.7,270.5,53.6,270.5,53.4z M263.4,47.6h5.7
			c0.1,0,0.1,0,0.1-0.1l-2.9-13.6c0-0.1,0-0.1-0.1-0.1c0,0,0,0-0.1,0.1l-2.9,13.6C263.4,47.6,263.4,47.6,263.4,47.6z"/>
		<path d="M275.1,53.3V31.5c0-0.2,0.1-0.3,0.3-0.3h1.1c0.2,0,0.3,0.1,0.3,0.3V52c0,0.1,0,0.1,0.1,0.1h7.5c0.2,0,0.3,0.1,0.3,0.3v0.9
			c0,0.2-0.1,0.3-0.3,0.3h-9C275.2,53.7,275.1,53.6,275.1,53.3z"/>
		<path d="M288.9,52.3c-1-1.1-1.4-2.6-1.4-4.4V31.5c0-0.2,0.1-0.3,0.3-0.3h1.1c0.2,0,0.3,0.1,0.3,0.3V48c0,1.3,0.3,2.4,1,3.2
			c0.7,0.8,1.5,1.2,2.6,1.2s1.9-0.4,2.6-1.2c0.7-0.8,1-1.9,1-3.2V31.5c0-0.2,0.1-0.3,0.3-0.3h1.1c0.2,0,0.3,0.1,0.3,0.3v16.3
			c0,1.8-0.5,3.3-1.5,4.4c-1,1.1-2.3,1.7-3.9,1.7S289.8,53.4,288.9,52.3z"/>
		<path d="M195.8,65.2h1.2c0.2,0,0.3,0.1,0.3,0.3v21.8c0,0.2-0.1,0.3-0.3,0.3h-1.1c-0.2,0-0.3-0.1-0.3-0.3v-20c0,0,0-0.1,0-0.1
			c0,0-0.1,0-0.1,0l-3.1,1.3l-0.1,0c-0.1,0-0.2-0.1-0.3-0.3l-0.2-0.7v-0.1c0-0.2,0.1-0.3,0.2-0.4l3.4-1.8
			C195.5,65.2,195.7,65.2,195.8,65.2z"/>
		<path d="M210.4,81c0,1.2-0.1,2.3-0.4,3.2c-0.6,2.5-2.1,3.8-4.5,3.8c-1.2,0-2.3-0.3-3.1-1c-0.8-0.7-1.3-1.7-1.6-3
			c-0.2-0.8-0.2-1.7-0.3-2.6c0-0.2,0.1-0.3,0.3-0.3h1.1c0.2,0,0.3,0.1,0.3,0.3c0,0.9,0.1,1.7,0.2,2.3c0.4,1.9,1.4,2.8,3,2.8
			c1.5,0,2.4-0.8,2.9-2.5c0.2-0.9,0.3-1.9,0.3-3.1c0-1.5-0.1-2.7-0.4-3.6c-0.5-1.5-1.4-2.2-2.7-2.2c-0.3,0-0.5,0-0.7,0.1
			c-0.1,0-0.2,0.1-0.2,0c-0.1,0-0.1,0-0.2-0.1l-0.5-0.5c-0.1-0.1-0.1-0.3,0-0.4l4.3-7.2c0,0,0-0.1,0-0.1c0,0-0.1,0-0.1,0h-7
			c-0.2,0-0.3-0.1-0.3-0.3v-0.9c0-0.2,0.1-0.3,0.3-0.3h8.9c0.2,0,0.3,0.1,0.3,0.3v1c0,0.1,0,0.3-0.1,0.4l-4.1,6.8c0,0,0,0.1,0,0.1
			c0,0,0,0,0.1,0c0.9,0,1.6,0.3,2.2,0.9c0.6,0.6,1.1,1.3,1.4,2.2C210.2,78,210.4,79.4,210.4,81z"/>
		<path d="M214,87.1c-0.3-0.3-0.4-0.7-0.4-1.2c0-0.5,0.1-0.9,0.4-1.2s0.7-0.4,1.2-0.4s0.9,0.1,1.2,0.4s0.5,0.7,0.5,1.2
			c0,0.5-0.2,0.9-0.5,1.2c-0.3,0.3-0.7,0.4-1.2,0.4S214.3,87.4,214,87.1z"/>
		<path d="M225.6,78v-0.9c0-0.2,0.1-0.3,0.3-0.3h7.1c0.2,0,0.3,0.1,0.3,0.3V78c0,0.2-0.1,0.3-0.3,0.3h-7.1
			C225.7,78.3,225.6,78.2,225.6,78z"/>
		<path d="M245.3,65.2h1.2c0.2,0,0.3,0.1,0.3,0.3v21.8c0,0.2-0.1,0.3-0.3,0.3h-1.1c-0.2,0-0.3-0.1-0.3-0.3v-20c0,0,0-0.1,0-0.1
			c0,0-0.1,0-0.1,0l-3.1,1.3l-0.1,0c-0.1,0-0.2-0.1-0.3-0.3l-0.2-0.7v-0.1c0-0.2,0.1-0.3,0.2-0.4l3.4-1.8
			C245,65.2,245.1,65.2,245.3,65.2z"/>
		<path d="M260.4,80.9c0,1.1-0.1,2.1-0.2,2.8c-0.2,1.4-0.8,2.4-1.6,3.1c-0.8,0.7-1.8,1.1-3.1,1.1c-1.3,0-2.3-0.4-3.1-1.1
			c-0.8-0.7-1.3-1.8-1.6-3.2c0-0.2-0.1-0.5-0.1-1c0-0.2,0.1-0.3,0.3-0.3h1.1c0.2,0,0.3,0.1,0.3,0.3l0.1,0.8c0.4,2,1.4,3,3,3
			c1.5,0,2.5-0.9,2.9-2.8c0.2-0.7,0.3-1.6,0.3-2.8c0-1.2-0.1-2.2-0.4-3.1c-0.5-1.6-1.4-2.4-2.8-2.4c-1.6,0-2.7,0.8-3.1,2.5
			c-0.1,0.2-0.2,0.3-0.4,0.3H251c-0.2,0-0.3-0.1-0.3-0.3V65.5c0-0.2,0.1-0.3,0.3-0.3h8.5c0.2,0,0.3,0.1,0.3,0.3v0.9
			c0,0.2-0.1,0.3-0.3,0.3h-7c-0.1,0-0.1,0-0.1,0.1v8.6c0,0.1,0,0.1,0,0.1c0,0,0.1,0,0.1-0.1c0.3-0.5,0.8-0.9,1.4-1.2s1.2-0.4,2-0.4
			c1.1,0,2,0.3,2.6,0.9c0.7,0.6,1.2,1.5,1.5,2.7C260.3,78.4,260.4,79.5,260.4,80.9z"/>
		<path d="M263.4,87.1c-0.3-0.3-0.4-0.7-0.4-1.2c0-0.5,0.1-0.9,0.4-1.2s0.7-0.4,1.2-0.4s0.9,0.1,1.2,0.4s0.5,0.7,0.5,1.2
			c0,0.5-0.2,0.9-0.5,1.2c-0.3,0.3-0.7,0.4-1.2,0.4S263.7,87.4,263.4,87.1z"/>
		<path d="M283.9,72.7c0.8,1,1.2,2.3,1.2,3.9v10.8c0,0.2-0.1,0.3-0.3,0.3h-1.1c-0.2,0-0.3-0.1-0.3-0.3v-1.2c0-0.1,0-0.1,0-0.1
			c0,0-0.1,0-0.1,0c-0.8,1.2-2,1.8-3.7,1.8c-1.1,0-2.1-0.3-3-1c-0.8-0.7-1.3-1.8-1.3-3.5c0-1.8,0.5-3.1,1.5-3.9c1-0.8,2.3-1.3,4-1.3
			h2.5c0.1,0,0.1,0,0.1-0.1v-1.5c0-1.2-0.3-2.2-0.8-2.9c-0.5-0.7-1.3-1.1-2.2-1.1c-0.7,0-1.4,0.2-1.9,0.7c-0.5,0.5-0.9,1.1-0.9,1.8
			c0,0.2-0.1,0.3-0.3,0.3l-1.2-0.1c-0.1,0-0.2,0-0.2-0.1c-0.1-0.1-0.1-0.1,0-0.2c0.1-1.2,0.6-2.2,1.5-2.9c0.9-0.7,1.9-1.1,3.2-1.1
			C282,71.2,283.1,71.7,283.9,72.7z M282.4,85.5c0.7-0.6,1-1.5,1-2.6v-3.1c0-0.1,0-0.1-0.1-0.1h-2.5c-1.1,0-2,0.3-2.7,0.9
			c-0.7,0.6-1,1.5-1,2.7c0,1,0.3,1.8,0.8,2.3c0.5,0.5,1.2,0.8,2,0.8C280.9,86.4,281.7,86.1,282.4,85.5z"/>
		<path d="M296.8,71.5h1.1c0.2,0,0.3,0.1,0.3,0.3v15.5c0,0.2-0.1,0.3-0.3,0.3h-1.1c-0.2,0-0.3-0.1-0.3-0.3v-1.2c0-0.1,0-0.1,0-0.1
			s-0.1,0-0.1,0c-0.7,1.2-1.8,1.8-3.3,1.8c-1.3,0-2.3-0.4-3.1-1.2c-0.8-0.8-1.1-2-1.1-3.5V71.8c0-0.2,0.1-0.3,0.3-0.3h1.1
			c0.2,0,0.3,0.1,0.3,0.3v11c0,1.2,0.3,2.1,0.8,2.7c0.5,0.6,1.2,0.9,2.1,0.9c0.9,0,1.7-0.3,2.2-1c0.5-0.7,0.8-1.6,0.8-2.8V71.8
			C296.5,71.6,296.6,71.5,296.8,71.5z"/>
		<path d="M310.2,71.5h1.1c0.2,0,0.3,0.1,0.3,0.3v15.7c0,2.2-0.5,3.9-1.5,5c-1,1.2-2.6,1.7-4.9,1.6c-0.2,0-0.3-0.1-0.3-0.3v-0.9
			c0-0.2,0.1-0.3,0.4-0.3c1.6,0,2.8-0.4,3.5-1.3c0.7-0.9,1-2.2,1-4v-1.2c0-0.1,0-0.1-0.1-0.1c0,0-0.1,0-0.1,0.1
			c-0.4,0.6-0.8,1-1.4,1.3s-1.2,0.4-1.9,0.4c-1.3,0-2.4-0.4-3.2-1.3c-0.8-0.9-1.2-2.1-1.2-3.5v-7c0-1.4,0.4-2.6,1.2-3.5
			c0.8-0.9,1.8-1.3,3.2-1.3c0.7,0,1.3,0.2,1.9,0.4c0.6,0.3,1,0.7,1.4,1.3c0,0,0.1,0.1,0.1,0.1s0,0,0-0.1v-1.1
			C309.9,71.6,310,71.5,310.2,71.5z M309.1,85.4c0.6-0.6,0.8-1.4,0.8-2.4v-6.8c0-1-0.3-1.8-0.8-2.5c-0.6-0.6-1.3-0.9-2.2-0.9
			c-0.9,0-1.6,0.3-2.2,0.9c-0.6,0.6-0.9,1.5-0.9,2.5v6.8c0,1,0.3,1.8,0.9,2.4c0.6,0.6,1.3,0.9,2.2,0.9
			C307.8,86.3,308.5,86,309.1,85.4z"/>
		<path d="M323.3,71.5h1.1c0.2,0,0.3,0.1,0.3,0.3v15.5c0,0.2-0.1,0.3-0.3,0.3h-1.1c-0.2,0-0.3-0.1-0.3-0.3v-1.2c0-0.1,0-0.1,0-0.1
			s-0.1,0-0.1,0c-0.7,1.2-1.8,1.8-3.3,1.8c-1.3,0-2.3-0.4-3.1-1.2c-0.8-0.8-1.1-2-1.1-3.5V71.8c0-0.2,0.1-0.3,0.3-0.3h1.1
			c0.2,0,0.3,0.1,0.3,0.3v11c0,1.2,0.3,2.1,0.8,2.7c0.5,0.6,1.2,0.9,2.1,0.9c0.9,0,1.7-0.3,2.2-1c0.5-0.7,0.8-1.6,0.8-2.8V71.8
			C323,71.6,323.1,71.5,323.3,71.5z"/>
		<path d="M329.6,86.7c-0.8-0.8-1.3-1.7-1.3-2.9v-0.2c0-0.2,0.1-0.3,0.3-0.3h1c0.2,0,0.3,0.1,0.3,0.3v0.2c0,0.8,0.3,1.4,0.8,1.9
			c0.6,0.5,1.3,0.8,2.2,0.8c0.9,0,1.5-0.3,2.1-0.8c0.5-0.5,0.8-1.2,0.8-2c0-0.6-0.2-1.1-0.5-1.5s-0.7-0.7-1.1-1
			c-0.4-0.2-1.1-0.5-1.8-0.9c-0.8-0.3-1.5-0.7-2.1-1c-0.5-0.3-1-0.8-1.4-1.4c-0.4-0.6-0.6-1.3-0.6-2.2c0-1.3,0.4-2.3,1.2-3.1
			c0.8-0.8,1.9-1.2,3.2-1.2c1.4,0,2.5,0.4,3.3,1.2c0.8,0.8,1.2,1.8,1.2,3.1v0.1c0,0.2-0.1,0.3-0.3,0.3h-1c-0.2,0-0.3-0.1-0.3-0.3
			v-0.2c0-0.8-0.3-1.5-0.8-2c-0.5-0.5-1.2-0.8-2.1-0.8c-0.9,0-1.5,0.3-2.1,0.8c-0.5,0.5-0.8,1.2-0.8,2c0,0.6,0.1,1.1,0.4,1.4
			c0.3,0.4,0.6,0.7,1,0.9c0.4,0.2,1,0.5,1.8,0.9c0.9,0.4,1.6,0.7,2.2,1s1.1,0.8,1.5,1.4c0.4,0.6,0.6,1.4,0.6,2.3
			c0,1.3-0.4,2.3-1.3,3.1s-1.9,1.2-3.3,1.2C331.5,87.8,330.4,87.5,329.6,86.7z"/>
		<path d="M345.6,72.8H343c-0.1,0-0.1,0-0.1,0.1v10.3c0,1.1,0.2,1.8,0.5,2.2c0.4,0.4,0.9,0.6,1.7,0.6h0.3c0.2,0,0.3,0.1,0.3,0.3v0.9
			c0,0.2-0.1,0.3-0.3,0.3h-0.6c-1.2,0-2.1-0.3-2.7-0.8c-0.6-0.6-0.9-1.6-0.9-3.1V73c0-0.1,0-0.1-0.1-0.1h-1.3
			c-0.2,0-0.3-0.1-0.3-0.3v-0.7c0-0.2,0.1-0.3,0.3-0.3h1.3c0.1,0,0.1,0,0.1-0.1v-3.6c0-0.2,0.1-0.3,0.3-0.3h1c0.2,0,0.3,0.1,0.3,0.3
			v3.6c0,0.1,0,0.1,0.1,0.1h2.6c0.2,0,0.3,0.1,0.3,0.3v0.7C345.9,72.7,345.8,72.8,345.6,72.8z"/>
		<path d="M356.8,86.1C356.8,86.1,356.9,86.2,356.8,86.1l7.8,0c0.2,0,0.3,0.1,0.3,0.3v0.9c0,0.2-0.1,0.3-0.3,0.3H355
			c-0.2,0-0.3-0.1-0.3-0.3v-1c0-0.1,0-0.3,0.1-0.4c0.2-0.3,0.3-0.5,0.4-0.7c0.5-0.9,1.3-2.2,2.4-4c1.1-1.8,2-3.3,2.8-4.7
			c1.4-2.5,2.1-4.6,2.1-6.2c0-1.2-0.3-2.2-0.8-2.9c-0.6-0.7-1.3-1.1-2.2-1.1c-0.9,0-1.7,0.4-2.2,1.1c-0.5,0.7-0.8,1.7-0.8,2.9v1.2
			c0,0.2-0.1,0.3-0.3,0.3H355c-0.2,0-0.3-0.1-0.3-0.3v-1.2c0-1.6,0.5-2.9,1.4-3.9c0.9-1,2-1.5,3.4-1.5c1.4,0,2.6,0.5,3.5,1.5
			c0.9,1,1.3,2.3,1.3,4c0,1.9-0.8,4.3-2.3,6.9c-0.6,1.1-1.5,2.7-2.8,4.8l-2.3,3.9C356.8,86,356.8,86.1,356.8,86.1z"/>
		<path d="M369.2,86.4c-1-1-1.4-2.4-1.4-4V70.5c0-1.7,0.5-3,1.4-4s2.2-1.5,3.8-1.5c1.6,0,2.9,0.5,3.8,1.5s1.4,2.4,1.4,4v11.9
			c0,1.7-0.5,3-1.4,4S374.6,88,373,88C371.4,88,370.2,87.5,369.2,86.4z M375.6,85.4c0.7-0.7,1-1.7,1-2.8V70.3c0-1.2-0.3-2.1-1-2.8
			c-0.7-0.7-1.5-1.1-2.6-1.1c-1,0-1.9,0.4-2.6,1.1c-0.7,0.7-1,1.7-1,2.8v12.2c0,1.2,0.3,2.1,1,2.8s1.5,1.1,2.6,1.1
			C374,86.4,374.9,86.1,375.6,85.4z"/>
		<path d="M383.6,86.1C383.6,86.1,383.7,86.2,383.6,86.1l7.8,0c0.2,0,0.3,0.1,0.3,0.3v0.9c0,0.2-0.1,0.3-0.3,0.3h-9.6
			c-0.2,0-0.3-0.1-0.3-0.3v-1c0-0.1,0-0.3,0.1-0.4c0.2-0.3,0.3-0.5,0.4-0.7c0.5-0.9,1.3-2.2,2.4-4c1.1-1.8,2-3.3,2.8-4.7
			c1.4-2.5,2.1-4.6,2.1-6.2c0-1.2-0.3-2.2-0.8-2.9c-0.6-0.7-1.3-1.1-2.2-1.1c-0.9,0-1.7,0.4-2.2,1.1c-0.5,0.7-0.8,1.7-0.8,2.9v1.2
			c0,0.2-0.1,0.3-0.3,0.3h-1.1c-0.2,0-0.3-0.1-0.3-0.3v-1.2c0-1.6,0.5-2.9,1.4-3.9c0.9-1,2-1.5,3.4-1.5c1.4,0,2.6,0.5,3.5,1.5
			c0.9,1,1.3,2.3,1.3,4c0,1.9-0.8,4.3-2.3,6.9c-0.6,1.1-1.5,2.7-2.8,4.8l-2.3,3.9C383.6,86,383.6,86.1,383.6,86.1z"/>
		<path d="M395.8,65.2h1.2c0.2,0,0.3,0.1,0.3,0.3v21.8c0,0.2-0.1,0.3-0.3,0.3h-1.1c-0.2,0-0.3-0.1-0.3-0.3v-20c0,0,0-0.1,0-0.1
			c0,0-0.1,0-0.1,0l-3.1,1.3l-0.1,0c-0.1,0-0.2-0.1-0.3-0.3l-0.2-0.7v-0.1c0-0.2,0.1-0.3,0.2-0.4l3.4-1.8
			C395.6,65.2,395.7,65.2,395.8,65.2z"/>
	</g>
</g>
</svg>
