<svg xmlns="http://www.w3.org/2000/svg" width="24" height="24" viewBox="0 0 24 24" fill="currentColor" stroke="none" stroke-width="0" stroke-linecap="round" stroke-linejoin="round" class="svg_icon_footer">

<g>
	<g>
		<g>
			<path id="g5jjnq26yS" d="M1,7.7h2.3v8.8H1V7.7z"/>
		</g>
		<g>
			<g>
				<path id="g5jjnq26yS_00000178910103224912196540000008905399311887261851_" class="st0" d="M1,7.7h2.3v8.8H1V7.7z"/>
			</g>
		</g>
	</g>
	<g>
		<g>
			<path id="i3Prh1JpXt" d="M7.6,11.7c-0.2-1.3-0.3-2.1-0.3-2.2C7.2,8.8,7.1,8.2,7,7.6c-0.2,0-1.2,0-3,0v8.8h2l0-5.8l0.8,5.8h1.4
				l0.8-5.9l0,5.9h2V7.6h-3L7.6,11.7z"/>
		</g>
		<g>
			<g>
				<path id="i3Prh1JpXt_00000019672061276087835140000007516017673381424263_" class="st0" d="M7.6,11.7c-0.2-1.3-0.3-2.1-0.3-2.2
					C7.2,8.8,7.1,8.2,7,7.6c-0.2,0-1.2,0-3,0v8.8h2l0-5.8l0.8,5.8h1.4l0.8-5.9l0,5.9h2V7.6h-3L7.6,11.7z"/>
			</g>
		</g>
	</g>
	<g>
		<g>
			<path id="a4ov9rRGQm" d="M14.8,9.4c0,0.1,0,0.4,0,0.8c0,0.3,0,3.1,0,3.4c0,0.6,0,0.9-0.1,1.1c-0.1,0.1-0.3,0.2-0.6,0.2
				c0-0.6,0-5.2,0-5.8c0.2,0,0.4,0,0.5,0.1C14.8,9.3,14.8,9.3,14.8,9.4z M15.9,16.3c0.3-0.1,0.5-0.2,0.7-0.3
				c0.2-0.1,0.3-0.4,0.4-0.6c0.1-0.3,0.1-0.8,0.1-1.6c0-0.3,0-2.8,0-3.1c0-0.8,0-1.4-0.1-1.7c-0.1-0.3-0.2-0.5-0.4-0.8
				c-0.2-0.2-0.5-0.4-0.9-0.5c-0.4-0.1-1-0.2-2.1-0.2c-0.1,0-0.7,0-1.7,0v8.8h2.8C15.3,16.4,15.7,16.3,15.9,16.3z"/>
		</g>
		<g>
			<g>
				<path id="a4ov9rRGQm_00000156584386858458344000000001649451872047019418_" class="st0" d="M14.8,9.4c0,0.1,0,0.4,0,0.8
					c0,0.3,0,3.1,0,3.4c0,0.6,0,0.9-0.1,1.1c-0.1,0.1-0.3,0.2-0.6,0.2c0-0.6,0-5.2,0-5.8c0.2,0,0.4,0,0.5,0.1
					C14.8,9.3,14.8,9.3,14.8,9.4z M15.9,16.3c0.3-0.1,0.5-0.2,0.7-0.3c0.2-0.1,0.3-0.4,0.4-0.6c0.1-0.3,0.1-0.8,0.1-1.6
					c0-0.3,0-2.8,0-3.1c0-0.8,0-1.4-0.1-1.7c-0.1-0.3-0.2-0.5-0.4-0.8c-0.2-0.2-0.5-0.4-0.9-0.5c-0.4-0.1-1-0.2-2.1-0.2
					c-0.1,0-0.7,0-1.7,0v8.8h2.8C15.3,16.4,15.7,16.3,15.9,16.3z"/>
			</g>
		</g>
	</g>
	<g>
		<g>
			<path id="fk968BpsX" d="M20.7,15c0,0.1-0.2,0.2-0.4,0.2c-0.1,0-0.2-0.1-0.3-0.2c0-0.1-0.1-0.4-0.1-0.7c0-0.2,0-2.1,0-2.3
				c0-0.4,0-0.6,0.1-0.7c0-0.1,0.1-0.1,0.3-0.1c0.1,0,0.3,0.1,0.4,0.2c0,0.1,0.1,0.4,0.1,0.7c0,0.1,0,0.9,0,2.2
				C20.8,14.7,20.8,14.9,20.7,15z M17.8,16.3h2.1C20,16,20,15.8,20,15.8c0.2,0.2,0.4,0.4,0.6,0.5c0.2,0.1,0.6,0.2,0.8,0.2
				c0.4,0,0.7-0.1,0.9-0.3c0.3-0.2,0.4-0.4,0.5-0.7c0.1-0.3,0.1-0.6,0.1-1.2c0-0.2,0-2.2,0-2.5c0-0.5,0-0.9,0-1
				c0-0.2-0.1-0.3-0.2-0.5c-0.1-0.2-0.3-0.3-0.5-0.4s-0.5-0.1-0.8-0.1c-0.3,0-0.6,0.1-0.8,0.2c-0.2,0.1-0.4,0.3-0.6,0.5
				c0-0.2,0-1.1,0-2.9h-2.2V16.3z"/>
		</g>
		<g>
			<g>
				<path id="fk968BpsX_00000039834499808731395540000016752761971114247351_" class="st0" d="M20.7,15c0,0.1-0.2,0.2-0.4,0.2
					c-0.1,0-0.2-0.1-0.3-0.2c0-0.1-0.1-0.4-0.1-0.7c0-0.2,0-2.1,0-2.3c0-0.4,0-0.6,0.1-0.7c0-0.1,0.1-0.1,0.3-0.1
					c0.1,0,0.3,0.1,0.4,0.2c0,0.1,0.1,0.4,0.1,0.7c0,0.1,0,0.9,0,2.2C20.8,14.7,20.8,14.9,20.7,15z M17.8,16.3h2.1
					C20,16,20,15.8,20,15.8c0.2,0.2,0.4,0.4,0.6,0.5c0.2,0.1,0.6,0.2,0.8,0.2c0.4,0,0.7-0.1,0.9-0.3c0.3-0.2,0.4-0.4,0.5-0.7
					c0.1-0.3,0.1-0.6,0.1-1.2c0-0.2,0-2.2,0-2.5c0-0.5,0-0.9,0-1c0-0.2-0.1-0.3-0.2-0.5c-0.1-0.2-0.3-0.3-0.5-0.4s-0.5-0.1-0.8-0.1
					c-0.3,0-0.6,0.1-0.8,0.2c-0.2,0.1-0.4,0.3-0.6,0.5c0-0.2,0-1.1,0-2.9h-2.2V16.3z"/>
			</g>
		</g>
	</g>
</g>
</svg>
