<?xml version="1.0" encoding="utf-8"?>
<!-- Generator: Adobe Illustrator 27.2.0, SVG Export Plug-In . SVG Version: 6.00 Build 0)  -->
<svg version="1.1" id="Layer_1" xmlns="http://www.w3.org/2000/svg" xmlns:xlink="http://www.w3.org/1999/xlink" x="0px" y="0px"
	 viewBox="0 0 443 48.8" style="enable-background:new 0 0 443 48.8;" xml:space="preserve">
<style type="text/css">
	.st0{fill:#0066CC;}
	.st1{fill:#FFCC00;}
	.st2{fill:#0078FF;}
	.st3{fill-rule:evenodd;clip-rule:evenodd;fill:#000099;}
	.st4{fill-rule:evenodd;clip-rule:evenodd;fill:#FFCC00;}
	.st5{fill-rule:evenodd;clip-rule:evenodd;fill:#1F60A9;}
	.st6{fill-rule:evenodd;clip-rule:evenodd;fill:#FFFFFF;}
	.st7{fill-rule:evenodd;clip-rule:evenodd;}
</style>
<path class="st0" d="M60.7,8.2v13.6h-3.1V8.2H60.7z"/>
<path class="st0" d="M65.8,13.9v7.8h-3.1V8.2h2.8l2.2,3.3l2.9,4.5h0.2V8.2H74v13.6h-2.8l-2.8-4.1L66,14L65.8,13.9
	C65.8,14,65.8,13.9,65.8,13.9z"/>
<path class="st0" d="M80.9,21.7h-5.2V8.2h5.2c2.8,0,4.9,1.3,4.9,4.3v4.9C85.9,20.3,83.4,21.7,80.9,21.7z M82.7,13.1
	c0-1.5-1.2-2.1-2.1-2.1h-1.7v8h1.6c1,0,2.1-0.5,2.1-2.1L82.7,13.1L82.7,13.1z"/>
<path class="st0" d="M92.8,21.8c-2.7,0-5.3-1.4-5.3-4.4V8.2h3.1v8.8c0,1.5,1.2,2.1,2.1,2.1c1,0,2.1-0.5,2.1-2.1V8.2h3.1v9.2
	C98.1,20.4,95.4,21.8,92.8,21.8z"/>
<path class="st0" d="M104.6,21.8c-2,0-3.7-0.4-5.4-1.9l1.8-2.3c1.2,0.9,2.3,1.3,3.5,1.3c1.7,0,2.2-0.7,2.2-1.3c0-0.8-0.7-1.2-3-1.8
	c-2.5-0.7-3.9-1.6-3.9-3.9c0-2.5,2.1-4,4.9-4c1.5,0,3.1,0.2,4.7,1.3l-1.4,2.5c-1.3-0.8-2.3-0.9-3.4-0.9c-1,0-1.7,0.4-1.7,1.1
	c0,0.7,0.7,1.1,2.9,1.7c3.5,1,4,2.4,4,4.1C110,20.5,107.6,21.8,104.6,21.8z"/>
<path class="st0" d="M117.2,10.9v10.7h-3.1V10.9h-3.5V8.2h10v2.8H117.2z"/>
<path class="st0" d="M127.9,8.2c2.9,0,4.1,2.1,4.1,4.3c0,1.4-0.9,2.9-2.2,3.8l2.4,5.5h-3.3l-2.1-5h-2v5h-3.1V8.2H127.9z M125,14h2.3
	c1.2,0,1.6-0.7,1.6-1.5c0-0.8-0.5-1.5-1.6-1.5H125V14z"/>
<path class="st0" d="M138,13.4l1-2.3l1.3-2.9h3.3l-4.1,8.2v5.4h-3.1v-5.4l-4-8.2h3.3l1.3,3L138,13.4L138,13.4z"/>
<path class="st0" d="M150.8,13.9h1.5v-0.2c0-0.5-0.4-0.9-1.2-0.9c-0.5,0-1.2,0.1-2,0.6l-1.1-1.6c1.2-0.9,2.2-1.1,3.1-1.1
	c2,0,3.3,1,3.3,3.1v2.3c0,0.5,0.5,0.5,0.6,0.5c0.5,0,1.6-0.6,1.6-2.6c0-2.8-1.7-4.8-5.2-4.8c-3.7,0-6,2.5-6,5.4
	c0,2.9,2.1,5.5,5.5,5.5c0.6,0,1.3,0,2.5-0.4l0.6,1.8c-0.9,0.4-2.4,0.6-3.3,0.6c-4.6,0-7.4-3.2-7.4-7.3c0-4.2,3.3-7.4,8.1-7.4
	c4.9,0,7.3,3,7.3,6.8c0,2.6-1.7,4.7-4.1,4.7c-0.7,0-1.8-0.1-2.3-0.9c-0.8,0.5-1.7,0.8-2.2,0.8c-1.8,0-2.5-1.2-2.5-2.4
	C147.8,14.5,149.7,13.9,150.8,13.9z M152.3,15.5h-1.4c-0.4,0-0.8,0.1-0.8,0.5c0,0.3,0.3,0.5,0.7,0.5c0.7,0,1.2-0.3,1.4-0.4
	L152.3,15.5L152.3,15.5z"/>
<path class="st0" d="M166.4,10.9v10.7h-3.1V10.9h-3.5V8.2h10v2.8H166.4z"/>
<path class="st0" d="M177.2,19.1h-4.4l-0.8,2.7h-3.4l4.8-13.6h3.2l4.7,13.6h-3.3L177.2,19.1z M173.6,16.5h2.8l-0.3-0.9l-1.1-3.8H175
	l-1.1,3.8L173.6,16.5z"/>
<path class="st0" d="M182.6,21.7V8.2h3.1v10.7h6.4v2.8L182.6,21.7L182.6,21.7z"/>
<path class="st0" d="M193.2,21.7V8.2h3.1v10.7h6.4v2.8L193.2,21.7L193.2,21.7z"/>
<path class="st0" d="M207.1,8.2v13.6H204V8.2H207.1z"/>
<path class="st0" d="M212.2,13.9v7.8h-3.1V8.2h2.8l2.2,3.3l2.9,4.5h0.1V8.2h3.1v13.6h-2.8l-2.8-4.1L212.2,13.9L212.2,13.9
	L212.2,13.9z"/>
<path class="st0" d="M225.3,13.9v7.8h-3.1V8.2h2.8l2.2,3.3l2.9,4.5h0.1V8.2h3.1v13.6h-2.8l-2.8-4.1L225.3,13.9L225.3,13.9
	L225.3,13.9z"/>
<path class="st1" d="M68.3,39.6c0.8,0.7,1.8,1.3,2.9,1.9l-1.1,2c-1.2-0.4-2.9-1.5-3.8-2.4c-0.7,0.6-2.1,1.3-3.5,1.3
	c-2.4,0-4.4-1.5-4.4-4c0-1.8,1.3-3.1,2.7-3.9c-0.4-0.6-0.6-1.3-0.6-2.1c0-1.8,1.2-3.1,3-3.1c1.8,0,3.1,1.3,3.1,2.9
	c0,1.5-1.1,2.5-2.1,3.2c0.6,1,1.3,1.9,2.1,2.8c1.2-1.3,1.8-3.1,1.8-4.6c0-2.8-1.8-5.1-4.8-5.1c-2.8,0-4.5,1.7-4.5,3.7
	c0,0.7,0.1,1.5,0.8,2.6l-2,1.3c-0.9-1.3-1.2-2.6-1.2-3.7c0-3.1,2.6-6.1,6.8-6.1c4.6,0,7.2,3.3,7.2,7.3
	C70.8,35.5,69.9,37.8,68.3,39.6z M62.7,36.2c-0.9,0.5-1.7,1.2-1.7,2c0,1.2,0.7,1.8,1.8,1.8c0.6,0,1.3-0.2,2.1-0.6
	C64.2,38.6,63.2,37.1,62.7,36.2z M63.7,31.3c-0.4,0-0.6,0.4-0.6,0.8c0,0.4,0.2,0.6,0.4,1.1c0.6-0.4,0.9-0.7,0.9-1.2
	C64.5,31.7,64.1,31.3,63.7,31.3z"/>
<path class="st1" d="M84.1,42h-6.6V28.5h6.3c2.9,0,3.9,1.7,3.9,3.8c0,1-0.5,2.1-1.7,2.7c1.3,0.6,2,2.1,2,3C88,40.3,86.7,42,84.1,42z
	 M83,31.3h-2.3v2.5H83c1.1,0,1.5-0.5,1.5-1.2C84.5,31.8,84.2,31.3,83,31.3z M83.1,36.4h-2.5v2.9h2.5c1,0,1.5-0.5,1.5-1.4
	C84.7,37,84.2,36.4,83.1,36.4z"/>
<path class="st1" d="M97,39.3h-4.4L91.8,42h-3.4l4.7-13.6h3.2l4.7,13.6h-3.3L97,39.3z M93.5,36.8h2.8L96,35.9l-1.1-3.8h-0.1
	l-1.1,3.7L93.5,36.8z"/>
<path class="st1" d="M102.4,42V28.5h3.1v10.7h6.4V42L102.4,42z"/>
<path class="st1" d="M117.3,31.3V42h-3.1V31.3h-3.5v-2.8h10v2.8H117.3z"/>
<path class="st1" d="M125.2,28.5v13.6h-3.1V28.5H125.2z"/>
<path class="st1" d="M135.2,32.2c-0.9-0.8-1.9-1-2.7-1c-1,0-2.2,0.5-2.2,2.1v3.8c0,1.5,1.3,2.1,2.2,2.1c0.8,0,1.7-0.2,2.7-1l1.5,2.4
	c-1.1,0.9-2.7,1.3-4.3,1.3c-2.5,0-5.3-1.3-5.3-4.3v-5.1c0-2.9,2.7-4.4,5.3-4.4c1.6,0,3.3,0.4,4.3,1.3L135.2,32.2z"/>
<path class="st1" d="M142.7,28.5h9.5v2.8h-6.3v2.5h5.5v2.8h-5.5v2.7h6.3V42h-9.5V28.5z"/>
<path class="st1" d="M159.2,37.5l1.3-4.9l1.2-4.1h3.3L160.7,42h-3.2l-4.4-13.6h3.3l1.3,4.2l1.3,4.8H159.2z"/>
<path class="st1" d="M166.2,28.5h9.5v2.8h-6.3v2.5h5.5v2.8h-5.5v2.7h6.3V42h-9.5V28.5z"/>
<path class="st1" d="M180.3,34.2V42h-3.1V28.5h2.8l2.2,3.3l2.9,4.5h0.1v-7.8h3.1v13.6h-2.8l-2.8-4.1L180.3,34.2L180.3,34.2
	L180.3,34.2z"/>
<path class="st1" d="M196.1,31.3V42H193V31.3h-3.5v-2.8h10v2.8H196.1z"/>
<g>
	<g id="XMLID_00000018238116009917024300000018175453015894901125_">
		<path class="st1" d="M32.1,24.4h14.4c-0.9,5.1-3.3,10.2-7,14.4C30,49.4,15.2,51.7,6.3,43.6c-5.2-4.7-7.1-11.9-5.9-19.2h14.4
			c0,2.2,0.9,4.4,2.6,6.1c3.4,3.4,8.9,3.4,12.3,0C31.3,28.9,32.1,26.6,32.1,24.4z"/>
		<path class="st1" d="M19.9,24.4h7c0,0.9-0.4,1.7-1,2.4c-1.3,1.3-3.5,1.4-4.9,0C20.3,26.2,19.9,25.3,19.9,24.4z"/>
	</g>
	<g id="XMLID_00000172436888910342890510000010745209830598214540_">
		<path class="st0" d="M41.1,5.5c4.9,4.7,6.6,11.8,5.4,18.9H32.1c0-2.2-0.8-4.5-2.6-6.2c-3.4-3.4-8.9-3.4-12.3,0
			c-1.7,1.7-2.6,3.9-2.5,6.2H0.3c0.9-5.2,3.3-10.5,7.3-14.9C17.3-0.9,32.3-2.8,41.1,5.5z"/>
		<path class="st0" d="M25.9,22c0.7,0.7,1.1,1.6,1,2.5h-7c0-0.9,0.4-1.8,1-2.5C22.3,20.7,24.6,20.7,25.9,22z"/>
	</g>
</g>
<g>
	<path class="st2" d="M439.5,31.4c-0.3,0-0.5,0.1-0.6,0.4h-0.1v-0.3h-0.3v1.9h0.3v-1.2c0-0.3,0.3-0.4,0.6-0.4c0.3,0,0.5,0.2,0.5,0.5
		v1.2h0.3v-1.2C440.2,31.6,439.9,31.4,439.5,31.4 M396.1,23.5c-0.1-0.1-0.2-0.1-0.3,0l-0.8,0.8c0,0-0.1,0.1-0.1,0.2s0,0.1,0.1,0.2
		l0.8,0.8c0,0,0.1,0.1,0.2,0.1s0.1,0,0.2-0.1l0.8-0.8c0,0,0.1-0.1,0.1-0.2s0-0.1-0.1-0.2L396.1,23.5z M398.8,26.2
		c-0.1-0.1-0.2-0.1-0.3,0l-0.8,0.8c0,0-0.1,0.1-0.1,0.2s0,0.1,0.1,0.2l0.8,0.8c0,0,0.1,0.1,0.2,0.1s0.1,0,0.2-0.1l0.8-0.8
		c0.1-0.1,0.1-0.2,0-0.3L398.8,26.2z M400.3,24.5c0,0.1,0,0.1,0.1,0.2l0.8,0.8c0,0,0.1,0.1,0.2,0.1s0.1,0,0.2-0.1l0.8-0.8
		c0.1-0.1,0.1-0.2,0-0.3l-0.8-0.8c0,0-0.1-0.1-0.2-0.1s-0.1,0-0.2,0.1l-0.8,0.8C400.3,24.4,400.3,24.4,400.3,24.5 M431,33.3h1.8V33
		h-1.5v-1h1.4v-0.3h-1.4v-0.9h1.5v-0.3H431V33.3z M437.1,31.4c-0.6,0-1,0.4-1,1c0,0.6,0.4,1,1,1s1-0.4,1-1
		C438.1,31.8,437.7,31.4,437.1,31.4 M437.1,33.1c-0.3,0-0.6-0.3-0.6-0.7c0-0.5,0.3-0.7,0.6-0.7c0.4,0,0.7,0.3,0.7,0.7
		C437.8,32.8,437.5,33.1,437.1,33.1 M398.5,22.8c0,0,0.1,0.1,0.2,0.1s0.1,0,0.2-0.1l0.8-0.8c0.1-0.1,0.1-0.2,0-0.3l-0.8-0.8
		c0,0-0.1-0.1-0.2-0.1s-0.1,0-0.2,0.1l-0.8,0.8c0,0-0.1,0.1-0.1,0.2s0,0.1,0.1,0.2L398.5,22.8z M386.1,23.3c0.2,0.2,0.4,0.2,0.6,0.2
		s0.4-0.1,0.6-0.2l0.9-0.9c0.2-0.2,0.2-0.4,0.2-0.6s-0.1-0.4-0.2-0.6l-0.9-0.9c-0.2-0.2-0.4-0.2-0.6-0.2s-0.4,0.1-0.6,0.2l-0.9,0.9
		c-0.2,0.2-0.2,0.4-0.2,0.6s0.1,0.4,0.2,0.6L386.1,23.3z M443,24.8c0-2.6-2.4-3-4.4-3.5c-1.6-0.4-3.2-0.7-3.2-2.1
		c0-1.1,1.1-2.1,2.9-2.1c1.7,0,3.1,0.6,3.9,1.4h0.4v-1.3c-0.7-0.6-2.2-1.3-3.9-1.3c-2.9,0-4.6,1.5-4.6,3.3c0,2.5,2.4,2.9,4.4,3.4
		c1.6,0.4,3.2,0.8,3.2,2.2c0,0.9-1,1.9-2.9,1.9c-1.5,0-3.4-0.8-4.5-2h-0.4v1.6c1.4,1.1,2.9,1.6,4.8,1.6C441.4,28,443,26.5,443,24.8
		 M440.7,31h0.3v-0.4h-0.3V31z M387.3,24.7c-0.3-0.3-0.8-0.3-1.1,0l-2,2c-0.2,0.2-0.2,0.4-0.2,0.6s0.1,0.4,0.2,0.6l1.4,1.4l-0.5,0.5
		c-0.3,0.3-0.3,0.8,0,1.1c0.2,0.2,0.4,0.2,0.6,0.2s0.4-0.1,0.6-0.2l1.1-1.1l0,0l2-2c0.2-0.2,0.2-0.4,0.2-0.6s-0.1-0.4-0.2-0.6
		L387.3,24.7z M387.7,27.3l-0.8,0.8c0,0-0.1,0.1-0.2,0.1s-0.1,0-0.2-0.1l-0.8-0.8c0,0-0.1-0.1-0.1-0.2s0-0.1,0.1-0.2l0.8-0.8
		c0.1-0.1,0.2-0.1,0.3,0l0.8,0.8C387.8,27.1,387.8,27.2,387.7,27.3 M435.5,30.8h-0.3v0.7h-0.3v0.2h0.3v1.1c0,0.4,0.1,0.5,0.5,0.5
		h0.2v-0.2h-0.2c-0.1,0-0.2,0-0.2-0.3v-1.1h0.5v-0.2h-0.5V30.8z M442.2,31.4c-0.3,0-0.5,0.1-0.7,0.2v0.3h0.1
		c0.2-0.2,0.3-0.2,0.6-0.2c0.3,0,0.4,0.1,0.5,0.4l0,0c-0.1,0-0.4,0.1-0.5,0.1c-0.4,0.1-0.7,0.3-0.7,0.6s0.3,0.6,0.7,0.6
		c0.3,0,0.5-0.1,0.6-0.3l0,0v0.2h0.3c0-0.4,0-0.8,0-1.2C443,31.7,442.7,31.4,442.2,31.4 M442.7,32.7L442.7,32.7
		c0,0.3-0.3,0.4-0.5,0.4c-0.3,0-0.5-0.1-0.5-0.3s0.2-0.3,0.5-0.4c0.1,0,0.3-0.1,0.5-0.1V32.7z M440.7,33.3h0.3v-1.9h-0.3V33.3z
		 M424.5,31.8L424.5,31.8l-0.1-0.3h-0.3v1.9h0.3v-1.1c0-0.3,0.2-0.5,0.5-0.5h0.3v-0.3H425C424.7,31.4,424.6,31.5,424.5,31.8
		 M425.6,33.3h0.3v-1.9h-0.3V33.3z M426.5,16l-4.3,11.4v0.4h1.3l1.6-4.2h5l1.6,4.2h1.4v-0.4L428.6,16H426.5z M425.4,22.4l1.8-4.7
		l0.2-0.7h0.1l0.3,0.7l1.8,4.7C429.6,22.4,425.4,22.4,425.4,22.4z M422.9,31.4c-0.3,0-0.5,0.1-0.6,0.3l0,0v-0.2H422v2.7h0.3V33l0,0
		c0.1,0.2,0.3,0.3,0.5,0.3c0.5,0,0.9-0.4,0.9-1C423.8,31.8,423.4,31.4,422.9,31.4 M422.8,33.1c-0.3,0-0.5-0.1-0.5-0.4v-0.6
		c0-0.3,0.3-0.5,0.6-0.5c0.4,0,0.7,0.3,0.7,0.7C423.5,32.8,423.2,33.1,422.8,33.1 M408.5,16.5c-0.1-0.3-0.4-0.5-0.7-0.5h-10.5
		c-0.2,0-0.4,0.1-0.6,0.2l-6.8,6.8c-0.3,0.3-0.3,0.8,0,1.1l2.3,2.3l-1,1c-0.3,0.3-0.3,0.8,0,1.1l3.4,3.4c0.3,0.3,0.8,0.3,1.1,0
		l1.1-1.1l3,3c0.2,0.2,0.4,0.2,0.6,0.2s0.4-0.1,0.6-0.2l7.3-7.3c0.2-0.2,0.2-0.4,0.2-0.6s-0.1-0.4-0.2-0.6l-4-4l4.1-4.1
		C408.5,17.2,408.6,16.8,408.5,16.5 M401.5,20.5l0.8-0.8c0,0,0.1-0.1,0.2-0.1s0.1,0,0.2,0.1l0.8,0.8c0.1,0.1,0.1,0.2,0,0.3l-0.8,0.8
		c0,0-0.1,0.1-0.2,0.1s-0.1,0-0.2-0.1l-0.8-0.8c0,0-0.1-0.1-0.1-0.2C401.5,20.6,401.5,20.5,401.5,20.5 M396.7,18.7
		c0-0.1,0.1-0.2,0.1-0.2c0.1,0,0.2,0,0.3,0.1l1.5,1.5l1.5-1.5c0.1-0.1,0.2-0.1,0.3-0.1c0.1,0,0.1,0.1,0.1,0.2v3.4
		c0,0.1,0,0.1-0.1,0.2l-1.7,1.7c0,0-0.1,0.1-0.2,0.1s-0.1,0-0.2-0.1l-1.7-1.7c0,0-0.1-0.1-0.1-0.2v-3.4H396.7z M393.8,20.5l0.8-0.8
		c0,0,0.1-0.1,0.2-0.1s0.1,0,0.2,0.1l0.8,0.8c0.1,0.1,0.1,0.2,0,0.3l-0.8,0.8c0,0-0.1,0.1-0.2,0.1s-0.1,0-0.2-0.1l-0.8-0.8
		c0,0-0.1-0.1-0.1-0.2C393.7,20.6,393.7,20.5,393.8,20.5 M395.8,28.5l-0.8,0.8c0,0-0.1,0.1-0.2,0.1s-0.1,0-0.2-0.1l-0.8-0.8
		c0,0-0.1-0.1-0.1-0.2s0-0.1,0.1-0.2l0.8-0.8c0,0,0.1-0.1,0.2-0.1s0.1,0,0.2,0.1l0.8,0.8C395.9,28.3,395.9,28.4,395.8,28.5
		 M396.3,26.4h-3.4c-0.1,0-0.2-0.1-0.2-0.1c0-0.1,0-0.2,0.1-0.3l1.5-1.5l-1.5-1.5c-0.1-0.1-0.1-0.2-0.1-0.3c0-0.1,0.1-0.1,0.2-0.1
		h3.4c0.1,0,0.1,0,0.2,0.1l1.7,1.7c0,0,0.1,0.1,0.1,0.2s0,0.1-0.1,0.2l-1.7,1.7C396.4,26.4,396.3,26.4,396.3,26.4 M400.6,30.3
		c0,0.1-0.1,0.2-0.1,0.2h-0.1c-0.1,0-0.1,0-0.2-0.1l-1.5-1.5l-1.5,1.5c-0.1,0.1-0.2,0.1-0.3,0.1c-0.1,0-0.1-0.1-0.1-0.2v-3.4
		c0-0.1,0-0.1,0.1-0.2l1.7-1.7c0.1-0.1,0.2-0.1,0.3,0l1.7,1.7c0,0,0.1,0.1,0.1,0.2v3.4H400.6z M403.5,28.5l-0.8,0.8
		c0,0-0.1,0.1-0.2,0.1s-0.1,0-0.2-0.1l-0.8-0.8c0,0-0.1-0.1-0.1-0.2s0-0.1,0.1-0.2l0.8-0.8c0,0,0.1-0.1,0.2-0.1s0.1,0,0.2,0.1
		l0.8,0.8C403.6,28.3,403.6,28.4,403.5,28.5 M404.4,22.6c0.1,0,0.2,0.1,0.2,0.1c0,0.1,0,0.2-0.1,0.3l-1.5,1.5l1.5,1.5
		c0.1,0.1,0.1,0.2,0.1,0.3s-0.1,0.1-0.2,0.1H401c-0.1,0-0.1,0-0.2-0.1l-1.7-1.7c0,0-0.1-0.1-0.1-0.2s0-0.1,0.1-0.2l1.7-1.7
		c0,0,0.1-0.1,0.2-0.1h3.4V22.6z M426.6,31.9c0-0.2,0.1-0.3,0.5-0.3c0.3,0,0.4,0.2,0.5,0.2h0.1v-0.3c-0.1-0.1-0.3-0.2-0.6-0.2
		c-0.5,0-0.8,0.2-0.8,0.5c0,0.6,1.2,0.5,1.2,0.9c0,0.2-0.2,0.3-0.5,0.3c-0.2,0-0.5-0.1-0.6-0.3h-0.1V33c0.2,0.1,0.4,0.2,0.7,0.2
		c0.5,0,0.8-0.2,0.8-0.5C427.8,32.1,426.6,32.3,426.6,31.9 M425.6,31h0.3v-0.4h-0.3V31z M429.9,32.4c0-0.6-0.3-1-0.9-1
		s-0.9,0.4-0.9,1c0,0.7,0.4,1,1,1c0.2,0,0.5-0.1,0.7-0.2V33h-0.1c-0.2,0.1-0.4,0.2-0.6,0.2c-0.3,0-0.5-0.1-0.7-0.4
		c0-0.1-0.1-0.2-0.1-0.3l0,0L429.9,32.4L429.9,32.4z M429,31.6c0.3,0,0.5,0.2,0.6,0.5h-1.1C428.4,31.8,428.6,31.6,429,31.6
		 M413.1,33.3h1.8V33h-1.5v-1h1.4v-0.3h-1.4v-0.9h1.5v-0.3h-1.8V33.3z M421.1,26.6h-6.7v-4.2h6.2v-1.2h-6.2v-4h6.7V16H413v11.8h8
		v-1.2H421.1z M416.3,31.4c-0.3,0-0.5,0.1-0.6,0.4h-0.1v-0.3h-0.3v1.9h0.3v-1.2c0-0.3,0.3-0.4,0.6-0.4c0.3,0,0.5,0.2,0.5,0.5v1.2
		h0.3v-1.2C417,31.6,416.7,31.4,416.3,31.4 M417.8,30.8h-0.3v0.7h-0.3v0.2h0.3v1.1c0,0.4,0.1,0.5,0.5,0.5h0.2v-0.2H418
		c-0.1,0-0.2,0-0.2-0.3v-1.1h0.5v-0.2h-0.5V30.8z M420.3,32.4c0-0.6-0.3-1-0.9-1s-0.9,0.4-0.9,1c0,0.7,0.4,1,1,1
		c0.2,0,0.5-0.1,0.7-0.2V33h-0.1c-0.2,0.1-0.4,0.2-0.6,0.2c-0.3,0-0.5-0.1-0.7-0.4c0-0.1-0.1-0.2-0.1-0.3l0,0L420.3,32.4L420.3,32.4
		z M419.4,31.6c0.3,0,0.5,0.2,0.6,0.5h-1.1C418.9,31.8,419.1,31.6,419.4,31.6 M421,31.8L421,31.8l-0.1-0.3h-0.3v1.9h0.3v-1.1
		c0-0.3,0.2-0.5,0.5-0.5h0.3v-0.3h-0.3C421.2,31.4,421.1,31.5,421,31.8 M433.5,31.9c0-0.2,0.1-0.3,0.5-0.3c0.3,0,0.4,0.2,0.5,0.2
		h0.1v-0.3c-0.1-0.1-0.3-0.2-0.6-0.2c-0.5,0-0.8,0.2-0.8,0.5c0,0.6,1.2,0.5,1.2,0.9c0,0.2-0.2,0.3-0.5,0.3c-0.2,0-0.5-0.1-0.6-0.3
		h-0.1V33c0.2,0.1,0.4,0.2,0.7,0.2c0.5,0,0.8-0.2,0.8-0.5C434.7,32.1,433.5,32.3,433.5,31.9"/>
	<polygon points="307.4,38.2 307.4,35.5 309.4,35.5 309.4,35.8 307.8,35.8 307.8,36.7 309.3,36.7 309.3,37 307.8,37 307.8,37.9 
		309.5,37.9 309.5,38.2 	"/>
	<path d="M311.2,38.2v-0.3c-0.2,0.2-0.4,0.3-0.6,0.3c-0.1,0-0.2,0-0.3-0.1c-0.1,0-0.2-0.1-0.2-0.2c0-0.1-0.1-0.2-0.1-0.2
		c0-0.1,0-0.2,0-0.3v-1.2h0.3v1.1c0,0.2,0,0.3,0,0.4c0,0.1,0.1,0.2,0.1,0.2c0.1,0.1,0.2,0.1,0.3,0.1c0.1,0,0.2,0,0.3-0.1
		c0.1-0.1,0.2-0.1,0.2-0.2c0-0.1,0.1-0.2,0.1-0.4v-1.1h0.3v2H311.2z"/>
	<path d="M312.1,38.2v-2h0.3v0.3c0.1-0.1,0.1-0.2,0.2-0.3c0.1,0,0.1-0.1,0.2-0.1s0.2,0,0.3,0.1l-0.1,0.3c-0.1,0-0.2-0.1-0.2-0.1
		c-0.1,0-0.1,0-0.2,0.1c-0.1,0-0.1,0.1-0.1,0.2c0,0.1-0.1,0.2-0.1,0.4v1L312.1,38.2L312.1,38.2z"/>
	<path d="M313.2,37.3c0-0.4,0.1-0.6,0.3-0.8c0.2-0.1,0.4-0.2,0.6-0.2c0.3,0,0.5,0.1,0.7,0.3s0.3,0.4,0.3,0.7s0,0.5-0.1,0.6
		s-0.2,0.3-0.3,0.3c-0.1,0.1-0.3,0.1-0.5,0.1c-0.3,0-0.5-0.1-0.7-0.3C313.3,37.8,313.2,37.6,313.2,37.3 M313.5,37.3
		c0,0.3,0.1,0.4,0.2,0.6c0.1,0.1,0.2,0.2,0.4,0.2c0.2,0,0.3-0.1,0.4-0.2c0.1-0.1,0.2-0.3,0.2-0.6c0-0.2-0.1-0.4-0.2-0.6
		c-0.1-0.1-0.2-0.2-0.4-0.2c-0.2,0-0.3,0.1-0.4,0.2C313.6,36.8,313.5,37,313.5,37.3"/>
	<path d="M315.4,39v-2.7h0.3v0.3c0.1-0.1,0.2-0.2,0.2-0.2c0.1-0.1,0.2-0.1,0.3-0.1c0.2,0,0.3,0,0.4,0.1s0.2,0.2,0.3,0.4
		c0.1,0.2,0.1,0.3,0.1,0.5s0,0.4-0.1,0.5c-0.1,0.2-0.2,0.3-0.3,0.4c-0.1,0.1-0.3,0.1-0.4,0.1s-0.2,0-0.3-0.1c-0.1,0-0.2-0.1-0.2-0.2
		v1H315.4z M315.7,37.3c0,0.3,0.1,0.4,0.2,0.6c0.1,0.1,0.2,0.2,0.4,0.2c0.1,0,0.3-0.1,0.4-0.2c0.1-0.1,0.2-0.3,0.2-0.6
		s-0.1-0.4-0.2-0.6c-0.1-0.1-0.2-0.2-0.4-0.2c-0.1,0-0.3,0.1-0.4,0.2C315.8,36.8,315.7,37,315.7,37.3"/>
	<path d="M318.9,37.6h0.3c-0.1,0.2-0.2,0.4-0.3,0.5c-0.1,0.1-0.3,0.2-0.6,0.2c-0.3,0-0.5-0.1-0.7-0.3s-0.3-0.4-0.3-0.7
		s0.1-0.6,0.3-0.8c0.2-0.2,0.4-0.3,0.7-0.3c0.3,0,0.5,0.1,0.6,0.3c0.2,0.2,0.3,0.4,0.3,0.8c0,0,0,0,0,0.1h-1.5
		c0,0.2,0.1,0.4,0.2,0.5s0.2,0.2,0.4,0.2c0.1,0,0.2,0,0.3-0.1C318.8,37.8,318.9,37.7,318.9,37.6 M317.8,37.1h1.1
		c0-0.2-0.1-0.3-0.1-0.4c-0.1-0.1-0.2-0.2-0.4-0.2c-0.2,0-0.3,0.1-0.4,0.2S317.8,36.9,317.8,37.1"/>
	<path d="M321,38c-0.1,0.1-0.2,0.2-0.4,0.2c-0.1,0-0.2,0.1-0.4,0.1c-0.2,0-0.4-0.1-0.5-0.2c-0.1-0.1-0.2-0.2-0.2-0.4
		c0-0.1,0-0.2,0.1-0.3c0-0.1,0.1-0.1,0.2-0.2c0.1,0,0.2-0.1,0.2-0.1c0.1,0,0.2,0,0.3-0.1c0.3,0,0.5-0.1,0.6-0.1v-0.1
		c0-0.1,0-0.2-0.1-0.3s-0.2-0.1-0.4-0.1c-0.2,0-0.3,0-0.3,0.1c-0.1,0.1-0.1,0.2-0.2,0.3h-0.3c0-0.1,0.1-0.3,0.1-0.3
		c0.1-0.1,0.2-0.2,0.3-0.2c0.1,0,0.3-0.1,0.4-0.1c0.2,0,0.3,0,0.4,0.1c0.1,0,0.2,0.1,0.2,0.1c0,0.1,0.1,0.1,0.1,0.2
		c0,0.1,0,0.2,0,0.3v0.4c0,0.3,0,0.5,0,0.6s0,0.2,0.1,0.2H321C321,38.2,321,38.1,321,38 M320.9,37.2c-0.1,0-0.3,0.1-0.5,0.1
		c-0.1,0-0.2,0-0.3,0.1c-0.1,0-0.1,0.1-0.1,0.1s0,0.1,0,0.2c0,0.1,0,0.2,0.1,0.2c0.1,0.1,0.2,0.1,0.3,0.1c0.1,0,0.2,0,0.3-0.1
		c0.1-0.1,0.2-0.1,0.2-0.2c0-0.1,0.1-0.2,0.1-0.3v-0.2H320.9z"/>
	<path d="M321.8,38.2v-2h0.3v0.3c0.1-0.2,0.4-0.3,0.6-0.3c0.1,0,0.2,0,0.3,0.1c0.1,0,0.2,0.1,0.2,0.2c0,0.1,0.1,0.2,0.1,0.2
		c0,0.1,0,0.2,0,0.3v1.2H323V37c0-0.1,0-0.2,0-0.3s-0.1-0.1-0.1-0.2c-0.1,0-0.1-0.1-0.2-0.1s-0.3,0-0.4,0.1s-0.2,0.3-0.2,0.5v1.1
		h-0.3V38.2z"/>
	<path d="M326.8,35.5h0.4v1.6c0,0.3,0,0.5-0.1,0.7s-0.2,0.3-0.3,0.4c-0.2,0.1-0.4,0.2-0.6,0.2c-0.3,0-0.5,0-0.6-0.1
		c-0.2-0.1-0.3-0.2-0.3-0.4c-0.1-0.2-0.1-0.4-0.1-0.7v-1.6h0.4v1.6c0,0.2,0,0.4,0.1,0.5c0,0.1,0.1,0.2,0.2,0.3s0.2,0.1,0.4,0.1
		c0.3,0,0.5-0.1,0.6-0.2c0.1-0.1,0.2-0.4,0.2-0.7v-1.7H326.8z"/>
	<path d="M327.7,38.2v-2h0.3v0.3c0.1-0.2,0.4-0.3,0.6-0.3c0.1,0,0.2,0,0.3,0.1c0.1,0,0.2,0.1,0.2,0.2c0,0.1,0.1,0.2,0.1,0.2
		c0,0.1,0,0.2,0,0.3v1.2H329V37c0-0.1,0-0.2,0-0.3s-0.1-0.1-0.1-0.2c-0.1,0-0.1-0.1-0.2-0.1s-0.3,0-0.4,0.1s-0.2,0.3-0.2,0.5v1.1
		h-0.4V38.2z"/>
	<path d="M329.8,35.5h0.3v0.4h-0.3V35.5z M329.8,36.3h0.3v2h-0.3V36.3z"/>
	<path d="M330.6,37.3c0-0.4,0.1-0.6,0.3-0.8c0.2-0.1,0.4-0.2,0.6-0.2c0.3,0,0.5,0.1,0.7,0.3s0.3,0.4,0.3,0.7s0,0.5-0.1,0.6
		s-0.2,0.3-0.3,0.3c-0.1,0.1-0.3,0.1-0.5,0.1c-0.3,0-0.5-0.1-0.7-0.3C330.6,37.8,330.6,37.6,330.6,37.3 M330.9,37.3
		c0,0.3,0.1,0.4,0.2,0.6c0.1,0.1,0.2,0.2,0.4,0.2c0.2,0,0.3-0.1,0.4-0.2c0.1-0.1,0.2-0.3,0.2-0.6c0-0.2-0.1-0.4-0.2-0.6
		c-0.1-0.1-0.2-0.2-0.4-0.2c-0.2,0-0.3,0.1-0.4,0.2C330.9,36.8,330.9,37,330.9,37.3"/>
	<path d="M332.8,38.2v-2h0.3v0.3c0.1-0.2,0.4-0.3,0.6-0.3c0.1,0,0.2,0,0.3,0.1c0.1,0,0.2,0.1,0.2,0.2c0,0.1,0.1,0.2,0.1,0.2
		c0,0.1,0,0.2,0,0.3v1.2H334V37c0-0.1,0-0.2,0-0.3s-0.1-0.1-0.1-0.2c-0.1,0-0.1-0.1-0.2-0.1s-0.3,0-0.4,0.1s-0.2,0.3-0.2,0.5v1.1
		h-0.3V38.2z"/>
	<polygon points="304.9,42.1 304.9,39.4 306.9,39.4 306.9,39.7 305.3,39.7 305.3,40.6 306.8,40.6 306.8,40.9 305.3,40.9 305.3,41.8 
		307,41.8 307,42.1 	"/>
	<path d="M308.7,42.1v-0.3c-0.2,0.2-0.4,0.3-0.6,0.3c-0.1,0-0.2,0-0.3-0.1c-0.1,0-0.2-0.1-0.2-0.2c0-0.1-0.1-0.1-0.1-0.2
		c0-0.1,0-0.2,0-0.3v-1.2h0.3v1.1c0,0.2,0,0.3,0,0.4c0,0.1,0.1,0.2,0.1,0.2c0.1,0,0.2,0.1,0.3,0.1c0.1,0,0.2,0,0.3-0.1
		c0.1-0.1,0.1-0.1,0.2-0.2s0.1-0.2,0.1-0.4v-1.1h0.3v2H308.7z"/>
	<path d="M309.5,42.1v-2h0.3v0.3c0.1-0.1,0.1-0.2,0.2-0.3c0.1,0,0.1-0.1,0.2-0.1s0.2,0,0.3,0.1l-0.1,0.3c-0.1,0-0.2-0.1-0.2-0.1
		c-0.1,0-0.1,0-0.2,0.1c-0.1,0-0.1,0.1-0.1,0.2c0,0.1-0.1,0.2-0.1,0.4v1L309.5,42.1L309.5,42.1z"/>
	<path d="M310.7,41.1c0-0.4,0.1-0.6,0.3-0.8c0.2-0.1,0.4-0.2,0.6-0.2c0.3,0,0.5,0.1,0.7,0.3s0.3,0.4,0.3,0.7s0,0.5-0.1,0.6
		s-0.2,0.3-0.3,0.3c-0.1,0.1-0.3,0.1-0.5,0.1c-0.3,0-0.5-0.1-0.7-0.3C310.8,41.7,310.7,41.5,310.7,41.1 M311,41.1
		c0,0.3,0.1,0.4,0.2,0.6c0.1,0.1,0.2,0.2,0.4,0.2c0.2,0,0.3-0.1,0.4-0.2c0.1-0.1,0.2-0.3,0.2-0.6c0-0.2-0.1-0.4-0.2-0.6
		c-0.1-0.1-0.2-0.2-0.4-0.2c-0.2,0-0.3,0.1-0.4,0.2C311.1,40.7,311,40.9,311,41.1"/>
	<path d="M312.9,42.9v-2.7h0.3v0.3c0.1-0.1,0.2-0.2,0.2-0.2c0.1-0.1,0.2-0.1,0.3-0.1c0.2,0,0.3,0,0.4,0.1s0.2,0.2,0.3,0.4
		c0.1,0.2,0.1,0.3,0.1,0.5s0,0.4-0.1,0.5c-0.1,0.2-0.2,0.3-0.3,0.4c-0.1,0.1-0.3,0.1-0.4,0.1s-0.2,0-0.3-0.1c-0.1,0-0.2-0.1-0.2-0.2
		v1H312.9z M313.2,41.2c0,0.3,0.1,0.4,0.2,0.6c0.1,0.1,0.2,0.2,0.4,0.2c0.1,0,0.3-0.1,0.4-0.2c0.1-0.1,0.2-0.3,0.2-0.6
		s-0.1-0.4-0.2-0.6c-0.1-0.1-0.2-0.2-0.4-0.2c-0.1,0-0.3,0.1-0.4,0.2C313.3,40.7,313.2,40.9,313.2,41.2"/>
	<path d="M316.4,41.5h0.3c-0.1,0.2-0.2,0.4-0.3,0.5c-0.1,0.1-0.3,0.2-0.6,0.2c-0.3,0-0.5-0.1-0.7-0.3s-0.3-0.4-0.3-0.7
		s0.1-0.6,0.3-0.8c0.2-0.2,0.4-0.3,0.7-0.3c0.3,0,0.5,0.1,0.6,0.3c0.2,0.2,0.3,0.4,0.3,0.8c0,0,0,0,0,0.1h-1.5
		c0,0.2,0.1,0.4,0.2,0.5s0.2,0.2,0.4,0.2c0.1,0,0.2,0,0.3-0.1C316.2,41.7,316.3,41.6,316.4,41.5 M315.3,41h1.1
		c0-0.2-0.1-0.3-0.1-0.4c-0.1-0.1-0.2-0.2-0.4-0.2c-0.2,0-0.3,0.1-0.4,0.2C315.3,40.6,315.3,40.8,315.3,41"/>
	<path d="M318.4,41.9c-0.1,0.1-0.2,0.2-0.4,0.2c-0.1,0-0.2,0.1-0.4,0.1c-0.2,0-0.4-0.1-0.5-0.2c-0.1-0.1-0.2-0.2-0.2-0.4
		c0-0.1,0-0.2,0.1-0.3c0-0.1,0.1-0.1,0.2-0.2c0.1,0,0.2-0.1,0.2-0.1c0.1,0,0.2,0,0.3-0.1c0.3,0,0.5-0.1,0.6-0.1v-0.1
		c0-0.1,0-0.2-0.1-0.3s-0.2-0.1-0.4-0.1c-0.2,0-0.3,0-0.3,0.1c-0.1,0.1-0.1,0.2-0.2,0.3H317c0-0.1,0.1-0.3,0.1-0.3
		c0.1-0.1,0.2-0.2,0.3-0.2c0.1,0,0.3-0.1,0.4-0.1c0.2,0,0.3,0,0.4,0.1c0.1,0,0.2,0.1,0.2,0.1c0,0.1,0.1,0.1,0.1,0.2
		c0,0.1,0,0.2,0,0.3v0.4c0,0.3,0,0.5,0,0.6s0,0.2,0.1,0.2h-0.3C318.4,42.1,318.4,42,318.4,41.9 M318.4,41.1c-0.1,0-0.3,0.1-0.5,0.1
		c-0.1,0-0.2,0-0.3,0.1c-0.1,0-0.1,0.1-0.1,0.1s0,0.1,0,0.2c0,0.1,0,0.2,0.1,0.2c0.1,0.1,0.2,0.1,0.3,0.1c0.1,0,0.2,0,0.3-0.1
		c0.1-0.1,0.2-0.1,0.2-0.2c0-0.1,0.1-0.2,0.1-0.3v-0.2H318.4z"/>
	<path d="M319.2,42.1v-2h0.3v0.3c0.1-0.2,0.4-0.3,0.6-0.3c0.1,0,0.2,0,0.3,0.1c0.1,0,0.2,0.1,0.2,0.2c0,0.1,0.1,0.2,0.1,0.2
		c0,0.1,0,0.2,0,0.3v1.2h-0.3v-1.2c0-0.1,0-0.2,0-0.3s-0.1-0.1-0.1-0.2c-0.1,0-0.1-0.1-0.2-0.1s-0.3,0-0.4,0.1s-0.2,0.3-0.2,0.5V42
		h-0.3V42.1z"/>
	<path d="M322.4,42.1v-2.7h1.2c0.2,0,0.4,0,0.6,0.1c0.1,0,0.2,0.1,0.3,0.3c0.1,0.1,0.1,0.3,0.1,0.4c0,0.2-0.1,0.4-0.2,0.5
		s-0.3,0.2-0.6,0.3c0.1,0,0.2,0.1,0.2,0.1c0.1,0.1,0.2,0.2,0.3,0.4l0.5,0.7h-0.5l-0.4-0.6c-0.1-0.2-0.2-0.3-0.3-0.4
		c-0.1-0.1-0.1-0.1-0.2-0.2c-0.1,0-0.1-0.1-0.2-0.1c0,0-0.1,0-0.2,0h-0.4v1.2H322.4z M322.8,40.6h0.8c0.2,0,0.3,0,0.4-0.1
		c0.1,0,0.2-0.1,0.2-0.2c0-0.1,0.1-0.2,0.1-0.2c0-0.1,0-0.2-0.1-0.3s-0.2-0.1-0.4-0.1h-0.9v0.9H322.8z"/>
	<path d="M326.5,41.5h0.3c-0.1,0.2-0.2,0.4-0.3,0.5c-0.1,0.1-0.3,0.2-0.6,0.2c-0.3,0-0.5-0.1-0.7-0.3s-0.3-0.4-0.3-0.7
		s0.1-0.6,0.3-0.8c0.2-0.2,0.4-0.3,0.7-0.3c0.3,0,0.5,0.1,0.6,0.3c0.2,0.2,0.3,0.4,0.3,0.8c0,0,0,0,0,0.1h-1.5
		c0,0.2,0.1,0.4,0.2,0.5s0.2,0.2,0.4,0.2c0.1,0,0.2,0,0.3-0.1C326.4,41.7,326.4,41.6,326.5,41.5 M325.4,40.9h1.1
		c0-0.2-0.1-0.3-0.1-0.4c-0.1-0.1-0.2-0.2-0.4-0.2c-0.2,0-0.3,0.1-0.4,0.2C325.5,40.6,325.4,40.8,325.4,40.9"/>
	<path d="M327.2,42.3h0.3c0,0.1,0.1,0.2,0.1,0.2c0.1,0.1,0.2,0.1,0.3,0.1c0.2,0,0.3,0,0.4-0.1s0.1-0.1,0.2-0.3c0-0.1,0-0.2,0-0.4
		c-0.1,0.2-0.3,0.3-0.5,0.3c-0.3,0-0.5-0.1-0.6-0.3s-0.2-0.4-0.2-0.7c0-0.2,0-0.4,0.1-0.5c0.1-0.2,0.2-0.3,0.3-0.4
		c0.1-0.1,0.3-0.1,0.5-0.1s0.4,0.1,0.6,0.3v-0.2h0.3v1.7c0,0.3,0,0.5-0.1,0.7c-0.1,0.1-0.2,0.2-0.3,0.3c-0.1,0.1-0.3,0.1-0.5,0.1
		s-0.4-0.1-0.6-0.2C327.3,42.7,327.2,42.5,327.2,42.3 M327.5,41.1c0,0.3,0.1,0.4,0.2,0.6c0.1,0.1,0.2,0.2,0.4,0.2
		c0.2,0,0.3-0.1,0.4-0.2c0.1-0.1,0.2-0.3,0.2-0.6c0-0.2-0.1-0.4-0.2-0.5s-0.2-0.2-0.4-0.2c-0.1,0-0.3,0.1-0.4,0.2
		C327.5,40.7,327.5,40.9,327.5,41.1"/>
	<path d="M329.4,39.4h0.3v0.4h-0.3V39.4z M329.4,40.2h0.3v2h-0.3V40.2z"/>
	<path d="M330.1,41.1c0-0.4,0.1-0.6,0.3-0.8c0.2-0.1,0.4-0.2,0.6-0.2c0.3,0,0.5,0.1,0.7,0.3s0.3,0.4,0.3,0.7s0,0.5-0.1,0.6
		s-0.2,0.3-0.3,0.3c-0.1,0.1-0.3,0.1-0.5,0.1c-0.3,0-0.5-0.1-0.7-0.3C330.2,41.7,330.1,41.5,330.1,41.1 M330.4,41.1
		c0,0.3,0.1,0.4,0.2,0.6c0.1,0.1,0.2,0.2,0.4,0.2c0.2,0,0.3-0.1,0.4-0.2c0.1-0.1,0.2-0.3,0.2-0.6c0-0.2-0.1-0.4-0.2-0.6
		c-0.1-0.1-0.2-0.2-0.4-0.2c-0.2,0-0.3,0.1-0.4,0.2C330.5,40.7,330.4,40.9,330.4,41.1"/>
	<path d="M332.3,42.1v-2h0.3v0.3c0.1-0.2,0.4-0.3,0.6-0.3c0.1,0,0.2,0,0.3,0.1c0.1,0,0.2,0.1,0.2,0.2c0,0.1,0.1,0.2,0.1,0.2
		c0,0.1,0,0.2,0,0.3v1.2h-0.3v-1.2c0-0.1,0-0.2,0-0.3s-0.1-0.1-0.1-0.2c-0.1,0-0.1-0.1-0.2-0.1s-0.3,0-0.4,0.1s-0.2,0.3-0.2,0.5V42
		h-0.3V42.1z"/>
	<path d="M335.7,41.9c-0.1,0.1-0.2,0.2-0.4,0.2c-0.1,0-0.2,0.1-0.4,0.1c-0.2,0-0.4-0.1-0.5-0.2c-0.1-0.1-0.2-0.2-0.2-0.4
		c0-0.1,0-0.2,0.1-0.3c0-0.1,0.1-0.1,0.2-0.2c0.1,0,0.2-0.1,0.2-0.1c0.1,0,0.2,0,0.3-0.1c0.3,0,0.5-0.1,0.6-0.1v-0.1
		c0-0.1,0-0.2-0.1-0.3s-0.2-0.1-0.4-0.1c-0.2,0-0.3,0-0.3,0.1c-0.1,0.1-0.1,0.2-0.2,0.3h-0.3c0-0.1,0.1-0.3,0.1-0.3
		c0.1-0.1,0.2-0.2,0.3-0.2c0.1,0,0.3-0.1,0.4-0.1c0.2,0,0.3,0,0.4,0.1c0.1,0,0.2,0.1,0.2,0.1c0,0.1,0.1,0.1,0.1,0.2
		c0,0.1,0,0.2,0,0.3v0.4c0,0.3,0,0.5,0,0.6s0,0.2,0.1,0.2h-0.3C335.8,42.1,335.7,42,335.7,41.9 M335.7,41.1c-0.1,0-0.3,0.1-0.5,0.1
		c-0.1,0-0.2,0-0.3,0.1c-0.1,0-0.1,0.1-0.1,0.1s0,0.1,0,0.2c0,0.1,0,0.2,0.1,0.2c0.1,0.1,0.2,0.1,0.3,0.1c0.1,0,0.2,0,0.3-0.1
		c0.1-0.1,0.2-0.1,0.2-0.2c0-0.1,0.1-0.2,0.1-0.3v-0.2H335.7z"/>
	<rect x="336.6" y="39.4" width="0.3" height="2.7"/>
	<path d="M305.1,46v-2.7h0.9c0.2,0,0.4,0,0.5,0c0.2,0,0.3,0.1,0.4,0.2c0.1,0.1,0.3,0.3,0.3,0.5c0.1,0.2,0.1,0.4,0.1,0.6
		c0,0.2,0,0.4-0.1,0.6c0,0.2-0.1,0.3-0.2,0.4c-0.1,0.1-0.2,0.2-0.2,0.2c-0.1,0.1-0.2,0.1-0.3,0.1c-0.1,0-0.3,0-0.4,0h-1V46z
		 M305.5,45.7h0.6c0.2,0,0.3,0,0.4-0.1c0.1,0,0.2-0.1,0.2-0.1c0.1-0.1,0.2-0.2,0.2-0.3s0.1-0.3,0.1-0.5c0-0.3,0-0.5-0.1-0.7
		s-0.2-0.3-0.3-0.3c-0.1,0-0.3-0.1-0.5-0.1h-0.6L305.5,45.7L305.5,45.7z"/>
	<path d="M309.2,45.4h0.3c-0.1,0.2-0.2,0.4-0.3,0.5c-0.1,0.1-0.3,0.2-0.6,0.2c-0.3,0-0.5-0.1-0.7-0.3s-0.3-0.4-0.3-0.7
		s0.1-0.6,0.3-0.8c0.2-0.2,0.4-0.3,0.7-0.3c0.3,0,0.5,0.1,0.6,0.3c0.2,0.2,0.3,0.4,0.3,0.8c0,0,0,0,0,0.1H308c0,0.2,0.1,0.4,0.2,0.5
		s0.2,0.2,0.4,0.2c0.1,0,0.2,0,0.3-0.1C309.1,45.6,309.1,45.5,309.2,45.4 M308.1,44.8h1.1c0-0.2-0.1-0.3-0.1-0.4
		c-0.1-0.1-0.2-0.2-0.4-0.2c-0.2,0-0.3,0.1-0.4,0.2C308.1,44.5,308.1,44.7,308.1,44.8"/>
	<path d="M310.5,46l-0.8-2h0.4l0.4,1.2c0,0.1,0.1,0.3,0.1,0.4c0-0.1,0.1-0.2,0.1-0.4l0.4-1.2h0.3l-0.7,2H310.5z"/>
	<path d="M313.2,45.4h0.3c-0.1,0.2-0.2,0.4-0.3,0.5c-0.1,0.1-0.3,0.2-0.6,0.2c-0.3,0-0.5-0.1-0.7-0.3s-0.3-0.4-0.3-0.7
		s0.1-0.6,0.3-0.8c0.2-0.2,0.4-0.3,0.7-0.3c0.3,0,0.5,0.1,0.6,0.3c0.2,0.2,0.3,0.4,0.3,0.8c0,0,0,0,0,0.1H312c0,0.2,0.1,0.4,0.2,0.5
		s0.2,0.2,0.4,0.2c0.1,0,0.2,0,0.3-0.1C313.1,45.6,313.1,45.5,313.2,45.4 M312.1,44.8h1.1c0-0.2-0.1-0.3-0.1-0.4
		c-0.1-0.1-0.2-0.2-0.4-0.2c-0.2,0-0.3,0.1-0.4,0.2S312.1,44.7,312.1,44.8"/>
	<rect x="314" y="43.3" width="0.3" height="2.7"/>
	<path d="M314.7,45c0-0.4,0.1-0.6,0.3-0.8c0.2-0.1,0.4-0.2,0.6-0.2c0.3,0,0.5,0.1,0.7,0.3s0.3,0.4,0.3,0.7s0,0.5-0.1,0.6
		s-0.2,0.3-0.3,0.3c-0.1,0.1-0.3,0.1-0.5,0.1c-0.3,0-0.5-0.1-0.7-0.3C314.8,45.6,314.7,45.4,314.7,45 M315,45c0,0.3,0.1,0.4,0.2,0.6
		c0.1,0.1,0.2,0.2,0.4,0.2c0.2,0,0.3-0.1,0.4-0.2c0.1-0.1,0.2-0.3,0.2-0.6c0-0.2-0.1-0.4-0.2-0.6c-0.1-0.1-0.2-0.2-0.4-0.2
		c-0.2,0-0.3,0.1-0.4,0.2S315,44.8,315,45"/>
	<path d="M316.9,46.8V44h0.3v0.3c0.1-0.1,0.2-0.2,0.2-0.2c0.1-0.1,0.2-0.1,0.3-0.1c0.2,0,0.3,0,0.4,0.1s0.2,0.2,0.3,0.4
		c0.1,0.2,0.1,0.3,0.1,0.5s0,0.4-0.1,0.5c-0.1,0.2-0.2,0.3-0.3,0.4c-0.1,0.1-0.3,0.1-0.4,0.1s-0.2,0-0.3-0.1c-0.1,0-0.2-0.1-0.2-0.2
		v1L316.9,46.8L316.9,46.8z M317.2,45c0,0.3,0.1,0.4,0.2,0.6c0.1,0.1,0.2,0.2,0.4,0.2c0.1,0,0.3-0.1,0.4-0.2
		c0.1-0.1,0.2-0.3,0.2-0.6s-0.1-0.4-0.2-0.6c-0.1-0.1-0.2-0.2-0.4-0.2c-0.1,0-0.3,0.1-0.4,0.2C317.3,44.6,317.2,44.8,317.2,45"/>
	<path d="M319,46v-2h0.3v0.3c0.1-0.1,0.1-0.2,0.2-0.2c0.1-0.1,0.2-0.1,0.4-0.1c0.1,0,0.3,0,0.4,0.1s0.2,0.1,0.2,0.3
		c0.2-0.2,0.4-0.3,0.6-0.3s0.3,0.1,0.5,0.2c0.1,0.1,0.2,0.3,0.2,0.5V46h-0.3v-1.2c0-0.1,0-0.2,0-0.3s-0.1-0.1-0.1-0.1
		c-0.1,0-0.1-0.1-0.2-0.1s-0.3,0-0.3,0.1c-0.1,0.1-0.1,0.2-0.1,0.4V46h-0.3v-1.3c0-0.1,0-0.3-0.1-0.3c-0.1-0.1-0.1-0.1-0.3-0.1
		c-0.1,0-0.2,0-0.3,0.1c-0.1,0.1-0.1,0.1-0.2,0.2c0,0.1-0.1,0.2-0.1,0.4v1C319.5,46,319,46,319,46z"/>
	<path d="M323.6,45.4h0.3c-0.1,0.2-0.2,0.4-0.3,0.5c-0.1,0.1-0.3,0.2-0.6,0.2c-0.3,0-0.5-0.1-0.7-0.3s-0.3-0.4-0.3-0.7
		s0.1-0.6,0.3-0.8c0.2-0.2,0.4-0.3,0.7-0.3c0.3,0,0.5,0.1,0.6,0.3c0.2,0.2,0.3,0.4,0.3,0.8c0,0,0,0,0,0.1h-1.5
		c0,0.2,0.1,0.4,0.2,0.5s0.2,0.2,0.4,0.2c0.1,0,0.2,0,0.3-0.1C323.4,45.6,323.5,45.5,323.6,45.4 M322.5,44.8h1.1
		c0-0.2-0.1-0.3-0.1-0.4c-0.1-0.1-0.2-0.2-0.4-0.2c-0.2,0-0.3,0.1-0.4,0.2C322.5,44.5,322.5,44.7,322.5,44.8"/>
	<path d="M324.3,46v-2h0.3v0.3c0.1-0.2,0.4-0.3,0.6-0.3c0.1,0,0.2,0,0.3,0.1c0.1,0,0.2,0.1,0.2,0.2c0,0.1,0.1,0.2,0.1,0.2
		c0,0.1,0,0.2,0,0.3V46h-0.3v-1.2c0-0.1,0-0.2,0-0.3s-0.1-0.1-0.1-0.2c-0.1,0-0.1-0.1-0.2-0.1s-0.3,0-0.4,0.1s-0.2,0.3-0.2,0.5V46
		H324.3z"/>
	<path d="M327.2,45.7V46c-0.1,0-0.2,0-0.3,0c-0.1,0-0.2,0-0.3-0.1c-0.1,0-0.1-0.1-0.1-0.2c0-0.1,0-0.2,0-0.4v-1.1h-0.2V44h0.2v-0.5
		l0.3-0.2V44h0.3v0.3h-0.3v1.2c0,0.1,0,0.2,0,0.2s0,0,0.1,0.1h0.1C327.1,45.7,327.1,45.7,327.2,45.7"/>
	<polygon points="328.6,46 328.6,43.3 330.5,43.3 330.5,43.6 329,43.6 329,44.5 330.3,44.5 330.3,44.8 329,44.8 329,46 	"/>
	<path d="M332.2,46v-0.3c-0.2,0.2-0.4,0.3-0.6,0.3c-0.1,0-0.2,0-0.3-0.1c-0.1,0-0.2-0.1-0.2-0.2c0-0.1-0.1-0.2-0.1-0.2
		c0-0.1,0-0.2,0-0.3V44h0.3v1.1c0,0.2,0,0.3,0,0.4c0,0.1,0.1,0.2,0.1,0.2c0.1,0.1,0.2,0.1,0.3,0.1c0.1,0,0.2,0,0.3-0.1
		c0.1-0.1,0.2-0.1,0.2-0.2c0-0.1,0.1-0.2,0.1-0.4V44h0.3v2H332.2z"/>
	<path d="M333,46v-2h0.3v0.3c0.1-0.2,0.4-0.3,0.6-0.3c0.1,0,0.2,0,0.3,0.1c0.1,0,0.2,0.1,0.2,0.2c0,0.1,0.1,0.2,0.1,0.2
		c0,0.1,0,0.2,0,0.3V46h-0.3v-1.2c0-0.1,0-0.2,0-0.3s-0.1-0.1-0.1-0.2c-0.1,0-0.1-0.1-0.2-0.1s-0.3,0-0.4,0.1s-0.2,0.3-0.2,0.5V46
		H333z"/>
	<path d="M336.4,46v-0.2c-0.1,0.2-0.3,0.3-0.6,0.3c-0.2,0-0.3,0-0.4-0.1s-0.2-0.2-0.3-0.4c-0.1-0.2-0.1-0.3-0.1-0.5s0-0.4,0.1-0.5
		c0.1-0.2,0.2-0.3,0.3-0.4c0.1-0.1,0.3-0.1,0.4-0.1s0.2,0,0.3,0.1c0.1,0,0.2,0.1,0.2,0.2v-1h0.3V46H336.4z M335.3,45
		c0,0.3,0.1,0.4,0.2,0.6c0.1,0.1,0.2,0.2,0.4,0.2c0.1,0,0.3-0.1,0.4-0.2c0.1-0.1,0.2-0.3,0.2-0.5c0-0.3-0.1-0.5-0.2-0.6
		s-0.2-0.2-0.4-0.2c-0.1,0-0.3,0.1-0.4,0.2C335.4,44.6,335.3,44.8,335.3,45"/>
	<rect x="302.1" y="8" class="st3" width="37.5" height="25.1"/>
	<polygon class="st4" points="321.1,11.7 322.2,11.7 321.3,12.3 321.7,13.3 320.8,12.7 319.9,13.3 320.3,12.3 319.4,11.7 
		320.5,11.7 320.8,10.6 	"/>
	<polygon class="st4" points="321.2,28.4 322.2,28.4 321.4,29 321.7,30.1 320.8,29.4 320,30.1 320.3,29 319.4,28.4 320.5,28.4 
		320.8,27.4 	"/>
	<polygon class="st4" points="325.3,27.3 326.4,27.3 325.5,27.9 325.8,29 325,28.3 324.1,29 324.4,27.9 323.6,27.3 324.6,27.3 
		325,26.3 	"/>
	<polygon class="st4" points="325.3,12.8 326.4,12.8 325.5,13.4 325.8,14.4 325,13.8 324.1,14.4 324.4,13.4 323.6,12.8 324.6,12.8 
		325,11.7 	"/>
	<polygon class="st4" points="328.4,15.8 329.4,15.8 328.6,16.5 328.9,17.5 328,16.9 327.2,17.5 327.5,16.5 326.6,15.8 327.7,15.8 
		328,14.8 	"/>
	<polygon class="st4" points="328.4,24.2 329.4,24.2 328.6,24.9 328.9,25.9 328,25.3 327.2,25.9 327.5,24.9 326.6,24.2 327.7,24.2 
		328,23.2 	"/>
	<polygon class="st4" points="329.5,20 330.6,20 329.7,20.6 330.1,21.7 329.2,21 328.3,21.7 328.7,20.6 327.8,20 328.9,20 329.2,19 
			"/>
	<polygon class="st4" points="316.9,12.8 318,12.8 317.1,13.4 317.4,14.5 316.6,13.8 315.7,14.5 316,13.4 315.2,12.8 316.2,12.8 
		316.6,11.8 	"/>
	<polygon class="st4" points="313.9,15.8 315,15.8 314.1,16.5 314.4,17.5 313.6,16.9 312.7,17.5 313.1,16.5 312.2,15.8 313.3,15.8 
		313.6,14.8 	"/>
	<polygon class="st4" points="312.8,20 313.9,20 313,20.6 313.3,21.7 312.5,21 311.6,21.7 311.9,20.6 311.1,20 312.1,20 312.5,19 	
		"/>
	<polygon class="st4" points="313.9,24.3 315,24.3 314.1,24.9 314.4,25.9 313.6,25.3 312.7,25.9 313.1,24.9 312.2,24.3 313.3,24.3 
		313.6,23.2 	"/>
	<polygon class="st4" points="316.9,27.3 318,27.3 317.1,27.9 317.5,29 316.6,28.3 315.7,29 316.1,27.9 315.2,27.3 316.3,27.3 
		316.6,26.3 	"/>
	<g>
		<path class="st5" d="M360.8,13c2.9,0.3,5.6,1.2,8,2.7c0,0,0.1,0,0.2,0.1c-2.9-4.2-7.7-7.2-13.3-7.7c-4.9-0.4-9.5,1-13,3.8
			c2.7,0.5,5,1.9,6.8,3.7C352.7,13.7,356.7,12.6,360.8,13"/>
		<path class="st6" d="M372,24.5L372,24.5L372,24.5L372,24.5"/>
		<path class="st7" d="M372.1,24.7c0-0.1,0-0.3,0-0.4c-0.3-3.1-1.4-6.1-3.1-8.6c-0.1-0.1-0.2-0.1-0.2-0.1c-2.3-1.5-5-2.4-8-2.7
			c-4.1-0.4-8.1,0.7-11.3,2.7c2,2.1,3.3,4.9,3.6,7.9c0.1,0.8,0.1,1.5,0,2.3c-0.1,1.2-0.4,2.4-0.8,3.5c-0.8,2-2,3.7-3.6,5.1l0,0
			c6-3.5,13.4-5,20.8-3.9c-0.7,0.6-1.7,1.2-2.5,1.6c1-0.3,4.5-1.6,4.5-1.8l0,0l0,0C371.5,30.4,372.3,27.8,372.1,24.7"/>
		<path class="st6" d="M371.7,24.3c-2.3-1.6-4.2-2.5-8.3-2.9c-3.1-0.3-6,0.2-8.7,1.3c0.1,0.7,0.1,1.5,0,2.3
			c-0.3,3.7-2.3,6.9-5.2,8.9c7.4-4.2,14.1-4.8,19.7-3.9c0.4,0.1,1.5,0.3,2.1,0.4C372.1,27.1,371.8,24.9,371.7,24.3"/>
		<rect x="353.5" y="35.5" width="0.4" height="2.7"/>
		<path d="M354.5,38.3v-2h0.3v0.3c0.1-0.2,0.4-0.3,0.6-0.3c0.1,0,0.2,0,0.3,0.1c0.1,0,0.2,0.1,0.2,0.2c0,0.1,0.1,0.2,0.1,0.2
			c0,0.1,0,0.2,0,0.3v1.2h-0.3v-1.2c0-0.1,0-0.2,0-0.3s-0.1-0.1-0.1-0.2c-0.1,0-0.1-0.1-0.2-0.1s-0.3,0-0.4,0.1s-0.2,0.3-0.2,0.5
			v1.1h-0.3V38.3z"/>
		<path d="M357.1,38.3l-0.8-2h0.4l0.4,1.2c0,0.1,0.1,0.3,0.1,0.4c0-0.1,0.1-0.2,0.1-0.4l0.4-1.2h0.3l-0.7,2H357.1z"/>
		<path d="M359.9,37.6h0.3c-0.1,0.2-0.2,0.4-0.3,0.5c-0.1,0.1-0.3,0.2-0.6,0.2c-0.3,0-0.5-0.1-0.7-0.3s-0.3-0.4-0.3-0.7
			s0.1-0.6,0.3-0.8c0.2-0.2,0.4-0.3,0.7-0.3c0.3,0,0.5,0.1,0.6,0.3c0.2,0.2,0.3,0.4,0.3,0.8c0,0,0,0,0,0.1h-1.5
			c0,0.2,0.1,0.4,0.2,0.5s0.2,0.2,0.4,0.2c0.1,0,0.2,0,0.3-0.1C359.7,37.9,359.8,37.8,359.9,37.6 M358.8,37.1h1.1
			c0-0.2-0.1-0.3-0.1-0.4c-0.1-0.1-0.2-0.2-0.4-0.2c-0.2,0-0.3,0.1-0.4,0.2C358.8,36.8,358.8,36.9,358.8,37.1"/>
		<path d="M360.5,37.7l0.3-0.1c0,0.1,0.1,0.2,0.2,0.3s0.2,0.1,0.4,0.1c0.2,0,0.3,0,0.3-0.1c0.1-0.1,0.1-0.1,0.1-0.2
			c0-0.1,0-0.1-0.1-0.2c0,0-0.2-0.1-0.3-0.1c-0.2-0.1-0.4-0.1-0.5-0.2c-0.1,0-0.2-0.1-0.2-0.2c0-0.1-0.1-0.2-0.1-0.3s0-0.2,0.1-0.2
			c0-0.1,0.1-0.1,0.2-0.2c0.1,0,0.1-0.1,0.2-0.1s0.2,0,0.3,0c0.2,0,0.3,0,0.4,0.1c0.1,0,0.2,0.1,0.3,0.2c0.1,0.1,0.1,0.2,0.1,0.3
			h-0.3c0-0.1-0.1-0.2-0.1-0.2c-0.1-0.1-0.2-0.1-0.3-0.1c-0.2,0-0.3,0-0.3,0.1c-0.1,0.1-0.1,0.1-0.1,0.2v0.1l0.1,0.1
			c0,0,0.1,0,0.3,0.1c0.2,0.1,0.4,0.1,0.5,0.2c0.1,0,0.2,0.1,0.2,0.2c0.1,0.1,0.1,0.2,0.1,0.3s0,0.2-0.1,0.3s-0.2,0.2-0.3,0.2
			c-0.1,0.1-0.3,0.1-0.4,0.1c-0.3,0-0.5-0.1-0.6-0.2C360.6,38,360.5,37.9,360.5,37.7"/>
		<path d="M363.3,38v0.3c-0.1,0-0.2,0-0.3,0c-0.1,0-0.2,0-0.3-0.1c-0.1,0-0.1-0.1-0.1-0.2c0-0.1,0-0.2,0-0.4v-1.1h-0.2v-0.3h0.2
			v-0.5l0.3-0.2v0.7h0.3v0.3h-0.3v1.2c0,0.1,0,0.2,0,0.2s0,0,0.1,0.1h0.1C363.1,38,363.2,38,363.3,38"/>
		<path d="M363.6,35.5h0.3v0.4h-0.3V35.5z M363.6,36.3h0.3v2h-0.3V36.3z"/>
		<path d="M364.4,38.3v-2h0.3v0.3c0.1-0.2,0.4-0.3,0.6-0.3c0.1,0,0.2,0,0.3,0.1c0.1,0,0.2,0.1,0.2,0.2c0,0.1,0.1,0.2,0.1,0.2
			c0,0.1,0,0.2,0,0.3v1.2h-0.3v-1.2c0-0.1,0-0.2,0-0.3s-0.1-0.1-0.1-0.2c-0.1,0-0.1-0.1-0.2-0.1s-0.3,0-0.4,0.1s-0.2,0.3-0.2,0.5
			v1.1h-0.3V38.3z"/>
		<path d="M366.5,38.4h0.3c0,0.1,0.1,0.2,0.1,0.2c0.1,0.1,0.2,0.1,0.3,0.1c0.2,0,0.3,0,0.4-0.1s0.1-0.1,0.2-0.3c0-0.1,0-0.2,0-0.4
			c-0.1,0.2-0.3,0.3-0.5,0.3c-0.3,0-0.5-0.1-0.6-0.3s-0.2-0.4-0.2-0.7c0-0.2,0-0.4,0.1-0.5c0.1-0.2,0.2-0.3,0.3-0.4
			c0.1-0.1,0.3-0.1,0.5-0.1s0.4,0.1,0.6,0.3v-0.2h0.3V38c0,0.3,0,0.5-0.1,0.7c-0.1,0.1-0.2,0.2-0.3,0.3c-0.1,0.1-0.3,0.1-0.5,0.1
			s-0.4-0.1-0.6-0.2C366.5,38.8,366.5,38.6,366.5,38.4 M366.8,37.2c0,0.3,0.1,0.4,0.2,0.6c0.1,0.1,0.2,0.2,0.4,0.2
			c0.2,0,0.3-0.1,0.4-0.2c0.1-0.1,0.2-0.3,0.2-0.6c0-0.2-0.1-0.4-0.2-0.5s-0.2-0.2-0.4-0.2c-0.1,0-0.3,0.1-0.4,0.2
			C366.8,36.8,366.8,37,366.8,37.2"/>
		<path d="M349.9,39.4h0.3v0.4h-0.3V39.4z M349.9,40.1h0.3v2h-0.3V40.1z"/>
		<path d="M350.8,42.1v-2h0.3v0.3c0.1-0.2,0.4-0.3,0.6-0.3c0.1,0,0.2,0,0.3,0.1c0.1,0,0.2,0.1,0.2,0.2c0,0.1,0.1,0.2,0.1,0.2
			c0,0.1,0,0.2,0,0.3v1.2H352v-1.2c0-0.1,0-0.2,0-0.3s-0.1-0.1-0.1-0.2c-0.1,0-0.1-0.1-0.2-0.1s-0.3,0-0.4,0.1s-0.2,0.3-0.2,0.5V42
			h-0.3V42.1z"/>
		<path d="M353.9,42.9v-0.3c0.1,0,0.1,0,0.2,0s0.1,0,0.2,0l0.1-0.1c0,0,0.1-0.1,0.1-0.2c0,0,0,0,0-0.1l-0.7-2h0.4l0.4,1.1
			c0.1,0.1,0.1,0.3,0.1,0.5c0-0.2,0.1-0.3,0.1-0.4l0.4-1.2h0.3l-0.8,2c-0.1,0.2-0.1,0.4-0.2,0.4c-0.1,0.1-0.1,0.2-0.2,0.2
			c-0.1,0.1-0.2,0.1-0.3,0.1C354.1,42.9,354,42.9,353.9,42.9"/>
		<path d="M355.7,41.1c0-0.4,0.1-0.6,0.3-0.8c0.2-0.1,0.4-0.2,0.6-0.2c0.3,0,0.5,0.1,0.7,0.3s0.3,0.4,0.3,0.7s0,0.5-0.1,0.6
			s-0.2,0.3-0.3,0.3c-0.1,0.1-0.3,0.1-0.5,0.1c-0.3,0-0.5-0.1-0.7-0.3C355.8,41.7,355.7,41.5,355.7,41.1 M356.1,41.1
			c0,0.3,0.1,0.4,0.2,0.6c0.1,0.1,0.2,0.2,0.4,0.2c0.2,0,0.3-0.1,0.4-0.2c0.1-0.1,0.2-0.3,0.2-0.6c0-0.2-0.1-0.4-0.2-0.6
			c-0.1-0.1-0.2-0.2-0.4-0.2c-0.2,0-0.3,0.1-0.4,0.2C356.1,40.7,356.1,40.9,356.1,41.1"/>
		<path d="M359.3,42.1v-0.3c-0.2,0.2-0.4,0.3-0.6,0.3c-0.1,0-0.2,0-0.3-0.1c-0.1,0-0.2-0.1-0.2-0.2c0-0.1-0.1-0.2-0.1-0.2
			c0-0.1,0-0.2,0-0.3v-1.2h0.3v1.1c0,0.2,0,0.3,0,0.4c0,0.1,0.1,0.2,0.1,0.2c0.1,0.1,0.2,0.1,0.3,0.1c0.1,0,0.2,0,0.3-0.1
			c0.1-0.1,0.2-0.1,0.2-0.2c0-0.1,0.1-0.2,0.1-0.4v-1.1h0.3v2H359.3z"/>
		<path d="M360.1,42.1v-2h0.3v0.3c0.1-0.1,0.1-0.2,0.2-0.3c0.1,0,0.1-0.1,0.2-0.1s0.2,0,0.3,0.1l-0.1,0.3c-0.1,0-0.2-0.1-0.2-0.1
			c-0.1,0-0.1,0-0.2,0.1c-0.1,0-0.1,0.1-0.1,0.2c0,0.1-0.1,0.2-0.1,0.4v1L360.1,42.1L360.1,42.1z"/>
		<path d="M362.5,42.1v-1.7h-0.3v-0.3h0.3v-0.2c0-0.1,0-0.2,0-0.3s0.1-0.2,0.2-0.2c0.1-0.1,0.2-0.1,0.3-0.1c0.1,0,0.2,0,0.3,0
			l-0.1,0.3c-0.1,0-0.1,0-0.2,0s-0.2,0-0.2,0.1c0,0-0.1,0.1-0.1,0.2v0.2h0.4v0.3h-0.4v1.7H362.5z"/>
		<path d="M364.8,42.1v-0.3c-0.2,0.2-0.4,0.3-0.6,0.3c-0.1,0-0.2,0-0.3-0.1c-0.1,0-0.2-0.1-0.2-0.2c0-0.1-0.1-0.2-0.1-0.2
			c0-0.1,0-0.2,0-0.3v-1.2h0.3v1.1c0,0.2,0,0.3,0,0.4c0,0.1,0.1,0.2,0.1,0.2c0.1,0.1,0.2,0.1,0.3,0.1c0.1,0,0.2,0,0.3-0.1
			c0.1-0.1,0.2-0.1,0.2-0.2c0-0.1,0.1-0.2,0.1-0.4v-1.1h0.3v2H364.8z"/>
		<path d="M366.3,41.8v0.3c-0.1,0-0.2,0-0.3,0c-0.1,0-0.2,0-0.3-0.1c-0.1,0-0.1-0.1-0.1-0.2c0-0.1,0-0.2,0-0.4v-1.1h-0.2V40h0.2
			v-0.5l0.3-0.2V40h0.3v0.3H366v1.2c0,0.1,0,0.2,0,0.2s0,0,0.1,0.1H366.3L366.3,41.8"/>
		<path d="M367.9,42.1v-0.3c-0.2,0.2-0.4,0.3-0.6,0.3c-0.1,0-0.2,0-0.3-0.1c-0.1,0-0.2-0.1-0.2-0.2c0-0.1-0.1-0.2-0.1-0.2
			c0-0.1,0-0.2,0-0.3v-1.2h0.3v1.1c0,0.2,0,0.3,0,0.4c0,0.1,0.1,0.2,0.1,0.2c0.1,0.1,0.2,0.1,0.3,0.1c0.1,0,0.2,0,0.3-0.1
			c0.1-0.1,0.2-0.1,0.2-0.2c0-0.1,0.1-0.2,0.1-0.4v-1.1h0.3v2H367.9z"/>
		<path d="M368.8,42.1v-2h0.3v0.3c0.1-0.1,0.1-0.2,0.2-0.3c0.1,0,0.1-0.1,0.2-0.1s0.2,0,0.3,0.1l-0.1,0.3c-0.1,0-0.2-0.1-0.2-0.1
			c-0.1,0-0.1,0-0.2,0.1c-0.1,0-0.1,0.1-0.1,0.2c0,0.1-0.1,0.2-0.1,0.4v1L368.8,42.1L368.8,42.1z"/>
		<path d="M371.4,41.5h0.3c-0.1,0.2-0.2,0.4-0.3,0.5c-0.1,0.1-0.3,0.2-0.6,0.2c-0.3,0-0.5-0.1-0.7-0.3s-0.3-0.4-0.3-0.7
			s0.1-0.6,0.3-0.8c0.2-0.2,0.4-0.3,0.7-0.3c0.3,0,0.5,0.1,0.6,0.3c0.2,0.2,0.3,0.4,0.3,0.8c0,0,0,0,0,0.1h-1.5
			c0,0.2,0.1,0.4,0.2,0.5s0.2,0.2,0.4,0.2c0.1,0,0.2,0,0.3-0.1C371.3,41.7,371.3,41.6,371.4,41.5 M370.3,40.9h1.1
			c0-0.2-0.1-0.3-0.1-0.4c-0.1-0.1-0.2-0.2-0.4-0.2c-0.2,0-0.3,0.1-0.4,0.2C370.4,40.6,370.3,40.8,370.3,40.9"/>
	</g>
</g>
<g>
	<path class="st0" d="M211.5,28.8v13h-1.1V30.1l-2.6,1.9l-0.5-0.8l3.2-2.4H211.5z"/>
	<path class="st0" d="M219.2,29.5c0.5,0.6,0.8,1.4,0.8,2.3c0,0.8-0.2,1.5-0.6,2c-0.4,0.5-1,0.8-1.7,1c0.8,0.1,1.5,0.4,1.9,0.9
		s0.7,1.3,0.7,2.3c0,0.8-0.1,1.4-0.4,2c-0.3,0.6-0.7,1.1-1.2,1.4c-0.5,0.3-1.1,0.5-1.8,0.5c-0.7,0-1.2-0.1-1.7-0.4s-1-0.7-1.4-1.3
		l0.7-0.5c0.4,0.5,0.8,0.8,1.1,1c0.4,0.2,0.8,0.3,1.3,0.3c0.7,0,1.3-0.3,1.7-0.8c0.4-0.5,0.6-1.3,0.6-2.2c0-1.8-0.9-2.7-2.6-2.7
		h-0.7l0.1-0.9h0.5c0.7,0,1.2-0.2,1.7-0.7c0.5-0.4,0.7-1.1,0.7-2c0-0.8-0.2-1.3-0.6-1.8c-0.4-0.4-0.9-0.6-1.5-0.6
		c-0.4,0-0.8,0.1-1.2,0.3c-0.4,0.2-0.7,0.5-1.1,0.9l-0.6-0.6c0.4-0.5,0.9-0.9,1.4-1.1c0.5-0.2,1-0.4,1.6-0.4
		C217.9,28.6,218.7,28.9,219.2,29.5z"/>
	<path class="st0" d="M222.4,36.2v-0.9h4.3v0.9H222.4z"/>
	<path class="st0" d="M231.1,28.8v13H230V30.1l-2.6,1.9l-0.5-0.8l3.2-2.4H231.1z"/>
	<path class="st0" d="M239.6,28.8v0.9L235.4,42l-1-0.3l4.1-11.9h-5v-0.9H239.6z"/>
	<path class="st0" d="M253.6,41.8h-1.5l-5-12.1c0.1,1.2,0.2,2.7,0.2,4.5v7.6h-1.1V28.4h1.5l4.9,12.1c-0.1-1.6-0.2-2.9-0.2-3.9v-8.2
		h1.1V41.8z"/>
	<path class="st0" d="M264.1,30c0.8,1.2,1.2,2.9,1.2,5.2c0,2.3-0.4,4-1.2,5.1c-0.8,1.2-1.9,1.7-3.3,1.7c-1.4,0-2.5-0.6-3.3-1.7
		c-0.8-1.2-1.2-2.9-1.2-5.1c0-2.3,0.4-4,1.2-5.2c0.8-1.2,1.9-1.8,3.3-1.8C262.2,28.2,263.3,28.8,264.1,30z M258.4,30.7
		c-0.6,1-0.9,2.5-0.9,4.5c0,2,0.3,3.5,0.9,4.5c0.6,1,1.4,1.4,2.4,1.4c1.1,0,1.9-0.5,2.5-1.4c0.6-0.9,0.9-2.4,0.9-4.5
		c0-4-1.1-5.9-3.3-5.9C259.8,29.2,258.9,29.7,258.4,30.7z"/>
	<path class="st0" d="M275,28.4l-3.5,13.4h-1.3l-3.5-13.4h1.2l3.1,12.2l3-12.2H275z"/>
</g>
</svg>
