<?xml version="1.0" encoding="utf-8"?>
<!-- Generator: Adobe Illustrator 27.0.0, SVG Export Plug-In . SVG Version: 6.00 Build 0)  -->
<svg version="1.1" id="Layer_1" xmlns="http://www.w3.org/2000/svg" xmlns:xlink="http://www.w3.org/1999/xlink" x="0px" y="0px"
	 viewBox="0 0 443 48.8" style="enable-background:new 0 0 443 48.8;" xml:space="preserve">
<style type="text/css">
	.st0{fill:#0066CC;}
	.st1{fill:#FFCC00;}
	.st2{fill:#29333A;}
	.st3{fill:#0078FF;}
	.st4{fill-rule:evenodd;clip-rule:evenodd;fill:#000099;}
	.st5{fill-rule:evenodd;clip-rule:evenodd;fill:#FFCC00;}
	.st6{fill-rule:evenodd;clip-rule:evenodd;fill:#1F60A9;}
	.st7{fill-rule:evenodd;clip-rule:evenodd;fill:#FFFFFF;}
	.st8{fill-rule:evenodd;clip-rule:evenodd;}
</style>
<path class="st0" d="M61.2,8v15.2h-3.5V8H61.2z"/>
<path class="st0" d="M66.9,14.4v8.7h-3.5V8h3.1l2.5,3.7l3.3,5h0.2V8H76v15.2h-3.1l-3.1-4.6l-2.7-4.1h-0.2
	C66.9,14.5,66.9,14.4,66.9,14.4z"/>
<path class="st0" d="M83.8,23.2H78V8h5.8c3.1,0,5.5,1.5,5.5,4.8v5.5C89.3,21.6,86.5,23.2,83.8,23.2z M85.8,13.5
	c0-1.7-1.3-2.4-2.4-2.4h-1.9v9h1.8c1.1,0,2.4-0.6,2.4-2.4L85.8,13.5L85.8,13.5z"/>
<path class="st0" d="M97.1,23.3c-3,0-5.9-1.6-5.9-4.9V8h3.5v9.8c0,1.7,1.3,2.4,2.4,2.4s2.4-0.6,2.4-2.4V8h3.5v10.3
	C103,21.7,100,23.3,97.1,23.3z"/>
<path class="st0" d="M110.3,23.3c-2.2,0-4.1-0.4-6-2.1l2-2.6c1.3,1,2.6,1.5,3.9,1.5c1.9,0,2.5-0.8,2.5-1.4c0-0.9-0.8-1.3-3.4-2
	c-2.8-0.8-4.4-1.8-4.4-4.4c0-2.8,2.3-4.5,5.5-4.5c1.7,0,3.5,0.2,5.3,1.4l-1.6,2.8c-1.4-0.9-2.6-1-3.8-1c-1.1,0-1.9,0.4-1.9,1.2
	s0.8,1.2,3.3,1.9c3.9,1.1,4.5,2.7,4.5,4.6C116.3,21.8,113.6,23.3,110.3,23.3z"/>
<path class="st0" d="M124.4,11.1v12h-3.5v-12H117V8h11.2v3.1H124.4z"/>
<path class="st0" d="M136.4,8c3.3,0,4.6,2.4,4.6,4.8c0,1.6-1,3.3-2.5,4.2l2.7,6.2h-3.7l-2.3-5.6H133v5.6h-3.5V8H136.4z M133.1,14.5
	h2.6c1.3,0,1.8-0.8,1.8-1.7s-0.6-1.7-1.8-1.7h-2.6V14.5z"/>
<path class="st0" d="M147.6,13.9l1.1-2.6l1.4-3.3h3.7l-4.6,9.2v6h-3.5v-6L141.2,8h3.7l1.5,3.4l1.1,2.5H147.6z"/>
<path class="st0" d="M162,14.4h1.7v-0.2c0-0.6-0.4-1-1.3-1c-0.6,0-1.3,0.1-2.2,0.7l-1.2-1.8c1.3-1,2.5-1.2,3.5-1.2
	c2.2,0,3.7,1.1,3.7,3.5V17c0,0.6,0.6,0.6,0.7,0.6c0.6,0,1.8-0.7,1.8-2.9c0-3.1-1.9-5.4-5.8-5.4c-4.1,0-6.7,2.8-6.7,6
	c0,3.3,2.4,6.1,6.1,6.1c0.7,0,1.5,0,2.8-0.5l0.7,2c-1,0.5-2.7,0.7-3.7,0.7c-5.1,0-8.3-3.6-8.3-8.2c0-4.7,3.7-8.3,9.1-8.3
	c5.5,0,8.2,3.4,8.2,7.6c0,2.9-1.9,5.3-4.6,5.3c-0.8,0-2-0.1-2.6-1c-0.9,0.6-1.9,0.9-2.5,0.9c-2,0-2.8-1.3-2.8-2.7
	C158.6,15.1,160.7,14.4,162,14.4z M163.7,16.2h-1.6c-0.4,0-0.9,0.1-0.9,0.6c0,0.3,0.3,0.6,0.8,0.6c0.8,0,1.3-0.3,1.6-0.5L163.7,16.2
	L163.7,16.2z"/>
<path class="st0" d="M179.4,11.1v12h-3.5v-12H172V8h11.2v3.1H179.4z"/>
<path class="st0" d="M191.5,20.2h-4.9l-0.9,3h-3.8L187.3,8h3.6l5.3,15.2h-3.7L191.5,20.2z M187.5,17.3h3.1l-0.3-1l-1.2-4.2H189
	l-1.2,4.2L187.5,17.3z"/>
<path class="st0" d="M197.5,23.2V8h3.5v12h7.2v3.1h-10.7V23.2z"/>
<path class="st0" d="M209.4,23.2V8h3.5v12h7.2v3.1h-10.7V23.2z"/>
<path class="st0" d="M225,8v15.2h-3.5V8H225z"/>
<path class="st0" d="M230.7,14.4v8.7h-3.5V8h3.1l2.5,3.7l3.3,5h0.1V8h3.5v15.2h-3.1l-3.1-4.6l-2.7-4.1h-0.1V14.4z"/>
<path class="st0" d="M245.3,14.4v8.7h-3.5V8h3.1l2.5,3.7l3.3,5h0.1V8h3.5v15.2h-3.1l-3.1-4.6l-2.7-4.1h-0.1V14.4z"/>
<path class="st1" d="M69.7,43.2c0.9,0.8,2,1.5,3.3,2.1l-1.2,2.2c-1.3-0.4-3.2-1.7-4.2-2.7c-0.8,0.7-2.4,1.4-3.9,1.4
	c-2.7,0-4.9-1.7-4.9-4.5c0-2,1.5-3.5,3-4.4c-0.4-0.7-0.7-1.4-0.7-2.4c0-2,1.3-3.5,3.4-3.5c2,0,3.5,1.4,3.5,3.2
	c0,1.7-1.2,2.8-2.4,3.6c0.7,1.1,1.5,2.1,2.3,3.1c1.3-1.5,2-3.5,2-5.2c0-3.1-2-5.7-5.4-5.7c-3.1,0-5,1.9-5,4.1c0,0.8,0.1,1.7,0.9,2.9
	l-2.2,1.4c-1-1.5-1.3-2.9-1.3-4.1c0-3.5,2.9-6.8,7.6-6.8c5.2,0,8.1,3.7,8.1,8.2C72.5,38.6,71.5,41.2,69.7,43.2z M63.4,39.4
	c-1,0.6-1.9,1.3-1.9,2.2c0,1.3,0.8,2,2,2c0.7,0,1.5-0.2,2.4-0.7C65.1,42.1,63.9,40.4,63.4,39.4z M64.5,33.9c-0.4,0-0.7,0.4-0.7,0.9
	c0,0.4,0.2,0.7,0.5,1.2c0.7-0.4,1-0.8,1-1.3C65.4,34.3,65,33.9,64.5,33.9z"/>
<path class="st1" d="M87.3,45.9h-7.4V30.8H87c3.2,0,4.4,1.9,4.4,4.2c0,1.1-0.6,2.4-1.9,3c1.5,0.7,2.2,2.3,2.2,3.4
	C91.7,44,90.2,45.9,87.3,45.9z M86.1,33.9h-2.6v2.8h2.6c1.2,0,1.7-0.6,1.7-1.3C87.8,34.5,87.4,33.9,86.1,33.9z M86.2,39.6h-2.8v3.2
	h2.8c1.1,0,1.7-0.6,1.7-1.6C88,40.3,87.4,39.6,86.2,39.6z"/>
<path class="st1" d="M101.8,42.9h-4.9l-0.9,3h-3.8l5.3-15.2h3.6l5.3,15.2h-3.7L101.8,42.9z M97.8,40.1h3.1l-0.3-1l-1.2-4.2h-0.1
	L98.1,39L97.8,40.1z"/>
<path class="st1" d="M107.8,45.9V30.8h3.5v12h7.2v3.1L107.8,45.9z"/>
<path class="st1" d="M124.5,33.9v12H121v-12h-3.9v-3.1h11.2v3.1H124.5z"/>
<path class="st1" d="M133.3,30.8V46h-3.5V30.8H133.3z"/>
<path class="st1" d="M144.5,34.9c-1-0.9-2.1-1.1-3-1.1c-1.1,0-2.5,0.6-2.5,2.4v4.3c0,1.7,1.4,2.4,2.5,2.4c0.9,0,1.9-0.2,3-1.1
	l1.7,2.7c-1.2,1-3,1.5-4.8,1.5c-2.8,0-5.9-1.5-5.9-4.8v-5.7c0-3.3,3-4.9,5.9-4.9c1.8,0,3.7,0.5,4.8,1.5L144.5,34.9z"/>
<path class="st1" d="M152.9,30.8h10.6v3.1h-7.1v2.8h6.1v3.1h-6.1v3h7.1v3.1h-10.6V30.8z"/>
<path class="st1" d="M171.4,40.8l1.5-5.5l1.3-4.6h3.7l-4.8,15.2h-3.6l-4.9-15.2h3.7l1.4,4.7l1.5,5.4H171.4z"/>
<path class="st1" d="M179.2,30.8h10.6v3.1h-7.1v2.8h6.1v3.1h-6.1v3h7.1v3.1h-10.6V30.8z"/>
<path class="st1" d="M195,37.2v8.7h-3.5V30.8h3.1l2.5,3.7l3.3,5h0.1v-8.7h3.5V46h-3.1l-3.1-4.6l-2.7-4.1H195V37.2z"/>
<path class="st1" d="M212.7,33.9v12h-3.5v-12h-3.9v-3.1h11.2v3.1H212.7z"/>
<path class="st2" d="M358.3,33.3c0,0-0.1,0.1-0.2,0.1h-4.4c-0.1,0-0.1,0-0.1,0.1v3.3c0,0.1,0,0.1,0.1,0.1h2.5c0.1,0,0.1,0,0.2,0.1
	c0,0,0.1,0.1,0.1,0.2v2c0,0.1,0,0.1-0.1,0.2c0,0-0.1,0.1-0.2,0.1h-2.5c-0.1,0-0.1,0-0.1,0.1v3.3c0,0.1,0,0.1,0.1,0.1h4.4
	c0.1,0,0.1,0,0.2,0.1c0,0,0.1,0.1,0.1,0.2v2c0,0.1,0,0.1-0.1,0.2c0,0-0.1,0.1-0.2,0.1h-7.2c-0.1,0-0.1,0-0.2-0.1
	c0,0-0.1-0.1-0.1-0.2V31.1c0-0.1,0-0.1,0.1-0.2c0,0,0.1-0.1,0.2-0.1h7.2c0.1,0,0.1,0,0.2,0.1s0.1,0.1,0.1,0.2v2
	C358.4,33.1,358.3,33.2,358.3,33.3z"/>
<path class="st2" d="M359.9,45.3c0,0-0.1-0.1-0.1-0.2v-14c0-0.1,0-0.1,0.1-0.2c0,0,0.1-0.1,0.2-0.1h2.4c0.1,0,0.1,0,0.2,0.1
	s0.1,0.1,0.1,0.2v11.7c0,0.1,0,0.1,0.1,0.1h4.4c0.1,0,0.1,0,0.2,0.1c0,0,0.1,0.1,0.1,0.2v2c0,0.1,0,0.1-0.1,0.2c0,0-0.1,0.1-0.2,0.1
	h-7.2C360,45.4,360,45.4,359.9,45.3z"/>
<path class="st2" d="M368.8,45.3c0,0-0.1-0.1-0.1-0.2v-14c0-0.1,0-0.1,0.1-0.2c0,0,0.1-0.1,0.2-0.1h2.4c0.1,0,0.1,0,0.2,0.1
	s0.1,0.1,0.1,0.2v14.1c0,0.1,0,0.1-0.1,0.2c0,0-0.1,0.1-0.2,0.1H369C368.9,45.4,368.8,45.4,368.8,45.3z"/>
<path class="st2" d="M375.1,45.1c-0.6-0.3-1.1-0.8-1.4-1.3c-0.3-0.6-0.5-1.2-0.5-2v-0.6c0-0.1,0-0.1,0.1-0.2c0,0,0.1-0.1,0.2-0.1
	h2.4c0.1,0,0.1,0,0.2,0.1s0.1,0.1,0.1,0.2v0.5c0,0.4,0.1,0.8,0.3,1c0.2,0.3,0.5,0.4,0.8,0.4s0.6-0.1,0.8-0.4c0.2-0.3,0.3-0.6,0.3-1
	s-0.1-0.8-0.4-1.1s-0.8-0.7-1.6-1.3c-0.7-0.5-1.3-0.9-1.7-1.3c-0.4-0.4-0.8-0.9-1.1-1.4c-0.3-0.6-0.5-1.2-0.5-2
	c0-1.2,0.4-2.1,1.1-2.8s1.7-1.1,2.9-1.1c1.2,0,2.2,0.4,3,1.1c0.7,0.7,1.1,1.7,1.1,2.9v0.5c0,0.1,0,0.1-0.1,0.2c0,0-0.1,0.1-0.2,0.1
	h-2.4c-0.1,0-0.1,0-0.2-0.1c0,0-0.1-0.1-0.1-0.2v-0.6c0-0.4-0.1-0.8-0.3-1s-0.5-0.4-0.8-0.4s-0.6,0.1-0.8,0.4
	c-0.2,0.2-0.3,0.6-0.3,1s0.1,0.8,0.4,1.1s0.8,0.8,1.6,1.3c0.9,0.6,1.5,1.2,2,1.6c0.4,0.4,0.8,0.8,1,1.3s0.4,1.1,0.4,1.7
	c0,1.2-0.4,2.2-1.1,2.9c-0.8,0.7-1.7,1.1-3,1.1C376.5,45.6,375.8,45.4,375.1,45.1z"/>
<path class="st2" d="M388.6,45.2l-0.3-2c0-0.1,0-0.1-0.1-0.1h-2.6c-0.1,0-0.1,0-0.1,0.1l-0.3,2c0,0.2-0.1,0.2-0.3,0.2h-2.4
	c-0.2,0-0.3-0.1-0.2-0.3l3.1-14.1c0-0.2,0.1-0.2,0.3-0.2h2.8c0.2,0,0.2,0.1,0.3,0.2l3,14.1v0.1c0,0.1-0.1,0.2-0.2,0.2h-2.5
	C388.7,45.4,388.7,45.3,388.6,45.2z M385.9,40.8h1.9c0.1,0,0.1,0,0.1-0.1l-1-5.7c0,0,0-0.1-0.1-0.1c0,0,0,0-0.1,0.1l-0.9,5.7
	C385.8,40.8,385.9,40.8,385.9,40.8z"/>
<path class="st2" d="M398.6,45.1c-0.6-0.3-1.1-0.8-1.4-1.3c-0.3-0.6-0.5-1.2-0.5-2v-0.6c0-0.1,0-0.1,0.1-0.2c0,0,0.1-0.1,0.2-0.1
	h2.4c0.1,0,0.1,0,0.2,0.1s0.1,0.1,0.1,0.2v0.5c0,0.4,0.1,0.8,0.3,1c0.2,0.3,0.5,0.4,0.8,0.4s0.6-0.1,0.8-0.4c0.2-0.3,0.3-0.6,0.3-1
	s-0.1-0.8-0.4-1.1s-0.8-0.7-1.6-1.3c-0.7-0.5-1.3-0.9-1.7-1.3c-0.4-0.4-0.8-0.9-1.1-1.4c-0.3-0.6-0.5-1.2-0.5-2
	c0-1.2,0.4-2.1,1.1-2.8s1.7-1.1,2.9-1.1c1.2,0,2.2,0.4,3,1.1c0.7,0.7,1.1,1.7,1.1,2.9v0.5c0,0.1,0,0.1-0.1,0.2c0,0-0.1,0.1-0.2,0.1
	H402c-0.1,0-0.1,0-0.2-0.1c0,0-0.1-0.1-0.1-0.2v-0.6c0-0.4-0.1-0.8-0.3-1s-0.5-0.4-0.8-0.4s-0.6,0.1-0.8,0.4c-0.2,0.2-0.3,0.6-0.3,1
	s0.1,0.8,0.4,1.1s0.8,0.8,1.6,1.3c0.9,0.6,1.5,1.2,2,1.6c0.4,0.4,0.8,0.8,1,1.3s0.4,1.1,0.4,1.7c0,1.2-0.4,2.2-1.1,2.9
	c-0.8,0.7-1.7,1.1-3,1.1C400,45.6,399.2,45.4,398.6,45.1z"/>
<path class="st2" d="M414.4,30.9c0,0,0.1,0.1,0.1,0.2v2c0,0.1,0,0.1-0.1,0.2c0,0-0.1,0.1-0.2,0.1h-2.6c-0.1,0-0.1,0-0.1,0.1v11.7
	c0,0.1,0,0.1-0.1,0.2c0,0-0.1,0.1-0.2,0.1h-2.4c-0.1,0-0.1,0-0.2-0.1c0,0-0.1-0.1-0.1-0.2V33.4c0-0.1,0-0.1-0.1-0.1H406
	c-0.1,0-0.1,0-0.2-0.1c0,0-0.1-0.1-0.1-0.2v-2c0-0.1,0-0.1,0.1-0.2s0.1-0.1,0.2-0.1h8.3C414.3,30.8,414.4,30.8,414.4,30.9z"/>
<path class="st2" d="M420.6,45.2l-0.3-2c0-0.1,0-0.1-0.1-0.1h-2.6c-0.1,0-0.1,0-0.1,0.1l-0.3,2c0,0.2-0.1,0.2-0.3,0.2h-2.4
	c-0.2,0-0.3-0.1-0.2-0.3l3.1-14.1c0-0.2,0.1-0.2,0.3-0.2h2.8c0.2,0,0.2,0.1,0.3,0.2l3,14.1v0.1c0,0.1-0.1,0.2-0.2,0.2h-2.5
	C420.7,45.4,420.6,45.3,420.6,45.2z M417.9,40.8h1.9c0.1,0,0.1,0,0.1-0.1l-1-5.7c0,0,0-0.1-0.1-0.1c0,0,0,0-0.1,0.1l-0.9,5.7
	C417.8,40.8,417.8,40.8,417.9,40.8z"/>
<path class="st2" d="M425.3,44.5c-0.8-0.7-1.1-1.7-1.1-2.9v-7.1c0-1.2,0.4-2.2,1.1-2.9s1.8-1.1,3-1.1s2.3,0.4,3,1.1
	c0.7,0.7,1.1,1.7,1.1,2.9v0.8c0,0.1,0,0.1-0.1,0.2c0,0-0.1,0.1-0.2,0.1h-2.4c-0.1,0-0.1,0-0.2-0.1c0,0-0.1-0.1-0.1-0.2v-0.8
	c0-0.4-0.1-0.8-0.3-1c-0.2-0.3-0.5-0.4-0.9-0.4s-0.7,0.1-0.9,0.4c-0.2,0.3-0.3,0.6-0.3,1v7.1c0,0.4,0.1,0.8,0.3,1
	c0.2,0.3,0.5,0.4,0.9,0.4s0.7-0.1,0.9-0.4c0.2-0.3,0.3-0.6,0.3-1V40c0-0.1,0-0.1-0.1-0.1h-0.9c-0.1,0-0.1,0-0.2-0.1
	c0,0-0.1-0.1-0.1-0.2v-1.9c0-0.1,0-0.1,0.1-0.2c0,0,0.1-0.1,0.2-0.1h3.7c0.1,0,0.1,0,0.2,0.1c0,0,0.1,0.1,0.1,0.2v3.9
	c0,1.2-0.4,2.2-1.1,2.9s-1.8,1.1-3,1.1S426.1,45.2,425.3,44.5z"/>
<path class="st2" d="M441.7,33.3c0,0-0.1,0.1-0.2,0.1h-4.4c-0.1,0-0.1,0-0.1,0.1v3.3c0,0.1,0,0.1,0.1,0.1h2.5c0.1,0,0.1,0,0.2,0.1
	c0,0,0.1,0.1,0.1,0.2v2c0,0.1,0,0.1-0.1,0.2c0,0-0.1,0.1-0.2,0.1h-2.5c-0.1,0-0.1,0-0.1,0.1v3.3c0,0.1,0,0.1,0.1,0.1h4.4
	c0.1,0,0.1,0,0.2,0.1c0,0,0.1,0.1,0.1,0.2v2c0,0.1,0,0.1-0.1,0.2c0,0-0.1,0.1-0.2,0.1h-7.2c-0.1,0-0.1,0-0.2-0.1
	c0,0-0.1-0.1-0.1-0.2V31.1c0-0.1,0-0.1,0.1-0.2c0,0,0.1-0.1,0.2-0.1h7.2c0.1,0,0.1,0,0.2,0.1s0.1,0.1,0.1,0.2v2
	C441.8,33.1,441.8,33.2,441.7,33.3z"/>
<g>
	<path class="st2" d="M261.8,30.8h0.5c0.1,0,0.2,0.1,0.2,0.2v14.2c0,0.1-0.1,0.2-0.2,0.2h-0.4c-0.1,0-0.2-0.1-0.2-0.2V31.9
		c0,0,0,0,0-0.1c0,0,0,0-0.1,0l-2.1,0.9h-0.1h-0.1c0,0,0-0.1-0.1-0.1l-0.1-0.3c0,0,0,0,0-0.1c0-0.1,0-0.1,0.1-0.2l2.3-1.3
		C261.6,30.8,261.7,30.8,261.8,30.8z"/>
	<path class="st2" d="M269.7,37.6c0.5,0.2,0.8,0.6,1.1,1.2c0.3,0.7,0.5,1.6,0.5,2.6c0,0.7-0.1,1.4-0.3,2c-0.2,0.7-0.6,1.2-1.1,1.6
		c-0.5,0.4-1,0.6-1.7,0.6s-1.2-0.2-1.7-0.6c-0.5-0.4-0.8-0.9-1.1-1.6c-0.2-0.6-0.3-1.3-0.3-2c0-0.9,0.1-1.7,0.4-2.3
		c0.3-0.7,0.7-1.1,1.2-1.4c0.1,0,0.1-0.1,0-0.1c-0.5-0.2-0.8-0.6-1.1-1.1c-0.3-0.6-0.5-1.3-0.5-2.2c0-0.9,0.2-1.6,0.5-2.2
		c0.2-0.5,0.6-0.8,1-1.1s0.9-0.4,1.5-0.4c1.2,0,2,0.5,2.5,1.4c0.4,0.6,0.5,1.4,0.5,2.3c0,0.9-0.2,1.6-0.5,2.1s-0.6,0.8-1.1,1.1
		C269.6,37.5,269.6,37.6,269.7,37.6z M268.2,37.2c0.4,0,0.8-0.1,1.1-0.3c0.3-0.2,0.6-0.5,0.8-0.9c0.2-0.5,0.4-1.1,0.4-1.8
		c0-0.8-0.2-1.4-0.5-1.9c-0.4-0.7-1-1-1.8-1s-1.4,0.4-1.8,1.1c-0.3,0.5-0.4,1.1-0.4,1.9c0,0.7,0.1,1.3,0.4,1.9
		C266.8,36.9,267.4,37.2,268.2,37.2z M270.4,41.4c0-0.9-0.1-1.6-0.4-2.1c-0.4-0.9-1-1.3-1.9-1.3s-1.5,0.5-1.9,1.4
		c-0.2,0.6-0.3,1.2-0.3,2c0,0.7,0.1,1.3,0.2,1.8c0.2,0.5,0.4,1,0.7,1.3c0.3,0.3,0.7,0.4,1.2,0.4s0.9-0.2,1.3-0.5s0.6-0.7,0.8-1.3
		C270.4,42.5,270.4,42,270.4,41.4z"/>
	<path class="st2" d="M277.5,38.9v-0.3c0-0.1,0.1-0.2,0.2-0.2h4.4c0.1,0,0.2,0.1,0.2,0.2v0.3c0,0.1-0.1,0.2-0.2,0.2h-4.4
		C277.5,39.1,277.5,39.1,277.5,38.9z"/>
	<path class="st2" d="M289.3,44.7h5.1c0.1,0,0.2,0.1,0.2,0.2v0.3c0,0.1-0.1,0.2-0.2,0.2h-6c-0.1,0-0.2-0.1-0.2-0.2v-0.4
		c0-0.1,0-0.2,0.1-0.3l1.3-2.3c0.3-0.6,0.7-1.2,1.1-1.9c0.4-0.7,0.8-1.3,1.2-2c0.9-1.7,1.4-3.1,1.4-4.2c0-0.8-0.2-1.5-0.6-2
		s-0.9-0.8-1.6-0.8c-0.6,0-1.1,0.3-1.5,0.8s-0.6,1.2-0.5,2v0.8c0,0.1-0.1,0.2-0.2,0.2h-0.4c-0.1,0-0.2-0.1-0.2-0.2v-0.8
		c0-1,0.3-1.9,0.8-2.5c0.5-0.6,1.2-1,2.1-1s1.6,0.3,2.2,1c0.5,0.6,0.8,1.5,0.8,2.5c0,1.3-0.5,2.8-1.5,4.5l-1.8,3.1l-1.6,2.8
		C289.2,44.6,289.2,44.7,289.3,44.7z"/>
	<path class="st2" d="M302.7,41c0,0.7-0.1,1.3-0.2,1.9c-0.2,0.9-0.5,1.5-1,2s-1.1,0.7-1.9,0.7s-1.5-0.2-2-0.7s-0.8-1.1-0.9-2.1
		l-0.1-0.6l0,0c0-0.1,0.1-0.2,0.2-0.2h0.4c0.1,0,0.2,0.1,0.2,0.2c0,0.3,0.1,0.4,0.1,0.6c0.2,1.4,0.9,2.1,2.1,2.1c1,0,1.7-0.6,2-1.9
		c0.1-0.5,0.2-1.2,0.2-1.9c0-0.8-0.1-1.5-0.3-2.1c-0.3-1.1-1-1.7-2-1.7c-1.2,0-1.9,0.6-2.1,1.7c0,0.1-0.1,0.2-0.2,0.2h-0.4
		c-0.1,0-0.2-0.1-0.2-0.2v-8c0-0.1,0.1-0.2,0.2-0.2h5.2c0.1,0,0.2,0.1,0.2,0.2v0.3c0,0.1-0.1,0.2-0.2,0.2h-4.5c-0.1,0-0.1,0-0.1,0.1
		v5.9v0.1c0,0,0,0,0.1,0c0.2-0.4,0.5-0.7,0.9-0.9s0.8-0.3,1.3-0.3c0.7,0,1.2,0.2,1.6,0.6s0.8,0.9,1,1.7
		C302.6,39.3,302.7,40.1,302.7,41z"/>
	<path class="st2" d="M315.4,30.8h0.4c0.1,0,0.2,0.1,0.2,0.2v14.2c0,0.1-0.1,0.2-0.2,0.2h-0.5c-0.1,0-0.2-0.1-0.2-0.2l-4.7-12.3
		c0,0,0-0.1-0.1-0.1c0,0,0,0,0,0.1v12.3c0,0.1-0.1,0.2-0.2,0.2h-0.4c-0.1,0-0.2-0.1-0.2-0.2V31c0-0.1,0.1-0.2,0.2-0.2h0.5
		c0.1,0,0.2,0.1,0.2,0.2l4.8,12.3c0,0,0,0.1,0.1,0.1c0,0,0,0,0-0.1V31C315.2,30.9,315.3,30.8,315.4,30.8z"/>
	<path class="st2" d="M320.1,44.6c-0.6-0.6-0.9-1.5-0.9-2.5V34c0-1,0.3-1.9,0.9-2.5c0.6-0.6,1.4-0.9,2.4-0.9s1.8,0.3,2.4,1
		c0.6,0.6,0.9,1.5,0.9,2.5v8.1c0,1-0.3,1.8-0.9,2.5c-0.6,0.6-1.4,0.9-2.4,0.9S320.7,45.2,320.1,44.6z M324.3,44.1
		c0.5-0.5,0.7-1.1,0.7-1.9V34c0-0.8-0.2-1.4-0.7-1.9s-1.1-0.7-1.8-0.7c-0.7,0-1.3,0.2-1.8,0.7S320,33.2,320,34v8.2
		c0,0.8,0.2,1.4,0.7,1.9s1.1,0.7,1.8,0.7S323.8,44.6,324.3,44.1z"/>
	<path class="st2" d="M331,45.2L328,31l0,0c0-0.1,0.1-0.2,0.2-0.2h0.4c0.1,0,0.2,0.1,0.2,0.2l2.6,12.7v0.1c0,0,0,0,0-0.1L334,31
		c0-0.1,0.1-0.2,0.2-0.2h0.4c0.2,0,0.2,0.1,0.2,0.2l-3,14.2c0,0.1-0.1,0.2-0.2,0.2h-0.5C331.1,45.4,331,45.3,331,45.2z"/>
</g>
<g>
	<g id="XMLID_00000018238116009917024300000018175453015894901125_">
		<path class="st1" d="M32.1,24.4h14.4c-0.9,5.1-3.3,10.2-7,14.4C30,49.4,15.2,51.7,6.3,43.6c-5.2-4.7-7.1-11.9-5.9-19.2h14.4
			c0,2.2,0.9,4.4,2.6,6.1c3.4,3.4,8.9,3.4,12.3,0C31.3,28.9,32.1,26.6,32.1,24.4z"/>
		<path class="st1" d="M19.9,24.4h7c0,0.9-0.4,1.7-1,2.4c-1.3,1.3-3.5,1.4-4.9,0C20.3,26.2,19.9,25.3,19.9,24.4z"/>
	</g>
	<g id="XMLID_00000172436888910342890510000010745209830598214540_">
		<path class="st0" d="M41.1,5.5c4.9,4.7,6.6,11.8,5.4,18.9H32.1c0-2.2-0.8-4.5-2.6-6.2c-3.4-3.4-8.9-3.4-12.3,0
			c-1.7,1.7-2.6,3.9-2.5,6.2H0.3c0.9-5.2,3.3-10.5,7.3-14.9C17.3-0.9,32.3-2.8,41.1,5.5z"/>
		<path class="st0" d="M25.9,22c0.7,0.7,1.1,1.6,1,2.5h-7c0-0.9,0.4-1.8,1-2.5C22.3,20.7,24.6,20.7,25.9,22z"/>
	</g>
</g>
<g>
	<path class="st3" d="M439.7,18.5c-0.2,0-0.5,0.1-0.6,0.3h0v-0.3h-0.3v1.8h0.3v-1.1c0-0.3,0.3-0.4,0.5-0.4c0.3,0,0.5,0.2,0.5,0.4
		v1.1h0.3v-1.1C440.4,18.7,440.1,18.5,439.7,18.5 M398.9,11c-0.1-0.1-0.2-0.1-0.3,0l-0.8,0.8c0,0-0.1,0.1-0.1,0.1
		c0,0.1,0,0.1,0.1,0.1l0.8,0.8c0,0,0.1,0.1,0.1,0.1s0.1,0,0.1-0.1l0.8-0.8c0,0,0.1-0.1,0.1-0.1c0-0.1,0-0.1-0.1-0.1L398.9,11z
		 M401.5,13.6c-0.1-0.1-0.2-0.1-0.3,0l-0.8,0.8c0,0-0.1,0.1-0.1,0.1c0,0.1,0,0.1,0.1,0.1l0.8,0.8c0,0,0.1,0.1,0.1,0.1s0.1,0,0.1-0.1
		l0.8-0.8c0.1-0.1,0.1-0.2,0-0.3L401.5,13.6z M402.8,12c0,0.1,0,0.1,0.1,0.1l0.8,0.8c0,0,0.1,0.1,0.1,0.1c0.1,0,0.1,0,0.1-0.1
		l0.8-0.8c0.1-0.1,0.1-0.2,0-0.3L404,11c0,0-0.1-0.1-0.1-0.1c-0.1,0-0.1,0-0.1,0.1l-0.8,0.8C402.9,11.9,402.8,11.9,402.8,12
		 M431.7,20.3h1.7V20H432v-0.9h1.3v-0.3H432V18h1.4v-0.3h-1.7V20.3z M437.5,18.4c-0.5,0-0.9,0.4-0.9,0.9c0,0.6,0.4,0.9,0.9,0.9
		c0.6,0,0.9-0.4,0.9-0.9C438.4,18.8,438,18.4,437.5,18.4 M437.5,20.1c-0.3,0-0.6-0.3-0.6-0.7c0-0.5,0.3-0.7,0.6-0.7
		c0.3,0,0.6,0.2,0.6,0.7C438.1,19.8,437.8,20.1,437.5,20.1 M401.2,10.4c0,0,0.1,0.1,0.1,0.1s0.1,0,0.1-0.1l0.8-0.8
		c0.1-0.1,0.1-0.2,0-0.3l-0.8-0.8c0,0-0.1-0.1-0.1-0.1s-0.1,0-0.1,0.1l-0.8,0.8c0,0-0.1,0.1-0.1,0.1c0,0.1,0,0.1,0.1,0.1L401.2,10.4
		z M389.6,10.8c0.1,0.1,0.3,0.2,0.5,0.2c0.2,0,0.4-0.1,0.5-0.2l0.9-0.9c0.1-0.1,0.2-0.3,0.2-0.5c0-0.2-0.1-0.4-0.2-0.5L390.6,8
		c-0.1-0.1-0.3-0.2-0.5-0.2c-0.2,0-0.4,0.1-0.5,0.2l-0.9,0.9c-0.1,0.1-0.2,0.3-0.2,0.5c0,0.2,0.1,0.4,0.2,0.5L389.6,10.8z M443,12.3
		c0-2.4-2.3-2.8-4.2-3.3c-1.5-0.4-3-0.7-3-2c0-1,1-1.9,2.7-1.9c1.6,0,2.9,0.6,3.7,1.3h0.3V5.1c-0.6-0.6-2.1-1.2-3.7-1.2
		c-2.7,0-4.3,1.4-4.3,3.1c0,2.4,2.3,2.8,4.1,3.2c1.5,0.4,3,0.7,3,2.1c0,0.8-0.9,1.8-2.7,1.8c-1.4,0-3.2-0.8-4.2-1.8h-0.3v1.5
		c1.3,1,2.8,1.5,4.6,1.5C441.5,15.3,443,13.9,443,12.3 M440.8,18.1h0.3v-0.4h-0.3V18.1z M390.6,12.1c-0.3-0.3-0.8-0.3-1.1,0
		l-1.9,1.9c-0.1,0.1-0.2,0.3-0.2,0.5c0,0.2,0.1,0.4,0.2,0.5l1.3,1.3l-0.5,0.5c-0.3,0.3-0.3,0.8,0,1.1c0.1,0.1,0.3,0.2,0.5,0.2
		c0.2,0,0.4-0.1,0.5-0.2l1.1-1.1c0,0,0,0,0,0l1.9-1.9c0.1-0.1,0.2-0.3,0.2-0.5c0-0.2-0.1-0.4-0.2-0.5L390.6,12.1z M391,14.6
		l-0.8,0.8c0,0-0.1,0.1-0.1,0.1c-0.1,0-0.1,0-0.1-0.1l-0.8-0.8c0,0-0.1-0.1-0.1-0.1c0-0.1,0-0.1,0.1-0.1l0.8-0.8
		c0.1-0.1,0.2-0.1,0.3,0l0.8,0.8C391.1,14.4,391.1,14.5,391,14.6 M435.9,17.9h-0.3l0,0.6h-0.3v0.2h0.3l0,1c0,0.4,0.1,0.5,0.4,0.5
		h0.2V20h-0.2c-0.1,0-0.2,0-0.2-0.3l0-1.1h0.4v-0.2h-0.4L435.9,17.9z M442.2,18.5c-0.3,0-0.5,0.1-0.6,0.2v0.2h0.1
		c0.2-0.2,0.3-0.2,0.6-0.2c0.2,0,0.4,0.1,0.5,0.3l0,0c-0.1,0-0.4,0.1-0.5,0.1c-0.4,0.1-0.7,0.2-0.7,0.6c0,0.3,0.3,0.5,0.6,0.5
		c0.2,0,0.4-0.1,0.6-0.3h0v0.2h0.3c0-0.4,0-0.7,0-1.1C443,18.7,442.7,18.5,442.2,18.5 M442.7,19.7L442.7,19.7c0,0.2-0.3,0.4-0.5,0.4
		c-0.3,0-0.4-0.1-0.4-0.3c0-0.2,0.1-0.3,0.5-0.4c0.1,0,0.3-0.1,0.5-0.1L442.7,19.7z M440.8,20.3h0.3v-1.8h-0.3V20.3z M425.6,18.8
		L425.6,18.8l0-0.3h-0.3v1.8h0.3v-1c0-0.3,0.2-0.5,0.4-0.5h0.2v-0.2H426C425.8,18.5,425.7,18.6,425.6,18.8 M426.6,20.3h0.3v-1.8
		h-0.3V20.3z M427.5,4l-4,10.7v0.4h1.2l1.5-3.9h4.7l1.5,3.9h1.3v-0.4L429.5,4H427.5z M426.5,10l1.7-4.4l0.2-0.7h0.1l0.2,0.7l1.7,4.4
		H426.5z M424.1,18.4c-0.2,0-0.4,0.1-0.5,0.2h0v-0.2h-0.3V21h0.3v-1h0c0.1,0.2,0.3,0.3,0.5,0.3c0.5,0,0.9-0.4,0.9-0.9
		C424.9,18.8,424.6,18.4,424.1,18.4 M424,20.1c-0.3,0-0.5-0.1-0.5-0.4v-0.5c0-0.3,0.3-0.5,0.5-0.5c0.3,0,0.6,0.2,0.6,0.7
		C424.7,19.8,424.4,20.1,424,20.1 M410.5,4.5c-0.1-0.3-0.4-0.5-0.7-0.5H400c-0.2,0-0.4,0.1-0.5,0.2l-6.4,6.4c-0.3,0.3-0.3,0.8,0,1.1
		l2.2,2.2l-0.9,0.9c-0.3,0.3-0.3,0.8,0,1.1l3.2,3.2c0.3,0.3,0.8,0.3,1.1,0l1-1l2.8,2.8c0.1,0.1,0.3,0.2,0.5,0.2
		c0.2,0,0.4-0.1,0.5-0.2l6.8-6.8c0.1-0.1,0.2-0.3,0.2-0.5c0-0.2-0.1-0.4-0.2-0.5l-3.7-3.7l3.9-3.9C410.6,5.1,410.6,4.7,410.5,4.5
		 M404,8.2l0.8-0.8c0,0,0.1-0.1,0.1-0.1c0.1,0,0.1,0,0.1,0.1l0.8,0.8c0.1,0.1,0.1,0.2,0,0.3l-0.8,0.8c0,0-0.1,0.1-0.1,0.1
		c-0.1,0-0.1,0-0.1-0.1L404,8.5c0,0-0.1-0.1-0.1-0.1C404,8.3,404,8.2,404,8.2 M399.5,6.6c0-0.1,0.1-0.2,0.1-0.2c0.1,0,0.2,0,0.2,0
		l1.4,1.4l1.4-1.4c0.1-0.1,0.2-0.1,0.2,0c0.1,0,0.1,0.1,0.1,0.2v3.2c0,0.1,0,0.1-0.1,0.2l-1.6,1.6c0,0-0.1,0.1-0.2,0.1
		s-0.1,0-0.2-0.1l-1.6-1.6c0,0-0.1-0.1-0.1-0.2V6.6z M396.7,8.2l0.8-0.8c0,0,0.1-0.1,0.1-0.1s0.1,0,0.1,0.1l0.8,0.8
		c0.1,0.1,0.1,0.2,0,0.3l-0.8,0.8c0,0-0.1,0.1-0.1,0.1s-0.1,0-0.1-0.1l-0.8-0.8c0,0-0.1-0.1-0.1-0.1C396.7,8.3,396.7,8.2,396.7,8.2
		 M398.6,15.7l-0.8,0.8c0,0-0.1,0.1-0.1,0.1s-0.1,0-0.1-0.1l-0.8-0.8c0,0-0.1-0.1-0.1-0.1c0-0.1,0-0.1,0.1-0.1l0.8-0.8
		c0,0,0.1-0.1,0.1-0.1s0.1,0,0.1,0.1l0.8,0.8C398.7,15.5,398.7,15.7,398.6,15.7 M399.1,13.8h-3.2c-0.1,0-0.2-0.1-0.2-0.1
		c0-0.1,0-0.2,0-0.2l1.4-1.4l-1.4-1.4c-0.1-0.1-0.1-0.2,0-0.2c0-0.1,0.1-0.1,0.2-0.1h3.2c0.1,0,0.1,0,0.2,0.1l1.6,1.6
		c0,0,0.1,0.1,0.1,0.2c0,0.1,0,0.1-0.1,0.2l-1.6,1.6C399.2,13.8,399.1,13.8,399.1,13.8 M403.1,17.4c0,0.1-0.1,0.2-0.1,0.2
		c0,0-0.1,0-0.1,0c-0.1,0-0.1,0-0.2-0.1l-1.4-1.4l-1.4,1.4c-0.1,0.1-0.2,0.1-0.2,0c-0.1,0-0.1-0.1-0.1-0.2v-3.2c0-0.1,0-0.1,0.1-0.2
		l1.6-1.6c0.1-0.1,0.2-0.1,0.3,0l1.6,1.6c0,0,0.1,0.1,0.1,0.2V17.4z M405.9,15.7l-0.8,0.8c0,0-0.1,0.1-0.1,0.1c-0.1,0-0.1,0-0.1-0.1
		l-0.8-0.8c0,0-0.1-0.1-0.1-0.1c0-0.1,0-0.1,0.1-0.1l0.8-0.8c0,0,0.1-0.1,0.1-0.1c0.1,0,0.1,0,0.1,0.1l0.8,0.8
		C406,15.5,406,15.7,405.9,15.7 M406.8,10.2c0.1,0,0.2,0.1,0.2,0.1c0,0.1,0,0.2,0,0.2l-1.4,1.4l1.4,1.4c0.1,0.1,0.1,0.2,0,0.2
		c0,0.1-0.1,0.1-0.2,0.1h-3.2c-0.1,0-0.1,0-0.2-0.1l-1.6-1.6c0,0-0.1-0.1-0.1-0.2c0-0.1,0-0.1,0.1-0.2l1.6-1.6c0,0,0.1-0.1,0.2-0.1
		H406.8z M427.6,18.9c0-0.2,0.1-0.3,0.4-0.3c0.3,0,0.4,0.1,0.5,0.2h0.1v-0.3c-0.1-0.1-0.3-0.1-0.6-0.1c-0.5,0-0.7,0.2-0.7,0.5
		c0,0.6,1.1,0.5,1.1,0.9c0,0.2-0.1,0.3-0.4,0.3c-0.2,0-0.5-0.1-0.6-0.3h-0.1v0.3c0.2,0.1,0.4,0.2,0.7,0.2c0.5,0,0.7-0.2,0.7-0.5
		C428.7,19.2,427.6,19.4,427.6,18.9 M426.6,18.1h0.3v-0.4h-0.3V18.1z M430.6,19.4c0-0.5-0.2-0.9-0.8-0.9c-0.5,0-0.8,0.4-0.8,0.9
		c0,0.6,0.3,0.9,0.9,0.9c0.2,0,0.5-0.1,0.6-0.2v-0.2h-0.1c-0.2,0.1-0.4,0.2-0.6,0.2c-0.3,0-0.5-0.1-0.6-0.4c0-0.1,0-0.2,0-0.3v0
		H430.6z M429.8,18.7c0.3,0,0.5,0.2,0.5,0.5h-1.1C429.3,18.9,429.5,18.7,429.8,18.7 M414.9,20.3h1.7V20h-1.4v-0.9h1.3v-0.3h-1.3V18
		h1.4v-0.3h-1.7V20.3z M422.4,13.9h-6.3V10h5.8V8.9h-5.8V5.1h6.3V4h-7.6v11.1h7.6V13.9z M417.9,18.5c-0.2,0-0.5,0.1-0.6,0.3h0v-0.3
		H417v1.8h0.3v-1.1c0-0.3,0.3-0.4,0.5-0.4c0.3,0,0.5,0.2,0.5,0.4v1.1h0.3v-1.1C418.5,18.7,418.3,18.5,417.9,18.5 M419.4,17.9h-0.3
		l0,0.6h-0.3v0.2h0.3l0,1c0,0.4,0.1,0.5,0.4,0.5h0.2V20h-0.2c-0.1,0-0.2,0-0.2-0.3l0-1.1h0.4v-0.2h-0.4L419.4,17.9z M421.7,19.4
		c0-0.5-0.2-0.9-0.8-0.9c-0.5,0-0.8,0.4-0.8,0.9c0,0.6,0.3,0.9,0.9,0.9c0.2,0,0.5-0.1,0.6-0.2v-0.2h-0.1c-0.2,0.1-0.4,0.2-0.6,0.2
		c-0.3,0-0.5-0.1-0.6-0.4c0-0.1,0-0.2,0-0.3v0H421.7z M420.8,18.7c0.3,0,0.5,0.2,0.5,0.5h-1.1C420.3,18.9,420.5,18.7,420.8,18.7
		 M422.3,18.8L422.3,18.8l0-0.3H422v1.8h0.3v-1c0-0.3,0.2-0.5,0.4-0.5h0.2v-0.2h-0.2C422.5,18.5,422.4,18.6,422.3,18.8 M434.1,18.9
		c0-0.2,0.1-0.3,0.4-0.3c0.3,0,0.4,0.1,0.5,0.2h0.1v-0.3c-0.1-0.1-0.3-0.1-0.6-0.1c-0.5,0-0.7,0.2-0.7,0.5c0,0.6,1.1,0.5,1.1,0.9
		c0,0.2-0.1,0.3-0.4,0.3c-0.2,0-0.5-0.1-0.6-0.3h-0.1v0.3c0.2,0.1,0.4,0.2,0.7,0.2c0.5,0,0.7-0.2,0.7-0.5
		C435.2,19.2,434.1,19.4,434.1,18.9"/>
	<rect x="310.5" y="0.6" class="st4" width="35.3" height="23.6"/>
	<polygon class="st5" points="328.4,4.1 329.4,4.1 328.6,4.7 328.9,5.7 328.1,5.1 327.3,5.7 327.6,4.7 326.8,4.1 327.8,4.1 
		328.1,3.1 	"/>
	<polygon class="st5" points="328.5,19.8 329.5,19.8 328.7,20.4 329,21.4 328.2,20.8 327.3,21.4 327.7,20.4 326.8,19.8 327.9,19.8 
		328.2,18.8 	"/>
	<polygon class="st5" points="332.4,18.7 333.4,18.7 332.5,19.4 332.9,20.3 332.1,19.7 331.2,20.3 331.6,19.4 330.7,18.7 
		331.7,18.7 332.1,17.8 	"/>
	<polygon class="st5" points="332.4,5.1 333.4,5.1 332.5,5.7 332.9,6.7 332.1,6.1 331.2,6.7 331.6,5.7 330.7,5.1 331.7,5.1 
		332.1,4.2 	"/>
	<polygon class="st5" points="335.2,8 336.3,8 335.4,8.6 335.8,9.6 334.9,9 334.1,9.6 334.4,8.6 333.6,8 334.6,8 334.9,7 	"/>
	<polygon class="st5" points="335.2,15.9 336.3,15.9 335.4,16.5 335.8,17.5 334.9,16.9 334.1,17.5 334.4,16.5 333.6,15.9 
		334.6,15.9 334.9,14.9 	"/>
	<polygon class="st5" points="336.3,11.9 337.3,11.9 336.5,12.5 336.8,13.5 336,12.9 335.2,13.5 335.5,12.5 334.7,11.9 335.7,11.9 
		336,10.9 	"/>
	<polygon class="st5" points="324.4,5.1 325.5,5.1 324.6,5.7 325,6.7 324.1,6.1 323.3,6.7 323.7,5.7 322.8,5.1 323.8,5.1 324.1,4.2 
			"/>
	<polygon class="st5" points="321.6,8 322.7,8 321.8,8.6 322.2,9.6 321.3,9 320.5,9.6 320.8,8.6 320,8 321,8 321.3,7.1 	"/>
	<polygon class="st5" points="320.6,11.9 321.6,11.9 320.8,12.5 321.1,13.5 320.3,12.9 319.5,13.5 319.8,12.5 319,11.9 320,11.9 
		320.3,10.9 	"/>
	<polygon class="st5" points="321.6,15.9 322.7,15.9 321.8,16.5 322.2,17.5 321.3,16.9 320.5,17.5 320.8,16.5 320,15.9 321,15.9 
		321.3,15 	"/>
	<polygon class="st5" points="324.5,18.8 325.5,18.8 324.7,19.4 325,20.3 324.2,19.7 323.4,20.3 323.7,19.4 322.9,18.8 323.9,18.8 
		324.2,17.8 	"/>
	<g>
		<path class="st6" d="M365.7,4.6c2.8,0.3,5.3,1.2,7.5,2.5c0,0,0.1,0,0.2,0.1c-2.8-4-7.2-6.7-12.5-7.2c-4.6-0.4-8.9,1-12.2,3.6
			c2.5,0.5,4.7,1.8,6.4,3.5C358.1,5.3,361.8,4.3,365.7,4.6"/>
		<path class="st7" d="M376.3,15.5C376.3,15.5,376.3,15.5,376.3,15.5C376.3,15.5,376.3,15.5,376.3,15.5L376.3,15.5"/>
		<path class="st8" d="M376.3,15.7c0-0.1,0-0.3,0-0.3c-0.3-3-1.3-5.7-2.9-8.1c-0.1-0.1-0.1-0.1-0.2-0.1c-2.2-1.4-4.7-2.3-7.5-2.5
			c-3.9-0.4-7.6,0.6-10.6,2.6c1.9,2,3.1,4.6,3.4,7.4c0.1,0.7,0.1,1.4,0,2.2c-0.1,1.2-0.4,2.3-0.8,3.3c-0.7,1.9-1.9,3.5-3.4,4.8l0,0
			c5.6-3.3,12.6-4.7,19.5-3.6c-0.6,0.6-1.6,1.1-2.3,1.5c0.9-0.2,4.2-1.6,4.3-1.7c0,0,0,0,0,0h0C375.8,21,376.6,18.6,376.3,15.7"/>
		<path class="st7" d="M376,15.3c-2.2-1.5-4-2.4-7.8-2.7c-2.9-0.3-5.7,0.2-8.2,1.3c0.1,0.7,0.1,1.4,0,2.1c-0.3,3.5-2.2,6.5-4.9,8.4
			c6.9-4,13.2-4.5,18.5-3.7c0.4,0.1,1.5,0.2,2,0.4C376.3,17.9,376.1,15.8,376,15.3"/>
	</g>
</g>
</svg>
