<?xml version="1.0" encoding="utf-8"?>
<!-- Generator: Adobe Illustrator 27.2.0, SVG Export Plug-In . SVG Version: 6.00 Build 0)  -->
<svg version="1.1" id="Layer_1" xmlns="http://www.w3.org/2000/svg" xmlns:xlink="http://www.w3.org/1999/xlink" x="0px" y="0px"
	 viewBox="0 0 280 48.8" style="enable-background:new 0 0 280 48.8;" xml:space="preserve">
<style type="text/css">
	.st0{fill:#0066CC;}
	.st1{fill:#FFCC00;}
</style>
<g>
	<path class="st0" d="M60.6,8.2v13.6h-3.1V8.2H60.6z"/>
	<path class="st0" d="M65.7,13.9v7.8h-3.1V8.2h2.8l2.2,3.3l2.9,4.5h0.2V8.2h3.2v13.6h-2.8l-2.8-4.1L65.9,14L65.7,13.9
		C65.7,14,65.7,13.9,65.7,13.9z"/>
	<path class="st0" d="M80.8,21.7h-5.2V8.2h5.2c2.8,0,4.9,1.3,4.9,4.3v4.9C85.8,20.3,83.3,21.7,80.8,21.7z M82.6,13.1
		c0-1.5-1.2-2.1-2.1-2.1h-1.7v8h1.6c1,0,2.1-0.5,2.1-2.1L82.6,13.1L82.6,13.1z"/>
	<path class="st0" d="M92.7,21.8c-2.7,0-5.3-1.4-5.3-4.4V8.2h3.1V17c0,1.5,1.2,2.1,2.1,2.1c1,0,2.1-0.5,2.1-2.1V8.2h3.1v9.2
		C98,20.4,95.3,21.8,92.7,21.8z"/>
	<path class="st0" d="M104.5,21.8c-2,0-3.7-0.4-5.4-1.9l1.8-2.3c1.2,0.9,2.3,1.3,3.5,1.3c1.7,0,2.2-0.7,2.2-1.3c0-0.8-0.7-1.2-3-1.8
		c-2.5-0.7-3.9-1.6-3.9-3.9c0-2.5,2.1-4,4.9-4c1.5,0,3.1,0.2,4.7,1.3l-1.4,2.5c-1.3-0.8-2.3-0.9-3.4-0.9c-1,0-1.7,0.4-1.7,1.1
		c0,0.7,0.7,1.1,2.9,1.7c3.5,1,4,2.4,4,4.1C109.9,20.5,107.5,21.8,104.5,21.8z"/>
	<path class="st0" d="M117.1,10.9v10.7H114V10.9h-3.5V8.2h10V11h-3.4V10.9z"/>
	<path class="st0" d="M127.8,8.2c2.9,0,4.1,2.1,4.1,4.3c0,1.4-0.9,2.9-2.2,3.8l2.4,5.5h-3.3l-2.1-5h-2v5h-3.1V8.2H127.8z M124.9,14
		h2.3c1.2,0,1.6-0.7,1.6-1.5s-0.5-1.5-1.6-1.5h-2.3V14z"/>
	<path class="st0" d="M137.9,13.4l1-2.3l1.3-2.9h3.3l-4.1,8.2v5.4h-3.1v-5.4l-4-8.2h3.3l1.3,3L137.9,13.4L137.9,13.4z"/>
	<path class="st0" d="M150.7,13.9h1.5v-0.2c0-0.5-0.4-0.9-1.2-0.9c-0.5,0-1.2,0.1-2,0.6l-1.1-1.6c1.2-0.9,2.2-1.1,3.1-1.1
		c2,0,3.3,1,3.3,3.1v2.3c0,0.5,0.5,0.5,0.6,0.5c0.5,0,1.6-0.6,1.6-2.6c0-2.8-1.7-4.8-5.2-4.8c-3.7,0-6,2.5-6,5.4s2.1,5.5,5.5,5.5
		c0.6,0,1.3,0,2.5-0.4l0.6,1.8c-0.9,0.4-2.4,0.6-3.3,0.6c-4.6,0-7.4-3.2-7.4-7.3c0-4.2,3.3-7.4,8.1-7.4c4.9,0,7.3,3,7.3,6.8
		c0,2.6-1.7,4.7-4.1,4.7c-0.7,0-1.8-0.1-2.3-0.9c-0.8,0.5-1.7,0.8-2.2,0.8c-1.8,0-2.5-1.2-2.5-2.4C147.7,14.5,149.6,13.9,150.7,13.9
		z M152.2,15.5h-1.4c-0.4,0-0.8,0.1-0.8,0.5c0,0.3,0.3,0.5,0.7,0.5c0.7,0,1.2-0.3,1.4-0.4L152.2,15.5L152.2,15.5z"/>
	<path class="st0" d="M166.3,10.9v10.7h-3.1V10.9h-3.5V8.2h10V11h-3.4V10.9z"/>
	<path class="st0" d="M177.1,19.1h-4.4l-0.8,2.7h-3.4l4.8-13.6h3.2l4.7,13.6h-3.3L177.1,19.1z M173.5,16.5h2.8l-0.3-0.9l-1.1-3.8
		l0,0l-1.1,3.8L173.5,16.5z"/>
	<path class="st0" d="M182.5,21.7V8.2h3.1v10.7h6.4v2.8L182.5,21.7L182.5,21.7z"/>
	<path class="st0" d="M193.1,21.7V8.2h3.1v10.7h6.4v2.8L193.1,21.7L193.1,21.7z"/>
	<path class="st0" d="M207,8.2v13.6h-3.1V8.2H207z"/>
	<path class="st0" d="M212.1,13.9v7.8H209V8.2h2.8l2.2,3.3l2.9,4.5h0.1V8.2h3.1v13.6h-2.8l-2.8-4.1L212.1,13.9L212.1,13.9
		L212.1,13.9z"/>
	<path class="st0" d="M225.2,13.9v7.8h-3.1V8.2h2.8l2.2,3.3L230,16h0.1V8.2h3.1v13.6h-2.8l-2.8-4.1L225.2,13.9L225.2,13.9
		L225.2,13.9z"/>
	<path class="st1" d="M68.2,39.6c0.8,0.7,1.8,1.3,2.9,1.9l-1.1,2c-1.2-0.4-2.9-1.5-3.8-2.4c-0.7,0.6-2.1,1.3-3.5,1.3
		c-2.4,0-4.4-1.5-4.4-4c0-1.8,1.3-3.1,2.7-3.9c-0.4-0.6-0.6-1.3-0.6-2.1c0-1.8,1.2-3.1,3-3.1s3.1,1.3,3.1,2.9c0,1.5-1.1,2.5-2.1,3.2
		c0.6,1,1.3,1.9,2.1,2.8c1.2-1.3,1.8-3.1,1.8-4.6c0-2.8-1.8-5.1-4.8-5.1c-2.8,0-4.5,1.7-4.5,3.7c0,0.7,0.1,1.5,0.8,2.6l-2,1.3
		c-0.9-1.3-1.2-2.6-1.2-3.7c0-3.1,2.6-6.1,6.8-6.1c4.6,0,7.2,3.3,7.2,7.3C70.7,35.5,69.8,37.8,68.2,39.6z M62.6,36.2
		c-0.9,0.5-1.7,1.2-1.7,2c0,1.2,0.7,1.8,1.8,1.8c0.6,0,1.3-0.2,2.1-0.6C64.1,38.6,63.1,37.1,62.6,36.2z M63.6,31.3
		c-0.4,0-0.6,0.4-0.6,0.8s0.2,0.6,0.4,1.1c0.6-0.4,0.9-0.7,0.9-1.2C64.4,31.7,64,31.3,63.6,31.3z"/>
	<path class="st1" d="M84,42h-6.6V28.5h6.3c2.9,0,3.9,1.7,3.9,3.8c0,1-0.5,2.1-1.7,2.7c1.3,0.6,2,2.1,2,3C87.9,40.3,86.6,42,84,42z
		 M82.9,31.3h-2.3v2.5h2.3c1.1,0,1.5-0.5,1.5-1.2C84.4,31.8,84.1,31.3,82.9,31.3z M83,36.4h-2.5v2.9H83c1,0,1.5-0.5,1.5-1.4
		C84.6,37,84.1,36.4,83,36.4z"/>
	<path class="st1" d="M96.9,39.3h-4.4L91.7,42h-3.4L93,28.4h3.2l4.7,13.6h-3.3L96.9,39.3z M93.4,36.8h2.8l-0.3-0.9l-1.1-3.8h-0.1
		l-1.1,3.7L93.4,36.8z"/>
	<path class="st1" d="M102.3,42V28.5h3.1v10.7h6.4V42H102.3z"/>
	<path class="st1" d="M117.2,31.3V42h-3.1V31.3h-3.5v-2.8h10v2.8H117.2z"/>
	<path class="st1" d="M125.1,28.5v13.6H122V28.5H125.1z"/>
	<path class="st1" d="M135.1,32.2c-0.9-0.8-1.9-1-2.7-1c-1,0-2.2,0.5-2.2,2.1v3.8c0,1.5,1.3,2.1,2.2,2.1c0.8,0,1.7-0.2,2.7-1
		l1.5,2.4c-1.1,0.9-2.7,1.3-4.3,1.3c-2.5,0-5.3-1.3-5.3-4.3v-5.1c0-2.9,2.7-4.4,5.3-4.4c1.6,0,3.3,0.4,4.3,1.3L135.1,32.2z"/>
	<path class="st1" d="M142.6,28.5h9.5v2.8h-6.3v2.5h5.5v2.8h-5.5v2.7h6.3V42h-9.5V28.5z"/>
	<path class="st1" d="M159.1,37.5l1.3-4.9l1.2-4.1h3.3L160.6,42h-3.2L153,28.4h3.3l1.3,4.2l1.3,4.8h0.2L159.1,37.5L159.1,37.5z"/>
	<path class="st1" d="M166.1,28.5h9.5v2.8h-6.3v2.5h5.5v2.8h-5.5v2.7h6.3V42h-9.5V28.5z"/>
	<path class="st1" d="M180.2,34.2V42h-3.1V28.5h2.8l2.2,3.3l2.9,4.5h0.1v-7.8h3.1v13.6h-2.8l-2.8-4.1L180.2,34.2L180.2,34.2
		L180.2,34.2z"/>
	<path class="st1" d="M196,31.3V42h-3.1V31.3h-3.5v-2.8h10v2.8H196z"/>
	<g>
		<g id="XMLID_00000042728817473455043980000002778546498597305749_">
			<path class="st1" d="M32,24.4h14.4c-0.9,5.1-3.3,10.2-7,14.4c-9.5,10.6-24.3,12.9-33.2,4.8C1,38.9-0.9,31.7,0.3,24.4h14.4
				c0,2.2,0.9,4.4,2.6,6.1c3.4,3.4,8.9,3.4,12.3,0C31.2,28.9,32,26.6,32,24.4z"/>
			<path class="st1" d="M19.8,24.4h7c0,0.9-0.4,1.7-1,2.4c-1.3,1.3-3.5,1.4-4.9,0C20.2,26.2,19.8,25.3,19.8,24.4z"/>
		</g>
		<g id="XMLID_00000104692924038852649780000001566169083359930809_">
			<path class="st0" d="M41,5.5c4.9,4.7,6.6,11.8,5.4,18.9H32c0-2.2-0.8-4.5-2.6-6.2c-3.4-3.4-8.9-3.4-12.3,0
				c-1.7,1.7-2.6,3.9-2.5,6.2H0.2c0.9-5.2,3.3-10.5,7.3-14.9C17.2-0.9,32.2-2.8,41,5.5z"/>
			<path class="st0" d="M25.8,22c0.7,0.7,1.1,1.6,1,2.5h-7c0-0.9,0.4-1.8,1-2.5C22.2,20.7,24.5,20.7,25.8,22z"/>
		</g>
	</g>
	<path class="st0" d="M223.5,36.1v-0.9h4.3v0.9H223.5z"/>
	<path class="st0" d="M234.9,29.5c0.5,0.6,0.8,1.4,0.8,2.4c0,0.8-0.1,1.6-0.4,2.4c-0.3,0.7-0.7,1.6-1.4,2.5c-0.6,0.9-1.6,2.3-3,4.1
		h5.1l-0.2,1h-6.1V41c1.4-1.8,2.4-3.2,3.1-4.2c0.7-1,1.1-1.8,1.4-2.5c0.3-0.7,0.4-1.4,0.4-2.2c0-0.8-0.2-1.3-0.5-1.8
		c-0.4-0.4-0.8-0.6-1.4-0.6c-0.5,0-0.9,0.1-1.3,0.4c-0.4,0.2-0.7,0.6-1.1,1.1l-0.7-0.5c0.4-0.6,0.9-1.1,1.4-1.4s1.1-0.4,1.7-0.4
		C233.6,28.6,234.4,28.9,234.9,29.5z"/>
	<path class="st0" d="M256.8,41.8h-1.5l-5-12.1c0.1,1.2,0.2,2.7,0.2,4.5v7.6h-1.1V28.4h1.5l4.9,12.1c-0.1-1.6-0.2-2.9-0.2-3.9v-8.2
		h1.1v13.4C256.7,41.8,256.8,41.8,256.8,41.8z"/>
	<path class="st0" d="M267.4,29.9c0.8,1.2,1.2,2.9,1.2,5.2s-0.4,4-1.2,5.1c-0.8,1.2-1.9,1.7-3.3,1.7s-2.5-0.6-3.3-1.7
		c-0.8-1.2-1.2-2.9-1.2-5.1c0-2.3,0.4-4,1.2-5.2c0.8-1.2,1.9-1.8,3.3-1.8C265.4,28.2,266.6,28.8,267.4,29.9z M261.6,30.6
		c-0.6,1-0.9,2.5-0.9,4.5s0.3,3.5,0.9,4.5S263,41,264,41c1.1,0,1.9-0.5,2.5-1.4s0.9-2.4,0.9-4.5c0-4-1.1-5.9-3.3-5.9
		C263,29.2,262.2,29.7,261.6,30.6z"/>
	<path class="st0" d="M278.2,28.4l-3.5,13.4h-1.3l-3.5-13.4h1.2l3.1,12.2l3-12.2C277.2,28.4,278.2,28.4,278.2,28.4z"/>
	<path class="st0" d="M211.4,28.7v13.1h-1.1V30l-2.6,1.9l-0.5-0.8l3.3-2.4H211.4z"/>
	<path class="st0" d="M242.4,28.7v13.1h-1.1V30l-2.6,1.9l-0.5-0.8l3.3-2.4H242.4z"/>
	<path class="st0" d="M221.3,37.4v0.9h-1.4v3.4h-1.1v-3.4h-4.7v-0.8l3.2-9l0.9,0.3l-3.1,8.6h3.6l0.1-3.9h0.9v3.9H221.3z"/>
</g>
</svg>
