<?xml version="1.0" encoding="UTF-8"?>
<svg id="Layer_1" xmlns="http://www.w3.org/2000/svg" version="1.1" viewBox="0 0 280 48.8">
  <!-- Generator: Adobe Illustrator 30.1.0, SVG Export Plug-In . SVG Version: 2.1.1 Build 136)  -->
  <defs>
    <style>
      .st0 {
        fill: #fc0;
      }

      .st1 {
        fill: #06c;
      }
    </style>
  </defs>
  <path class="st1" d="M60.6,8.2v13.6h-3.1v-13.6h3.1Z"/>
  <path class="st1" d="M65.7,13.9v7.8h-3.1v-13.5h2.8l2.2,3.3,2.9,4.5h.2v-7.8h3.2v13.6h-2.8l-2.8-4.1-2.4-3.7h-.2Z"/>
  <path class="st1" d="M80.8,21.7h-5.2v-13.5h5.2c2.8,0,4.9,1.3,4.9,4.3v4.9c0,2.9-2.4,4.3-4.9,4.3ZM82.6,13.1c0-1.5-1.2-2.1-2.1-2.1h-1.7v8h1.6c1,0,2.1-.5,2.1-2.1v-3.8h0Z"/>
  <path class="st1" d="M92.7,21.8c-2.7,0-5.3-1.4-5.3-4.4v-9.2h3.1v8.8c0,1.5,1.2,2.1,2.1,2.1s2.1-.5,2.1-2.1v-8.8h3.1v9.2c.2,3-2.5,4.4-5.1,4.4Z"/>
  <path class="st1" d="M104.5,21.8c-2,0-3.7-.4-5.4-1.9l1.8-2.3c1.2.9,2.3,1.3,3.5,1.3,1.7,0,2.2-.7,2.2-1.3s-.7-1.2-3-1.8c-2.5-.7-3.9-1.6-3.9-3.9s2.1-4,4.9-4,3.1.2,4.7,1.3l-1.4,2.5c-1.3-.8-2.3-.9-3.4-.9s-1.7.4-1.7,1.1.7,1.1,2.9,1.7c3.5,1,4,2.4,4,4.1.2,2.8-2.2,4.1-5.2,4.1Z"/>
  <path class="st1" d="M117.1,10.9v10.7h-3.1v-10.7h-3.5v-2.7h10v2.8h-3.4Z"/>
  <path class="st1" d="M127.8,8.2c2.9,0,4.1,2.1,4.1,4.3s-.9,2.9-2.2,3.8l2.4,5.5h-3.3l-2.1-5h-2v5h-3.1v-13.6h6.2ZM124.9,14h2.3c1.2,0,1.6-.7,1.6-1.5s-.5-1.5-1.6-1.5h-2.3v3Z"/>
  <path class="st1" d="M137.9,13.4l1-2.3,1.3-2.9h3.3l-4.1,8.2v5.4h-3.1v-5.4l-4-8.2h3.3l1.3,3,1,2.2h0Z"/>
  <path class="st1" d="M150.7,13.9h1.5v-.2c0-.5-.4-.9-1.2-.9s-1.2.1-2,.6l-1.1-1.6c1.2-.9,2.2-1.1,3.1-1.1,2,0,3.3,1,3.3,3.1v2.3c0,.5.5.5.6.5.5,0,1.6-.6,1.6-2.6s-1.7-4.8-5.2-4.8-6,2.5-6,5.4,2.1,5.5,5.5,5.5,1.3,0,2.5-.4l.6,1.8c-.9.4-2.4.6-3.3.6-4.6,0-7.4-3.2-7.4-7.3s3.3-7.4,8.1-7.4,7.3,3,7.3,6.8-1.7,4.7-4.1,4.7-1.8-.1-2.3-.9c-.8.5-1.7.8-2.2.8-1.8,0-2.5-1.2-2.5-2.4.2-1.9,2.1-2.5,3.2-2.5ZM152.2,15.5h-1.4c-.4,0-.8.1-.8.5s.3.5.7.5c.7,0,1.2-.3,1.4-.4v-.6h.1Z"/>
  <path class="st1" d="M166.3,10.9v10.7h-3.1v-10.7h-3.5v-2.7h10v2.8h-3.4Z"/>
  <path class="st1" d="M177.1,19.1h-4.4l-.8,2.7h-3.4l4.8-13.6h3.2l4.7,13.6h-3.3l-.8-2.7ZM173.5,16.5h2.8l-.3-.9-1.1-3.8h0l-1.1,3.8-.3.9Z"/>
  <path class="st1" d="M182.5,21.7v-13.5h3.1v10.7h6.4v2.8h-9.5Z"/>
  <path class="st1" d="M193.1,21.7v-13.5h3.1v10.7h6.4v2.8h-9.5Z"/>
  <path class="st1" d="M207,8.2v13.6h-3.1v-13.6h3.1Z"/>
  <path class="st1" d="M212.1,13.9v7.8h-3.1v-13.5h2.8l2.2,3.3,2.9,4.5h.1v-7.8h3.1v13.6h-2.8l-2.8-4.1-2.4-3.8h0Z"/>
  <path class="st1" d="M225.2,13.9v7.8h-3.1v-13.5h2.8l2.2,3.3,2.9,4.5h.1v-7.8h3.1v13.6h-2.8l-2.8-4.1-2.4-3.8h0Z"/>
  <path class="st0" d="M68.2,39.6c.8.7,1.8,1.3,2.9,1.9l-1.1,2c-1.2-.4-2.9-1.5-3.8-2.4-.7.6-2.1,1.3-3.5,1.3-2.4,0-4.4-1.5-4.4-4s1.3-3.1,2.7-3.9c-.4-.6-.6-1.3-.6-2.1,0-1.8,1.2-3.1,3-3.1s3.1,1.3,3.1,2.9-1.1,2.5-2.1,3.2c.6,1,1.3,1.9,2.1,2.8,1.2-1.3,1.8-3.1,1.8-4.6,0-2.8-1.8-5.1-4.8-5.1s-4.5,1.7-4.5,3.7,0,1.5.8,2.6l-2,1.3c-.9-1.3-1.2-2.6-1.2-3.7,0-3.1,2.6-6.1,6.8-6.1s7.2,3.3,7.2,7.3c0,1.9-.8,4.2-2.4,6ZM62.6,36.2c-.9.5-1.7,1.2-1.7,2,0,1.2.7,1.8,1.8,1.8s1.3-.2,2.1-.6c-.7-.8-1.7-2.3-2.2-3.2ZM63.6,31.3c-.4,0-.6.4-.6.8s.2.6.4,1.1c.6-.4.9-.7.9-1.2,0-.3-.3-.7-.7-.7Z"/>
  <path class="st0" d="M84,42h-6.6v-13.5h6.3c2.9,0,3.9,1.7,3.9,3.8s-.5,2.1-1.7,2.7c1.3.6,2,2.1,2,3,0,2.3-1.3,4-3.9,4ZM82.9,31.3h-2.3v2.5h2.3c1.1,0,1.5-.5,1.5-1.2s-.3-1.3-1.5-1.3ZM83,36.4h-2.5v2.9h2.5c1,0,1.5-.5,1.5-1.4,0-.9-.4-1.5-1.5-1.5Z"/>
  <path class="st0" d="M96.9,39.3h-4.4l-.8,2.7h-3.4l4.7-13.6h3.2l4.7,13.6h-3.3l-.7-2.7ZM93.4,36.8h2.8l-.3-.9-1.1-3.8h0l-1.1,3.7-.2,1Z"/>
  <path class="st0" d="M102.3,42v-13.5h3.1v10.7h6.4v2.8h-9.5Z"/>
  <path class="st0" d="M117.2,31.3v10.7h-3.1v-10.7h-3.5v-2.8h10v2.8h-3.4Z"/>
  <path class="st0" d="M125.1,28.5v13.6h-3.1v-13.6h3.1Z"/>
  <path class="st0" d="M135.1,32.2c-.9-.8-1.9-1-2.7-1s-2.2.5-2.2,2.1v3.8c0,1.5,1.3,2.1,2.2,2.1s1.7-.2,2.7-1l1.5,2.4c-1.1.9-2.7,1.3-4.3,1.3-2.5,0-5.3-1.3-5.3-4.3v-5.1c0-2.9,2.7-4.4,5.3-4.4s3.3.4,4.3,1.3l-1.5,2.8Z"/>
  <path class="st0" d="M142.6,28.5h9.5v2.8h-6.3v2.5h5.5v2.8h-5.5v2.7h6.3v2.7h-9.5v-13.5Z"/>
  <path class="st0" d="M159.1,37.5l1.3-4.9,1.2-4.1h3.3l-4.3,13.5h-3.2l-4.4-13.6h3.3l1.3,4.2,1.3,4.8h.2Z"/>
  <path class="st0" d="M166.1,28.5h9.5v2.8h-6.3v2.5h5.5v2.8h-5.5v2.7h6.3v2.7h-9.5v-13.5Z"/>
  <path class="st0" d="M180.2,34.2v7.8h-3.1v-13.5h2.8l2.2,3.3,2.9,4.5h.1v-7.8h3.1v13.6h-2.8l-2.8-4.1-2.4-3.8h0Z"/>
  <path class="st0" d="M196,31.3v10.7h-3.1v-10.7h-3.5v-2.8h10v2.8h-3.4Z"/>
  <g>
    <g>
      <path class="st0" d="M32,24.4h14.4c-.9,5.1-3.3,10.2-7,14.4-9.5,10.6-24.3,12.9-33.2,4.8C1,38.9-.9,31.7.3,24.4h14.4c0,2.2.9,4.4,2.6,6.1,3.4,3.4,8.9,3.4,12.3,0,1.6-1.6,2.4-3.9,2.4-6.1Z"/>
      <path class="st0" d="M19.8,24.4h7c0,.9-.4,1.7-1,2.4-1.3,1.3-3.5,1.4-4.9,0-.7-.6-1.1-1.5-1.1-2.4Z"/>
    </g>
    <g>
      <path class="st1" d="M41,5.5c4.9,4.7,6.6,11.8,5.4,18.9h-14.4c0-2.2-.8-4.5-2.6-6.2-3.4-3.4-8.9-3.4-12.3,0-1.7,1.7-2.6,3.9-2.5,6.2H.2c.9-5.2,3.3-10.5,7.3-14.9C17.2-.9,32.2-2.8,41,5.5Z"/>
      <path class="st1" d="M25.8,22c.7.7,1.1,1.6,1,2.5h-7c0-.9.4-1.8,1-2.5,1.4-1.3,3.7-1.3,5,0Z"/>
    </g>
  </g>
  <g>
    <path class="st1" d="M214,34c0,1.7-.2,3-.6,4.1s-1,1.9-1.8,2.5-1.8,1.2-3.1,1.6l-.3-.8c1.5-.5,2.6-1.3,3.3-2.2s1.2-2.2,1.3-3.8c-.3.5-.7.9-1.1,1.2s-.9.4-1.4.4-1-.2-1.5-.5-.8-.8-1.1-1.4-.4-1.3-.4-2.2c0-1.4.3-2.4.9-3.1.6-.7,1.4-1.1,2.4-1.1,2.2,0,3.3,1.7,3.3,5.2ZM211.8,35.7c.4-.3.7-.8,1.1-1.4,0-1.6-.2-2.8-.5-3.5-.3-.7-.9-1.1-1.7-1.1s-1.2.3-1.6.8-.6,1.4-.6,2.5.2,1.8.5,2.3c.4.5.9.8,1.5.8s.9-.2,1.3-.5Z"/>
    <path class="st1" d="M216.1,36.3v-.9h4.3v.9h-4.3Z"/>
    <path class="st1" d="M225.6,29.7c.5.6.8,1.4.8,2.3s-.1,1.6-.4,2.3c-.3.7-.7,1.6-1.4,2.5s-1.6,2.3-2.9,4h5l-.2,1h-6v-.9c1.4-1.8,2.4-3.2,3-4.2.6-1,1.1-1.8,1.4-2.5.3-.7.4-1.4.4-2.2s-.2-1.3-.5-1.7c-.3-.4-.8-.6-1.4-.6s-.9.1-1.3.3c-.4.2-.7.6-1.1,1.1l-.7-.5c.4-.6.9-1.1,1.4-1.4.5-.3,1.1-.4,1.7-.4.9,0,1.7.3,2.2.9Z"/>
    <path class="st1" d="M234.6,30.4c.6,1.1.8,2.8.8,5s-.3,3.9-.8,5c-.6,1.1-1.4,1.6-2.5,1.6s-2-.5-2.5-1.6c-.6-1.1-.9-2.8-.9-5s.3-3.9.8-5c.6-1.1,1.4-1.6,2.5-1.6s2,.5,2.5,1.6ZM230.3,31c-.4.9-.6,2.3-.6,4.4s.2,3.5.6,4.4c.4.9.9,1.3,1.7,1.3s1.3-.4,1.7-1.3c.4-.9.5-2.3.5-4.4s-.2-3.5-.5-4.4c-.4-.9-.9-1.3-1.7-1.3s-1.3.4-1.7,1.3Z"/>
    <path class="st1" d="M249.9,41.8h-1.5l-4.9-12c.1,1.2.2,2.7.2,4.5v7.5h-1v-13.2h1.5l4.9,12c-.1-1.5-.2-2.8-.2-3.9v-8.1h1.1v13.2Z"/>
    <path class="st1" d="M260.3,30.1c.8,1.1,1.2,2.8,1.2,5.1s-.4,3.9-1.2,5.1c-.8,1.2-1.9,1.7-3.3,1.7s-2.5-.6-3.3-1.7c-.8-1.1-1.2-2.8-1.2-5.1s.4-3.9,1.2-5.1,1.9-1.7,3.3-1.7,2.5.6,3.3,1.7ZM254.6,30.8c-.6,1-.9,2.4-.9,4.5s.3,3.5.9,4.4c.6.9,1.4,1.4,2.4,1.4s1.9-.5,2.5-1.4c.6-.9.8-2.4.8-4.4,0-3.9-1.1-5.9-3.3-5.9s-1.9.5-2.4,1.4Z"/>
    <path class="st1" d="M271,28.6l-3.5,13.2h-1.3l-3.5-13.2h1.1l3,12.1,3-12.1h1.1Z"/>
  </g>
</svg>