<?xml version="1.0" encoding="utf-8"?>
<!-- Generator: Adobe Illustrator 27.2.0, SVG Export Plug-In . SVG Version: 6.00 Build 0)  -->
<svg version="1.1" id="Layer_1" xmlns="http://www.w3.org/2000/svg" xmlns:xlink="http://www.w3.org/1999/xlink" x="0px" y="0px"
	 viewBox="0 0 280 48.8" style="enable-background:new 0 0 280 48.8;" xml:space="preserve">
<style type="text/css">
	.st0{fill:#0066CC;}
	.st1{fill:#FFCC00;}
</style>
<g>
	<path class="st0" d="M61.5,8.2v13.6h-3.1V8.2H61.5z"/>
	<path class="st0" d="M66.6,13.9v7.8h-3.1V8.2h2.8l2.2,3.3l2.9,4.5h0.2V8.2h3.2v13.6H72l-2.8-4.1L66.8,14L66.6,13.9
		C66.6,14,66.6,13.9,66.6,13.9z"/>
	<path class="st0" d="M81.7,21.7h-5.2V8.2h5.2c2.8,0,4.9,1.3,4.9,4.3v4.9C86.7,20.3,84.2,21.7,81.7,21.7z M83.5,13.1
		c0-1.5-1.2-2.1-2.1-2.1h-1.7v8h1.6c1,0,2.1-0.5,2.1-2.1L83.5,13.1L83.5,13.1z"/>
	<path class="st0" d="M93.6,21.8c-2.7,0-5.3-1.4-5.3-4.4V8.2h3.1V17c0,1.5,1.2,2.1,2.1,2.1c1,0,2.1-0.5,2.1-2.1V8.2h3.1v9.2
		C98.9,20.4,96.2,21.8,93.6,21.8z"/>
	<path class="st0" d="M105.4,21.8c-2,0-3.7-0.4-5.4-1.9l1.8-2.3c1.2,0.9,2.3,1.3,3.5,1.3c1.7,0,2.2-0.7,2.2-1.3c0-0.8-0.7-1.2-3-1.8
		c-2.5-0.7-3.9-1.6-3.9-3.9c0-2.5,2.1-4,4.9-4c1.5,0,3.1,0.2,4.7,1.3l-1.4,2.5c-1.3-0.8-2.3-0.9-3.4-0.9c-1,0-1.7,0.4-1.7,1.1
		c0,0.7,0.7,1.1,2.9,1.7c3.5,1,4,2.4,4,4.1C110.8,20.5,108.4,21.8,105.4,21.8z"/>
	<path class="st0" d="M118,10.9v10.7h-3.1V10.9h-3.5V8.2h10V11H118V10.9z"/>
	<path class="st0" d="M128.7,8.2c2.9,0,4.1,2.1,4.1,4.3c0,1.4-0.9,2.9-2.2,3.8l2.4,5.5h-3.3l-2.1-5h-2v5h-3.1V8.2H128.7z M125.8,14
		h2.3c1.2,0,1.6-0.7,1.6-1.5s-0.5-1.5-1.6-1.5h-2.3V14z"/>
	<path class="st0" d="M138.8,13.4l1-2.3l1.3-2.9h3.3l-4.1,8.2v5.4h-3.1v-5.4l-4-8.2h3.3l1.3,3L138.8,13.4L138.8,13.4z"/>
	<path class="st0" d="M151.6,13.9h1.5v-0.2c0-0.5-0.4-0.9-1.2-0.9c-0.5,0-1.2,0.1-2,0.6l-1.1-1.6c1.2-0.9,2.2-1.1,3.1-1.1
		c2,0,3.3,1,3.3,3.1v2.3c0,0.5,0.5,0.5,0.6,0.5c0.5,0,1.6-0.6,1.6-2.6c0-2.8-1.7-4.8-5.2-4.8c-3.7,0-6,2.5-6,5.4s2.1,5.5,5.5,5.5
		c0.6,0,1.3,0,2.5-0.4l0.6,1.8c-0.9,0.4-2.4,0.6-3.3,0.6c-4.6,0-7.4-3.2-7.4-7.3c0-4.2,3.3-7.4,8.1-7.4c4.9,0,7.3,3,7.3,6.8
		c0,2.6-1.7,4.7-4.1,4.7c-0.7,0-1.8-0.1-2.3-0.9c-0.8,0.5-1.7,0.8-2.2,0.8c-1.8,0-2.5-1.2-2.5-2.4C148.6,14.5,150.5,13.9,151.6,13.9
		z M153.1,15.5h-1.4c-0.4,0-0.8,0.1-0.8,0.5c0,0.3,0.3,0.5,0.7,0.5c0.7,0,1.2-0.3,1.4-0.4L153.1,15.5L153.1,15.5z"/>
	<path class="st0" d="M167.2,10.9v10.7h-3.1V10.9h-3.5V8.2h10V11h-3.4V10.9z"/>
	<path class="st0" d="M178,19.1h-4.4l-0.8,2.7h-3.4l4.8-13.6h3.2l4.7,13.6h-3.3L178,19.1z M174.4,16.5h2.8l-0.3-0.9l-1.1-3.8l0,0
		l-1.1,3.8L174.4,16.5z"/>
	<path class="st0" d="M183.4,21.7V8.2h3.1v10.7h6.4v2.8L183.4,21.7L183.4,21.7z"/>
	<path class="st0" d="M194,21.7V8.2h3.1v10.7h6.4v2.8L194,21.7L194,21.7z"/>
	<path class="st0" d="M207.9,8.2v13.6h-3.1V8.2H207.9z"/>
	<path class="st0" d="M213,13.9v7.8h-3.1V8.2h2.8l2.2,3.3l2.9,4.5h0.1V8.2h3.1v13.6h-2.8l-2.8-4.1L213,13.9L213,13.9L213,13.9z"/>
	<path class="st0" d="M226.1,13.9v7.8H223V8.2h2.8l2.2,3.3l2.9,4.5h0.1V8.2h3.1v13.6h-2.8l-2.8-4.1L226.1,13.9L226.1,13.9
		L226.1,13.9z"/>
	<path class="st1" d="M69.1,39.6c0.8,0.7,1.8,1.3,2.9,1.9l-1.1,2c-1.2-0.4-2.9-1.5-3.8-2.4c-0.7,0.6-2.1,1.3-3.5,1.3
		c-2.4,0-4.4-1.5-4.4-4c0-1.8,1.3-3.1,2.7-3.9c-0.4-0.6-0.6-1.3-0.6-2.1c0-1.8,1.2-3.1,3-3.1c1.8,0,3.1,1.3,3.1,2.9
		c0,1.5-1.1,2.5-2.1,3.2c0.6,1,1.3,1.9,2.1,2.8c1.2-1.3,1.8-3.1,1.8-4.6c0-2.8-1.8-5.1-4.8-5.1c-2.8,0-4.5,1.7-4.5,3.7
		c0,0.7,0.1,1.5,0.8,2.6l-2,1.3c-0.9-1.3-1.2-2.6-1.2-3.7c0-3.1,2.6-6.1,6.8-6.1c4.6,0,7.2,3.3,7.2,7.3
		C71.6,35.5,70.7,37.8,69.1,39.6z M63.5,36.2c-0.9,0.5-1.7,1.2-1.7,2c0,1.2,0.7,1.8,1.8,1.8c0.6,0,1.3-0.2,2.1-0.6
		C65,38.6,64,37.1,63.5,36.2z M64.5,31.3c-0.4,0-0.6,0.4-0.6,0.8c0,0.4,0.2,0.6,0.4,1.1c0.6-0.4,0.9-0.7,0.9-1.2
		C65.3,31.7,64.9,31.3,64.5,31.3z"/>
	<path class="st1" d="M84.9,42h-6.6V28.5h6.3c2.9,0,3.9,1.7,3.9,3.8c0,1-0.5,2.1-1.7,2.7c1.3,0.6,2,2.1,2,3
		C88.8,40.3,87.5,42,84.9,42z M83.8,31.3h-2.3v2.5h2.3c1.1,0,1.5-0.5,1.5-1.2C85.3,31.8,85,31.3,83.8,31.3z M83.9,36.4h-2.5v2.9h2.5
		c1,0,1.5-0.5,1.5-1.4C85.5,37,85,36.4,83.9,36.4z"/>
	<path class="st1" d="M97.8,39.3h-4.4L92.6,42h-3.4l4.7-13.6h3.2l4.7,13.6h-3.3L97.8,39.3z M94.3,36.8h2.8l-0.3-0.9l-1.1-3.8h-0.1
		l-1.1,3.7L94.3,36.8z"/>
	<path class="st1" d="M103.2,42V28.5h3.1v10.7h6.4V42H103.2z"/>
	<path class="st1" d="M118.1,31.3V42H115V31.3h-3.5v-2.8h10v2.8H118.1z"/>
	<path class="st1" d="M126,28.5v13.6h-3.1V28.5H126z"/>
	<path class="st1" d="M136,32.2c-0.9-0.8-1.9-1-2.7-1c-1,0-2.2,0.5-2.2,2.1v3.8c0,1.5,1.3,2.1,2.2,2.1c0.8,0,1.7-0.2,2.7-1l1.5,2.4
		c-1.1,0.9-2.7,1.3-4.3,1.3c-2.5,0-5.3-1.3-5.3-4.3v-5.1c0-2.9,2.7-4.4,5.3-4.4c1.6,0,3.3,0.4,4.3,1.3L136,32.2z"/>
	<path class="st1" d="M143.5,28.5h9.5v2.8h-6.3v2.5h5.5v2.8h-5.5v2.7h6.3V42h-9.5V28.5z"/>
	<path class="st1" d="M160,37.5l1.3-4.9l1.2-4.1h3.3L161.5,42h-3.2l-4.4-13.6h3.3l1.3,4.2l1.3,4.8h0.2V37.5z"/>
	<path class="st1" d="M167,28.5h9.5v2.8h-6.3v2.5h5.5v2.8h-5.5v2.7h6.3V42H167V28.5z"/>
	<path class="st1" d="M181.1,34.2V42H178V28.5h2.8l2.2,3.3l2.9,4.5h0.1v-7.8h3.1v13.6h-2.8l-2.8-4.1L181.1,34.2L181.1,34.2
		L181.1,34.2z"/>
	<path class="st1" d="M196.9,31.3V42h-3.1V31.3h-3.5v-2.8h10v2.8H196.9z"/>
	<g>
		<g id="XMLID_00000018238116009917024300000018175453015894901125_">
			<path class="st1" d="M32.9,24.4h14.4c-0.9,5.1-3.3,10.2-7,14.4C30.8,49.4,16,51.7,7.1,43.6C1.9,38.9,0,31.7,1.2,24.4h14.4
				c0,2.2,0.9,4.4,2.6,6.1c3.4,3.4,8.9,3.4,12.3,0C32.1,28.9,32.9,26.6,32.9,24.4z"/>
			<path class="st1" d="M20.7,24.4h7c0,0.9-0.4,1.7-1,2.4c-1.3,1.3-3.5,1.4-4.9,0C21.1,26.2,20.7,25.3,20.7,24.4z"/>
		</g>
		<g id="XMLID_00000172436888910342890510000010745209830598214540_">
			<path class="st0" d="M41.9,5.5c4.9,4.7,6.6,11.8,5.4,18.9H32.9c0-2.2-0.8-4.5-2.6-6.2c-3.4-3.4-8.9-3.4-12.3,0
				c-1.7,1.7-2.6,3.9-2.5,6.2H1.1C2,19.2,4.4,13.9,8.4,9.5C18.1-0.9,33.1-2.8,41.9,5.5z"/>
			<path class="st0" d="M26.7,22c0.7,0.7,1.1,1.6,1,2.5h-7c0-0.9,0.4-1.8,1-2.5C23.1,20.7,25.4,20.7,26.7,22z"/>
		</g>
	</g>
	<path class="st0" d="M224.4,36.1v-0.9h4.3v0.9H224.4z"/>
	<path class="st0" d="M235.8,29.5c0.5,0.6,0.8,1.4,0.8,2.4c0,0.8-0.1,1.6-0.4,2.4c-0.3,0.7-0.7,1.6-1.4,2.5c-0.6,0.9-1.6,2.3-3,4.1
		h5.1l-0.2,1h-6.1V41c1.4-1.8,2.4-3.2,3.1-4.2c0.7-1,1.1-1.8,1.4-2.5c0.3-0.7,0.4-1.4,0.4-2.2s-0.2-1.3-0.5-1.8
		c-0.4-0.4-0.8-0.6-1.4-0.6c-0.5,0-0.9,0.1-1.3,0.4c-0.4,0.2-0.7,0.6-1.1,1.1l-0.7-0.5c0.4-0.6,0.9-1.1,1.4-1.4s1.1-0.4,1.7-0.4
		C234.5,28.6,235.3,28.9,235.8,29.5z"/>
	<path class="st0" d="M243.3,29.5c0.5,0.6,0.8,1.4,0.8,2.4c0,0.8-0.1,1.6-0.4,2.4c-0.3,0.7-0.7,1.6-1.4,2.5c-0.6,0.9-1.6,2.3-3,4.1
		h5.1l-0.2,1h-6.1V41c1.4-1.8,2.4-3.2,3.1-4.2c0.7-1,1.1-1.8,1.4-2.5c0.3-0.7,0.4-1.4,0.4-2.2s-0.2-1.3-0.5-1.8
		c-0.4-0.4-0.8-0.6-1.4-0.6c-0.5,0-0.9,0.1-1.3,0.4c-0.4,0.2-0.7,0.6-1.1,1.1l-0.7-0.5c0.4-0.6,0.9-1.1,1.4-1.4s1.1-0.4,1.7-0.4
		C242.1,28.6,242.8,28.9,243.3,29.5z"/>
	<path class="st0" d="M257.7,41.8h-1.5l-5-12.1c0.1,1.2,0.2,2.7,0.2,4.5v7.6h-1.1V28.4h1.5l4.9,12.1c-0.1-1.6-0.2-2.9-0.2-3.9v-8.2
		h1.1v13.4C257.6,41.8,257.7,41.8,257.7,41.8z"/>
	<path class="st0" d="M268.3,29.9c0.8,1.2,1.2,2.9,1.2,5.2s-0.4,4-1.2,5.1c-0.8,1.2-1.9,1.7-3.3,1.7s-2.5-0.6-3.3-1.7
		c-0.8-1.2-1.2-2.9-1.2-5.1c0-2.3,0.4-4,1.2-5.2c0.8-1.2,1.9-1.8,3.3-1.8C266.3,28.2,267.5,28.8,268.3,29.9z M262.5,30.6
		c-0.6,1-0.9,2.5-0.9,4.5s0.3,3.5,0.9,4.5s1.4,1.4,2.4,1.4c1.1,0,1.9-0.5,2.5-1.4s0.9-2.4,0.9-4.5c0-4-1.1-5.9-3.3-5.9
		C263.9,29.2,263.1,29.7,262.5,30.6z"/>
	<path class="st0" d="M279.1,28.4l-3.5,13.4h-1.3l-3.5-13.4h1.2l3.1,12.2l3-12.2C278.1,28.4,279.1,28.4,279.1,28.4z"/>
	<g>
		<path class="st0" d="M212.3,28.7v13.1h-1.1V30l-2.6,1.9l-0.5-0.8l3.3-2.4H212.3z"/>
		<path class="st0" d="M222.2,37.4v0.9h-1.4v3.4h-1.1v-3.4H215v-0.8l3.2-9l0.9,0.3l-3.1,8.6h3.6l0.1-3.9h0.9v3.9H222.2z"/>
	</g>
</g>
</svg>
