<?xml version="1.0" encoding="utf-8"?>
<!-- Generator: Adobe Illustrator 27.0.0, SVG Export Plug-In . SVG Version: 6.00 Build 0)  -->
<svg version="1.1" id="Layer_1" xmlns="http://www.w3.org/2000/svg" xmlns:xlink="http://www.w3.org/1999/xlink" x="0px" y="0px"
	 viewBox="0 0 443 48.8" style="enable-background:new 0 0 443 48.8;" xml:space="preserve">
<style type="text/css">
	.st0{fill:#0066CC;}
	.st1{fill:#FFCC00;}
	.st2{fill:#0078FF;}
	.st3{fill-rule:evenodd;clip-rule:evenodd;fill:#000099;}
	.st4{fill-rule:evenodd;clip-rule:evenodd;fill:#FFCC00;}
	.st5{fill-rule:evenodd;clip-rule:evenodd;fill:#1F60A9;}
	.st6{fill-rule:evenodd;clip-rule:evenodd;fill:#FFFFFF;}
	.st7{fill-rule:evenodd;clip-rule:evenodd;}
</style>
<path class="st0" d="M61.2,8v15.2h-3.5V8H61.2z"/>
<path class="st0" d="M66.9,14.4v8.7h-3.5V8h3.1l2.5,3.7l3.3,5h0.2V8H76v15.2h-3.1l-3.1-4.6l-2.7-4.1h-0.2
	C66.9,14.5,66.9,14.4,66.9,14.4z"/>
<path class="st0" d="M83.8,23.2H78V8h5.8c3.1,0,5.5,1.5,5.5,4.8v5.5C89.3,21.6,86.5,23.2,83.8,23.2z M85.8,13.5
	c0-1.7-1.3-2.4-2.4-2.4h-1.9v9h1.8c1.1,0,2.4-0.6,2.4-2.4L85.8,13.5L85.8,13.5z"/>
<path class="st0" d="M97.1,23.3c-3,0-5.9-1.6-5.9-4.9V8h3.5v9.8c0,1.7,1.3,2.4,2.4,2.4s2.4-0.6,2.4-2.4V8h3.5v10.3
	C103,21.7,100,23.3,97.1,23.3z"/>
<path class="st0" d="M110.3,23.3c-2.2,0-4.1-0.4-6-2.1l2-2.6c1.3,1,2.6,1.5,3.9,1.5c1.9,0,2.5-0.8,2.5-1.4c0-0.9-0.8-1.3-3.4-2
	c-2.8-0.8-4.4-1.8-4.4-4.4c0-2.8,2.3-4.5,5.5-4.5c1.7,0,3.5,0.2,5.3,1.4l-1.6,2.8c-1.4-0.9-2.6-1-3.8-1c-1.1,0-1.9,0.4-1.9,1.2
	s0.8,1.2,3.3,1.9c3.9,1.1,4.5,2.7,4.5,4.6C116.3,21.8,113.6,23.3,110.3,23.3z"/>
<path class="st0" d="M124.4,11.1v12h-3.5v-12H117V8h11.2v3.1H124.4z"/>
<path class="st0" d="M136.4,8c3.3,0,4.6,2.4,4.6,4.8c0,1.6-1,3.3-2.5,4.2l2.7,6.2h-3.7l-2.3-5.6H133v5.6h-3.5V8H136.4z M133.1,14.5
	h2.6c1.3,0,1.8-0.8,1.8-1.7s-0.6-1.7-1.8-1.7h-2.6V14.5z"/>
<path class="st0" d="M147.6,13.9l1.1-2.6l1.4-3.3h3.7l-4.6,9.2v6h-3.5v-6L141.2,8h3.7l1.5,3.4l1.1,2.5H147.6z"/>
<path class="st0" d="M162,14.4h1.7v-0.2c0-0.6-0.4-1-1.3-1c-0.6,0-1.3,0.1-2.2,0.7l-1.2-1.8c1.3-1,2.5-1.2,3.5-1.2
	c2.2,0,3.7,1.1,3.7,3.5V17c0,0.6,0.6,0.6,0.7,0.6c0.6,0,1.8-0.7,1.8-2.9c0-3.1-1.9-5.4-5.8-5.4c-4.1,0-6.7,2.8-6.7,6
	c0,3.3,2.4,6.1,6.1,6.1c0.7,0,1.5,0,2.8-0.5l0.7,2c-1,0.5-2.7,0.7-3.7,0.7c-5.1,0-8.3-3.6-8.3-8.2c0-4.7,3.7-8.3,9.1-8.3
	c5.5,0,8.2,3.4,8.2,7.6c0,2.9-1.9,5.3-4.6,5.3c-0.8,0-2-0.1-2.6-1c-0.9,0.6-1.9,0.9-2.5,0.9c-2,0-2.8-1.3-2.8-2.7
	C158.6,15.1,160.7,14.4,162,14.4z M163.7,16.2h-1.6c-0.4,0-0.9,0.1-0.9,0.6c0,0.3,0.3,0.6,0.8,0.6c0.8,0,1.3-0.3,1.6-0.5L163.7,16.2
	L163.7,16.2z"/>
<path class="st0" d="M179.4,11.1v12h-3.5v-12H172V8h11.2v3.1H179.4z"/>
<path class="st0" d="M191.5,20.2h-4.9l-0.9,3h-3.8L187.3,8h3.6l5.3,15.2h-3.7L191.5,20.2z M187.5,17.3h3.1l-0.3-1l-1.2-4.2H189
	l-1.2,4.2L187.5,17.3z"/>
<path class="st0" d="M197.5,23.2V8h3.5v12h7.2v3.1h-10.7V23.2z"/>
<path class="st0" d="M209.4,23.2V8h3.5v12h7.2v3.1h-10.7V23.2z"/>
<path class="st0" d="M225,8v15.2h-3.5V8H225z"/>
<path class="st0" d="M230.7,14.4v8.7h-3.5V8h3.1l2.5,3.7l3.3,5h0.1V8h3.5v15.2h-3.1l-3.1-4.6l-2.7-4.1h-0.1V14.4z"/>
<path class="st0" d="M245.3,14.4v8.7h-3.5V8h3.1l2.5,3.7l3.3,5h0.1V8h3.5v15.2h-3.1l-3.1-4.6l-2.7-4.1h-0.1V14.4z"/>
<path class="st1" d="M69.7,43.2c0.9,0.8,2,1.5,3.3,2.1l-1.2,2.2c-1.3-0.4-3.2-1.7-4.2-2.7c-0.8,0.7-2.4,1.4-3.9,1.4
	c-2.7,0-4.9-1.7-4.9-4.5c0-2,1.5-3.5,3-4.4c-0.4-0.7-0.7-1.4-0.7-2.4c0-2,1.3-3.5,3.4-3.5c2,0,3.5,1.4,3.5,3.2
	c0,1.7-1.2,2.8-2.4,3.6c0.7,1.1,1.5,2.1,2.3,3.1c1.3-1.5,2-3.5,2-5.2c0-3.1-2-5.7-5.4-5.7c-3.1,0-5,1.9-5,4.1c0,0.8,0.1,1.7,0.9,2.9
	l-2.2,1.4c-1-1.5-1.3-2.9-1.3-4.1c0-3.5,2.9-6.8,7.6-6.8c5.2,0,8.1,3.7,8.1,8.2C72.5,38.6,71.5,41.2,69.7,43.2z M63.4,39.4
	c-1,0.6-1.9,1.3-1.9,2.2c0,1.3,0.8,2,2,2c0.7,0,1.5-0.2,2.4-0.7C65.1,42.1,63.9,40.4,63.4,39.4z M64.5,33.9c-0.4,0-0.7,0.4-0.7,0.9
	c0,0.4,0.2,0.7,0.5,1.2c0.7-0.4,1-0.8,1-1.3C65.4,34.3,65,33.9,64.5,33.9z"/>
<path class="st1" d="M87.3,45.9h-7.4V30.8H87c3.2,0,4.4,1.9,4.4,4.2c0,1.1-0.6,2.4-1.9,3c1.5,0.7,2.2,2.3,2.2,3.4
	C91.7,44,90.2,45.9,87.3,45.9z M86.1,33.9h-2.6v2.8h2.6c1.2,0,1.7-0.6,1.7-1.3C87.8,34.5,87.4,33.9,86.1,33.9z M86.2,39.6h-2.8v3.2
	h2.8c1.1,0,1.7-0.6,1.7-1.6C88,40.3,87.4,39.6,86.2,39.6z"/>
<path class="st1" d="M101.8,42.9h-4.9l-0.9,3h-3.8l5.3-15.2h3.6l5.3,15.2h-3.7L101.8,42.9z M97.8,40.1h3.1l-0.3-1l-1.2-4.2h-0.1
	L98.1,39L97.8,40.1z"/>
<path class="st1" d="M107.8,45.9V30.8h3.5v12h7.2v3.1L107.8,45.9z"/>
<path class="st1" d="M124.5,33.9v12H121v-12h-3.9v-3.1h11.2v3.1H124.5z"/>
<path class="st1" d="M133.3,30.8V46h-3.5V30.8H133.3z"/>
<path class="st1" d="M144.5,34.9c-1-0.9-2.1-1.1-3-1.1c-1.1,0-2.5,0.6-2.5,2.4v4.3c0,1.7,1.4,2.4,2.5,2.4c0.9,0,1.9-0.2,3-1.1
	l1.7,2.7c-1.2,1-3,1.5-4.8,1.5c-2.8,0-5.9-1.5-5.9-4.8v-5.7c0-3.3,3-4.9,5.9-4.9c1.8,0,3.7,0.5,4.8,1.5L144.5,34.9z"/>
<path class="st1" d="M152.9,30.8h10.6v3.1h-7.1v2.8h6.1v3.1h-6.1v3h7.1v3.1h-10.6V30.8z"/>
<path class="st1" d="M171.4,40.8l1.5-5.5l1.3-4.6h3.7l-4.8,15.2h-3.6l-4.9-15.2h3.7l1.4,4.7l1.5,5.4H171.4z"/>
<path class="st1" d="M179.2,30.8h10.6v3.1h-7.1v2.8h6.1v3.1h-6.1v3h7.1v3.1h-10.6V30.8z"/>
<path class="st1" d="M195,37.2v8.7h-3.5V30.8h3.1l2.5,3.7l3.3,5h0.1v-8.7h3.5V46h-3.1l-3.1-4.6l-2.7-4.1H195V37.2z"/>
<path class="st1" d="M212.7,33.9v12h-3.5v-12h-3.9v-3.1h11.2v3.1H212.7z"/>
<g>
	<g id="XMLID_00000018238116009917024300000018175453015894901125_">
		<path class="st1" d="M32.1,24.4h14.4c-0.9,5.1-3.3,10.2-7,14.4C30,49.4,15.2,51.7,6.3,43.6c-5.2-4.7-7.1-11.9-5.9-19.2h14.4
			c0,2.2,0.9,4.4,2.6,6.1c3.4,3.4,8.9,3.4,12.3,0C31.3,28.9,32.1,26.6,32.1,24.4z"/>
		<path class="st1" d="M19.9,24.4h7c0,0.9-0.4,1.7-1,2.4c-1.3,1.3-3.5,1.4-4.9,0C20.3,26.2,19.9,25.3,19.9,24.4z"/>
	</g>
	<g id="XMLID_00000172436888910342890510000010745209830598214540_">
		<path class="st0" d="M41.1,5.5c4.9,4.7,6.6,11.8,5.4,18.9H32.1c0-2.2-0.8-4.5-2.6-6.2c-3.4-3.4-8.9-3.4-12.3,0
			c-1.7,1.7-2.6,3.9-2.5,6.2H0.3c0.9-5.2,3.3-10.5,7.3-14.9C17.3-0.9,32.3-2.8,41.1,5.5z"/>
		<path class="st0" d="M25.9,22c0.7,0.7,1.1,1.6,1,2.5h-7c0-0.9,0.4-1.8,1-2.5C22.3,20.7,24.6,20.7,25.9,22z"/>
	</g>
</g>
<g>
	<path class="st2" d="M439.5,31.4c-0.3,0-0.5,0.1-0.6,0.4h-0.1v-0.3h-0.3v1.9h0.3v-1.2c0-0.3,0.3-0.4,0.6-0.4c0.3,0,0.5,0.2,0.5,0.5
		v1.2h0.3v-1.2C440.2,31.6,439.9,31.4,439.5,31.4 M396.1,23.5c-0.1-0.1-0.2-0.1-0.3,0l-0.8,0.8c0,0-0.1,0.1-0.1,0.2
		c0,0.1,0,0.1,0.1,0.2l0.8,0.8c0,0,0.1,0.1,0.2,0.1s0.1,0,0.2-0.1l0.8-0.8c0,0,0.1-0.1,0.1-0.2c0-0.1,0-0.1-0.1-0.2L396.1,23.5z
		 M398.8,26.2c-0.1-0.1-0.2-0.1-0.3,0l-0.8,0.8c0,0-0.1,0.1-0.1,0.2c0,0.1,0,0.1,0.1,0.2l0.8,0.8c0,0,0.1,0.1,0.2,0.1
		c0.1,0,0.1,0,0.2-0.1l0.8-0.8c0.1-0.1,0.1-0.2,0-0.3L398.8,26.2z M400.3,24.5c0,0.1,0,0.1,0.1,0.2l0.8,0.8c0,0,0.1,0.1,0.2,0.1
		c0.1,0,0.1,0,0.2-0.1l0.8-0.8c0.1-0.1,0.1-0.2,0-0.3l-0.8-0.8c0,0-0.1-0.1-0.2-0.1c-0.1,0-0.1,0-0.2,0.1l-0.8,0.8
		C400.3,24.4,400.3,24.4,400.3,24.5 M431,33.3h1.8V33h-1.5v-1h1.4v-0.3h-1.4v-0.9h1.5v-0.3H431V33.3z M437.1,31.4c-0.6,0-1,0.4-1,1
		c0,0.6,0.4,1,1,1c0.6,0,1-0.4,1-1C438.1,31.8,437.7,31.4,437.1,31.4 M437.1,33.1c-0.3,0-0.6-0.3-0.6-0.7c0-0.5,0.3-0.7,0.6-0.7
		c0.4,0,0.7,0.3,0.7,0.7C437.8,32.8,437.5,33.1,437.1,33.1 M398.5,22.8c0,0,0.1,0.1,0.2,0.1c0.1,0,0.1,0,0.2-0.1l0.8-0.8
		c0.1-0.1,0.1-0.2,0-0.3l-0.8-0.8c0,0-0.1-0.1-0.2-0.1c-0.1,0-0.1,0-0.2,0.1l-0.8,0.8c0,0-0.1,0.1-0.1,0.2c0,0.1,0,0.1,0.1,0.2
		L398.5,22.8z M386.1,23.3c0.2,0.2,0.4,0.2,0.6,0.2c0.2,0,0.4-0.1,0.6-0.2l0.9-0.9c0.2-0.2,0.2-0.4,0.2-0.6c0-0.2-0.1-0.4-0.2-0.6
		l-0.9-0.9c-0.2-0.2-0.4-0.2-0.6-0.2s-0.4,0.1-0.6,0.2l-0.9,0.9c-0.2,0.2-0.2,0.4-0.2,0.6c0,0.2,0.1,0.4,0.2,0.6L386.1,23.3z
		 M443,24.8c0-2.6-2.4-3-4.4-3.5c-1.6-0.4-3.2-0.7-3.2-2.1c0-1.1,1.1-2.1,2.9-2.1c1.7,0,3.1,0.6,3.9,1.4h0.4v-1.3
		c-0.7-0.6-2.2-1.3-3.9-1.3c-2.9,0-4.6,1.5-4.6,3.3c0,2.5,2.4,2.9,4.4,3.4c1.6,0.4,3.2,0.8,3.2,2.2c0,0.9-1,1.9-2.9,1.9
		c-1.5,0-3.4-0.8-4.5-2h-0.4v1.6c1.4,1.1,2.9,1.6,4.8,1.6C441.4,28,443,26.5,443,24.8 M440.7,31h0.3v-0.4h-0.3V31z M387.3,24.7
		c-0.3-0.3-0.8-0.3-1.1,0l-2,2c-0.2,0.2-0.2,0.4-0.2,0.6c0,0.2,0.1,0.4,0.2,0.6l1.4,1.4l-0.5,0.5c-0.3,0.3-0.3,0.8,0,1.1
		c0.2,0.2,0.4,0.2,0.6,0.2s0.4-0.1,0.6-0.2l1.1-1.1c0,0,0,0,0,0l2-2c0.2-0.2,0.2-0.4,0.2-0.6c0-0.2-0.1-0.4-0.2-0.6L387.3,24.7z
		 M387.7,27.3l-0.8,0.8c0,0-0.1,0.1-0.2,0.1c-0.1,0-0.1,0-0.2-0.1l-0.8-0.8c0,0-0.1-0.1-0.1-0.2c0-0.1,0-0.1,0.1-0.2l0.8-0.8
		c0.1-0.1,0.2-0.1,0.3,0l0.8,0.8C387.8,27.1,387.8,27.2,387.7,27.3 M435.5,30.8h-0.3l0,0.7h-0.3v0.2h0.3l0,1.1
		c0,0.4,0.1,0.5,0.5,0.5h0.2v-0.2h-0.2c-0.1,0-0.2,0-0.2-0.3l0-1.1h0.5v-0.2h-0.5L435.5,30.8z M442.2,31.4c-0.3,0-0.5,0.1-0.7,0.2
		v0.3h0.1c0.2-0.2,0.3-0.2,0.6-0.2c0.3,0,0.4,0.1,0.5,0.4l0,0c-0.1,0-0.4,0.1-0.5,0.1c-0.4,0.1-0.7,0.3-0.7,0.6
		c0,0.3,0.3,0.6,0.7,0.6c0.3,0,0.5-0.1,0.6-0.3h0v0.2h0.3c0-0.4,0-0.8,0-1.2C443,31.7,442.7,31.4,442.2,31.4 M442.7,32.7L442.7,32.7
		c0,0.3-0.3,0.4-0.5,0.4c-0.3,0-0.5-0.1-0.5-0.3c0-0.2,0.2-0.3,0.5-0.4c0.1,0,0.3-0.1,0.5-0.1L442.7,32.7z M440.7,33.3h0.3v-1.9
		h-0.3V33.3z M424.5,31.8L424.5,31.8l-0.1-0.3h-0.3v1.9h0.3v-1.1c0-0.3,0.2-0.5,0.5-0.5h0.3v-0.3H425
		C424.7,31.4,424.6,31.5,424.5,31.8 M425.6,33.3h0.3v-1.9h-0.3V33.3z M426.5,16l-4.3,11.4v0.4h1.3l1.6-4.2h5l1.6,4.2h1.4v-0.4
		L428.6,16H426.5z M425.4,22.4l1.8-4.7l0.2-0.7h0.1l0.3,0.7l1.8,4.7H425.4z M422.9,31.4c-0.3,0-0.5,0.1-0.6,0.3h0v-0.2H422v2.7h0.3
		V33h0c0.1,0.2,0.3,0.3,0.5,0.3c0.5,0,0.9-0.4,0.9-1C423.8,31.8,423.4,31.4,422.9,31.4 M422.8,33.1c-0.3,0-0.5-0.1-0.5-0.4v-0.6
		c0-0.3,0.3-0.5,0.6-0.5c0.4,0,0.7,0.3,0.7,0.7C423.5,32.8,423.2,33.1,422.8,33.1 M408.5,16.5c-0.1-0.3-0.4-0.5-0.7-0.5h-10.5
		c-0.2,0-0.4,0.1-0.6,0.2l-6.8,6.8c-0.3,0.3-0.3,0.8,0,1.1l2.3,2.3l-1,1c-0.3,0.3-0.3,0.8,0,1.1l3.4,3.4c0.3,0.3,0.8,0.3,1.1,0
		l1.1-1.1l3,3c0.2,0.2,0.4,0.2,0.6,0.2s0.4-0.1,0.6-0.2l7.3-7.3c0.2-0.2,0.2-0.4,0.2-0.6c0-0.2-0.1-0.4-0.2-0.6l-4-4l4.1-4.1
		C408.5,17.2,408.6,16.8,408.5,16.5 M401.5,20.5l0.8-0.8c0,0,0.1-0.1,0.2-0.1c0.1,0,0.1,0,0.2,0.1l0.8,0.8c0.1,0.1,0.1,0.2,0,0.3
		l-0.8,0.8c0,0-0.1,0.1-0.2,0.1c-0.1,0-0.1,0-0.2-0.1l-0.8-0.8c0,0-0.1-0.1-0.1-0.2C401.5,20.6,401.5,20.5,401.5,20.5 M396.7,18.7
		c0-0.1,0.1-0.2,0.1-0.2c0.1,0,0.2,0,0.3,0.1l1.5,1.5l1.5-1.5c0.1-0.1,0.2-0.1,0.3-0.1c0.1,0,0.1,0.1,0.1,0.2v3.4
		c0,0.1,0,0.1-0.1,0.2l-1.7,1.7c0,0-0.1,0.1-0.2,0.1s-0.1,0-0.2-0.1l-1.7-1.7c0,0-0.1-0.1-0.1-0.2V18.7z M393.8,20.5l0.8-0.8
		c0,0,0.1-0.1,0.2-0.1c0.1,0,0.1,0,0.2,0.1l0.8,0.8c0.1,0.1,0.1,0.2,0,0.3l-0.8,0.8c0,0-0.1,0.1-0.2,0.1c-0.1,0-0.1,0-0.2-0.1
		l-0.8-0.8c0,0-0.1-0.1-0.1-0.2C393.7,20.6,393.7,20.5,393.8,20.5 M395.8,28.5l-0.8,0.8c0,0-0.1,0.1-0.2,0.1c-0.1,0-0.1,0-0.2-0.1
		l-0.8-0.8c0,0-0.1-0.1-0.1-0.2c0-0.1,0-0.1,0.1-0.2l0.8-0.8c0,0,0.1-0.1,0.2-0.1c0.1,0,0.1,0,0.2,0.1l0.8,0.8
		C395.9,28.3,395.9,28.4,395.8,28.5 M396.3,26.4h-3.4c-0.1,0-0.2-0.1-0.2-0.1c0-0.1,0-0.2,0.1-0.3l1.5-1.5l-1.5-1.5
		c-0.1-0.1-0.1-0.2-0.1-0.3c0-0.1,0.1-0.1,0.2-0.1h3.4c0.1,0,0.1,0,0.2,0.1l1.7,1.7c0,0,0.1,0.1,0.1,0.2c0,0.1,0,0.1-0.1,0.2
		l-1.7,1.7C396.4,26.4,396.3,26.4,396.3,26.4 M400.6,30.3c0,0.1-0.1,0.2-0.1,0.2c0,0-0.1,0-0.1,0c-0.1,0-0.1,0-0.2-0.1l-1.5-1.5
		l-1.5,1.5c-0.1,0.1-0.2,0.1-0.3,0.1c-0.1,0-0.1-0.1-0.1-0.2v-3.4c0-0.1,0-0.1,0.1-0.2l1.7-1.7c0.1-0.1,0.2-0.1,0.3,0l1.7,1.7
		c0,0,0.1,0.1,0.1,0.2V30.3z M403.5,28.5l-0.8,0.8c0,0-0.1,0.1-0.2,0.1c-0.1,0-0.1,0-0.2-0.1l-0.8-0.8c0,0-0.1-0.1-0.1-0.2
		c0-0.1,0-0.1,0.1-0.2l0.8-0.8c0,0,0.1-0.1,0.2-0.1c0.1,0,0.1,0,0.2,0.1l0.8,0.8C403.6,28.3,403.6,28.4,403.5,28.5 M404.4,22.6
		c0.1,0,0.2,0.1,0.2,0.1c0,0.1,0,0.2-0.1,0.3l-1.5,1.5l1.5,1.5c0.1,0.1,0.1,0.2,0.1,0.3s-0.1,0.1-0.2,0.1h-3.4c-0.1,0-0.1,0-0.2-0.1
		l-1.7-1.7c0,0-0.1-0.1-0.1-0.2s0-0.1,0.1-0.2l1.7-1.7c0,0,0.1-0.1,0.2-0.1H404.4z M426.6,31.9c0-0.2,0.1-0.3,0.5-0.3
		c0.3,0,0.4,0.2,0.5,0.2h0.1v-0.3c-0.1-0.1-0.3-0.2-0.6-0.2c-0.5,0-0.8,0.2-0.8,0.5c0,0.6,1.2,0.5,1.2,0.9c0,0.2-0.2,0.3-0.5,0.3
		c-0.2,0-0.5-0.1-0.6-0.3h-0.1v0.3c0.2,0.1,0.4,0.2,0.7,0.2c0.5,0,0.8-0.2,0.8-0.5C427.8,32.1,426.6,32.3,426.6,31.9 M425.6,31h0.3
		v-0.4h-0.3V31z M429.9,32.4c0-0.6-0.3-1-0.9-1c-0.6,0-0.9,0.4-0.9,1c0,0.7,0.4,1,1,1c0.2,0,0.5-0.1,0.7-0.2v-0.2h-0.1
		c-0.2,0.1-0.4,0.2-0.6,0.2c-0.3,0-0.5-0.1-0.7-0.4c0-0.1-0.1-0.2-0.1-0.3v0H429.9z M429,31.6c0.3,0,0.5,0.2,0.6,0.5h-1.1
		C428.4,31.8,428.6,31.6,429,31.6 M413.1,33.3h1.8V33h-1.5v-1h1.4v-0.3h-1.4v-0.9h1.5v-0.3h-1.8V33.3z M421.1,26.6h-6.7v-4.2h6.2
		v-1.2h-6.2v-4h6.7V16h-8.1v11.8h8V26.6z M416.3,31.4c-0.3,0-0.5,0.1-0.6,0.4h-0.1v-0.3h-0.3v1.9h0.3v-1.2c0-0.3,0.3-0.4,0.6-0.4
		c0.3,0,0.5,0.2,0.5,0.5v1.2h0.3v-1.2C417,31.6,416.7,31.4,416.3,31.4 M417.8,30.8h-0.3l0,0.7h-0.3v0.2h0.3l0,1.1
		c0,0.4,0.1,0.5,0.5,0.5h0.2v-0.2h-0.2c-0.1,0-0.2,0-0.2-0.3l0-1.1h0.5v-0.2h-0.5L417.8,30.8z M420.3,32.4c0-0.6-0.3-1-0.9-1
		c-0.6,0-0.9,0.4-0.9,1c0,0.7,0.4,1,1,1c0.2,0,0.5-0.1,0.7-0.2v-0.2h-0.1c-0.2,0.1-0.4,0.2-0.6,0.2c-0.3,0-0.5-0.1-0.7-0.4
		c0-0.1-0.1-0.2-0.1-0.3v0H420.3z M419.4,31.6c0.3,0,0.5,0.2,0.6,0.5h-1.1C418.9,31.8,419.1,31.6,419.4,31.6 M421,31.8L421,31.8
		l-0.1-0.3h-0.3v1.9h0.3v-1.1c0-0.3,0.2-0.5,0.5-0.5h0.3v-0.3h-0.3C421.2,31.4,421.1,31.5,421,31.8 M433.5,31.9
		c0-0.2,0.1-0.3,0.5-0.3c0.3,0,0.4,0.2,0.5,0.2h0.1v-0.3c-0.1-0.1-0.3-0.2-0.6-0.2c-0.5,0-0.8,0.2-0.8,0.5c0,0.6,1.2,0.5,1.2,0.9
		c0,0.2-0.2,0.3-0.5,0.3c-0.2,0-0.5-0.1-0.6-0.3h-0.1v0.3c0.2,0.1,0.4,0.2,0.7,0.2c0.5,0,0.8-0.2,0.8-0.5
		C434.7,32.1,433.5,32.3,433.5,31.9"/>
	<polygon points="307.4,38.2 307.4,35.5 309.4,35.5 309.4,35.8 307.8,35.8 307.8,36.7 309.3,36.7 309.3,37 307.8,37 307.8,37.9 
		309.5,37.9 309.5,38.2 	"/>
	<path d="M311.2,38.2v-0.3c-0.2,0.2-0.4,0.3-0.6,0.3c-0.1,0-0.2,0-0.3-0.1c-0.1,0-0.2-0.1-0.2-0.2c0-0.1-0.1-0.2-0.1-0.2
		c0-0.1,0-0.2,0-0.3v-1.2h0.3v1.1c0,0.2,0,0.3,0,0.4c0,0.1,0.1,0.2,0.1,0.2c0.1,0.1,0.2,0.1,0.3,0.1c0.1,0,0.2,0,0.3-0.1
		c0.1-0.1,0.2-0.1,0.2-0.2c0-0.1,0.1-0.2,0.1-0.4v-1.1h0.3v2H311.2z"/>
	<path d="M312.1,38.2v-2h0.3v0.3c0.1-0.1,0.1-0.2,0.2-0.3c0.1,0,0.1-0.1,0.2-0.1c0.1,0,0.2,0,0.3,0.1l-0.1,0.3
		c-0.1,0-0.2-0.1-0.2-0.1c-0.1,0-0.1,0-0.2,0.1c-0.1,0-0.1,0.1-0.1,0.2c0,0.1-0.1,0.2-0.1,0.4v1H312.1z"/>
	<path d="M313.2,37.3c0-0.4,0.1-0.6,0.3-0.8c0.2-0.1,0.4-0.2,0.6-0.2c0.3,0,0.5,0.1,0.7,0.3c0.2,0.2,0.3,0.4,0.3,0.7
		c0,0.3,0,0.5-0.1,0.6c-0.1,0.1-0.2,0.3-0.3,0.3c-0.1,0.1-0.3,0.1-0.5,0.1c-0.3,0-0.5-0.1-0.7-0.3C313.3,37.8,313.2,37.6,313.2,37.3
		 M313.5,37.3c0,0.3,0.1,0.4,0.2,0.6c0.1,0.1,0.2,0.2,0.4,0.2c0.2,0,0.3-0.1,0.4-0.2c0.1-0.1,0.2-0.3,0.2-0.6c0-0.2-0.1-0.4-0.2-0.6
		c-0.1-0.1-0.2-0.2-0.4-0.2c-0.2,0-0.3,0.1-0.4,0.2C313.6,36.8,313.5,37,313.5,37.3"/>
	<path d="M315.4,39v-2.7h0.3v0.3c0.1-0.1,0.2-0.2,0.2-0.2c0.1-0.1,0.2-0.1,0.3-0.1c0.2,0,0.3,0,0.4,0.1c0.1,0.1,0.2,0.2,0.3,0.4
		c0.1,0.2,0.1,0.3,0.1,0.5c0,0.2,0,0.4-0.1,0.5c-0.1,0.2-0.2,0.3-0.3,0.4c-0.1,0.1-0.3,0.1-0.4,0.1c-0.1,0-0.2,0-0.3-0.1
		c-0.1,0-0.2-0.1-0.2-0.2v1H315.4z M315.7,37.3c0,0.3,0.1,0.4,0.2,0.6c0.1,0.1,0.2,0.2,0.4,0.2c0.1,0,0.3-0.1,0.4-0.2
		c0.1-0.1,0.2-0.3,0.2-0.6c0-0.3-0.1-0.4-0.2-0.6c-0.1-0.1-0.2-0.2-0.4-0.2c-0.1,0-0.3,0.1-0.4,0.2C315.8,36.8,315.7,37,315.7,37.3"
		/>
	<path d="M318.9,37.6l0.3,0c-0.1,0.2-0.2,0.4-0.3,0.5c-0.1,0.1-0.3,0.2-0.6,0.2c-0.3,0-0.5-0.1-0.7-0.3c-0.2-0.2-0.3-0.4-0.3-0.7
		c0-0.3,0.1-0.6,0.3-0.8c0.2-0.2,0.4-0.3,0.7-0.3c0.3,0,0.5,0.1,0.6,0.3c0.2,0.2,0.3,0.4,0.3,0.8c0,0,0,0,0,0.1h-1.5
		c0,0.2,0.1,0.4,0.2,0.5c0.1,0.1,0.2,0.2,0.4,0.2c0.1,0,0.2,0,0.3-0.1C318.8,37.8,318.9,37.7,318.9,37.6 M317.8,37.1h1.1
		c0-0.2-0.1-0.3-0.1-0.4c-0.1-0.1-0.2-0.2-0.4-0.2c-0.2,0-0.3,0.1-0.4,0.2C317.9,36.8,317.8,36.9,317.8,37.1"/>
	<path d="M321,38c-0.1,0.1-0.2,0.2-0.4,0.2c-0.1,0-0.2,0.1-0.4,0.1c-0.2,0-0.4-0.1-0.5-0.2c-0.1-0.1-0.2-0.2-0.2-0.4
		c0-0.1,0-0.2,0.1-0.3c0-0.1,0.1-0.1,0.2-0.2c0.1,0,0.2-0.1,0.2-0.1c0.1,0,0.2,0,0.3-0.1c0.3,0,0.5-0.1,0.6-0.1c0,0,0-0.1,0-0.1
		c0-0.1,0-0.2-0.1-0.3c-0.1-0.1-0.2-0.1-0.4-0.1c-0.2,0-0.3,0-0.3,0.1c-0.1,0.1-0.1,0.2-0.2,0.3l-0.3,0c0-0.1,0.1-0.3,0.1-0.3
		c0.1-0.1,0.2-0.2,0.3-0.2c0.1,0,0.3-0.1,0.4-0.1c0.2,0,0.3,0,0.4,0.1c0.1,0,0.2,0.1,0.2,0.1c0,0.1,0.1,0.1,0.1,0.2
		c0,0.1,0,0.2,0,0.3v0.4c0,0.3,0,0.5,0,0.6c0,0.1,0,0.2,0.1,0.2H321C321,38.2,321,38.1,321,38 M320.9,37.2c-0.1,0-0.3,0.1-0.5,0.1
		c-0.1,0-0.2,0-0.3,0.1c-0.1,0-0.1,0.1-0.1,0.1c0,0,0,0.1,0,0.2c0,0.1,0,0.2,0.1,0.2c0.1,0.1,0.2,0.1,0.3,0.1c0.1,0,0.2,0,0.3-0.1
		c0.1-0.1,0.2-0.1,0.2-0.2c0-0.1,0.1-0.2,0.1-0.3V37.2z"/>
	<path d="M321.8,38.2v-2h0.3v0.3c0.1-0.2,0.4-0.3,0.6-0.3c0.1,0,0.2,0,0.3,0.1c0.1,0,0.2,0.1,0.2,0.2c0,0.1,0.1,0.2,0.1,0.2
		c0,0.1,0,0.2,0,0.3v1.2h-0.3V37c0-0.1,0-0.2,0-0.3c0-0.1-0.1-0.1-0.1-0.2c-0.1,0-0.1-0.1-0.2-0.1c-0.1,0-0.3,0-0.4,0.1
		c-0.1,0.1-0.2,0.3-0.2,0.5v1.1H321.8z"/>
	<path d="M326.8,35.5h0.4v1.6c0,0.3,0,0.5-0.1,0.7c-0.1,0.2-0.2,0.3-0.3,0.4c-0.2,0.1-0.4,0.2-0.6,0.2c-0.3,0-0.5,0-0.6-0.1
		c-0.2-0.1-0.3-0.2-0.3-0.4c-0.1-0.2-0.1-0.4-0.1-0.7v-1.6h0.4v1.6c0,0.2,0,0.4,0.1,0.5c0,0.1,0.1,0.2,0.2,0.3
		c0.1,0.1,0.2,0.1,0.4,0.1c0.3,0,0.5-0.1,0.6-0.2c0.1-0.1,0.2-0.4,0.2-0.7V35.5z"/>
	<path d="M327.7,38.2v-2h0.3v0.3c0.1-0.2,0.4-0.3,0.6-0.3c0.1,0,0.2,0,0.3,0.1c0.1,0,0.2,0.1,0.2,0.2c0,0.1,0.1,0.2,0.1,0.2
		c0,0.1,0,0.2,0,0.3v1.2H329V37c0-0.1,0-0.2,0-0.3c0-0.1-0.1-0.1-0.1-0.2c-0.1,0-0.1-0.1-0.2-0.1c-0.1,0-0.3,0-0.4,0.1
		c-0.1,0.1-0.2,0.3-0.2,0.5v1.1H327.7z"/>
	<path d="M329.8,35.5h0.3v0.4h-0.3V35.5z M329.8,36.3h0.3v2h-0.3V36.3z"/>
	<path d="M330.6,37.3c0-0.4,0.1-0.6,0.3-0.8c0.2-0.1,0.4-0.2,0.6-0.2c0.3,0,0.5,0.1,0.7,0.3c0.2,0.2,0.3,0.4,0.3,0.7
		c0,0.3,0,0.5-0.1,0.6c-0.1,0.1-0.2,0.3-0.3,0.3c-0.1,0.1-0.3,0.1-0.5,0.1c-0.3,0-0.5-0.1-0.7-0.3C330.6,37.8,330.6,37.6,330.6,37.3
		 M330.9,37.3c0,0.3,0.1,0.4,0.2,0.6c0.1,0.1,0.2,0.2,0.4,0.2c0.2,0,0.3-0.1,0.4-0.2c0.1-0.1,0.2-0.3,0.2-0.6c0-0.2-0.1-0.4-0.2-0.6
		c-0.1-0.1-0.2-0.2-0.4-0.2c-0.2,0-0.3,0.1-0.4,0.2C330.9,36.8,330.9,37,330.9,37.3"/>
	<path d="M332.8,38.2v-2h0.3v0.3c0.1-0.2,0.4-0.3,0.6-0.3c0.1,0,0.2,0,0.3,0.1c0.1,0,0.2,0.1,0.2,0.2c0,0.1,0.1,0.2,0.1,0.2
		c0,0.1,0,0.2,0,0.3v1.2h-0.3V37c0-0.1,0-0.2,0-0.3c0-0.1-0.1-0.1-0.1-0.2c-0.1,0-0.1-0.1-0.2-0.1c-0.1,0-0.3,0-0.4,0.1
		c-0.1,0.1-0.2,0.3-0.2,0.5v1.1H332.8z"/>
	<polygon points="304.9,42.1 304.9,39.4 306.9,39.4 306.9,39.7 305.3,39.7 305.3,40.6 306.8,40.6 306.8,40.9 305.3,40.9 305.3,41.8 
		307,41.8 307,42.1 	"/>
	<path d="M308.7,42.1v-0.3c-0.2,0.2-0.4,0.3-0.6,0.3c-0.1,0-0.2,0-0.3-0.1c-0.1,0-0.2-0.1-0.2-0.2c0-0.1-0.1-0.1-0.1-0.2
		c0-0.1,0-0.2,0-0.3v-1.2h0.3v1.1c0,0.2,0,0.3,0,0.4c0,0.1,0.1,0.2,0.1,0.2c0.1,0,0.2,0.1,0.3,0.1c0.1,0,0.2,0,0.3-0.1
		c0.1-0.1,0.1-0.1,0.2-0.2s0.1-0.2,0.1-0.4v-1.1h0.3v2H308.7z"/>
	<path d="M309.5,42.1v-2h0.3v0.3c0.1-0.1,0.1-0.2,0.2-0.3c0.1,0,0.1-0.1,0.2-0.1c0.1,0,0.2,0,0.3,0.1l-0.1,0.3
		c-0.1,0-0.2-0.1-0.2-0.1c-0.1,0-0.1,0-0.2,0.1c-0.1,0-0.1,0.1-0.1,0.2c0,0.1-0.1,0.2-0.1,0.4v1H309.5z"/>
	<path d="M310.7,41.1c0-0.4,0.1-0.6,0.3-0.8c0.2-0.1,0.4-0.2,0.6-0.2c0.3,0,0.5,0.1,0.7,0.3c0.2,0.2,0.3,0.4,0.3,0.7
		c0,0.3,0,0.5-0.1,0.6c-0.1,0.1-0.2,0.3-0.3,0.3c-0.1,0.1-0.3,0.1-0.5,0.1c-0.3,0-0.5-0.1-0.7-0.3C310.8,41.7,310.7,41.5,310.7,41.1
		 M311,41.1c0,0.3,0.1,0.4,0.2,0.6c0.1,0.1,0.2,0.2,0.4,0.2c0.2,0,0.3-0.1,0.4-0.2c0.1-0.1,0.2-0.3,0.2-0.6c0-0.2-0.1-0.4-0.2-0.6
		c-0.1-0.1-0.2-0.2-0.4-0.2c-0.2,0-0.3,0.1-0.4,0.2C311.1,40.7,311,40.9,311,41.1"/>
	<path d="M312.9,42.9v-2.7h0.3v0.3c0.1-0.1,0.2-0.2,0.2-0.2c0.1-0.1,0.2-0.1,0.3-0.1c0.2,0,0.3,0,0.4,0.1c0.1,0.1,0.2,0.2,0.3,0.4
		c0.1,0.2,0.1,0.3,0.1,0.5c0,0.2,0,0.4-0.1,0.5c-0.1,0.2-0.2,0.3-0.3,0.4c-0.1,0.1-0.3,0.1-0.4,0.1c-0.1,0-0.2,0-0.3-0.1
		c-0.1,0-0.2-0.1-0.2-0.2v1H312.9z M313.2,41.2c0,0.3,0.1,0.4,0.2,0.6c0.1,0.1,0.2,0.2,0.4,0.2c0.1,0,0.3-0.1,0.4-0.2
		c0.1-0.1,0.2-0.3,0.2-0.6c0-0.3-0.1-0.4-0.2-0.6c-0.1-0.1-0.2-0.2-0.4-0.2c-0.1,0-0.3,0.1-0.4,0.2
		C313.3,40.7,313.2,40.9,313.2,41.2"/>
	<path d="M316.4,41.5l0.3,0c-0.1,0.2-0.2,0.4-0.3,0.5c-0.1,0.1-0.3,0.2-0.6,0.2c-0.3,0-0.5-0.1-0.7-0.3c-0.2-0.2-0.3-0.4-0.3-0.7
		c0-0.3,0.1-0.6,0.3-0.8c0.2-0.2,0.4-0.3,0.7-0.3c0.3,0,0.5,0.1,0.6,0.3c0.2,0.2,0.3,0.4,0.3,0.8c0,0,0,0,0,0.1h-1.5
		c0,0.2,0.1,0.4,0.2,0.5c0.1,0.1,0.2,0.2,0.4,0.2c0.1,0,0.2,0,0.3-0.1C316.2,41.7,316.3,41.6,316.4,41.5 M315.3,41h1.1
		c0-0.2-0.1-0.3-0.1-0.4c-0.1-0.1-0.2-0.2-0.4-0.2c-0.2,0-0.3,0.1-0.4,0.2C315.3,40.6,315.3,40.8,315.3,41"/>
	<path d="M318.4,41.9c-0.1,0.1-0.2,0.2-0.4,0.2c-0.1,0-0.2,0.1-0.4,0.1c-0.2,0-0.4-0.1-0.5-0.2c-0.1-0.1-0.2-0.2-0.2-0.4
		c0-0.1,0-0.2,0.1-0.3c0-0.1,0.1-0.1,0.2-0.2c0.1,0,0.2-0.1,0.2-0.1c0.1,0,0.2,0,0.3-0.1c0.3,0,0.5-0.1,0.6-0.1c0,0,0-0.1,0-0.1
		c0-0.1,0-0.2-0.1-0.3c-0.1-0.1-0.2-0.1-0.4-0.1c-0.2,0-0.3,0-0.3,0.1c-0.1,0.1-0.1,0.2-0.2,0.3l-0.3,0c0-0.1,0.1-0.3,0.1-0.3
		c0.1-0.1,0.2-0.2,0.3-0.2c0.1,0,0.3-0.1,0.4-0.1c0.2,0,0.3,0,0.4,0.1c0.1,0,0.2,0.1,0.2,0.1c0,0.1,0.1,0.1,0.1,0.2
		c0,0.1,0,0.2,0,0.3v0.4c0,0.3,0,0.5,0,0.6c0,0.1,0,0.2,0.1,0.2h-0.3C318.4,42.1,318.4,42,318.4,41.9 M318.4,41.1
		c-0.1,0-0.3,0.1-0.5,0.1c-0.1,0-0.2,0-0.3,0.1c-0.1,0-0.1,0.1-0.1,0.1c0,0,0,0.1,0,0.2c0,0.1,0,0.2,0.1,0.2
		c0.1,0.1,0.2,0.1,0.3,0.1c0.1,0,0.2,0,0.3-0.1c0.1-0.1,0.2-0.1,0.2-0.2c0-0.1,0.1-0.2,0.1-0.3V41.1z"/>
	<path d="M319.2,42.1v-2h0.3v0.3c0.1-0.2,0.4-0.3,0.6-0.3c0.1,0,0.2,0,0.3,0.1c0.1,0,0.2,0.1,0.2,0.2c0,0.1,0.1,0.2,0.1,0.2
		c0,0.1,0,0.2,0,0.3v1.2h-0.3v-1.2c0-0.1,0-0.2,0-0.3c0-0.1-0.1-0.1-0.1-0.2c-0.1,0-0.1-0.1-0.2-0.1c-0.1,0-0.3,0-0.4,0.1
		c-0.1,0.1-0.2,0.3-0.2,0.5v1.1H319.2z"/>
	<path d="M322.4,42.1v-2.7h1.2c0.2,0,0.4,0,0.6,0.1c0.1,0,0.2,0.1,0.3,0.3c0.1,0.1,0.1,0.3,0.1,0.4c0,0.2-0.1,0.4-0.2,0.5
		c-0.1,0.1-0.3,0.2-0.6,0.3c0.1,0,0.2,0.1,0.2,0.1c0.1,0.1,0.2,0.2,0.3,0.4l0.5,0.7h-0.5l-0.4-0.6c-0.1-0.2-0.2-0.3-0.3-0.4
		c-0.1-0.1-0.1-0.1-0.2-0.2c-0.1,0-0.1-0.1-0.2-0.1c0,0-0.1,0-0.2,0h-0.4v1.2H322.4z M322.8,40.6h0.8c0.2,0,0.3,0,0.4-0.1
		c0.1,0,0.2-0.1,0.2-0.2c0-0.1,0.1-0.2,0.1-0.2c0-0.1,0-0.2-0.1-0.3c-0.1-0.1-0.2-0.1-0.4-0.1h-0.9V40.6z"/>
	<path d="M326.5,41.5l0.3,0c-0.1,0.2-0.2,0.4-0.3,0.5c-0.1,0.1-0.3,0.2-0.6,0.2c-0.3,0-0.5-0.1-0.7-0.3c-0.2-0.2-0.3-0.4-0.3-0.7
		c0-0.3,0.1-0.6,0.3-0.8c0.2-0.2,0.4-0.3,0.7-0.3c0.3,0,0.5,0.1,0.6,0.3c0.2,0.2,0.3,0.4,0.3,0.8c0,0,0,0,0,0.1h-1.5
		c0,0.2,0.1,0.4,0.2,0.5c0.1,0.1,0.2,0.2,0.4,0.2c0.1,0,0.2,0,0.3-0.1C326.4,41.7,326.4,41.6,326.5,41.5 M325.4,40.9h1.1
		c0-0.2-0.1-0.3-0.1-0.4c-0.1-0.1-0.2-0.2-0.4-0.2c-0.2,0-0.3,0.1-0.4,0.2C325.5,40.6,325.4,40.8,325.4,40.9"/>
	<path d="M327.2,42.3l0.3,0c0,0.1,0.1,0.2,0.1,0.2c0.1,0.1,0.2,0.1,0.3,0.1c0.2,0,0.3,0,0.4-0.1c0.1-0.1,0.1-0.1,0.2-0.3
		c0-0.1,0-0.2,0-0.4c-0.1,0.2-0.3,0.3-0.5,0.3c-0.3,0-0.5-0.1-0.6-0.3c-0.1-0.2-0.2-0.4-0.2-0.7c0-0.2,0-0.4,0.1-0.5
		c0.1-0.2,0.2-0.3,0.3-0.4c0.1-0.1,0.3-0.1,0.5-0.1c0.2,0,0.4,0.1,0.6,0.3v-0.2h0.3v1.7c0,0.3,0,0.5-0.1,0.7
		c-0.1,0.1-0.2,0.2-0.3,0.3c-0.1,0.1-0.3,0.1-0.5,0.1c-0.2,0-0.4-0.1-0.6-0.2C327.3,42.7,327.2,42.5,327.2,42.3 M327.5,41.1
		c0,0.3,0.1,0.4,0.2,0.6c0.1,0.1,0.2,0.2,0.4,0.2c0.2,0,0.3-0.1,0.4-0.2c0.1-0.1,0.2-0.3,0.2-0.6c0-0.2-0.1-0.4-0.2-0.5
		c-0.1-0.1-0.2-0.2-0.4-0.2c-0.1,0-0.3,0.1-0.4,0.2C327.5,40.7,327.5,40.9,327.5,41.1"/>
	<path d="M329.4,39.4h0.3v0.4h-0.3V39.4z M329.4,40.2h0.3v2h-0.3V40.2z"/>
	<path d="M330.1,41.1c0-0.4,0.1-0.6,0.3-0.8c0.2-0.1,0.4-0.2,0.6-0.2c0.3,0,0.5,0.1,0.7,0.3c0.2,0.2,0.3,0.4,0.3,0.7
		c0,0.3,0,0.5-0.1,0.6c-0.1,0.1-0.2,0.3-0.3,0.3c-0.1,0.1-0.3,0.1-0.5,0.1c-0.3,0-0.5-0.1-0.7-0.3C330.2,41.7,330.1,41.5,330.1,41.1
		 M330.4,41.1c0,0.3,0.1,0.4,0.2,0.6c0.1,0.1,0.2,0.2,0.4,0.2c0.2,0,0.3-0.1,0.4-0.2c0.1-0.1,0.2-0.3,0.2-0.6c0-0.2-0.1-0.4-0.2-0.6
		c-0.1-0.1-0.2-0.2-0.4-0.2c-0.2,0-0.3,0.1-0.4,0.2C330.5,40.7,330.4,40.9,330.4,41.1"/>
	<path d="M332.3,42.1v-2h0.3v0.3c0.1-0.2,0.4-0.3,0.6-0.3c0.1,0,0.2,0,0.3,0.1c0.1,0,0.2,0.1,0.2,0.2c0,0.1,0.1,0.2,0.1,0.2
		c0,0.1,0,0.2,0,0.3v1.2h-0.3v-1.2c0-0.1,0-0.2,0-0.3c0-0.1-0.1-0.1-0.1-0.2c-0.1,0-0.1-0.1-0.2-0.1c-0.1,0-0.3,0-0.4,0.1
		c-0.1,0.1-0.2,0.3-0.2,0.5v1.1H332.3z"/>
	<path d="M335.7,41.9c-0.1,0.1-0.2,0.2-0.4,0.2c-0.1,0-0.2,0.1-0.4,0.1c-0.2,0-0.4-0.1-0.5-0.2c-0.1-0.1-0.2-0.2-0.2-0.4
		c0-0.1,0-0.2,0.1-0.3c0-0.1,0.1-0.1,0.2-0.2c0.1,0,0.2-0.1,0.2-0.1c0.1,0,0.2,0,0.3-0.1c0.3,0,0.5-0.1,0.6-0.1c0,0,0-0.1,0-0.1
		c0-0.1,0-0.2-0.1-0.3c-0.1-0.1-0.2-0.1-0.4-0.1c-0.2,0-0.3,0-0.3,0.1c-0.1,0.1-0.1,0.2-0.2,0.3l-0.3,0c0-0.1,0.1-0.3,0.1-0.3
		c0.1-0.1,0.2-0.2,0.3-0.2c0.1,0,0.3-0.1,0.4-0.1c0.2,0,0.3,0,0.4,0.1c0.1,0,0.2,0.1,0.2,0.1c0,0.1,0.1,0.1,0.1,0.2
		c0,0.1,0,0.2,0,0.3v0.4c0,0.3,0,0.5,0,0.6c0,0.1,0,0.2,0.1,0.2h-0.3C335.8,42.1,335.7,42,335.7,41.9 M335.7,41.1
		c-0.1,0-0.3,0.1-0.5,0.1c-0.1,0-0.2,0-0.3,0.1c-0.1,0-0.1,0.1-0.1,0.1c0,0,0,0.1,0,0.2c0,0.1,0,0.2,0.1,0.2
		c0.1,0.1,0.2,0.1,0.3,0.1c0.1,0,0.2,0,0.3-0.1c0.1-0.1,0.2-0.1,0.2-0.2c0-0.1,0.1-0.2,0.1-0.3V41.1z"/>
	<rect x="336.6" y="39.4" width="0.3" height="2.7"/>
	<path d="M305.1,46v-2.7h0.9c0.2,0,0.4,0,0.5,0c0.2,0,0.3,0.1,0.4,0.2c0.1,0.1,0.3,0.3,0.3,0.5c0.1,0.2,0.1,0.4,0.1,0.6
		c0,0.2,0,0.4-0.1,0.6c0,0.2-0.1,0.3-0.2,0.4c-0.1,0.1-0.2,0.2-0.2,0.2c-0.1,0.1-0.2,0.1-0.3,0.1c-0.1,0-0.3,0-0.4,0H305.1z
		 M305.5,45.7h0.6c0.2,0,0.3,0,0.4-0.1c0.1,0,0.2-0.1,0.2-0.1c0.1-0.1,0.2-0.2,0.2-0.3c0-0.1,0.1-0.3,0.1-0.5c0-0.3,0-0.5-0.1-0.7
		c-0.1-0.2-0.2-0.3-0.3-0.3c-0.1,0-0.3-0.1-0.5-0.1h-0.6V45.7z"/>
	<path d="M309.2,45.4l0.3,0c-0.1,0.2-0.2,0.4-0.3,0.5c-0.1,0.1-0.3,0.2-0.6,0.2c-0.3,0-0.5-0.1-0.7-0.3c-0.2-0.2-0.3-0.4-0.3-0.7
		c0-0.3,0.1-0.6,0.3-0.8c0.2-0.2,0.4-0.3,0.7-0.3c0.3,0,0.5,0.1,0.6,0.3c0.2,0.2,0.3,0.4,0.3,0.8c0,0,0,0,0,0.1h-1.5
		c0,0.2,0.1,0.4,0.2,0.5c0.1,0.1,0.2,0.2,0.4,0.2c0.1,0,0.2,0,0.3-0.1C309.1,45.6,309.1,45.5,309.2,45.4 M308.1,44.8h1.1
		c0-0.2-0.1-0.3-0.1-0.4c-0.1-0.1-0.2-0.2-0.4-0.2c-0.2,0-0.3,0.1-0.4,0.2C308.1,44.5,308.1,44.7,308.1,44.8"/>
	<path d="M310.5,46l-0.8-2h0.4l0.4,1.2c0,0.1,0.1,0.3,0.1,0.4c0-0.1,0.1-0.2,0.1-0.4l0.4-1.2h0.3l-0.7,2H310.5z"/>
	<path d="M313.2,45.4l0.3,0c-0.1,0.2-0.2,0.4-0.3,0.5c-0.1,0.1-0.3,0.2-0.6,0.2c-0.3,0-0.5-0.1-0.7-0.3c-0.2-0.2-0.3-0.4-0.3-0.7
		c0-0.3,0.1-0.6,0.3-0.8c0.2-0.2,0.4-0.3,0.7-0.3c0.3,0,0.5,0.1,0.6,0.3c0.2,0.2,0.3,0.4,0.3,0.8c0,0,0,0,0,0.1h-1.5
		c0,0.2,0.1,0.4,0.2,0.5c0.1,0.1,0.2,0.2,0.4,0.2c0.1,0,0.2,0,0.3-0.1C313.1,45.6,313.1,45.5,313.2,45.4 M312.1,44.8h1.1
		c0-0.2-0.1-0.3-0.1-0.4c-0.1-0.1-0.2-0.2-0.4-0.2c-0.2,0-0.3,0.1-0.4,0.2C312.2,44.5,312.1,44.7,312.1,44.8"/>
	<rect x="314" y="43.3" width="0.3" height="2.7"/>
	<path d="M314.7,45c0-0.4,0.1-0.6,0.3-0.8c0.2-0.1,0.4-0.2,0.6-0.2c0.3,0,0.5,0.1,0.7,0.3c0.2,0.2,0.3,0.4,0.3,0.7
		c0,0.3,0,0.5-0.1,0.6c-0.1,0.1-0.2,0.3-0.3,0.3c-0.1,0.1-0.3,0.1-0.5,0.1c-0.3,0-0.5-0.1-0.7-0.3C314.8,45.6,314.7,45.4,314.7,45
		 M315,45c0,0.3,0.1,0.4,0.2,0.6c0.1,0.1,0.2,0.2,0.4,0.2c0.2,0,0.3-0.1,0.4-0.2c0.1-0.1,0.2-0.3,0.2-0.6c0-0.2-0.1-0.4-0.2-0.6
		c-0.1-0.1-0.2-0.2-0.4-0.2c-0.2,0-0.3,0.1-0.4,0.2S315,44.8,315,45"/>
	<path d="M316.9,46.8V44h0.3v0.3c0.1-0.1,0.2-0.2,0.2-0.2c0.1-0.1,0.2-0.1,0.3-0.1c0.2,0,0.3,0,0.4,0.1c0.1,0.1,0.2,0.2,0.3,0.4
		c0.1,0.2,0.1,0.3,0.1,0.5c0,0.2,0,0.4-0.1,0.5c-0.1,0.2-0.2,0.3-0.3,0.4c-0.1,0.1-0.3,0.1-0.4,0.1c-0.1,0-0.2,0-0.3-0.1
		c-0.1,0-0.2-0.1-0.2-0.2v1H316.9z M317.2,45c0,0.3,0.1,0.4,0.2,0.6c0.1,0.1,0.2,0.2,0.4,0.2c0.1,0,0.3-0.1,0.4-0.2
		c0.1-0.1,0.2-0.3,0.2-0.6c0-0.3-0.1-0.4-0.2-0.6c-0.1-0.1-0.2-0.2-0.4-0.2c-0.1,0-0.3,0.1-0.4,0.2C317.3,44.6,317.2,44.8,317.2,45"
		/>
	<path d="M319,46v-2h0.3v0.3c0.1-0.1,0.1-0.2,0.2-0.2c0.1-0.1,0.2-0.1,0.4-0.1c0.1,0,0.3,0,0.4,0.1c0.1,0.1,0.2,0.1,0.2,0.3
		c0.2-0.2,0.4-0.3,0.6-0.3c0.2,0,0.3,0.1,0.5,0.2c0.1,0.1,0.2,0.3,0.2,0.5V46h-0.3v-1.2c0-0.1,0-0.2,0-0.3c0-0.1-0.1-0.1-0.1-0.1
		c-0.1,0-0.1-0.1-0.2-0.1c-0.1,0-0.3,0-0.3,0.1c-0.1,0.1-0.1,0.2-0.1,0.4V46h-0.3v-1.3c0-0.1,0-0.3-0.1-0.3
		c-0.1-0.1-0.1-0.1-0.3-0.1c-0.1,0-0.2,0-0.3,0.1c-0.1,0.1-0.1,0.1-0.2,0.2c0,0.1-0.1,0.2-0.1,0.4v1H319z"/>
	<path d="M323.6,45.4l0.3,0c-0.1,0.2-0.2,0.4-0.3,0.5c-0.1,0.1-0.3,0.2-0.6,0.2c-0.3,0-0.5-0.1-0.7-0.3c-0.2-0.2-0.3-0.4-0.3-0.7
		c0-0.3,0.1-0.6,0.3-0.8c0.2-0.2,0.4-0.3,0.7-0.3c0.3,0,0.5,0.1,0.6,0.3c0.2,0.2,0.3,0.4,0.3,0.8c0,0,0,0,0,0.1h-1.5
		c0,0.2,0.1,0.4,0.2,0.5s0.2,0.2,0.4,0.2c0.1,0,0.2,0,0.3-0.1C323.4,45.6,323.5,45.5,323.6,45.4 M322.5,44.8h1.1
		c0-0.2-0.1-0.3-0.1-0.4c-0.1-0.1-0.2-0.2-0.4-0.2c-0.2,0-0.3,0.1-0.4,0.2C322.5,44.5,322.5,44.7,322.5,44.8"/>
	<path d="M324.3,46v-2h0.3v0.3c0.1-0.2,0.4-0.3,0.6-0.3c0.1,0,0.2,0,0.3,0.1c0.1,0,0.2,0.1,0.2,0.2c0,0.1,0.1,0.2,0.1,0.2
		c0,0.1,0,0.2,0,0.3V46h-0.3v-1.2c0-0.1,0-0.2,0-0.3c0-0.1-0.1-0.1-0.1-0.2c-0.1,0-0.1-0.1-0.2-0.1c-0.1,0-0.3,0-0.4,0.1
		c-0.1,0.1-0.2,0.3-0.2,0.5V46H324.3z"/>
	<path d="M327.2,45.7l0,0.3c-0.1,0-0.2,0-0.3,0c-0.1,0-0.2,0-0.3-0.1c-0.1,0-0.1-0.1-0.1-0.2c0-0.1,0-0.2,0-0.4v-1.1h-0.2V44h0.2
		v-0.5l0.3-0.2V44h0.3v0.3h-0.3v1.2c0,0.1,0,0.2,0,0.2c0,0,0,0,0.1,0.1c0,0,0.1,0,0.1,0C327.1,45.7,327.1,45.7,327.2,45.7"/>
	<polygon points="328.6,46 328.6,43.3 330.5,43.3 330.5,43.6 329,43.6 329,44.5 330.3,44.5 330.3,44.8 329,44.8 329,46 	"/>
	<path d="M332.2,46v-0.3c-0.2,0.2-0.4,0.3-0.6,0.3c-0.1,0-0.2,0-0.3-0.1c-0.1,0-0.2-0.1-0.2-0.2c0-0.1-0.1-0.2-0.1-0.2
		c0-0.1,0-0.2,0-0.3V44h0.3v1.1c0,0.2,0,0.3,0,0.4c0,0.1,0.1,0.2,0.1,0.2c0.1,0.1,0.2,0.1,0.3,0.1c0.1,0,0.2,0,0.3-0.1
		c0.1-0.1,0.2-0.1,0.2-0.2c0-0.1,0.1-0.2,0.1-0.4V44h0.3v2H332.2z"/>
	<path d="M333,46v-2h0.3v0.3c0.1-0.2,0.4-0.3,0.6-0.3c0.1,0,0.2,0,0.3,0.1c0.1,0,0.2,0.1,0.2,0.2c0,0.1,0.1,0.2,0.1,0.2
		c0,0.1,0,0.2,0,0.3V46h-0.3v-1.2c0-0.1,0-0.2,0-0.3c0-0.1-0.1-0.1-0.1-0.2c-0.1,0-0.1-0.1-0.2-0.1c-0.1,0-0.3,0-0.4,0.1
		c-0.1,0.1-0.2,0.3-0.2,0.5V46H333z"/>
	<path d="M336.4,46v-0.2c-0.1,0.2-0.3,0.3-0.6,0.3c-0.2,0-0.3,0-0.4-0.1c-0.1-0.1-0.2-0.2-0.3-0.4c-0.1-0.2-0.1-0.3-0.1-0.5
		c0-0.2,0-0.4,0.1-0.5c0.1-0.2,0.2-0.3,0.3-0.4c0.1-0.1,0.3-0.1,0.4-0.1c0.1,0,0.2,0,0.3,0.1c0.1,0,0.2,0.1,0.2,0.2v-1h0.3V46H336.4
		z M335.3,45c0,0.3,0.1,0.4,0.2,0.6c0.1,0.1,0.2,0.2,0.4,0.2c0.1,0,0.3-0.1,0.4-0.2c0.1-0.1,0.2-0.3,0.2-0.5c0-0.3-0.1-0.5-0.2-0.6
		c-0.1-0.1-0.2-0.2-0.4-0.2c-0.1,0-0.3,0.1-0.4,0.2C335.4,44.6,335.3,44.8,335.3,45"/>
	<rect x="302.1" y="8" class="st3" width="37.5" height="25.1"/>
	<polygon class="st4" points="321.1,11.7 322.2,11.7 321.3,12.3 321.7,13.3 320.8,12.7 319.9,13.3 320.3,12.3 319.4,11.7 
		320.5,11.7 320.8,10.6 	"/>
	<polygon class="st4" points="321.2,28.4 322.2,28.4 321.4,29 321.7,30.1 320.8,29.4 320,30.1 320.3,29 319.4,28.4 320.5,28.4 
		320.8,27.4 	"/>
	<polygon class="st4" points="325.3,27.3 326.4,27.3 325.5,27.9 325.8,29 325,28.3 324.1,29 324.4,27.9 323.6,27.3 324.6,27.3 
		325,26.3 	"/>
	<polygon class="st4" points="325.3,12.8 326.4,12.8 325.5,13.4 325.8,14.4 325,13.8 324.1,14.4 324.4,13.4 323.6,12.8 324.6,12.8 
		325,11.7 	"/>
	<polygon class="st4" points="328.4,15.8 329.4,15.8 328.6,16.5 328.9,17.5 328,16.9 327.2,17.5 327.5,16.5 326.6,15.8 327.7,15.8 
		328,14.8 	"/>
	<polygon class="st4" points="328.4,24.2 329.4,24.2 328.6,24.9 328.9,25.9 328,25.3 327.2,25.9 327.5,24.9 326.6,24.2 327.7,24.2 
		328,23.2 	"/>
	<polygon class="st4" points="329.5,20 330.6,20 329.7,20.6 330.1,21.7 329.2,21 328.3,21.7 328.7,20.6 327.8,20 328.9,20 329.2,19 
			"/>
	<polygon class="st4" points="316.9,12.8 318,12.8 317.1,13.4 317.4,14.5 316.6,13.8 315.7,14.5 316,13.4 315.2,12.8 316.2,12.8 
		316.6,11.8 	"/>
	<polygon class="st4" points="313.9,15.8 315,15.8 314.1,16.5 314.4,17.5 313.6,16.9 312.7,17.5 313.1,16.5 312.2,15.8 313.3,15.8 
		313.6,14.8 	"/>
	<polygon class="st4" points="312.8,20 313.9,20 313,20.6 313.3,21.7 312.5,21 311.6,21.7 311.9,20.6 311.1,20 312.1,20 312.5,19 	
		"/>
	<polygon class="st4" points="313.9,24.3 315,24.3 314.1,24.9 314.4,25.9 313.6,25.3 312.7,25.9 313.1,24.9 312.2,24.3 313.3,24.3 
		313.6,23.2 	"/>
	<polygon class="st4" points="316.9,27.3 318,27.3 317.1,27.9 317.5,29 316.6,28.3 315.7,29 316.1,27.9 315.2,27.3 316.3,27.3 
		316.6,26.3 	"/>
	<g>
		<path class="st5" d="M360.8,13c2.9,0.3,5.6,1.2,8,2.7c0,0,0.1,0,0.2,0.1c-2.9-4.2-7.7-7.2-13.3-7.7c-4.9-0.4-9.5,1-13,3.8
			c2.7,0.5,5,1.9,6.8,3.7C352.7,13.7,356.7,12.6,360.8,13"/>
		<path class="st6" d="M372,24.5C372,24.5,372,24.5,372,24.5C372,24.5,372,24.5,372,24.5L372,24.5"/>
		<path class="st7" d="M372.1,24.7c0-0.1,0-0.3,0-0.4c-0.3-3.1-1.4-6.1-3.1-8.6c-0.1-0.1-0.2-0.1-0.2-0.1c-2.3-1.5-5-2.4-8-2.7
			c-4.1-0.4-8.1,0.7-11.3,2.7c2,2.1,3.3,4.9,3.6,7.9c0.1,0.8,0.1,1.5,0,2.3c-0.1,1.2-0.4,2.4-0.8,3.5c-0.8,2-2,3.7-3.6,5.1l0,0
			c6-3.5,13.4-5,20.8-3.9c-0.7,0.6-1.7,1.2-2.5,1.6c1-0.3,4.5-1.6,4.5-1.8c0,0,0,0,0,0h0C371.5,30.4,372.3,27.8,372.1,24.7"/>
		<path class="st6" d="M371.7,24.3c-2.3-1.6-4.2-2.5-8.3-2.9c-3.1-0.3-6,0.2-8.7,1.3c0.1,0.7,0.1,1.5,0,2.3
			c-0.3,3.7-2.3,6.9-5.2,8.9c7.4-4.2,14.1-4.8,19.7-3.9c0.4,0.1,1.5,0.3,2.1,0.4C372.1,27.1,371.8,24.9,371.7,24.3"/>
		<rect x="353.5" y="35.5" width="0.4" height="2.7"/>
		<path d="M354.5,38.3v-2h0.3v0.3c0.1-0.2,0.4-0.3,0.6-0.3c0.1,0,0.2,0,0.3,0.1c0.1,0,0.2,0.1,0.2,0.2c0,0.1,0.1,0.2,0.1,0.2
			c0,0.1,0,0.2,0,0.3v1.2h-0.3v-1.2c0-0.1,0-0.2,0-0.3c0-0.1-0.1-0.1-0.1-0.2c-0.1,0-0.1-0.1-0.2-0.1c-0.1,0-0.3,0-0.4,0.1
			c-0.1,0.1-0.2,0.3-0.2,0.5v1.1H354.5z"/>
		<path d="M357.1,38.3l-0.8-2h0.4l0.4,1.2c0,0.1,0.1,0.3,0.1,0.4c0-0.1,0.1-0.2,0.1-0.4l0.4-1.2h0.3l-0.7,2H357.1z"/>
		<path d="M359.9,37.6l0.3,0c-0.1,0.2-0.2,0.4-0.3,0.5c-0.1,0.1-0.3,0.2-0.6,0.2c-0.3,0-0.5-0.1-0.7-0.3c-0.2-0.2-0.3-0.4-0.3-0.7
			c0-0.3,0.1-0.6,0.3-0.8c0.2-0.2,0.4-0.3,0.7-0.3c0.3,0,0.5,0.1,0.6,0.3c0.2,0.2,0.3,0.4,0.3,0.8c0,0,0,0,0,0.1h-1.5
			c0,0.2,0.1,0.4,0.2,0.5c0.1,0.1,0.2,0.2,0.4,0.2c0.1,0,0.2,0,0.3-0.1C359.7,37.9,359.8,37.8,359.9,37.6 M358.8,37.1h1.1
			c0-0.2-0.1-0.3-0.1-0.4c-0.1-0.1-0.2-0.2-0.4-0.2c-0.2,0-0.3,0.1-0.4,0.2C358.8,36.8,358.8,36.9,358.8,37.1"/>
		<path d="M360.5,37.7l0.3-0.1c0,0.1,0.1,0.2,0.2,0.3c0.1,0.1,0.2,0.1,0.4,0.1c0.2,0,0.3,0,0.3-0.1c0.1-0.1,0.1-0.1,0.1-0.2
			c0-0.1,0-0.1-0.1-0.2c0,0-0.2-0.1-0.3-0.1c-0.2-0.1-0.4-0.1-0.5-0.2c-0.1,0-0.2-0.1-0.2-0.2c0-0.1-0.1-0.2-0.1-0.3
			c0-0.1,0-0.2,0.1-0.2c0-0.1,0.1-0.1,0.2-0.2c0.1,0,0.1-0.1,0.2-0.1c0.1,0,0.2,0,0.3,0c0.2,0,0.3,0,0.4,0.1c0.1,0,0.2,0.1,0.3,0.2
			c0.1,0.1,0.1,0.2,0.1,0.3l-0.3,0c0-0.1-0.1-0.2-0.1-0.2c-0.1-0.1-0.2-0.1-0.3-0.1c-0.2,0-0.3,0-0.3,0.1c-0.1,0.1-0.1,0.1-0.1,0.2
			c0,0,0,0.1,0,0.1c0,0,0.1,0.1,0.1,0.1c0,0,0.1,0,0.3,0.1c0.2,0.1,0.4,0.1,0.5,0.2c0.1,0,0.2,0.1,0.2,0.2c0.1,0.1,0.1,0.2,0.1,0.3
			c0,0.1,0,0.2-0.1,0.3c-0.1,0.1-0.2,0.2-0.3,0.2c-0.1,0.1-0.3,0.1-0.4,0.1c-0.3,0-0.5-0.1-0.6-0.2C360.6,38,360.5,37.9,360.5,37.7"
			/>
		<path d="M363.3,38l0,0.3c-0.1,0-0.2,0-0.3,0c-0.1,0-0.2,0-0.3-0.1c-0.1,0-0.1-0.1-0.1-0.2c0-0.1,0-0.2,0-0.4v-1.1h-0.2v-0.3h0.2
			v-0.5l0.3-0.2v0.7h0.3v0.3h-0.3v1.2c0,0.1,0,0.2,0,0.2c0,0,0,0,0.1,0.1c0,0,0.1,0,0.1,0C363.1,38,363.2,38,363.3,38"/>
		<path d="M363.6,35.5h0.3v0.4h-0.3V35.5z M363.6,36.3h0.3v2h-0.3V36.3z"/>
		<path d="M364.4,38.3v-2h0.3v0.3c0.1-0.2,0.4-0.3,0.6-0.3c0.1,0,0.2,0,0.3,0.1c0.1,0,0.2,0.1,0.2,0.2c0,0.1,0.1,0.2,0.1,0.2
			c0,0.1,0,0.2,0,0.3v1.2h-0.3v-1.2c0-0.1,0-0.2,0-0.3c0-0.1-0.1-0.1-0.1-0.2c-0.1,0-0.1-0.1-0.2-0.1c-0.1,0-0.3,0-0.4,0.1
			c-0.1,0.1-0.2,0.3-0.2,0.5v1.1H364.4z"/>
		<path d="M366.5,38.4l0.3,0c0,0.1,0.1,0.2,0.1,0.2c0.1,0.1,0.2,0.1,0.3,0.1c0.2,0,0.3,0,0.4-0.1c0.1-0.1,0.1-0.1,0.2-0.3
			c0-0.1,0-0.2,0-0.4c-0.1,0.2-0.3,0.3-0.5,0.3c-0.3,0-0.5-0.1-0.6-0.3c-0.1-0.2-0.2-0.4-0.2-0.7c0-0.2,0-0.4,0.1-0.5
			c0.1-0.2,0.2-0.3,0.3-0.4c0.1-0.1,0.3-0.1,0.5-0.1c0.2,0,0.4,0.1,0.6,0.3v-0.2h0.3V38c0,0.3,0,0.5-0.1,0.7
			c-0.1,0.1-0.2,0.2-0.3,0.3c-0.1,0.1-0.3,0.1-0.5,0.1c-0.2,0-0.4-0.1-0.6-0.2C366.5,38.8,366.5,38.6,366.5,38.4 M366.8,37.2
			c0,0.3,0.1,0.4,0.2,0.6c0.1,0.1,0.2,0.2,0.4,0.2c0.2,0,0.3-0.1,0.4-0.2c0.1-0.1,0.2-0.3,0.2-0.6c0-0.2-0.1-0.4-0.2-0.5
			c-0.1-0.1-0.2-0.2-0.4-0.2c-0.1,0-0.3,0.1-0.4,0.2C366.8,36.8,366.8,37,366.8,37.2"/>
		<path d="M349.9,39.4h0.3v0.4h-0.3V39.4z M349.9,40.1h0.3v2h-0.3V40.1z"/>
		<path d="M350.8,42.1v-2h0.3v0.3c0.1-0.2,0.4-0.3,0.6-0.3c0.1,0,0.2,0,0.3,0.1c0.1,0,0.2,0.1,0.2,0.2c0,0.1,0.1,0.2,0.1,0.2
			c0,0.1,0,0.2,0,0.3v1.2h-0.3v-1.2c0-0.1,0-0.2,0-0.3c0-0.1-0.1-0.1-0.1-0.2c-0.1,0-0.1-0.1-0.2-0.1c-0.1,0-0.3,0-0.4,0.1
			c-0.1,0.1-0.2,0.3-0.2,0.5v1.1H350.8z"/>
		<path d="M353.9,42.9l0-0.3c0.1,0,0.1,0,0.2,0c0.1,0,0.1,0,0.2,0c0,0,0.1-0.1,0.1-0.1c0,0,0.1-0.1,0.1-0.2c0,0,0,0,0-0.1l-0.7-2
			h0.4l0.4,1.1c0.1,0.1,0.1,0.3,0.1,0.5c0-0.2,0.1-0.3,0.1-0.4l0.4-1.2h0.3l-0.8,2c-0.1,0.2-0.1,0.4-0.2,0.4
			c-0.1,0.1-0.1,0.2-0.2,0.2c-0.1,0.1-0.2,0.1-0.3,0.1C354.1,42.9,354,42.9,353.9,42.9"/>
		<path d="M355.7,41.1c0-0.4,0.1-0.6,0.3-0.8c0.2-0.1,0.4-0.2,0.6-0.2c0.3,0,0.5,0.1,0.7,0.3c0.2,0.2,0.3,0.4,0.3,0.7
			c0,0.3,0,0.5-0.1,0.6c-0.1,0.1-0.2,0.3-0.3,0.3c-0.1,0.1-0.3,0.1-0.5,0.1c-0.3,0-0.5-0.1-0.7-0.3
			C355.8,41.7,355.7,41.5,355.7,41.1 M356.1,41.1c0,0.3,0.1,0.4,0.2,0.6c0.1,0.1,0.2,0.2,0.4,0.2c0.2,0,0.3-0.1,0.4-0.2
			c0.1-0.1,0.2-0.3,0.2-0.6c0-0.2-0.1-0.4-0.2-0.6c-0.1-0.1-0.2-0.2-0.4-0.2c-0.2,0-0.3,0.1-0.4,0.2
			C356.1,40.7,356.1,40.9,356.1,41.1"/>
		<path d="M359.3,42.1v-0.3c-0.2,0.2-0.4,0.3-0.6,0.3c-0.1,0-0.2,0-0.3-0.1c-0.1,0-0.2-0.1-0.2-0.2c0-0.1-0.1-0.2-0.1-0.2
			c0-0.1,0-0.2,0-0.3v-1.2h0.3v1.1c0,0.2,0,0.3,0,0.4c0,0.1,0.1,0.2,0.1,0.2c0.1,0.1,0.2,0.1,0.3,0.1c0.1,0,0.2,0,0.3-0.1
			c0.1-0.1,0.2-0.1,0.2-0.2c0-0.1,0.1-0.2,0.1-0.4v-1.1h0.3v2H359.3z"/>
		<path d="M360.1,42.1v-2h0.3v0.3c0.1-0.1,0.1-0.2,0.2-0.3c0.1,0,0.1-0.1,0.2-0.1c0.1,0,0.2,0,0.3,0.1l-0.1,0.3
			c-0.1,0-0.2-0.1-0.2-0.1c-0.1,0-0.1,0-0.2,0.1c-0.1,0-0.1,0.1-0.1,0.2c0,0.1-0.1,0.2-0.1,0.4v1H360.1z"/>
		<path d="M362.5,42.1v-1.7h-0.3v-0.3h0.3v-0.2c0-0.1,0-0.2,0-0.3c0-0.1,0.1-0.2,0.2-0.2c0.1-0.1,0.2-0.1,0.3-0.1c0.1,0,0.2,0,0.3,0
			l-0.1,0.3c-0.1,0-0.1,0-0.2,0c-0.1,0-0.2,0-0.2,0.1c0,0-0.1,0.1-0.1,0.2v0.2h0.4v0.3h-0.4v1.7H362.5z"/>
		<path d="M364.8,42.1v-0.3c-0.2,0.2-0.4,0.3-0.6,0.3c-0.1,0-0.2,0-0.3-0.1c-0.1,0-0.2-0.1-0.2-0.2c0-0.1-0.1-0.2-0.1-0.2
			c0-0.1,0-0.2,0-0.3v-1.2h0.3v1.1c0,0.2,0,0.3,0,0.4c0,0.1,0.1,0.2,0.1,0.2c0.1,0.1,0.2,0.1,0.3,0.1c0.1,0,0.2,0,0.3-0.1
			c0.1-0.1,0.2-0.1,0.2-0.2c0-0.1,0.1-0.2,0.1-0.4v-1.1h0.3v2H364.8z"/>
		<path d="M366.3,41.8l0,0.3c-0.1,0-0.2,0-0.3,0c-0.1,0-0.2,0-0.3-0.1c-0.1,0-0.1-0.1-0.1-0.2c0-0.1,0-0.2,0-0.4v-1.1h-0.2v-0.3h0.2
			v-0.5l0.3-0.2v0.7h0.3v0.3H366v1.2c0,0.1,0,0.2,0,0.2c0,0,0,0,0.1,0.1c0,0,0.1,0,0.1,0C366.2,41.8,366.3,41.8,366.3,41.8"/>
		<path d="M367.9,42.1v-0.3c-0.2,0.2-0.4,0.3-0.6,0.3c-0.1,0-0.2,0-0.3-0.1c-0.1,0-0.2-0.1-0.2-0.2c0-0.1-0.1-0.2-0.1-0.2
			c0-0.1,0-0.2,0-0.3v-1.2h0.3v1.1c0,0.2,0,0.3,0,0.4c0,0.1,0.1,0.2,0.1,0.2c0.1,0.1,0.2,0.1,0.3,0.1c0.1,0,0.2,0,0.3-0.1
			c0.1-0.1,0.2-0.1,0.2-0.2c0-0.1,0.1-0.2,0.1-0.4v-1.1h0.3v2H367.9z"/>
		<path d="M368.8,42.1v-2h0.3v0.3c0.1-0.1,0.1-0.2,0.2-0.3c0.1,0,0.1-0.1,0.2-0.1c0.1,0,0.2,0,0.3,0.1l-0.1,0.3
			c-0.1,0-0.2-0.1-0.2-0.1c-0.1,0-0.1,0-0.2,0.1c-0.1,0-0.1,0.1-0.1,0.2c0,0.1-0.1,0.2-0.1,0.4v1H368.8z"/>
		<path d="M371.4,41.5l0.3,0c-0.1,0.2-0.2,0.4-0.3,0.5c-0.1,0.1-0.3,0.2-0.6,0.2c-0.3,0-0.5-0.1-0.7-0.3c-0.2-0.2-0.3-0.4-0.3-0.7
			c0-0.3,0.1-0.6,0.3-0.8c0.2-0.2,0.4-0.3,0.7-0.3c0.3,0,0.5,0.1,0.6,0.3c0.2,0.2,0.3,0.4,0.3,0.8c0,0,0,0,0,0.1h-1.5
			c0,0.2,0.1,0.4,0.2,0.5c0.1,0.1,0.2,0.2,0.4,0.2c0.1,0,0.2,0,0.3-0.1C371.3,41.7,371.3,41.6,371.4,41.5 M370.3,40.9h1.1
			c0-0.2-0.1-0.3-0.1-0.4c-0.1-0.1-0.2-0.2-0.4-0.2c-0.2,0-0.3,0.1-0.4,0.2C370.4,40.6,370.3,40.8,370.3,40.9"/>
	</g>
</g>
</svg>
