<?xml version="1.0" encoding="utf-8"?>
<!-- Generator: Adobe Illustrator 27.2.0, SVG Export Plug-In . SVG Version: 6.00 Build 0)  -->
<svg version="1.1" id="Layer_1" xmlns="http://www.w3.org/2000/svg" xmlns:xlink="http://www.w3.org/1999/xlink" x="0px" y="0px"
	 viewBox="0 0 520 48.799999" style="enable-background:new 0 0 520 48.799999;" xml:space="preserve">
<style type="text/css">
	.st0{fill:#0066CC;}
	.st1{fill:#FFCC00;}
	.st2{fill:#034EA2;}
	.st3{fill:#FFF200;}
	.st4{fill:#FAA61A;}
	.st5{fill:#A6CE39;}
	.st6{fill:#4AB969;}
	.st7{fill:#00ACCD;}
	.st8{fill:#007DC5;}
	.st9{fill:#FFFFFF;}
	.st10{fill:#29333A;}
	.st11{fill-rule:evenodd;clip-rule:evenodd;fill:#0072CE;}
	.st12{fill-rule:evenodd;clip-rule:evenodd;fill:#FFFFFF;}
	.st13{fill-rule:evenodd;clip-rule:evenodd;}
	.st14{fill:#003399;}
</style>
<g>
	<path class="st0" d="M60.599998,8.2v13.599999H57.5V8.2H60.599998z"/>
	<path class="st0" d="M65.699997,13.9v7.800001h-3.099998V8.2h2.800003l2.199997,3.3L70.5,16h0.199997V8.2h3.199997v13.599999
		h-2.800003l-2.800003-4.1L65.900002,14L65.699997,13.9C65.699997,14,65.699997,13.9,65.699997,13.9z"/>
	<path class="st0" d="M80.800003,21.700001h-5.199997V8.2h5.199997c2.800003,0,4.900002,1.3,4.900002,4.3v4.9
		C85.800003,20.299999,83.300003,21.700001,80.800003,21.700001z M82.599998,13.1c0-1.5-1.199997-2.1-2.099998-2.1h-1.699997v8
		h1.599998c1,0,2.099998-0.5,2.099998-2.1L82.599998,13.1L82.599998,13.1z"/>
	<path class="st0" d="M92.699997,21.799999c-2.699997,0-5.300003-1.4-5.300003-4.4V8.2h3.099998V17c0,1.5,1.199997,2.1,2.099998,2.1
		c1,0,2.099998-0.5,2.099998-2.1V8.2h3.099998v9.2C98,20.4,95.300003,21.799999,92.699997,21.799999z"/>
	<path class="st0" d="M104.5,21.799999c-2,0-3.699997-0.4-5.400002-1.9L100.900002,17.6
		c1.199997,0.9,2.300003,1.299999,3.5,1.299999c1.699997,0,2.199997-0.700001,2.199997-1.299999c0-0.799999-0.699997-1.200001-3-1.8
		c-2.5-0.7-3.900002-1.6-3.900002-3.900001c0-2.5,2.099998-4,4.900002-4c1.5,0,3.099998,0.2,4.699997,1.3l-1.400002,2.5
		c-1.300003-0.8-2.300003-0.9-3.400002-0.9c-1,0-1.699997,0.4-1.699997,1.1c0,0.7,0.699997,1.1,2.900002,1.7c3.5,1,4,2.4,4,4.1
		C109.900002,20.5,107.5,21.799999,104.5,21.799999z"/>
	<path class="st0" d="M117.099998,10.9v10.699999H114V10.9h-3.5V8.2h10V11h-3.400002V10.9z"/>
	<path class="st0" d="M127.800003,8.2c2.899994,0,4.100006,2.099999,4.100006,4.3c0,1.4-0.899994,2.9-2.199997,3.799999
		l2.399994,5.5h-3.300003l-2.099998-5h-2v5h-3.099998V8.2H127.800003z M124.900002,14h2.300003
		c1.200005,0,1.599998-0.7,1.599998-1.5s-0.5-1.5-1.599998-1.5h-2.300003V14z"/>
	<path class="st0" d="M137.899994,13.4l1-2.3l1.300003-2.900001H143.5l-4.100006,8.199999v5.4h-3.100006v-5.4l-4-8.2h3.300003
		l1.300003,3L137.899994,13.4L137.899994,13.4z"/>
	<path class="st0" d="M150.699997,13.9h1.5v-0.2c0-0.5-0.399994-0.9-1.199997-0.9c-0.5,0-1.199997,0.1-2,0.6l-1.100006-1.6
		c1.199997-0.9,2.199997-1.1,3.100006-1.1c2,0,3.300003,1,3.300003,3.099999v2.299999c0,0.5,0.5,0.5,0.600006,0.5
		c0.5,0,1.600006-0.6,1.600006-2.6c0-2.8-1.699997-4.8-5.199997-4.8c-3.699997,0-6,2.5-6,5.400001s2.100006,5.5,5.5,5.5
		c0.600006,0,1.300003,0,2.5-0.4l0.600006,1.799999c-0.899994,0.4-2.399994,0.6-3.300003,0.6
		c-4.600006,0-7.399994-3.200001-7.399994-7.3c0-4.2,3.300003-7.4,8.100006-7.4c4.899994,0,7.300003,3,7.300003,6.800001
		c0,2.6-1.699997,4.699999-4.100006,4.699999c-0.699997,0-1.800003-0.1-2.300003-0.9
		c-0.800003,0.5-1.699997,0.799999-2.199997,0.799999c-1.800003,0-2.5-1.200001-2.5-2.4
		C147.699997,14.5,149.600006,13.9,150.699997,13.9z M152.199997,15.5h-1.399994C150.400009,15.5,150,15.6,150,16
		c0,0.299999,0.300003,0.5,0.699997,0.5c0.699997,0,1.199997-0.299999,1.399994-0.4L152.199997,15.5L152.199997,15.5z"/>
	<path class="st0" d="M166.300003,10.9v10.699999h-3.100006V10.9h-3.5V8.2h10V11h-3.399994V10.9z"/>
	<path class="st0" d="M177.100006,19.1h-4.399994l-0.800003,2.700001h-3.399994l4.800003-13.6h3.199997l4.699997,13.6h-3.300003
		L177.100006,19.1z M173.5,16.5h2.800003L176,15.6l-1.100006-3.8l0,0l-1.100006,3.8L173.5,16.5z"/>
	<path class="st0" d="M182.5,21.700001V8.2h3.100006v10.7H192v2.799999L182.5,21.700001L182.5,21.700001z"/>
	<path class="st0" d="M193.100006,21.700001V8.2h3.100006v10.7h6.399994v2.799999L193.100006,21.700001L193.100006,21.700001z"/>
	<path class="st0" d="M207,8.2v13.599999h-3.100006V8.2H207z"/>
	<path class="st0" d="M212.100006,13.9v7.800001H209V8.2h2.800003L214,11.5l2.899994,4.5H217V8.2h3.100006v13.599999h-2.800003
		l-2.800003-4.1L212.100006,13.9L212.100006,13.9L212.100006,13.9z"/>
	<path class="st0" d="M225.199997,13.9v7.800001h-3.100006V8.2h2.800003l2.199997,3.3L230,16h0.100006V8.2h3.100006v13.599999
		h-2.800003l-2.800003-4.1L225.199997,13.9L225.199997,13.9L225.199997,13.9z"/>
	<path class="st1" d="M68.199997,39.599998C69,40.299999,70,40.899998,71.099998,41.5L70,43.5
		c-1.199997-0.400002-2.900002-1.5-3.800003-2.400002c-0.699997,0.599998-2.099998,1.299999-3.5,1.299999
		c-2.400002,0-4.400002-1.5-4.400002-4c0-1.799999,1.299999-3.099998,2.700001-3.900002
		c-0.400002-0.599998-0.599998-1.299999-0.599998-2.099998c0-1.799999,1.200001-3.1,3-3.1S66.5,30.599997,66.5,32.199997
		c0,1.5-1.099998,2.5-2.099998,3.200001c0.599998,1,1.300003,1.900002,2.099998,2.799999
		c1.199997-1.299999,1.800003-3.099998,1.800003-4.599998c0-2.799999-1.800003-5.1-4.799999-5.1
		c-2.799999,0-4.5,1.700001-4.5,3.699999c0,0.700001,0.099998,1.5,0.799999,2.599998l-2,1.299999
		c-0.900002-1.299999-1.200001-2.599998-1.200001-3.700001c0-3.1,2.599998-6.1,6.799999-6.1
		c4.599998,0,7.199997,3.299999,7.199997,7.300001C70.699997,35.5,69.800003,37.799999,68.199997,39.599998z M62.599998,36.200001
		c-0.900002,0.5-1.700001,1.200001-1.700001,2C60.899998,39.400002,61.599998,40,62.699997,40
		c0.599998,0,1.299999-0.200001,2.099998-0.599998C64.099998,38.599998,63.099998,37.099998,62.599998,36.200001z
		 M63.599998,31.299999c-0.400002,0-0.599998,0.4-0.599998,0.799999c0,0.400002,0.200001,0.599998,0.400002,1.099998
		C64,32.799995,64.300003,32.499996,64.300003,31.999996C64.400002,31.700001,64,31.299999,63.599998,31.299999z"/>
	<path class="st1" d="M84,42h-6.599998V28.5h6.300003c2.900002,0,3.900002,1.700001,3.900002,3.799999
		c0,1-0.5,2.099998-1.699997,2.700001c1.300003,0.599998,2,2.099998,2,3C87.900002,40.299999,86.599998,42,84,42z
		 M82.900002,31.299999h-2.300003v2.5h2.300003c1.099998,0,1.5-0.5,1.5-1.200001
		C84.400002,31.799999,84.099998,31.299999,82.900002,31.299999z M83,36.400002h-2.5v2.900002H83c1,0,1.5-0.5,1.5-1.400002
		C84.599998,37,84.099998,36.400002,83,36.400002z"/>
	<path class="st1" d="M96.900002,39.299999H92.5L91.699997,42h-3.400002L93,28.4h3.199997l4.699997,13.6h-3.300003
		L96.900002,39.299999z M93.400002,36.799999h2.800003l-0.300003-0.900002l-1.099998-3.799999h-0.099998l-1.099998,3.700001
		L93.400002,36.799999z"/>
	<path class="st1" d="M102.300003,42V28.5h3.099998v10.700001h6.400002V42H102.300003z"/>
	<path class="st1" d="M117.199997,31.299999V42h-3.099998V31.299999h-3.5V28.5h10v2.799999H117.199997z"/>
	<path class="st1" d="M125.099998,28.5v13.599998H122V28.5H125.099998z"/>
	<path class="st1" d="M135.100006,32.200001c-0.899994-0.799999-1.899994-1-2.699997-1c-1,0-2.199997,0.5-2.199997,2.099998
		v3.799999c0,1.5,1.300003,2.099998,2.199997,2.099998c0.800003,0,1.699997-0.200001,2.699997-1l1.5,2.400002
		C135.5,41.5,133.900009,41.899998,132.300003,41.899998c-2.5,0-5.300003-1.299999-5.300003-4.299999V32.5
		c0-2.9,2.699997-4.4,5.300003-4.4c1.600006,0,3.300003,0.4,4.300003,1.299999L135.100006,32.200001z"/>
	<path class="st1" d="M142.600006,28.5h9.5v2.799999h-6.300003v2.5h5.5v2.799999h-5.5v2.700001h6.300003V42h-9.5V28.5z"/>
	<path class="st1" d="M159.100006,37.5l1.300003-4.900002l1.199997-4.1h3.300003L160.600006,42h-3.199997L153,28.4h3.300003
		l1.300003,4.199999l1.300003,4.799999h0.199997V37.5z"/>
	<path class="st1" d="M166.100006,28.5h9.5v2.799999h-6.300003v2.5h5.5v2.799999h-5.5v2.700001h6.300003V42h-9.5V28.5z"/>
	<path class="st1" d="M180.199997,34.200001V42h-3.100006V28.5h2.800003l2.199997,3.299999l2.899994,4.5h0.100006V28.5h3.100006
		v13.599998h-2.800003L182.599991,38L180.199997,34.200001L180.199997,34.200001L180.199997,34.200001z"/>
	<path class="st1" d="M196,31.299999V42h-3.100006V31.299999h-3.5V28.5h10v2.799999H196z"/>
	<g>
		<g id="XMLID_00000018238116009917024300000018175453015894901125_">
			<path class="st1" d="M32,24.4h14.400002c-0.900002,5.1-3.299999,10.199999-7,14.4
				c-9.5,10.600002-24.299999,12.899998-33.200001,4.799999C1,38.900002-0.9,31.700001,0.3,24.4h14.4
				c0,2.200001,0.9,4.4,2.599999,6.1c3.4,3.400002,8.9,3.400002,12.299999,0C31.200001,28.9,32,26.6,32,24.4z"/>
			<path class="st1" d="M19.799999,24.4h7c0,0.9-0.4,1.700001-1,2.4c-1.299999,1.299999-3.5,1.4-4.9,0
				C20.200001,26.200001,19.799999,25.299999,19.799999,24.4z"/>
		</g>
		<g id="XMLID_00000172436888910342890510000010745209830598214540_">
			<path class="st0" d="M41,5.5c4.900002,4.7,6.599998,11.799999,5.400002,18.9H32c0-2.200001-0.799999-4.5-2.6-6.199999
				c-3.4-3.4-8.9-3.4-12.300001,0c-1.7,1.700001-2.6,3.9-2.5,6.200001H0.2c0.9-5.200001,3.3-10.5,7.3-14.9
				C17.200001-0.9,32.200001-2.8,41,5.5z"/>
			<path class="st0" d="M25.799999,22c0.700001,0.700001,1.1,1.6,1,2.5h-7c0-0.9,0.4-1.799999,1-2.5
				C22.200001,20.700001,24.5,20.700001,25.799999,22z"/>
		</g>
	</g>
	<g>
		<path class="st0" d="M211.399994,28.799999v13h-1.100006V30.1l-2.600006,1.9l-0.5-0.799999l3.199997-2.4
			C210.399994,28.799999,211.399994,28.799999,211.399994,28.799999z"/>
		<path class="st0" d="M219.100006,29.5c0.5,0.6,0.800003,1.4,0.800003,2.299999c0,0.799999-0.199997,1.5-0.600006,2
			c-0.399994,0.5-1,0.799999-1.699997,1c0.800003,0.099998,1.5,0.400002,1.899994,0.900002S220.199997,37,220.199997,38
			c0,0.799999-0.100006,1.400002-0.399994,2c-0.300003,0.599998-0.699997,1.099998-1.199997,1.400002
			c-0.5,0.299999-1.100006,0.5-1.800003,0.5s-1.199997-0.099998-1.699997-0.400002s-1-0.700001-1.399994-1.299999l0.699997-0.5
			c0.399994,0.5,0.800003,0.799999,1.100006,1C215.900009,40.900002,216.300018,41,216.800018,41
			c0.699997,0,1.300003-0.299999,1.699997-0.799999S219.100021,38.900002,219.100021,38
			c0-1.799999-0.899994-2.700001-2.600006-2.700001h-0.699997l0.100006-0.900002h0.5
			c0.699997,0,1.199997-0.200001,1.699997-0.700001c0.5-0.400002,0.699997-1.099998,0.699997-2
			c0-0.799999-0.199997-1.299999-0.600006-1.799999c-0.399994-0.4-0.899994-0.6-1.5-0.6c-0.399994,0-0.800003,0.1-1.199997,0.299999
			c-0.399994,0.200001-0.699997,0.5-1.100006,0.9l-0.600006-0.6c0.399994-0.5,0.899994-0.9,1.399994-1.1s1-0.4,1.600006-0.4
			C217.800003,28.6,218.600006,28.9,219.100006,29.5z"/>
		<path class="st0" d="M222.300003,36.200001v-0.900002h4.300003v0.900002H222.300003z"/>
		<path class="st0" d="M231,28.799999v13h-1.100006V30.1l-2.600006,1.9l-0.5-0.799999l3.199997-2.4
			C230,28.799999,231,28.799999,231,28.799999z"/>
		<path class="st0" d="M239.5,28.799999v0.9L235.300003,42l-1-0.299999l4.100006-11.9h-5v-0.9h6.100006L239.5,28.799999
			L239.5,28.799999z"/>
		<path class="st0" d="M253.5,41.799999H252l-5-12.1c0.100006,1.200001,0.199997,2.699999,0.199997,4.499998v7.599998h-1.100006
			V28.4h1.5l4.899994,12.1c-0.100006-1.599998-0.199997-2.900002-0.199997-3.900002v-8.200001h1.100006v13.399998L253.5,41.799999z"
			/>
		<path class="st0" d="M264,30c0.799988,1.200001,1.200012,2.900002,1.200012,5.200001s-0.399994,4-1.200012,5.099998
			C263.200012,41.5,262.100006,42,260.700012,42s-2.5-0.599998-3.299988-1.700001
			c-0.799988-1.200001-1.200012-2.900002-1.200012-5.099998c0-2.299999,0.399994-4,1.200012-5.200001
			c0.799988-1.200001,1.899994-1.799999,3.299988-1.799999S263.200012,28.799999,264,30z M258.299988,30.700001
			c-0.600006,1-0.899994,2.5-0.899994,4.5s0.299988,3.5,0.899994,4.5s1.399994,1.400002,2.399994,1.400002
			c1.100006,0,1.899994-0.5,2.5-1.400002s0.899994-2.400002,0.899994-4.5c0-4-1.100006-5.9-3.299988-5.9
			C259.700012,29.200001,258.799988,29.700001,258.299988,30.700001z"/>
		<path class="st0" d="M274.899994,28.4l-3.5,13.4h-1.299988l-3.5-13.4h1.200012l3.100006,12.199999l3-12.200001
			C273.899994,28.4,274.899994,28.4,274.899994,28.4z"/>
	</g>
</g>
<g>
	<g>
		<g>
			<rect x="297" y="1.9" class="st2" width="40" height="26.700001"/>
			<g>
				<polygon class="st3" points="317,4.8 317.299988,5.8 318.399994,5.8 317.600006,6.5 317.899994,7.5 317,6.9 316.100006,7.5 
					316.5,6.5 315.600006,5.8 316.700012,5.8 				"/>
			</g>
			<g>
				<polygon class="st3" points="312.600006,6 312.899994,7 314,7 313.100006,7.7 313.399994,8.7 312.600006,8 311.700012,8.7 
					312,7.7 311.200012,7 312.200012,7 				"/>
			</g>
			<g>
				<polygon class="st3" points="309.299988,9.3 309.600006,10.3 310.700012,10.3 309.899994,10.9 310.200012,11.9 309.299988,11.3 
					308.399994,11.9 308.799988,10.9 307.899994,10.3 309,10.3 				"/>
			</g>
			<g>
				<polygon class="st3" points="308.100006,13.7 308.5,14.7 309.5,14.7 308.600006,15.4 309,16.4 308.100006,15.7 307.299988,16.4 
					307.600006,15.4 306.700012,14.7 307.799988,14.7 				"/>
			</g>
			<g>
				<polygon class="st3" points="309.299988,18.200001 309.600006,19.200001 310.700012,19.200001 309.899994,19.799999 
					310.200012,20.799999 309.299988,20.200001 308.399994,20.799999 308.799988,19.799999 307.899994,19.200001 309,19.200001 				
					"/>
			</g>
			<g>
				<polygon class="st3" points="312.600006,21.4 312.899994,22.4 314,22.4 313.100006,23.1 313.399994,24.1 312.600006,23.5 
					311.700012,24.1 312,23.1 311.200012,22.4 312.200012,22.4 				"/>
			</g>
			<g>
				<polygon class="st3" points="317,22.6 317.299988,23.6 318.399994,23.6 317.600006,24.299999 317.899994,25.299999 317,24.6 
					316.100006,25.299999 316.5,24.299999 315.600006,23.6 316.700012,23.6 				"/>
			</g>
			<g>
				<polygon class="st3" points="321.5,21.4 321.799988,22.4 322.899994,22.4 322,23.1 322.299988,24.1 321.5,23.5 320.600006,24.1 
					320.899994,23.1 320.100006,22.4 321.100006,22.4 				"/>
			</g>
			<g>
				<polygon class="st3" points="324.700012,18.200001 325,19.200001 326.100006,19.200001 325.299988,19.799999 
					325.600006,20.799999 324.700012,20.200001 323.799988,20.799999 324.200012,19.799999 323.299988,19.200001 
					324.399994,19.200001 				"/>
			</g>
			<g>
				<polygon class="st3" points="325.899994,13.7 326.200012,14.7 327.299988,14.7 326.399994,15.4 326.799988,16.4 
					325.899994,15.7 325,16.4 325.399994,15.4 324.5,14.7 325.600006,14.7 				"/>
			</g>
			<g>
				<polygon class="st3" points="324.700012,9.3 325,10.3 326.100006,10.3 325.299988,10.9 325.600006,11.9 324.700012,11.3 
					323.799988,11.9 324.200012,10.9 323.299988,10.3 324.399994,10.3 				"/>
			</g>
			<g>
				<polygon class="st3" points="321.5,6 321.799988,7 322.899994,7 322,7.7 322.299988,8.7 321.5,8 320.600006,8.7 320.899994,7.7 
					320.100006,7 321.100006,7 				"/>
			</g>
		</g>
	</g>
	<g>
		<polyline class="st4" points="348.399994,22.4 348.299988,22.5 348.399994,22.5 348.399994,22.4 		"/>
		<polyline class="st4" points="343.899994,23.700001 343.899994,23.700001 342.600006,23.700001 342.600006,22.5 342.700012,22.5 
			342.600006,22.4 342.600006,24.6 342.600006,23.700001 343.899994,23.700001 		"/>
		<polyline class="st2" points="342.600006,27.299999 342.600006,27.299999 342.600006,26.1 342.600006,28.5 343.700012,28.5 
			343.700012,28.5 342.600006,28.5 342.600006,27.299999 		"/>
		<polyline class="st2" points="348.399994,23.700001 348.399994,23.700001 347.200012,23.700001 347.200012,23.700001 
			348.399994,23.700001 		"/>
		<polyline class="st2" points="347.200012,28.5 348.299988,28.5 347.200012,28.5 347.200012,28.5 		"/>
		<polyline class="st2" points="349.600006,28.5 351.700012,28.5 349.600006,28.5 349.600006,28.5 		"/>
		<polygon class="st2" points="349.600006,23.700001 353.100006,23.700001 353.100006,23.700001 		"/>
		<polygon class="st2" points="359.799988,28.5 361,28.5 361,28.5 		"/>
		<polygon class="st2" points="359.799988,23.700001 361,23.700001 361,23.700001 		"/>
		<polyline class="st4" points="363.799988,22.4 363.799988,22.5 363.899994,22.5 363.799988,22.4 		"/>
		<polyline class="st2" points="366.5,28.5 366.5,28.4 366.5,28.5 366.5,28.5 		"/>
		<polyline class="st2" points="363.299988,23.700001 364.399994,23.700001 364.399994,23.700001 363.299988,23.700001 
			363.299988,23.700001 		"/>
		<polyline class="st2" points="365.200012,28.5 366,28.5 365.200012,28.5 365.200012,28.5 		"/>
		<polyline class="st2" points="361.200012,28.5 362.5,28.5 362.5,28.5 361.200012,28.5 361.200012,28.5 		"/>
		<path class="st2" d="M354.200012,28.5h1.700012l0,0H354.200012L354.200012,28.5"/>
		<polyline class="st2" points="358.299988,23.700001 358.299988,23.700001 354.200012,23.700001 354.200012,23.700001 
			358.299988,23.700001 		"/>
		<polyline class="st2" points="366.5,28.5 366,28.5 366.5,28.5 366.5,28.5 		"/>
		<polyline class="st2" points="366,27.299999 366.5,28.4 366,27.299999 366,27.299999 366,27.299999 366,27.299999 		"/>
		<polyline class="st4" points="342.600006,27.299999 342.600006,27.299999 342.600006,27.299999 342.600006,28.5 343.700012,28.5 
			343.799988,27.299999 342.600006,27.299999 		"/>
		<polyline class="st2" points="345.600006,27.299999 345.600006,27.299999 345.5,27.299999 345.600006,27.299999 		"/>
		<polyline class="st4" points="348.399994,27.299999 347.200012,27.299999 347.200012,28.5 348.399994,28.5 348.399994,27.299999 
					"/>
		<polyline class="st4" points="353.100006,27.299999 350.700012,27.299999 350.700012,27.299999 349.600006,27.299999 
			349.600006,28.5 351.700012,28.5 353.100006,28.5 353.100006,27.299999 		"/>
		<polyline class="st4" points="359.799988,27.299999 359.799988,28.5 361,28.5 361,27.299999 359.799988,27.299999 		"/>
		<polyline class="st4" points="366.5,28.4 366,27.299999 361.700012,27.299999 361.200012,28.5 362.5,28.5 362.899994,27.6 
			364.899994,27.6 365.200012,28.5 366,28.5 366.5,28.5 366.5,28.4 		"/>
		<path class="st4" d="M358.299988,27.299999H356l0,0h-1.799988V28.5H356C356.899994,28.5,357.799988,28.1,358.299988,27.299999"/>
		<path class="st2" d="M355.399994,27.299999H356l0,0H355.399994"/>
		<polyline class="st2" points="365.5,26.1 366,27.299999 366,27.299999 365.5,26.1 365.5,26.1 		"/>
		<polyline class="st5" points="344.399994,26.1 345.5,27.299999 345.600006,27.299999 346.600006,26.1 344.399994,26.1 		"/>
		<polyline class="st5" points="343.799988,26.1 342.600006,26.1 342.600006,27.299999 343.799988,27.299999 343.799988,26.1 		"/>
		<polyline class="st5" points="347.200012,26.1 347.200012,27.299999 348.399994,27.299999 348.399994,26.1 347.200012,26.1 		"/>
		<polyline class="st5" points="349.600006,26.1 349.600006,27.299999 350.700012,27.299999 350.700012,26.1 349.600006,26.1 		"/>
		<polyline class="st5" points="359.799988,26.1 359.799988,27.299999 361,27.299999 361,26.1 359.799988,26.1 		"/>
		<polyline class="st5" points="364.399994,26.4 363.399994,26.4 363.5,26.1 362.299988,26.1 361.700012,27.299999 366,27.299999 
			365.5,26.1 364.299988,26.1 364.399994,26.4 		"/>
		<path class="st5" d="M357.600006,26.1c-0.200012,0.700001-0.899994,1.200001-1.600006,1.200001h2.299988
			c0.299988-0.4,0.399994-0.799999,0.5-1.200001H357.600006"/>
		<polyline class="st5" points="354.200012,26.1 354.200012,27.299999 355.399994,27.299999 355.399994,26.1 354.200012,26.1 		"/>
		<polyline class="st2" points="366,27.299999 366,27.299999 366,27.299999 366,27.299999 366,27.299999 		"/>
		<polygon class="st2" points="347.200012,27.299999 348.399994,27.299999 348.399994,27.299999 		"/>
		<polygon class="st2" points="342.600006,27.299999 343.700012,27.299999 343.700012,27.299999 		"/>
		<polyline class="st2" points="345.5,27.299999 345.5,27.299999 345.600006,27.299999 345.600006,27.299999 345.5,27.299999 		"/>
		<polygon class="st2" points="349.600006,27.299999 350.700012,27.299999 350.700012,27.299999 		"/>
		<polygon class="st2" points="359.799988,27.299999 361,27.299999 361,27.299999 		"/>
		<polyline class="st2" points="361.700012,27.299999 361.700012,27.299999 366,27.299999 366,27.299999 361.700012,27.299999 		"/>
		<path class="st2" d="M356,27.299999L356,27.299999h2.299988l0,0H356"/>
		<polygon class="st2" points="354.200012,27.299999 355.399994,27.299999 355.399994,27.299999 		"/>
		<path class="st2" d="M355.399994,27.299999L355.399994,27.299999H356l0,0H355.399994"/>
		<polyline class="st2" points="365,24.9 365.5,26.1 365.5,26.1 365,24.9 365,24.9 365,24.9 		"/>
		<polyline class="st6" points="342.600006,26.1 343.799988,26.1 343.799988,25.4 344.399994,26.1 346.600006,26.1 347.200012,25.4 
			347.200012,26.1 348.399994,26.1 348.399994,24.9 346.100006,24.9 345.600006,25.5 345,24.9 342.600006,24.9 342.600006,26.1 		
			"/>
		<polyline class="st6" points="350.700012,26.1 353.100006,26.1 353.100006,24.9 349.600006,24.9 349.600006,26.1 350.700012,26.1 
			350.700012,26.1 		"/>
		<polyline class="st6" points="359.799988,26.1 361,26.1 361,24.9 359.799988,24.9 359.799988,26.1 		"/>
		<polyline class="st6" points="362.299988,26.1 363.5,26.1 363.799988,25.1 364.299988,26.1 365.5,26.1 365,24.9 362.799988,24.9 
			362.299988,26.1 		"/>
		<path class="st6" d="M358.899994,24.9h-1.299988c0.100006,0.200001,0.100006,0.4,0.100006,0.6s0,0.4-0.100006,0.6h1.200012
			c0-0.200001,0.100006-0.4,0.100006-0.6C358.899994,25.299999,358.899994,25.1,358.899994,24.9"/>
		<polyline class="st6" points="354.200012,24.9 354.200012,26.1 355.399994,26.1 355.399994,24.9 354.200012,24.9 		"/>
		<polyline class="st2" points="365.5,26.1 365.5,26.1 365.5,26.1 		"/>
		<polyline class="st2" points="347.200012,26.1 348.399994,26.1 347.200012,26.1 		"/>
		<polyline class="st2" points="344.399994,26.1 346.600006,26.1 344.399994,26.1 		"/>
		<polyline class="st2" points="342.600006,26.1 343.799988,26.1 342.600006,26.1 		"/>
		<polyline class="st2" points="349.600006,26.1 350.700012,26.1 349.600006,26.1 		"/>
		<polyline class="st2" points="359.799988,26.1 361,26.1 359.799988,26.1 		"/>
		<polyline class="st2" points="364.299988,26.1 365.5,26.1 364.299988,26.1 		"/>
		<polyline class="st2" points="363.5,26.1 363.5,26.1 362.299988,26.1 363.5,26.1 		"/>
		<polyline class="st2" points="357.600006,26.1 358.899994,26.1 357.600006,26.1 		"/>
		<polyline class="st2" points="354.200012,26.1 355.399994,26.1 354.200012,26.1 		"/>
		<polyline class="st2" points="365,24.9 364.399994,23.700001 364.399994,23.700001 365,24.9 365,24.9 		"/>
		<polyline class="st7" points="345,24.9 343.899994,23.700001 342.600006,23.700001 342.600006,24.6 342.600006,24.9 345,24.9 		
			"/>
		<polyline class="st7" points="347.200012,23.700001 346.100006,24.9 348.399994,24.9 348.399994,23.700001 347.200012,23.700001 
					"/>
		<polyline class="st7" points="353.100006,24.9 350.700012,24.9 350.700012,23.700001 353.100006,23.700001 353.100006,23.700001 
			349.600006,23.700001 349.600006,24.9 353.100006,24.9 353.100006,24.9 		"/>
		<polyline class="st7" points="361,24.9 361,23.700001 359.799988,23.700001 359.799988,24.9 361,24.9 		"/>
		<polyline class="st7" points="362.799988,24.9 365,24.9 364.399994,23.700001 363.299988,23.700001 362.799988,24.9 		"/>
		<path class="st7" d="M355.399994,24.9v-1.200001H356c0.799988,0,1.399994,0.5,1.600006,1.200001h1.299988
			c-0.100006-0.4-0.299988-0.9-0.5-1.200001h-4.100006V24.9H355.399994"/>
		<polyline class="st2" points="365,24.9 365,24.9 365,24.9 365,24.9 365,24.9 		"/>
		<polyline class="st2" points="342.600006,24.9 342.600006,24.9 345,24.9 345,24.9 342.600006,24.9 		"/>
		<polyline class="st2" points="346.100006,24.9 346.100006,24.9 348.399994,24.9 348.399994,24.9 346.100006,24.9 		"/>
		<polygon class="st2" points="349.600006,24.9 353.100006,24.9 353.100006,24.9 		"/>
		<polygon class="st2" points="359.799988,24.9 361,24.9 361,24.9 		"/>
		<polyline class="st2" points="365,24.9 365,24.9 362.799988,24.9 362.799988,24.9 365,24.9 		"/>
		<polygon class="st2" points="354.200012,24.9 355.399994,24.9 355.399994,24.9 		"/>
		<polyline class="st2" points="358.899994,24.9 358.899994,24.9 357.600006,24.9 357.600006,24.9 358.899994,24.9 		"/>
		<polyline class="st2" points="364.399994,23.700001 363.899994,22.5 363.899994,22.5 364.399994,23.700001 364.399994,23.700001 
					"/>
		<polyline class="st8" points="348.399994,23.700001 348.399994,22.5 348.299988,22.5 347.200012,23.700001 348.399994,23.700001 
					"/>
		<polyline class="st8" points="342.600006,23.700001 343.899994,23.700001 342.700012,22.5 342.600006,22.5 342.600006,23.700001 
					"/>
		<polyline class="st8" points="353.100006,22.5 349.5,22.5 349.600006,23.700001 353.100006,23.700001 353.100006,22.5 		"/>
		<polyline class="st8" points="361,22.5 359.799988,22.5 359.799988,23.700001 361,23.700001 361,22.5 		"/>
		<polyline class="st8" points="364.399994,23.700001 363.899994,22.5 363.799988,22.5 363.299988,23.700001 364.399994,23.700001 
					"/>
		<path class="st8" d="M355.899994,22.5h-1.700012v1.200001h4.100006C357.799988,23,356.899994,22.5,355.899994,22.5"/>
		<polyline class="st9" points="342.700012,22.5 342.600006,22.5 342.600006,22.700001 342.899994,22.700001 342.700012,22.5 		"/>
		<polyline class="st9" points="348.399994,22.700001 348.399994,22.5 348.299988,22.5 348.100006,22.700001 348.399994,22.700001 
					"/>
		<polyline class="st9" points="346.100006,24.9 345.899994,25.1 348.399994,25.1 348.399994,24.9 346.100006,24.9 		"/>
		<polyline class="st9" points="345,24.9 342.600006,24.9 342.600006,25.1 345.200012,25.1 345,24.9 		"/>
		<polyline class="st9" points="343.899994,23.700001 342.600006,23.700001 342.600006,23.9 344,23.9 343.899994,23.700001 		"/>
		<polyline class="st9" points="348.399994,23.700001 347.200012,23.700001 347,23.9 348.399994,23.9 348.399994,23.700001 		"/>
		<polyline class="st9" points="343.799988,26.1 342.600006,26.1 342.600006,26.299999 343.799988,26.299999 343.799988,26.1 		"/>
		<polyline class="st9" points="346.600006,26.1 344.399994,26.1 344.600006,26.299999 346.399994,26.299999 346.600006,26.1 		"/>
		<rect x="347.200012" y="26.1" class="st9" width="1.200012" height="0.200001"/>
		<rect x="342.600006" y="27.299999" class="st9" width="1.200012" height="0.200001"/>
		<rect x="347.200012" y="27.299999" class="st9" width="1.200012" height="0.200001"/>
		<polyline class="st9" points="348.399994,23.1 347.799988,23.1 347.600006,23.299999 348.399994,23.299999 348.399994,23.1 		"/>
		<polyline class="st9" points="343.299988,23.1 342.600006,23.1 342.600006,23.299999 343.5,23.299999 343.299988,23.1 		"/>
		<polyline class="st9" points="344.399994,24.299999 342.600006,24.299999 342.600006,24.5 344.600006,24.5 344.399994,24.299999 
					"/>
		<polyline class="st9" points="348.399994,24.299999 346.600006,24.299999 346.5,24.5 348.399994,24.5 348.399994,24.299999 		"/>
		<rect x="342.600006" y="25.5" class="st9" width="1.200012" height="0.200001"/>
		<rect x="347.200012" y="25.5" class="st9" width="1.200012" height="0.200001"/>
		<polyline class="st9" points="347,25.700001 347.100006,25.5 343.899994,25.5 344,25.700001 347,25.700001 		"/>
		<rect x="342.600006" y="26.700001" class="st9" width="1.200012" height="0.200001"/>
		<polyline class="st9" points="346.100006,26.700001 345,26.700001 345.100006,26.9 345.899994,26.9 346.100006,26.700001 		"/>
		<rect x="347.200012" y="26.700001" class="st9" width="1.200012" height="0.200001"/>
		<rect x="347.200012" y="27.9" class="st9" width="1.200012" height="0.200001"/>
		<rect x="342.600006" y="27.9" class="st9" width="1.200012" height="0.200001"/>
		<rect x="349.600006" y="22.5" class="st9" width="3.5" height="0.200001"/>
		<rect x="349.600006" y="24.9" class="st9" width="3.5" height="0.200001"/>
		<polyline class="st9" points="350.700012,23.700001 350.700012,23.700001 349.600006,23.700001 349.600006,23.9 350.700012,23.9 
			350.700012,23.700001 		"/>
		<polyline class="st9" points="350.700012,26.299999 350.700012,26.1 350.700012,26.1 350.700012,26.1 349.600006,26.1 
			349.600006,26.299999 350.700012,26.299999 		"/>
		<rect x="349.600006" y="27.299999" class="st9" width="3.5" height="0.200001"/>
		<rect x="349.600006" y="23.1" class="st9" width="3.5" height="0.200001"/>
		<polyline class="st9" points="349.600006,24.299999 349.600006,24.5 350.700012,24.5 350.700012,24.299999 349.600006,24.299999 
					"/>
		<rect x="349.600006" y="25.5" class="st9" width="3.5" height="0.200001"/>
		<rect x="349.600006" y="26.700001" class="st9" width="1.100006" height="0.200001"/>
		<polyline class="st9" points="349.600006,27.9 349.600006,28.1 353.100006,28.1 353.100006,27.9 349.600006,27.9 		"/>
		<polyline class="st9" points="361,22.5 359.799988,22.5 359.799988,22.700001 361,22.700001 361,22.5 		"/>
		<rect x="359.799988" y="24.9" class="st9" width="1.200012" height="0.200001"/>
		<rect x="359.799988" y="23.700001" class="st9" width="1.200012" height="0.200001"/>
		<rect x="359.799988" y="26.1" class="st9" width="1.200012" height="0.200001"/>
		<rect x="359.799988" y="27.299999" class="st9" width="1.200012" height="0.200001"/>
		<polyline class="st9" points="361,23.299999 361,23.1 359.799988,23.1 359.799988,23.299999 361,23.299999 		"/>
		<rect x="359.799988" y="24.299999" class="st9" width="1.200012" height="0.200001"/>
		<polyline class="st9" points="359.799988,25.700001 361,25.700001 361,25.5 359.799988,25.5 359.799988,25.700001 		"/>
		<polyline class="st9" points="359.799988,26.9 361,26.9 361,26.700001 359.799988,26.700001 359.799988,26.9 		"/>
		<polyline class="st9" points="359.799988,27.9 359.799988,28.1 361,28.1 361,27.9 359.799988,27.9 		"/>
		<polyline class="st9" points="364,22.700001 363.899994,22.5 363.799988,22.5 363.700012,22.700001 364,22.700001 		"/>
		<polyline class="st9" points="362.700012,25.1 363.799988,25.1 363.799988,25.1 363.899994,25.1 365,25.1 365,24.9 
			362.799988,24.9 362.700012,25.1 		"/>
		<polyline class="st9" points="363.200012,23.9 364.5,23.9 364.399994,23.700001 363.299988,23.700001 363.200012,23.9 		"/>
		<polyline class="st9" points="364.299988,26.299999 365.5,26.299999 365.5,26.1 364.299988,26.1 364.299988,26.299999 		"/>
		<polyline class="st9" points="362.299988,26.1 362.200012,26.299999 363.399994,26.299999 363.5,26.1 362.299988,26.1 		"/>
		<polyline class="st9" points="361.700012,27.5 366.100006,27.5 366,27.299999 361.700012,27.299999 361.700012,27.5 		"/>
		<polyline class="st9" points="363.5,23.299999 364.200012,23.299999 364.200012,23.1 363.5,23.1 363.5,23.299999 		"/>
		<polyline class="st9" points="362.899994,24.5 364.799988,24.5 364.700012,24.299999 363,24.299999 362.899994,24.5 		"/>
		<polyline class="st9" points="363.600006,25.700001 363.700012,25.5 362.5,25.5 362.399994,25.700001 363.600006,25.700001 		"/>
		<polyline class="st9" points="364.100006,25.700001 365.299988,25.700001 365.200012,25.5 364,25.5 364.100006,25.700001 		"/>
		<polyline class="st9" points="361.899994,26.9 365.799988,26.9 365.700012,26.700001 362,26.700001 361.899994,26.9 		"/>
		<polyline class="st9" points="361.5,27.9 361.399994,28.1 362.700012,28.1 362.799988,27.9 361.5,27.9 		"/>
		<polyline class="st9" points="365,27.9 365,28.1 366.299988,28.1 366.299988,27.9 365,27.9 		"/>
		<path class="st9" d="M355.899994,22.5h-1.700012v0.200001h2.700012C356.600006,22.6,356.299988,22.5,355.899994,22.5"/>
		<rect x="354.200012" y="24.9" class="st9" width="1.200012" height="0.200001"/>
		<path class="st9" d="M357.700012,25.1h1.200012c0-0.1,0-0.1,0-0.200001h-1.299988C357.600006,25,357.700012,25,357.700012,25.1"/>
		<path class="st9" d="M358.399994,23.9c0-0.1-0.100006-0.1-0.100006-0.200001h-4.100006V23.9H358.399994"/>
		<polyline class="st9" points="355.399994,26.1 354.200012,26.1 354.200012,26.299999 355.399994,26.299999 355.399994,26.1 		"/>
		<path class="st9" d="M357.600006,26.299999h1.299988c0-0.1,0-0.1,0-0.200001h-1.200012
			C357.600006,26.200001,357.600006,26.200001,357.600006,26.299999"/>
		<path class="st9" d="M356.100006,27.299999H356h-0.600006l0,0h-1.200012V27.5h4c0-0.1,0.100006-0.1,0.100006-0.200001H356.100006"
			/>
		<path class="st9" d="M357.899994,23.299999c-0.100006-0.1-0.100006-0.1-0.200012-0.200001h-3.5v0.200001H357.899994"/>
		<polyline class="st9" points="355.399994,24.299999 354.200012,24.299999 354.200012,24.5 355.399994,24.5 355.399994,24.299999 
					"/>
		<path class="st9" d="M357.399994,24.5h1.299988c0-0.1,0-0.1-0.100006-0.200001h-1.399994
			C357.299988,24.4,357.299988,24.4,357.399994,24.5"/>
		<rect x="354.200012" y="25.5" class="st9" width="1.200012" height="0.200001"/>
		<path class="st9" d="M357.700012,25.6v0.1h1.200012v-0.1l0,0H357.700012C357.700012,25.5,357.700012,25.5,357.700012,25.6"/>
		<path class="st9" d="M357.299988,26.700001c0,0.1-0.100006,0.1-0.200012,0.200001h1.5c0-0.1,0.100006-0.1,0.100006-0.200001
			H357.299988"/>
		<polyline class="st9" points="354.200012,26.700001 354.200012,26.9 355.399994,26.9 355.399994,26.700001 354.200012,26.700001 
					"/>
		<path class="st9" d="M354.200012,27.9V28.1H357.5c0.100006,0,0.200012-0.1,0.299988-0.200001H354.200012"/>
		<path class="st9" d="M355.399994,27.299999H356h0.100006H355.399994L355.399994,27.299999"/>
		<polyline class="st2" points="343.299988,22.5 343.200012,22.5 343.200012,22.700001 343.5,22.700001 343.299988,22.5 		"/>
		<polyline class="st2" points="349,22.700001 349,22.5 348.899994,22.5 348.700012,22.700001 349,22.700001 		"/>
		<polyline class="st2" points="346.700012,24.9 346.5,25.1 349,25.1 349,24.9 346.700012,24.9 		"/>
		<polyline class="st2" points="345.600006,24.9 343.200012,24.9 343.200012,25.1 345.700012,25.1 345.600006,24.9 		"/>
		<polyline class="st2" points="344.399994,23.700001 343.200012,23.700001 343.200012,23.9 344.600006,23.9 344.399994,23.700001 
					"/>
		<polyline class="st2" points="349,23.700001 347.799988,23.700001 347.600006,23.9 349,23.9 349,23.700001 		"/>
		<rect x="343.200012" y="26.1" class="st2" width="1.200012" height="0.200001"/>
		<polyline class="st2" points="347.200012,26.1 345,26.1 345.200012,26.299999 347,26.299999 347.200012,26.1 		"/>
		<rect x="347.799988" y="26.1" class="st2" width="1.200012" height="0.200001"/>
		<rect x="343.200012" y="27.299999" class="st2" width="1.200012" height="0.200001"/>
		<rect x="347.799988" y="27.299999" class="st2" width="1.200012" height="0.200001"/>
		<polyline class="st2" points="349,23.1 348.299988,23.1 348.200012,23.299999 349,23.299999 349,23.1 		"/>
		<polyline class="st2" points="343.899994,23.1 343.200012,23.1 343.200012,23.299999 344,23.299999 343.899994,23.1 		"/>
		<polyline class="st2" points="345,24.299999 343.200012,24.299999 343.200012,24.5 345.200012,24.5 345,24.299999 		"/>
		<polyline class="st2" points="349,24.299999 347.200012,24.299999 347.100006,24.5 349,24.5 349,24.299999 		"/>
		<rect x="343.200012" y="25.5" class="st2" width="1.200012" height="0.200001"/>
		<polyline class="st2" points="349,25.700001 349,25.5 347.799988,25.5 347.799988,25.700001 349,25.700001 		"/>
		<polyline class="st2" points="347.5,25.700001 347.700012,25.5 344.399994,25.5 344.600006,25.700001 347.5,25.700001 		"/>
		<polyline class="st2" points="344.299988,26.700001 343.200012,26.700001 343.200012,26.9 344.299988,26.9 344.299988,26.700001 
					"/>
		<polyline class="st2" points="346.600006,26.700001 345.600006,26.700001 345.700012,26.9 346.5,26.9 346.600006,26.700001 		"/>
		<rect x="347.799988" y="26.700001" class="st2" width="1.200012" height="0.200001"/>
		<polyline class="st2" points="347.799988,27.9 347.799988,28.1 349,28.1 349,27.9 347.799988,27.9 		"/>
		<rect x="343.200012" y="27.9" class="st2" width="1.200012" height="0.200001"/>
		<rect x="350.100006" y="22.5" class="st2" width="3.5" height="0.200001"/>
		<rect x="350.100006" y="24.9" class="st2" width="3.5" height="0.200001"/>
		<polyline class="st2" points="351.299988,23.700001 351.299988,23.700001 350.100006,23.700001 350.100006,23.9 351.299988,23.9 
			351.299988,23.700001 		"/>
		<polyline class="st2" points="351.299988,26.299999 351.299988,26.1 351.299988,26.1 351.299988,26.1 350.100006,26.1 
			350.100006,26.299999 351.299988,26.299999 		"/>
		<polyline class="st2" points="350.100006,27.299999 350.100006,27.5 353.600006,27.5 353.600006,27.299999 350.100006,27.299999 
					"/>
		<polyline class="st2" points="353.600006,23.299999 353.600006,23.1 350.100006,23.1 350.100006,23.299999 353.600006,23.299999 
					"/>
		<polyline class="st2" points="350.100006,24.299999 350.100006,24.5 351.299988,24.5 351.299988,24.299999 350.100006,24.299999 
					"/>
		<polyline class="st2" points="353.600006,25.5 350.100006,25.5 350.100006,25.700001 353.600006,25.700001 353.600006,25.5 		"/>
		<rect x="350.100006" y="26.700001" class="st2" width="1.100006" height="0.200001"/>
		<polyline class="st2" points="350.100006,27.9 350.100006,28.1 353.600006,28.1 353.600006,27.9 350.100006,27.9 		"/>
		<polyline class="st2" points="361.5,22.5 360.299988,22.5 360.299988,22.700001 361.5,22.700001 361.5,22.5 		"/>
		<rect x="360.299988" y="24.9" class="st2" width="1.200012" height="0.200001"/>
		<rect x="360.299988" y="23.700001" class="st2" width="1.200012" height="0.200001"/>
		<rect x="360.299988" y="26.1" class="st2" width="1.200012" height="0.200001"/>
		<rect x="360.299988" y="27.299999" class="st2" width="1.200012" height="0.200001"/>
		<rect x="360.299988" y="23.1" class="st2" width="1.200012" height="0.200001"/>
		<rect x="360.299988" y="24.299999" class="st2" width="1.200012" height="0.200001"/>
		<rect x="360.299988" y="25.5" class="st2" width="1.200012" height="0.200001"/>
		<rect x="360.299988" y="26.700001" class="st2" width="1.200012" height="0.200001"/>
		<rect x="360.299988" y="27.9" class="st2" width="1.200012" height="0.200001"/>
		<polyline class="st2" points="364.600006,22.700001 364.5,22.5 364.399994,22.5 364.299988,22.700001 364.600006,22.700001 		"/>
		<polyline class="st2" points="363.299988,25.1 364.399994,25.1 364.399994,25.1 364.399994,25.1 365.600006,25.1 365.5,24.9 
			363.299988,24.9 363.299988,25.1 		"/>
		<polyline class="st2" points="363.799988,23.9 365.100006,23.9 365,23.700001 363.799988,23.700001 363.799988,23.9 		"/>
		<polyline class="st2" points="364.899994,26.299999 366.100006,26.299999 366,26.1 364.799988,26.1 364.899994,26.299999 		"/>
		<polyline class="st2" points="362.799988,26.1 362.799988,26.299999 364,26.299999 364,26.1 362.799988,26.1 		"/>
		<polyline class="st2" points="362.200012,27.5 366.700012,27.5 366.600006,27.299999 362.299988,27.299999 362.200012,27.5 		"/>
		<polyline class="st2" points="364,23.299999 364.799988,23.299999 364.700012,23.1 364.100006,23.1 364,23.299999 		"/>
		<polyline class="st2" points="363.5,24.5 365.299988,24.5 365.299988,24.299999 363.600006,24.299999 363.5,24.5 		"/>
		<polyline class="st2" points="364.200012,25.700001 364.200012,25.5 363.100006,25.5 363,25.700001 364.200012,25.700001 		"/>
		<polyline class="st2" points="364.700012,25.700001 365.899994,25.700001 365.799988,25.5 364.600006,25.5 364.700012,25.700001 
					"/>
		<polyline class="st2" points="362.5,26.9 366.399994,26.9 366.299988,26.700001 362.600006,26.700001 362.5,26.9 		"/>
		<polyline class="st2" points="362.100006,27.9 362,28.1 363.299988,28.1 363.299988,27.9 362.100006,27.9 		"/>
		<polyline class="st2" points="365.5,27.9 365.600006,28.1 366.899994,28.1 366.799988,27.9 365.5,27.9 		"/>
		<path class="st2" d="M356.5,22.5h-1.700012v0.200001H357.5C357.200012,22.6,356.899994,22.5,356.5,22.5"/>
		<rect x="354.799988" y="24.9" class="st2" width="1.200012" height="0.200001"/>
		<path class="st2" d="M358.200012,25.1h1.200012c0-0.1,0-0.1,0-0.200001h-1.299988C358.200012,25,358.200012,25,358.200012,25.1"/>
		<path class="st2" d="M359,23.9c0-0.1-0.100006-0.1-0.100006-0.200001h-4.100006V23.9H359"/>
		<polyline class="st2" points="356,26.1 354.799988,26.1 354.799988,26.299999 356,26.299999 356,26.1 		"/>
		<path class="st2" d="M358.100006,26.299999h1.299988c0-0.1,0-0.1,0-0.200001h-1.200012
			C358.200012,26.200001,358.200012,26.200001,358.100006,26.299999"/>
		<path class="st2" d="M356.700012,27.299999h-0.100006H356l0,0h-1.200012V27.5h4c0-0.1,0.100006-0.1,0.100006-0.200001H356.700012"
			/>
		<path class="st2" d="M358.5,23.299999c-0.100006-0.1-0.100006-0.1-0.200012-0.200001h-3.5v0.200001H358.5"/>
		<rect x="354.799988" y="24.299999" class="st2" width="1.200012" height="0.200001"/>
		<path class="st2" d="M357.899994,24.5h1.399994c0-0.1,0-0.1-0.100006-0.200001h-1.5
			C357.799988,24.4,357.899994,24.4,357.899994,24.5"/>
		<polyline class="st2" points="356,25.5 354.799988,25.5 354.799988,25.700001 356,25.700001 356,25.5 		"/>
		<path class="st2" d="M358.299988,25.6v0.1H359.5v-0.1l0,0H358.299988C358.299988,25.5,358.299988,25.5,358.299988,25.6"/>
		<path class="st2" d="M357.899994,26.700001c0,0.1-0.100006,0.1-0.200012,0.200001h1.5c0-0.1,0.100006-0.1,0.100006-0.200001
			H357.899994"/>
		<polyline class="st2" points="354.799988,26.700001 354.799988,26.9 356,26.9 356,26.700001 354.799988,26.700001 		"/>
		<path class="st2" d="M354.799988,27.9V28.1h3.299988c0.100006,0,0.200012-0.1,0.299988-0.200001H354.799988"/>
		<path class="st2" d="M356,27.299999h0.600006h0.100006H356L356,27.299999"/>
	</g>
	<g>
		<path class="st10" d="M347.799988,18.299999C347.599976,18.4,347.5,18.4,347.399994,18.5s-0.299988,0.1-0.5,0.200001
			s-0.399994,0.1-0.600006,0.1s-0.399994,0.1-0.700012,0.1c-0.5,0-0.899994-0.1-1.299988-0.200001s-0.700012-0.4-1-0.6
			s-0.5-0.6-0.700012-1.1c-0.200012-0.4-0.200012-0.9-0.200012-1.5c0-0.5,0.100006-1,0.200012-1.5s0.399994-0.8,0.700012-1.1
			s0.600006-0.5,1-0.7s0.899994-0.2,1.299988-0.2s0.700012,0,1.100006,0.1s0.799988,0.2,1.200012,0.4v1.1h-0.100006
			c-0.399994-0.3-0.700012-0.5-1.100006-0.7c-0.399994-0.1-0.799988-0.2-1.200012-0.2c-0.299988,0-0.600006,0-0.899994,0.2
			c-0.299988,0.1-0.5,0.3-0.700012,0.5s-0.399994,0.5-0.5,0.9c-0.100006,0.3-0.200012,0.7-0.200012,1.2
			s0.100006,0.9,0.200012,1.200001s0.299988,0.6,0.5,0.799999c0.200012,0.200001,0.399994,0.4,0.700012,0.5
			c0.299988,0.1,0.600006,0.200001,0.899994,0.200001c0.399994,0,0.799988-0.1,1.200012-0.200001
			c0.399994-0.1,0.700012-0.4,1-0.700001h0.100006V18.299999L347.799988,18.299999z"/>
		<path class="st10" d="M351.799988,14.7L351.799988,14.7c-0.200012,0-0.299988,0-0.399994-0.1c-0.100006,0-0.299988,0-0.399994,0
			c-0.299988,0-0.5,0.1-0.799988,0.2c-0.200012,0.1-0.5,0.3-0.700012,0.4v3.5h-0.899994v-5H349.5v0.7
			c0.299988-0.3,0.600006-0.5,0.899994-0.6s0.5-0.2,0.799988-0.2c0.100006,0,0.299988,0,0.299988,0
			c0.100006,0,0.200012,0,0.299988,0L351.799988,14.7L351.799988,14.7z"/>
		<path class="st10" d="M356.600006,16.299999h-3.700012c0,0.299999,0,0.6,0.100006,0.799999s0.200012,0.4,0.399994,0.6
			c0.200012,0.1,0.299988,0.299999,0.600006,0.299999c0.200012,0.1,0.399994,0.1,0.700012,0.1c0.299988,0,0.700012-0.1,1-0.200001
			c0.399994-0.1,0.600006-0.299999,0.700012-0.4l0,0v0.9c-0.299988,0.1-0.600006,0.200001-0.899994,0.299999
			c-0.299988,0.1-0.600006,0.1-0.899994,0.1c-0.799988,0-1.5-0.200001-1.899994-0.700001c-0.5-0.4-0.700012-1.1-0.700012-1.9
			c0-0.8,0.200012-1.5,0.700012-2c0.399994-0.5,1-0.7,1.799988-0.7c0.700012,0,1.200012,0.2,1.600006,0.6
			c0.399994,0.4,0.5,0.9,0.5,1.7L356.600006,16.299999L356.600006,16.299999z M355.799988,15.7c0-0.4-0.100006-0.8-0.299988-1
			c-0.200012-0.2-0.5-0.4-1-0.4s-0.799988,0.1-1.100006,0.4C353.100006,15,353,15.3,353,15.7
			C352.899994,15.7,355.799988,15.7,355.799988,15.7z"/>
		<path class="st10" d="M361.5,18.799999h-0.799988v-0.5c-0.100006,0-0.200012,0.1-0.299988,0.200001
			c-0.100006,0.1-0.299988,0.200001-0.399994,0.200001c-0.100006,0.1-0.299988,0.1-0.5,0.200001
			c-0.200012,0-0.399994,0.1-0.600006,0.1c-0.399994,0-0.799988-0.1-1.200012-0.4c-0.299988-0.299999-0.5-0.700001-0.5-1.1
			s0.100006-0.700001,0.200012-0.9c0.200012-0.200001,0.399994-0.4,0.700012-0.5c0.299988-0.1,0.700012-0.2,1.100006-0.3
			c0.399994,0,0.899994-0.1,1.399994-0.1v-0.1c0-0.2,0-0.4-0.100006-0.5s-0.200012-0.2-0.299988-0.3
			c-0.100006-0.1-0.299988-0.1-0.399994-0.1c-0.200012,0-0.299988,0-0.5,0s-0.5,0-0.700012,0.1c-0.299988,0.1-0.5,0.1-0.899994,0.3
			l0,0v-0.9c0.200012,0,0.399994-0.1,0.700012-0.1c0.299988,0,0.600006-0.1,0.899994-0.1c0.399994,0,0.700012,0,0.899994,0.1
			c0.299988,0.1,0.5,0.2,0.700012,0.3s0.299988,0.3,0.399994,0.5s0.100006,0.5,0.100006,0.8L361.5,18.799999L361.5,18.799999z
			 M360.700012,17.5v-1.4c-0.299988,0-0.600006,0-0.899994,0.1c-0.399994,0-0.600006,0.1-0.799988,0.1
			c-0.200012,0.1-0.399994,0.200001-0.600006,0.299999c-0.100006,0.1-0.200012,0.299999-0.200012,0.6
			c0,0.299999,0.100006,0.5,0.299988,0.6c0.200012,0.1,0.399994,0.200001,0.799988,0.200001
			c0.299988,0,0.600006-0.1,0.799988-0.200001C360.200012,17.799999,360.399994,17.700001,360.700012,17.5z"/>
		<path class="st10" d="M365.399994,18.700001c-0.200012,0-0.299988,0.1-0.5,0.1s-0.399994,0-0.5,0
			c-0.5,0-0.899994-0.1-1.200012-0.4c-0.299988-0.299999-0.399994-0.700001-0.399994-1.299999v-2.7h-0.600006v-0.7h0.600006v-1.4
			h0.899994v1.4h1.700012v0.7h-1.700012v2.3c0,0.299999,0,0.5,0,0.6s0,0.299999,0.100006,0.4S364,17.900003,364.099976,18.000002
			c0.100006,0,0.299988,0.1,0.5,0.1c0.100006,0,0.299988,0,0.399994-0.1c0.100006,0,0.299988-0.1,0.299988-0.1l0,0
			L365.399994,18.700001L365.399994,18.700001z"/>
		<path class="st10" d="M367,12.9h-1V12h0.899994v0.9H367z M366.899994,18.799999H366v-5h0.899994V18.799999z"/>
		<path class="st10" d="M372.600006,13.8l-2,4.999999h-0.899994l-2-5h0.899994l1.600006,4l1.5-4L372.600006,13.8z"/>
		<path class="st10" d="M377.399994,16.299999h-3.700012c0,0.299999,0,0.6,0.100006,0.799999s0.200012,0.4,0.399994,0.6
			c0.200012,0.1,0.299988,0.299999,0.600006,0.299999c0.200012,0.1,0.399994,0.1,0.700012,0.1c0.299988,0,0.700012-0.1,1-0.200001
			c0.399994-0.1,0.600006-0.299999,0.700012-0.4l0,0v0.9c-0.299988,0.1-0.600006,0.200001-0.899994,0.299999
			c-0.299988,0.1-0.600006,0.1-0.899994,0.1c-0.799988,0-1.5-0.200001-1.899994-0.700001c-0.5-0.4-0.700012-1.1-0.700012-1.9
			c0-0.8,0.200012-1.5,0.700012-2c0.399994-0.5,1-0.7,1.799988-0.7c0.700012,0,1.200012,0.2,1.600006,0.6
			c0.399994,0.4,0.5,0.9,0.5,1.7L377.399994,16.299999L377.399994,16.299999z M376.600006,15.7c0-0.4-0.100006-0.8-0.299988-1
			c-0.200012-0.2-0.5-0.4-1-0.4s-0.799988,0.1-1.100006,0.4c-0.299988,0.3-0.399994,0.6-0.399994,1
			C373.700012,15.7,376.600006,15.7,376.600006,15.7z"/>
	</g>
	<g>
		<path class="st10" d="M385.600006,18.6h-4.399994V12h4.399994v0.8h-3.5v1.8h3.5v0.8h-3.5v2.500001h3.5V18.6z"/>
		<path class="st10" d="M390.700012,18.6h-0.899994V18c-0.299988,0.200001-0.600006,0.4-0.799988,0.5
			c-0.299988,0.1-0.5,0.200001-0.899994,0.200001c-0.5,0-0.899994-0.200001-1.200012-0.5
			c-0.299988-0.299999-0.399994-0.799999-0.399994-1.4v-3.2h0.899994v2.900001c0,0.299999,0,0.5,0,0.700001
			s0.100006,0.299999,0.200012,0.5c0.100006,0.1,0.200012,0.200001,0.299988,0.299999s0.299988,0.1,0.600006,0.1
			c0.200012,0,0.399994-0.1,0.700012-0.200001c0.299988-0.1,0.5-0.299999,0.700012-0.4v-3.8h0.899994L390.700012,18.6
			L390.700012,18.6z"/>
		<path class="st10" d="M395.100006,14.5L395.100006,14.5c-0.200012,0-0.299988,0-0.399994-0.1c-0.100006,0-0.299988,0-0.399994,0
			c-0.299988,0-0.5,0.1-0.799988,0.2s-0.5,0.3-0.700012,0.4V18.5H392v-5h0.899994v0.7c0.299988-0.3,0.600006-0.5,0.899994-0.6
			s0.5-0.2,0.799988-0.2c0.100006,0,0.299988,0,0.299988,0c0.100006,0,0.200012,0,0.299988,0L395.100006,14.5L395.100006,14.5z"/>
		<path class="st10" d="M400,16.1c0,0.799999-0.200012,1.5-0.600006,1.9c-0.399994,0.5-1,0.700001-1.700012,0.700001
			S396.399994,18.5,395.999969,18c-0.399994-0.5-0.600006-1.1-0.600006-1.9c0-0.8,0.200012-1.5,0.600006-1.9s1-0.7,1.700012-0.7
			s1.299988,0.2,1.700012,0.7C399.799988,14.7,400,15.3,400,16.1z M399.200012,16.1c0-0.6-0.100006-1.1-0.399994-1.4
			c-0.299988-0.3-0.600006-0.5-1.100006-0.5c-0.399994,0-0.799988,0.2-1.100006,0.5c-0.299988,0.3-0.399994,0.8-0.399994,1.4
			c0,0.6,0.100006,1.1,0.399994,1.4s0.600006,0.5,1.100006,0.5c0.399994,0,0.799988-0.200001,1.100006-0.5
			C399.100006,17.299999,399.200012,16.799999,399.200012,16.1z"/>
		<path class="st10" d="M405.5,16.1c0,0.4-0.100006,0.799999-0.200012,1.1s-0.299988,0.6-0.5,0.9
			c-0.200012,0.200001-0.399994,0.4-0.700012,0.5c-0.299988,0.1-0.5,0.200001-0.899994,0.200001c-0.299988,0-0.5,0-0.700012-0.1
			s-0.399994-0.1-0.600006-0.299999v2.1H401v-6.9h0.899994v0.5c0.200012-0.2,0.5-0.4,0.799988-0.5s0.600006-0.2,0.899994-0.2
			c0.600006,0,1.100006,0.2,1.399994,0.7C405.299988,14.6,405.5,15.3,405.5,16.1z M404.600006,16.1c0-0.6-0.100006-1.1-0.299988-1.3
			c-0.200012-0.3-0.5-0.4-0.899994-0.4c-0.200012,0-0.5,0-0.700012,0.2c-0.200012,0.1-0.5,0.2-0.700012,0.4v2.799999
			C402.200012,17.9,402.399994,18,402.600006,18S403,18.1,403.200012,18.1c0.5,0,0.799988-0.200001,1.100006-0.5
			C404.5,17.200001,404.600006,16.700001,404.600006,16.1z"/>
		<path class="st10" d="M410.700012,16.200001H407c0,0.299999,0,0.6,0.100006,0.799999c0.100006,0.200001,0.200012,0.4,0.399994,0.6
			c0.200012,0.1,0.299988,0.299999,0.600006,0.299999C408.300018,18,408.5,18,408.800018,18c0.299988,0,0.700012-0.1,1-0.200001
			c0.399994-0.1,0.600006-0.299999,0.700012-0.4l0,0v0.9c-0.299988,0.1-0.600006,0.200001-0.899994,0.299999
			c-0.299988,0.1-0.600006,0.1-0.899994,0.1c-0.799988,0-1.5-0.200001-1.899994-0.700001c-0.5-0.4-0.700012-1.1-0.700012-1.9
			c0-0.8,0.200012-1.5,0.700012-2c0.399994-0.5,1-0.7,1.799988-0.7c0.700012,0,1.200012,0.2,1.600006,0.6
			c0.399994,0.4,0.5,0.9,0.5,1.7L410.700012,16.200001L410.700012,16.200001z M409.899994,15.6c0-0.4-0.100006-0.8-0.299988-1
			c-0.200012-0.2-0.5-0.4-1-0.4s-0.799988,0.1-1.100006,0.4c-0.299988,0.3-0.399994,0.6-0.399994,1
			C407,15.6,409.899994,15.6,409.899994,15.6z"/>
	</g>
	<g>
		<path class="st10" d="M347.799988,8.7c-0.200012,0.1-0.299988,0.1-0.399994,0.2s-0.299988,0.1-0.5,0.2
			c-0.200012,0.1-0.399994,0.1-0.600006,0.1s-0.399994,0.1-0.700012,0.1c-0.5,0-0.899994-0.1-1.299988-0.2
			c-0.399994-0.1-0.700012-0.4-1-0.6c-0.299988-0.3-0.5-0.6-0.700012-1.1c-0.200012-0.4-0.200012-0.9-0.200012-1.5
			c0-0.5,0.100006-1,0.200012-1.5c0.200012-0.4,0.399994-0.8,0.700012-1.1s0.600006-0.5,1-0.7s0.899994-0.2,1.299988-0.2
			s0.700012,0,1.100006,0.1s0.799988,0.2,1.200012,0.4v1h-0.100006c-0.399994-0.3-0.700012-0.5-1.100006-0.7
			c-0.399994-0.1-0.799988-0.2-1.200012-0.2c-0.299988,0-0.600006,0-0.899994,0.2c-0.299988,0.1-0.5,0.3-0.700012,0.5
			s-0.399994,0.5-0.5,0.9c-0.100006,0.3-0.200012,0.7-0.200012,1.2s0.100006,0.9,0.200012,1.2s0.299988,0.6,0.5,0.8
			c0.200012,0.2,0.399994,0.4,0.700012,0.5c0.299988,0.1,0.600006,0.2,0.899994,0.2c0.399994,0,0.799988-0.1,1.200012-0.2
			s0.700012-0.4,1-0.7h0.100006V8.7L347.799988,8.7z"/>
		<path class="st10" d="M353.100006,6.7c0,1.9-1.299988,2.7-2.5,2.7c-1.399994,0-2.399994-1-2.399994-2.6
			c0-1.7,1.100006-2.7,2.5-2.7C352.100006,4.1,353.100006,5.1,353.100006,6.7z M349.100006,6.7c0,1.1,0.600006,1.9,1.5,1.9
			s1.5-0.8,1.5-2c0-0.9-0.399994-1.9-1.5-1.9C349.5,4.8,349.100006,5.8,349.100006,6.7z"/>
		<path class="st10" d="M356.5,6.1v0.7h-2.600006V6.1H356.5z"/>
		<path class="st10" d="M357.700012,9.2V4.9H357V4.2h0.700012V4c0-0.7,0.200012-1.3,0.600006-1.8
			c0.299988-0.3,0.799988-0.5,1.200012-0.5c0.299988,0,0.600006,0.1,0.799988,0.1l-0.100006,0.7
			c-0.100006-0.1-0.299988-0.1-0.600006-0.1c-0.799988,0-1,0.7-1,1.5v0.3h1.200012v0.7h-1.200012v4.300001L357.700012,9.2z"/>
		<path class="st10" d="M364.799988,7.9c0,0.5,0,1,0,1.4H364V8.5l0,0c-0.200012,0.4-0.799988,0.9-1.700012,0.9
			c-0.799988,0-1.700012-0.4-1.700012-2.2v-3h0.899994V7c0,1,0.299988,1.6,1.100006,1.6c0.600006,0,1-0.4,1.200012-0.8
			c0-0.1,0.100006-0.3,0.100006-0.5V4.2h0.899994V7.9L364.799988,7.9z"/>
		<path class="st10" d="M366.299988,5.6c0-0.5,0-0.9,0-1.4h0.799988V5l0,0c0.299988-0.5,0.799988-0.9,1.700012-0.9
			c0.700012,0,1.799988,0.4,1.799988,2.2v3h-0.899994v-3c0-0.8-0.299988-1.5-1.200012-1.5c-0.600006,0-1.100006,0.4-1.200012,0.9
			c0,0.1-0.100006,0.3-0.100006,0.4v3h-0.899994L366.299988,5.6L366.299988,5.6z"/>
		<path class="st10" d="M376.5,1.8V7.9c0,0.4,0,1,0,1.3h-0.799988V8.3l0,0c-0.299988,0.6-0.899994,1-1.700012,1
			c-1.200012,0-2.200012-1-2.200012-2.6c0-1.7,1-2.7,2.299988-2.7c0.799988,0,1.299988,0.4,1.5,0.8l0,0v-3
			C375.600006,1.8,376.5,1.8,376.5,1.8z M375.600006,6.2c0-0.1,0-0.3,0-0.4C375.5,5.2,375,4.7,374.300018,4.7
			c-0.899994,0-1.5,0.8-1.5,1.9c0,1,0.5,1.9,1.5,1.9c0.600006,0,1.200012-0.4,1.299988-1.1c0-0.1,0-0.3,0-0.4V6.2L375.600006,6.2z"
			/>
		<path class="st10" d="M378.5,6.9c0,1.2,0.799988,1.7,1.700012,1.7c0.700012,0,1.100006-0.1,1.399994-0.3l0.200012,0.7
			c-0.299988,0.1-0.899994,0.3-1.700012,0.3c-1.600006,0-2.5-1-2.5-2.5S378.5,4.1,380,4.1c1.600006,0,2.100006,1.4,2.100006,2.4
			c0,0.2,0,0.3,0,0.4L378.5,6.9L378.5,6.9z M381.200012,6.2c0-0.6-0.200012-1.5-1.299988-1.5c-0.899994,0-1.299988,0.9-1.399994,1.5
			H381.200012z"/>
		<path class="st10" d="M387.600006,1.8V7.9c0,0.4,0,1,0,1.3h-0.799988V8.3l0,0c-0.299988,0.6-0.899994,1-1.700012,1
			c-1.200012,0-2.200012-1-2.200012-2.6c0-1.7,1-2.7,2.299988-2.7c0.799988,0,1.299988,0.4,1.5,0.8l0,0v-3
			C386.700012,1.8,387.600006,1.8,387.600006,1.8z M386.600006,6.2c0-0.1,0-0.3,0-0.4C386.5,5.2,386,4.7,385.300018,4.7
			c-0.899994,0-1.5,0.8-1.5,1.9c0,1,0.5,1.9,1.5,1.9c0.600006,0,1.200012-0.4,1.299988-1.1c0-0.1,0-0.3,0-0.4V6.2L386.600006,6.2z"
			/>
		<path class="st10" d="M391.299988,9.2c0-0.3,0-0.9,0-1.3V1.8h0.899994V5l0,0c0.299988-0.6,0.899994-0.9,1.700012-0.9
			C395.199982,4.1,396,5.1,396,6.7c0,1.8-1.100006,2.7-2.299988,2.7C393,9.4,392.400024,9.099999,392,8.5l0,0v0.8L391.299988,9.2
			L391.299988,9.2z M392.200012,7.2c0,0.1,0,0.2,0,0.3c0.200012,0.6,0.700012,1.1,1.399994,1.1c1,0,1.5-0.8,1.5-1.9
			c0-1-0.5-1.9-1.5-1.9c-0.600006,0-1.200012,0.4-1.399994,1.1c0,0.1,0,0.2,0,0.4V7.2L392.200012,7.2z"/>
		<path class="st10" d="M397.5,4.2l1.100006,3c0.100006,0.3,0.200012,0.7,0.299988,1l0,0C399,7.9,399.100006,7.5,399.199982,7.1l1-3
			h1l-1.399994,3.6c-0.700012,1.7-1.100006,2.599999-1.700012,3.2c-0.399994,0.4-0.899994,0.5-1.100006,0.6l-0.200012-0.8
			c0.200012-0.1,0.5-0.2,0.799988-0.4s0.600006-0.5,0.799988-1c0-0.1,0.100006-0.2,0.100006-0.2s0-0.1-0.100006-0.2l-1.899994-4.6
			L397.5,4.2L397.5,4.2z"/>
	</g>
</g>
<g>
	<g>
		<rect x="430.700012" y="1.9" class="st2" width="39.899994" height="26.6"/>
		<g>
			<polygon class="st3" points="450.700012,4.8 451,5.8 452,5.8 451.200012,6.5 451.5,7.5 450.700012,6.8 449.799988,7.5 
				450.100006,6.5 449.200012,5.8 450.299988,5.8 			"/>
		</g>
		<g>
			<polygon class="st3" points="446.200012,6 446.5,7 447.600006,7 446.799988,7.6 447.100006,8.7 446.200012,8 445.299988,8.7 
				445.700012,7.6 444.799988,7 445.899994,7 			"/>
		</g>
		<g>
			<polygon class="st3" points="443,9.2 443.299988,10.3 444.399994,10.3 443.5,10.9 443.799988,11.9 443,11.3 442.100006,11.9 
				442.399994,10.9 441.600006,10.3 442.600006,10.3 			"/>
		</g>
		<g>
			<polygon class="st3" points="441.799988,13.7 442.100006,14.7 443.200012,14.7 442.299988,15.3 442.600006,16.299999 
				441.799988,15.7 440.899994,16.299999 441.299988,15.3 440.399994,14.7 441.5,14.7 			"/>
		</g>
		<g>
			<polygon class="st3" points="443,18.1 443.299988,19.1 444.399994,19.1 443.5,19.799999 443.799988,20.799999 443,20.1 
				442.100006,20.799999 442.399994,19.799999 441.600006,19.1 442.600006,19.1 			"/>
		</g>
		<g>
			<polygon class="st3" points="446.200012,21.4 446.5,22.4 447.600006,22.4 446.799988,23 447.100006,24 446.200012,23.4 
				445.299988,24 445.700012,23 444.799988,22.4 445.899994,22.4 			"/>
		</g>
		<g>
			<polygon class="st3" points="450.700012,22.5 451,23.6 452,23.6 451.200012,24.200001 451.5,25.200001 450.700012,24.6 
				449.799988,25.200001 450.100006,24.200001 449.200012,23.6 450.299988,23.6 			"/>
		</g>
		<g>
			<polygon class="st3" points="455.100006,21.4 455.399994,22.4 456.5,22.4 455.600006,23 455.899994,24 455.100006,23.4 
				454.200012,24 454.600006,23 453.700012,22.4 454.700012,22.4 			"/>
		</g>
		<g>
			<polygon class="st3" points="458.299988,18.1 458.600006,19.1 459.700012,19.1 458.899994,19.799999 459.200012,20.799999 
				458.299988,20.1 457.399994,20.799999 457.799988,19.799999 456.899994,19.1 458,19.1 			"/>
		</g>
		<g>
			<polygon class="st3" points="459.5,13.7 459.799988,14.7 460.899994,14.7 460,15.3 460.399994,16.299999 459.5,15.7 
				458.600006,16.299999 459,15.3 458.100006,14.7 459.200012,14.7 			"/>
		</g>
		<g>
			<polygon class="st3" points="458.299988,9.2 458.600006,10.3 459.700012,10.3 458.899994,10.9 459.200012,11.9 458.299988,11.3 
				457.399994,11.9 457.799988,10.9 456.899994,10.3 458,10.3 			"/>
		</g>
		<g>
			<polygon class="st3" points="455.100006,6 455.399994,7 456.5,7 455.600006,7.6 455.899994,8.7 455.100006,8 454.200012,8.7 
				454.600006,7.6 453.700012,7 454.700012,7 			"/>
		</g>
	</g>
</g>
<g>
	<g id="Layer_1_00000098920834660516426910000006450713773821660555_">
		<g>
			<path class="st11" d="M506.193481,6.017871c3.571716,0.339089,6.849609,1.491992,9.697937,3.27786
				c0,0,0.06781,0.045212,0.20343,0.135635c-3.594299-5.131546-9.381439-8.725889-16.185822-9.336249
				c-5.945374-0.542543-11.551636,1.265932-15.846771,4.656823c3.277863,0.655572,6.148804,2.283199,8.31897,4.566398
				C496.359894,6.809079,501.152344,5.543148,506.193481,6.017871z"/>
			<path class="st12" d="M519.915283,20.078762C519.915283,20.078762,519.915283,20.056156,519.915283,20.078762v0.022608
				C519.915283,20.078762,519.915283,20.078762,519.915283,20.078762z"/>
			<path class="st13" d="M519.937866,20.327425c0-0.067818-0.022583-0.3843-0.045227-0.42951
				c-0.33905-3.820404-1.695435-7.414747-3.820374-10.44394c-0.113037-0.067819-0.20343-0.135635-0.20343-0.135635
				c-2.848389-1.785869-6.126221-2.961377-9.697968-3.277861c-5.041107-0.474724-9.833588,0.813813-13.812225,3.300466
				c2.46405,2.554472,4.046448,5.922754,4.362946,9.630129c0.06781,0.926846,0.06781,1.853685,0,2.803135
				c-0.135651,1.491993-0.474731,2.916164-0.994659,4.249916c-0.926849,2.418833-2.441437,4.543793-4.340332,6.216633
				l0.022583-0.02261c7.324341-4.249916,16.389313-6.05839,25.341248-4.702034
				c-0.813782,0.7686-2.034546,1.424173-3.029175,1.944111c1.19812-0.316481,5.448059-2.011927,5.515869-2.147564l0,0l0,0
				C519.259705,27.267447,520.254333,24.057405,519.937866,20.327425z"/>
			<path class="st12" d="M519.553589,19.807489c-2.825745-1.921505-5.176758-3.074408-10.104858-3.526525
				c-3.752594-0.339089-7.369537,0.271271-10.602203,1.627628c0.090424,0.904238,0.090424,1.831081,0,2.780529
				c-0.429504,4.543795-2.848328,8.432014-6.307037,10.850849c8.974548-5.154154,17.135284-5.854937,24.052734-4.792458
				c0.452087,0.067818,1.876282,0.316483,2.53186,0.49733C519.937866,23.19838,519.643982,20.508274,519.553589,19.807489z"/>
		</g>
		<g>
			<rect x="497.33194" y="33.484077" width="0.429511" height="3.323071"/>
			<path d="M498.507446,36.784546v-2.396229h0.361694v0.339088c0.180847-0.271271,0.429535-0.40691,0.768616-0.40691
				c0.13562,0,0.271271,0.02261,0.406891,0.067822c0.113037,0.045208,0.203461,0.113029,0.271271,0.203449
				c0.06781,0.090424,0.113037,0.180847,0.135651,0.29388c0.022614,0.067818,0.022614,0.203449,0.022614,0.406906v1.469387
				h-0.406921v-1.469387c0-0.158241-0.022614-0.293877-0.045197-0.361698c-0.022614-0.09042-0.090424-0.158241-0.158264-0.203449
				c-0.090424-0.045212-0.180847-0.067822-0.293854-0.067822c-0.180847,0-0.316498,0.045212-0.452118,0.158241
				c-0.135651,0.113029-0.180847,0.316483-0.180847,0.632969v1.311146h-0.429535V36.784546z"/>
			<path d="M501.762695,36.784546l-0.926819-2.396229h0.429504l0.519928,1.446777
				c0.045227,0.158241,0.113037,0.316483,0.158234,0.474724c0.045227-0.135635,0.090424-0.271271,0.158264-0.452118
				l0.542542-1.469383h0.429504l-0.904236,2.396229H501.762695z"/>
			<path d="M505.063171,36.015945l0.429504,0.045212c-0.06781,0.248665-0.180847,0.429512-0.361694,0.565147
				s-0.406891,0.203453-0.678162,0.203453c-0.361694,0-0.632965-0.113029-0.836426-0.316483
				c-0.203461-0.226059-0.316498-0.519936-0.316498-0.904236c0-0.40691,0.113037-0.723392,0.316498-0.949451
				s0.474731-0.339088,0.813812-0.339088c0.316467,0,0.587738,0.113029,0.791199,0.339088s0.316498,0.519939,0.316498,0.926846
				c0,0.022606,0,0.067818,0,0.113029h-1.785889c0.022614,0.271271,0.090424,0.474728,0.226074,0.610359
				c0.13562,0.135639,0.293884,0.203453,0.497345,0.203453c0.158234,0,0.271271-0.045212,0.384277-0.113029
				C504.904938,36.309818,504.995361,36.196789,505.063171,36.015945L505.063171,36.015945z M503.706818,35.360371h1.33374
				c-0.022614-0.203453-0.06781-0.361694-0.158234-0.452118c-0.135651-0.158241-0.293884-0.226059-0.497345-0.226059
				c-0.180847,0-0.339081,0.067818-0.474731,0.180847C503.797241,34.97607,503.729431,35.156918,503.706818,35.360371z"/>
			<path d="M505.831787,36.083759l0.406891-0.067818c0.022614,0.158241,0.090424,0.293877,0.180847,0.361698
				c0.113037,0.09042,0.248657,0.135635,0.429504,0.135635s0.316498-0.045212,0.406921-0.113029s0.13562-0.158241,0.13562-0.271271
				c0-0.090424-0.045197-0.158241-0.113037-0.226059c-0.045197-0.045212-0.20343-0.090424-0.406891-0.135639
				c-0.293884-0.067818-0.497345-0.135635-0.632965-0.203449c-0.113037-0.045212-0.203461-0.135639-0.271271-0.226059
				c-0.06781-0.090424-0.090424-0.203453-0.090424-0.316483s0.022614-0.203453,0.06781-0.293877
				c0.045227-0.090424,0.113037-0.158241,0.203461-0.226063c0.06781-0.045208,0.158234-0.09042,0.248657-0.113029
				c0.113037-0.022606,0.226074-0.045208,0.361694-0.045208c0.180847,0,0.361694,0.022606,0.497345,0.09042
				c0.13562,0.045212,0.248657,0.135639,0.316467,0.226059c0.06781,0.090424,0.113037,0.226059,0.135651,0.361698
				l-0.406921,0.045212c-0.022583-0.113029-0.06781-0.226059-0.158234-0.29388
				c-0.090424-0.067818-0.203461-0.113029-0.361694-0.113029c-0.180847,0-0.316467,0.02261-0.406891,0.090424
				c-0.090424,0.067818-0.113037,0.135635-0.113037,0.226059c0,0.045212,0.022614,0.090424,0.045197,0.135639
				c0.022614,0.045208,0.090424,0.09042,0.158264,0.113029c0.045197,0.022606,0.158234,0.045208,0.361694,0.113029
				c0.293854,0.067818,0.497314,0.135635,0.610352,0.180847s0.203461,0.113029,0.271271,0.203453
				c0.06781,0.09042,0.090424,0.203449,0.090424,0.339088c0,0.135635-0.045197,0.271271-0.113037,0.3843
				c-0.090393,0.113029-0.20343,0.203449-0.339081,0.271271c-0.158234,0.067818-0.316467,0.09042-0.497314,0.09042
				c-0.316498,0-0.542542-0.067818-0.723419-0.203449C505.967407,36.513275,505.876984,36.332428,505.831787,36.083759z"/>
			<path d="M509.200073,36.422848l0.06781,0.361698c-0.113037,0.022606-0.226074,0.045212-0.316498,0.045212
				c-0.158234,0-0.271271-0.02261-0.339081-0.067818c-0.090424-0.045212-0.13562-0.113033-0.180847-0.180851
				c-0.022614-0.067818-0.045197-0.226059-0.045197-0.474724v-1.378963h-0.293884v-0.316483h0.293884v-0.587757l0.406891-0.248665
				v0.836418h0.406891v0.316483h-0.406891v1.401566c0,0.113029,0,0.180851,0.022614,0.226059
				c0.022614,0.02261,0.045197,0.067822,0.06781,0.090424c0.022614,0.022606,0.06781,0.022606,0.135651,0.022606
				C509.064423,36.445457,509.132233,36.445457,509.200073,36.422848z"/>
			<path d="M509.606964,33.936195v-0.474724h0.406921v0.474724H509.606964L509.606964,33.936195z M509.606964,36.784546v-2.396229
				h0.406921v2.396229H509.606964z"/>
			<path d="M510.624237,36.784546v-2.396229h0.361694v0.339088c0.180847-0.271271,0.429504-0.40691,0.768585-0.40691
				c0.135651,0,0.271301,0.02261,0.406921,0.067822c0.113037,0.045208,0.20343,0.113029,0.271301,0.203449
				c0.06781,0.090424,0.112976,0.180847,0.13562,0.29388c0.022583,0.067818,0.022583,0.203449,0.022583,0.406906v1.469387h-0.406921
				v-1.469387c0-0.158241-0.022583-0.293877-0.045166-0.361698c-0.022644-0.09042-0.090454-0.158241-0.158264-0.203449
				c-0.090424-0.045212-0.180847-0.067822-0.293884-0.067822c-0.180847,0-0.316467,0.045212-0.452118,0.158241
				c-0.13562,0.113029-0.180847,0.316483-0.180847,0.632969v1.311146h-0.429504V36.784546z"/>
			<path d="M513.133484,36.987999l0.406921,0.067818c0.022583,0.113029,0.06781,0.203453,0.13562,0.271271
				c0.090454,0.067818,0.248657,0.113029,0.406921,0.113029c0.180847,0,0.339111-0.045212,0.429504-0.113029
				c0.113037-0.067818,0.180847-0.180847,0.20343-0.316483c0.022644-0.090424,0.022644-0.248665,0.022644-0.519936
				c-0.180847,0.203449-0.406921,0.316479-0.655579,0.316479c-0.339111,0-0.587769-0.113029-0.768616-0.361694
				c-0.180847-0.248669-0.27124-0.519939-0.27124-0.859028c0-0.226059,0.045166-0.452118,0.13562-0.632965
				c0.090393-0.203453,0.20343-0.339088,0.361694-0.452118s0.339111-0.158241,0.565125-0.158241
				c0.293884,0,0.519958,0.113029,0.700806,0.339088v-0.293877h0.384277v2.079742c0,0.3843-0.045166,0.632969-0.113037,0.79121
				c-0.06781,0.158241-0.20343,0.271271-0.361694,0.361694c-0.158203,0.090424-0.361694,0.135639-0.610352,0.135639
				c-0.293884,0-0.519897-0.067822-0.700745-0.203453C513.223938,37.440117,513.133484,37.25927,513.133484,36.987999
				L513.133484,36.987999z M513.472595,35.541218c0,0.316483,0.06781,0.542542,0.180847,0.700787
				c0.13562,0.135635,0.27124,0.226059,0.474731,0.226059c0.180847,0,0.33905-0.067818,0.474731-0.226059
				c0.13562-0.135635,0.180847-0.361694,0.180847-0.678177c0-0.29388-0.067871-0.519939-0.203491-0.655571
				c-0.13562-0.158241-0.293884-0.226059-0.474731-0.226059s-0.33905,0.067818-0.452087,0.226059
				C513.540405,35.043888,513.472595,35.269947,513.472595,35.541218z"/>
			<path d="M492.968994,38.660839v-0.474728h0.406921v0.474728H492.968994L492.968994,38.660839z M492.968994,41.509186v-2.396233
				h0.406921v2.396233H492.968994z"/>
			<path d="M493.986267,41.509186v-2.396233h0.361694v0.339088c0.180847-0.271271,0.429504-0.406906,0.768616-0.406906
				c0.13562,0,0.271271,0.022606,0.406891,0.067818c0.113037,0.045212,0.203461,0.113029,0.271271,0.203453
				s0.113037,0.180847,0.135651,0.293877c0.022583,0.067818,0.022583,0.203453,0.022583,0.40691v1.469383h-0.406891v-1.469383
				c0-0.158241-0.022614-0.29388-0.045227-0.361698c-0.022583-0.090424-0.090424-0.158241-0.158234-0.203453
				c-0.090424-0.045212-0.180847-0.067818-0.293884-0.067818c-0.180847,0-0.316467,0.045212-0.452118,0.158241
				c-0.13562,0.113029-0.180847,0.316483-0.180847,0.632965v1.311146h-0.429504V41.509186z"/>
			<path d="M497.851868,42.436028l-0.045197-0.3843c0.090424,0.02261,0.158234,0.045212,0.226044,0.045212
				c0.090424,0,0.158264-0.022606,0.226074-0.045212c0.045227-0.022606,0.090424-0.067818,0.13562-0.135635
				c0.022614-0.045212,0.067841-0.135639,0.135651-0.293877c0-0.02261,0.022614-0.045212,0.045227-0.090424l-0.904236-2.418835
				h0.429504l0.497314,1.401566c0.067841,0.180851,0.113037,0.361698,0.180847,0.565151
				c0.045227-0.180851,0.113037-0.361698,0.158264-0.542542l0.519928-1.401569h0.406891l-0.904236,2.441444
				c-0.090424,0.271271-0.180847,0.452118-0.226044,0.542542c-0.06781,0.135635-0.158264,0.226059-0.248688,0.293877
				s-0.20343,0.09042-0.339081,0.09042C498.032715,42.481239,497.942291,42.481239,497.851868,42.436028z"/>
			<path d="M500.022064,40.311073c0-0.452118,0.113007-0.7686,0.361694-0.994659
				c0.20343-0.180851,0.452118-0.271271,0.745972-0.271271c0.339111,0,0.610382,0.113029,0.813843,0.316483
				c0.20343,0.226059,0.316467,0.519936,0.316467,0.904236c0,0.316483-0.045227,0.565147-0.135651,0.723389
				c-0.090424,0.180847-0.226044,0.316483-0.406891,0.406906s-0.361694,0.135639-0.587769,0.135639
				c-0.339081,0-0.610352-0.113029-0.813812-0.316483C500.135071,41.034462,500.022064,40.717976,500.022064,40.311073
				L500.022064,40.311073z M500.451569,40.311073c0,0.316483,0.06781,0.542542,0.203461,0.700783
				c0.13562,0.158241,0.293854,0.226063,0.497314,0.226063s0.361694-0.067822,0.497345-0.226063
				c0.13562-0.158237,0.203461-0.3843,0.203461-0.700783c0-0.29388-0.067841-0.519939-0.203461-0.678181
				c-0.135651-0.158237-0.293884-0.226059-0.497345-0.226059s-0.361694,0.067822-0.497314,0.226059
				C500.519379,39.768528,500.451569,39.994587,500.451569,40.311073z"/>
			<path d="M504.339783,41.509186v-0.361698c-0.180847,0.271271-0.452118,0.406906-0.768585,0.406906
				c-0.135651,0-0.271271-0.022606-0.406921-0.09042c-0.113037-0.045212-0.20343-0.113029-0.271271-0.203453
				c-0.06781-0.090424-0.113037-0.180847-0.13562-0.293877c-0.022614-0.090424-0.022614-0.203453-0.022614-0.3843v-1.491993
				h0.406891v1.333748c0,0.203453,0,0.361694,0.022614,0.429512c0.022614,0.113029,0.090424,0.180847,0.158234,0.248665
				c0.090424,0.067818,0.180847,0.090424,0.316498,0.090424c0.113037,0,0.226044-0.02261,0.339081-0.090424
				c0.113037-0.067818,0.180847-0.158241,0.226074-0.248665c0.045197-0.113029,0.06781-0.271271,0.06781-0.474728v-1.288536
				h0.406891v2.396229h-0.339081V41.509186z"/>
			<path d="M505.334442,41.509186v-2.396233h0.361694v0.361698c0.090424-0.180851,0.180847-0.29388,0.248688-0.339088
				c0.06781-0.045212,0.158234-0.090424,0.271271-0.090424c0.13562,0,0.271271,0.045212,0.429504,0.135635l-0.135651,0.3843
				c-0.090424-0.067818-0.20343-0.09042-0.293854-0.09042s-0.180847,0.022606-0.248688,0.09042
				c-0.06781,0.045212-0.113007,0.135639-0.158234,0.226059c-0.045227,0.135639-0.06781,0.29388-0.06781,0.474728v1.265934
				h-0.406921V41.509186z"/>
			<path d="M508.273224,41.509186V39.42944h-0.361694v-0.316483h0.361694v-0.248665c0-0.158241,0.022614-0.271271,0.045197-0.361698
				c0.045227-0.113029,0.113037-0.180847,0.203461-0.248665c0.090424-0.067822,0.248657-0.090424,0.406921-0.090424
				c0.113007,0,0.248657,0.022606,0.384277,0.045212l-0.06781,0.361694c-0.090424-0.022606-0.158234-0.022606-0.248657-0.022606
				c-0.113037,0-0.203461,0.022606-0.271271,0.090424c-0.045227,0.045208-0.06781,0.158237-0.06781,0.293877v0.226059h0.474731
				v0.316483h-0.474731v2.079742h-0.384308V41.509186z"/>
			<path d="M511.053741,41.509186v-0.361698c-0.180847,0.271271-0.452118,0.406906-0.768585,0.406906
				c-0.135651,0-0.271271-0.022606-0.406921-0.09042c-0.113037-0.045212-0.20343-0.113029-0.271271-0.203453
				c-0.06781-0.090424-0.113037-0.180847-0.13562-0.293877c-0.022614-0.090424-0.022614-0.203453-0.022614-0.3843v-1.491993
				h0.406891v1.333748c0,0.203453,0,0.361694,0.022614,0.429512c0.022614,0.113029,0.090424,0.180847,0.158234,0.248665
				c0.090424,0.067818,0.180847,0.090424,0.316498,0.090424c0.113037,0,0.226044-0.02261,0.339081-0.090424
				c0.113037-0.067818,0.180847-0.158241,0.226074-0.248665c0.045197-0.113029,0.06781-0.271271,0.06781-0.474728v-1.288536
				h0.406891v2.396229h-0.339081V41.509186z"/>
			<path d="M512.930054,41.147491l0.06781,0.361694c-0.113037,0.02261-0.226074,0.045212-0.316467,0.045212
				c-0.158264,0-0.271301-0.022606-0.339111-0.067818c-0.090393-0.045212-0.13562-0.113029-0.180847-0.180847
				c-0.022583-0.067818-0.045227-0.226059-0.045227-0.474728v-1.378963h-0.293854v-0.316479h0.293854v-0.587757l0.406921-0.248669
				v0.836422h0.406921v0.316479h-0.406921v1.401569c0,0.113029,0,0.180847,0.022583,0.226059
				c0.022644,0.022606,0.045227,0.067818,0.06781,0.090424c0.022644,0.022606,0.067871,0.022606,0.135681,0.022606
				C512.794434,41.170094,512.862244,41.147491,512.930054,41.147491z"/>
			<path d="M514.919373,41.509186v-0.361698c-0.180847,0.271271-0.452148,0.406906-0.768616,0.406906
				c-0.13562,0-0.27124-0.022606-0.406921-0.09042c-0.113037-0.045212-0.20343-0.113029-0.27124-0.203453
				s-0.113037-0.180847-0.13562-0.293877c-0.022644-0.090424-0.022644-0.203453-0.022644-0.3843v-1.491993h0.406921v1.333748
				c0,0.203453,0,0.361694,0.022583,0.429512c0.022644,0.113029,0.090454,0.180847,0.158264,0.248665
				c0.090393,0.067818,0.180847,0.090424,0.316467,0.090424c0.113037,0,0.226074-0.02261,0.339111-0.090424
				c0.113037-0.067818,0.180847-0.158241,0.226074-0.248665c0.045166-0.113029,0.06781-0.271271,0.06781-0.474728v-1.288536h0.40686
				v2.396229h-0.33905V41.509186z"/>
			<path d="M515.914001,41.509186v-2.396233h0.361694v0.361698c0.090454-0.180851,0.180847-0.29388,0.248718-0.339088
				c0.06781-0.045212,0.158203-0.090424,0.27124-0.090424c0.13562,0,0.271301,0.045212,0.429504,0.135635l-0.13562,0.3843
				c-0.090454-0.067818-0.20343-0.09042-0.293884-0.09042c-0.090393,0-0.180847,0.022606-0.248657,0.09042
				c-0.06781,0.045212-0.113037,0.135639-0.158264,0.226059c-0.045227,0.135639-0.06781,0.29388-0.06781,0.474728v1.265934
				h-0.406921V41.509186z"/>
			<path d="M519.10144,40.740585l0.429504,0.045208c-0.06781,0.248669-0.180847,0.429512-0.361694,0.565151
				c-0.180847,0.135635-0.40686,0.203449-0.678162,0.203449c-0.361694,0-0.632935-0.113029-0.836426-0.316479
				c-0.20343-0.226059-0.316467-0.519939-0.316467-0.90424c0-0.406906,0.113037-0.723389,0.316467-0.949448
				c0.203491-0.226059,0.474731-0.339088,0.813843-0.339088c0.316467,0,0.587769,0.113029,0.791199,0.339088
				s0.316467,0.519936,0.316467,0.926846c0,0.022606,0,0.067818,0,0.113029h-1.831055
				c0.022583,0.271271,0.090393,0.474724,0.226074,0.610359c0.13562,0.135635,0.293823,0.203453,0.497314,0.203453
				c0.158264,0,0.27124-0.045212,0.384277-0.113029C518.96582,41.034462,519.056274,40.898823,519.10144,40.740585
				L519.10144,40.740585z M517.7677,40.085014h1.33374c-0.022583-0.203453-0.06781-0.361698-0.158203-0.452122
				c-0.135681-0.158237-0.293884-0.226059-0.497375-0.226059c-0.180847,0-0.33905,0.067822-0.474731,0.180851
				C517.858154,39.70071,517.790344,39.858955,517.7677,40.085014z"/>
		</g>
	</g>
	<g>
		<path class="st14" d="M437.516663,34.7048l0.655548,0.203453c-0.113007,0.361694-0.271271,0.655571-0.519928,0.836418
			c-0.226044,0.180847-0.542542,0.271271-0.904236,0.271271c-0.452118,0-0.813812-0.158241-1.107697-0.452118
			c-0.293884-0.316483-0.429504-0.723389-0.429504-1.265934c0-0.565147,0.13562-0.994659,0.429504-1.311146
			c0.293884-0.316483,0.678192-0.474724,1.152893-0.474724c0.406921,0,0.746002,0.113029,1.017273,0.361694
			c0.158264,0.135639,0.271271,0.361698,0.339111,0.632969l-0.678192,0.158237
			c-0.045197-0.180847-0.113037-0.316479-0.248657-0.406906c-0.135651-0.113029-0.271271-0.158241-0.474731-0.158241
			c-0.248657,0-0.452118,0.090424-0.610352,0.271271c-0.158264,0.180847-0.226074,0.474728-0.226074,0.88163
			c0,0.429512,0.06781,0.745998,0.226074,0.926846c0.158234,0.180847,0.361694,0.271271,0.610352,0.271271
			c0.180847,0,0.339081-0.067818,0.474731-0.180847C437.381012,35.134312,437.471436,34.953465,437.516663,34.7048z"/>
		<path class="st14" d="M438.624329,34.7048c0-0.226059,0.045227-0.429512,0.158264-0.632965
			c0.113007-0.203457,0.248657-0.361698,0.452118-0.474728c0.20343-0.113029,0.406891-0.158241,0.655548-0.158241
			c0.361694,0,0.678192,0.113029,0.926849,0.361698c0.248657,0.248665,0.361694,0.542542,0.361694,0.926846
			c0,0.361694-0.113037,0.678177-0.361694,0.926842c-0.248657,0.248669-0.542542,0.361698-0.904236,0.361698
			c-0.226044,0-0.452118-0.045212-0.655579-0.158241c-0.20343-0.113029-0.361694-0.248669-0.474701-0.452118
			C438.669556,35.224739,438.624329,34.97607,438.624329,34.7048z M439.279907,34.727406
			c0,0.248665,0.06781,0.429508,0.180847,0.565147c0.113037,0.135635,0.248657,0.203453,0.429504,0.203453
			s0.316498-0.067822,0.429535-0.203453c0.113037-0.135635,0.180847-0.316483,0.180847-0.565147
			c0-0.248669-0.06781-0.429512-0.180847-0.565151c-0.113037-0.135635-0.248688-0.203449-0.429535-0.203449
			s-0.316467,0.067818-0.429504,0.203449C439.347717,34.29789,439.279907,34.478741,439.279907,34.727406z"/>
		<path class="st14" d="M441.608307,35.043888v-0.632965h1.288544v0.655571h-1.288544V35.043888z"/>
		<path class="st14" d="M442.964691,33.506687h0.361694v-0.180851c0-0.203449,0.022583-0.361694,0.06781-0.474724
			c0.045197-0.113029,0.13562-0.180851,0.248657-0.248669s0.271271-0.09042,0.452118-0.09042s0.361694,0.022606,0.542542,0.09042
			l-0.090424,0.452118c-0.113037-0.022606-0.203461-0.045208-0.293884-0.045208s-0.158234,0.022606-0.20343,0.067818
			c-0.045227,0.045212-0.067841,0.135635-0.067841,0.248665v0.180851h0.497345v0.519936h-0.497345v1.944111h-0.655548v-1.944111
			h-0.361694V33.506687z"/>
		<path class="st14" d="M446.445984,35.97073v-0.361694c-0.090424,0.135635-0.203461,0.226059-0.361694,0.316479
			c-0.13562,0.067822-0.293884,0.113029-0.452118,0.113029s-0.316467-0.045208-0.452118-0.113029
			c-0.13562-0.067818-0.226044-0.180847-0.293884-0.316479c-0.06781-0.135639-0.090424-0.316483-0.090424-0.542542v-1.559807
			h0.655579v1.130295c0,0.339088,0.022614,0.565147,0.045227,0.632965c0.022583,0.067822,0.06781,0.135639,0.13562,0.180851
			s0.135651,0.067818,0.248657,0.067818c0.113037,0,0.203461-0.022606,0.293884-0.090424s0.158234-0.135635,0.180847-0.226059
			s0.045227-0.316483,0.045227-0.655571v-1.039875h0.655548v2.464043H446.445984z"/>
		<path class="st14" d="M449.972504,35.97073h-0.655548v-1.265934c0-0.271271-0.022614-0.429512-0.045227-0.519936
			c-0.022614-0.067818-0.06781-0.135639-0.13562-0.180847c-0.067841-0.045212-0.135651-0.067822-0.226074-0.067822
			c-0.113037,0-0.203461,0.02261-0.293884,0.090424c-0.090424,0.067818-0.158234,0.135639-0.180847,0.248669
			c-0.022583,0.113029-0.045197,0.293877-0.045197,0.565147v1.107689h-0.655579v-2.441433h0.610352v0.361694
			c0.226074-0.271271,0.474731-0.406906,0.813812-0.406906c0.135651,0,0.271271,0.022606,0.384308,0.067818
			s0.203461,0.113029,0.271271,0.203453c0.06781,0.09042,0.113037,0.180847,0.135651,0.271271
			c0.022614,0.113029,0.045197,0.248665,0.045197,0.429508v1.537205H449.972504z"/>
		<path class="st14" d="M452.888672,35.97073h-0.610352v-0.361694c-0.090424,0.135635-0.226044,0.248665-0.361694,0.316479
			c-0.13562,0.067822-0.271271,0.113029-0.406891,0.113029c-0.293884,0-0.519958-0.113029-0.723389-0.339088
			c-0.203461-0.226059-0.293884-0.542542-0.293884-0.949448s0.090424-0.723389,0.293884-0.949448
			c0.20343-0.226059,0.452118-0.316483,0.745972-0.316483c0.271271,0,0.519958,0.113029,0.723389,0.339088v-1.220718h0.655579
			v3.368282H452.888672z M451.14801,34.682194c0,0.271271,0.045227,0.452118,0.113037,0.565147
			c0.113037,0.180847,0.248688,0.248669,0.429504,0.248669c0.158264,0,0.271271-0.067822,0.384308-0.180851
			c0.113037-0.135635,0.158234-0.316483,0.158234-0.565147c0-0.271271-0.045197-0.49733-0.158234-0.610359
			c-0.113037-0.135635-0.226044-0.180847-0.384308-0.180847c-0.158234,0-0.293854,0.067818-0.384277,0.180847
			S451.14801,34.433529,451.14801,34.682194z"/>
		<path class="st14" d="M454.968414,35.179523l0.655579,0.113029c-0.090424,0.248665-0.226044,0.429512-0.384308,0.542542
			c-0.180847,0.113029-0.406891,0.180847-0.678162,0.180847c-0.429504,0-0.746002-0.135635-0.949463-0.429512
			c-0.158234-0.226059-0.248657-0.49733-0.248657-0.859024c0-0.40691,0.113037-0.723389,0.316498-0.949451
			c0.20343-0.226059,0.474701-0.339088,0.813812-0.339088c0.361694,0,0.655548,0.113029,0.859009,0.361698
			c0.203461,0.248665,0.316498,0.610359,0.293884,1.107689h-1.627625c0,0.203453,0.06781,0.339088,0.158234,0.452118
			s0.226074,0.158241,0.384308,0.158241c0.113037,0,0.180847-0.022606,0.248657-0.090424
			C454.878021,35.360374,454.923218,35.292553,454.968414,35.179523z M454.991028,34.523952
			c0-0.180847-0.045197-0.339088-0.13562-0.429512s-0.203461-0.158241-0.339111-0.158241
			c-0.13562,0-0.248657,0.045212-0.361694,0.158241c-0.113007,0.113029-0.13562,0.248669-0.13562,0.429512H454.991028z"/>
		<path class="st14" d="M458.427124,35.97073h-0.610352v-0.361694c-0.090424,0.135635-0.226044,0.248665-0.361694,0.316479
			c-0.13562,0.067822-0.271271,0.113029-0.406891,0.113029c-0.293884,0-0.519958-0.113029-0.723389-0.339088
			c-0.203461-0.226059-0.293884-0.542542-0.293884-0.949448s0.090424-0.723389,0.293884-0.949448
			c0.20343-0.226059,0.452118-0.316483,0.745972-0.316483c0.271271,0,0.519958,0.113029,0.723389,0.339088v-1.220718h0.655579
			v3.368282H458.427124z M456.686493,34.682194c0,0.271271,0.045197,0.452118,0.113007,0.565147
			c0.113037,0.180847,0.248688,0.248669,0.429504,0.248669c0.158264,0,0.271271-0.067822,0.384308-0.180851
			c0.113037-0.135635,0.158234-0.316483,0.158234-0.565147c0-0.271271-0.045197-0.49733-0.158234-0.610359
			c-0.113037-0.135635-0.226044-0.180847-0.384308-0.180847c-0.158234,0-0.293854,0.067818-0.384277,0.180847
			S456.686493,34.433529,456.686493,34.682194z"/>
		<path class="st14" d="M460.371246,35.97073v-3.390888h0.655579v1.220718c0.20343-0.226059,0.429504-0.339088,0.723389-0.339088
			s0.542542,0.113029,0.746002,0.316483c0.20343,0.226059,0.293854,0.519936,0.293854,0.926842
			c0,0.429512-0.090424,0.745998-0.293854,0.972057c-0.203461,0.226059-0.452118,0.339088-0.723389,0.339088
			c-0.135651,0-0.271271-0.045212-0.406921-0.113029s-0.248657-0.180847-0.361694-0.316483v0.361698h-0.632965V35.97073z
			 M461.004211,34.682194c0,0.248665,0.045227,0.452118,0.113037,0.565147c0.113037,0.180847,0.271271,0.248669,0.452118,0.248669
			c0.13562,0,0.271271-0.067822,0.361694-0.180851s0.158234-0.316483,0.158234-0.587753s-0.045197-0.474728-0.158234-0.610359
			c-0.113037-0.135639-0.226074-0.180851-0.384308-0.180851s-0.293884,0.067822-0.384308,0.180851
			C461.072021,34.252682,461.004211,34.433529,461.004211,34.682194z"/>
		<path class="st14" d="M462.99353,33.506687h0.700775l0.587769,1.740654l0.565155-1.740654h0.678162l-0.859009,2.373623
			l-0.158234,0.429508c-0.067841,0.135639-0.113037,0.248669-0.158264,0.339088
			c-0.045197,0.067822-0.113007,0.135639-0.180847,0.180851c-0.06781,0.045212-0.158234,0.09042-0.248657,0.113029
			c-0.090424,0.022606-0.203461,0.045212-0.339081,0.045212c-0.135651,0-0.248688-0.02261-0.361694-0.045212l-0.067841-0.519939
			c0.113037,0.02261,0.203461,0.02261,0.271271,0.02261c0.158264,0,0.271271-0.045212,0.339111-0.135639
			c0.06781-0.09042,0.13562-0.203449,0.158234-0.339088L462.99353,33.506687z"/>
		<path class="st14" d="M429.875854,39.203381v0.519936h-0.452118v0.994659c0,0.203453,0,0.316483,0.022583,0.361698
			c0,0.022606,0.022614,0.067818,0.067841,0.09042c0.022583,0.02261,0.06781,0.02261,0.113007,0.02261
			c0.067841,0,0.158264-0.02261,0.271271-0.067818l0.045227,0.49733c-0.158234,0.067818-0.316498,0.09042-0.519928,0.09042
			c-0.113037,0-0.226074-0.022606-0.316498-0.067818s-0.158234-0.090424-0.203461-0.158241
			c-0.045197-0.067818-0.06781-0.158241-0.090424-0.248665c-0.022583-0.067822-0.022583-0.226059-0.022583-0.452118v-1.062481
			h-0.293884v-0.519936h0.293884v-0.497326l0.655548-0.3843v0.859024h0.429535V39.203381z"/>
		<path class="st14" d="M430.983521,38.253933v1.243324c0.203461-0.248665,0.452118-0.361694,0.746002-0.361694
			c0.158264,0,0.293884,0.022606,0.406921,0.09042c0.113037,0.067818,0.20343,0.135639,0.271271,0.203453
			c0.06781,0.067814,0.113037,0.180847,0.13562,0.293877c0.022614,0.113029,0.022614,0.271271,0.022614,0.49733v1.446781h-0.655579
			v-1.311146c0-0.248669-0.022614-0.429512-0.045197-0.49733c-0.022614-0.067818-0.067841-0.135639-0.135651-0.158241
			c-0.06781-0.045212-0.13562-0.067818-0.226044-0.067818c-0.113037,0-0.203461,0.022606-0.293884,0.067818
			s-0.158234,0.135635-0.180847,0.248665c-0.045227,0.113029-0.06781,0.271271-0.06781,0.474728v1.243324h-0.655579v-3.390888
			h0.678162V38.253933z"/>
		<path class="st14" d="M434.645691,40.876221l0.655579,0.113029c-0.090424,0.248669-0.226074,0.429512-0.384308,0.542542
			c-0.180847,0.113029-0.406891,0.180847-0.678162,0.180847c-0.429535,0-0.746002-0.135635-0.949463-0.429512
			c-0.158234-0.226059-0.248657-0.49733-0.248657-0.859024c0-0.40691,0.113037-0.723389,0.316467-0.949448
			c0.203461-0.226063,0.474731-0.339092,0.813812-0.339092c0.361694,0,0.655579,0.113029,0.859039,0.361698
			c0.203461,0.248665,0.316498,0.610359,0.293884,1.107689h-1.627625c0,0.203453,0.06781,0.339088,0.158234,0.452118
			s0.226044,0.158241,0.384308,0.158241c0.113007,0,0.180847-0.022606,0.248657-0.090424
			C434.555267,41.057072,434.623077,40.98925,434.645691,40.876221z M434.690918,40.220646
			c0-0.180847-0.045227-0.339088-0.135651-0.429512c-0.090424-0.09042-0.203461-0.158241-0.339081-0.158241
			c-0.135651,0-0.248657,0.045212-0.361694,0.158241s-0.135651,0.248669-0.135651,0.429512H434.690918z"/>
		<path class="st14" d="M437.200165,41.667427v-3.390888h2.509247v0.565147h-1.831055v0.745998h1.695435v0.565147h-1.695435
			v0.926846h1.898895v0.565147h-2.577087V41.667427z"/>
		<path class="st14" d="M441.970032,41.667427v-0.361694c-0.090424,0.135635-0.203461,0.226059-0.361694,0.316483
			c-0.135651,0.067818-0.293884,0.113029-0.452118,0.113029c-0.158264,0-0.316498-0.045212-0.452148-0.113029
			c-0.13562-0.067822-0.226044-0.180851-0.293854-0.316483c-0.067841-0.135639-0.090424-0.316483-0.090424-0.542542v-1.559807
			h0.655548v1.130295c0,0.339088,0.022614,0.565147,0.045227,0.632969c0.022614,0.067818,0.06781,0.135635,0.13562,0.180847
			c0.067841,0.045212,0.135651,0.067818,0.248688,0.067818c0.113007,0,0.20343-0.022606,0.293884-0.090424
			c0.090424-0.067818,0.158234-0.135635,0.180847-0.226059c0.022583-0.09042,0.045197-0.316483,0.045197-0.655571v-1.039871
			h0.655579v2.464043h-0.610352V41.667427z"/>
		<path class="st14" d="M443.868927,41.667427h-0.655579v-2.464043h0.610352v0.339088
			c0.113037-0.158241,0.203461-0.271271,0.271271-0.316483c0.090424-0.045212,0.180847-0.067818,0.271271-0.067818
			c0.158234,0,0.293884,0.045212,0.429504,0.113029l-0.20343,0.565147c-0.113037-0.067818-0.203461-0.113029-0.316498-0.113029
			c-0.090424,0-0.158234,0.022606-0.226044,0.067818c-0.067841,0.045212-0.113037,0.135639-0.158264,0.271271
			c-0.045197,0.135639-0.045197,0.40691-0.045197,0.836418v0.7686H443.868927z"/>
		<path class="st14" d="M444.95401,40.401493c0-0.226059,0.045197-0.429508,0.158234-0.632965
			c0.113037-0.203453,0.248657-0.361698,0.452118-0.474728s0.406891-0.158237,0.655579-0.158237
			c0.361694,0,0.678162,0.113029,0.926849,0.361694c0.248657,0.248669,0.361694,0.542542,0.361694,0.926846
			c0,0.361694-0.113037,0.678177-0.361694,0.926846c-0.248688,0.248665-0.542572,0.361694-0.904266,0.361694
			c-0.226044,0-0.452118-0.045212-0.655548-0.158241c-0.203461-0.113029-0.361694-0.248665-0.474731-0.452118
			C444.999207,40.921432,444.95401,40.672764,444.95401,40.401493z M445.609558,40.424103
			c0,0.248665,0.067841,0.429512,0.180878,0.565147c0.113007,0.135635,0.248657,0.203453,0.429504,0.203453
			s0.316467-0.067818,0.429504-0.203453s0.180847-0.316483,0.180847-0.565147c0-0.248669-0.06781-0.429512-0.180847-0.565147
			c-0.113037-0.135639-0.248657-0.203453-0.429504-0.203453s-0.316498,0.067818-0.429535,0.203453
			C445.677399,39.994587,445.609558,40.175434,445.609558,40.424103z"/>
		<path class="st14" d="M447.983185,39.203381h0.610382v0.361694c0.06781-0.113029,0.180847-0.226059,0.316467-0.293877
			c0.135651-0.067818,0.293884-0.113029,0.452118-0.113029c0.293884,0,0.519928,0.113029,0.723389,0.339088
			s0.293884,0.542542,0.293884,0.926846c0,0.406906-0.090424,0.723389-0.293884,0.949448s-0.452118,0.339088-0.723389,0.339088
			c-0.13562,0-0.248657-0.022606-0.361694-0.090424c-0.113037-0.045208-0.226074-0.135635-0.339081-0.271267v1.243324h-0.655579
			v-3.390892H447.983185z M448.638763,40.378887c0,0.271271,0.045227,0.474728,0.158234,0.610359
			c0.113037,0.135639,0.248688,0.203453,0.406921,0.203453s0.271271-0.067818,0.384308-0.180847
			c0.090424-0.113029,0.158234-0.316483,0.158234-0.587757c0-0.248665-0.045227-0.452118-0.158234-0.565147
			c-0.113037-0.135639-0.226074-0.180851-0.384308-0.180851s-0.293884,0.067822-0.406921,0.180851
			C448.68399,39.971985,448.638763,40.152828,448.638763,40.378887z"/>
		<path class="st14" d="M452.323547,40.876221l0.655548,0.113029c-0.090424,0.248669-0.226044,0.429512-0.384277,0.542542
			c-0.180847,0.113029-0.406921,0.180847-0.678192,0.180847c-0.429504,0-0.746002-0.135635-0.949432-0.429512
			c-0.158264-0.226059-0.248688-0.49733-0.248688-0.859024c0-0.40691,0.113037-0.723389,0.316498-0.949448
			c0.20343-0.226063,0.474731-0.339092,0.813812-0.339092c0.361694,0,0.655579,0.113029,0.859009,0.361698
			c0.203461,0.248665,0.316498,0.610359,0.293884,1.107689h-1.627625c0,0.203453,0.06781,0.339088,0.158234,0.452118
			s0.226074,0.158241,0.384308,0.158241c0.113037,0,0.180847-0.022606,0.248657-0.090424
			C452.233124,41.057072,452.300934,40.98925,452.323547,40.876221z M452.368744,40.220646
			c0-0.180847-0.045197-0.339088-0.13562-0.429512c-0.090424-0.09042-0.203461-0.158241-0.339111-0.158241
			c-0.13562,0-0.248657,0.045212-0.361694,0.158241s-0.13562,0.248669-0.13562,0.429512H452.368744z"/>
		<path class="st14" d="M454.018982,39.949375l-0.587769-0.113029c0.067841-0.248665,0.180847-0.406906,0.339111-0.519936
			c0.158234-0.113029,0.406891-0.180847,0.723389-0.180847c0.293854,0,0.497314,0.045208,0.655548,0.113029
			c0.135651,0.067818,0.248688,0.158237,0.293884,0.271271c0.06781,0.113029,0.090424,0.293877,0.090424,0.587753v0.7686
			c0,0.226059,0,0.3843,0.022614,0.474728c0.022614,0.113029,0.06781,0.203449,0.113037,0.339088h-0.655579
			c-0.022614-0.045212-0.045227-0.113029-0.06781-0.203453c0-0.045212-0.022614-0.067818-0.022614-0.067818
			c-0.113037,0.113029-0.226074,0.180847-0.361694,0.248665c-0.135651,0.045212-0.271271,0.090424-0.406921,0.090424
			c-0.248657,0-0.452118-0.067818-0.610352-0.203453c-0.135651-0.135635-0.226044-0.316479-0.226044-0.519936
			c0-0.135639,0.022583-0.271271,0.090393-0.361698c0.067841-0.113029,0.158264-0.203449,0.271271-0.248665
			c0.113037-0.067818,0.293884-0.113029,0.519958-0.158241c0.293884-0.067818,0.519928-0.113029,0.632965-0.158241v-0.067818
			c0-0.135639-0.022614-0.203453-0.090424-0.271271c-0.06781-0.045212-0.180847-0.090424-0.339081-0.090424
			c-0.113037,0-0.203461,0.02261-0.271271,0.067822C454.132019,39.745926,454.064178,39.836346,454.018982,39.949375z
			 M454.900604,40.469315c-0.090424,0.022606-0.226044,0.067818-0.406891,0.09042
			c-0.180847,0.045212-0.293884,0.067822-0.361694,0.113029c-0.090424,0.067822-0.135651,0.135639-0.135651,0.226059
			c0,0.090424,0.045227,0.180851,0.113037,0.226063c0.06781,0.045208,0.158234,0.09042,0.248657,0.09042
			c0.113037,0,0.226074-0.045212,0.339081-0.113029c0.067841-0.067818,0.135651-0.135635,0.158264-0.226059
			c0.022583-0.045212,0.022583-0.158241,0.022583-0.316483v-0.09042H454.900604z"/>
		<path class="st14" d="M458.427124,41.667427h-0.655548v-1.265934c0-0.271271-0.022614-0.429508-0.045227-0.519936
			c-0.022614-0.067818-0.06781-0.135635-0.13562-0.180847c-0.067841-0.045212-0.135651-0.067818-0.226074-0.067818
			c-0.113037,0-0.203461,0.022606-0.293884,0.09042c-0.090424,0.067818-0.158234,0.135639-0.180847,0.248669
			c-0.022583,0.113029-0.045197,0.293877-0.045197,0.565147v1.107689h-0.655579v-2.464046h0.610352v0.361698
			c0.226074-0.271271,0.474731-0.406906,0.813812-0.406906c0.135651,0,0.271271,0.022606,0.384308,0.067818
			s0.203461,0.113029,0.271271,0.203449c0.06781,0.090424,0.113037,0.180851,0.135651,0.271271
			c0.022614,0.113029,0.045197,0.248669,0.045197,0.429512v1.559814H458.427124z"/>
		<path class="st14" d="M460.39386,38.253933h0.678162v1.831081c0,0.293877,0,0.474724,0.022614,0.565147
			c0.022614,0.135635,0.090424,0.248665,0.203461,0.339088s0.271271,0.135635,0.452118,0.135635
			c0.203461,0,0.339081-0.045208,0.429504-0.113029c0.090424-0.09042,0.158234-0.180847,0.180847-0.293877
			s0.022614-0.316483,0.022614-0.587757v-1.876289h0.678162v1.785866c0,0.406906-0.022583,0.700787-0.045197,0.859024
			c-0.045227,0.158241-0.113037,0.316483-0.203461,0.429512s-0.226044,0.203453-0.406891,0.271271
			c-0.158264,0.067818-0.384308,0.113029-0.655579,0.113029c-0.316498,0-0.565155-0.045212-0.746002-0.113029
			c-0.158234-0.067818-0.293884-0.180847-0.406891-0.293877c-0.090424-0.113029-0.158264-0.248669-0.203461-0.3843
			c-0.045227-0.203453-0.06781-0.474728-0.06781-0.859028v-1.808468H460.39386z"/>
		<path class="st14" d="M466.067932,41.667427h-0.655548v-1.265934c0-0.271271-0.022614-0.429508-0.045227-0.519936
			c-0.022614-0.067818-0.06781-0.135635-0.135651-0.180847c-0.06781-0.045212-0.13562-0.067818-0.226044-0.067818
			c-0.113037,0-0.203461,0.022606-0.293884,0.09042c-0.090424,0.067818-0.158234,0.135639-0.180847,0.248669
			s-0.045197,0.293877-0.045197,0.565147v1.107689h-0.655579v-2.464046h0.610352v0.361698
			c0.226074-0.271271,0.474731-0.406906,0.813812-0.406906c0.135651,0,0.271271,0.022606,0.384308,0.067818
			s0.203461,0.113029,0.271271,0.203449c0.06781,0.090424,0.113037,0.180851,0.135651,0.271271
			c0.022583,0.113029,0.045197,0.248669,0.045197,0.429512v1.559814H466.067932z"/>
		<path class="st14" d="M466.723511,38.864292v-0.610359h0.655579v0.610359H466.723511z M466.723511,41.667427v-2.464043h0.655579
			v2.464043H466.723511z"/>
		<path class="st14" d="M467.899017,40.401493c0-0.226059,0.045227-0.429508,0.158234-0.632965
			c0.113037-0.203453,0.248688-0.361698,0.452118-0.474728c0.203461-0.113029,0.406921-0.158237,0.655579-0.158237
			c0.361694,0,0.678192,0.113029,0.926849,0.361694c0.248657,0.248669,0.361694,0.542542,0.361694,0.926846
			c0,0.361694-0.113037,0.678177-0.361694,0.926846c-0.248657,0.248665-0.542542,0.361694-0.904236,0.361694
			c-0.226074,0-0.452118-0.045212-0.655579-0.158241s-0.361694-0.248665-0.474731-0.452118
			C467.944244,40.921432,467.899017,40.672764,467.899017,40.401493z M468.554596,40.424103
			c0,0.248665,0.06781,0.429512,0.180847,0.565147s0.248657,0.203453,0.429504,0.203453s0.316498-0.067818,0.429504-0.203453
			c0.113037-0.135635,0.180847-0.316483,0.180847-0.565147c0-0.248669-0.06781-0.429512-0.180847-0.565147
			c-0.113007-0.135639-0.248657-0.203453-0.429504-0.203453s-0.316467,0.067818-0.429504,0.203453
			C468.622406,39.994587,468.554596,40.175434,468.554596,40.424103z"/>
		<path class="st14" d="M473.188812,41.667427h-0.655579v-1.265934c0-0.271271-0.022614-0.429508-0.045197-0.519936
			c-0.022614-0.067818-0.067841-0.135635-0.135651-0.180847s-0.13562-0.067818-0.226044-0.067818
			c-0.113037,0-0.203461,0.022606-0.293884,0.09042c-0.090424,0.067818-0.158234,0.135639-0.180847,0.248669
			s-0.045227,0.293877-0.045227,0.565147v1.107689h-0.655548v-2.464046h0.610352v0.361698
			c0.226044-0.271271,0.474731-0.406906,0.813812-0.406906c0.13562,0,0.271271,0.022606,0.384308,0.067818
			c0.113007,0.045212,0.20343,0.113029,0.271271,0.203449c0.06781,0.090424,0.113007,0.180851,0.13562,0.271271
			c0.022614,0.113029,0.045227,0.248669,0.045227,0.429512v1.559814H473.188812z"/>
	</g>
</g>
</svg>
