<?xml version="1.0" encoding="utf-8"?>
<!-- Generator: Adobe Illustrator 27.2.0, SVG Export Plug-In . SVG Version: 6.00 Build 0)  -->
<svg version="1.1" id="Layer_1" xmlns="http://www.w3.org/2000/svg" xmlns:xlink="http://www.w3.org/1999/xlink" x="0px" y="0px"
	 viewBox="0 0 520 48.8" style="enable-background:new 0 0 520 48.8;" xml:space="preserve">
<style type="text/css">
	.st0{fill:#0066CC;}
	.st1{fill:#FFCC00;}
	.st2{fill:#034EA2;}
	.st3{fill:#FFF200;}
	.st4{fill:#FAA61A;}
	.st5{fill:#A6CE39;}
	.st6{fill:#4AB969;}
	.st7{fill:#00ACCD;}
	.st8{fill:#007DC5;}
	.st9{fill:#FFFFFF;}
	.st10{fill:#29333A;}
	.st11{fill-rule:evenodd;clip-rule:evenodd;fill:#0072CE;}
	.st12{fill-rule:evenodd;clip-rule:evenodd;fill:#FFFFFF;}
	.st13{fill-rule:evenodd;clip-rule:evenodd;}
	.st14{fill:#003399;}
</style>
<path class="st0" d="M60.6,8.2v13.6h-3.1V8.2H60.6z"/>
<path class="st0" d="M65.7,13.9v7.8h-3.1V8.2h2.8l2.2,3.3l2.9,4.5h0.2V8.2h3.2v13.6h-2.8l-2.8-4.1L65.9,14L65.7,13.9
	C65.7,14,65.7,13.9,65.7,13.9z"/>
<path class="st0" d="M80.8,21.7h-5.2V8.2h5.2c2.8,0,4.9,1.3,4.9,4.3v4.9C85.8,20.3,83.3,21.7,80.8,21.7z M82.6,13.1
	c0-1.5-1.2-2.1-2.1-2.1h-1.7v8h1.6c1,0,2.1-0.5,2.1-2.1L82.6,13.1L82.6,13.1z"/>
<path class="st0" d="M92.7,21.8c-2.7,0-5.3-1.4-5.3-4.4V8.2h3.1V17c0,1.5,1.2,2.1,2.1,2.1c1,0,2.1-0.5,2.1-2.1V8.2h3.1v9.2
	C98,20.4,95.3,21.8,92.7,21.8z"/>
<path class="st0" d="M104.5,21.8c-2,0-3.7-0.4-5.4-1.9l1.8-2.3c1.2,0.9,2.3,1.3,3.5,1.3c1.7,0,2.2-0.7,2.2-1.3c0-0.8-0.7-1.2-3-1.8
	c-2.5-0.7-3.9-1.6-3.9-3.9c0-2.5,2.1-4,4.9-4c1.5,0,3.1,0.2,4.7,1.3l-1.4,2.5c-1.3-0.8-2.3-0.9-3.4-0.9c-1,0-1.7,0.4-1.7,1.1
	c0,0.7,0.7,1.1,2.9,1.7c3.5,1,4,2.4,4,4.1C109.9,20.5,107.5,21.8,104.5,21.8z"/>
<path class="st0" d="M117.1,10.9v10.7H114V10.9h-3.5V8.2h10V11h-3.4V10.9z"/>
<path class="st0" d="M127.8,8.2c2.9,0,4.1,2.1,4.1,4.3c0,1.4-0.9,2.9-2.2,3.8l2.4,5.5h-3.3l-2.1-5h-2v5h-3.1V8.2H127.8z M124.9,14
	h2.3c1.2,0,1.6-0.7,1.6-1.5s-0.5-1.5-1.6-1.5h-2.3V14z"/>
<path class="st0" d="M137.9,13.4l1-2.3l1.3-2.9h3.3l-4.1,8.2v5.4h-3.1v-5.4l-4-8.2h3.3l1.3,3L137.9,13.4L137.9,13.4z"/>
<path class="st0" d="M150.7,13.9h1.5v-0.2c0-0.5-0.4-0.9-1.2-0.9c-0.5,0-1.2,0.1-2,0.6l-1.1-1.6c1.2-0.9,2.2-1.1,3.1-1.1
	c2,0,3.3,1,3.3,3.1v2.3c0,0.5,0.5,0.5,0.6,0.5c0.5,0,1.6-0.6,1.6-2.6c0-2.8-1.7-4.8-5.2-4.8c-3.7,0-6,2.5-6,5.4s2.1,5.5,5.5,5.5
	c0.6,0,1.3,0,2.5-0.4l0.6,1.8c-0.9,0.4-2.4,0.6-3.3,0.6c-4.6,0-7.4-3.2-7.4-7.3c0-4.2,3.3-7.4,8.1-7.4c4.9,0,7.3,3,7.3,6.8
	c0,2.6-1.7,4.7-4.1,4.7c-0.7,0-1.8-0.1-2.3-0.9c-0.8,0.5-1.7,0.8-2.2,0.8c-1.8,0-2.5-1.2-2.5-2.4C147.7,14.5,149.6,13.9,150.7,13.9z
	 M152.2,15.5h-1.4c-0.4,0-0.8,0.1-0.8,0.5c0,0.3,0.3,0.5,0.7,0.5c0.7,0,1.2-0.3,1.4-0.4L152.2,15.5L152.2,15.5z"/>
<path class="st0" d="M166.3,10.9v10.7h-3.1V10.9h-3.5V8.2h10V11h-3.4V10.9z"/>
<path class="st0" d="M177.1,19.1h-4.4l-0.8,2.7h-3.4l4.8-13.6h3.2l4.7,13.6h-3.3L177.1,19.1z M173.5,16.5h2.8l-0.3-0.9l-1.1-3.8l0,0
	l-1.1,3.8L173.5,16.5z"/>
<path class="st0" d="M182.5,21.7V8.2h3.1v10.7h6.4v2.8L182.5,21.7L182.5,21.7z"/>
<path class="st0" d="M193.1,21.7V8.2h3.1v10.7h6.4v2.8L193.1,21.7L193.1,21.7z"/>
<path class="st0" d="M207,8.2v13.6h-3.1V8.2H207z"/>
<path class="st0" d="M212.1,13.9v7.8H209V8.2h2.8l2.2,3.3l2.9,4.5h0.1V8.2h3.1v13.6h-2.8l-2.8-4.1L212.1,13.9L212.1,13.9L212.1,13.9
	z"/>
<path class="st0" d="M225.2,13.9v7.8h-3.1V8.2h2.8l2.2,3.3L230,16h0.1V8.2h3.1v13.6h-2.8l-2.8-4.1L225.2,13.9L225.2,13.9L225.2,13.9
	z"/>
<path class="st1" d="M68.2,39.6c0.8,0.7,1.8,1.3,2.9,1.9l-1.1,2c-1.2-0.4-2.9-1.5-3.8-2.4c-0.7,0.6-2.1,1.3-3.5,1.3
	c-2.4,0-4.4-1.5-4.4-4c0-1.8,1.3-3.1,2.7-3.9c-0.4-0.6-0.6-1.3-0.6-2.1c0-1.8,1.2-3.1,3-3.1s3.1,1.3,3.1,2.9c0,1.5-1.1,2.5-2.1,3.2
	c0.6,1,1.3,1.9,2.1,2.8c1.2-1.3,1.8-3.1,1.8-4.6c0-2.8-1.8-5.1-4.8-5.1c-2.8,0-4.5,1.7-4.5,3.7c0,0.7,0.1,1.5,0.8,2.6l-2,1.3
	c-0.9-1.3-1.2-2.6-1.2-3.7c0-3.1,2.6-6.1,6.8-6.1c4.6,0,7.2,3.3,7.2,7.3C70.7,35.5,69.8,37.8,68.2,39.6z M62.6,36.2
	c-0.9,0.5-1.7,1.2-1.7,2c0,1.2,0.7,1.8,1.8,1.8c0.6,0,1.3-0.2,2.1-0.6C64.1,38.6,63.1,37.1,62.6,36.2z M63.6,31.3
	c-0.4,0-0.6,0.4-0.6,0.8c0,0.4,0.2,0.6,0.4,1.1c0.6-0.4,0.9-0.7,0.9-1.2C64.4,31.7,64,31.3,63.6,31.3z"/>
<path class="st1" d="M84,42h-6.6V28.5h6.3c2.9,0,3.9,1.7,3.9,3.8c0,1-0.5,2.1-1.7,2.7c1.3,0.6,2,2.1,2,3C87.9,40.3,86.6,42,84,42z
	 M82.9,31.3h-2.3v2.5h2.3c1.1,0,1.5-0.5,1.5-1.2C84.4,31.8,84.1,31.3,82.9,31.3z M83,36.4h-2.5v2.9H83c1,0,1.5-0.5,1.5-1.4
	C84.6,37,84.1,36.4,83,36.4z"/>
<path class="st1" d="M96.9,39.3h-4.4L91.7,42h-3.4L93,28.4h3.2l4.7,13.6h-3.3L96.9,39.3z M93.4,36.8h2.8l-0.3-0.9l-1.1-3.8h-0.1
	l-1.1,3.7L93.4,36.8z"/>
<path class="st1" d="M102.3,42V28.5h3.1v10.7h6.4V42H102.3z"/>
<path class="st1" d="M117.2,31.3V42h-3.1V31.3h-3.5v-2.8h10v2.8H117.2z"/>
<path class="st1" d="M125.1,28.5v13.6H122V28.5H125.1z"/>
<path class="st1" d="M135.1,32.2c-0.9-0.8-1.9-1-2.7-1c-1,0-2.2,0.5-2.2,2.1v3.8c0,1.5,1.3,2.1,2.2,2.1c0.8,0,1.7-0.2,2.7-1l1.5,2.4
	c-1.1,0.9-2.7,1.3-4.3,1.3c-2.5,0-5.3-1.3-5.3-4.3v-5.1c0-2.9,2.7-4.4,5.3-4.4c1.6,0,3.3,0.4,4.3,1.3L135.1,32.2z"/>
<path class="st1" d="M142.6,28.5h9.5v2.8h-6.3v2.5h5.5v2.8h-5.5v2.7h6.3V42h-9.5V28.5z"/>
<path class="st1" d="M159.1,37.5l1.3-4.9l1.2-4.1h3.3L160.6,42h-3.2L153,28.4h3.3l1.3,4.2l1.3,4.8h0.2V37.5z"/>
<path class="st1" d="M166.1,28.5h9.5v2.8h-6.3v2.5h5.5v2.8h-5.5v2.7h6.3V42h-9.5V28.5z"/>
<path class="st1" d="M180.2,34.2V42h-3.1V28.5h2.8l2.2,3.3l2.9,4.5h0.1v-7.8h3.1v13.6h-2.8l-2.8-4.1L180.2,34.2L180.2,34.2
	L180.2,34.2z"/>
<path class="st1" d="M196,31.3V42h-3.1V31.3h-3.5v-2.8h10v2.8H196z"/>
<g>
	<g id="XMLID_00000018238116009917024300000018175453015894901125_">
		<path class="st1" d="M32,24.4h14.4c-0.9,5.1-3.3,10.2-7,14.4c-9.5,10.6-24.3,12.9-33.2,4.8C1,38.9-0.9,31.7,0.3,24.4h14.4
			c0,2.2,0.9,4.4,2.6,6.1c3.4,3.4,8.9,3.4,12.3,0C31.2,28.9,32,26.6,32,24.4z"/>
		<path class="st1" d="M19.8,24.4h7c0,0.9-0.4,1.7-1,2.4c-1.3,1.3-3.5,1.4-4.9,0C20.2,26.2,19.8,25.3,19.8,24.4z"/>
	</g>
	<g id="XMLID_00000172436888910342890510000010745209830598214540_">
		<path class="st0" d="M41,5.5c4.9,4.7,6.6,11.8,5.4,18.9H32c0-2.2-0.8-4.5-2.6-6.2c-3.4-3.4-8.9-3.4-12.3,0
			c-1.7,1.7-2.6,3.9-2.5,6.2H0.2c0.9-5.2,3.3-10.5,7.3-14.9C17.2-0.9,32.2-2.8,41,5.5z"/>
		<path class="st0" d="M25.8,22c0.7,0.7,1.1,1.6,1,2.5h-7c0-0.9,0.4-1.8,1-2.5C22.2,20.7,24.5,20.7,25.8,22z"/>
	</g>
</g>
<g>
	<g>
		<g>
			<rect x="297" y="1.9" class="st2" width="40" height="26.7"/>
			<g>
				<polygon class="st3" points="317,4.8 317.3,5.8 318.4,5.8 317.6,6.5 317.9,7.5 317,6.9 316.1,7.5 316.5,6.5 315.6,5.8 
					316.7,5.8 				"/>
			</g>
			<g>
				<polygon class="st3" points="312.6,6 312.9,7 314,7 313.1,7.7 313.4,8.7 312.6,8 311.7,8.7 312,7.7 311.2,7 312.2,7 				"/>
			</g>
			<g>
				<polygon class="st3" points="309.3,9.3 309.6,10.3 310.7,10.3 309.9,10.9 310.2,11.9 309.3,11.3 308.4,11.9 308.8,10.9 
					307.9,10.3 309,10.3 				"/>
			</g>
			<g>
				<polygon class="st3" points="308.1,13.7 308.5,14.7 309.5,14.7 308.6,15.4 309,16.4 308.1,15.7 307.3,16.4 307.6,15.4 
					306.7,14.7 307.8,14.7 				"/>
			</g>
			<g>
				<polygon class="st3" points="309.3,18.2 309.6,19.2 310.7,19.2 309.9,19.8 310.2,20.8 309.3,20.2 308.4,20.8 308.8,19.8 
					307.9,19.2 309,19.2 				"/>
			</g>
			<g>
				<polygon class="st3" points="312.6,21.4 312.9,22.4 314,22.4 313.1,23.1 313.4,24.1 312.6,23.5 311.7,24.1 312,23.1 311.2,22.4 
					312.2,22.4 				"/>
			</g>
			<g>
				<polygon class="st3" points="317,22.6 317.3,23.6 318.4,23.6 317.6,24.3 317.9,25.3 317,24.6 316.1,25.3 316.5,24.3 315.6,23.6 
					316.7,23.6 				"/>
			</g>
			<g>
				<polygon class="st3" points="321.5,21.4 321.8,22.4 322.9,22.4 322,23.1 322.3,24.1 321.5,23.5 320.6,24.1 320.9,23.1 
					320.1,22.4 321.1,22.4 				"/>
			</g>
			<g>
				<polygon class="st3" points="324.7,18.2 325,19.2 326.1,19.2 325.3,19.8 325.6,20.8 324.7,20.2 323.8,20.8 324.2,19.8 
					323.3,19.2 324.4,19.2 				"/>
			</g>
			<g>
				<polygon class="st3" points="325.9,13.7 326.2,14.7 327.3,14.7 326.4,15.4 326.8,16.4 325.9,15.7 325,16.4 325.4,15.4 
					324.5,14.7 325.6,14.7 				"/>
			</g>
			<g>
				<polygon class="st3" points="324.7,9.3 325,10.3 326.1,10.3 325.3,10.9 325.6,11.9 324.7,11.3 323.8,11.9 324.2,10.9 
					323.3,10.3 324.4,10.3 				"/>
			</g>
			<g>
				<polygon class="st3" points="321.5,6 321.8,7 322.9,7 322,7.7 322.3,8.7 321.5,8 320.6,8.7 320.9,7.7 320.1,7 321.1,7 				"/>
			</g>
		</g>
	</g>
	<g>
		<polyline class="st4" points="348.4,22.4 348.3,22.5 348.4,22.5 348.4,22.4 		"/>
		<polyline class="st4" points="343.9,23.7 343.9,23.7 342.6,23.7 342.6,22.5 342.7,22.5 342.6,22.4 342.6,24.6 342.6,23.7 
			343.9,23.7 		"/>
		<polyline class="st2" points="342.6,27.3 342.6,27.3 342.6,26.1 342.6,28.5 343.7,28.5 343.7,28.5 342.6,28.5 342.6,27.3 		"/>
		<polyline class="st2" points="348.4,23.7 348.4,23.7 347.2,23.7 347.2,23.7 348.4,23.7 		"/>
		<polyline class="st2" points="347.2,28.5 348.3,28.5 347.2,28.5 347.2,28.5 		"/>
		<polyline class="st2" points="349.6,28.5 351.7,28.5 349.6,28.5 349.6,28.5 		"/>
		<polygon class="st2" points="349.6,23.7 353.1,23.7 353.1,23.7 		"/>
		<polygon class="st2" points="359.8,28.5 361,28.5 361,28.5 		"/>
		<polygon class="st2" points="359.8,23.7 361,23.7 361,23.7 		"/>
		<polyline class="st4" points="363.8,22.4 363.8,22.5 363.9,22.5 363.8,22.4 		"/>
		<polyline class="st2" points="366.5,28.5 366.5,28.4 366.5,28.5 366.5,28.5 		"/>
		<polyline class="st2" points="363.3,23.7 364.4,23.7 364.4,23.7 363.3,23.7 363.3,23.7 		"/>
		<polyline class="st2" points="365.2,28.5 366,28.5 365.2,28.5 365.2,28.5 		"/>
		<polyline class="st2" points="361.2,28.5 362.5,28.5 362.5,28.5 361.2,28.5 361.2,28.5 		"/>
		<path class="st2" d="M354.2,28.5h1.7l0,0H354.2L354.2,28.5"/>
		<polyline class="st2" points="358.3,23.7 358.3,23.7 354.2,23.7 354.2,23.7 358.3,23.7 		"/>
		<polyline class="st2" points="366.5,28.5 366,28.5 366.5,28.5 366.5,28.5 		"/>
		<polyline class="st2" points="366,27.3 366.5,28.4 366,27.3 366,27.3 366,27.3 366,27.3 		"/>
		<polyline class="st4" points="342.6,27.3 342.6,27.3 342.6,27.3 342.6,28.5 343.7,28.5 343.8,27.3 342.6,27.3 		"/>
		<polyline class="st2" points="345.6,27.3 345.6,27.3 345.5,27.3 345.6,27.3 		"/>
		<polyline class="st4" points="348.4,27.3 347.2,27.3 347.2,28.5 348.4,28.5 348.4,27.3 		"/>
		<polyline class="st4" points="353.1,27.3 350.7,27.3 350.7,27.3 349.6,27.3 349.6,28.5 351.7,28.5 353.1,28.5 353.1,27.3 		"/>
		<polyline class="st4" points="359.8,27.3 359.8,28.5 361,28.5 361,27.3 359.8,27.3 		"/>
		<polyline class="st4" points="366.5,28.4 366,27.3 361.7,27.3 361.2,28.5 362.5,28.5 362.9,27.6 364.9,27.6 365.2,28.5 366,28.5 
			366.5,28.5 366.5,28.4 		"/>
		<path class="st4" d="M358.3,27.3H356l0,0h-1.8v1.2h1.8C356.9,28.5,357.8,28.1,358.3,27.3"/>
		<path class="st2" d="M355.4,27.3h0.6l0,0H355.4"/>
		<polyline class="st2" points="365.5,26.1 366,27.3 366,27.3 365.5,26.1 365.5,26.1 		"/>
		<polyline class="st5" points="344.4,26.1 345.5,27.3 345.6,27.3 346.6,26.1 344.4,26.1 		"/>
		<polyline class="st5" points="343.8,26.1 342.6,26.1 342.6,27.3 343.8,27.3 343.8,26.1 		"/>
		<polyline class="st5" points="347.2,26.1 347.2,27.3 348.4,27.3 348.4,26.1 347.2,26.1 		"/>
		<polyline class="st5" points="349.6,26.1 349.6,27.3 350.7,27.3 350.7,26.1 349.6,26.1 		"/>
		<polyline class="st5" points="359.8,26.1 359.8,27.3 361,27.3 361,26.1 359.8,26.1 		"/>
		<polyline class="st5" points="364.4,26.4 363.4,26.4 363.5,26.1 362.3,26.1 361.7,27.3 366,27.3 365.5,26.1 364.3,26.1 
			364.4,26.4 		"/>
		<path class="st5" d="M357.6,26.1c-0.2,0.7-0.9,1.2-1.6,1.2h2.3c0.3-0.4,0.4-0.8,0.5-1.2H357.6"/>
		<polyline class="st5" points="354.2,26.1 354.2,27.3 355.4,27.3 355.4,26.1 354.2,26.1 		"/>
		<polyline class="st2" points="366,27.3 366,27.3 366,27.3 366,27.3 366,27.3 		"/>
		<polygon class="st2" points="347.2,27.3 348.4,27.3 348.4,27.3 		"/>
		<polygon class="st2" points="342.6,27.3 343.7,27.3 343.7,27.3 		"/>
		<polyline class="st2" points="345.5,27.3 345.5,27.3 345.6,27.3 345.6,27.3 345.5,27.3 		"/>
		<polygon class="st2" points="349.6,27.3 350.7,27.3 350.7,27.3 		"/>
		<polygon class="st2" points="359.8,27.3 361,27.3 361,27.3 		"/>
		<polyline class="st2" points="361.7,27.3 361.7,27.3 366,27.3 366,27.3 361.7,27.3 		"/>
		<path class="st2" d="M356,27.3L356,27.3h2.3l0,0H356"/>
		<polygon class="st2" points="354.2,27.3 355.4,27.3 355.4,27.3 		"/>
		<path class="st2" d="M355.4,27.3L355.4,27.3h0.6l0,0H355.4"/>
		<polyline class="st2" points="365,24.9 365.5,26.1 365.5,26.1 365,24.9 365,24.9 365,24.9 		"/>
		<polyline class="st6" points="342.6,26.1 343.8,26.1 343.8,25.4 344.4,26.1 346.6,26.1 347.2,25.4 347.2,26.1 348.4,26.1 
			348.4,24.9 346.1,24.9 345.6,25.5 345,24.9 342.6,24.9 342.6,26.1 		"/>
		<polyline class="st6" points="350.7,26.1 353.1,26.1 353.1,24.9 349.6,24.9 349.6,26.1 350.7,26.1 350.7,26.1 		"/>
		<polyline class="st6" points="359.8,26.1 361,26.1 361,24.9 359.8,24.9 359.8,26.1 		"/>
		<polyline class="st6" points="362.3,26.1 363.5,26.1 363.8,25.1 364.3,26.1 365.5,26.1 365,24.9 362.8,24.9 362.3,26.1 		"/>
		<path class="st6" d="M358.9,24.9h-1.3c0.1,0.2,0.1,0.4,0.1,0.6s0,0.4-0.1,0.6h1.2c0-0.2,0.1-0.4,0.1-0.6
			C358.9,25.3,358.9,25.1,358.9,24.9"/>
		<polyline class="st6" points="354.2,24.9 354.2,26.1 355.4,26.1 355.4,24.9 354.2,24.9 		"/>
		<polyline class="st2" points="365.5,26.1 365.5,26.1 365.5,26.1 		"/>
		<polyline class="st2" points="347.2,26.1 348.4,26.1 347.2,26.1 		"/>
		<polyline class="st2" points="344.4,26.1 346.6,26.1 344.4,26.1 		"/>
		<polyline class="st2" points="342.6,26.1 343.8,26.1 342.6,26.1 		"/>
		<polyline class="st2" points="349.6,26.1 350.7,26.1 349.6,26.1 		"/>
		<polyline class="st2" points="359.8,26.1 361,26.1 359.8,26.1 		"/>
		<polyline class="st2" points="364.3,26.1 365.5,26.1 364.3,26.1 		"/>
		<polyline class="st2" points="363.5,26.1 363.5,26.1 362.3,26.1 363.5,26.1 		"/>
		<polyline class="st2" points="357.6,26.1 358.9,26.1 357.6,26.1 		"/>
		<polyline class="st2" points="354.2,26.1 355.4,26.1 354.2,26.1 		"/>
		<polyline class="st2" points="365,24.9 364.4,23.7 364.4,23.7 365,24.9 365,24.9 		"/>
		<polyline class="st7" points="345,24.9 343.9,23.7 342.6,23.7 342.6,24.6 342.6,24.9 345,24.9 		"/>
		<polyline class="st7" points="347.2,23.7 346.1,24.9 348.4,24.9 348.4,23.7 347.2,23.7 		"/>
		<polyline class="st7" points="353.1,24.9 350.7,24.9 350.7,23.7 353.1,23.7 353.1,23.7 349.6,23.7 349.6,24.9 353.1,24.9 
			353.1,24.9 		"/>
		<polyline class="st7" points="361,24.9 361,23.7 359.8,23.7 359.8,24.9 361,24.9 		"/>
		<polyline class="st7" points="362.8,24.9 365,24.9 364.4,23.7 363.3,23.7 362.8,24.9 		"/>
		<path class="st7" d="M355.4,24.9v-1.2h0.6c0.8,0,1.4,0.5,1.6,1.2h1.3c-0.1-0.4-0.3-0.9-0.5-1.2h-4.1v1.2H355.4"/>
		<polyline class="st2" points="365,24.9 365,24.9 365,24.9 365,24.9 365,24.9 		"/>
		<polyline class="st2" points="342.6,24.9 342.6,24.9 345,24.9 345,24.9 342.6,24.9 		"/>
		<polyline class="st2" points="346.1,24.9 346.1,24.9 348.4,24.9 348.4,24.9 346.1,24.9 		"/>
		<polygon class="st2" points="349.6,24.9 353.1,24.9 353.1,24.9 		"/>
		<polygon class="st2" points="359.8,24.9 361,24.9 361,24.9 		"/>
		<polyline class="st2" points="365,24.9 365,24.9 362.8,24.9 362.8,24.9 365,24.9 		"/>
		<polygon class="st2" points="354.2,24.9 355.4,24.9 355.4,24.9 		"/>
		<polyline class="st2" points="358.9,24.9 358.9,24.9 357.6,24.9 357.6,24.9 358.9,24.9 		"/>
		<polyline class="st2" points="364.4,23.7 363.9,22.5 363.9,22.5 364.4,23.7 364.4,23.7 		"/>
		<polyline class="st8" points="348.4,23.7 348.4,22.5 348.3,22.5 347.2,23.7 348.4,23.7 		"/>
		<polyline class="st8" points="342.6,23.7 343.9,23.7 342.7,22.5 342.6,22.5 342.6,23.7 		"/>
		<polyline class="st8" points="353.1,22.5 349.5,22.5 349.6,23.7 353.1,23.7 353.1,22.5 		"/>
		<polyline class="st8" points="361,22.5 359.8,22.5 359.8,23.7 361,23.7 361,22.5 		"/>
		<polyline class="st8" points="364.4,23.7 363.9,22.5 363.8,22.5 363.3,23.7 364.4,23.7 		"/>
		<path class="st8" d="M355.9,22.5h-1.7v1.2h4.1C357.8,23,356.9,22.5,355.9,22.5"/>
		<polyline class="st9" points="342.7,22.5 342.6,22.5 342.6,22.7 342.9,22.7 342.7,22.5 		"/>
		<polyline class="st9" points="348.4,22.7 348.4,22.5 348.3,22.5 348.1,22.7 348.4,22.7 		"/>
		<polyline class="st9" points="346.1,24.9 345.9,25.1 348.4,25.1 348.4,24.9 346.1,24.9 		"/>
		<polyline class="st9" points="345,24.9 342.6,24.9 342.6,25.1 345.2,25.1 345,24.9 		"/>
		<polyline class="st9" points="343.9,23.7 342.6,23.7 342.6,23.9 344,23.9 343.9,23.7 		"/>
		<polyline class="st9" points="348.4,23.7 347.2,23.7 347,23.9 348.4,23.9 348.4,23.7 		"/>
		<polyline class="st9" points="343.8,26.1 342.6,26.1 342.6,26.3 343.8,26.3 343.8,26.1 		"/>
		<polyline class="st9" points="346.6,26.1 344.4,26.1 344.6,26.3 346.4,26.3 346.6,26.1 		"/>
		<rect x="347.2" y="26.1" class="st9" width="1.2" height="0.2"/>
		<rect x="342.6" y="27.3" class="st9" width="1.2" height="0.2"/>
		<rect x="347.2" y="27.3" class="st9" width="1.2" height="0.2"/>
		<polyline class="st9" points="348.4,23.1 347.8,23.1 347.6,23.3 348.4,23.3 348.4,23.1 		"/>
		<polyline class="st9" points="343.3,23.1 342.6,23.1 342.6,23.3 343.5,23.3 343.3,23.1 		"/>
		<polyline class="st9" points="344.4,24.3 342.6,24.3 342.6,24.5 344.6,24.5 344.4,24.3 		"/>
		<polyline class="st9" points="348.4,24.3 346.6,24.3 346.5,24.5 348.4,24.5 348.4,24.3 		"/>
		<rect x="342.6" y="25.5" class="st9" width="1.2" height="0.2"/>
		<rect x="347.2" y="25.5" class="st9" width="1.2" height="0.2"/>
		<polyline class="st9" points="347,25.7 347.1,25.5 343.9,25.5 344,25.7 347,25.7 		"/>
		<rect x="342.6" y="26.7" class="st9" width="1.2" height="0.2"/>
		<polyline class="st9" points="346.1,26.7 345,26.7 345.1,26.9 345.9,26.9 346.1,26.7 		"/>
		<rect x="347.2" y="26.7" class="st9" width="1.2" height="0.2"/>
		<rect x="347.2" y="27.9" class="st9" width="1.2" height="0.2"/>
		<rect x="342.6" y="27.9" class="st9" width="1.2" height="0.2"/>
		<rect x="349.6" y="22.5" class="st9" width="3.5" height="0.2"/>
		<rect x="349.6" y="24.9" class="st9" width="3.5" height="0.2"/>
		<polyline class="st9" points="350.7,23.7 350.7,23.7 349.6,23.7 349.6,23.9 350.7,23.9 350.7,23.7 		"/>
		<polyline class="st9" points="350.7,26.3 350.7,26.1 350.7,26.1 350.7,26.1 349.6,26.1 349.6,26.3 350.7,26.3 		"/>
		<rect x="349.6" y="27.3" class="st9" width="3.5" height="0.2"/>
		<rect x="349.6" y="23.1" class="st9" width="3.5" height="0.2"/>
		<polyline class="st9" points="349.6,24.3 349.6,24.5 350.7,24.5 350.7,24.3 349.6,24.3 		"/>
		<rect x="349.6" y="25.5" class="st9" width="3.5" height="0.2"/>
		<rect x="349.6" y="26.7" class="st9" width="1.1" height="0.2"/>
		<polyline class="st9" points="349.6,27.9 349.6,28.1 353.1,28.1 353.1,27.9 349.6,27.9 		"/>
		<polyline class="st9" points="361,22.5 359.8,22.5 359.8,22.7 361,22.7 361,22.5 		"/>
		<rect x="359.8" y="24.9" class="st9" width="1.2" height="0.2"/>
		<rect x="359.8" y="23.7" class="st9" width="1.2" height="0.2"/>
		<rect x="359.8" y="26.1" class="st9" width="1.2" height="0.2"/>
		<rect x="359.8" y="27.3" class="st9" width="1.2" height="0.2"/>
		<polyline class="st9" points="361,23.3 361,23.1 359.8,23.1 359.8,23.3 361,23.3 		"/>
		<rect x="359.8" y="24.3" class="st9" width="1.2" height="0.2"/>
		<polyline class="st9" points="359.8,25.7 361,25.7 361,25.5 359.8,25.5 359.8,25.7 		"/>
		<polyline class="st9" points="359.8,26.9 361,26.9 361,26.7 359.8,26.7 359.8,26.9 		"/>
		<polyline class="st9" points="359.8,27.9 359.8,28.1 361,28.1 361,27.9 359.8,27.9 		"/>
		<polyline class="st9" points="364,22.7 363.9,22.5 363.8,22.5 363.7,22.7 364,22.7 		"/>
		<polyline class="st9" points="362.7,25.1 363.8,25.1 363.8,25.1 363.9,25.1 365,25.1 365,24.9 362.8,24.9 362.7,25.1 		"/>
		<polyline class="st9" points="363.2,23.9 364.5,23.9 364.4,23.7 363.3,23.7 363.2,23.9 		"/>
		<polyline class="st9" points="364.3,26.3 365.5,26.3 365.5,26.1 364.3,26.1 364.3,26.3 		"/>
		<polyline class="st9" points="362.3,26.1 362.2,26.3 363.4,26.3 363.5,26.1 362.3,26.1 		"/>
		<polyline class="st9" points="361.7,27.5 366.1,27.5 366,27.3 361.7,27.3 361.7,27.5 		"/>
		<polyline class="st9" points="363.5,23.3 364.2,23.3 364.2,23.1 363.5,23.1 363.5,23.3 		"/>
		<polyline class="st9" points="362.9,24.5 364.8,24.5 364.7,24.3 363,24.3 362.9,24.5 		"/>
		<polyline class="st9" points="363.6,25.7 363.7,25.5 362.5,25.5 362.4,25.7 363.6,25.7 		"/>
		<polyline class="st9" points="364.1,25.7 365.3,25.7 365.2,25.5 364,25.5 364.1,25.7 		"/>
		<polyline class="st9" points="361.9,26.9 365.8,26.9 365.7,26.7 362,26.7 361.9,26.9 		"/>
		<polyline class="st9" points="361.5,27.9 361.4,28.1 362.7,28.1 362.8,27.9 361.5,27.9 		"/>
		<polyline class="st9" points="365,27.9 365,28.1 366.3,28.1 366.3,27.9 365,27.9 		"/>
		<path class="st9" d="M355.9,22.5h-1.7v0.2h2.7C356.6,22.6,356.3,22.5,355.9,22.5"/>
		<rect x="354.2" y="24.9" class="st9" width="1.2" height="0.2"/>
		<path class="st9" d="M357.7,25.1h1.2c0-0.1,0-0.1,0-0.2h-1.3C357.6,25,357.7,25,357.7,25.1"/>
		<path class="st9" d="M358.4,23.9c0-0.1-0.1-0.1-0.1-0.2h-4.1v0.2H358.4"/>
		<polyline class="st9" points="355.4,26.1 354.2,26.1 354.2,26.3 355.4,26.3 355.4,26.1 		"/>
		<path class="st9" d="M357.6,26.3h1.3c0-0.1,0-0.1,0-0.2h-1.2C357.6,26.2,357.6,26.2,357.6,26.3"/>
		<path class="st9" d="M356.1,27.3H356h-0.6l0,0h-1.2v0.2h4c0-0.1,0.1-0.1,0.1-0.2H356.1"/>
		<path class="st9" d="M357.9,23.3c-0.1-0.1-0.1-0.1-0.2-0.2h-3.5v0.2H357.9"/>
		<polyline class="st9" points="355.4,24.3 354.2,24.3 354.2,24.5 355.4,24.5 355.4,24.3 		"/>
		<path class="st9" d="M357.4,24.5h1.3c0-0.1,0-0.1-0.1-0.2h-1.4C357.3,24.4,357.3,24.4,357.4,24.5"/>
		<rect x="354.2" y="25.5" class="st9" width="1.2" height="0.2"/>
		<path class="st9" d="M357.7,25.6v0.1h1.2v-0.1l0,0H357.7C357.7,25.5,357.7,25.5,357.7,25.6"/>
		<path class="st9" d="M357.3,26.7c0,0.1-0.1,0.1-0.2,0.2h1.5c0-0.1,0.1-0.1,0.1-0.2H357.3"/>
		<polyline class="st9" points="354.2,26.7 354.2,26.9 355.4,26.9 355.4,26.7 354.2,26.7 		"/>
		<path class="st9" d="M354.2,27.9v0.2h3.3c0.1,0,0.2-0.1,0.3-0.2H354.2"/>
		<path class="st9" d="M355.4,27.3h0.6h0.1H355.4L355.4,27.3"/>
		<polyline class="st2" points="343.3,22.5 343.2,22.5 343.2,22.7 343.5,22.7 343.3,22.5 		"/>
		<polyline class="st2" points="349,22.7 349,22.5 348.9,22.5 348.7,22.7 349,22.7 		"/>
		<polyline class="st2" points="346.7,24.9 346.5,25.1 349,25.1 349,24.9 346.7,24.9 		"/>
		<polyline class="st2" points="345.6,24.9 343.2,24.9 343.2,25.1 345.7,25.1 345.6,24.9 		"/>
		<polyline class="st2" points="344.4,23.7 343.2,23.7 343.2,23.9 344.6,23.9 344.4,23.7 		"/>
		<polyline class="st2" points="349,23.7 347.8,23.7 347.6,23.9 349,23.9 349,23.7 		"/>
		<rect x="343.2" y="26.1" class="st2" width="1.2" height="0.2"/>
		<polyline class="st2" points="347.2,26.1 345,26.1 345.2,26.3 347,26.3 347.2,26.1 		"/>
		<rect x="347.8" y="26.1" class="st2" width="1.2" height="0.2"/>
		<rect x="343.2" y="27.3" class="st2" width="1.2" height="0.2"/>
		<rect x="347.8" y="27.3" class="st2" width="1.2" height="0.2"/>
		<polyline class="st2" points="349,23.1 348.3,23.1 348.2,23.3 349,23.3 349,23.1 		"/>
		<polyline class="st2" points="343.9,23.1 343.2,23.1 343.2,23.3 344,23.3 343.9,23.1 		"/>
		<polyline class="st2" points="345,24.3 343.2,24.3 343.2,24.5 345.2,24.5 345,24.3 		"/>
		<polyline class="st2" points="349,24.3 347.2,24.3 347.1,24.5 349,24.5 349,24.3 		"/>
		<rect x="343.2" y="25.5" class="st2" width="1.2" height="0.2"/>
		<polyline class="st2" points="349,25.7 349,25.5 347.8,25.5 347.8,25.7 349,25.7 		"/>
		<polyline class="st2" points="347.5,25.7 347.7,25.5 344.4,25.5 344.6,25.7 347.5,25.7 		"/>
		<polyline class="st2" points="344.3,26.7 343.2,26.7 343.2,26.9 344.3,26.9 344.3,26.7 		"/>
		<polyline class="st2" points="346.6,26.7 345.6,26.7 345.7,26.9 346.5,26.9 346.6,26.7 		"/>
		<rect x="347.8" y="26.7" class="st2" width="1.2" height="0.2"/>
		<polyline class="st2" points="347.8,27.9 347.8,28.1 349,28.1 349,27.9 347.8,27.9 		"/>
		<rect x="343.2" y="27.9" class="st2" width="1.2" height="0.2"/>
		<rect x="350.1" y="22.5" class="st2" width="3.5" height="0.2"/>
		<rect x="350.1" y="24.9" class="st2" width="3.5" height="0.2"/>
		<polyline class="st2" points="351.3,23.7 351.3,23.7 350.1,23.7 350.1,23.9 351.3,23.9 351.3,23.7 		"/>
		<polyline class="st2" points="351.3,26.3 351.3,26.1 351.3,26.1 351.3,26.1 350.1,26.1 350.1,26.3 351.3,26.3 		"/>
		<polyline class="st2" points="350.1,27.3 350.1,27.5 353.6,27.5 353.6,27.3 350.1,27.3 		"/>
		<polyline class="st2" points="353.6,23.3 353.6,23.1 350.1,23.1 350.1,23.3 353.6,23.3 		"/>
		<polyline class="st2" points="350.1,24.3 350.1,24.5 351.3,24.5 351.3,24.3 350.1,24.3 		"/>
		<polyline class="st2" points="353.6,25.5 350.1,25.5 350.1,25.7 353.6,25.7 353.6,25.5 		"/>
		<rect x="350.1" y="26.7" class="st2" width="1.1" height="0.2"/>
		<polyline class="st2" points="350.1,27.9 350.1,28.1 353.6,28.1 353.6,27.9 350.1,27.9 		"/>
		<polyline class="st2" points="361.5,22.5 360.3,22.5 360.3,22.7 361.5,22.7 361.5,22.5 		"/>
		<rect x="360.3" y="24.9" class="st2" width="1.2" height="0.2"/>
		<rect x="360.3" y="23.7" class="st2" width="1.2" height="0.2"/>
		<rect x="360.3" y="26.1" class="st2" width="1.2" height="0.2"/>
		<rect x="360.3" y="27.3" class="st2" width="1.2" height="0.2"/>
		<rect x="360.3" y="23.1" class="st2" width="1.2" height="0.2"/>
		<rect x="360.3" y="24.3" class="st2" width="1.2" height="0.2"/>
		<rect x="360.3" y="25.5" class="st2" width="1.2" height="0.2"/>
		<rect x="360.3" y="26.7" class="st2" width="1.2" height="0.2"/>
		<rect x="360.3" y="27.9" class="st2" width="1.2" height="0.2"/>
		<polyline class="st2" points="364.6,22.7 364.5,22.5 364.4,22.5 364.3,22.7 364.6,22.7 		"/>
		<polyline class="st2" points="363.3,25.1 364.4,25.1 364.4,25.1 364.4,25.1 365.6,25.1 365.5,24.9 363.3,24.9 363.3,25.1 		"/>
		<polyline class="st2" points="363.8,23.9 365.1,23.9 365,23.7 363.8,23.7 363.8,23.9 		"/>
		<polyline class="st2" points="364.9,26.3 366.1,26.3 366,26.1 364.8,26.1 364.9,26.3 		"/>
		<polyline class="st2" points="362.8,26.1 362.8,26.3 364,26.3 364,26.1 362.8,26.1 		"/>
		<polyline class="st2" points="362.2,27.5 366.7,27.5 366.6,27.3 362.3,27.3 362.2,27.5 		"/>
		<polyline class="st2" points="364,23.3 364.8,23.3 364.7,23.1 364.1,23.1 364,23.3 		"/>
		<polyline class="st2" points="363.5,24.5 365.3,24.5 365.3,24.3 363.6,24.3 363.5,24.5 		"/>
		<polyline class="st2" points="364.2,25.7 364.2,25.5 363.1,25.5 363,25.7 364.2,25.7 		"/>
		<polyline class="st2" points="364.7,25.7 365.9,25.7 365.8,25.5 364.6,25.5 364.7,25.7 		"/>
		<polyline class="st2" points="362.5,26.9 366.4,26.9 366.3,26.7 362.6,26.7 362.5,26.9 		"/>
		<polyline class="st2" points="362.1,27.9 362,28.1 363.3,28.1 363.3,27.9 362.1,27.9 		"/>
		<polyline class="st2" points="365.5,27.9 365.6,28.1 366.9,28.1 366.8,27.9 365.5,27.9 		"/>
		<path class="st2" d="M356.5,22.5h-1.7v0.2h2.7C357.2,22.6,356.9,22.5,356.5,22.5"/>
		<rect x="354.8" y="24.9" class="st2" width="1.2" height="0.2"/>
		<path class="st2" d="M358.2,25.1h1.2c0-0.1,0-0.1,0-0.2h-1.3C358.2,25,358.2,25,358.2,25.1"/>
		<path class="st2" d="M359,23.9c0-0.1-0.1-0.1-0.1-0.2h-4.1v0.2H359"/>
		<polyline class="st2" points="356,26.1 354.8,26.1 354.8,26.3 356,26.3 356,26.1 		"/>
		<path class="st2" d="M358.1,26.3h1.3c0-0.1,0-0.1,0-0.2h-1.2C358.2,26.2,358.2,26.2,358.1,26.3"/>
		<path class="st2" d="M356.7,27.3h-0.1H356l0,0h-1.2v0.2h4c0-0.1,0.1-0.1,0.1-0.2H356.7"/>
		<path class="st2" d="M358.5,23.3c-0.1-0.1-0.1-0.1-0.2-0.2h-3.5v0.2H358.5"/>
		<rect x="354.8" y="24.3" class="st2" width="1.2" height="0.2"/>
		<path class="st2" d="M357.9,24.5h1.4c0-0.1,0-0.1-0.1-0.2h-1.5C357.8,24.4,357.9,24.4,357.9,24.5"/>
		<polyline class="st2" points="356,25.5 354.8,25.5 354.8,25.7 356,25.7 356,25.5 		"/>
		<path class="st2" d="M358.3,25.6v0.1h1.2v-0.1l0,0H358.3C358.3,25.5,358.3,25.5,358.3,25.6"/>
		<path class="st2" d="M357.9,26.7c0,0.1-0.1,0.1-0.2,0.2h1.5c0-0.1,0.1-0.1,0.1-0.2H357.9"/>
		<polyline class="st2" points="354.8,26.7 354.8,26.9 356,26.9 356,26.7 354.8,26.7 		"/>
		<path class="st2" d="M354.8,27.9v0.2h3.3c0.1,0,0.2-0.1,0.3-0.2H354.8"/>
		<path class="st2" d="M356,27.3h0.6h0.1H356L356,27.3"/>
	</g>
	<g>
		<path class="st10" d="M347.8,18.3c-0.2,0.1-0.3,0.1-0.4,0.2s-0.3,0.1-0.5,0.2s-0.4,0.1-0.6,0.1s-0.4,0.1-0.7,0.1
			c-0.5,0-0.9-0.1-1.3-0.2s-0.7-0.4-1-0.6s-0.5-0.6-0.7-1.1c-0.2-0.4-0.2-0.9-0.2-1.5c0-0.5,0.1-1,0.2-1.5s0.4-0.8,0.7-1.1
			s0.6-0.5,1-0.7s0.9-0.2,1.3-0.2s0.7,0,1.1,0.1s0.8,0.2,1.2,0.4v1.1h-0.1c-0.4-0.3-0.7-0.5-1.1-0.7c-0.4-0.1-0.8-0.2-1.2-0.2
			c-0.3,0-0.6,0-0.9,0.2c-0.3,0.1-0.5,0.3-0.7,0.5s-0.4,0.5-0.5,0.9c-0.1,0.3-0.2,0.7-0.2,1.2s0.1,0.9,0.2,1.2s0.3,0.6,0.5,0.8
			c0.2,0.2,0.4,0.4,0.7,0.5c0.3,0.1,0.6,0.2,0.9,0.2c0.4,0,0.8-0.1,1.2-0.2c0.4-0.1,0.7-0.4,1-0.7h0.1V18.3L347.8,18.3z"/>
		<path class="st10" d="M351.8,14.7L351.8,14.7c-0.2,0-0.3,0-0.4-0.1c-0.1,0-0.3,0-0.4,0c-0.3,0-0.5,0.1-0.8,0.2
			c-0.2,0.1-0.5,0.3-0.7,0.4v3.5h-0.9v-5h0.9v0.7c0.3-0.3,0.6-0.5,0.9-0.6s0.5-0.2,0.8-0.2c0.1,0,0.3,0,0.3,0c0.1,0,0.2,0,0.3,0
			L351.8,14.7L351.8,14.7z"/>
		<path class="st10" d="M356.6,16.3h-3.7c0,0.3,0,0.6,0.1,0.8s0.2,0.4,0.4,0.6c0.2,0.1,0.3,0.3,0.6,0.3c0.2,0.1,0.4,0.1,0.7,0.1
			c0.3,0,0.7-0.1,1-0.2c0.4-0.1,0.6-0.3,0.7-0.4l0,0v0.9c-0.3,0.1-0.6,0.2-0.9,0.3c-0.3,0.1-0.6,0.1-0.9,0.1c-0.8,0-1.5-0.2-1.9-0.7
			c-0.5-0.4-0.7-1.1-0.7-1.9c0-0.8,0.2-1.5,0.7-2c0.4-0.5,1-0.7,1.8-0.7c0.7,0,1.2,0.2,1.6,0.6c0.4,0.4,0.5,0.9,0.5,1.7L356.6,16.3
			L356.6,16.3z M355.8,15.7c0-0.4-0.1-0.8-0.3-1c-0.2-0.2-0.5-0.4-1-0.4s-0.8,0.1-1.1,0.4c-0.3,0.3-0.4,0.6-0.4,1
			C352.9,15.7,355.8,15.7,355.8,15.7z"/>
		<path class="st10" d="M361.5,18.8h-0.8v-0.5c-0.1,0-0.2,0.1-0.3,0.2c-0.1,0.1-0.3,0.2-0.4,0.2c-0.1,0.1-0.3,0.1-0.5,0.2
			c-0.2,0-0.4,0.1-0.6,0.1c-0.4,0-0.8-0.1-1.2-0.4c-0.3-0.3-0.5-0.7-0.5-1.1s0.1-0.7,0.2-0.9c0.2-0.2,0.4-0.4,0.7-0.5
			c0.3-0.1,0.7-0.2,1.1-0.3c0.4,0,0.9-0.1,1.4-0.1v-0.1c0-0.2,0-0.4-0.1-0.5s-0.2-0.2-0.3-0.3c-0.1-0.1-0.3-0.1-0.4-0.1
			c-0.2,0-0.3,0-0.5,0s-0.5,0-0.7,0.1c-0.3,0.1-0.5,0.1-0.9,0.3l0,0v-0.9c0.2,0,0.4-0.1,0.7-0.1c0.3,0,0.6-0.1,0.9-0.1
			c0.4,0,0.7,0,0.9,0.1c0.3,0.1,0.5,0.2,0.7,0.3s0.3,0.3,0.4,0.5s0.1,0.5,0.1,0.8L361.5,18.8L361.5,18.8z M360.7,17.5v-1.4
			c-0.3,0-0.6,0-0.9,0.1c-0.4,0-0.6,0.1-0.8,0.1c-0.2,0.1-0.4,0.2-0.6,0.3c-0.1,0.1-0.2,0.3-0.2,0.6c0,0.3,0.1,0.5,0.3,0.6
			c0.2,0.1,0.4,0.2,0.8,0.2c0.3,0,0.6-0.1,0.8-0.2C360.2,17.8,360.4,17.7,360.7,17.5z"/>
		<path class="st10" d="M365.4,18.7c-0.2,0-0.3,0.1-0.5,0.1s-0.4,0-0.5,0c-0.5,0-0.9-0.1-1.2-0.4c-0.3-0.3-0.4-0.7-0.4-1.3v-2.7
			h-0.6v-0.7h0.6v-1.4h0.9v1.4h1.7v0.7h-1.7v2.3c0,0.3,0,0.5,0,0.6s0,0.3,0.1,0.4s0.2,0.2,0.3,0.3c0.1,0,0.3,0.1,0.5,0.1
			c0.1,0,0.3,0,0.4-0.1c0.1,0,0.3-0.1,0.3-0.1l0,0L365.4,18.7L365.4,18.7z"/>
		<path class="st10" d="M367,12.9h-1V12h0.9v0.9H367z M366.9,18.8H366v-5h0.9V18.8z"/>
		<path class="st10" d="M372.6,13.8l-2,5h-0.9l-2-5h0.9l1.6,4l1.5-4L372.6,13.8z"/>
		<path class="st10" d="M377.4,16.3h-3.7c0,0.3,0,0.6,0.1,0.8s0.2,0.4,0.4,0.6c0.2,0.1,0.3,0.3,0.6,0.3c0.2,0.1,0.4,0.1,0.7,0.1
			c0.3,0,0.7-0.1,1-0.2c0.4-0.1,0.6-0.3,0.7-0.4l0,0v0.9c-0.3,0.1-0.6,0.2-0.9,0.3c-0.3,0.1-0.6,0.1-0.9,0.1c-0.8,0-1.5-0.2-1.9-0.7
			c-0.5-0.4-0.7-1.1-0.7-1.9c0-0.8,0.2-1.5,0.7-2c0.4-0.5,1-0.7,1.8-0.7c0.7,0,1.2,0.2,1.6,0.6c0.4,0.4,0.5,0.9,0.5,1.7L377.4,16.3
			L377.4,16.3z M376.6,15.7c0-0.4-0.1-0.8-0.3-1c-0.2-0.2-0.5-0.4-1-0.4s-0.8,0.1-1.1,0.4c-0.3,0.3-0.4,0.6-0.4,1
			C373.7,15.7,376.6,15.7,376.6,15.7z"/>
	</g>
	<g>
		<path class="st10" d="M385.6,18.6h-4.4V12h4.4v0.8h-3.5v1.8h3.5v0.8h-3.5v2.5h3.5V18.6z"/>
		<path class="st10" d="M390.7,18.6h-0.9V18c-0.3,0.2-0.6,0.4-0.8,0.5c-0.3,0.1-0.5,0.2-0.9,0.2c-0.5,0-0.9-0.2-1.2-0.5
			c-0.3-0.3-0.4-0.8-0.4-1.4v-3.2h0.9v2.9c0,0.3,0,0.5,0,0.7s0.1,0.3,0.2,0.5c0.1,0.1,0.2,0.2,0.3,0.3s0.3,0.1,0.6,0.1
			c0.2,0,0.4-0.1,0.7-0.2c0.3-0.1,0.5-0.3,0.7-0.4v-3.8h0.9L390.7,18.6L390.7,18.6z"/>
		<path class="st10" d="M395.1,14.5L395.1,14.5c-0.2,0-0.3,0-0.4-0.1c-0.1,0-0.3,0-0.4,0c-0.3,0-0.5,0.1-0.8,0.2s-0.5,0.3-0.7,0.4
			v3.5H392v-5h0.9v0.7c0.3-0.3,0.6-0.5,0.9-0.6s0.5-0.2,0.8-0.2c0.1,0,0.3,0,0.3,0c0.1,0,0.2,0,0.3,0L395.1,14.5L395.1,14.5z"/>
		<path class="st10" d="M400,16.1c0,0.8-0.2,1.5-0.6,1.9c-0.4,0.5-1,0.7-1.7,0.7s-1.3-0.2-1.7-0.7c-0.4-0.5-0.6-1.1-0.6-1.9
			c0-0.8,0.2-1.5,0.6-1.9s1-0.7,1.7-0.7s1.3,0.2,1.7,0.7C399.8,14.7,400,15.3,400,16.1z M399.2,16.1c0-0.6-0.1-1.1-0.4-1.4
			c-0.3-0.3-0.6-0.5-1.1-0.5c-0.4,0-0.8,0.2-1.1,0.5c-0.3,0.3-0.4,0.8-0.4,1.4c0,0.6,0.1,1.1,0.4,1.4s0.6,0.5,1.1,0.5
			c0.4,0,0.8-0.2,1.1-0.5C399.1,17.3,399.2,16.8,399.2,16.1z"/>
		<path class="st10" d="M405.5,16.1c0,0.4-0.1,0.8-0.2,1.1s-0.3,0.6-0.5,0.9c-0.2,0.2-0.4,0.4-0.7,0.5c-0.3,0.1-0.5,0.2-0.9,0.2
			c-0.3,0-0.5,0-0.7-0.1s-0.4-0.1-0.6-0.3v2.1H401v-6.9h0.9v0.5c0.2-0.2,0.5-0.4,0.8-0.5s0.6-0.2,0.9-0.2c0.6,0,1.1,0.2,1.4,0.7
			C405.3,14.6,405.5,15.3,405.5,16.1z M404.6,16.1c0-0.6-0.1-1.1-0.3-1.3c-0.2-0.3-0.5-0.4-0.9-0.4c-0.2,0-0.5,0-0.7,0.2
			c-0.2,0.1-0.5,0.2-0.7,0.4v2.8c0.2,0.1,0.4,0.2,0.6,0.2s0.4,0.1,0.6,0.1c0.5,0,0.8-0.2,1.1-0.5C404.5,17.2,404.6,16.7,404.6,16.1z
			"/>
		<path class="st10" d="M410.7,16.2H407c0,0.3,0,0.6,0.1,0.8c0.1,0.2,0.2,0.4,0.4,0.6c0.2,0.1,0.3,0.3,0.6,0.3
			c0.2,0.1,0.4,0.1,0.7,0.1c0.3,0,0.7-0.1,1-0.2c0.4-0.1,0.6-0.3,0.7-0.4l0,0v0.9c-0.3,0.1-0.6,0.2-0.9,0.3
			c-0.3,0.1-0.6,0.1-0.9,0.1c-0.8,0-1.5-0.2-1.9-0.7c-0.5-0.4-0.7-1.1-0.7-1.9c0-0.8,0.2-1.5,0.7-2c0.4-0.5,1-0.7,1.8-0.7
			c0.7,0,1.2,0.2,1.6,0.6c0.4,0.4,0.5,0.9,0.5,1.7L410.7,16.2L410.7,16.2z M409.9,15.6c0-0.4-0.1-0.8-0.3-1c-0.2-0.2-0.5-0.4-1-0.4
			s-0.8,0.1-1.1,0.4c-0.3,0.3-0.4,0.6-0.4,1C407,15.6,409.9,15.6,409.9,15.6z"/>
	</g>
	<g>
		<path class="st10" d="M347.8,8.7c-0.2,0.1-0.3,0.1-0.4,0.2s-0.3,0.1-0.5,0.2c-0.2,0.1-0.4,0.1-0.6,0.1s-0.4,0.1-0.7,0.1
			c-0.5,0-0.9-0.1-1.3-0.2c-0.4-0.1-0.7-0.4-1-0.6c-0.3-0.3-0.5-0.6-0.7-1.1c-0.2-0.4-0.2-0.9-0.2-1.5c0-0.5,0.1-1,0.2-1.5
			c0.2-0.4,0.4-0.8,0.7-1.1s0.6-0.5,1-0.7s0.9-0.2,1.3-0.2s0.7,0,1.1,0.1s0.8,0.2,1.2,0.4v1h-0.1c-0.4-0.3-0.7-0.5-1.1-0.7
			c-0.4-0.1-0.8-0.2-1.2-0.2c-0.3,0-0.6,0-0.9,0.2c-0.3,0.1-0.5,0.3-0.7,0.5s-0.4,0.5-0.5,0.9c-0.1,0.3-0.2,0.7-0.2,1.2
			s0.1,0.9,0.2,1.2s0.3,0.6,0.5,0.8c0.2,0.2,0.4,0.4,0.7,0.5c0.3,0.1,0.6,0.2,0.9,0.2c0.4,0,0.8-0.1,1.2-0.2s0.7-0.4,1-0.7h0.1V8.7
			L347.8,8.7z"/>
		<path class="st10" d="M353.1,6.7c0,1.9-1.3,2.7-2.5,2.7c-1.4,0-2.4-1-2.4-2.6c0-1.7,1.1-2.7,2.5-2.7
			C352.1,4.1,353.1,5.1,353.1,6.7z M349.1,6.7c0,1.1,0.6,1.9,1.5,1.9s1.5-0.8,1.5-2c0-0.9-0.4-1.9-1.5-1.9
			C349.5,4.8,349.1,5.8,349.1,6.7z"/>
		<path class="st10" d="M356.5,6.1v0.7h-2.6V6.1H356.5z"/>
		<path class="st10" d="M357.7,9.2V4.9H357V4.2h0.7V4c0-0.7,0.2-1.3,0.6-1.8c0.3-0.3,0.8-0.5,1.2-0.5c0.3,0,0.6,0.1,0.8,0.1
			l-0.1,0.7c-0.1-0.1-0.3-0.1-0.6-0.1c-0.8,0-1,0.7-1,1.5v0.3h1.2v0.7h-1.2v4.3L357.7,9.2z"/>
		<path class="st10" d="M364.8,7.9c0,0.5,0,1,0,1.4H364V8.5l0,0c-0.2,0.4-0.8,0.9-1.7,0.9c-0.8,0-1.7-0.4-1.7-2.2v-3h0.9V7
			c0,1,0.3,1.6,1.1,1.6c0.6,0,1-0.4,1.2-0.8c0-0.1,0.1-0.3,0.1-0.5V4.2h0.9V7.9L364.8,7.9z"/>
		<path class="st10" d="M366.3,5.6c0-0.5,0-0.9,0-1.4h0.8V5l0,0c0.3-0.5,0.8-0.9,1.7-0.9c0.7,0,1.8,0.4,1.8,2.2v3h-0.9v-3
			c0-0.8-0.3-1.5-1.2-1.5c-0.6,0-1.1,0.4-1.2,0.9c0,0.1-0.1,0.3-0.1,0.4v3h-0.9L366.3,5.6L366.3,5.6z"/>
		<path class="st10" d="M376.5,1.8v6.1c0,0.4,0,1,0,1.3h-0.8V8.3l0,0c-0.3,0.6-0.9,1-1.7,1c-1.2,0-2.2-1-2.2-2.6
			c0-1.7,1-2.7,2.3-2.7c0.8,0,1.3,0.4,1.5,0.8l0,0v-3C375.6,1.8,376.5,1.8,376.5,1.8z M375.6,6.2c0-0.1,0-0.3,0-0.4
			c-0.1-0.6-0.6-1.1-1.3-1.1c-0.9,0-1.5,0.8-1.5,1.9c0,1,0.5,1.9,1.5,1.9c0.6,0,1.2-0.4,1.3-1.1c0-0.1,0-0.3,0-0.4V6.2L375.6,6.2z"
			/>
		<path class="st10" d="M378.5,6.9c0,1.2,0.8,1.7,1.7,1.7c0.7,0,1.1-0.1,1.4-0.3l0.2,0.7c-0.3,0.1-0.9,0.3-1.7,0.3
			c-1.6,0-2.5-1-2.5-2.5s0.9-2.7,2.4-2.7c1.6,0,2.1,1.4,2.1,2.4c0,0.2,0,0.3,0,0.4L378.5,6.9L378.5,6.9z M381.2,6.2
			c0-0.6-0.2-1.5-1.3-1.5c-0.9,0-1.3,0.9-1.4,1.5H381.2z"/>
		<path class="st10" d="M387.6,1.8v6.1c0,0.4,0,1,0,1.3h-0.8V8.3l0,0c-0.3,0.6-0.9,1-1.7,1c-1.2,0-2.2-1-2.2-2.6
			c0-1.7,1-2.7,2.3-2.7c0.8,0,1.3,0.4,1.5,0.8l0,0v-3C386.7,1.8,387.6,1.8,387.6,1.8z M386.6,6.2c0-0.1,0-0.3,0-0.4
			c-0.1-0.6-0.6-1.1-1.3-1.1c-0.9,0-1.5,0.8-1.5,1.9c0,1,0.5,1.9,1.5,1.9c0.6,0,1.2-0.4,1.3-1.1c0-0.1,0-0.3,0-0.4V6.2L386.6,6.2z"
			/>
		<path class="st10" d="M391.3,9.2c0-0.3,0-0.9,0-1.3V1.8h0.9V5l0,0c0.3-0.6,0.9-0.9,1.7-0.9c1.3,0,2.1,1,2.1,2.6
			c0,1.8-1.1,2.7-2.3,2.7c-0.7,0-1.3-0.3-1.7-0.9l0,0v0.8L391.3,9.2L391.3,9.2z M392.2,7.2c0,0.1,0,0.2,0,0.3
			c0.2,0.6,0.7,1.1,1.4,1.1c1,0,1.5-0.8,1.5-1.9c0-1-0.5-1.9-1.5-1.9c-0.6,0-1.2,0.4-1.4,1.1c0,0.1,0,0.2,0,0.4V7.2L392.2,7.2z"/>
		<path class="st10" d="M397.5,4.2l1.1,3c0.1,0.3,0.2,0.7,0.3,1l0,0c0.1-0.3,0.2-0.7,0.3-1.1l1-3h1l-1.4,3.6
			c-0.7,1.7-1.1,2.6-1.7,3.2c-0.4,0.4-0.9,0.5-1.1,0.6l-0.2-0.8c0.2-0.1,0.5-0.2,0.8-0.4s0.6-0.5,0.8-1c0-0.1,0.1-0.2,0.1-0.2
			s0-0.1-0.1-0.2l-1.9-4.6L397.5,4.2L397.5,4.2z"/>
	</g>
</g>
<g>
	<g>
		<rect x="430.7" y="1.9" class="st2" width="39.9" height="26.6"/>
		<g>
			<polygon class="st3" points="450.7,4.8 451,5.8 452,5.8 451.2,6.5 451.5,7.5 450.7,6.8 449.8,7.5 450.1,6.5 449.2,5.8 450.3,5.8 
							"/>
		</g>
		<g>
			<polygon class="st3" points="446.2,6 446.5,7 447.6,7 446.8,7.6 447.1,8.7 446.2,8 445.3,8.7 445.7,7.6 444.8,7 445.9,7 			"/>
		</g>
		<g>
			<polygon class="st3" points="443,9.2 443.3,10.3 444.4,10.3 443.5,10.9 443.8,11.9 443,11.3 442.1,11.9 442.4,10.9 441.6,10.3 
				442.6,10.3 			"/>
		</g>
		<g>
			<polygon class="st3" points="441.8,13.7 442.1,14.7 443.2,14.7 442.3,15.3 442.6,16.3 441.8,15.7 440.9,16.3 441.3,15.3 
				440.4,14.7 441.5,14.7 			"/>
		</g>
		<g>
			<polygon class="st3" points="443,18.1 443.3,19.1 444.4,19.1 443.5,19.8 443.8,20.8 443,20.1 442.1,20.8 442.4,19.8 441.6,19.1 
				442.6,19.1 			"/>
		</g>
		<g>
			<polygon class="st3" points="446.2,21.4 446.5,22.4 447.6,22.4 446.8,23 447.1,24 446.2,23.4 445.3,24 445.7,23 444.8,22.4 
				445.9,22.4 			"/>
		</g>
		<g>
			<polygon class="st3" points="450.7,22.5 451,23.6 452,23.6 451.2,24.2 451.5,25.2 450.7,24.6 449.8,25.2 450.1,24.2 449.2,23.6 
				450.3,23.6 			"/>
		</g>
		<g>
			<polygon class="st3" points="455.1,21.4 455.4,22.4 456.5,22.4 455.6,23 455.9,24 455.1,23.4 454.2,24 454.6,23 453.7,22.4 
				454.7,22.4 			"/>
		</g>
		<g>
			<polygon class="st3" points="458.3,18.1 458.6,19.1 459.7,19.1 458.9,19.8 459.2,20.8 458.3,20.1 457.4,20.8 457.8,19.8 
				456.9,19.1 458,19.1 			"/>
		</g>
		<g>
			<polygon class="st3" points="459.5,13.7 459.8,14.7 460.9,14.7 460,15.3 460.4,16.3 459.5,15.7 458.6,16.3 459,15.3 458.1,14.7 
				459.2,14.7 			"/>
		</g>
		<g>
			<polygon class="st3" points="458.3,9.2 458.6,10.3 459.7,10.3 458.9,10.9 459.2,11.9 458.3,11.3 457.4,11.9 457.8,10.9 
				456.9,10.3 458,10.3 			"/>
		</g>
		<g>
			<polygon class="st3" points="455.1,6 455.4,7 456.5,7 455.6,7.6 455.9,8.7 455.1,8 454.2,8.7 454.6,7.6 453.7,7 454.7,7 			"/>
		</g>
	</g>
</g>
<g>
	<g id="Layer_1_00000098920834660516426910000006450713773821660555_">
		<g>
			<path class="st11" d="M506.2,6c3.6,0.3,6.8,1.5,9.7,3.3c0,0,0.1,0,0.2,0.1c-3.6-5.1-9.4-8.7-16.2-9.3c-5.9-0.5-11.6,1.3-15.8,4.7
				c3.3,0.7,6.1,2.3,8.3,4.6C496.4,6.8,501.2,5.5,506.2,6z"/>
			<path class="st12" d="M519.9,20.1L519.9,20.1L519.9,20.1L519.9,20.1z"/>
			<path class="st13" d="M519.9,20.3c0-0.1,0-0.4,0-0.4c-0.3-3.8-1.7-7.4-3.8-10.4c-0.1-0.1-0.2-0.1-0.2-0.1c-2.8-1.8-6.1-3-9.7-3.3
				c-5-0.5-9.8,0.8-13.8,3.3c2.5,2.6,4,5.9,4.4,9.6c0.1,0.9,0.1,1.9,0,2.8c-0.1,1.5-0.5,2.9-1,4.2c-0.9,2.4-2.4,4.5-4.3,6.2l0,0
				c7.3-4.2,16.4-6.1,25.3-4.7c-0.8,0.8-2,1.4-3,1.9c1.2-0.3,5.4-2,5.5-2.1l0,0l0,0C519.3,27.3,520.3,24.1,519.9,20.3z"/>
			<path class="st12" d="M519.6,19.8c-2.8-1.9-5.2-3.1-10.1-3.5c-3.8-0.3-7.4,0.3-10.6,1.6c0.1,0.9,0.1,1.8,0,2.8
				c-0.4,4.5-2.8,8.4-6.3,10.9c9-5.2,17.1-5.9,24.1-4.8c0.5,0.1,1.9,0.3,2.5,0.5C519.9,23.2,519.6,20.5,519.6,19.8z"/>
		</g>
		<g>
			<rect x="497.3" y="33.5" width="0.4" height="3.3"/>
			<path d="M498.5,36.8v-2.4h0.4v0.3c0.2-0.3,0.4-0.4,0.8-0.4c0.1,0,0.3,0,0.4,0.1c0.1,0,0.2,0.1,0.3,0.2c0.1,0.1,0.1,0.2,0.1,0.3
				s0,0.2,0,0.4v1.5h-0.4v-1.5c0-0.2,0-0.3,0-0.4c0-0.1-0.1-0.2-0.2-0.2s-0.2-0.1-0.3-0.1c-0.2,0-0.3,0-0.5,0.2
				c-0.1,0.1-0.2,0.3-0.2,0.6v1.3L498.5,36.8L498.5,36.8z"/>
			<path d="M501.8,36.8l-0.9-2.4h0.4l0.5,1.4c0,0.2,0.1,0.3,0.2,0.5c0-0.1,0.1-0.3,0.2-0.5l0.5-1.5h0.4l-0.9,2.4L501.8,36.8
				L501.8,36.8z"/>
			<path d="M505.1,36h0.4c-0.1,0.2-0.2,0.4-0.4,0.6s-0.4,0.2-0.7,0.2c-0.4,0-0.6-0.1-0.8-0.3c-0.2-0.2-0.3-0.5-0.3-0.9
				s0.1-0.7,0.3-0.9s0.5-0.3,0.8-0.3s0.6,0.1,0.8,0.3s0.3,0.5,0.3,0.9v0.1h-1.8c0,0.3,0.1,0.5,0.2,0.6s0.3,0.2,0.5,0.2
				s0.3,0,0.4-0.1S505,36.2,505.1,36L505.1,36z M503.7,35.4h1.3c0-0.2-0.1-0.4-0.2-0.5c-0.1-0.2-0.3-0.2-0.5-0.2s-0.3,0.1-0.5,0.2
				C503.8,35,503.7,35.2,503.7,35.4z"/>
			<path d="M505.8,36.1l0.4-0.1c0,0.2,0.1,0.3,0.2,0.4c0.1,0.1,0.2,0.1,0.4,0.1s0.3,0,0.4-0.1s0.1-0.2,0.1-0.3s0-0.2-0.1-0.2
				c0,0-0.2-0.1-0.4-0.1c-0.3-0.1-0.5-0.1-0.6-0.2c-0.1,0-0.2-0.1-0.3-0.2c-0.1-0.1-0.1-0.2-0.1-0.3s0-0.2,0.1-0.3
				c0-0.1,0.1-0.2,0.2-0.2s0.2-0.1,0.2-0.1c0.1,0,0.2,0,0.4,0c0.2,0,0.4,0,0.5,0.1c0.1,0,0.2,0.1,0.3,0.2c0.1,0.1,0.1,0.2,0.1,0.4
				h-0.4c0-0.1-0.1-0.2-0.2-0.3s-0.2-0.1-0.4-0.1c-0.2,0-0.3,0-0.4,0.1s-0.1,0.1-0.1,0.2v0.1c0,0,0.1,0.1,0.2,0.1c0,0,0.2,0,0.4,0.1
				c0.3,0.1,0.5,0.1,0.6,0.2s0.2,0.1,0.3,0.2c0.1,0.1,0.1,0.2,0.1,0.3s0,0.3-0.1,0.4c-0.1,0.1-0.2,0.2-0.3,0.3
				c-0.2,0.1-0.3,0.1-0.5,0.1c-0.3,0-0.5-0.1-0.7-0.2C506,36.5,505.9,36.3,505.8,36.1z"/>
			<path d="M509.2,36.4l0.1,0.4c-0.1,0-0.2,0-0.3,0c-0.2,0-0.3,0-0.3-0.1c-0.1,0-0.1-0.1-0.2-0.2c0-0.1,0-0.2,0-0.5v-1.4h-0.3v-0.3
				h0.3v-0.6l0.4-0.2v0.8h0.4v0.3h-0.4V36c0,0.1,0,0.2,0,0.2s0,0.1,0.1,0.1L509.2,36.4C509.1,36.4,509.1,36.4,509.2,36.4z"/>
			<path d="M509.6,33.9v-0.5h0.4v0.5H509.6L509.6,33.9z M509.6,36.8v-2.4h0.4v2.4H509.6z"/>
			<path d="M510.6,36.8v-2.4h0.4v0.3c0.2-0.3,0.4-0.4,0.8-0.4c0.1,0,0.3,0,0.4,0.1c0.1,0,0.2,0.1,0.3,0.2c0.1,0.1,0.1,0.2,0.1,0.3
				s0,0.2,0,0.4v1.5h-0.4v-1.5c0-0.2,0-0.3,0-0.4c0-0.1-0.1-0.2-0.2-0.2c-0.1,0-0.2-0.1-0.3-0.1c-0.2,0-0.3,0-0.5,0.2
				c-0.1,0.1-0.2,0.3-0.2,0.6v1.3L510.6,36.8L510.6,36.8z"/>
			<path d="M513.1,37l0.4,0.1c0,0.1,0.1,0.2,0.1,0.3c0.1,0.1,0.2,0.1,0.4,0.1s0.3,0,0.4-0.1c0.1-0.1,0.2-0.2,0.2-0.3s0-0.2,0-0.5
				c-0.2,0.2-0.4,0.3-0.7,0.3s-0.6-0.1-0.8-0.4c-0.2-0.2-0.3-0.5-0.3-0.9c0-0.2,0-0.5,0.1-0.6c0.1-0.2,0.2-0.3,0.4-0.5
				s0.3-0.2,0.6-0.2s0.5,0.1,0.7,0.3v-0.3h0.4v2.1c0,0.4,0,0.6-0.1,0.8s-0.2,0.3-0.4,0.4c-0.2,0.1-0.4,0.1-0.6,0.1
				c-0.3,0-0.5-0.1-0.7-0.2C513.2,37.4,513.1,37.3,513.1,37L513.1,37z M513.5,35.5c0,0.3,0.1,0.5,0.2,0.7c0.1,0.1,0.3,0.2,0.5,0.2
				s0.3-0.1,0.5-0.2c0.1-0.1,0.2-0.4,0.2-0.7s-0.1-0.5-0.2-0.7c-0.1-0.2-0.3-0.2-0.5-0.2s-0.3,0.1-0.5,0.2
				C513.5,35,513.5,35.3,513.5,35.5z"/>
			<path d="M493,38.7v-0.5h0.4v0.5H493L493,38.7z M493,41.5v-2.4h0.4v2.4H493z"/>
			<path d="M494,41.5v-2.4h0.4v0.3c0.2-0.3,0.4-0.4,0.8-0.4c0.1,0,0.3,0,0.4,0.1c0.1,0,0.2,0.1,0.3,0.2s0.1,0.2,0.1,0.3s0,0.2,0,0.4
				v1.5h-0.4V40c0-0.2,0-0.3,0-0.4c0-0.1-0.1-0.2-0.2-0.2s-0.2-0.1-0.3-0.1c-0.2,0-0.3,0-0.5,0.2c-0.1,0.1-0.2,0.3-0.2,0.6v1.3
				L494,41.5L494,41.5z"/>
			<path d="M497.9,42.4V42c0.1,0,0.2,0,0.2,0c0.1,0,0.2,0,0.2,0l0.1-0.1c0,0,0.1-0.1,0.1-0.3c0,0,0,0,0-0.1l-0.9-2.4h0.4l0.5,1.4
				c0.1,0.2,0.1,0.4,0.2,0.6c0-0.2,0.1-0.4,0.2-0.5l0.5-1.4h0.4l-0.9,2.4c-0.1,0.3-0.2,0.5-0.2,0.5c-0.1,0.1-0.2,0.2-0.2,0.3
				s-0.2,0.1-0.3,0.1C498,42.5,497.9,42.5,497.9,42.4z"/>
			<path d="M500,40.3c0-0.5,0.1-0.8,0.4-1c0.2-0.2,0.5-0.3,0.7-0.3c0.3,0,0.6,0.1,0.8,0.3c0.2,0.2,0.3,0.5,0.3,0.9
				c0,0.3,0,0.6-0.1,0.7c-0.1,0.2-0.2,0.3-0.4,0.4s-0.4,0.1-0.6,0.1c-0.3,0-0.6-0.1-0.8-0.3C500.1,41,500,40.7,500,40.3L500,40.3z
				 M500.5,40.3c0,0.3,0.1,0.5,0.2,0.7s0.3,0.2,0.5,0.2s0.4-0.1,0.5-0.2c0.1-0.2,0.2-0.4,0.2-0.7s-0.1-0.5-0.2-0.7s-0.3-0.2-0.5-0.2
				s-0.4,0.1-0.5,0.2C500.5,39.8,500.5,40,500.5,40.3z"/>
			<path d="M504.3,41.5v-0.4c-0.2,0.3-0.5,0.4-0.8,0.4c-0.1,0-0.3,0-0.4-0.1c-0.1,0-0.2-0.1-0.3-0.2c-0.1-0.1-0.1-0.2-0.1-0.3
				s0-0.2,0-0.4V39h0.4v1.3c0,0.2,0,0.4,0,0.4c0,0.1,0.1,0.2,0.2,0.2c0.1,0.1,0.2,0.1,0.3,0.1c0.1,0,0.2,0,0.3-0.1
				c0.1-0.1,0.2-0.2,0.2-0.2c0-0.1,0.1-0.3,0.1-0.5v-1.3h0.4v2.4L504.3,41.5L504.3,41.5z"/>
			<path d="M505.3,41.5v-2.4h0.4v0.4c0.1-0.2,0.2-0.3,0.2-0.3c0.1,0,0.2-0.1,0.3-0.1c0.1,0,0.3,0,0.4,0.1l-0.1,0.4
				c-0.1-0.1-0.2-0.1-0.3-0.1s-0.2,0-0.2,0.1c-0.1,0-0.1,0.1-0.2,0.2c0,0.1-0.1,0.3-0.1,0.5v1.3L505.3,41.5L505.3,41.5z"/>
			<path d="M508.3,41.5v-2.1h-0.4v-0.3h0.4v-0.2c0-0.2,0-0.3,0-0.4c0-0.1,0.1-0.2,0.2-0.2c0.1-0.1,0.2-0.1,0.4-0.1
				c0.1,0,0.2,0,0.4,0l-0.1,0.4c-0.1,0-0.2,0-0.2,0c-0.1,0-0.2,0-0.3,0.1c0,0-0.1,0.2-0.1,0.3v0.2h0.5v0.3h-0.5v2.1L508.3,41.5
				L508.3,41.5z"/>
			<path d="M511.1,41.5v-0.4c-0.2,0.3-0.5,0.4-0.8,0.4c-0.1,0-0.3,0-0.4-0.1c-0.1,0-0.2-0.1-0.3-0.2c-0.1-0.1-0.1-0.2-0.1-0.3
				s0-0.2,0-0.4V39h0.4v1.3c0,0.2,0,0.4,0,0.4c0,0.1,0.1,0.2,0.2,0.2c0.1,0.1,0.2,0.1,0.3,0.1c0.1,0,0.2,0,0.3-0.1
				c0.1-0.1,0.2-0.2,0.2-0.2c0-0.1,0.1-0.3,0.1-0.5v-1.3h0.4v2.4L511.1,41.5L511.1,41.5z"/>
			<path d="M512.9,41.1l0.1,0.4c-0.1,0-0.2,0-0.3,0c-0.2,0-0.3,0-0.3-0.1c-0.1,0-0.1-0.1-0.2-0.2c0-0.1,0-0.2,0-0.5v-1.4h-0.3V39
				h0.3v-0.6l0.4-0.2V39h0.4v0.3h-0.4v1.4c0,0.1,0,0.2,0,0.2s0,0.1,0.1,0.1h0.1C512.8,41.2,512.9,41.1,512.9,41.1z"/>
			<path d="M514.9,41.5v-0.4c-0.2,0.3-0.5,0.4-0.8,0.4c-0.1,0-0.3,0-0.4-0.1c-0.1,0-0.2-0.1-0.3-0.2s-0.1-0.2-0.1-0.3s0-0.2,0-0.4
				V39h0.4v1.3c0,0.2,0,0.4,0,0.4c0,0.1,0.1,0.2,0.2,0.2c0.1,0.1,0.2,0.1,0.3,0.1s0.2,0,0.3-0.1s0.2-0.2,0.2-0.2
				c0-0.1,0.1-0.3,0.1-0.5v-1.3h0.4v2.4L514.9,41.5L514.9,41.5z"/>
			<path d="M515.9,41.5v-2.4h0.4v0.4c0.1-0.2,0.2-0.3,0.2-0.3c0.1,0,0.2-0.1,0.3-0.1s0.3,0,0.4,0.1l-0.1,0.4
				c-0.1-0.1-0.2-0.1-0.3-0.1s-0.2,0-0.2,0.1c-0.1,0-0.1,0.1-0.2,0.2c0,0.1-0.1,0.3-0.1,0.5v1.3L515.9,41.5L515.9,41.5z"/>
			<path d="M519.1,40.7h0.4c-0.1,0.2-0.2,0.4-0.4,0.6c-0.2,0.1-0.4,0.2-0.7,0.2c-0.4,0-0.6-0.1-0.8-0.3s-0.3-0.5-0.3-0.9
				s0.1-0.7,0.3-0.9s0.5-0.3,0.8-0.3s0.6,0.1,0.8,0.3s0.3,0.5,0.3,0.9v0.1h-1.8c0,0.3,0.1,0.5,0.2,0.6c0.1,0.1,0.3,0.2,0.5,0.2
				s0.3,0,0.4-0.1C519,41,519.1,40.9,519.1,40.7L519.1,40.7z M517.8,40.1h1.3c0-0.2-0.1-0.4-0.2-0.5c-0.1-0.2-0.3-0.2-0.5-0.2
				s-0.3,0.1-0.5,0.2C517.9,39.7,517.8,39.9,517.8,40.1z"/>
		</g>
	</g>
	<g>
		<path class="st14" d="M437.5,34.7l0.7,0.2c-0.1,0.4-0.3,0.7-0.5,0.8c-0.2,0.2-0.5,0.3-0.9,0.3c-0.5,0-0.8-0.2-1.1-0.5
			c-0.3-0.3-0.4-0.7-0.4-1.3s0.1-1,0.4-1.3s0.7-0.5,1.2-0.5c0.4,0,0.7,0.1,1,0.4c0.2,0.1,0.3,0.4,0.3,0.6l-0.7,0.2
			c0-0.2-0.1-0.3-0.2-0.4c-0.1-0.1-0.3-0.2-0.5-0.2s-0.5,0.1-0.6,0.3c-0.2,0.2-0.2,0.5-0.2,0.9s0.1,0.7,0.2,0.9
			c0.2,0.2,0.4,0.3,0.6,0.3s0.3-0.1,0.5-0.2C437.4,35.1,437.5,35,437.5,34.7z"/>
		<path class="st14" d="M438.6,34.7c0-0.2,0-0.4,0.2-0.6c0.1-0.2,0.2-0.4,0.5-0.5c0.2-0.1,0.4-0.2,0.7-0.2c0.4,0,0.7,0.1,0.9,0.4
			c0.2,0.2,0.4,0.5,0.4,0.9s-0.1,0.7-0.4,0.9c-0.2,0.2-0.5,0.4-0.9,0.4c-0.2,0-0.5,0-0.7-0.2c-0.2-0.1-0.4-0.2-0.5-0.5
			C438.7,35.2,438.6,35,438.6,34.7z M439.3,34.7c0,0.2,0.1,0.4,0.2,0.6c0.1,0.1,0.2,0.2,0.4,0.2s0.3-0.1,0.4-0.2
			c0.1-0.1,0.2-0.3,0.2-0.6c0-0.2-0.1-0.4-0.2-0.6c-0.1-0.1-0.2-0.2-0.4-0.2s-0.3,0.1-0.4,0.2C439.3,34.3,439.3,34.5,439.3,34.7z"/>
		<path class="st14" d="M441.6,35v-0.6h1.3v0.7L441.6,35L441.6,35z"/>
		<path class="st14" d="M443,33.5h0.4v-0.2c0-0.2,0-0.4,0.1-0.5c0-0.1,0.1-0.2,0.2-0.2s0.3-0.1,0.5-0.1s0.4,0,0.5,0.1l-0.1,0.5
			c-0.1,0-0.2,0-0.3,0s-0.2,0-0.2,0.1c0,0-0.1,0.1-0.1,0.2v0.2h0.5V34H444v2h-0.7v-2H443V33.5z"/>
		<path class="st14" d="M446.4,36v-0.4c-0.1,0.1-0.2,0.2-0.4,0.3c-0.1,0.1-0.3,0.1-0.5,0.1s-0.3,0-0.5-0.1c-0.1-0.1-0.2-0.2-0.3-0.3
			c-0.1-0.1-0.1-0.3-0.1-0.5v-1.6h0.7v1.1c0,0.3,0,0.6,0,0.6c0,0.1,0.1,0.1,0.1,0.2s0.1,0.1,0.2,0.1s0.2,0,0.3-0.1s0.2-0.1,0.2-0.2
			s0-0.3,0-0.7v-1h0.7V36H446.4z"/>
		<path class="st14" d="M450,36h-0.7v-1.3c0-0.3,0-0.4,0-0.5s-0.1-0.1-0.1-0.2c-0.1,0-0.1-0.1-0.2-0.1s-0.2,0-0.3,0.1
			c-0.1,0.1-0.2,0.1-0.2,0.2c0,0.1,0,0.3,0,0.6v1.1h-0.7v-2.4h0.6v0.4c0.2-0.3,0.5-0.4,0.8-0.4c0.1,0,0.3,0,0.4,0.1s0.2,0.1,0.3,0.2
			c0.1,0.1,0.1,0.2,0.1,0.3s0,0.2,0,0.4L450,36L450,36z"/>
		<path class="st14" d="M452.9,36h-0.6v-0.4c-0.1,0.1-0.2,0.2-0.4,0.3c-0.1,0.1-0.3,0.1-0.4,0.1c-0.3,0-0.5-0.1-0.7-0.3
			s-0.3-0.5-0.3-0.9s0.1-0.7,0.3-0.9c0.2-0.2,0.5-0.3,0.7-0.3c0.3,0,0.5,0.1,0.7,0.3v-1.2h0.7L452.9,36L452.9,36z M451.1,34.7
			c0,0.3,0,0.5,0.1,0.6c0.1,0.2,0.2,0.2,0.4,0.2c0.2,0,0.3-0.1,0.4-0.2c0.1-0.1,0.2-0.3,0.2-0.6s0-0.5-0.2-0.6
			c-0.1-0.1-0.2-0.2-0.4-0.2c-0.2,0-0.3,0.1-0.4,0.2S451.1,34.4,451.1,34.7z"/>
		<path class="st14" d="M455,35.2l0.7,0.1c-0.1,0.2-0.2,0.4-0.4,0.5c-0.2,0.1-0.4,0.2-0.7,0.2c-0.4,0-0.7-0.1-0.9-0.4
			c-0.2-0.2-0.2-0.5-0.2-0.9s0.1-0.7,0.3-0.9c0.2-0.2,0.5-0.3,0.8-0.3c0.4,0,0.7,0.1,0.9,0.4c0.2,0.2,0.3,0.6,0.3,1.1H454
			c0,0.2,0.1,0.3,0.2,0.5s0.2,0.2,0.4,0.2c0.1,0,0.2,0,0.2-0.1C454.9,35.4,454.9,35.3,455,35.2z M455,34.5c0-0.2,0-0.3-0.1-0.4
			s-0.2-0.2-0.3-0.2c-0.1,0-0.2,0-0.4,0.2c-0.1,0.1-0.1,0.2-0.1,0.4H455z"/>
		<path class="st14" d="M458.4,36h-0.6v-0.4c-0.1,0.1-0.2,0.2-0.4,0.3c-0.1,0.1-0.3,0.1-0.4,0.1c-0.3,0-0.5-0.1-0.7-0.3
			s-0.3-0.5-0.3-0.9s0.1-0.7,0.3-0.9c0.2-0.2,0.5-0.3,0.7-0.3c0.3,0,0.5,0.1,0.7,0.3v-1.2h0.7L458.4,36L458.4,36z M456.7,34.7
			c0,0.3,0,0.5,0.1,0.6c0.1,0.2,0.2,0.2,0.4,0.2c0.2,0,0.3-0.1,0.4-0.2c0.1-0.1,0.2-0.3,0.2-0.6s0-0.5-0.2-0.6
			c-0.1-0.1-0.2-0.2-0.4-0.2c-0.2,0-0.3,0.1-0.4,0.2S456.7,34.4,456.7,34.7z"/>
		<path class="st14" d="M460.4,36v-3.4h0.7v1.2c0.2-0.2,0.4-0.3,0.7-0.3s0.5,0.1,0.7,0.3s0.3,0.5,0.3,0.9s-0.1,0.7-0.3,1
			c-0.2,0.2-0.5,0.3-0.7,0.3c-0.1,0-0.3,0-0.4-0.1s-0.2-0.2-0.4-0.3V36H460.4L460.4,36z M461,34.7c0,0.2,0,0.5,0.1,0.6
			c0.1,0.2,0.3,0.2,0.5,0.2c0.1,0,0.3-0.1,0.4-0.2s0.2-0.3,0.2-0.6s0-0.5-0.2-0.6c-0.1-0.1-0.2-0.2-0.4-0.2s-0.3,0.1-0.4,0.2
			C461.1,34.3,461,34.4,461,34.7z"/>
		<path class="st14" d="M463,33.5h0.7l0.6,1.7l0.6-1.7h0.7l-0.9,2.4l-0.2,0.4c-0.1,0.1-0.1,0.2-0.2,0.3c0,0.1-0.1,0.1-0.2,0.2
			c-0.1,0-0.2,0.1-0.2,0.1c-0.1,0-0.2,0-0.3,0c-0.1,0-0.2,0-0.4,0l-0.1-0.5c0.1,0,0.2,0,0.3,0c0.2,0,0.3,0,0.3-0.1
			c0.1-0.1,0.1-0.2,0.2-0.3L463,33.5z"/>
		<path class="st14" d="M429.9,39.2v0.5h-0.5v1c0,0.2,0,0.3,0,0.4c0,0,0,0.1,0.1,0.1h0.1c0.1,0,0.2,0,0.3-0.1v0.5
			c-0.2,0.1-0.3,0.1-0.5,0.1c-0.1,0-0.2,0-0.3-0.1s-0.2-0.1-0.2-0.2c0-0.1-0.1-0.2-0.1-0.2c0-0.1,0-0.2,0-0.5v-1.1h-0.3v-0.5h0.3
			v-0.5l0.7-0.4v0.9L429.9,39.2L429.9,39.2z"/>
		<path class="st14" d="M431,38.3v1.2c0.2-0.2,0.5-0.4,0.7-0.4s0.3,0,0.4,0.1s0.2,0.1,0.3,0.2c0.1,0.1,0.1,0.2,0.1,0.3s0,0.3,0,0.5
			v1.4h-0.7v-1.3c0-0.2,0-0.4,0-0.5s-0.1-0.1-0.1-0.2c-0.1,0-0.1-0.1-0.2-0.1s-0.2,0-0.3,0.1s-0.2,0.1-0.2,0.2
			c0,0.1-0.1,0.3-0.1,0.5v1.2h-0.7v-3.4L431,38.3L431,38.3z"/>
		<path class="st14" d="M434.6,40.9l0.7,0.1c-0.1,0.2-0.2,0.4-0.4,0.5c-0.2,0.1-0.4,0.2-0.7,0.2c-0.4,0-0.7-0.1-0.9-0.4
			c-0.2-0.2-0.2-0.5-0.2-0.9s0.1-0.7,0.3-0.9c0.2-0.2,0.5-0.3,0.8-0.3c0.4,0,0.7,0.1,0.9,0.4c0.2,0.2,0.3,0.6,0.3,1.1h-1.6
			c0,0.2,0.1,0.3,0.2,0.5s0.2,0.2,0.4,0.2c0.1,0,0.2,0,0.2-0.1C434.6,41.1,434.6,41,434.6,40.9z M434.7,40.2c0-0.2,0-0.3-0.1-0.4
			c-0.1-0.1-0.2-0.2-0.3-0.2c-0.1,0-0.2,0-0.4,0.2s-0.1,0.2-0.1,0.4H434.7z"/>
		<path class="st14" d="M437.2,41.7v-3.4h2.5v0.6h-1.8v0.7h1.7v0.6h-1.7v0.9h1.9v0.6L437.2,41.7L437.2,41.7z"/>
		<path class="st14" d="M442,41.7v-0.4c-0.1,0.1-0.2,0.2-0.4,0.3c-0.1,0.1-0.3,0.1-0.5,0.1s-0.3,0-0.5-0.1c-0.1-0.1-0.2-0.2-0.3-0.3
			c-0.1-0.1-0.1-0.3-0.1-0.5v-1.6h0.7v1.1c0,0.3,0,0.6,0,0.6c0,0.1,0.1,0.1,0.1,0.2c0.1,0,0.1,0.1,0.2,0.1s0.2,0,0.3-0.1
			c0.1-0.1,0.2-0.1,0.2-0.2c0-0.1,0-0.3,0-0.7v-1h0.7v2.5L442,41.7L442,41.7z"/>
		<path class="st14" d="M443.9,41.7h-0.7v-2.5h0.6v0.3c0.1-0.2,0.2-0.3,0.3-0.3c0.1,0,0.2-0.1,0.3-0.1c0.2,0,0.3,0,0.4,0.1l-0.2,0.6
			c-0.1-0.1-0.2-0.1-0.3-0.1c-0.1,0-0.2,0-0.2,0.1c-0.1,0-0.1,0.1-0.2,0.3c0,0.1,0,0.4,0,0.8L443.9,41.7L443.9,41.7z"/>
		<path class="st14" d="M445,40.4c0-0.2,0-0.4,0.2-0.6c0.1-0.2,0.2-0.4,0.5-0.5s0.4-0.2,0.7-0.2c0.4,0,0.7,0.1,0.9,0.4
			c0.2,0.2,0.4,0.5,0.4,0.9s-0.1,0.7-0.4,0.9c-0.2,0.2-0.5,0.4-0.9,0.4c-0.2,0-0.5,0-0.7-0.2c-0.2-0.1-0.4-0.2-0.5-0.5
			C445,40.9,445,40.7,445,40.4z M445.6,40.4c0,0.2,0.1,0.4,0.2,0.6c0.1,0.1,0.2,0.2,0.4,0.2s0.3-0.1,0.4-0.2s0.2-0.3,0.2-0.6
			c0-0.2-0.1-0.4-0.2-0.6c-0.1-0.1-0.2-0.2-0.4-0.2s-0.3,0.1-0.4,0.2C445.7,40,445.6,40.2,445.6,40.4z"/>
		<path class="st14" d="M448,39.2h0.6v0.4c0.1-0.1,0.2-0.2,0.3-0.3c0.1-0.1,0.3-0.1,0.5-0.1c0.3,0,0.5,0.1,0.7,0.3s0.3,0.5,0.3,0.9
			s-0.1,0.7-0.3,0.9s-0.5,0.3-0.7,0.3c-0.1,0-0.2,0-0.4-0.1c-0.1,0-0.2-0.1-0.3-0.3v1.2H448V39.2L448,39.2z M448.6,40.4
			c0,0.3,0,0.5,0.2,0.6c0.1,0.1,0.2,0.2,0.4,0.2s0.3-0.1,0.4-0.2c0.1-0.1,0.2-0.3,0.2-0.6c0-0.2,0-0.5-0.2-0.6
			c-0.1-0.1-0.2-0.2-0.4-0.2s-0.3,0.1-0.4,0.2C448.7,40,448.6,40.2,448.6,40.4z"/>
		<path class="st14" d="M452.3,40.9L453,41c-0.1,0.2-0.2,0.4-0.4,0.5c-0.2,0.1-0.4,0.2-0.7,0.2c-0.4,0-0.7-0.1-0.9-0.4
			c-0.2-0.2-0.2-0.5-0.2-0.9s0.1-0.7,0.3-0.9c0.2-0.2,0.5-0.3,0.8-0.3c0.4,0,0.7,0.1,0.9,0.4c0.2,0.2,0.3,0.6,0.3,1.1h-1.6
			c0,0.2,0.1,0.3,0.2,0.5s0.2,0.2,0.4,0.2c0.1,0,0.2,0,0.2-0.1C452.2,41.1,452.3,41,452.3,40.9z M452.4,40.2c0-0.2,0-0.3-0.1-0.4
			c-0.1-0.1-0.2-0.2-0.3-0.2c-0.1,0-0.2,0-0.4,0.2s-0.1,0.2-0.1,0.4H452.4z"/>
		<path class="st14" d="M454,39.9l-0.6-0.1c0.1-0.2,0.2-0.4,0.3-0.5c0.2-0.1,0.4-0.2,0.7-0.2c0.3,0,0.5,0,0.7,0.1
			c0.1,0.1,0.2,0.2,0.3,0.3c0.1,0.1,0.1,0.3,0.1,0.6v0.8c0,0.2,0,0.4,0,0.5s0.1,0.2,0.1,0.3H455c0,0,0-0.1-0.1-0.2v-0.1
			c-0.1,0.1-0.2,0.2-0.4,0.2c-0.1,0-0.3,0.1-0.4,0.1c-0.2,0-0.5-0.1-0.6-0.2c-0.1-0.1-0.2-0.3-0.2-0.5c0-0.1,0-0.3,0.1-0.4
			c0.1-0.1,0.2-0.2,0.3-0.2c0.1-0.1,0.3-0.1,0.5-0.2c0.3-0.1,0.5-0.1,0.6-0.2l0,0c0-0.1,0-0.2-0.1-0.3c-0.1,0-0.2-0.1-0.3-0.1
			c-0.1,0-0.2,0-0.3,0.1C454.1,39.7,454.1,39.8,454,39.9z M454.9,40.5c-0.1,0-0.2,0.1-0.4,0.1c-0.2,0-0.3,0.1-0.4,0.1
			c-0.1,0.1-0.1,0.1-0.1,0.2c0,0.1,0,0.2,0.1,0.2s0.2,0.1,0.2,0.1c0.1,0,0.2,0,0.3-0.1c0.1-0.1,0.1-0.1,0.2-0.2
			C454.9,40.8,454.9,40.7,454.9,40.5L454.9,40.5L454.9,40.5z"/>
		<path class="st14" d="M458.4,41.7h-0.7v-1.3c0-0.3,0-0.4,0-0.5s-0.1-0.1-0.1-0.2c-0.1,0-0.1-0.1-0.2-0.1s-0.2,0-0.3,0.1
			c-0.1,0.1-0.2,0.1-0.2,0.2c0,0.1,0,0.3,0,0.6v1.1h-0.7v-2.5h0.6v0.4c0.2-0.3,0.5-0.4,0.8-0.4c0.1,0,0.3,0,0.4,0.1s0.2,0.1,0.3,0.2
			c0.1,0.1,0.1,0.2,0.1,0.3s0,0.2,0,0.4L458.4,41.7L458.4,41.7z"/>
		<path class="st14" d="M460.4,38.3h0.7v1.8c0,0.3,0,0.5,0,0.6s0.1,0.2,0.2,0.3s0.3,0.1,0.5,0.1s0.3,0,0.4-0.1s0.2-0.2,0.2-0.3
			s0-0.3,0-0.6v-1.9h0.7V40c0,0.4,0,0.7,0,0.9s-0.1,0.3-0.2,0.4s-0.2,0.2-0.4,0.3c-0.2,0.1-0.4,0.1-0.7,0.1c-0.3,0-0.6,0-0.7-0.1
			c-0.2-0.1-0.3-0.2-0.4-0.3s-0.2-0.2-0.2-0.4s-0.1-0.5-0.1-0.9V38.3L460.4,38.3z"/>
		<path class="st14" d="M466.1,41.7h-0.7v-1.3c0-0.3,0-0.4,0-0.5s-0.1-0.1-0.1-0.2c-0.1,0-0.1-0.1-0.2-0.1s-0.2,0-0.3,0.1
			c-0.1,0.1-0.2,0.1-0.2,0.2s0,0.3,0,0.6v1.1h-0.7v-2.5h0.6v0.4c0.2-0.3,0.5-0.4,0.8-0.4c0.1,0,0.3,0,0.4,0.1s0.2,0.1,0.3,0.2
			c0.1,0.1,0.1,0.2,0.1,0.3s0,0.2,0,0.4L466.1,41.7L466.1,41.7z"/>
		<path class="st14" d="M466.7,38.9v-0.6h0.7v0.6H466.7z M466.7,41.7v-2.5h0.7v2.5H466.7z"/>
		<path class="st14" d="M467.9,40.4c0-0.2,0-0.4,0.2-0.6c0.1-0.2,0.2-0.4,0.5-0.5c0.2-0.1,0.4-0.2,0.7-0.2c0.4,0,0.7,0.1,0.9,0.4
			c0.2,0.2,0.4,0.5,0.4,0.9s-0.1,0.7-0.4,0.9c-0.2,0.2-0.5,0.4-0.9,0.4c-0.2,0-0.5,0-0.7-0.2s-0.4-0.2-0.5-0.5
			C467.9,40.9,467.9,40.7,467.9,40.4z M468.6,40.4c0,0.2,0.1,0.4,0.2,0.6s0.2,0.2,0.4,0.2s0.3-0.1,0.4-0.2c0.1-0.1,0.2-0.3,0.2-0.6
			c0-0.2-0.1-0.4-0.2-0.6c-0.1-0.1-0.2-0.2-0.4-0.2s-0.3,0.1-0.4,0.2C468.6,40,468.6,40.2,468.6,40.4z"/>
		<path class="st14" d="M473.2,41.7h-0.7v-1.3c0-0.3,0-0.4,0-0.5s-0.1-0.1-0.1-0.2s-0.1-0.1-0.2-0.1s-0.2,0-0.3,0.1
			c-0.1,0.1-0.2,0.1-0.2,0.2s0,0.3,0,0.6v1.1H471v-2.5h0.6v0.4c0.2-0.3,0.5-0.4,0.8-0.4c0.1,0,0.3,0,0.4,0.1c0.1,0,0.2,0.1,0.3,0.2
			c0.1,0.1,0.1,0.2,0.1,0.3s0,0.2,0,0.4L473.2,41.7L473.2,41.7z"/>
	</g>
</g>
<path class="st0" d="M223.5,36.1v-0.9h4.3v0.9H223.5z"/>
<path class="st0" d="M234.9,29.5c0.5,0.6,0.8,1.4,0.8,2.4c0,0.8-0.1,1.6-0.4,2.4c-0.3,0.7-0.7,1.6-1.4,2.5c-0.6,0.9-1.6,2.3-3,4.1
	h5.1l-0.2,1h-6.1V41c1.4-1.8,2.4-3.2,3.1-4.2c0.7-1,1.1-1.8,1.4-2.5c0.3-0.7,0.4-1.4,0.4-2.2s-0.2-1.3-0.5-1.8
	c-0.4-0.4-0.8-0.6-1.4-0.6c-0.5,0-0.9,0.1-1.3,0.4c-0.4,0.2-0.7,0.6-1.1,1.1l-0.7-0.5c0.4-0.6,0.9-1.1,1.4-1.4s1.1-0.4,1.7-0.4
	C233.6,28.6,234.4,28.9,234.9,29.5z"/>
<path class="st0" d="M242.4,29.5c0.5,0.6,0.8,1.4,0.8,2.4c0,0.8-0.1,1.6-0.4,2.4c-0.3,0.7-0.7,1.6-1.4,2.5c-0.6,0.9-1.6,2.3-3,4.1
	h5.1l-0.2,1h-6.1V41c1.4-1.8,2.4-3.2,3.1-4.2c0.7-1,1.1-1.8,1.4-2.5c0.3-0.7,0.4-1.4,0.4-2.2s-0.2-1.3-0.5-1.8
	c-0.4-0.4-0.8-0.6-1.4-0.6c-0.5,0-0.9,0.1-1.3,0.4c-0.4,0.2-0.7,0.6-1.1,1.1l-0.7-0.5c0.4-0.6,0.9-1.1,1.4-1.4s1.1-0.4,1.7-0.4
	C241.2,28.6,241.9,28.9,242.4,29.5z"/>
<path class="st0" d="M256.8,41.8h-1.5l-5-12.1c0.1,1.2,0.2,2.7,0.2,4.5v7.6h-1.1V28.4h1.5l4.9,12.1c-0.1-1.6-0.2-2.9-0.2-3.9v-8.2
	h1.1v13.4C256.7,41.8,256.8,41.8,256.8,41.8z"/>
<path class="st0" d="M267.4,29.9c0.8,1.2,1.2,2.9,1.2,5.2s-0.4,4-1.2,5.1c-0.8,1.2-1.9,1.7-3.3,1.7s-2.5-0.6-3.3-1.7
	c-0.8-1.2-1.2-2.9-1.2-5.1c0-2.3,0.4-4,1.2-5.2c0.8-1.2,1.9-1.8,3.3-1.8C265.4,28.2,266.6,28.8,267.4,29.9z M261.6,30.6
	c-0.6,1-0.9,2.5-0.9,4.5s0.3,3.5,0.9,4.5S263,41,264,41c1.1,0,1.9-0.5,2.5-1.4s0.9-2.4,0.9-4.5c0-4-1.1-5.9-3.3-5.9
	C263,29.2,262.2,29.7,261.6,30.6z"/>
<path class="st0" d="M278.2,28.4l-3.5,13.4h-1.3l-3.5-13.4h1.2l3.1,12.2l3-12.2C277.2,28.4,278.2,28.4,278.2,28.4z"/>
<g>
	<path class="st0" d="M211.4,28.7v13.1h-1.1V30l-2.6,1.9l-0.5-0.8l3.3-2.4H211.4z"/>
	<path class="st0" d="M221.3,37.4v0.9h-1.4v3.4h-1.1v-3.4h-4.7v-0.8l3.2-9l0.9,0.3l-3.1,8.6h3.6l0.1-3.9h0.9v3.9H221.3z"/>
</g>
</svg>
