<?xml version="1.0" encoding="utf-8"?>
<!-- Generator: Adobe Illustrator 27.2.0, SVG Export Plug-In . SVG Version: 6.00 Build 0)  -->
<svg version="1.1" id="Layer_1" xmlns="http://www.w3.org/2000/svg" xmlns:xlink="http://www.w3.org/1999/xlink" x="0px" y="0px"
	 viewBox="0 0 520 48.8" style="enable-background:new 0 0 520 48.8;" xml:space="preserve">
<style type="text/css">
	.st0{fill:#0066CC;}
	.st1{fill:#FFCC00;}
	.st2{fill:#034EA2;}
	.st3{fill:#FFF200;}
	.st4{fill:#FAA61A;}
	.st5{fill:#A6CE39;}
	.st6{fill:#4AB969;}
	.st7{fill:#00ACCD;}
	.st8{fill:#007DC5;}
	.st9{fill:#FFFFFF;}
	.st10{fill:#29333A;}
	.st11{fill-rule:evenodd;clip-rule:evenodd;fill:#0073D1;}
	.st12{fill-rule:evenodd;clip-rule:evenodd;fill:#FFFFFF;}
	.st13{fill-rule:evenodd;clip-rule:evenodd;}
	.st14{fill:#00309C;}
</style>
<g>
	<path class="st0" d="M60.6,8.2v13.6h-3.1V8.2H60.6z"/>
	<path class="st0" d="M65.7,13.9v7.8h-3.1V8.2h2.8l2.2,3.3l2.9,4.5h0.2V8.2h3.2v13.6h-2.8l-2.8-4.1L65.9,14L65.7,13.9
		C65.7,14,65.7,13.9,65.7,13.9z"/>
	<path class="st0" d="M80.8,21.7h-5.2V8.2h5.2c2.8,0,4.9,1.3,4.9,4.3v4.9C85.8,20.3,83.3,21.7,80.8,21.7z M82.6,13.1
		c0-1.5-1.2-2.1-2.1-2.1h-1.7v8h1.6c1,0,2.1-0.5,2.1-2.1L82.6,13.1L82.6,13.1z"/>
	<path class="st0" d="M92.7,21.8c-2.7,0-5.3-1.4-5.3-4.4V8.2h3.1V17c0,1.5,1.2,2.1,2.1,2.1c1,0,2.1-0.5,2.1-2.1V8.2h3.1v9.2
		C98,20.4,95.3,21.8,92.7,21.8z"/>
	<path class="st0" d="M104.5,21.8c-2,0-3.7-0.4-5.4-1.9l1.8-2.3c1.2,0.9,2.3,1.3,3.5,1.3c1.7,0,2.2-0.7,2.2-1.3c0-0.8-0.7-1.2-3-1.8
		c-2.5-0.7-3.9-1.6-3.9-3.9c0-2.5,2.1-4,4.9-4c1.5,0,3.1,0.2,4.7,1.3l-1.4,2.5c-1.3-0.8-2.3-0.9-3.4-0.9c-1,0-1.7,0.4-1.7,1.1
		c0,0.7,0.7,1.1,2.9,1.7c3.5,1,4,2.4,4,4.1C109.9,20.5,107.5,21.8,104.5,21.8z"/>
	<path class="st0" d="M117.1,10.9v10.7H114V10.9h-3.5V8.2h10V11h-3.4V10.9z"/>
	<path class="st0" d="M127.8,8.2c2.9,0,4.1,2.1,4.1,4.3c0,1.4-0.9,2.9-2.2,3.8l2.4,5.5h-3.3l-2.1-5h-2v5h-3.1V8.2H127.8z M124.9,14
		h2.3c1.2,0,1.6-0.7,1.6-1.5s-0.5-1.5-1.6-1.5h-2.3V14z"/>
	<path class="st0" d="M137.9,13.4l1-2.3l1.3-2.9h3.3l-4.1,8.2v5.4h-3.1v-5.4l-4-8.2h3.3l1.3,3L137.9,13.4L137.9,13.4z"/>
	<path class="st0" d="M150.7,13.9h1.5v-0.2c0-0.5-0.4-0.9-1.2-0.9c-0.5,0-1.2,0.1-2,0.6l-1.1-1.6c1.2-0.9,2.2-1.1,3.1-1.1
		c2,0,3.3,1,3.3,3.1v2.3c0,0.5,0.5,0.5,0.6,0.5c0.5,0,1.6-0.6,1.6-2.6c0-2.8-1.7-4.8-5.2-4.8c-3.7,0-6,2.5-6,5.4s2.1,5.5,5.5,5.5
		c0.6,0,1.3,0,2.5-0.4l0.6,1.8c-0.9,0.4-2.4,0.6-3.3,0.6c-4.6,0-7.4-3.2-7.4-7.3c0-4.2,3.3-7.4,8.1-7.4c4.9,0,7.3,3,7.3,6.8
		c0,2.6-1.7,4.7-4.1,4.7c-0.7,0-1.8-0.1-2.3-0.9c-0.8,0.5-1.7,0.8-2.2,0.8c-1.8,0-2.5-1.2-2.5-2.4C147.7,14.5,149.6,13.9,150.7,13.9
		z M152.2,15.5h-1.4c-0.4,0-0.8,0.1-0.8,0.5c0,0.3,0.3,0.5,0.7,0.5c0.7,0,1.2-0.3,1.4-0.4L152.2,15.5L152.2,15.5z"/>
	<path class="st0" d="M166.3,10.9v10.7h-3.1V10.9h-3.5V8.2h10V11h-3.4V10.9z"/>
	<path class="st0" d="M177.1,19.1h-4.4l-0.8,2.7h-3.4l4.8-13.6h3.2l4.7,13.6h-3.3L177.1,19.1z M173.5,16.5h2.8l-0.3-0.9l-1.1-3.8
		l0,0l-1.1,3.8L173.5,16.5z"/>
	<path class="st0" d="M182.5,21.7V8.2h3.1v10.7h6.4v2.8L182.5,21.7L182.5,21.7z"/>
	<path class="st0" d="M193.1,21.7V8.2h3.1v10.7h6.4v2.8L193.1,21.7L193.1,21.7z"/>
	<path class="st0" d="M207,8.2v13.6h-3.1V8.2H207z"/>
	<path class="st0" d="M212.1,13.9v7.8H209V8.2h2.8l2.2,3.3l2.9,4.5h0.1V8.2h3.1v13.6h-2.8l-2.8-4.1L212.1,13.9L212.1,13.9
		L212.1,13.9z"/>
	<path class="st0" d="M225.2,13.9v7.8h-3.1V8.2h2.8l2.2,3.3L230,16h0.1V8.2h3.1v13.6h-2.8l-2.8-4.1L225.2,13.9L225.2,13.9
		L225.2,13.9z"/>
	<path class="st1" d="M68.2,39.6c0.8,0.7,1.8,1.3,2.9,1.9l-1.1,2c-1.2-0.4-2.9-1.5-3.8-2.4c-0.7,0.6-2.1,1.3-3.5,1.3
		c-2.4,0-4.4-1.5-4.4-4c0-1.8,1.3-3.1,2.7-3.9c-0.4-0.6-0.6-1.3-0.6-2.1c0-1.8,1.2-3.1,3-3.1c1.8,0,3.1,1.3,3.1,2.9
		c0,1.5-1.1,2.5-2.1,3.2c0.6,1,1.3,1.9,2.1,2.8c1.2-1.3,1.8-3.1,1.8-4.6c0-2.8-1.8-5.1-4.8-5.1c-2.8,0-4.5,1.7-4.5,3.7
		c0,0.7,0.1,1.5,0.8,2.6l-2,1.3c-0.9-1.3-1.2-2.6-1.2-3.7c0-3.1,2.6-6.1,6.8-6.1c4.6,0,7.2,3.3,7.2,7.3
		C70.7,35.5,69.8,37.8,68.2,39.6z M62.6,36.2c-0.9,0.5-1.7,1.2-1.7,2c0,1.2,0.7,1.8,1.8,1.8c0.6,0,1.3-0.2,2.1-0.6
		C64.1,38.6,63.1,37.1,62.6,36.2z M63.6,31.3c-0.4,0-0.6,0.4-0.6,0.8c0,0.4,0.2,0.6,0.4,1.1c0.6-0.4,0.9-0.7,0.9-1.2
		C64.4,31.7,64,31.3,63.6,31.3z"/>
	<path class="st1" d="M84,42h-6.6V28.5h6.3c2.9,0,3.9,1.7,3.9,3.8c0,1-0.5,2.1-1.7,2.7c1.3,0.6,2,2.1,2,3C87.9,40.3,86.6,42,84,42z
		 M82.9,31.3h-2.3v2.5h2.3c1.1,0,1.5-0.5,1.5-1.2C84.4,31.8,84.1,31.3,82.9,31.3z M83,36.4h-2.5v2.9H83c1,0,1.5-0.5,1.5-1.4
		C84.6,37,84.1,36.4,83,36.4z"/>
	<path class="st1" d="M96.9,39.3h-4.4L91.7,42h-3.4L93,28.4h3.2l4.7,13.6h-3.3L96.9,39.3z M93.4,36.8h2.8l-0.3-0.9l-1.1-3.8h-0.1
		l-1.1,3.7L93.4,36.8z"/>
	<path class="st1" d="M102.3,42V28.5h3.1v10.7h6.4V42H102.3z"/>
	<path class="st1" d="M117.2,31.3V42h-3.1V31.3h-3.5v-2.8h10v2.8H117.2z"/>
	<path class="st1" d="M125.1,28.5v13.6H122V28.5H125.1z"/>
	<path class="st1" d="M135.1,32.2c-0.9-0.8-1.9-1-2.7-1c-1,0-2.2,0.5-2.2,2.1v3.8c0,1.5,1.3,2.1,2.2,2.1c0.8,0,1.7-0.2,2.7-1
		l1.5,2.4c-1.1,0.9-2.7,1.3-4.3,1.3c-2.5,0-5.3-1.3-5.3-4.3v-5.1c0-2.9,2.7-4.4,5.3-4.4c1.6,0,3.3,0.4,4.3,1.3L135.1,32.2z"/>
	<path class="st1" d="M142.6,28.5h9.5v2.8h-6.3v2.5h5.5v2.8h-5.5v2.7h6.3V42h-9.5V28.5z"/>
	<path class="st1" d="M159.1,37.5l1.3-4.9l1.2-4.1h3.3L160.6,42h-3.2L153,28.4h3.3l1.3,4.2l1.3,4.8h0.2V37.5z"/>
	<path class="st1" d="M166.1,28.5h9.5v2.8h-6.3v2.5h5.5v2.8h-5.5v2.7h6.3V42h-9.5V28.5z"/>
	<path class="st1" d="M180.2,34.2V42h-3.1V28.5h2.8l2.2,3.3l2.9,4.5h0.1v-7.8h3.1v13.6h-2.8l-2.8-4.1L180.2,34.2L180.2,34.2
		L180.2,34.2z"/>
	<path class="st1" d="M196,31.3V42h-3.1V31.3h-3.5v-2.8h10v2.8H196z"/>
	<g>
		<g id="XMLID_00000018238116009917024300000018175453015894901125_">
			<path class="st1" d="M32,24.4h14.4c-0.9,5.1-3.3,10.2-7,14.4c-9.5,10.6-24.3,12.9-33.2,4.8C1,38.9-0.9,31.7,0.3,24.4h14.4
				c0,2.2,0.9,4.4,2.6,6.1c3.4,3.4,8.9,3.4,12.3,0C31.2,28.9,32,26.6,32,24.4z"/>
			<path class="st1" d="M19.8,24.4h7c0,0.9-0.4,1.7-1,2.4c-1.3,1.3-3.5,1.4-4.9,0C20.2,26.2,19.8,25.3,19.8,24.4z"/>
		</g>
		<g id="XMLID_00000172436888910342890510000010745209830598214540_">
			<path class="st0" d="M41,5.5c4.9,4.7,6.6,11.8,5.4,18.9H32c0-2.2-0.8-4.5-2.6-6.2c-3.4-3.4-8.9-3.4-12.3,0
				c-1.7,1.7-2.6,3.9-2.5,6.2H0.2c0.9-5.2,3.3-10.5,7.3-14.9C17.2-0.9,32.2-2.8,41,5.5z"/>
			<path class="st0" d="M25.8,22c0.7,0.7,1.1,1.6,1,2.5h-7c0-0.9,0.4-1.8,1-2.5C22.2,20.7,24.5,20.7,25.8,22z"/>
		</g>
	</g>
	<g>
		<path class="st0" d="M211.4,28.8v13h-1.1V30.1l-2.6,1.9l-0.5-0.8l3.2-2.4C210.4,28.8,211.4,28.8,211.4,28.8z"/>
		<path class="st0" d="M219.1,29.5c0.5,0.6,0.8,1.4,0.8,2.3c0,0.8-0.2,1.5-0.6,2c-0.4,0.5-1,0.8-1.7,1c0.8,0.1,1.5,0.4,1.9,0.9
			s0.7,1.3,0.7,2.3c0,0.8-0.1,1.4-0.4,2c-0.3,0.6-0.7,1.1-1.2,1.4c-0.5,0.3-1.1,0.5-1.8,0.5s-1.2-0.1-1.7-0.4s-1-0.7-1.4-1.3
			l0.7-0.5c0.4,0.5,0.8,0.8,1.1,1c0.4,0.2,0.8,0.3,1.3,0.3c0.7,0,1.3-0.3,1.7-0.8s0.6-1.3,0.6-2.2c0-1.8-0.9-2.7-2.6-2.7h-0.7
			l0.1-0.9h0.5c0.7,0,1.2-0.2,1.7-0.7c0.5-0.4,0.7-1.1,0.7-2c0-0.8-0.2-1.3-0.6-1.8c-0.4-0.4-0.9-0.6-1.5-0.6
			c-0.4,0-0.8,0.1-1.2,0.3c-0.4,0.2-0.7,0.5-1.1,0.9l-0.6-0.6c0.4-0.5,0.9-0.9,1.4-1.1s1-0.4,1.6-0.4
			C217.8,28.6,218.6,28.9,219.1,29.5z"/>
		<path class="st0" d="M222.3,36.2v-0.9h4.3v0.9H222.3z"/>
		<path class="st0" d="M231,28.8v13h-1.1V30.1l-2.6,1.9l-0.5-0.8l3.2-2.4C230,28.8,231,28.8,231,28.8z"/>
		<path class="st0" d="M239.5,28.8v0.9L235.3,42l-1-0.3l4.1-11.9h-5v-0.9h6.1V28.8z"/>
		<path class="st0" d="M253.5,41.8H252l-5-12.1c0.1,1.2,0.2,2.7,0.2,4.5v7.6h-1.1V28.4h1.5l4.9,12.1c-0.1-1.6-0.2-2.9-0.2-3.9v-8.2
			h1.1v13.4H253.5z"/>
		<path class="st0" d="M264,30c0.8,1.2,1.2,2.9,1.2,5.2s-0.4,4-1.2,5.1c-0.8,1.2-1.9,1.7-3.3,1.7s-2.5-0.6-3.3-1.7
			c-0.8-1.2-1.2-2.9-1.2-5.1c0-2.3,0.4-4,1.2-5.2c0.8-1.2,1.9-1.8,3.3-1.8S263.2,28.8,264,30z M258.3,30.7c-0.6,1-0.9,2.5-0.9,4.5
			s0.3,3.5,0.9,4.5s1.4,1.4,2.4,1.4c1.1,0,1.9-0.5,2.5-1.4s0.9-2.4,0.9-4.5c0-4-1.1-5.9-3.3-5.9C259.7,29.2,258.8,29.7,258.3,30.7z"
			/>
		<path class="st0" d="M274.9,28.4l-3.5,13.4h-1.3l-3.5-13.4h1.2l3.1,12.2l3-12.2C273.9,28.4,274.9,28.4,274.9,28.4z"/>
	</g>
</g>
<g>
	<g>
		<g>
			<g>
				<rect x="297" y="1.9" class="st2" width="40" height="26.7"/>
				<g>
					<polygon class="st3" points="317,4.8 317.3,5.8 318.4,5.8 317.6,6.5 317.9,7.5 317,6.9 316.1,7.5 316.5,6.5 315.6,5.8 
						316.7,5.8 					"/>
				</g>
				<g>
					<polygon class="st3" points="312.6,6 312.9,7 314,7 313.1,7.7 313.4,8.7 312.6,8 311.7,8.7 312,7.7 311.2,7 312.2,7 					"/>
				</g>
				<g>
					<polygon class="st3" points="309.3,9.3 309.6,10.3 310.7,10.3 309.9,10.9 310.2,11.9 309.3,11.3 308.4,11.9 308.8,10.9 
						307.9,10.3 309,10.3 					"/>
				</g>
				<g>
					<polygon class="st3" points="308.1,13.7 308.5,14.7 309.5,14.7 308.6,15.4 309,16.4 308.1,15.7 307.3,16.4 307.6,15.4 
						306.7,14.7 307.8,14.7 					"/>
				</g>
				<g>
					<polygon class="st3" points="309.3,18.2 309.6,19.2 310.7,19.2 309.9,19.8 310.2,20.8 309.3,20.2 308.4,20.8 308.8,19.8 
						307.9,19.2 309,19.2 					"/>
				</g>
				<g>
					<polygon class="st3" points="312.6,21.4 312.9,22.4 314,22.4 313.1,23.1 313.4,24.1 312.6,23.5 311.7,24.1 312,23.1 
						311.2,22.4 312.2,22.4 					"/>
				</g>
				<g>
					<polygon class="st3" points="317,22.6 317.3,23.6 318.4,23.6 317.6,24.3 317.9,25.3 317,24.6 316.1,25.3 316.5,24.3 
						315.6,23.6 316.7,23.6 					"/>
				</g>
				<g>
					<polygon class="st3" points="321.5,21.4 321.8,22.4 322.9,22.4 322,23.1 322.3,24.1 321.5,23.5 320.6,24.1 320.9,23.1 
						320.1,22.4 321.1,22.4 					"/>
				</g>
				<g>
					<polygon class="st3" points="324.7,18.2 325,19.2 326.1,19.2 325.3,19.8 325.6,20.8 324.7,20.2 323.8,20.8 324.2,19.8 
						323.3,19.2 324.4,19.2 					"/>
				</g>
				<g>
					<polygon class="st3" points="325.9,13.7 326.2,14.7 327.3,14.7 326.4,15.4 326.8,16.4 325.9,15.7 325,16.4 325.4,15.4 
						324.5,14.7 325.6,14.7 					"/>
				</g>
				<g>
					<polygon class="st3" points="324.7,9.3 325,10.3 326.1,10.3 325.3,10.9 325.6,11.9 324.7,11.3 323.8,11.9 324.2,10.9 
						323.3,10.3 324.4,10.3 					"/>
				</g>
				<g>
					<polygon class="st3" points="321.5,6 321.8,7 322.9,7 322,7.7 322.3,8.7 321.5,8 320.6,8.7 320.9,7.7 320.1,7 321.1,7 					"/>
				</g>
			</g>
		</g>
		<g>
			<polyline class="st4" points="348.4,22.4 348.3,22.5 348.4,22.5 348.4,22.4 			"/>
			<polyline class="st4" points="343.9,23.7 343.9,23.7 342.6,23.7 342.6,22.5 342.7,22.5 342.6,22.4 342.6,24.6 342.6,23.7 
				343.9,23.7 			"/>
			<polyline class="st2" points="342.6,27.3 342.6,27.3 342.6,26.1 342.6,28.5 343.7,28.5 343.7,28.5 342.6,28.5 342.6,27.3 			"/>
			<polyline class="st2" points="348.4,23.7 348.4,23.7 347.2,23.7 347.2,23.7 348.4,23.7 			"/>
			<polyline class="st2" points="347.2,28.5 348.3,28.5 347.2,28.5 347.2,28.5 			"/>
			<polyline class="st2" points="349.6,28.5 351.7,28.5 349.6,28.5 349.6,28.5 			"/>
			<polygon class="st2" points="349.6,23.7 353.1,23.7 353.1,23.7 			"/>
			<polygon class="st2" points="359.8,28.5 361,28.5 361,28.5 			"/>
			<polygon class="st2" points="359.8,23.7 361,23.7 361,23.7 			"/>
			<polyline class="st4" points="363.8,22.4 363.8,22.5 363.9,22.5 363.8,22.4 			"/>
			<polyline class="st2" points="366.5,28.5 366.5,28.4 366.5,28.5 366.5,28.5 			"/>
			<polyline class="st2" points="363.3,23.7 364.4,23.7 364.4,23.7 363.3,23.7 363.3,23.7 			"/>
			<polyline class="st2" points="365.2,28.5 366,28.5 365.2,28.5 365.2,28.5 			"/>
			<polyline class="st2" points="361.2,28.5 362.5,28.5 362.5,28.5 361.2,28.5 361.2,28.5 			"/>
			<path class="st2" d="M354.2,28.5h1.7c0,0,0,0,0,0H354.2L354.2,28.5"/>
			<polyline class="st2" points="358.3,23.7 358.3,23.7 354.2,23.7 354.2,23.7 358.3,23.7 			"/>
			<polyline class="st2" points="366.5,28.5 366,28.5 366.5,28.5 366.5,28.5 			"/>
			<polyline class="st2" points="366,27.3 366.5,28.4 366,27.3 366,27.3 366,27.3 366,27.3 			"/>
			<polyline class="st4" points="342.6,27.3 342.6,27.3 342.6,27.3 342.6,28.5 343.7,28.5 343.8,27.3 342.6,27.3 			"/>
			<polyline class="st2" points="345.6,27.3 345.6,27.3 345.5,27.3 345.6,27.3 			"/>
			<polyline class="st4" points="348.4,27.3 347.2,27.3 347.2,28.5 348.4,28.5 348.4,27.3 			"/>
			<polyline class="st4" points="353.1,27.3 350.7,27.3 350.7,27.3 349.6,27.3 349.6,28.5 351.7,28.5 353.1,28.5 353.1,27.3 			"/>
			<polyline class="st4" points="359.8,27.3 359.8,28.5 361,28.5 361,27.3 359.8,27.3 			"/>
			<polyline class="st4" points="366.5,28.4 366,27.3 361.7,27.3 361.2,28.5 362.5,28.5 362.9,27.6 364.9,27.6 365.2,28.5 366,28.5 
				366.5,28.5 366.5,28.4 			"/>
			<path class="st4" d="M358.3,27.3H356l0,0h-1.8v1.2h1.8C356.9,28.5,357.8,28.1,358.3,27.3"/>
			<path class="st2" d="M355.4,27.3h0.6l0,0H355.4"/>
			<polyline class="st2" points="365.5,26.1 366,27.3 366,27.3 365.5,26.1 365.5,26.1 			"/>
			<polyline class="st5" points="344.4,26.1 345.5,27.3 345.6,27.3 346.6,26.1 344.4,26.1 			"/>
			<polyline class="st5" points="343.8,26.1 342.6,26.1 342.6,27.3 343.8,27.3 343.8,26.1 			"/>
			<polyline class="st5" points="347.2,26.1 347.2,27.3 348.4,27.3 348.4,26.1 347.2,26.1 			"/>
			<polyline class="st5" points="349.6,26.1 349.6,27.3 350.7,27.3 350.7,26.1 349.6,26.1 			"/>
			<polyline class="st5" points="359.8,26.1 359.8,27.3 361,27.3 361,26.1 359.8,26.1 			"/>
			<polyline class="st5" points="364.4,26.4 363.4,26.4 363.5,26.1 362.3,26.1 361.7,27.3 366,27.3 365.5,26.1 364.3,26.1 
				364.4,26.4 			"/>
			<path class="st5" d="M357.6,26.1c-0.2,0.7-0.9,1.2-1.6,1.2h2.3c0.3-0.4,0.4-0.8,0.5-1.2H357.6"/>
			<polyline class="st5" points="354.2,26.1 354.2,27.3 355.4,27.3 355.4,26.1 354.2,26.1 			"/>
			<polyline class="st2" points="366,27.3 366,27.3 366,27.3 366,27.3 366,27.3 			"/>
			<polygon class="st2" points="347.2,27.3 348.4,27.3 348.4,27.3 			"/>
			<polygon class="st2" points="342.6,27.3 343.7,27.3 343.7,27.3 			"/>
			<polyline class="st2" points="345.5,27.3 345.5,27.3 345.6,27.3 345.6,27.3 345.5,27.3 			"/>
			<polygon class="st2" points="349.6,27.3 350.7,27.3 350.7,27.3 			"/>
			<polygon class="st2" points="359.8,27.3 361,27.3 361,27.3 			"/>
			<polyline class="st2" points="361.7,27.3 361.7,27.3 366,27.3 366,27.3 361.7,27.3 			"/>
			<path class="st2" d="M356,27.3C356,27.3,356,27.3,356,27.3h2.3l0,0H356"/>
			<polygon class="st2" points="354.2,27.3 355.4,27.3 355.4,27.3 			"/>
			<path class="st2" d="M355.4,27.3L355.4,27.3h0.6c0,0,0,0,0,0H355.4"/>
			<polyline class="st2" points="365,24.9 365.5,26.1 365.5,26.1 365,24.9 365,24.9 365,24.9 			"/>
			<polyline class="st6" points="342.6,26.1 343.8,26.1 343.8,25.4 344.4,26.1 346.6,26.1 347.2,25.4 347.2,26.1 348.4,26.1 
				348.4,24.9 346.1,24.9 345.6,25.5 345,24.9 342.6,24.9 342.6,26.1 			"/>
			<polyline class="st6" points="350.7,26.1 353.1,26.1 353.1,24.9 349.6,24.9 349.6,26.1 350.7,26.1 350.7,26.1 			"/>
			<polyline class="st6" points="359.8,26.1 361,26.1 361,24.9 359.8,24.9 359.8,26.1 			"/>
			<polyline class="st6" points="362.3,26.1 363.5,26.1 363.8,25.1 364.3,26.1 365.5,26.1 365,24.9 362.8,24.9 362.3,26.1 			"/>
			<path class="st6" d="M358.9,24.9h-1.3c0.1,0.2,0.1,0.4,0.1,0.6c0,0.2,0,0.4-0.1,0.6h1.2c0-0.2,0.1-0.4,0.1-0.6
				C358.9,25.3,358.9,25.1,358.9,24.9"/>
			<polyline class="st6" points="354.2,24.9 354.2,26.1 355.4,26.1 355.4,24.9 354.2,24.9 			"/>
			<polyline class="st2" points="365.5,26.1 365.5,26.1 365.5,26.1 			"/>
			<polyline class="st2" points="347.2,26.1 348.4,26.1 347.2,26.1 			"/>
			<polyline class="st2" points="344.4,26.1 346.6,26.1 344.4,26.1 			"/>
			<polyline class="st2" points="342.6,26.1 343.8,26.1 342.6,26.1 			"/>
			<polyline class="st2" points="349.6,26.1 350.7,26.1 349.6,26.1 			"/>
			<polyline class="st2" points="359.8,26.1 361,26.1 359.8,26.1 			"/>
			<polyline class="st2" points="364.3,26.1 365.5,26.1 364.3,26.1 			"/>
			<polyline class="st2" points="363.5,26.1 363.5,26.1 362.3,26.1 363.5,26.1 			"/>
			<polyline class="st2" points="357.6,26.1 358.9,26.1 357.6,26.1 			"/>
			<polyline class="st2" points="354.2,26.1 355.4,26.1 354.2,26.1 			"/>
			<polyline class="st2" points="365,24.9 364.4,23.7 364.4,23.7 365,24.9 365,24.9 			"/>
			<polyline class="st7" points="345,24.9 343.9,23.7 342.6,23.7 342.6,24.6 342.6,24.9 345,24.9 			"/>
			<polyline class="st7" points="347.2,23.7 346.1,24.9 348.4,24.9 348.4,23.7 347.2,23.7 			"/>
			<polyline class="st7" points="353.1,24.9 350.7,24.9 350.7,23.7 353.1,23.7 353.1,23.7 349.6,23.7 349.6,24.9 353.1,24.9 
				353.1,24.9 			"/>
			<polyline class="st7" points="361,24.9 361,23.7 359.8,23.7 359.8,24.9 361,24.9 			"/>
			<polyline class="st7" points="362.8,24.9 365,24.9 364.4,23.7 363.3,23.7 362.8,24.9 			"/>
			<path class="st7" d="M355.4,24.9v-1.2h0.6c0.8,0,1.4,0.5,1.6,1.2h1.3c-0.1-0.4-0.3-0.9-0.5-1.2h-4.1v1.2H355.4"/>
			<polyline class="st2" points="365,24.9 365,24.9 365,24.9 365,24.9 365,24.9 			"/>
			<polyline class="st2" points="342.6,24.9 342.6,24.9 345,24.9 345,24.9 342.6,24.9 			"/>
			<polyline class="st2" points="346.1,24.9 346.1,24.9 348.4,24.9 348.4,24.9 346.1,24.9 			"/>
			<polygon class="st2" points="349.6,24.9 353.1,24.9 353.1,24.9 			"/>
			<polygon class="st2" points="359.8,24.9 361,24.9 361,24.9 			"/>
			<polyline class="st2" points="365,24.9 365,24.9 362.8,24.9 362.8,24.9 365,24.9 			"/>
			<polygon class="st2" points="354.2,24.9 355.4,24.9 355.4,24.9 			"/>
			<polyline class="st2" points="358.9,24.9 358.9,24.9 357.6,24.9 357.6,24.9 358.9,24.9 			"/>
			<polyline class="st2" points="364.4,23.7 363.9,22.5 363.9,22.5 364.4,23.7 364.4,23.7 			"/>
			<polyline class="st8" points="348.4,23.7 348.4,22.5 348.3,22.5 347.2,23.7 348.4,23.7 			"/>
			<polyline class="st8" points="342.6,23.7 343.9,23.7 342.7,22.5 342.6,22.5 342.6,23.7 			"/>
			<polyline class="st8" points="353.1,22.5 349.5,22.5 349.6,23.7 353.1,23.7 353.1,22.5 			"/>
			<polyline class="st8" points="361,22.5 359.8,22.5 359.8,23.7 361,23.7 361,22.5 			"/>
			<polyline class="st8" points="364.4,23.7 363.9,22.5 363.8,22.5 363.3,23.7 364.4,23.7 			"/>
			<path class="st8" d="M355.9,22.5h-1.7v1.2h4.1C357.8,23,356.9,22.5,355.9,22.5"/>
			<polyline class="st9" points="342.7,22.5 342.6,22.5 342.6,22.7 342.9,22.7 342.7,22.5 			"/>
			<polyline class="st9" points="348.4,22.7 348.4,22.5 348.3,22.5 348.1,22.7 348.4,22.7 			"/>
			<polyline class="st9" points="346.1,24.9 345.9,25.1 348.4,25.1 348.4,24.9 346.1,24.9 			"/>
			<polyline class="st9" points="345,24.9 342.6,24.9 342.6,25.1 345.2,25.1 345,24.9 			"/>
			<polyline class="st9" points="343.9,23.7 342.6,23.7 342.6,23.9 344,23.9 343.9,23.7 			"/>
			<polyline class="st9" points="348.4,23.7 347.2,23.7 347,23.9 348.4,23.9 348.4,23.7 			"/>
			<polyline class="st9" points="343.8,26.1 342.6,26.1 342.6,26.3 343.8,26.3 343.8,26.1 			"/>
			<polyline class="st9" points="346.6,26.1 344.4,26.1 344.6,26.3 346.4,26.3 346.6,26.1 			"/>
			<rect x="347.2" y="26.1" class="st9" width="1.2" height="0.2"/>
			<rect x="342.6" y="27.3" class="st9" width="1.2" height="0.2"/>
			<rect x="347.2" y="27.3" class="st9" width="1.2" height="0.2"/>
			<polyline class="st9" points="348.4,23.1 347.8,23.1 347.6,23.3 348.4,23.3 348.4,23.1 			"/>
			<polyline class="st9" points="343.3,23.1 342.6,23.1 342.6,23.3 343.5,23.3 343.3,23.1 			"/>
			<polyline class="st9" points="344.4,24.3 342.6,24.3 342.6,24.5 344.6,24.5 344.4,24.3 			"/>
			<polyline class="st9" points="348.4,24.3 346.6,24.3 346.5,24.5 348.4,24.5 348.4,24.3 			"/>
			<rect x="342.6" y="25.5" class="st9" width="1.2" height="0.2"/>
			<rect x="347.2" y="25.5" class="st9" width="1.2" height="0.2"/>
			<polyline class="st9" points="347,25.7 347.1,25.5 343.9,25.5 344,25.7 347,25.7 			"/>
			<rect x="342.6" y="26.7" class="st9" width="1.2" height="0.2"/>
			<polyline class="st9" points="346.1,26.7 345,26.7 345.1,26.9 345.9,26.9 346.1,26.7 			"/>
			<rect x="347.2" y="26.7" class="st9" width="1.2" height="0.2"/>
			<rect x="347.2" y="27.9" class="st9" width="1.2" height="0.2"/>
			<rect x="342.6" y="27.9" class="st9" width="1.2" height="0.2"/>
			<rect x="349.6" y="22.5" class="st9" width="3.5" height="0.2"/>
			<rect x="349.6" y="24.9" class="st9" width="3.5" height="0.2"/>
			<polyline class="st9" points="350.7,23.7 350.7,23.7 349.6,23.7 349.6,23.9 350.7,23.9 350.7,23.7 			"/>
			<polyline class="st9" points="350.7,26.3 350.7,26.1 350.7,26.1 350.7,26.1 349.6,26.1 349.6,26.3 350.7,26.3 			"/>
			<rect x="349.6" y="27.3" class="st9" width="3.5" height="0.2"/>
			<rect x="349.6" y="23.1" class="st9" width="3.5" height="0.2"/>
			<polyline class="st9" points="349.6,24.3 349.6,24.5 350.7,24.5 350.7,24.3 349.6,24.3 			"/>
			<rect x="349.6" y="25.5" class="st9" width="3.5" height="0.2"/>
			<rect x="349.6" y="26.7" class="st9" width="1.1" height="0.2"/>
			<polyline class="st9" points="349.6,27.9 349.6,28.1 353.1,28.1 353.1,27.9 349.6,27.9 			"/>
			<polyline class="st9" points="361,22.5 359.8,22.5 359.8,22.7 361,22.7 361,22.5 			"/>
			<rect x="359.8" y="24.9" class="st9" width="1.2" height="0.2"/>
			<rect x="359.8" y="23.7" class="st9" width="1.2" height="0.2"/>
			<rect x="359.8" y="26.1" class="st9" width="1.2" height="0.2"/>
			<rect x="359.8" y="27.3" class="st9" width="1.2" height="0.2"/>
			<polyline class="st9" points="361,23.3 361,23.1 359.8,23.1 359.8,23.3 361,23.3 			"/>
			<rect x="359.8" y="24.3" class="st9" width="1.2" height="0.2"/>
			<polyline class="st9" points="359.8,25.7 361,25.7 361,25.5 359.8,25.5 359.8,25.7 			"/>
			<polyline class="st9" points="359.8,26.9 361,26.9 361,26.7 359.8,26.7 359.8,26.9 			"/>
			<polyline class="st9" points="359.8,27.9 359.8,28.1 361,28.1 361,27.9 359.8,27.9 			"/>
			<polyline class="st9" points="364,22.7 363.9,22.5 363.8,22.5 363.7,22.7 364,22.7 			"/>
			<polyline class="st9" points="362.7,25.1 363.8,25.1 363.8,25.1 363.9,25.1 365,25.1 365,24.9 362.8,24.9 362.7,25.1 			"/>
			<polyline class="st9" points="363.2,23.9 364.5,23.9 364.4,23.7 363.3,23.7 363.2,23.9 			"/>
			<polyline class="st9" points="364.3,26.3 365.5,26.3 365.5,26.1 364.3,26.1 364.3,26.3 			"/>
			<polyline class="st9" points="362.3,26.1 362.2,26.3 363.4,26.3 363.5,26.1 362.3,26.1 			"/>
			<polyline class="st9" points="361.7,27.5 366.1,27.5 366,27.3 361.7,27.3 361.7,27.5 			"/>
			<polyline class="st9" points="363.5,23.3 364.2,23.3 364.2,23.1 363.5,23.1 363.5,23.3 			"/>
			<polyline class="st9" points="362.9,24.5 364.8,24.5 364.7,24.3 363,24.3 362.9,24.5 			"/>
			<polyline class="st9" points="363.6,25.7 363.7,25.5 362.5,25.5 362.4,25.7 363.6,25.7 			"/>
			<polyline class="st9" points="364.1,25.7 365.3,25.7 365.2,25.5 364,25.5 364.1,25.7 			"/>
			<polyline class="st9" points="361.9,26.9 365.8,26.9 365.7,26.7 362,26.7 361.9,26.9 			"/>
			<polyline class="st9" points="361.5,27.9 361.4,28.1 362.7,28.1 362.8,27.9 361.5,27.9 			"/>
			<polyline class="st9" points="365,27.9 365,28.1 366.3,28.1 366.3,27.9 365,27.9 			"/>
			<path class="st9" d="M355.9,22.5h-1.7v0.2h2.7C356.6,22.6,356.3,22.5,355.9,22.5"/>
			<rect x="354.2" y="24.9" class="st9" width="1.2" height="0.2"/>
			<path class="st9" d="M357.7,25.1h1.2c0-0.1,0-0.1,0-0.2h-1.3C357.6,25,357.7,25,357.7,25.1"/>
			<path class="st9" d="M358.4,23.9c0-0.1-0.1-0.1-0.1-0.2h-4.1v0.2H358.4"/>
			<polyline class="st9" points="355.4,26.1 354.2,26.1 354.2,26.3 355.4,26.3 355.4,26.1 			"/>
			<path class="st9" d="M357.6,26.3h1.3c0-0.1,0-0.1,0-0.2h-1.2C357.6,26.2,357.6,26.2,357.6,26.3"/>
			<path class="st9" d="M356.1,27.3c0,0-0.1,0-0.1,0h-0.6l0,0h-1.2v0.2h4c0-0.1,0.1-0.1,0.1-0.2H356.1"/>
			<path class="st9" d="M357.9,23.3c-0.1-0.1-0.1-0.1-0.2-0.2h-3.5v0.2H357.9"/>
			<polyline class="st9" points="355.4,24.3 354.2,24.3 354.2,24.5 355.4,24.5 355.4,24.3 			"/>
			<path class="st9" d="M357.4,24.5h1.3c0-0.1,0-0.1-0.1-0.2h-1.4C357.3,24.4,357.3,24.4,357.4,24.5"/>
			<rect x="354.2" y="25.5" class="st9" width="1.2" height="0.2"/>
			<path class="st9" d="M357.7,25.6c0,0,0,0.1,0,0.1h1.2c0,0,0-0.1,0-0.1c0,0,0,0,0,0L357.7,25.6C357.7,25.5,357.7,25.5,357.7,25.6"
				/>
			<path class="st9" d="M357.3,26.7c0,0.1-0.1,0.1-0.2,0.2h1.5c0-0.1,0.1-0.1,0.1-0.2H357.3"/>
			<polyline class="st9" points="354.2,26.7 354.2,26.9 355.4,26.9 355.4,26.7 354.2,26.7 			"/>
			<path class="st9" d="M354.2,27.9v0.2h3.3c0.1,0,0.2-0.1,0.3-0.2H354.2"/>
			<path class="st9" d="M355.4,27.3h0.6c0,0,0.1,0,0.1,0H355.4L355.4,27.3"/>
			<polyline class="st2" points="343.3,22.5 343.2,22.5 343.2,22.7 343.5,22.7 343.3,22.5 			"/>
			<polyline class="st2" points="349,22.7 349,22.5 348.9,22.5 348.7,22.7 349,22.7 			"/>
			<polyline class="st2" points="346.7,24.9 346.5,25.1 349,25.1 349,24.9 346.7,24.9 			"/>
			<polyline class="st2" points="345.6,24.9 343.2,24.9 343.2,25.1 345.7,25.1 345.6,24.9 			"/>
			<polyline class="st2" points="344.4,23.7 343.2,23.7 343.2,23.9 344.6,23.9 344.4,23.7 			"/>
			<polyline class="st2" points="349,23.7 347.8,23.7 347.6,23.9 349,23.9 349,23.7 			"/>
			<rect x="343.2" y="26.1" class="st2" width="1.2" height="0.2"/>
			<polyline class="st2" points="347.2,26.1 345,26.1 345.2,26.3 347,26.3 347.2,26.1 			"/>
			<rect x="347.8" y="26.1" class="st2" width="1.2" height="0.2"/>
			<rect x="343.2" y="27.3" class="st2" width="1.2" height="0.2"/>
			<rect x="347.8" y="27.3" class="st2" width="1.2" height="0.2"/>
			<polyline class="st2" points="349,23.1 348.3,23.1 348.2,23.3 349,23.3 349,23.1 			"/>
			<polyline class="st2" points="343.9,23.1 343.2,23.1 343.2,23.3 344,23.3 343.9,23.1 			"/>
			<polyline class="st2" points="345,24.3 343.2,24.3 343.2,24.5 345.2,24.5 345,24.3 			"/>
			<polyline class="st2" points="349,24.3 347.2,24.3 347.1,24.5 349,24.5 349,24.3 			"/>
			<rect x="343.2" y="25.5" class="st2" width="1.2" height="0.2"/>
			<polyline class="st2" points="349,25.7 349,25.5 347.8,25.5 347.8,25.7 349,25.7 			"/>
			<polyline class="st2" points="347.5,25.7 347.7,25.5 344.4,25.5 344.6,25.7 347.5,25.7 			"/>
			<polyline class="st2" points="344.3,26.7 343.2,26.7 343.2,26.9 344.3,26.9 344.3,26.7 			"/>
			<polyline class="st2" points="346.6,26.7 345.6,26.7 345.7,26.9 346.5,26.9 346.6,26.7 			"/>
			<rect x="347.8" y="26.7" class="st2" width="1.2" height="0.2"/>
			<polyline class="st2" points="347.8,27.9 347.8,28.1 349,28.1 349,27.9 347.8,27.9 			"/>
			<rect x="343.2" y="27.9" class="st2" width="1.2" height="0.2"/>
			<rect x="350.1" y="22.5" class="st2" width="3.5" height="0.2"/>
			<rect x="350.1" y="24.9" class="st2" width="3.5" height="0.2"/>
			<polyline class="st2" points="351.3,23.7 351.3,23.7 350.1,23.7 350.1,23.9 351.3,23.9 351.3,23.7 			"/>
			<polyline class="st2" points="351.3,26.3 351.3,26.1 351.3,26.1 351.3,26.1 350.1,26.1 350.1,26.3 351.3,26.3 			"/>
			<polyline class="st2" points="350.1,27.3 350.1,27.5 353.6,27.5 353.6,27.3 350.1,27.3 			"/>
			<polyline class="st2" points="353.6,23.3 353.6,23.1 350.1,23.1 350.1,23.3 353.6,23.3 			"/>
			<polyline class="st2" points="350.1,24.3 350.1,24.5 351.3,24.5 351.3,24.3 350.1,24.3 			"/>
			<polyline class="st2" points="353.6,25.5 350.1,25.5 350.1,25.7 353.6,25.7 353.6,25.5 			"/>
			<rect x="350.1" y="26.7" class="st2" width="1.1" height="0.2"/>
			<polyline class="st2" points="350.1,27.9 350.1,28.1 353.6,28.1 353.6,27.9 350.1,27.9 			"/>
			<polyline class="st2" points="361.5,22.5 360.3,22.5 360.3,22.7 361.5,22.7 361.5,22.5 			"/>
			<rect x="360.3" y="24.9" class="st2" width="1.2" height="0.2"/>
			<rect x="360.3" y="23.7" class="st2" width="1.2" height="0.2"/>
			<rect x="360.3" y="26.1" class="st2" width="1.2" height="0.2"/>
			<rect x="360.3" y="27.3" class="st2" width="1.2" height="0.2"/>
			<rect x="360.3" y="23.1" class="st2" width="1.2" height="0.2"/>
			<rect x="360.3" y="24.3" class="st2" width="1.2" height="0.2"/>
			<rect x="360.3" y="25.5" class="st2" width="1.2" height="0.2"/>
			<rect x="360.3" y="26.7" class="st2" width="1.2" height="0.2"/>
			<rect x="360.3" y="27.9" class="st2" width="1.2" height="0.2"/>
			<polyline class="st2" points="364.6,22.7 364.5,22.5 364.4,22.5 364.3,22.7 364.6,22.7 			"/>
			<polyline class="st2" points="363.3,25.1 364.4,25.1 364.4,25.1 364.4,25.1 365.6,25.1 365.5,24.9 363.3,24.9 363.3,25.1 			"/>
			<polyline class="st2" points="363.8,23.9 365.1,23.9 365,23.7 363.8,23.7 363.8,23.9 			"/>
			<polyline class="st2" points="364.9,26.3 366.1,26.3 366,26.1 364.8,26.1 364.9,26.3 			"/>
			<polyline class="st2" points="362.8,26.1 362.8,26.3 364,26.3 364,26.1 362.8,26.1 			"/>
			<polyline class="st2" points="362.2,27.5 366.7,27.5 366.6,27.3 362.3,27.3 362.2,27.5 			"/>
			<polyline class="st2" points="364,23.3 364.8,23.3 364.7,23.1 364.1,23.1 364,23.3 			"/>
			<polyline class="st2" points="363.5,24.5 365.3,24.5 365.3,24.3 363.6,24.3 363.5,24.5 			"/>
			<polyline class="st2" points="364.2,25.7 364.2,25.5 363.1,25.5 363,25.7 364.2,25.7 			"/>
			<polyline class="st2" points="364.7,25.7 365.9,25.7 365.8,25.5 364.6,25.5 364.7,25.7 			"/>
			<polyline class="st2" points="362.5,26.9 366.4,26.9 366.3,26.7 362.6,26.7 362.5,26.9 			"/>
			<polyline class="st2" points="362.1,27.9 362,28.1 363.3,28.1 363.3,27.9 362.1,27.9 			"/>
			<polyline class="st2" points="365.5,27.9 365.6,28.1 366.9,28.1 366.8,27.9 365.5,27.9 			"/>
			<path class="st2" d="M356.5,22.5h-1.7v0.2h2.7C357.2,22.6,356.9,22.5,356.5,22.5"/>
			<rect x="354.8" y="24.9" class="st2" width="1.2" height="0.2"/>
			<path class="st2" d="M358.2,25.1h1.2c0-0.1,0-0.1,0-0.2h-1.3C358.2,25,358.2,25,358.2,25.1"/>
			<path class="st2" d="M359,23.9c0-0.1-0.1-0.1-0.1-0.2h-4.1v0.2H359"/>
			<polyline class="st2" points="356,26.1 354.8,26.1 354.8,26.3 356,26.3 356,26.1 			"/>
			<path class="st2" d="M358.1,26.3h1.3c0-0.1,0-0.1,0-0.2h-1.2C358.2,26.2,358.2,26.2,358.1,26.3"/>
			<path class="st2" d="M356.7,27.3c0,0-0.1,0-0.1,0H356l0,0h-1.2v0.2h4c0-0.1,0.1-0.1,0.1-0.2H356.7"/>
			<path class="st2" d="M358.5,23.3c-0.1-0.1-0.1-0.1-0.2-0.2h-3.5v0.2H358.5"/>
			<rect x="354.8" y="24.3" class="st2" width="1.2" height="0.2"/>
			<path class="st2" d="M357.9,24.5h1.4c0-0.1,0-0.1-0.1-0.2h-1.5C357.8,24.4,357.9,24.4,357.9,24.5"/>
			<polyline class="st2" points="356,25.5 354.8,25.5 354.8,25.7 356,25.7 356,25.5 			"/>
			<path class="st2" d="M358.3,25.6c0,0,0,0.1,0,0.1h1.2c0,0,0-0.1,0-0.1c0,0,0,0,0,0L358.3,25.6C358.3,25.5,358.3,25.5,358.3,25.6"
				/>
			<path class="st2" d="M357.9,26.7c0,0.1-0.1,0.1-0.2,0.2h1.5c0-0.1,0.1-0.1,0.1-0.2H357.9"/>
			<polyline class="st2" points="354.8,26.7 354.8,26.9 356,26.9 356,26.7 354.8,26.7 			"/>
			<path class="st2" d="M354.8,27.9v0.2h3.3c0.1,0,0.2-0.1,0.3-0.2H354.8"/>
			<path class="st2" d="M356,27.3h0.6c0,0,0.1,0,0.1,0H356L356,27.3"/>
		</g>
		<g>
			<path class="st10" d="M347.8,18.3c-0.2,0.1-0.3,0.1-0.4,0.2c-0.1,0.1-0.3,0.1-0.5,0.2c-0.2,0.1-0.4,0.1-0.6,0.1
				c-0.2,0-0.4,0.1-0.7,0.1c-0.5,0-0.9-0.1-1.3-0.2c-0.4-0.1-0.7-0.4-1-0.6s-0.5-0.6-0.7-1.1c-0.2-0.4-0.2-0.9-0.2-1.5
				c0-0.5,0.1-1,0.2-1.5s0.4-0.8,0.7-1.1s0.6-0.5,1-0.7c0.4-0.2,0.9-0.2,1.3-0.2c0.4,0,0.7,0,1.1,0.1c0.4,0.1,0.8,0.2,1.2,0.4v1.1
				h-0.1c-0.4-0.3-0.7-0.5-1.1-0.7c-0.4-0.1-0.8-0.2-1.2-0.2c-0.3,0-0.6,0-0.9,0.2c-0.3,0.1-0.5,0.3-0.7,0.5
				c-0.2,0.2-0.4,0.5-0.5,0.9c-0.1,0.3-0.2,0.7-0.2,1.2c0,0.5,0.1,0.9,0.2,1.2s0.3,0.6,0.5,0.8c0.2,0.2,0.4,0.4,0.7,0.5
				c0.3,0.1,0.6,0.2,0.9,0.2c0.4,0,0.8-0.1,1.2-0.2c0.4-0.1,0.7-0.4,1-0.7h0.1L347.8,18.3L347.8,18.3z"/>
			<path class="st10" d="M351.8,14.7L351.8,14.7c-0.2,0-0.3,0-0.4-0.1c-0.1,0-0.3,0-0.4,0c-0.3,0-0.5,0.1-0.8,0.2
				c-0.2,0.1-0.5,0.3-0.7,0.4v3.5h-0.9v-5h0.9v0.7c0.3-0.3,0.6-0.5,0.9-0.6c0.3-0.1,0.5-0.2,0.8-0.2c0.1,0,0.3,0,0.3,0
				c0.1,0,0.2,0,0.3,0L351.8,14.7L351.8,14.7z"/>
			<path class="st10" d="M356.6,16.3h-3.7c0,0.3,0,0.6,0.1,0.8s0.2,0.4,0.4,0.6c0.2,0.1,0.3,0.3,0.6,0.3c0.2,0.1,0.4,0.1,0.7,0.1
				c0.3,0,0.7-0.1,1-0.2c0.4-0.1,0.6-0.3,0.7-0.4h0v0.9c-0.3,0.1-0.6,0.2-0.9,0.3c-0.3,0.1-0.6,0.1-0.9,0.1c-0.8,0-1.5-0.2-1.9-0.7
				c-0.5-0.4-0.7-1.1-0.7-1.9c0-0.8,0.2-1.5,0.7-2c0.4-0.5,1-0.7,1.8-0.7c0.7,0,1.2,0.2,1.6,0.6c0.4,0.4,0.5,0.9,0.5,1.7L356.6,16.3
				L356.6,16.3z M355.8,15.7c0-0.4-0.1-0.8-0.3-1c-0.2-0.2-0.5-0.4-1-0.4s-0.8,0.1-1.1,0.4c-0.3,0.3-0.4,0.6-0.4,1
				C352.9,15.7,355.8,15.7,355.8,15.7z"/>
			<path class="st10" d="M361.5,18.8h-0.8v-0.5c-0.1,0-0.2,0.1-0.3,0.2c-0.1,0.1-0.3,0.2-0.4,0.2c-0.1,0.1-0.3,0.1-0.5,0.2
				c-0.2,0-0.4,0.1-0.6,0.1c-0.4,0-0.8-0.1-1.2-0.4c-0.3-0.3-0.5-0.7-0.5-1.1c0-0.4,0.1-0.7,0.2-0.9c0.2-0.2,0.4-0.4,0.7-0.5
				c0.3-0.1,0.7-0.2,1.1-0.3c0.4,0,0.9-0.1,1.4-0.1v-0.1c0-0.2,0-0.4-0.1-0.5s-0.2-0.2-0.3-0.3c-0.1-0.1-0.3-0.1-0.4-0.1
				c-0.2,0-0.3,0-0.5,0c-0.2,0-0.5,0-0.7,0.1c-0.3,0.1-0.5,0.1-0.9,0.3h0v-0.9c0.2,0,0.4-0.1,0.7-0.1c0.3,0,0.6-0.1,0.9-0.1
				c0.4,0,0.7,0,0.9,0.1c0.3,0.1,0.5,0.2,0.7,0.3c0.2,0.1,0.3,0.3,0.4,0.5c0.1,0.2,0.1,0.5,0.1,0.8L361.5,18.8L361.5,18.8z
				 M360.7,17.5v-1.4c-0.3,0-0.6,0-0.9,0.1c-0.4,0-0.6,0.1-0.8,0.1c-0.2,0.1-0.4,0.2-0.6,0.3c-0.1,0.1-0.2,0.3-0.2,0.6
				c0,0.3,0.1,0.5,0.3,0.6c0.2,0.1,0.4,0.2,0.8,0.2c0.3,0,0.6-0.1,0.8-0.2C360.2,17.8,360.4,17.7,360.7,17.5z"/>
			<path class="st10" d="M365.4,18.7c-0.2,0-0.3,0.1-0.5,0.1c-0.2,0-0.4,0-0.5,0c-0.5,0-0.9-0.1-1.2-0.4c-0.3-0.3-0.4-0.7-0.4-1.3
				v-2.7h-0.6v-0.7h0.6v-1.4h0.9v1.4h1.7v0.7h-1.7v2.3c0,0.3,0,0.5,0,0.6c0,0.1,0,0.3,0.1,0.4c0.1,0.1,0.2,0.2,0.3,0.3
				c0.1,0,0.3,0.1,0.5,0.1c0.1,0,0.3,0,0.4-0.1c0.1,0,0.3-0.1,0.3-0.1h0L365.4,18.7L365.4,18.7z"/>
			<path class="st10" d="M367,12.9H366V12h0.9V12.9z M366.9,18.8h-0.9v-5h0.9V18.8z"/>
			<path class="st10" d="M372.6,13.8l-2,5h-0.9l-2-5h0.9l1.6,4l1.5-4H372.6z"/>
			<path class="st10" d="M377.4,16.3h-3.7c0,0.3,0,0.6,0.1,0.8s0.2,0.4,0.4,0.6c0.2,0.1,0.3,0.3,0.6,0.3c0.2,0.1,0.4,0.1,0.7,0.1
				c0.3,0,0.7-0.1,1-0.2c0.4-0.1,0.6-0.3,0.7-0.4h0v0.9c-0.3,0.1-0.6,0.2-0.9,0.3c-0.3,0.1-0.6,0.1-0.9,0.1c-0.8,0-1.5-0.2-1.9-0.7
				c-0.5-0.4-0.7-1.1-0.7-1.9c0-0.8,0.2-1.5,0.7-2c0.4-0.5,1-0.7,1.8-0.7c0.7,0,1.2,0.2,1.6,0.6c0.4,0.4,0.5,0.9,0.5,1.7L377.4,16.3
				L377.4,16.3z M376.6,15.7c0-0.4-0.1-0.8-0.3-1c-0.2-0.2-0.5-0.4-1-0.4s-0.8,0.1-1.1,0.4c-0.3,0.3-0.4,0.6-0.4,1
				C373.7,15.7,376.6,15.7,376.6,15.7z"/>
		</g>
		<g>
			<path class="st10" d="M385.6,18.6h-4.4V12h4.4v0.8h-3.5v1.8h3.5v0.8h-3.5v2.5h3.5V18.6z"/>
			<path class="st10" d="M390.7,18.6h-0.9v-0.6c-0.3,0.2-0.6,0.4-0.8,0.5c-0.3,0.1-0.5,0.2-0.9,0.2c-0.5,0-0.9-0.2-1.2-0.5
				c-0.3-0.3-0.4-0.8-0.4-1.4v-3.2h0.9v2.9c0,0.3,0,0.5,0,0.7c0,0.2,0.1,0.3,0.2,0.5c0.1,0.1,0.2,0.2,0.3,0.3s0.3,0.1,0.6,0.1
				c0.2,0,0.4-0.1,0.7-0.2c0.3-0.1,0.5-0.3,0.7-0.4v-3.8h0.9L390.7,18.6L390.7,18.6z"/>
			<path class="st10" d="M395.1,14.5L395.1,14.5c-0.2,0-0.3,0-0.4-0.1c-0.1,0-0.3,0-0.4,0c-0.3,0-0.5,0.1-0.8,0.2s-0.5,0.3-0.7,0.4
				v3.5H392v-5h0.9v0.7c0.3-0.3,0.6-0.5,0.9-0.6c0.3-0.1,0.5-0.2,0.8-0.2c0.1,0,0.3,0,0.3,0c0.1,0,0.2,0,0.3,0L395.1,14.5
				L395.1,14.5z"/>
			<path class="st10" d="M400,16.1c0,0.8-0.2,1.5-0.6,1.9c-0.4,0.5-1,0.7-1.7,0.7s-1.3-0.2-1.7-0.7c-0.4-0.5-0.6-1.1-0.6-1.9
				c0-0.8,0.2-1.5,0.6-1.9s1-0.7,1.7-0.7s1.3,0.2,1.7,0.7C399.8,14.7,400,15.3,400,16.1z M399.2,16.1c0-0.6-0.1-1.1-0.4-1.4
				c-0.3-0.3-0.6-0.5-1.1-0.5c-0.4,0-0.8,0.2-1.1,0.5c-0.3,0.3-0.4,0.8-0.4,1.4c0,0.6,0.1,1.1,0.4,1.4c0.3,0.3,0.6,0.5,1.1,0.5
				c0.4,0,0.8-0.2,1.1-0.5C399.1,17.3,399.2,16.8,399.2,16.1z"/>
			<path class="st10" d="M405.5,16.1c0,0.4-0.1,0.8-0.2,1.1s-0.3,0.6-0.5,0.9c-0.2,0.2-0.4,0.4-0.7,0.5c-0.3,0.1-0.5,0.2-0.9,0.2
				c-0.3,0-0.5,0-0.7-0.1c-0.2-0.1-0.4-0.1-0.6-0.3v2.1H401v-6.9h0.9v0.5c0.2-0.2,0.5-0.4,0.8-0.5c0.3-0.1,0.6-0.2,0.9-0.2
				c0.6,0,1.1,0.2,1.4,0.7C405.3,14.6,405.5,15.3,405.5,16.1z M404.6,16.1c0-0.6-0.1-1.1-0.3-1.3c-0.2-0.3-0.5-0.4-0.9-0.4
				c-0.2,0-0.5,0-0.7,0.2c-0.2,0.1-0.5,0.2-0.7,0.4v2.8c0.2,0.1,0.4,0.2,0.6,0.2c0.2,0,0.4,0.1,0.6,0.1c0.5,0,0.8-0.2,1.1-0.5
				C404.5,17.2,404.6,16.7,404.6,16.1z"/>
			<path class="st10" d="M410.7,16.2H407c0,0.3,0,0.6,0.1,0.8c0.1,0.2,0.2,0.4,0.4,0.6c0.2,0.1,0.3,0.3,0.6,0.3
				c0.2,0.1,0.4,0.1,0.7,0.1c0.3,0,0.7-0.1,1-0.2c0.4-0.1,0.6-0.3,0.7-0.4h0v0.9c-0.3,0.1-0.6,0.2-0.9,0.3c-0.3,0.1-0.6,0.1-0.9,0.1
				c-0.8,0-1.5-0.2-1.9-0.7c-0.5-0.4-0.7-1.1-0.7-1.9c0-0.8,0.2-1.5,0.7-2c0.4-0.5,1-0.7,1.8-0.7c0.7,0,1.2,0.2,1.6,0.6
				c0.4,0.4,0.5,0.9,0.5,1.7L410.7,16.2L410.7,16.2z M409.9,15.6c0-0.4-0.1-0.8-0.3-1c-0.2-0.2-0.5-0.4-1-0.4s-0.8,0.1-1.1,0.4
				c-0.3,0.3-0.4,0.6-0.4,1C407,15.6,409.9,15.6,409.9,15.6z"/>
		</g>
		<g>
			<path class="st10" d="M347.8,8.7c-0.2,0.1-0.3,0.1-0.4,0.2s-0.3,0.1-0.5,0.2c-0.2,0.1-0.4,0.1-0.6,0.1c-0.2,0-0.4,0.1-0.7,0.1
				c-0.5,0-0.9-0.1-1.3-0.2c-0.4-0.1-0.7-0.4-1-0.6c-0.3-0.3-0.5-0.6-0.7-1.1c-0.2-0.4-0.2-0.9-0.2-1.5c0-0.5,0.1-1,0.2-1.5
				c0.2-0.4,0.4-0.8,0.7-1.1s0.6-0.5,1-0.7c0.4-0.2,0.9-0.2,1.3-0.2c0.4,0,0.7,0,1.1,0.1c0.4,0.1,0.8,0.2,1.2,0.4v1h-0.1
				c-0.4-0.3-0.7-0.5-1.1-0.7c-0.4-0.1-0.8-0.2-1.2-0.2c-0.3,0-0.6,0-0.9,0.2c-0.3,0.1-0.5,0.3-0.7,0.5c-0.2,0.2-0.4,0.5-0.5,0.9
				c-0.1,0.3-0.2,0.7-0.2,1.2c0,0.5,0.1,0.9,0.2,1.2s0.3,0.6,0.5,0.8c0.2,0.2,0.4,0.4,0.7,0.5c0.3,0.1,0.6,0.2,0.9,0.2
				c0.4,0,0.8-0.1,1.2-0.2s0.7-0.4,1-0.7h0.1L347.8,8.7L347.8,8.7z"/>
			<path class="st10" d="M353.1,6.7c0,1.9-1.3,2.7-2.5,2.7c-1.4,0-2.4-1-2.4-2.6c0-1.7,1.1-2.7,2.5-2.7
				C352.1,4.1,353.1,5.1,353.1,6.7z M349.1,6.7c0,1.1,0.6,1.9,1.5,1.9c0.9,0,1.5-0.8,1.5-2c0-0.9-0.4-1.9-1.5-1.9
				C349.5,4.8,349.1,5.8,349.1,6.7z"/>
			<path class="st10" d="M356.5,6.1v0.7h-2.6V6.1C353.9,6.1,356.5,6.1,356.5,6.1z"/>
			<path class="st10" d="M357.7,9.2V4.9H357V4.2h0.7V4c0-0.7,0.2-1.3,0.6-1.8c0.3-0.3,0.8-0.5,1.2-0.5c0.3,0,0.6,0.1,0.8,0.1
				l-0.1,0.7c-0.1-0.1-0.3-0.1-0.6-0.1c-0.8,0-1,0.7-1,1.5v0.3h1.2v0.7h-1.2v4.3C358.6,9.2,357.7,9.2,357.7,9.2z"/>
			<path class="st10" d="M364.8,7.9c0,0.5,0,1,0,1.4h-0.8l0-0.8h0c-0.2,0.4-0.8,0.9-1.7,0.9c-0.8,0-1.7-0.4-1.7-2.2V4.2h0.9V7
				c0,1,0.3,1.6,1.1,1.6c0.6,0,1-0.4,1.2-0.8c0-0.1,0.1-0.3,0.1-0.5V4.2h0.9V7.9L364.8,7.9z"/>
			<path class="st10" d="M366.3,5.6c0-0.5,0-0.9,0-1.4h0.8l0,0.8h0c0.3-0.5,0.8-0.9,1.7-0.9c0.7,0,1.8,0.4,1.8,2.2v3h-0.9V6.3
				c0-0.8-0.3-1.5-1.2-1.5c-0.6,0-1.1,0.4-1.2,0.9c0,0.1-0.1,0.3-0.1,0.4v3h-0.9L366.3,5.6L366.3,5.6z"/>
			<path class="st10" d="M376.5,1.8v6.1c0,0.4,0,1,0,1.3h-0.8l0-0.9h0c-0.3,0.6-0.9,1-1.7,1c-1.2,0-2.2-1-2.2-2.6
				c0-1.7,1-2.7,2.3-2.7c0.8,0,1.3,0.4,1.5,0.8h0v-3H376.5z M375.6,6.2c0-0.1,0-0.3,0-0.4c-0.1-0.6-0.6-1.1-1.3-1.1
				c-0.9,0-1.5,0.8-1.5,1.9c0,1,0.5,1.9,1.5,1.9c0.6,0,1.2-0.4,1.3-1.1c0-0.1,0-0.3,0-0.4L375.6,6.2L375.6,6.2z"/>
			<path class="st10" d="M378.5,6.9c0,1.2,0.8,1.7,1.7,1.7c0.7,0,1.1-0.1,1.4-0.3l0.2,0.7c-0.3,0.1-0.9,0.3-1.7,0.3
				c-1.6,0-2.5-1-2.5-2.5c0-1.5,0.9-2.7,2.4-2.7c1.6,0,2.1,1.4,2.1,2.4c0,0.2,0,0.3,0,0.4L378.5,6.9L378.5,6.9z M381.2,6.2
				c0-0.6-0.2-1.5-1.3-1.5c-0.9,0-1.3,0.9-1.4,1.5H381.2z"/>
			<path class="st10" d="M387.6,1.8v6.1c0,0.4,0,1,0,1.3h-0.8l0-0.9h0c-0.3,0.6-0.9,1-1.7,1c-1.2,0-2.2-1-2.2-2.6
				c0-1.7,1-2.7,2.3-2.7c0.8,0,1.3,0.4,1.5,0.8h0v-3H387.6z M386.6,6.2c0-0.1,0-0.3,0-0.4c-0.1-0.6-0.6-1.1-1.3-1.1
				c-0.9,0-1.5,0.8-1.5,1.9c0,1,0.5,1.9,1.5,1.9c0.6,0,1.2-0.4,1.3-1.1c0-0.1,0-0.3,0-0.4L386.6,6.2L386.6,6.2z"/>
			<path class="st10" d="M391.3,9.2c0-0.3,0-0.9,0-1.3V1.8h0.9V5h0c0.3-0.6,0.9-0.9,1.7-0.9c1.3,0,2.1,1,2.1,2.6
				c0,1.8-1.1,2.7-2.3,2.7c-0.7,0-1.3-0.3-1.7-0.9h0l0,0.8L391.3,9.2L391.3,9.2z M392.2,7.2c0,0.1,0,0.2,0,0.3
				c0.2,0.6,0.7,1.1,1.4,1.1c1,0,1.5-0.8,1.5-1.9c0-1-0.5-1.9-1.5-1.9c-0.6,0-1.2,0.4-1.4,1.1c0,0.1,0,0.2,0,0.4L392.2,7.2
				L392.2,7.2z"/>
			<path class="st10" d="M397.5,4.2l1.1,3c0.1,0.3,0.2,0.7,0.3,1h0c0.1-0.3,0.2-0.7,0.3-1.1l1-3h1l-1.4,3.6
				c-0.7,1.7-1.1,2.6-1.7,3.2c-0.4,0.4-0.9,0.5-1.1,0.6l-0.2-0.8c0.2-0.1,0.5-0.2,0.8-0.4c0.3-0.2,0.6-0.5,0.8-1
				c0-0.1,0.1-0.2,0.1-0.2c0,0,0-0.1-0.1-0.2l-1.9-4.6L397.5,4.2L397.5,4.2z"/>
		</g>
	</g>
	<g>
		<g>
			<g>
				<path class="st11" d="M506.2,6c3.6,0.3,6.9,1.5,9.7,3.3c0,0,0.1,0.1,0.2,0.1c-3.6-5.1-9.4-8.7-16.2-9.4
					c-6-0.5-11.6,1.3-15.9,4.7c3.3,0.7,6.2,2.3,8.3,4.6C496.3,6.8,501.1,5.6,506.2,6z"/>
				<path class="st12" d="M519.9,20.1C519.9,20.1,519.9,20.1,519.9,20.1C519.9,20.1,519.9,20.1,519.9,20.1
					C519.9,20.1,519.9,20.1,519.9,20.1z"/>
				<path class="st13" d="M519.9,20.4c0-0.1,0-0.4,0-0.4c-0.3-3.8-1.7-7.4-3.8-10.5c-0.1-0.1-0.2-0.1-0.2-0.1
					c-2.8-1.8-6.1-3-9.7-3.3c-5-0.5-9.9,0.8-13.8,3.3c2.5,2.6,4.1,5.9,4.4,9.6c0.1,0.9,0.1,1.9,0,2.8c-0.1,1.5-0.5,2.9-1,4.3
					c-0.9,2.4-2.5,4.6-4.4,6.2l0,0c7.3-4.3,16.4-6.1,25.4-4.7c-0.8,0.8-2,1.4-3,1.9c1.2-0.3,5.5-2,5.5-2.1c0,0,0,0,0,0h0
					C519.3,27.3,520.3,24.1,519.9,20.4z"/>
				<path class="st12" d="M519.5,19.9c-2.8-1.9-5.2-3.1-10.1-3.5c-3.8-0.3-7.4,0.3-10.6,1.6c0.1,0.9,0.1,1.8,0,2.8
					c-0.4,4.6-2.8,8.4-6.3,10.9c9-5.2,17.2-5.9,24.1-4.8c0.5,0.1,1.9,0.3,2.5,0.5C519.9,23.3,519.6,20.6,519.5,19.9z"/>
			</g>
			<g>
				<rect x="497.3" y="33.6" width="0.4" height="3.3"/>
				<path d="M498.5,36.9v-2.4h0.4v0.3c0.2-0.3,0.4-0.4,0.8-0.4c0.1,0,0.3,0,0.4,0.1c0.1,0.1,0.2,0.1,0.3,0.2
					c0.1,0.1,0.1,0.2,0.1,0.3c0,0.1,0,0.2,0,0.4v1.5H500v-1.5c0-0.2,0-0.3,0-0.4c0-0.1-0.1-0.1-0.2-0.2c-0.1,0-0.2-0.1-0.3-0.1
					c-0.2,0-0.3,0.1-0.5,0.2c-0.1,0.1-0.2,0.3-0.2,0.6v1.3H498.5z"/>
				<path d="M501.7,36.9l-0.9-2.4h0.4l0.5,1.4c0.1,0.2,0.1,0.3,0.2,0.5c0-0.1,0.1-0.3,0.2-0.5l0.5-1.5h0.4l-0.9,2.4H501.7z"/>
				<path d="M505,36.1l0.4,0.1c-0.1,0.2-0.2,0.4-0.4,0.6c-0.2,0.1-0.4,0.2-0.7,0.2c-0.4,0-0.6-0.1-0.8-0.3c-0.2-0.2-0.3-0.5-0.3-0.9
					c0-0.4,0.1-0.7,0.3-0.9c0.2-0.2,0.5-0.3,0.8-0.3c0.3,0,0.6,0.1,0.8,0.3c0.2,0.2,0.3,0.5,0.3,0.9c0,0,0,0.1,0,0.1h-1.8
					c0,0.3,0.1,0.5,0.2,0.6c0.1,0.1,0.3,0.2,0.5,0.2c0.1,0,0.3,0,0.4-0.1C504.9,36.4,505,36.3,505,36.1L505,36.1z M503.7,35.5h1.3
					c0-0.2-0.1-0.4-0.2-0.5c-0.1-0.2-0.3-0.2-0.5-0.2c-0.2,0-0.3,0.1-0.5,0.2C503.8,35.1,503.7,35.2,503.7,35.5z"/>
				<path d="M505.8,36.2l0.4-0.1c0,0.2,0.1,0.3,0.2,0.4c0.1,0.1,0.2,0.1,0.4,0.1c0.2,0,0.3,0,0.4-0.1c0.1-0.1,0.1-0.2,0.1-0.3
					c0-0.1,0-0.2-0.1-0.2c-0.1,0-0.2-0.1-0.4-0.1c-0.3-0.1-0.5-0.1-0.6-0.2c-0.1-0.1-0.2-0.1-0.3-0.2c-0.1-0.1-0.1-0.2-0.1-0.3
					c0-0.1,0-0.2,0.1-0.3c0-0.1,0.1-0.2,0.2-0.2c0.1,0,0.2-0.1,0.3-0.1c0.1,0,0.2,0,0.4,0c0.2,0,0.4,0,0.5,0.1
					c0.1,0.1,0.2,0.1,0.3,0.2c0.1,0.1,0.1,0.2,0.1,0.4l-0.4,0.1c0-0.1-0.1-0.2-0.2-0.3c-0.1-0.1-0.2-0.1-0.4-0.1
					c-0.2,0-0.3,0-0.4,0.1c-0.1,0.1-0.1,0.1-0.1,0.2c0,0.1,0,0.1,0.1,0.1c0,0,0.1,0.1,0.2,0.1c0,0,0.2,0,0.4,0.1
					c0.3,0.1,0.5,0.1,0.6,0.2c0.1,0,0.2,0.1,0.3,0.2c0.1,0.1,0.1,0.2,0.1,0.3c0,0.1,0,0.3-0.1,0.4c-0.1,0.1-0.2,0.2-0.3,0.3
					c-0.1,0.1-0.3,0.1-0.5,0.1c-0.3,0-0.6-0.1-0.7-0.2S505.8,36.4,505.8,36.2z"/>
				<path d="M509.2,36.5l0.1,0.4c-0.1,0-0.2,0-0.3,0c-0.1,0-0.3,0-0.3-0.1c-0.1,0-0.1-0.1-0.2-0.2c0-0.1-0.1-0.2-0.1-0.5v-1.4h-0.3
					v-0.3h0.3v-0.6l0.4-0.2v0.8h0.4v0.3h-0.4v1.4c0,0.1,0,0.2,0,0.2c0,0,0,0.1,0.1,0.1c0,0,0.1,0,0.1,0
					C509,36.5,509.1,36.5,509.2,36.5z"/>
				<path d="M509.6,34v-0.5h0.4V34H509.6L509.6,34z M509.6,36.9v-2.4h0.4v2.4H509.6z"/>
				<path d="M510.6,36.9v-2.4h0.4v0.3c0.2-0.3,0.4-0.4,0.8-0.4c0.1,0,0.3,0,0.4,0.1c0.1,0.1,0.2,0.1,0.3,0.2
					c0.1,0.1,0.1,0.2,0.1,0.3c0,0.1,0,0.2,0,0.4v1.5h-0.4v-1.5c0-0.2,0-0.3,0-0.4c0-0.1-0.1-0.1-0.2-0.2c-0.1,0-0.2-0.1-0.3-0.1
					c-0.2,0-0.3,0.1-0.5,0.2c-0.1,0.1-0.2,0.3-0.2,0.6v1.3H510.6z"/>
				<path d="M513.1,37.1l0.4,0.1c0,0.1,0.1,0.2,0.1,0.3c0.1,0.1,0.2,0.1,0.4,0.1c0.2,0,0.3,0,0.4-0.1c0.1-0.1,0.2-0.2,0.2-0.3
					c0-0.1,0-0.3,0-0.5c-0.2,0.2-0.4,0.3-0.7,0.3c-0.3,0-0.6-0.1-0.8-0.4c-0.2-0.2-0.3-0.5-0.3-0.9c0-0.2,0-0.4,0.1-0.6
					c0.1-0.2,0.2-0.3,0.4-0.5c0.2-0.1,0.3-0.2,0.6-0.2c0.3,0,0.5,0.1,0.7,0.3v-0.3h0.4v2.1c0,0.4,0,0.6-0.1,0.8
					c-0.1,0.2-0.2,0.3-0.4,0.4c-0.2,0.1-0.4,0.1-0.6,0.1c-0.3,0-0.5-0.1-0.7-0.2C513.2,37.5,513.1,37.3,513.1,37.1L513.1,37.1z
					 M513.5,35.6c0,0.3,0.1,0.5,0.2,0.7c0.1,0.1,0.3,0.2,0.5,0.2c0.2,0,0.3-0.1,0.5-0.2c0.1-0.1,0.2-0.4,0.2-0.7
					c0-0.3-0.1-0.5-0.2-0.7c-0.1-0.1-0.3-0.2-0.5-0.2c-0.2,0-0.3,0.1-0.5,0.2C513.5,35.1,513.5,35.3,513.5,35.6z"/>
				<path d="M492.9,38.8v-0.5h0.4v0.5H492.9L492.9,38.8z M492.9,41.6v-2.4h0.4v2.4H492.9z"/>
				<path d="M493.9,41.6v-2.4h0.4v0.3c0.2-0.3,0.4-0.4,0.8-0.4c0.1,0,0.3,0,0.4,0.1c0.1,0.1,0.2,0.1,0.3,0.2
					c0.1,0.1,0.1,0.2,0.1,0.3c0,0.1,0,0.2,0,0.4v1.5h-0.4v-1.5c0-0.2,0-0.3,0-0.4c0-0.1-0.1-0.1-0.2-0.2c-0.1,0-0.2-0.1-0.3-0.1
					c-0.2,0-0.3,0.1-0.5,0.2c-0.1,0.1-0.2,0.3-0.2,0.6v1.3H493.9z"/>
				<path d="M497.8,42.5l0-0.4c0.1,0,0.2,0,0.2,0c0.1,0,0.2,0,0.2,0c0.1,0,0.1-0.1,0.1-0.1c0,0,0.1-0.1,0.1-0.3c0,0,0-0.1,0-0.1
					l-0.9-2.4h0.4l0.5,1.4c0.1,0.2,0.1,0.4,0.2,0.6c0-0.2,0.1-0.4,0.2-0.5l0.5-1.4h0.4l-0.9,2.5c-0.1,0.3-0.2,0.4-0.2,0.5
					c-0.1,0.1-0.2,0.2-0.2,0.3c-0.1,0.1-0.2,0.1-0.3,0.1C498,42.6,497.9,42.6,497.8,42.5z"/>
				<path d="M500,40.4c0-0.4,0.1-0.8,0.4-1c0.2-0.2,0.5-0.3,0.8-0.3c0.3,0,0.6,0.1,0.8,0.3c0.2,0.2,0.3,0.5,0.3,0.9
					c0,0.3,0,0.6-0.1,0.7c-0.1,0.2-0.2,0.3-0.4,0.4c-0.2,0.1-0.4,0.1-0.6,0.1c-0.3,0-0.6-0.1-0.8-0.3C500.1,41.1,500,40.8,500,40.4
					L500,40.4z M500.4,40.4c0,0.3,0.1,0.5,0.2,0.7c0.1,0.2,0.3,0.2,0.5,0.2c0.2,0,0.4-0.1,0.5-0.2c0.1-0.2,0.2-0.4,0.2-0.7
					c0-0.3-0.1-0.5-0.2-0.7c-0.1-0.2-0.3-0.2-0.5-0.2c-0.2,0-0.4,0.1-0.5,0.2C500.5,39.9,500.4,40.1,500.4,40.4z"/>
				<path d="M504.3,41.6v-0.4c-0.2,0.3-0.4,0.4-0.8,0.4c-0.1,0-0.3,0-0.4-0.1c-0.1-0.1-0.2-0.1-0.3-0.2c-0.1-0.1-0.1-0.2-0.1-0.3
					c0-0.1,0-0.2,0-0.4v-1.5h0.4v1.3c0,0.2,0,0.4,0,0.4c0,0.1,0.1,0.2,0.2,0.3c0.1,0.1,0.2,0.1,0.3,0.1c0.1,0,0.2,0,0.3-0.1
					c0.1-0.1,0.2-0.1,0.2-0.3c0-0.1,0.1-0.3,0.1-0.5v-1.3h0.4v2.4H504.3z"/>
				<path d="M505.3,41.6v-2.4h0.4v0.4c0.1-0.2,0.2-0.3,0.3-0.3c0.1-0.1,0.2-0.1,0.3-0.1c0.1,0,0.3,0,0.4,0.1l-0.1,0.4
					c-0.1-0.1-0.2-0.1-0.3-0.1c-0.1,0-0.2,0-0.2,0.1c-0.1,0.1-0.1,0.1-0.2,0.2c0,0.1-0.1,0.3-0.1,0.5v1.3H505.3z"/>
				<path d="M508.2,41.6v-2.1h-0.4v-0.3h0.4v-0.3c0-0.2,0-0.3,0-0.4c0-0.1,0.1-0.2,0.2-0.3c0.1-0.1,0.2-0.1,0.4-0.1
					c0.1,0,0.2,0,0.4,0l-0.1,0.4c-0.1,0-0.2,0-0.2,0c-0.1,0-0.2,0-0.3,0.1c-0.1,0.1-0.1,0.2-0.1,0.3v0.2h0.5v0.3h-0.5v2.1H508.2z"/>
				<path d="M511,41.6v-0.4c-0.2,0.3-0.4,0.4-0.8,0.4c-0.1,0-0.3,0-0.4-0.1c-0.1-0.1-0.2-0.1-0.3-0.2c-0.1-0.1-0.1-0.2-0.1-0.3
					c0-0.1,0-0.2,0-0.4v-1.5h0.4v1.3c0,0.2,0,0.4,0,0.4c0,0.1,0.1,0.2,0.2,0.3c0.1,0.1,0.2,0.1,0.3,0.1c0.1,0,0.2,0,0.3-0.1
					c0.1-0.1,0.2-0.1,0.2-0.3c0-0.1,0.1-0.3,0.1-0.5v-1.3h0.4v2.4H511z"/>
				<path d="M512.9,41.3l0.1,0.4c-0.1,0-0.2,0-0.3,0c-0.1,0-0.3,0-0.3-0.1c-0.1,0-0.1-0.1-0.2-0.2c0-0.1-0.1-0.2-0.1-0.5v-1.4h-0.3
					v-0.3h0.3v-0.6l0.4-0.2v0.8h0.4v0.3h-0.4v1.4c0,0.1,0,0.2,0,0.2c0,0,0,0.1,0.1,0.1c0,0,0.1,0,0.1,0
					C512.8,41.3,512.8,41.3,512.9,41.3z"/>
				<path d="M514.9,41.6v-0.4c-0.2,0.3-0.4,0.4-0.8,0.4c-0.1,0-0.3,0-0.4-0.1c-0.1-0.1-0.2-0.1-0.3-0.2c-0.1-0.1-0.1-0.2-0.1-0.3
					c0-0.1,0-0.2,0-0.4v-1.5h0.4v1.3c0,0.2,0,0.4,0,0.4c0,0.1,0.1,0.2,0.2,0.3c0.1,0.1,0.2,0.1,0.3,0.1c0.1,0,0.2,0,0.3-0.1
					c0.1-0.1,0.2-0.1,0.2-0.3c0-0.1,0.1-0.3,0.1-0.5v-1.3h0.4v2.4H514.9z"/>
				<path d="M515.9,41.6v-2.4h0.4v0.4c0.1-0.2,0.2-0.3,0.3-0.3c0.1-0.1,0.2-0.1,0.3-0.1c0.1,0,0.3,0,0.4,0.1l-0.1,0.4
					c-0.1-0.1-0.2-0.1-0.3-0.1c-0.1,0-0.2,0-0.2,0.1c-0.1,0.1-0.1,0.1-0.2,0.2c0,0.1-0.1,0.3-0.1,0.5v1.3H515.9z"/>
				<path d="M519.1,40.8l0.4,0.1c-0.1,0.2-0.2,0.4-0.4,0.6c-0.2,0.1-0.4,0.2-0.7,0.2c-0.4,0-0.6-0.1-0.8-0.3
					c-0.2-0.2-0.3-0.5-0.3-0.9c0-0.4,0.1-0.7,0.3-0.9c0.2-0.2,0.5-0.3,0.8-0.3c0.3,0,0.6,0.1,0.8,0.3c0.2,0.2,0.3,0.5,0.3,0.9
					c0,0,0,0.1,0,0.1h-1.8c0,0.3,0.1,0.5,0.2,0.6c0.1,0.1,0.3,0.2,0.5,0.2c0.1,0,0.3,0,0.4-0.1C519,41.1,519,41,519.1,40.8
					L519.1,40.8z M517.8,40.2h1.3c0-0.2-0.1-0.4-0.2-0.5c-0.1-0.2-0.3-0.2-0.5-0.2c-0.2,0-0.3,0.1-0.5,0.2
					C517.9,39.8,517.8,40,517.8,40.2z"/>
			</g>
		</g>
		<g>
			<path class="st14" d="M437.3,34.8L438,35c-0.1,0.4-0.3,0.6-0.5,0.8c-0.2,0.2-0.5,0.3-0.9,0.3c-0.5,0-0.8-0.2-1.1-0.5
				c-0.3-0.3-0.4-0.7-0.4-1.3c0-0.6,0.1-1,0.4-1.3c0.3-0.3,0.7-0.5,1.2-0.5c0.4,0,0.8,0.1,1,0.4c0.2,0.1,0.3,0.4,0.3,0.6l-0.7,0.2
				c0-0.2-0.1-0.3-0.3-0.4c-0.1-0.1-0.3-0.2-0.5-0.2c-0.3,0-0.5,0.1-0.6,0.3c-0.2,0.2-0.2,0.5-0.2,0.9c0,0.4,0.1,0.7,0.2,0.9
				c0.2,0.2,0.4,0.3,0.6,0.3c0.2,0,0.3-0.1,0.5-0.2C437.2,35.2,437.3,35,437.3,34.8z"/>
			<path class="st14" d="M438.4,34.8c0-0.2,0.1-0.4,0.2-0.6c0.1-0.2,0.3-0.4,0.5-0.5c0.2-0.1,0.4-0.2,0.7-0.2c0.4,0,0.7,0.1,0.9,0.4
				c0.2,0.2,0.4,0.5,0.4,0.9c0,0.4-0.1,0.7-0.4,0.9c-0.2,0.2-0.5,0.4-0.9,0.4c-0.2,0-0.4-0.1-0.6-0.2c-0.2-0.1-0.4-0.3-0.5-0.4
				C438.5,35.3,438.4,35.1,438.4,34.8z M439.1,34.8c0,0.2,0.1,0.4,0.2,0.6c0.1,0.1,0.3,0.2,0.4,0.2s0.3-0.1,0.4-0.2
				c0.1-0.1,0.2-0.3,0.2-0.6c0-0.2-0.1-0.4-0.2-0.6c-0.1-0.1-0.3-0.2-0.4-0.2s-0.3,0.1-0.4,0.2S439.1,34.6,439.1,34.8z"/>
			<path class="st14" d="M441.4,35.1v-0.7h1.3v0.7H441.4z"/>
			<path class="st14" d="M442.8,33.6h0.4v-0.2c0-0.2,0-0.4,0.1-0.5c0-0.1,0.1-0.2,0.2-0.2c0.1-0.1,0.3-0.1,0.4-0.1
				c0.2,0,0.4,0,0.5,0.1l-0.1,0.5c-0.1,0-0.2,0-0.3,0c-0.1,0-0.2,0-0.2,0.1c0,0-0.1,0.1-0.1,0.3v0.2h0.5v0.5h-0.5v2h-0.7v-2h-0.4
				V33.6z"/>
			<path class="st14" d="M446.3,36.1v-0.4c-0.1,0.1-0.2,0.2-0.4,0.3c-0.1,0.1-0.3,0.1-0.5,0.1c-0.2,0-0.3,0-0.4-0.1
				c-0.1-0.1-0.2-0.2-0.3-0.3c-0.1-0.1-0.1-0.3-0.1-0.5v-1.6h0.7v1.1c0,0.3,0,0.6,0,0.6c0,0.1,0.1,0.1,0.1,0.2
				c0.1,0,0.1,0.1,0.2,0.1c0.1,0,0.2,0,0.3-0.1c0.1-0.1,0.1-0.1,0.2-0.2c0-0.1,0-0.3,0-0.7v-1h0.7v2.5H446.3z"/>
			<path class="st14" d="M449.8,36.1h-0.7v-1.3c0-0.3,0-0.4,0-0.5c0-0.1-0.1-0.1-0.1-0.2c-0.1,0-0.1-0.1-0.2-0.1
				c-0.1,0-0.2,0-0.3,0.1c-0.1,0.1-0.2,0.1-0.2,0.2c0,0.1,0,0.3,0,0.6v1.1h-0.7v-2.5h0.6v0.4c0.2-0.3,0.5-0.4,0.8-0.4
				c0.1,0,0.3,0,0.4,0.1c0.1,0.1,0.2,0.1,0.3,0.2c0.1,0.1,0.1,0.2,0.1,0.3c0,0.1,0,0.2,0,0.4V36.1z"/>
			<path class="st14" d="M452.7,36.1h-0.6v-0.4c-0.1,0.1-0.2,0.2-0.4,0.3c-0.1,0.1-0.3,0.1-0.4,0.1c-0.3,0-0.5-0.1-0.7-0.3
				c-0.2-0.2-0.3-0.5-0.3-1c0-0.4,0.1-0.7,0.3-1c0.2-0.2,0.4-0.3,0.7-0.3c0.3,0,0.5,0.1,0.7,0.3v-1.2h0.7V36.1z M451,34.8
				c0,0.3,0,0.5,0.1,0.6c0.1,0.2,0.3,0.3,0.4,0.3c0.2,0,0.3-0.1,0.4-0.2c0.1-0.1,0.2-0.3,0.2-0.6c0-0.3-0.1-0.5-0.2-0.6
				c-0.1-0.1-0.2-0.2-0.4-0.2c-0.2,0-0.3,0.1-0.4,0.2C451.1,34.3,451,34.5,451,34.8z"/>
			<path class="st14" d="M454.8,35.3l0.7,0.1c-0.1,0.2-0.2,0.4-0.4,0.5c-0.2,0.1-0.4,0.2-0.7,0.2c-0.4,0-0.7-0.1-1-0.4
				c-0.2-0.2-0.2-0.5-0.2-0.9c0-0.4,0.1-0.7,0.3-1c0.2-0.2,0.5-0.3,0.8-0.3c0.4,0,0.7,0.1,0.9,0.4c0.2,0.2,0.3,0.6,0.3,1.1h-1.6
				c0,0.2,0.1,0.3,0.2,0.5c0.1,0.1,0.2,0.2,0.4,0.2c0.1,0,0.2,0,0.3-0.1C454.7,35.5,454.8,35.4,454.8,35.3z M454.9,34.6
				c0-0.2-0.1-0.3-0.1-0.4c-0.1-0.1-0.2-0.1-0.3-0.1c-0.1,0-0.3,0.1-0.4,0.2c-0.1,0.1-0.1,0.2-0.1,0.4H454.9z"/>
			<path class="st14" d="M458.3,36.1h-0.6v-0.4c-0.1,0.1-0.2,0.2-0.4,0.3c-0.1,0.1-0.3,0.1-0.4,0.1c-0.3,0-0.5-0.1-0.7-0.3
				c-0.2-0.2-0.3-0.5-0.3-1c0-0.4,0.1-0.7,0.3-1c0.2-0.2,0.4-0.3,0.7-0.3c0.3,0,0.5,0.1,0.7,0.3v-1.2h0.7V36.1z M456.6,34.8
				c0,0.3,0,0.5,0.1,0.6c0.1,0.2,0.3,0.3,0.4,0.3c0.2,0,0.3-0.1,0.4-0.2c0.1-0.1,0.2-0.3,0.2-0.6c0-0.3-0.1-0.5-0.2-0.6
				c-0.1-0.1-0.2-0.2-0.4-0.2c-0.2,0-0.3,0.1-0.4,0.2C456.6,34.3,456.6,34.5,456.6,34.8z"/>
			<path class="st14" d="M460.2,36.1v-3.4h0.7v1.2c0.2-0.2,0.4-0.3,0.7-0.3c0.3,0,0.5,0.1,0.7,0.3c0.2,0.2,0.3,0.5,0.3,0.9
				c0,0.4-0.1,0.7-0.3,1c-0.2,0.2-0.4,0.3-0.7,0.3c-0.1,0-0.3,0-0.4-0.1c-0.1-0.1-0.3-0.2-0.4-0.3v0.4H460.2z M460.9,34.8
				c0,0.3,0,0.4,0.1,0.6c0.1,0.2,0.3,0.3,0.5,0.3c0.1,0,0.3-0.1,0.4-0.2c0.1-0.1,0.2-0.3,0.2-0.6c0-0.3-0.1-0.5-0.2-0.6
				c-0.1-0.1-0.2-0.2-0.4-0.2c-0.2,0-0.3,0.1-0.4,0.2C460.9,34.3,460.9,34.5,460.9,34.8z"/>
			<path class="st14" d="M462.9,33.6h0.7l0.6,1.8l0.6-1.8h0.7l-0.9,2.4l-0.2,0.4c-0.1,0.1-0.1,0.3-0.2,0.3c-0.1,0.1-0.1,0.1-0.2,0.2
				c-0.1,0-0.2,0.1-0.2,0.1c-0.1,0-0.2,0-0.3,0c-0.1,0-0.2,0-0.4,0l-0.1-0.5c0.1,0,0.2,0,0.3,0c0.2,0,0.3,0,0.3-0.1
				c0.1-0.1,0.1-0.2,0.2-0.3L462.9,33.6z"/>
			<path class="st14" d="M429.7,39.3v0.5h-0.4v1c0,0.2,0,0.3,0,0.4c0,0,0,0.1,0.1,0.1c0,0,0.1,0,0.1,0c0.1,0,0.1,0,0.3-0.1l0.1,0.5
				c-0.2,0.1-0.3,0.1-0.5,0.1c-0.1,0-0.2,0-0.3-0.1c-0.1,0-0.2-0.1-0.2-0.2c0-0.1-0.1-0.1-0.1-0.3c0-0.1,0-0.2,0-0.5v-1.1h-0.3v-0.5
				h0.3v-0.5l0.7-0.4v0.9H429.7z"/>
			<path class="st14" d="M430.8,38.4v1.3c0.2-0.2,0.5-0.4,0.8-0.4c0.2,0,0.3,0,0.4,0.1s0.2,0.1,0.3,0.2c0.1,0.1,0.1,0.2,0.1,0.3
				s0,0.3,0,0.5v1.4h-0.7v-1.3c0-0.3,0-0.4,0-0.5c0-0.1-0.1-0.1-0.1-0.2c-0.1,0-0.1-0.1-0.2-0.1c-0.1,0-0.2,0-0.3,0.1
				s-0.1,0.1-0.2,0.2c0,0.1-0.1,0.3-0.1,0.5v1.2h-0.7v-3.4H430.8z"/>
			<path class="st14" d="M434.5,41l0.7,0.1c-0.1,0.2-0.2,0.4-0.4,0.5c-0.2,0.1-0.4,0.2-0.7,0.2c-0.4,0-0.7-0.1-1-0.4
				c-0.2-0.2-0.2-0.5-0.2-0.9c0-0.4,0.1-0.7,0.3-1c0.2-0.2,0.5-0.3,0.8-0.3c0.4,0,0.7,0.1,0.9,0.4c0.2,0.2,0.3,0.6,0.3,1.1h-1.6
				c0,0.2,0.1,0.3,0.2,0.5c0.1,0.1,0.2,0.2,0.4,0.2c0.1,0,0.2,0,0.3-0.1C434.4,41.2,434.4,41.1,434.5,41z M434.5,40.3
				c0-0.2-0.1-0.3-0.1-0.4c-0.1-0.1-0.2-0.1-0.3-0.1c-0.1,0-0.3,0.1-0.4,0.2s-0.1,0.2-0.1,0.4H434.5z"/>
			<path class="st14" d="M437,41.8v-3.4h2.5v0.6h-1.8v0.8h1.7v0.6h-1.7v0.9h1.9v0.6H437z"/>
			<path class="st14" d="M441.8,41.8v-0.4c-0.1,0.1-0.2,0.2-0.4,0.3c-0.1,0.1-0.3,0.1-0.5,0.1c-0.2,0-0.3,0-0.4-0.1
				c-0.1-0.1-0.2-0.2-0.3-0.3c-0.1-0.1-0.1-0.3-0.1-0.5v-1.6h0.7v1.1c0,0.3,0,0.6,0,0.6c0,0.1,0.1,0.1,0.1,0.2
				c0.1,0,0.1,0.1,0.2,0.1c0.1,0,0.2,0,0.3-0.1c0.1-0.1,0.1-0.1,0.2-0.2c0-0.1,0-0.3,0-0.7v-1h0.7v2.5H441.8z"/>
			<path class="st14" d="M443.7,41.8h-0.7v-2.5h0.6v0.4c0.1-0.2,0.2-0.3,0.3-0.3c0.1-0.1,0.2-0.1,0.3-0.1c0.1,0,0.3,0,0.4,0.1
				l-0.2,0.6c-0.1-0.1-0.2-0.1-0.3-0.1c-0.1,0-0.2,0-0.2,0.1c-0.1,0.1-0.1,0.1-0.1,0.3c0,0.1-0.1,0.4-0.1,0.8V41.8z"/>
			<path class="st14" d="M444.8,40.5c0-0.2,0.1-0.4,0.2-0.6c0.1-0.2,0.3-0.4,0.5-0.5c0.2-0.1,0.4-0.2,0.7-0.2c0.4,0,0.7,0.1,0.9,0.4
				c0.2,0.2,0.4,0.5,0.4,0.9c0,0.4-0.1,0.7-0.4,0.9c-0.2,0.2-0.5,0.4-0.9,0.4c-0.2,0-0.4-0.1-0.6-0.2c-0.2-0.1-0.4-0.3-0.5-0.4
				C444.8,41,444.8,40.8,444.8,40.5z M445.5,40.5c0,0.2,0.1,0.4,0.2,0.6c0.1,0.1,0.3,0.2,0.4,0.2s0.3-0.1,0.4-0.2
				c0.1-0.1,0.2-0.3,0.2-0.6c0-0.2-0.1-0.4-0.2-0.6c-0.1-0.1-0.3-0.2-0.4-0.2s-0.3,0.1-0.4,0.2C445.5,40.1,445.5,40.3,445.5,40.5z"
				/>
			<path class="st14" d="M447.8,39.3h0.6v0.4c0.1-0.1,0.2-0.2,0.3-0.3c0.1-0.1,0.3-0.1,0.4-0.1c0.3,0,0.5,0.1,0.7,0.3
				c0.2,0.2,0.3,0.5,0.3,0.9c0,0.4-0.1,0.7-0.3,1c-0.2,0.2-0.4,0.3-0.7,0.3c-0.1,0-0.3,0-0.4-0.1c-0.1-0.1-0.2-0.1-0.3-0.3v1.2h-0.7
				V39.3z M448.5,40.5c0,0.3,0.1,0.5,0.2,0.6c0.1,0.1,0.2,0.2,0.4,0.2c0.2,0,0.3-0.1,0.4-0.2c0.1-0.1,0.2-0.3,0.2-0.6
				c0-0.3-0.1-0.5-0.2-0.6c-0.1-0.1-0.2-0.2-0.4-0.2c-0.2,0-0.3,0.1-0.4,0.2C448.5,40.1,448.5,40.2,448.5,40.5z"/>
			<path class="st14" d="M452.2,41l0.7,0.1c-0.1,0.2-0.2,0.4-0.4,0.5c-0.2,0.1-0.4,0.2-0.7,0.2c-0.4,0-0.7-0.1-1-0.4
				c-0.2-0.2-0.2-0.5-0.2-0.9c0-0.4,0.1-0.7,0.3-1c0.2-0.2,0.5-0.3,0.8-0.3c0.4,0,0.7,0.1,0.9,0.4c0.2,0.2,0.3,0.6,0.3,1.1h-1.6
				c0,0.2,0.1,0.3,0.2,0.5c0.1,0.1,0.2,0.2,0.4,0.2c0.1,0,0.2,0,0.3-0.1C452.1,41.2,452.1,41.1,452.2,41z M452.2,40.3
				c0-0.2-0.1-0.3-0.1-0.4c-0.1-0.1-0.2-0.1-0.3-0.1c-0.1,0-0.3,0.1-0.4,0.2c-0.1,0.1-0.1,0.2-0.1,0.4H452.2z"/>
			<path class="st14" d="M453.9,40l-0.6-0.1c0.1-0.2,0.2-0.4,0.3-0.5c0.2-0.1,0.4-0.2,0.7-0.2c0.3,0,0.5,0,0.7,0.1
				c0.1,0.1,0.2,0.2,0.3,0.3c0.1,0.1,0.1,0.3,0.1,0.6l0,0.8c0,0.2,0,0.4,0,0.5c0,0.1,0.1,0.2,0.1,0.3h-0.6c0,0,0-0.1-0.1-0.2
				c0,0,0-0.1,0-0.1c-0.1,0.1-0.2,0.2-0.4,0.2c-0.1,0.1-0.3,0.1-0.4,0.1c-0.3,0-0.5-0.1-0.6-0.2c-0.1-0.1-0.2-0.3-0.2-0.5
				c0-0.1,0-0.3,0.1-0.4c0.1-0.1,0.2-0.2,0.3-0.3c0.1-0.1,0.3-0.1,0.5-0.2c0.3-0.1,0.5-0.1,0.6-0.2v-0.1c0-0.1,0-0.2-0.1-0.3
				c-0.1-0.1-0.2-0.1-0.4-0.1c-0.1,0-0.2,0-0.3,0.1C454,39.9,453.9,39.9,453.9,40z M454.8,40.6c-0.1,0-0.2,0.1-0.4,0.1
				c-0.2,0-0.3,0.1-0.4,0.1c-0.1,0.1-0.1,0.1-0.1,0.2c0,0.1,0,0.2,0.1,0.2s0.2,0.1,0.3,0.1c0.1,0,0.2,0,0.3-0.1
				c0.1-0.1,0.1-0.1,0.2-0.2c0-0.1,0-0.2,0-0.3V40.6z"/>
			<path class="st14" d="M458.3,41.8h-0.7v-1.3c0-0.3,0-0.4,0-0.5c0-0.1-0.1-0.1-0.1-0.2c-0.1,0-0.1-0.1-0.2-0.1
				c-0.1,0-0.2,0-0.3,0.1c-0.1,0.1-0.2,0.1-0.2,0.2c0,0.1-0.1,0.3-0.1,0.6v1.1H456v-2.5h0.6v0.4c0.2-0.3,0.5-0.4,0.8-0.4
				c0.1,0,0.3,0,0.4,0.1c0.1,0.1,0.2,0.1,0.3,0.2c0.1,0.1,0.1,0.2,0.1,0.3c0,0.1,0,0.2,0,0.4V41.8z"/>
			<path class="st14" d="M460.3,38.4h0.7v1.8c0,0.3,0,0.5,0,0.6c0,0.1,0.1,0.3,0.2,0.3c0.1,0.1,0.3,0.1,0.5,0.1c0.2,0,0.3,0,0.4-0.1
				c0.1-0.1,0.2-0.2,0.2-0.3c0-0.1,0-0.3,0-0.6v-1.9h0.7v1.8c0,0.4,0,0.7-0.1,0.9c0,0.2-0.1,0.3-0.2,0.4c-0.1,0.1-0.2,0.2-0.4,0.3
				c-0.2,0.1-0.4,0.1-0.7,0.1c-0.3,0-0.6,0-0.7-0.1c-0.2-0.1-0.3-0.2-0.4-0.3c-0.1-0.1-0.2-0.2-0.2-0.4c0-0.2-0.1-0.5-0.1-0.9V38.4z
				"/>
			<path class="st14" d="M466,41.8h-0.7v-1.3c0-0.3,0-0.4,0-0.5c0-0.1-0.1-0.1-0.1-0.2c-0.1,0-0.1-0.1-0.2-0.1c-0.1,0-0.2,0-0.3,0.1
				c-0.1,0.1-0.2,0.1-0.2,0.2c0,0.1,0,0.3,0,0.6v1.1h-0.7v-2.5h0.6v0.4c0.2-0.3,0.5-0.4,0.8-0.4c0.1,0,0.3,0,0.4,0.1
				c0.1,0.1,0.2,0.1,0.3,0.2c0.1,0.1,0.1,0.2,0.1,0.3c0,0.1,0,0.2,0,0.4V41.8z"/>
			<path class="st14" d="M466.6,39v-0.6h0.7V39H466.6z M466.6,41.8v-2.5h0.7v2.5H466.6z"/>
			<path class="st14" d="M467.8,40.5c0-0.2,0.1-0.4,0.2-0.6c0.1-0.2,0.3-0.4,0.5-0.5c0.2-0.1,0.4-0.2,0.7-0.2c0.4,0,0.7,0.1,0.9,0.4
				c0.2,0.2,0.4,0.5,0.4,0.9c0,0.4-0.1,0.7-0.4,0.9c-0.2,0.2-0.5,0.4-0.9,0.4c-0.2,0-0.4-0.1-0.6-0.2c-0.2-0.1-0.4-0.3-0.5-0.4
				C467.8,41,467.8,40.8,467.8,40.5z M468.5,40.5c0,0.2,0.1,0.4,0.2,0.6c0.1,0.1,0.3,0.2,0.4,0.2s0.3-0.1,0.4-0.2
				c0.1-0.1,0.2-0.3,0.2-0.6c0-0.2-0.1-0.4-0.2-0.6c-0.1-0.1-0.3-0.2-0.4-0.2s-0.3,0.1-0.4,0.2C468.5,40.1,468.5,40.3,468.5,40.5z"
				/>
			<path class="st14" d="M473.1,41.8h-0.7v-1.3c0-0.3,0-0.4,0-0.5c0-0.1-0.1-0.1-0.1-0.2c-0.1,0-0.1-0.1-0.2-0.1
				c-0.1,0-0.2,0-0.3,0.1c-0.1,0.1-0.2,0.1-0.2,0.2c0,0.1-0.1,0.3-0.1,0.6v1.1h-0.7v-2.5h0.6v0.4c0.2-0.3,0.5-0.4,0.8-0.4
				c0.1,0,0.3,0,0.4,0.1c0.1,0.1,0.2,0.1,0.3,0.2c0.1,0.1,0.1,0.2,0.1,0.3c0,0.1,0,0.2,0,0.4V41.8z"/>
		</g>
		<g>
			<g>
				<rect x="430.7" y="1.9" class="st2" width="39.9" height="26.6"/>
				<g>
					<polygon class="st3" points="450.7,4.8 451,5.8 452,5.8 451.2,6.5 451.5,7.5 450.7,6.8 449.8,7.5 450.1,6.5 449.2,5.8 
						450.3,5.8 					"/>
				</g>
				<g>
					<polygon class="st3" points="446.2,6 446.5,7 447.6,7 446.8,7.6 447.1,8.7 446.2,8 445.3,8.7 445.7,7.6 444.8,7 445.9,7 					
						"/>
				</g>
				<g>
					<polygon class="st3" points="443,9.2 443.3,10.3 444.4,10.3 443.5,10.9 443.8,11.9 443,11.3 442.1,11.9 442.4,10.9 441.6,10.3 
						442.6,10.3 					"/>
				</g>
				<g>
					<polygon class="st3" points="441.8,13.7 442.1,14.7 443.2,14.7 442.3,15.3 442.6,16.3 441.8,15.7 440.9,16.3 441.3,15.3 
						440.4,14.7 441.5,14.7 					"/>
				</g>
				<g>
					<polygon class="st3" points="443,18.1 443.3,19.1 444.4,19.1 443.5,19.8 443.8,20.8 443,20.1 442.1,20.8 442.4,19.8 
						441.6,19.1 442.6,19.1 					"/>
				</g>
				<g>
					<polygon class="st3" points="446.2,21.4 446.5,22.4 447.6,22.4 446.8,23 447.1,24 446.2,23.4 445.3,24 445.7,23 444.8,22.4 
						445.9,22.4 					"/>
				</g>
				<g>
					<polygon class="st3" points="450.7,22.5 451,23.6 452,23.6 451.2,24.2 451.5,25.2 450.7,24.6 449.8,25.2 450.1,24.2 
						449.2,23.6 450.3,23.6 					"/>
				</g>
				<g>
					<polygon class="st3" points="455.1,21.4 455.4,22.4 456.5,22.4 455.6,23 455.9,24 455.1,23.4 454.2,24 454.6,23 453.7,22.4 
						454.7,22.4 					"/>
				</g>
				<g>
					<polygon class="st3" points="458.3,18.1 458.6,19.1 459.7,19.1 458.9,19.8 459.2,20.8 458.3,20.1 457.4,20.8 457.8,19.8 
						456.9,19.1 458,19.1 					"/>
				</g>
				<g>
					<polygon class="st3" points="459.5,13.7 459.8,14.7 460.9,14.7 460,15.3 460.4,16.3 459.5,15.7 458.6,16.3 459,15.3 
						458.1,14.7 459.2,14.7 					"/>
				</g>
				<g>
					<polygon class="st3" points="458.3,9.2 458.6,10.3 459.7,10.3 458.9,10.9 459.2,11.9 458.3,11.3 457.4,11.9 457.8,10.9 
						456.9,10.3 458,10.3 					"/>
				</g>
				<g>
					<polygon class="st3" points="455.1,6 455.4,7 456.5,7 455.6,7.6 455.9,8.7 455.1,8 454.2,8.7 454.6,7.6 453.7,7 454.7,7 					
						"/>
				</g>
			</g>
		</g>
	</g>
</g>
</svg>
