<?xml version="1.0" encoding="utf-8"?>
<!-- Generator: Adobe Illustrator 26.0.3, SVG Export Plug-In . SVG Version: 6.00 Build 0)  -->
<svg version="1.1" id="Layer_1" xmlns="http://www.w3.org/2000/svg" xmlns:xlink="http://www.w3.org/1999/xlink" x="0px" y="0px"
	 viewBox="0 0 443 48.8" style="enable-background:new 0 0 443 48.8;" xml:space="preserve">
<style type="text/css">
	.st0{fill:#29333A;}
	.st1{fill:#FFCC00;}
	.st2{fill:#0066CC;}
</style>
<path class="st0" d="M61.2,8v15.2h-3.5V8H61.2z"/>
<path class="st0" d="M66.9,14.4v8.7h-3.5V8h3.1l2.5,3.7l3.3,5h0.2V8H76v15.2h-3.1l-3.1-4.6l-2.7-4.1h-0.2
	C66.9,14.5,66.9,14.4,66.9,14.4z"/>
<path class="st0" d="M83.8,23.2H78V8h5.8c3.1,0,5.5,1.5,5.5,4.8v5.5C89.3,21.6,86.5,23.2,83.8,23.2z M85.8,13.5
	c0-1.7-1.3-2.4-2.4-2.4h-1.9v9h1.8c1.1,0,2.4-0.6,2.4-2.4L85.8,13.5L85.8,13.5z"/>
<path class="st0" d="M97.1,23.3c-3,0-5.9-1.6-5.9-4.9V8h3.5v9.8c0,1.7,1.3,2.4,2.4,2.4s2.4-0.6,2.4-2.4V8h3.5v10.3
	C103,21.7,100,23.3,97.1,23.3z"/>
<path class="st0" d="M110.3,23.3c-2.2,0-4.1-0.4-6-2.1l2-2.6c1.3,1,2.6,1.5,3.9,1.5c1.9,0,2.5-0.8,2.5-1.4c0-0.9-0.8-1.3-3.4-2
	c-2.8-0.8-4.4-1.8-4.4-4.4c0-2.8,2.3-4.5,5.5-4.5c1.7,0,3.5,0.2,5.3,1.4l-1.6,2.8c-1.4-0.9-2.6-1-3.8-1c-1.1,0-1.9,0.4-1.9,1.2
	s0.8,1.2,3.3,1.9c3.9,1.1,4.5,2.7,4.5,4.6C116.3,21.8,113.6,23.3,110.3,23.3z"/>
<path class="st0" d="M124.4,11.1v12h-3.5v-12H117V8h11.2v3.1H124.4z"/>
<path class="st0" d="M136.4,8c3.3,0,4.6,2.4,4.6,4.8c0,1.6-1,3.3-2.5,4.2l2.7,6.2h-3.7l-2.3-5.6H133v5.6h-3.5V8H136.4z M133.1,14.5
	h2.6c1.3,0,1.8-0.8,1.8-1.7s-0.6-1.7-1.8-1.7h-2.6V14.5z"/>
<path class="st0" d="M147.6,13.9l1.1-2.6l1.4-3.3h3.7l-4.6,9.2v6h-3.5v-6L141.2,8h3.7l1.5,3.4l1.1,2.5H147.6z"/>
<path class="st0" d="M162,14.4h1.7v-0.2c0-0.6-0.4-1-1.3-1c-0.6,0-1.3,0.1-2.2,0.7l-1.2-1.8c1.3-1,2.5-1.2,3.5-1.2
	c2.2,0,3.7,1.1,3.7,3.5V17c0,0.6,0.6,0.6,0.7,0.6c0.6,0,1.8-0.7,1.8-2.9c0-3.1-1.9-5.4-5.8-5.4c-4.1,0-6.7,2.8-6.7,6
	c0,3.3,2.4,6.1,6.1,6.1c0.7,0,1.5,0,2.8-0.5l0.7,2c-1,0.5-2.7,0.7-3.7,0.7c-5.1,0-8.3-3.6-8.3-8.2c0-4.7,3.7-8.3,9.1-8.3
	c5.5,0,8.2,3.4,8.2,7.6c0,2.9-1.9,5.3-4.6,5.3c-0.8,0-2-0.1-2.6-1c-0.9,0.6-1.9,0.9-2.5,0.9c-2,0-2.8-1.3-2.8-2.7
	C158.6,15.1,160.7,14.4,162,14.4z M163.7,16.2h-1.6c-0.4,0-0.9,0.1-0.9,0.6c0,0.3,0.3,0.6,0.8,0.6c0.8,0,1.3-0.3,1.6-0.5L163.7,16.2
	L163.7,16.2z"/>
<path class="st0" d="M179.4,11.1v12h-3.5v-12H172V8h11.2v3.1H179.4z"/>
<path class="st0" d="M191.5,20.2h-4.9l-0.9,3h-3.8L187.3,8h3.6l5.3,15.2h-3.7L191.5,20.2z M187.5,17.3h3.1l-0.3-1l-1.2-4.2H189
	l-1.2,4.2L187.5,17.3z"/>
<path class="st0" d="M197.5,23.2V8h3.5v12h7.2v3.1h-10.7V23.2z"/>
<path class="st0" d="M209.4,23.2V8h3.5v12h7.2v3.1h-10.7V23.2z"/>
<path class="st0" d="M225,8v15.2h-3.5V8H225z"/>
<path class="st0" d="M230.7,14.4v8.7h-3.5V8h3.1l2.5,3.7l3.3,5h0.1V8h3.5v15.2h-3.1l-3.1-4.6l-2.7-4.1h-0.1V14.4z"/>
<path class="st0" d="M245.3,14.4v8.7h-3.5V8h3.1l2.5,3.7l3.3,5h0.1V8h3.5v15.2h-3.1l-3.1-4.6l-2.7-4.1h-0.1V14.4z"/>
<path class="st0" d="M69.7,43.2c0.9,0.8,2,1.5,3.3,2.1l-1.2,2.2c-1.3-0.4-3.2-1.7-4.2-2.7c-0.8,0.7-2.4,1.4-3.9,1.4
	c-2.7,0-4.9-1.7-4.9-4.5c0-2,1.5-3.5,3-4.4c-0.4-0.7-0.7-1.4-0.7-2.4c0-2,1.3-3.5,3.4-3.5c2,0,3.5,1.4,3.5,3.2
	c0,1.7-1.2,2.8-2.4,3.6c0.7,1.1,1.5,2.1,2.3,3.1c1.3-1.5,2-3.5,2-5.2c0-3.1-2-5.7-5.4-5.7c-3.1,0-5,1.9-5,4.1c0,0.8,0.1,1.7,0.9,2.9
	l-2.2,1.4c-1-1.5-1.3-2.9-1.3-4.1c0-3.5,2.9-6.8,7.6-6.8c5.2,0,8.1,3.7,8.1,8.2C72.5,38.6,71.5,41.2,69.7,43.2z M63.4,39.4
	c-1,0.6-1.9,1.3-1.9,2.2c0,1.3,0.8,2,2,2c0.7,0,1.5-0.2,2.4-0.7C65.1,42.1,63.9,40.4,63.4,39.4z M64.5,33.9c-0.4,0-0.7,0.4-0.7,0.9
	c0,0.4,0.2,0.7,0.5,1.2c0.7-0.4,1-0.8,1-1.3C65.4,34.3,65,33.9,64.5,33.9z"/>
<path class="st0" d="M87.3,45.9h-7.4V30.8H87c3.2,0,4.4,1.9,4.4,4.2c0,1.1-0.6,2.4-1.9,3c1.5,0.7,2.2,2.3,2.2,3.4
	C91.7,44,90.2,45.9,87.3,45.9z M86.1,33.9h-2.6v2.8h2.6c1.2,0,1.7-0.6,1.7-1.3C87.8,34.5,87.4,33.9,86.1,33.9z M86.2,39.6h-2.8v3.2
	h2.8c1.1,0,1.7-0.6,1.7-1.6C88,40.3,87.4,39.6,86.2,39.6z"/>
<path class="st0" d="M101.8,42.9h-4.9l-0.9,3h-3.8l5.3-15.2h3.6l5.3,15.2h-3.7L101.8,42.9z M97.8,40.1h3.1l-0.3-1l-1.2-4.2h-0.1
	L98.1,39L97.8,40.1z"/>
<path class="st0" d="M107.8,45.9V30.8h3.5v12h7.2v3.1L107.8,45.9z"/>
<path class="st0" d="M124.5,33.9v12H121v-12h-3.9v-3.1h11.2v3.1H124.5z"/>
<path class="st0" d="M133.3,30.8V46h-3.5V30.8H133.3z"/>
<path class="st0" d="M144.5,34.9c-1-0.9-2.1-1.1-3-1.1c-1.1,0-2.5,0.6-2.5,2.4v4.3c0,1.7,1.4,2.4,2.5,2.4c0.9,0,1.9-0.2,3-1.1
	l1.7,2.7c-1.2,1-3,1.5-4.8,1.5c-2.8,0-5.9-1.5-5.9-4.8v-5.7c0-3.3,3-4.9,5.9-4.9c1.8,0,3.7,0.5,4.8,1.5L144.5,34.9z"/>
<path class="st0" d="M152.9,30.8h10.6v3.1h-7.1v2.8h6.1v3.1h-6.1v3h7.1v3.1h-10.6V30.8z"/>
<path class="st0" d="M171.4,40.8l1.5-5.5l1.3-4.6h3.7l-4.8,15.2h-3.6l-4.9-15.2h3.7l1.4,4.7l1.5,5.4H171.4z"/>
<path class="st0" d="M179.2,30.8h10.6v3.1h-7.1v2.8h6.1v3.1h-6.1v3h7.1v3.1h-10.6V30.8z"/>
<path class="st0" d="M195,37.2v8.7h-3.5V30.8h3.1l2.5,3.7l3.3,5h0.1v-8.7h3.5V46h-3.1l-3.1-4.6l-2.7-4.1H195V37.2z"/>
<path class="st0" d="M212.7,33.9v12h-3.5v-12h-3.9v-3.1h11.2v3.1H212.7z"/>
<g>
	<path class="st0" d="M264.4,31.8c0.6,0.7,0.9,1.7,0.9,2.8s-0.3,2.1-0.9,2.8s-1.3,1.1-2.3,1.1h-2.4c-0.1,0-0.1,0-0.1,0.1v6.6
		c0,0.1-0.1,0.2-0.2,0.2H259c-0.1,0-0.2-0.1-0.2-0.2V31c0-0.1,0.1-0.2,0.2-0.2h3.1C263,30.8,263.8,31.1,264.4,31.8z M263.8,36.9
		c0.4-0.6,0.7-1.3,0.7-2.3s-0.2-1.7-0.7-2.3c-0.4-0.6-1-0.9-1.8-0.9h-2.3c-0.1,0-0.1,0-0.1,0.1v6.1c0,0.1,0,0.1,0.1,0.1h2.3
		C262.7,37.8,263.3,37.5,263.8,36.9z"/>
	<path class="st0" d="M268.3,44.6c-0.6-0.6-0.9-1.5-0.9-2.5V34c0-1,0.3-1.9,0.9-2.5c0.6-0.6,1.4-0.9,2.4-0.9s1.8,0.3,2.4,1
		c0.6,0.6,0.9,1.5,0.9,2.5v8.1c0,1-0.3,1.8-0.9,2.5c-0.6,0.6-1.4,0.9-2.4,0.9S268.9,45.3,268.3,44.6z M272.5,44.1
		c0.5-0.5,0.7-1.1,0.7-1.9V34c0-0.8-0.2-1.4-0.7-1.9s-1.1-0.7-1.8-0.7c-0.7,0-1.3,0.2-1.8,0.7s-0.7,1.1-0.7,1.9v8.2
		c0,0.8,0.2,1.4,0.7,1.9s1.1,0.7,1.8,0.7C271.5,44.8,272.1,44.6,272.5,44.1z"/>
	<path class="st0" d="M278.7,45.2L276,31l0,0c0-0.1,0.1-0.2,0.2-0.2h0.4c0.1,0,0.2,0.1,0.2,0.2l2.3,12.5l0,0l0,0L281,31
		c0-0.1,0.1-0.2,0.2-0.2h0.4c0.1,0,0.2,0.1,0.2,0.2l2,12.5l0,0l0,0l2.1-12.5c0-0.1,0.1-0.2,0.2-0.2h0.4c0.1,0,0.1,0,0.2,0.1
		c0,0,0,0.1,0,0.2l-2.6,14.2c0,0.1-0.1,0.2-0.2,0.2h-0.4c-0.1,0-0.2-0.1-0.2-0.2l-2-12.4l0,0l0,0l-2,12.4c0,0.1-0.1,0.2-0.2,0.2
		h-0.4C278.8,45.4,278.7,45.3,278.7,45.2z"/>
	<path class="st0" d="M295.4,31.5h-5c-0.1,0-0.1,0-0.1,0.1v6c0,0.1,0,0.1,0.1,0.1h3.3c0.1,0,0.2,0.1,0.2,0.2v0.3
		c0,0.1-0.1,0.2-0.2,0.2h-3.3c-0.1,0-0.1,0-0.1,0.1v6c0,0.1,0,0.1,0.1,0.1h5c0.1,0,0.2,0.1,0.2,0.2v0.3c0,0.1-0.1,0.2-0.2,0.2h-5.7
		c-0.1,0-0.2-0.1-0.2-0.2V31c0-0.1,0.1-0.2,0.2-0.2h5.7c0.1,0,0.2,0.1,0.2,0.2v0.3C295.6,31.5,295.5,31.5,295.4,31.5z"/>
	<path class="st0" d="M304,45.2l-2.4-6.8c0,0,0-0.1-0.1-0.1h-2.3c-0.1,0-0.1,0-0.1,0.1v6.7c0,0.1-0.1,0.2-0.2,0.2h-0.4
		c-0.1,0-0.2-0.1-0.2-0.2V31c0-0.1,0.1-0.2,0.2-0.2h3.1c0.9,0,1.7,0.4,2.3,1.1c0.6,0.7,0.9,1.6,0.9,2.8c0,1-0.2,1.8-0.6,2.4
		s-1,1.1-1.7,1.3c-0.1,0-0.1,0.1-0.1,0.1l2.4,6.8v0.1c0,0.1-0.1,0.1-0.2,0.1h-0.4C304.1,45.4,304,45.3,304,45.2z M299.1,31.6v6
		c0,0.1,0,0.1,0.1,0.1h2.3c0.7,0,1.3-0.3,1.8-0.8c0.4-0.6,0.7-1.3,0.7-2.2s-0.2-1.7-0.7-2.3c-0.4-0.6-1-0.9-1.8-0.9L299.1,31.6
		C299.1,31.5,299.1,31.6,299.1,31.6z"/>
	<path class="st0" d="M313.2,31.5h-5c-0.1,0-0.1,0-0.1,0.1v6c0,0.1,0,0.1,0.1,0.1h3.3c0.1,0,0.2,0.1,0.2,0.2v0.3
		c0,0.1-0.1,0.2-0.2,0.2h-3.3c-0.1,0-0.1,0-0.1,0.1v6c0,0.1,0,0.1,0.1,0.1h5c0.1,0,0.2,0.1,0.2,0.2v0.3c0,0.1-0.1,0.2-0.2,0.2h-5.7
		c-0.1,0-0.2-0.1-0.2-0.2V31c0-0.1,0.1-0.2,0.2-0.2h5.7c0.1,0,0.2,0.1,0.2,0.2v0.3C313.4,31.5,313.3,31.5,313.2,31.5z"/>
	<path class="st0" d="M316.2,45.2V31c0-0.1,0.1-0.2,0.2-0.2h2.9c1,0,1.8,0.3,2.3,1c0.6,0.7,0.9,1.6,0.9,2.8v7c0,1.2-0.3,2.1-0.9,2.8
		s-1.4,1-2.3,1h-2.9C316.2,45.4,316.2,45.3,316.2,45.2z M317,44.7h2.3c0.7,0,1.3-0.3,1.7-0.8c0.4-0.5,0.6-1.3,0.6-2.2v-7
		c0-1-0.2-1.7-0.6-2.3s-1-0.8-1.7-0.8H317c-0.1,0-0.1,0-0.1,0.1L317,44.7C317,44.6,317,44.7,317,44.7z"/>
	<path class="st0" d="M334.6,37.9c0.6,0.3,1.1,0.7,1.4,1.4c0.3,0.6,0.5,1.4,0.5,2.2c0,1.2-0.3,2.2-0.9,2.9s-1.5,1-2.6,1h-2.8
		c-0.1,0-0.2-0.1-0.2-0.2V31c0-0.1,0.1-0.2,0.2-0.2h2.8c1.1,0,2,0.3,2.6,1c0.6,0.6,0.9,1.6,0.9,2.8c0,0.8-0.2,1.5-0.5,2
		s-0.8,1-1.4,1.2V37.9z M330.8,31.6v5.8c0,0.1,0,0.1,0.1,0.1h2.1c0.9,0,1.5-0.3,2-0.8s0.7-1.2,0.7-2.1c0-1-0.2-1.7-0.7-2.2
		s-1.2-0.8-2-0.8L330.8,31.6C330.8,31.5,330.8,31.6,330.8,31.6z M335,43.8c0.5-0.6,0.7-1.4,0.7-2.4s-0.2-1.8-0.7-2.4
		c-0.5-0.6-1.2-0.9-2-0.9h-2.1c-0.1,0-0.1,0-0.1,0.1v6.3c0,0.1,0,0.1,0.1,0.1h2.1C333.8,44.7,334.5,44.4,335,43.8z"/>
	<path class="st0" d="M341,45.2v-6.6c0-0.1,0-0.1,0-0.1l-2.9-7.4V31c0-0.1,0.1-0.2,0.2-0.2h0.4c0.1,0,0.2,0.1,0.2,0.2l2.4,6.6
		c0,0,0,0,0.1,0c0,0,0,0,0.1,0l2.4-6.6c0-0.1,0.1-0.2,0.2-0.2h0.4c0.1,0,0.1,0,0.2,0.1c0,0,0,0.1,0,0.2l-2.9,7.4c0,0,0,0,0,0.1v6.6
		c0,0.1-0.1,0.2-0.2,0.2h-0.4C341.1,45.4,341,45.3,341,45.2z"/>
	<path class="st0" d="M358.3,33.3c0,0-0.1,0.1-0.2,0.1h-4.4c-0.1,0-0.1,0-0.1,0.1v3.3c0,0.1,0,0.1,0.1,0.1h2.5c0.1,0,0.1,0,0.2,0.1
		c0,0,0.1,0.1,0.1,0.2v2c0,0.1,0,0.1-0.1,0.2c0,0-0.1,0.1-0.2,0.1h-2.5c-0.1,0-0.1,0-0.1,0.1v3.3c0,0.1,0,0.1,0.1,0.1h4.4
		c0.1,0,0.1,0,0.2,0.1c0,0,0.1,0.1,0.1,0.2v2c0,0.1,0,0.1-0.1,0.2c0,0-0.1,0.1-0.2,0.1h-7.2c-0.1,0-0.1,0-0.2-0.1
		c0,0-0.1-0.1-0.1-0.2V31.1c0-0.1,0-0.1,0.1-0.2c0,0,0.1-0.1,0.2-0.1h7.2c0.1,0,0.1,0,0.2,0.1s0.1,0.1,0.1,0.2v2
		C358.4,33.1,358.3,33.2,358.3,33.3z"/>
	<path class="st0" d="M359.9,45.3c0,0-0.1-0.1-0.1-0.2v-14c0-0.1,0-0.1,0.1-0.2c0,0,0.1-0.1,0.2-0.1h2.4c0.1,0,0.1,0,0.2,0.1
		s0.1,0.1,0.1,0.2v11.7c0,0.1,0,0.1,0.1,0.1h4.4c0.1,0,0.1,0,0.2,0.1c0,0,0.1,0.1,0.1,0.2v2c0,0.1,0,0.1-0.1,0.2
		c0,0-0.1,0.1-0.2,0.1h-7.2C360,45.4,360,45.4,359.9,45.3z"/>
	<path class="st0" d="M368.8,45.3c0,0-0.1-0.1-0.1-0.2v-14c0-0.1,0-0.1,0.1-0.2c0,0,0.1-0.1,0.2-0.1h2.4c0.1,0,0.1,0,0.2,0.1
		s0.1,0.1,0.1,0.2v14.1c0,0.1,0,0.1-0.1,0.2c0,0-0.1,0.1-0.2,0.1H369C368.9,45.4,368.8,45.4,368.8,45.3z"/>
	<path class="st0" d="M375.1,45.1c-0.6-0.3-1.1-0.8-1.4-1.3c-0.3-0.6-0.5-1.2-0.5-2v-0.6c0-0.1,0-0.1,0.1-0.2c0,0,0.1-0.1,0.2-0.1
		h2.4c0.1,0,0.1,0,0.2,0.1s0.1,0.1,0.1,0.2v0.5c0,0.4,0.1,0.8,0.3,1c0.2,0.3,0.5,0.4,0.8,0.4s0.6-0.1,0.8-0.4c0.2-0.3,0.3-0.6,0.3-1
		s-0.1-0.8-0.4-1.1s-0.8-0.7-1.6-1.3c-0.7-0.5-1.3-0.9-1.7-1.3c-0.4-0.4-0.8-0.9-1.1-1.4c-0.3-0.6-0.5-1.2-0.5-2
		c0-1.2,0.4-2.1,1.1-2.8s1.7-1.1,2.9-1.1c1.2,0,2.2,0.4,3,1.1c0.7,0.7,1.1,1.7,1.1,2.9v0.5c0,0.1,0,0.1-0.1,0.2c0,0-0.1,0.1-0.2,0.1
		h-2.4c-0.1,0-0.1,0-0.2-0.1c0,0-0.1-0.1-0.1-0.2v-0.6c0-0.4-0.1-0.8-0.3-1s-0.5-0.4-0.8-0.4s-0.6,0.1-0.8,0.4
		c-0.2,0.2-0.3,0.6-0.3,1s0.1,0.8,0.4,1.1s0.8,0.8,1.6,1.3c0.9,0.6,1.5,1.2,2,1.6c0.4,0.4,0.8,0.8,1,1.3s0.4,1.1,0.4,1.7
		c0,1.2-0.4,2.2-1.1,2.9c-0.8,0.7-1.7,1.1-3,1.1C376.5,45.6,375.8,45.4,375.1,45.1z"/>
	<path class="st0" d="M388.6,45.2l-0.3-2c0-0.1,0-0.1-0.1-0.1h-2.6c-0.1,0-0.1,0-0.1,0.1l-0.3,2c0,0.2-0.1,0.2-0.3,0.2h-2.4
		c-0.2,0-0.3-0.1-0.2-0.3l3.1-14.1c0-0.2,0.1-0.2,0.3-0.2h2.8c0.2,0,0.2,0.1,0.3,0.2l3,14.1v0.1c0,0.1-0.1,0.2-0.2,0.2h-2.5
		C388.7,45.4,388.7,45.3,388.6,45.2z M385.9,40.8h1.9c0.1,0,0.1,0,0.1-0.1l-1-5.7c0,0,0-0.1-0.1-0.1c0,0,0,0-0.1,0.1l-0.9,5.7
		C385.8,40.8,385.9,40.8,385.9,40.8z"/>
	<path class="st0" d="M398.6,45.1c-0.6-0.3-1.1-0.8-1.4-1.3c-0.3-0.6-0.5-1.2-0.5-2v-0.6c0-0.1,0-0.1,0.1-0.2c0,0,0.1-0.1,0.2-0.1
		h2.4c0.1,0,0.1,0,0.2,0.1s0.1,0.1,0.1,0.2v0.5c0,0.4,0.1,0.8,0.3,1c0.2,0.3,0.5,0.4,0.8,0.4s0.6-0.1,0.8-0.4c0.2-0.3,0.3-0.6,0.3-1
		s-0.1-0.8-0.4-1.1s-0.8-0.7-1.6-1.3c-0.7-0.5-1.3-0.9-1.7-1.3c-0.4-0.4-0.8-0.9-1.1-1.4c-0.3-0.6-0.5-1.2-0.5-2
		c0-1.2,0.4-2.1,1.1-2.8s1.7-1.1,2.9-1.1c1.2,0,2.2,0.4,3,1.1c0.7,0.7,1.1,1.7,1.1,2.9v0.5c0,0.1,0,0.1-0.1,0.2c0,0-0.1,0.1-0.2,0.1
		H402c-0.1,0-0.1,0-0.2-0.1c0,0-0.1-0.1-0.1-0.2v-0.6c0-0.4-0.1-0.8-0.3-1s-0.5-0.4-0.8-0.4s-0.6,0.1-0.8,0.4
		c-0.2,0.2-0.3,0.6-0.3,1s0.1,0.8,0.4,1.1s0.8,0.8,1.6,1.3c0.9,0.6,1.5,1.2,2,1.6c0.4,0.4,0.8,0.8,1,1.3s0.4,1.1,0.4,1.7
		c0,1.2-0.4,2.2-1.1,2.9c-0.8,0.7-1.7,1.1-3,1.1C400,45.6,399.2,45.4,398.6,45.1z"/>
	<path class="st0" d="M414.4,30.9c0,0,0.1,0.1,0.1,0.2v2c0,0.1,0,0.1-0.1,0.2c0,0-0.1,0.1-0.2,0.1h-2.6c-0.1,0-0.1,0-0.1,0.1v11.7
		c0,0.1,0,0.1-0.1,0.2c0,0-0.1,0.1-0.2,0.1h-2.4c-0.1,0-0.1,0-0.2-0.1c0,0-0.1-0.1-0.1-0.2V33.4c0-0.1,0-0.1-0.1-0.1H406
		c-0.1,0-0.1,0-0.2-0.1c0,0-0.1-0.1-0.1-0.2v-2c0-0.1,0-0.1,0.1-0.2s0.1-0.1,0.2-0.1h8.3C414.3,30.8,414.4,30.8,414.4,30.9z"/>
	<path class="st0" d="M420.6,45.2l-0.3-2c0-0.1,0-0.1-0.1-0.1h-2.6c-0.1,0-0.1,0-0.1,0.1l-0.3,2c0,0.2-0.1,0.2-0.3,0.2h-2.4
		c-0.2,0-0.3-0.1-0.2-0.3l3.1-14.1c0-0.2,0.1-0.2,0.3-0.2h2.8c0.2,0,0.2,0.1,0.3,0.2l3,14.1v0.1c0,0.1-0.1,0.2-0.2,0.2h-2.5
		C420.7,45.4,420.6,45.3,420.6,45.2z M417.9,40.8h1.9c0.1,0,0.1,0,0.1-0.1l-1-5.7c0,0,0-0.1-0.1-0.1c0,0,0,0-0.1,0.1l-0.9,5.7
		C417.8,40.8,417.8,40.8,417.9,40.8z"/>
	<path class="st0" d="M425.3,44.5c-0.8-0.7-1.1-1.7-1.1-2.9v-7.1c0-1.2,0.4-2.2,1.1-2.9s1.8-1.1,3-1.1s2.3,0.4,3,1.1
		c0.7,0.7,1.1,1.7,1.1,2.9v0.8c0,0.1,0,0.1-0.1,0.2c0,0-0.1,0.1-0.2,0.1h-2.4c-0.1,0-0.1,0-0.2-0.1c0,0-0.1-0.1-0.1-0.2v-0.8
		c0-0.4-0.1-0.8-0.3-1c-0.2-0.3-0.5-0.4-0.9-0.4s-0.7,0.1-0.9,0.4c-0.2,0.3-0.3,0.6-0.3,1v7.1c0,0.4,0.1,0.8,0.3,1
		c0.2,0.3,0.5,0.4,0.9,0.4s0.7-0.1,0.9-0.4c0.2-0.3,0.3-0.6,0.3-1V40c0-0.1,0-0.1-0.1-0.1h-0.9c-0.1,0-0.1,0-0.2-0.1
		c0,0-0.1-0.1-0.1-0.2v-1.9c0-0.1,0-0.1,0.1-0.2c0,0,0.1-0.1,0.2-0.1h3.7c0.1,0,0.1,0,0.2,0.1c0,0,0.1,0.1,0.1,0.2v3.9
		c0,1.2-0.4,2.2-1.1,2.9s-1.8,1.1-3,1.1S426.1,45.2,425.3,44.5z"/>
	<path class="st0" d="M441.7,33.3c0,0-0.1,0.1-0.2,0.1h-4.4c-0.1,0-0.1,0-0.1,0.1v3.3c0,0.1,0,0.1,0.1,0.1h2.5c0.1,0,0.1,0,0.2,0.1
		c0,0,0.1,0.1,0.1,0.2v2c0,0.1,0,0.1-0.1,0.2c0,0-0.1,0.1-0.2,0.1h-2.5c-0.1,0-0.1,0-0.1,0.1v3.3c0,0.1,0,0.1,0.1,0.1h4.4
		c0.1,0,0.1,0,0.2,0.1c0,0,0.1,0.1,0.1,0.2v2c0,0.1,0,0.1-0.1,0.2c0,0-0.1,0.1-0.2,0.1h-7.2c-0.1,0-0.1,0-0.2-0.1
		c0,0-0.1-0.1-0.1-0.2V31.1c0-0.1,0-0.1,0.1-0.2c0,0,0.1-0.1,0.2-0.1h7.2c0.1,0,0.1,0,0.2,0.1s0.1,0.1,0.1,0.2v2
		C441.8,33.1,441.8,33.2,441.7,33.3z"/>
</g>
<g>
	<path class="st0" d="M331.1,8.2h0.5c0.1,0,0.2,0.1,0.2,0.2v14.2c0,0.1-0.1,0.2-0.2,0.2h-0.4c-0.1,0-0.2-0.1-0.2-0.2V9.3
		c0,0,0,0,0-0.1c0,0,0,0-0.1,0l-2.1,0.9h-0.1h-0.1c0,0,0-0.1-0.1-0.1l-0.1-0.3c0,0,0,0,0-0.1s0-0.1,0.1-0.2l2.3-1.3
		C330.9,8.2,331,8.2,331.1,8.2z"/>
	<path class="st0" d="M339,15c0.5,0.2,0.8,0.6,1.1,1.2c0.3,0.7,0.5,1.6,0.5,2.6c0,0.7-0.1,1.4-0.3,2c-0.2,0.7-0.6,1.2-1.1,1.6
		s-1,0.6-1.7,0.6s-1.2-0.2-1.7-0.6s-0.8-0.9-1.1-1.6c-0.2-0.6-0.3-1.3-0.3-2c0-0.9,0.1-1.7,0.4-2.3c0.3-0.7,0.7-1.1,1.2-1.4
		c0.1,0,0.1-0.1,0-0.1c-0.5-0.2-0.8-0.6-1.1-1.1c-0.3-0.6-0.5-1.3-0.5-2.2s0.2-1.6,0.5-2.2c0.2-0.5,0.6-0.8,1-1.1s0.9-0.4,1.5-0.4
		c1.2,0,2,0.5,2.5,1.4c0.4,0.6,0.5,1.4,0.5,2.3c0,0.9-0.2,1.6-0.5,2.1c-0.3,0.5-0.6,0.8-1.1,1.1C338.9,14.9,338.9,15,339,15z
		 M337.5,14.6c0.4,0,0.8-0.1,1.1-0.3c0.3-0.2,0.6-0.5,0.8-0.9c0.2-0.5,0.4-1.1,0.4-1.8c0-0.8-0.2-1.4-0.5-1.9c-0.4-0.7-1-1-1.8-1
		s-1.4,0.4-1.8,1.1c-0.3,0.5-0.4,1.1-0.4,1.9c0,0.7,0.1,1.3,0.4,1.9C336.1,14.3,336.7,14.6,337.5,14.6z M339.7,18.8
		c0-0.9-0.1-1.6-0.4-2.1c-0.4-0.9-1-1.3-1.9-1.3s-1.5,0.5-1.9,1.4c-0.2,0.6-0.3,1.2-0.3,2c0,0.7,0.1,1.3,0.2,1.8
		c0.2,0.5,0.4,1,0.7,1.3c0.3,0.3,0.7,0.4,1.2,0.4s0.9-0.2,1.3-0.5s0.6-0.7,0.8-1.3C339.7,19.9,339.7,19.4,339.7,18.8z"/>
	<path class="st0" d="M346.8,16.3V16c0-0.1,0.1-0.2,0.2-0.2h4.4c0.1,0,0.2,0.1,0.2,0.2v0.3c0,0.1-0.1,0.2-0.2,0.2H347
		C346.8,16.5,346.8,16.5,346.8,16.3z"/>
	<path class="st0" d="M358.6,22.1h5.1c0.1,0,0.2,0.1,0.2,0.2v0.3c0,0.1-0.1,0.2-0.2,0.2h-6c-0.1,0-0.2-0.1-0.2-0.2v-0.4
		c0-0.1,0-0.2,0.1-0.3l1.3-2.3c0.3-0.6,0.7-1.2,1.1-1.9c0.4-0.7,0.8-1.3,1.2-2c0.9-1.7,1.4-3.1,1.4-4.2c0-0.8-0.2-1.5-0.6-2
		s-0.9-0.8-1.6-0.8c-0.6,0-1.1,0.3-1.5,0.8s-0.6,1.2-0.5,2v0.8c0,0.1-0.1,0.2-0.2,0.2h-0.4c-0.1,0-0.2-0.1-0.2-0.2v-0.8
		c0-1,0.3-1.9,0.8-2.5s1.2-1,2.1-1s1.6,0.3,2.2,1c0.5,0.6,0.8,1.5,0.8,2.5c0,1.3-0.5,2.8-1.5,4.5l-1.8,3.1l-1.6,2.8
		C358.5,22,358.5,22.1,358.6,22.1z"/>
	<path class="st0" d="M372,18.4c0,0.7-0.1,1.3-0.2,1.9c-0.2,0.9-0.5,1.5-1,2s-1.1,0.7-1.9,0.7s-1.5-0.2-2-0.7s-0.8-1.1-0.9-2.1
		l-0.1-0.6l0,0c0-0.1,0.1-0.2,0.2-0.2h0.4c0.1,0,0.2,0.1,0.2,0.2c0,0.3,0.1,0.4,0.1,0.6c0.2,1.4,0.9,2.1,2.1,2.1c1,0,1.7-0.6,2-1.9
		c0.1-0.5,0.2-1.2,0.2-1.9c0-0.8-0.1-1.5-0.3-2.1c-0.3-1.1-1-1.7-2-1.7c-1.2,0-1.9,0.6-2.1,1.7c0,0.1-0.1,0.2-0.2,0.2h-0.4
		c-0.1,0-0.2-0.1-0.2-0.2v-8c0-0.1,0.1-0.2,0.2-0.2h5.2c0.1,0,0.2,0.1,0.2,0.2v0.3c0,0.1-0.1,0.2-0.2,0.2h-4.5c-0.1,0-0.1,0-0.1,0.1
		v5.9V15c0,0,0,0,0.1,0c0.2-0.4,0.5-0.7,0.9-0.9s0.8-0.3,1.3-0.3c0.7,0,1.2,0.2,1.6,0.6c0.4,0.4,0.8,0.9,1,1.7
		C371.9,16.7,372,17.5,372,18.4z"/>
	<path class="st0" d="M384.7,8.2h0.4c0.1,0,0.2,0.1,0.2,0.2v14.2c0,0.1-0.1,0.2-0.2,0.2h-0.5c-0.1,0-0.2-0.1-0.2-0.2l-4.7-12.3
		c0,0,0-0.1-0.1-0.1c0,0,0,0,0,0.1v12.3c0,0.1-0.1,0.2-0.2,0.2H379c-0.1,0-0.2-0.1-0.2-0.2V8.4c0-0.1,0.1-0.2,0.2-0.2h0.5
		c0.1,0,0.2,0.1,0.2,0.2l4.8,12.3c0,0,0,0.1,0.1,0.1c0,0,0,0,0-0.1V8.4C384.5,8.3,384.6,8.2,384.7,8.2z"/>
	<path class="st0" d="M389.4,22c-0.6-0.6-0.9-1.5-0.9-2.5v-8.1c0-1,0.3-1.9,0.9-2.5s1.4-0.9,2.4-0.9s1.8,0.3,2.4,1
		c0.6,0.6,0.9,1.5,0.9,2.5v8.1c0,1-0.3,1.8-0.9,2.5c-0.6,0.6-1.4,0.9-2.4,0.9S390,22.6,389.4,22z M393.6,21.5
		c0.5-0.5,0.7-1.1,0.7-1.9v-8.2c0-0.8-0.2-1.4-0.7-1.9s-1.1-0.7-1.8-0.7c-0.7,0-1.3,0.2-1.8,0.7s-0.7,1.1-0.7,1.9v8.2
		c0,0.8,0.2,1.4,0.7,1.9s1.1,0.7,1.8,0.7S393.1,22,393.6,21.5z"/>
	<path class="st0" d="M400.3,22.6l-3-14.2l0,0c0-0.1,0.1-0.2,0.2-0.2h0.4c0.1,0,0.2,0.1,0.2,0.2l2.6,12.7v0.1c0,0,0,0,0-0.1
		l2.6-12.7c0-0.1,0.1-0.2,0.2-0.2h0.4c0.2,0,0.2,0.1,0.2,0.2l-3,14.2c0,0.1-0.1,0.2-0.2,0.2h-0.5C400.4,22.8,400.3,22.7,400.3,22.6z
		"/>
	<path class="st0" d="M411.3,22.1h5.1c0.1,0,0.2,0.1,0.2,0.2v0.3c0,0.1-0.1,0.2-0.2,0.2h-6c-0.1,0-0.2-0.1-0.2-0.2v-0.4
		c0-0.1,0-0.2,0.1-0.3l1.3-2.3c0.3-0.6,0.7-1.2,1.1-1.9c0.4-0.7,0.8-1.3,1.2-2c0.9-1.7,1.4-3.1,1.4-4.2c0-0.8-0.2-1.5-0.6-2
		s-0.9-0.8-1.6-0.8c-0.6,0-1.1,0.3-1.5,0.8s-0.6,1.2-0.5,2v0.8c0,0.1-0.1,0.2-0.2,0.2h-0.4c-0.1,0-0.2-0.1-0.2-0.2v-0.8
		c0-1,0.3-1.9,0.8-2.5s1.2-1,2.1-1s1.6,0.3,2.2,1c0.5,0.6,0.8,1.5,0.8,2.5c0,1.3-0.5,2.8-1.5,4.5l-1.8,3.1l-1.6,2.8
		C411.2,22,411.2,22.1,411.3,22.1z"/>
	<path class="st0" d="M419.4,22c-0.6-0.6-0.9-1.5-0.9-2.5v-8c0-1.1,0.3-1.9,0.9-2.5s1.4-1,2.4-1s1.8,0.3,2.4,1
		c0.6,0.6,0.9,1.5,0.9,2.5v8c0,1.1-0.3,1.9-0.9,2.5s-1.4,1-2.4,1S420,22.7,419.4,22z M423.7,21.5c0.5-0.5,0.7-1.2,0.7-2v-8.1
		c0-0.8-0.2-1.5-0.7-2s-1.1-0.7-1.8-0.7c-0.7,0-1.3,0.2-1.8,0.7s-0.7,1.2-0.7,2v8.1c0,0.8,0.2,1.5,0.7,2s1,0.7,1.8,0.7
		C422.6,22.2,423.2,22,423.7,21.5z"/>
	<path class="st0" d="M428.5,22.1h5.1c0.1,0,0.2,0.1,0.2,0.2v0.3c0,0.1-0.1,0.2-0.2,0.2h-6c-0.1,0-0.2-0.1-0.2-0.2v-0.4
		c0-0.1,0-0.2,0.1-0.3l1.3-2.3c0.3-0.6,0.7-1.2,1.1-1.9c0.4-0.7,0.8-1.3,1.2-2c0.9-1.7,1.4-3.1,1.4-4.2c0-0.8-0.2-1.5-0.6-2
		s-0.9-0.8-1.6-0.8c-0.6,0-1.1,0.3-1.5,0.8s-0.6,1.2-0.5,2v0.8c0,0.1-0.1,0.2-0.2,0.2h-0.4c-0.1,0-0.2-0.1-0.2-0.2v-0.8
		c0-1,0.3-1.9,0.8-2.5s1.2-1,2.1-1s1.6,0.3,2.2,1c0.5,0.6,0.8,1.5,0.8,2.5c0,1.3-0.5,2.8-1.5,4.5l-1.8,3.1l-1.6,2.8
		C428.4,22,428.4,22.1,428.5,22.1z"/>
	<path class="st0" d="M436.5,22.1h5.1c0.1,0,0.2,0.1,0.2,0.2v0.3c0,0.1-0.1,0.2-0.2,0.2h-6c-0.1,0-0.2-0.1-0.2-0.2v-0.4
		c0-0.1,0-0.2,0.1-0.3l1.3-2.3c0.3-0.6,0.7-1.2,1.1-1.9c0.4-0.7,0.8-1.3,1.2-2c0.9-1.7,1.4-3.1,1.4-4.2c0-0.8-0.2-1.5-0.6-2
		s-0.9-0.8-1.6-0.8c-0.6,0-1.1,0.3-1.5,0.8s-0.6,1.2-0.5,2v0.8c0,0.1-0.1,0.2-0.2,0.2h-0.4c-0.1,0-0.2-0.1-0.2-0.2v-0.8
		c0-1,0.3-1.9,0.8-2.5s1.2-1,2.1-1s1.6,0.3,2.2,1c0.5,0.6,0.8,1.5,0.8,2.5c0,1.3-0.5,2.8-1.5,4.5l-1.8,3.1l-1.6,2.8
		C436.4,22,436.4,22.1,436.5,22.1z"/>
</g>
<g>
	<g id="XMLID_00000018238116009917024300000018175453015894901125_">
		<path class="st1" d="M32.1,24.4h14.4c-0.9,5.1-3.3,10.2-7,14.4C30,49.4,15.2,51.7,6.3,43.6c-5.2-4.7-7.1-11.9-5.9-19.2h14.4
			c0,2.2,0.9,4.4,2.6,6.1c3.4,3.4,8.9,3.4,12.3,0C31.3,28.9,32.1,26.6,32.1,24.4z"/>
		<path class="st1" d="M19.9,24.4h7c0,0.9-0.4,1.7-1,2.4c-1.3,1.3-3.5,1.4-4.9,0C20.3,26.2,19.9,25.3,19.9,24.4z"/>
	</g>
	<g id="XMLID_00000172436888910342890510000010745209830598214540_">
		<path class="st2" d="M41.1,5.5c4.9,4.7,6.6,11.8,5.4,18.9H32.1c0-2.2-0.8-4.5-2.6-6.2c-3.4-3.4-8.9-3.4-12.3,0
			c-1.7,1.7-2.6,3.9-2.5,6.2H0.3c0.9-5.2,3.3-10.5,7.3-14.9C17.3-0.9,32.3-2.8,41.1,5.5z"/>
		<path class="st2" d="M25.9,22c0.7,0.7,1.1,1.6,1,2.5h-7c0-0.9,0.4-1.8,1-2.5C22.3,20.7,24.6,20.7,25.9,22z"/>
	</g>
</g>
</svg>
