<?xml version="1.0" encoding="utf-8"?>
<!-- Generator: Adobe Illustrator 26.0.3, SVG Export Plug-In . SVG Version: 6.00 Build 0)  -->
<svg version="1.1" id="Layer_1" xmlns="http://www.w3.org/2000/svg" xmlns:xlink="http://www.w3.org/1999/xlink" x="0px" y="0px"
	 viewBox="0 0 140.8 79.4" style="enable-background:new 0 0 140.8 79.4;" xml:space="preserve">
<style type="text/css">
	.st0{fill:#0066CC;}
	.st1{fill:#FFCC00;}
</style>
<g>
	<path class="st0" d="M6.9,3.8H11V28c0,6.4-5.5,11-9.8,11H0v-3.5c1.4,0.4,2.8,0.6,4.2,0.6c1.6,0,2.7-0.3,2.7-1.5L6.9,3.8z"/>
	<path class="st0" d="M23.5,0h4.1v24.8c0,4-3,5.5-6.6,5.5c-3.8,0-5.9-1.3-5.9-4.8V0h4.1v24.1c0,3,1.1,3.4,2.4,3.4s1.8-0.9,1.8-2.3V0
		z"/>
	<path class="st0" d="M31,32.8c-0.1-2.6,0.1-5.3,0.6-7.9h4c-2.5,3.5-3.5,6.1-3.5,7.4s1,1.5,3.8,1.5c1.8,0,2.3-0.8,2.3-1.9
		c0-5.4-7.4-17.4-7.4-23.3c0-3.6,2.9-5.2,6.4-5.2c2.9,0,4.3,1.3,4.3,3.8c0.1,2.5-0.2,5-0.6,7.5h-3.6c2.5-4.5,3.2-5.9,3.2-7
		s-0.9-1.4-3.2-1.4c-1.8,0-2.3,0.8-2.3,1.9c0,4.6,7.4,18.7,7.4,23.5c0,3.5-2.9,5-6.4,5C32.6,36.6,31,35.3,31,32.8z"/>
	<polygon class="st0" points="43.7,7.7 57,7.7 57,10.3 52.4,10.3 52.4,40.4 48.3,40.4 48.3,10.3 43.7,10.3 	"/>
</g>
<g>
	<polygon class="st1" points="6.9,46.9 6.9,59.5 10.8,59.5 10.8,60.4 6.9,60.4 6.9,74.2 2.7,74.2 2.7,44.2 12.3,44.2 12.3,46.9 	"/>
	<polygon class="st1" points="19.1,36.6 19.1,66.5 15,70.3 15,36.6 	"/>
	<polygon class="st1" points="27.1,40.4 27.1,67.7 33.1,67.7 33.1,70.3 23,70.3 23,36.6 	"/>
	<polygon class="st1" points="48.5,44.2 51.9,44.2 56.3,74.2 52.1,74.2 49,52.8 48.3,52.8 44.8,72.1 43.5,72.1 38.9,52.8 38.4,52.8 
		39.9,79.4 35.5,79.4 36.1,44.2 40.2,44.2 44.6,63.6 45.2,63.6 	"/>
</g>
<g>
	<path class="st0" d="M70.3,29.7l-2.2-11h-0.3l0.3,4.2l0.1,6.8h-1.6V16.4h1.6l2.2,11h0.3l-0.3-4.2l-0.2-6.8h1.6v13.3H70.3z"/>
	<path class="st0" d="M74.2,27.8v-9c0-1.8,1.2-2.5,2.7-2.5s2.4,0.6,2.4,2.1v9c0,1.8-1.2,2.5-2.7,2.5S74.2,29.3,74.2,27.8z
		 M75.9,18.5v8.6c0,1.3,0.4,1.5,1,1.5s0.7-0.4,0.7-1V19c0-1.3-0.4-1.5-0.9-1.5C76.1,17.5,75.9,17.9,75.9,18.5z"/>
	<path class="st0" d="M81.7,27.8v-9c0-1.8,1.2-2.5,2.7-2.5s2.4,0.6,2.4,2.1v9c0,1.8-1.2,2.5-2.7,2.5S81.7,29.3,81.7,27.8z
		 M83.4,18.5v8.6c0,1.3,0.4,1.5,1,1.5s0.7-0.4,0.7-1V19c0-1.3-0.4-1.5-0.9-1.5C83.6,17.5,83.4,17.9,83.4,18.5z"/>
	<path class="st0" d="M91.3,16.4c1.9,0,3.1,0.6,3.1,2.3v3.1c0,1.4-1,2.1-2.3,2.6v0.2l1.4-0.1l1.3,5.3H93l-0.9-4.4
		c-0.1-0.5-0.5-0.7-1.2-0.4v4.8h-1.7V16.4H91.3z M91,17.7v6.8l0.4-0.1c1-0.3,1.3-0.7,1.3-1.4v-3.7c0-1.2-0.4-1.5-1.5-1.5H91z"/>
	<path class="st0" d="M96.1,16.4h5.5v1.2h-1.9v12.1H98V17.6h-1.9V16.4z"/>
	<path class="st0" d="M105.1,22.9v5.6h2.4v1.2h-4.2V16.4h3.9v1.2h-2.2v4.9h1.6v0.4H105.1z"/>
	<path class="st0" d="M109.3,24v-0.6h3.8V24H109.3z"/>
	<path class="st0" d="M119.8,16.4h1.7v10.7c0,2.8-2.3,4.9-4,4.9H117v-1.6c0.6,0.2,1.1,0.3,1.7,0.2c0.7,0,1.1-0.1,1.1-0.7L119.8,16.4
		z"/>
	<path class="st0" d="M127.9,29.7l-0.6-3.7h-1.7l-0.3,3.7h-2l2.5-11.4l-1-1.8h2.2l2.8,13.3L127.9,29.7z M125.7,25.6h1.6l-0.4-2.6
		l-0.4-3.6h-0.2L125.7,25.6z"/>
</g>
<g>
	<path class="st0" d="M68.5,33.1v12.1H71v1.2h-4.2V33.1H68.5z"/>
	<path class="st0" d="M76.9,46.3l-0.6-3.7h-1.7l-0.3,3.7h-2l2.5-11.4l-1-1.8H76l2.8,13.3H76.9z M74.6,42.2h1.6l-0.4-2.6L75.4,36
		h-0.2L74.6,42.2z"/>
	<path class="st0" d="M80.3,44.8c0-1.2,0.1-2.3,0.2-3.5h1.6c-0.7,1-1.2,2.1-1.5,3.3c0,0.5,0.4,0.7,1.6,0.7c0.8,0,0.9-0.4,0.9-0.8
		c0-2.4-3-6.7-3-9.3c0-1.6,1.2-2.3,2.6-2.3c1.2,0,1.7,0.6,1.7,1.7c0,1.1-0.1,2.2-0.2,3.3h-1.5c1-2,1.3-2.6,1.3-3.1s-0.4-0.6-1.3-0.6
		c-0.8,0-0.9,0.4-0.9,0.8c0,2,3,7.2,3,9.3c0,1.6-1.2,2.2-2.6,2.2S80.3,46,80.3,44.8z"/>
	<path class="st0" d="M86.3,33.1h5.5v1.2h-1.9v12.1h-1.7V34.2h-1.9V33.1z"/>
	<path class="st0" d="M95.3,39.5v5.6h2.5v1.2h-4.2V33.1h3.9v1.2h-2.2v4.9H97v0.4L95.3,39.5z"/>
	<path class="st0" d="M101.5,34.2v5.6h1.6v0.4h-1.6v6.1h-1.7V33.1h3.9v1.2H101.5z"/>
	<path class="st0" d="M107.4,33.1v13.3h-1.7V33.1H107.4z"/>
	<path class="st0" d="M111.5,33.1v12.1h2.4v1.2h-4.2V33.1H111.5z"/>
	<path class="st0" d="M121.1,33.1h1.4l0.2,13.3H121l0.3-9.5H121l-1.4,8.6H119l-1.9-8.6h-0.2l0.6,9.5h-1.8l0.3-13.3h1.7l1.8,8.6h0.2
		L121.1,33.1z"/>
	<path class="st0" d="M126.7,33.1v13.3H125V33.1H126.7z"/>
	<path class="st0" d="M131.1,33.1c2,0,3.1,0.6,3.1,2.3v8.5c0,1.8-1.5,2.5-3.4,2.5h-1.7V33.1H131.1z M130.8,34.3v10.8h0.3
		c1.1,0,1.4-0.4,1.4-1v-8.3c0-1.2-0.4-1.5-1.6-1.5H130.8z"/>
	<path class="st0" d="M138.3,39.5v5.6h2.4v1.2h-4.1V33.1h3.9v1.2h-2.2v4.9h1.6v0.4L138.3,39.5z"/>
</g>
<g>
	<path class="st1" d="M68.5,50.9v5.6h1.6v0.4h-1.6V63h-1.7V49.7h3.9v1.2H68.5z"/>
	<path class="st1" d="M74.4,56.2v5.6h2.5V63h-4.2V49.7h3.9v1.2h-2.2v4.9H76v0.4H74.4z"/>
	<path class="st1" d="M78.7,61.5c0-1.2,0.1-2.3,0.3-3.5h1.6c-0.7,1-1.2,2.1-1.5,3.3c0,0.5,0.4,0.7,1.6,0.7c0.8,0,0.9-0.4,0.9-0.8
		c0-2.4-3-6.7-3-9.3c0-1.6,1.2-2.3,2.6-2.3c1.2,0,1.8,0.6,1.8,1.7c0,1.1-0.1,2.2-0.2,3.3h-1.5c1-2,1.3-2.6,1.3-3.1s-0.4-0.6-1.3-0.6
		c-0.8,0-0.9,0.4-0.9,0.8c0,2,3,7.2,3,9.3c0,1.6-1.2,2.2-2.6,2.2S78.7,62.6,78.7,61.5z"/>
	<path class="st1" d="M84.7,49.7h5.5v1.2h-1.9V63h-1.7V50.9h-1.9V49.7z"/>
	<path class="st1" d="M93.7,49.7V63H92V49.7H93.7z"/>
	<path class="st1" d="M99.7,49.7h2L98.8,63h-0.6l-2.8-13.3h1.9l0.9,5.7l0.4,3.7h0.2L99.7,49.7z"/>
	<path class="st1" d="M107.4,63l-0.6-3.7h-1.7l-0.3,3.7h-2l2.5-11.4l-1-1.8h2.2l2.8,13.3H107.4z M105.2,58.9h1.6l-0.4-2.6l-0.4-3.6
		h-0.2L105.2,58.9z"/>
	<path class="st1" d="M112.7,49.7v12.1h2.4V63H111V49.7H112.7z"/>
</g>
<rect x="-182.7" y="-6.8" class="st0" width="140.6" height="46.9"/>
<rect x="-182.7" y="40.1" class="st1" width="140.6" height="46.9"/>
</svg>
