<?xml version="1.0" encoding="utf-8"?>
<!-- Generator: Adobe Illustrator 27.2.0, SVG Export Plug-In . SVG Version: 6.00 Build 0)  -->
<svg version="1.1" id="Layer_1" xmlns="http://www.w3.org/2000/svg" xmlns:xlink="http://www.w3.org/1999/xlink" x="0px" y="0px"
	 viewBox="0 0 240 79.4" style="enable-background:new 0 0 240 79.4;" xml:space="preserve">
<style type="text/css">
	.st0{fill:#0066CC;}
	.st1{fill:#FFCC00;}
</style>
<g>
	<path class="st0" d="M6.9,3.8H11V28c0,6.4-5.5,11-9.8,11H0v-3.5c1.4,0.4,2.8,0.6,4.2,0.6c1.6,0,2.7-0.3,2.7-1.5L6.9,3.8z"/>
	<path class="st0" d="M23.5,0h4.1v24.8c0,4-3,5.5-6.6,5.5c-3.8,0-5.9-1.3-5.9-4.8V0h4.1v24.1c0,3,1.1,3.4,2.4,3.4s1.8-0.9,1.8-2.3V0
		H23.5z"/>
	<path class="st0" d="M31,32.8c-0.1-2.6,0.1-5.3,0.6-7.9h4c-2.5,3.5-3.5,6.1-3.5,7.4s1,1.5,3.8,1.5c1.8,0,2.3-0.8,2.3-1.9
		c0-5.4-7.4-17.4-7.4-23.3c0-3.6,2.9-5.2,6.4-5.2c2.9,0,4.3,1.3,4.3,3.8c0.1,2.5-0.2,5-0.6,7.5h-3.6c2.5-4.5,3.2-5.9,3.2-7
		s-0.9-1.4-3.2-1.4c-1.8,0-2.3,0.8-2.3,1.9c0,4.6,7.4,18.7,7.4,23.5c0,3.5-2.9,5-6.4,5C32.6,36.6,31,35.3,31,32.8z"/>
	<polygon class="st0" points="43.7,7.7 57,7.7 57,10.3 52.4,10.3 52.4,40.4 48.3,40.4 48.3,10.3 43.7,10.3 	"/>
</g>
<g>
	<polygon class="st1" points="6.9,46.9 6.9,59.5 10.8,59.5 10.8,60.4 6.9,60.4 6.9,74.2 2.7,74.2 2.7,44.2 12.3,44.2 12.3,46.9 	"/>
	<polygon class="st1" points="19.1,36.6 19.1,66.5 15,70.3 15,36.6 	"/>
	<polygon class="st1" points="27.1,40.4 27.1,67.7 33.1,67.7 33.1,70.3 23,70.3 23,36.6 	"/>
	<polygon class="st1" points="48.5,44.2 51.9,44.2 56.3,74.2 52.1,74.2 49,52.8 48.3,52.8 44.8,72.1 43.5,72.1 38.9,52.8 38.4,52.8 
		39.9,79.4 35.5,79.4 36.1,44.2 40.2,44.2 44.6,63.6 45.2,63.6 	"/>
</g>
<g>
	<g>
		<path class="st0" d="M156.9,54.6c0.5,0,0.9-0.3,1.3-0.7c0.3-0.5,0.5-1.5,0.5-3v-5c0-1-0.2-1.8-0.5-2.3c-0.4-0.5-0.9-0.7-1.7-0.7
			h-1.9v-0.8h1.9c0.7,0,1.2-0.3,1.5-0.8s0.4-1.3,0.4-2.3v-5c0-1.5-0.1-2.5-0.3-3s-0.6-0.7-1.2-0.7c-1.1,0-1.8,0.2-2.2,0.6
			s-0.6,1-0.6,1.6c0,0.8,0.3,1.7,0.8,2.5c0.5,0.9,1.6,2.1,3.2,3.8h-3.9c-0.4-0.9-0.6-1.9-0.8-3s-0.2-2-0.2-2.9
			c0-0.6,0.1-1.3,0.4-1.9c0.2-0.6,0.6-1.2,1-1.7s0.9-0.9,1.5-1.3c0.6-0.3,1.2-0.5,1.9-0.5c1.2,0,2,0.4,2.6,1.1
			c0.6,0.8,0.8,2.2,0.8,4.4v3.6c0,1.9-0.3,3.2-0.8,4.1c-0.5,0.9-1.3,1.4-2.3,1.6v0.3l1.8-0.2c0.6,0.4,1,1.2,1.2,2.3s0.3,2.4,0.3,3.7
			V52c0,2-0.4,3.4-1.1,4.2c-0.8,0.8-1.8,1.3-3.3,1.3c-1.1,0-1.9-0.6-2.4-1.9c-0.5-1.3-0.8-2.9-0.7-4.8l0.1-4.9h0.6l0.1,4.8
			c0,1.3,0.2,2.3,0.4,3C155.5,54.2,156,54.6,156.9,54.6z"/>
		<path class="st0" d="M169.4,39.3V38h6.8v1.3H169.4z"/>
		<path class="st0" d="M187.6,52h-2.8V33.4h-1.9v-0.8h0.7c0.6,0,1.2-0.2,1.5-0.7c0.4-0.4,0.8-1.3,1.2-2.7l0.8-2.4h0.4V52H187.6z"/>
		<path class="st0" d="M195.3,50.8v-6.5l0.9-6.2l-0.4-0.1c-0.2,1.5-0.5,2.7-0.7,3.7c-0.3,0.9-0.5,1.6-0.8,2.1s-0.6,0.8-1,1
			s-0.7,0.3-1.1,0.3c-0.7,0-1.3-0.3-1.8-0.9c-0.5-0.6-0.7-1.4-0.7-2.4v-9.1c0-2,0.4-3.4,1.3-4.2c0.9-0.8,1.9-1.3,3.1-1.3
			c1.3,0,2.2,0.4,2.9,1.1s1,1.9,1,3.7v19.7c0,2-0.4,3.4-1.2,4.2s-1.9,1.3-3.4,1.3c-1.1,0-2-0.6-2.6-1.8s-0.9-2.8-0.9-5l0.1-4.5h0.6
			l0.1,4.4c0,1.6,0.2,2.7,0.7,3.3c0.4,0.6,1,0.9,1.9,0.9c0.6,0,1.1-0.3,1.4-0.8C195.2,53.4,195.3,52.3,195.3,50.8z M195.3,33.5
			c0-1.5-0.2-2.5-0.5-2.9s-0.7-0.6-1.1-0.6c-0.4,0-0.7,0.2-0.9,0.6c-0.1,0.4-0.2,1-0.2,1.7v8.1c0,0.7,0.1,1.3,0.2,1.6
			c0.1,0.3,0.4,0.5,0.7,0.5c0.4,0,0.8-0.6,1.2-1.9c0.4-1.3,0.5-2.8,0.5-4.7v-2.4H195.3z"/>
	</g>
	<g>
		<path class="st0" d="M209.4,22.5l3.9,24.6h0.5l-0.6-9.3l-0.3-15.2h2.9V52h-2.9L209,27.4h-0.5l0.6,9.3l0.2,15.2h-2.9V22.5H209.4z"
			/>
		<path class="st0" d="M222.4,52.4c-1.4,0-2.4-0.4-3.2-1.1c-0.8-0.7-1.1-1.9-1.1-3.7v-20c0-2,0.5-3.4,1.4-4.2s2.1-1.3,3.4-1.3
			c1.4,0,2.5,0.4,3.2,1.1s1.1,1.9,1.1,3.7V47c0,2-0.5,3.4-1.4,4.2C224.8,52,223.7,52.4,222.4,52.4z M222.6,24.9
			c-0.6,0-1,0.2-1.2,0.6s-0.3,1-0.3,1.7v19.2c0,1.5,0.2,2.4,0.5,2.8c0.4,0.4,0.8,0.6,1.3,0.6s0.9-0.2,1-0.6c0.2-0.4,0.3-1,0.3-1.7
			V28.2c0-1.5-0.2-2.4-0.5-2.8C223.3,25,223,24.9,222.6,24.9z"/>
		<path class="st0" d="M231.6,22.5l1.6,12.6l0.8,8.1h0.4l1.4-20.7h3.6L234.3,52h-1.1l-4.9-29.5H231.6z"/>
	</g>
</g>
<g>
	<g>
		<path class="st0" d="M72.6,16.5l-2.3,9.2v3.5h-1.6v-3.5l-2.2-9.2h1.8l0.9,4.8l0.4,3.1h0.2l0.7-7.8L72.6,16.5z"/>
		<path class="st0" d="M76.5,29.4c-1.5,0-2.3-0.5-2.3-2v-8.7c0-1.7,1.2-2.3,2.6-2.3c1.4,0,2.3,0.5,2.3,2v8.7
			C79.1,28.7,77.9,29.4,76.5,29.4z M76.6,17.5c-0.6,0-0.8,0.4-0.8,1v8.3c0,1.3,0.4,1.4,1,1.4c0.5,0,0.7-0.4,0.7-1v-8.3
			C77.5,17.7,77,17.5,76.6,17.5z"/>
		<path class="st0" d="M84.6,16.5h1.6V27c0,1.7-1.2,2.3-2.6,2.3c-1.4,0-2.3-0.5-2.3-2V16.5H83v10.3c0,1.3,0.4,1.4,1,1.4
			c0.5,0,0.7-0.4,0.7-1L84.6,16.5z"/>
		<path class="st0" d="M93.1,17.6h-1.8v11.6h-1.6V17.6h-1.8v-1.1h5.2V17.6z"/>
		<path class="st0" d="M98.4,16.5h1.6v12.7h-1.6v-6.5h-1.8v6.5h-1.6V16.5h1.6v5.9h1.8L98.4,16.5z"/>
		<path class="st0" d="M110.2,29.2l-0.6-3.6H108l-0.3,3.6h-2l2.4-10.9l-0.9-1.8h2.2l2.6,12.7H110.2z M108.1,25.3h1.5l-0.4-2.5
			l-0.4-3.5h-0.2L108.1,25.3z"/>
		<path class="st0" d="M117,16.5h1.6v12.7H117l-2.1-10.6h-0.3l0.3,4l0.1,6.5h-1.5V16.5h1.5l2.1,10.6h0.3l-0.3-4L117,16.5z"/>
		<path class="st0" d="M125.7,18.7v8.2c0,1.7-1.5,2.3-3.2,2.3h-1.7V16.5h2C124.6,16.5,125.7,17.1,125.7,18.7z M124,19.1
			c0-1.1-0.4-1.4-1.5-1.4h-0.2V28h0.3c1.1,0,1.3-0.4,1.3-1L124,19.1z"/>
		<path class="st0" d="M70.8,34.6c0-0.4-0.4-0.5-1.3-0.5c-0.6,0-0.7,0.4-0.7,1v8.3c0,1.3,0.5,1.4,0.9,1.4c0.4,0,0.8-0.7,0.8-1.8V41
			h0.3v2.1c0,1.6-0.6,2.9-2,2.9c-1.4,0-2-0.5-2-2v-8.7c-0.2-1.2,0.7-2.2,1.8-2.4c0.3,0,0.6,0,0.9,0.1c1.1,0,1.7,0.5,1.7,1.6
			c0,1.3-0.1,2.6-0.4,3.9h-1.7C70.7,35.7,70.8,35.1,70.8,34.6z"/>
		<path class="st0" d="M76.8,33.1h1.6v12.7h-1.6v-6.5H75v6.5h-1.6V33.1H75V39h1.8L76.8,33.1z"/>
		<path class="st0" d="M82.4,33.1v12.7h-1.6V33.1H82.4z"/>
		<path class="st0" d="M86.3,44.7h2.3v1.1h-3.9V33.1h1.6L86.3,44.7z"/>
		<path class="st0" d="M95.4,35.3v8.3c0,1.7-1.5,2.3-3.2,2.3h-1.7V33.1h2C94.3,33.1,95.4,33.8,95.4,35.3z M93.8,35.7
			c0-1.1-0.4-1.4-1.5-1.4h-0.2v10.4h0.3c1.1,0,1.3-0.4,1.3-1V35.7z"/>
		<path class="st0" d="M101.7,40.8l1.2,5h-1.7l-0.8-4.2c-0.1-0.4-0.5-0.7-1.1-0.4v4.6h-1.6V33.1h2c2,0,3,0.6,3,2.2v2.9
			c0,1.4-1,2-2.3,2.5v0.2L101.7,40.8z M99.3,34.3v6.5l0.4-0.1c1-0.3,1.3-0.7,1.3-1.3v-3.6c0-1.1-0.4-1.4-1.5-1.4H99.3z"/>
		<path class="st0" d="M106.5,44.7h2.3v1.1h-3.9V33.1h3.8v1.1h-2.1v4.7h1.5v0.4h-1.5V44.7z"/>
		<path class="st0" d="M114.1,33.1h1.6v12.7h-1.5l-2.1-10.6h-0.3l0.3,4l0.1,6.5h-1.5V33.1h1.5l2.1,10.6h0.3l-0.4-4L114.1,33.1z"/>
		<path class="st0" d="M119.5,34.3c0,1.7-0.3,2.2-2,2.1l-0.1-1c1.3,0,1.6-0.6,1.6-1.1h-1.5v-1.2h2L119.5,34.3z"/>
		<path class="st0" d="M121.6,44.4c0-1.1,0.1-2.2,0.2-3.3h1.6c-0.7,0.9-1.2,2-1.4,3.1c0,0.5,0.4,0.6,1.5,0.6c0.7,0,0.9-0.4,0.9-0.8
			c0-2.3-2.9-6.4-2.9-8.9c0-1.5,1.2-2.2,2.5-2.2c1.4,0,1.7,0.5,1.7,1.6c0,1-0.1,2.1-0.3,3.1H124c0.6-0.9,1-1.9,1.3-3
			c0-0.5-0.3-0.6-1.3-0.6s-0.9,0.3-0.9,0.8c0,2,2.9,6.9,2.9,8.9c0,1.5-1.2,2.1-2.5,2.1C122.1,45.9,121.6,45.5,121.6,44.4z"/>
	</g>
	<g>
		<path class="st1" d="M71,50.9h-2.1v5.3h1.5v0.4h-1.5v5.9h-1.6V49.7H71V50.9z"/>
		<path class="st1" d="M74.5,49.7v12.7h-1.6V49.7H74.5z"/>
		<path class="st1" d="M78.4,61.3h2.3v1.1h-3.9V49.7h1.6L78.4,61.3z"/>
		<path class="st1" d="M87.5,62.4l0.3-9.1h-0.2l-1.4,8.2h-0.5l-1.8-8.2h-0.2l0.6,9.1h-1.7l0.2-12.7h1.6l1.7,8.2h0.3l1.3-8.2h1.4
			l0.3,12.7H87.5z"/>
		<path class="st1" d="M99.3,50.9H97v5.3h1.5v0.4H97v5.9h-1.6V49.7h3.8L99.3,50.9z"/>
		<path class="st1" d="M102.7,61.3h2.4v1.1h-3.9V49.7h3.7v1.1h-2.2v4.7h1.5v0.4h-1.5V61.3z"/>
		<path class="st1" d="M106.8,61c0-1.1,0.1-2.2,0.2-3.3h1.7c-0.7,0.9-1.2,2-1.4,3.1c0,0.5,0.4,0.6,1.5,0.6c0.7,0,0.9-0.4,0.9-0.8
			c0-2.3-2.9-6.4-2.9-8.9c0-1.5,1.2-2.2,2.5-2.2c1.4,0,1.7,0.5,1.7,1.6c0,1.1-0.1,2.1-0.3,3.2h-1.4c0.6-0.9,1-1.9,1.2-3
			c0-0.5-0.3-0.6-1.3-0.6s-0.9,0.3-0.9,0.8c0,2,2.9,6.9,2.9,8.9c0,1.5-1.2,2.1-2.5,2.1C107.4,62.6,106.8,62.1,106.8,61z"/>
		<path class="st1" d="M117.7,50.9h-1.8v11.6h-1.6V50.9h-1.8v-1.1h5.2L117.7,50.9z"/>
		<path class="st1" d="M121,49.7v12.7h-1.6V49.7H121z"/>
		<path class="st1" d="M126.7,49.7h2l-2.8,12.7h-0.6l-2.7-12.7h1.8l0.9,5.4l0.4,3.5h0.3L126.7,49.7z"/>
		<path class="st1" d="M133.2,62.4l-0.5-3.6h-1.6l-0.3,3.6h-2l2.4-10.9l-0.9-1.8h2.2l2.7,12.7H133.2z M131.1,58.5h1.5l-0.4-2.5
			l-0.4-3.5h-0.2L131.1,58.5z"/>
		<path class="st1" d="M138.4,61.3h2.3v1.1h-3.9V49.7h1.6L138.4,61.3z"/>
	</g>
</g>
</svg>
