<?xml version="1.0" encoding="utf-8"?>
<!-- Generator: Adobe Illustrator 27.2.0, SVG Export Plug-In . SVG Version: 6.00 Build 0)  -->
<svg version="1.1" id="Layer_1" xmlns="http://www.w3.org/2000/svg" xmlns:xlink="http://www.w3.org/1999/xlink" x="0px" y="0px"
	 viewBox="0 0 331.2 72" style="enable-background:new 0 0 331.2 72;" xml:space="preserve">
<style type="text/css">
	.st0{fill:#29333A;}
	.st1{opacity:0.41;fill:#29333A;enable-background:new    ;}
</style>
<path class="st0" d="M36.9,0.9H59L31.2,34.7l27.6,36.4H36.4L18.4,46l-0.5,0.9v24.2H0V0.9h17.8v26L36.9,0.9z"/>
<path class="st0" d="M83.9,71.1H66.3V0.9h17.6V71.1z"/>
<path class="st0" d="M95.2,0.9h16.7l21.4,37.6c-0.2,0,0-37.6,0-37.6h17.6v70h-17.8l-20.3-35.1v35.3H95.2V0.9z"/>
<path class="st0" d="M160.4,24.1c0-16.2,14.4-24.1,29-24.1s29,8,29,24.1V48c0,16-14.4,24.1-29,24.1s-29-8-29-24.1V24.1z M178.2,47.9
	c0,5.2,5.7,7.7,11.4,7.7s11.2-2.5,11.2-7.7V24.1c0-5.5-5.9-7.8-11.6-7.8c-5.5,0-11,2.9-11,7.8C178.2,24.1,178.2,47.9,178.2,47.9z"/>
<path class="st1" d="M300.4,30.3h27.1v16.6h-27.1v24.2h-18V0.9h48.8v16.7h-30.8V30.3L300.4,30.3z"/>
<path class="st0" d="M244.1,30.3h27.1v16.6h-27.1v24.2h-18V0.9h48.8v16.7h-30.8L244.1,30.3L244.1,30.3z"/>
</svg>
