<?xml version="1.0" encoding="utf-8"?>
<!-- Generator: Adobe Illustrator 26.5.0, SVG Export Plug-In . SVG Version: 6.00 Build 0)  -->
<svg version="1.1" id="Layer_1" xmlns="http://www.w3.org/2000/svg" xmlns:xlink="http://www.w3.org/1999/xlink" x="0px" y="0px"
	 viewBox="0 0 217.5 40.4" style="enable-background:new 0 0 217.5 40.4;" xml:space="preserve">
<style type="text/css">
	.st0{fill:#242020;}
	.st1{opacity:0.41;fill:#242020;enable-background:new    ;}
</style>
<g>
	<path class="st0" d="M20.7,0.5h12.4l-15.6,19L33,39.9H20.4L10.3,25.8L10,26.3v13.6H0V0.5h10v14.6L20.7,0.5z"/>
	<path class="st0" d="M47.1,39.9h-9.9V0.5h9.9V39.9z"/>
	<path class="st0" d="M53.4,0.5h9.4l12,21.1c-0.1,0,0-21.1,0-21.1h9.9v39.3h-10L63.3,20.1v19.8h-9.9V0.5z"/>
	<path class="st0" d="M90,13.5C90,4.4,98.1,0,106.3,0s16.3,4.5,16.3,13.5v13.4c0,9-8.1,13.5-16.3,13.5S90,35.9,90,26.9V13.5z
		 M100,26.9c0,2.9,3.2,4.3,6.4,4.3s6.3-1.4,6.3-4.3V13.5c0-3.1-3.3-4.4-6.5-4.4c-3.1,0-6.2,1.6-6.2,4.4C100,13.5,100,26.9,100,26.9z
		"/>
	<g>
		<path class="st0" d="M168.6,17h15.2v9.3h-15.2v13.6h-10.1V0.5h27.4v9.4h-17.3L168.6,17L168.6,17z"/>
		<path class="st0" d="M137,17h15.2v9.3H137v13.6h-10.1V0.5h27.4v9.4H137V17z"/>
	</g>
	<path class="st1" d="M200.2,17h15.2v9.3h-15.2v13.6h-10.1V0.5h27.4v9.4h-17.3L200.2,17L200.2,17z"/>
</g>
</svg>
