<?xml version="1.0" encoding="utf-8"?>
<!-- Generator: Adobe Illustrator 25.0.0, SVG Export Plug-In . SVG Version: 6.00 Build 0)  -->
<svg version="1.1" id="Layer_1" xmlns="http://www.w3.org/2000/svg" xmlns:xlink="http://www.w3.org/1999/xlink" x="0px" y="0px"
	 viewBox="0 0 200 48" style="enable-background:new 0 0 200 48;" xml:space="preserve">
<style type="text/css">
	.st0{fill:#29333A;}
</style>
<g>
	<path class="st0" d="M20.7,4.3h12.4l-15.6,19L33,43.7H20.4L10.3,29.6L10,30.1v13.6H0V4.3h10v14.6L20.7,4.3z"/>
	<path class="st0" d="M47.1,43.7h-9.9V4.3h9.9V43.7z"/>
	<path class="st0" d="M53.4,4.3h9.4l12,21.1c-0.1,0,0-21.1,0-21.1h9.9v39.3H74.7L63.3,23.9v19.8h-9.9V4.3z"/>
	<path class="st0" d="M90,17.3c0-9.1,8.1-13.5,16.3-13.5c8.2,0,16.3,4.5,16.3,13.5v13.4c0,9-8.1,13.5-16.3,13.5
		c-8.2,0-16.3-4.5-16.3-13.5V17.3z M100,30.7c0,2.9,3.2,4.3,6.4,4.3s6.3-1.4,6.3-4.3V17.3c0-3.1-3.3-4.4-6.5-4.4
		c-3.1,0-6.2,1.6-6.2,4.4V30.7z"/>
	<path class="st0" d="M182.7,20.8h15.2v9.3h-15.2v13.6h-10.1V4.3H200v9.4h-17.3V20.8z"/>
	<path class="st0" d="M152.6,3.8V0.3h-9.9v3.5c-8,0.2-15.8,4.6-15.8,13.5v13.4c0,8.8,7.8,13.3,15.8,13.5v3.5h9.9v-3.5
		c8-0.2,15.8-4.7,15.8-13.5V17.3C168.4,8.5,160.6,4,152.6,3.8z M136.8,30.7V17.3c0-2.8,2.9-4.3,5.8-4.4V35
		C139.7,34.8,136.8,33.4,136.8,30.7z M158.4,30.7c0,2.7-2.8,4.1-5.8,4.3V12.9c3,0.2,5.8,1.6,5.8,4.4V30.7z"/>
</g>
</svg>
