<?xml version="1.0" encoding="UTF-8"?>
<svg id="Layer_1" xmlns="http://www.w3.org/2000/svg" xmlns:xlink="http://www.w3.org/1999/xlink" version="1.1" viewBox="0 0 425.2 223">
  <!-- Generator: Adobe Illustrator 29.7.1, SVG Export Plug-In . SVG Version: 2.1.1 Build 8)  -->
  <defs>
    <style>
      .st0 {
        fill: none;
      }

      .st1 {
        fill: #cb0483;
      }

      .st2 {
        fill: #008bc2;
      }

      .st3 {
        fill: #231f20;
      }

      .st4 {
        fill: #fff;
      }

      .st5 {
        fill: #007cb4;
      }

      .st6 {
        fill: #d83683;
      }

      .st7 {
        fill: #85bd3c;
      }

      .st8 {
        clip-path: url(#clippath);
      }
    </style>
    <clipPath id="clippath">
      <rect class="st0" width="425.2" height="223"/>
    </clipPath>
  </defs>
  <g class="st8">
    <path class="st3" d="M319.3,121.6c0,6.1-4.7,11-10.6,11h-.3c-5.9,0-10.6-4.9-10.6-11v-16.9c0-6.1,4.7-11,10.6-11h.3c5.9,0,10.6,4.9,10.6,11v16.9ZM83,167.1s30.6-23,79.8-33.1c44.1-9,56.7-33.3,56.7-33.3l-.3,41.1c-10.1-28.5-136.2,25.2-136.2,25.2M365.5,0h-88.4C252.5,0,233.9,15.4,224.8,37.5,218.5,22.3,197.2-1.1,141.9.2c0,0-51.3-.1-68.4,0C51,.3,11.4,4.8,2.7,64.4c-6.2,43-.9,51.2,7.6,57.6,5.7,4.3,12.7,3.6,16.5,2.1,8.4-3.5,20.7-7.8,39.6-12.5,5.1-1.3,23.1-3.5,33.7-13,2.9-2.7,5.5-6.1,7.9-8.4,3.6-3.4,7.7-6.9,12.2-8.4,5.5-1.6,12.4.3,15.6,5.7,3.9,7-1.4,13.6-7.7,17-2.8,1.6-5.9,2.9-9.1,4-6.5,2.2-13.3,3.5-20.1,3.9-16.8,1.1-65.8,6.1-88.5,29.2-2.4,2.4-9.8,7.9-9.4,28.1,0,0,0,24.8,6,36.4,3.5,6.8,9.7,12.6,19.8,14.9,6.3,1.4,25.6,2.1,35.7,1.7l121.3.3s32.3,1.5,41.1-32.1c10.2,19.2,29.8,32.2,52.3,32.2h88.4c33,0,59.7-27.8,59.7-62.1V62.1C425.2,27.8,398.5,0,365.5,0"/>
    <path class="st7" d="M316.6,97.2c0-12,9.7-21.7,21.7-21.7s21.7,9.7,21.7,21.7-9.7,21.7-21.7,21.7-21.7-9.7-21.7-21.7"/>
    <path class="st4" d="M60.8,137.9c-1.8,0-3.2.7-4.2,2.1-1,1.4-1.4,3.5-1.4,6.2s.5,4.8,1.4,6.2c1,1.4,2.3,2.1,4.2,2.1s3.2-.7,4.2-2.1c1-1.4,1.4-3.5,1.4-6.2s-.5-4.8-1.4-6.2c-1-1.4-2.4-2.1-4.2-2.1M58.4,158.9c-3.4,0-6.1-1.1-8.2-3.4-2-2.3-3-5.4-3-9.3s1-7,3.1-9.3c2-2.3,4.8-3.4,8.2-3.4,3.1,0,5.6,1,7.5,3.1v-6.2c0-1.1-.2-1.8-.5-2.2-.4-.4-1.1-.5-2.1-.5h-1.7v-4h12v27.9c0,1.1.2,1.8.5,2.2.3.4,1,.5,2.1.5h1.7v4h-11.9v-2.7c-1.9,2.3-4.4,3.4-7.6,3.4"/>
    <path class="st4" d="M92.3,154.5c2,0,3.5-.7,4.4-2,.9-1.3,1.4-3.4,1.4-6.3s-.5-5-1.4-6.3c-.9-1.3-2.4-2-4.4-2s-3.5.7-4.4,2c-.9,1.3-1.4,3.4-1.4,6.3s.5,5,1.4,6.3c.9,1.3,2.4,2,4.4,2M92.3,158.9c-4.2,0-7.6-1.1-10.1-3.4-2.5-2.3-3.7-5.4-3.7-9.3s1.2-7,3.7-9.3c2.5-2.3,5.9-3.4,10.1-3.4s7.6,1.1,10.1,3.4c2.5,2.3,3.7,5.4,3.7,9.3s-1.2,7-3.7,9.3c-2.5,2.3-5.9,3.4-10.1,3.4"/>
    <path class="st4" d="M111.5,151.5v-21.2c0-1.1-.2-1.8-.5-2.2-.4-.4-1.1-.6-2.1-.6h-1.7v-4h12v21.3l6.6-4.8c1.1-.8,1.6-1.3,1.5-1.5-.1-.3-.9-.4-2.3-.4h-2.2v-4h17.4v4h-1.8c-1.1,0-2,.1-2.7.4-.7.3-1.7.8-2.8,1.5l-4.3,3,8.2,9.1c.8.8,1.4,1.4,1.9,1.6.5.3,1.1.4,1.7.4h1.1v4h-16.3v-4h1.5c1,0,1.5-.1,1.6-.4,0-.3-.2-.8-.9-1.5l-4.5-5.3-3.8,2.6v1.8c0,1.1.2,1.8.5,2.2.3.4,1,.5,2,.5h1.6v4h-15.9v-4h1.6c1,0,1.7-.2,2.1-.6.3-.4.5-1.1.5-2.2"/>
    <path class="st4" d="M152.9,134.1v13.4c0,2.1.3,3.6.9,4.6.6,1,1.5,1.5,2.8,1.5s2.3-.3,3.3-1c.9-.6,1.7-1.5,2.5-2.7v-8.9c0-1.1-.1-1.8-.4-2.2-.3-.4-.8-.5-1.6-.5h-1.3v-4h10.9v17.3c0,1.1.2,1.8.5,2.2.3.4,1,.5,2.1.5h1.7v4h-11.9v-3.2c-.6.6-1.2,1.2-2,1.7-2.1,1.5-4.4,2.2-6.8,2.2s-4.7-.8-6.1-2.4c-1.4-1.6-2.2-3.8-2.2-6.7v-9c0-1.1-.2-1.8-.5-2.2-.3-.4-1-.5-2-.5h-1.6v-4h11.8Z"/>
    <path class="st4" d="M180.1,151.5v-10.6c0-1.1-.2-1.8-.5-2.2-.3-.4-1-.5-2-.5h-1.6v-4h11.8v3.1c.6-.6,1.3-1.1,2-1.6,2.1-1.5,4.4-2.2,6.8-2.2s4.7.8,6.2,2.4c.6.7,1,1.4,1.4,2.3.8-.9,1.7-1.7,2.8-2.5,2.1-1.5,4.4-2.2,6.8-2.2s4.7.8,6.2,2.4c1.4,1.6,2.2,3.8,2.2,6.8v8.9c0,1.1.2,1.8.5,2.2.3.4,1,.6,2.1.6h1.7v4h-15.3v-4h1.3c.8,0,1.4-.2,1.6-.6.3-.4.4-1.1.4-2.2v-6.6c0-2.1-.3-3.6-.9-4.6-.6-1-1.5-1.5-2.8-1.5s-2.3.3-3.3,1c-.9.6-1.7,1.5-2.5,2.7v9c0,1.1.1,1.8.4,2.2.3.4.9.6,1.7.6h1.4v4h-14.8v-4h1.4c.9,0,1.5-.2,1.8-.6.3-.4.4-1.1.4-2.2v-6.6c0-2.1-.3-3.6-.9-4.6-.6-1-1.5-1.5-2.8-1.5s-2.3.3-3.3,1c-.9.6-1.7,1.5-2.5,2.7v9c0,1.1.1,1.8.4,2.2.3.4.8.6,1.7.6h1.3v4h-15.3v-4h1.6c1,0,1.7-.2,2.1-.6.3-.4.5-1.1.5-2.2"/>
    <path class="st4" d="M246.1,143.1c-.2-1.5-.6-2.6-1.2-3.5-.9-1.4-2.3-2-4.3-2s-3.4.6-4.3,1.9c-.6.8-1,2-1.2,3.6h11ZM240.6,158.9c-4.2,0-7.5-1.1-9.9-3.3-2.4-2.2-3.7-5.2-3.7-8.9s1.2-7.3,3.7-9.7c2.4-2.4,5.7-3.6,9.9-3.6s6.9,1.1,9.1,3.4c2.2,2.3,3.4,5.4,3.4,9.3v.7h-18.1c.1,2.4.7,4.2,1.7,5.7,1.1,1.7,2.7,2.5,4.8,2.5s2.6-.4,3.5-1.1c.9-.7,1.6-1.9,2.1-3.4h6c-.6,2.8-1.9,4.9-4,6.3-2.1,1.4-4.9,2.1-8.5,2.1"/>
    <path class="st4" d="M258.5,151.5v-10.6c0-1.1-.2-1.8-.5-2.2-.3-.4-1-.5-2-.5h-1.6v-4h11.8v3.1c.6-.6,1.3-1.1,2-1.6,2.1-1.5,4.4-2.2,6.8-2.2s4.7.8,6.1,2.4c1.4,1.6,2.1,3.8,2.1,6.7v8.9c0,1.1.2,1.8.5,2.2.3.4,1,.6,2.1.6h1.7v4h-15.3v-4h1.3c.8,0,1.3-.2,1.6-.6.3-.4.4-1.1.4-2.2v-6.6c0-2.1-.3-3.6-.9-4.6-.6-1-1.5-1.5-2.8-1.5s-2.2.3-3.2,1c-.9.6-1.7,1.5-2.5,2.7v8.9c0,1.1.1,1.8.4,2.2.3.4.8.6,1.7.6h1.3v4h-15.3v-4h1.6c1,0,1.7-.2,2.1-.6.3-.4.5-1.1.5-2.2"/>
    <path class="st4" d="M292.9,149.7v-11.8h-4.2v-3.8c2.8,0,4.7-.3,5.6-1.3,1.2-1.3,1.8-3.5,1.9-6.6h4.4v7.9h6.9v3.8h-6.9v13.9c0,.9.1,1.6.4,2.1.3.4.7.7,1.4.7s1.4-.3,1.8-1c.4-.7.6-1.7.6-3.1v-1.7h4v1.7c0,2.5-.7,4.5-2.2,6-1.5,1.5-3.4,2.2-5.9,2.2s-4.9-.7-6.1-2c-1.1-1.3-1.7-3.7-1.7-7"/>
    <path class="st4" d="M325.5,147.6v-1.4l-2.6,1c-2.3.9-3.8,1.6-4.5,2.2-.7.6-1,1.4-1,2.4s.3,1.6.9,2.2c.6.6,1.3.8,2.3.8,1.8,0,3.2-1,4.2-3.1l.4-1.1c.1-.3.2-.7.3-1.3,0-.6.1-1.2.1-1.7M317.8,158.9c-2.6,0-4.6-.6-6.1-1.8-1.5-1.2-2.3-2.8-2.3-4.8s.6-3.5,1.9-4.6c1.3-1.1,3.5-1.9,6.6-2.6l4.6-1c1.1-.2,1.8-.7,2.4-1.4.5-.7.7-1.5.5-2.5-.2-1.1-.6-1.9-1.3-2.5-.9-.8-2.4-1.2-4.5-1.2s-3,.3-4,.9h-.2c.9.1,1.6.4,2.1.8.5.5.8,1.3.8,2.3s-.4,1.6-1.1,2.1c-.8.6-1.7.9-2.8.9s-2-.3-2.8-1c-.8-.7-1.1-1.6-1.1-2.6,0-2,.9-3.6,2.8-4.8,1.8-1.2,4.3-1.8,7.4-1.8s7.2.8,9.3,2.4c2.1,1.6,3.1,4,3.1,7.1v9.3c0,.9,0,1.6.3,2.1.2.4.5.6.9.6.6,0,1-.3,1.2-.8.3-.6.4-1.4.4-2.6v-1.7h3v1.7c0,2.2-.6,4-1.7,5.3-1.2,1.3-2.7,2-4.7,2s-3.8-.7-5.1-2.1c-.6-.7-1-1.4-1.4-2.3v.2c-1.9,3-4.6,4.4-8.3,4.4"/>
    <path class="st4" d="M354.9,147.6v-1.4l-2.6,1c-2.3.9-3.8,1.6-4.5,2.2-.7.6-1,1.4-1,2.4s.3,1.6.9,2.2c.6.6,1.3.8,2.3.8,1.8,0,3.2-1,4.2-3.1l.4-1.1c.1-.3.2-.7.3-1.3,0-.6.1-1.2.1-1.7M347.2,158.9c-2.6,0-4.6-.6-6.1-1.8-1.5-1.2-2.3-2.8-2.3-4.8s.6-3.5,1.9-4.6c1.3-1.1,3.5-1.9,6.6-2.6l4.6-1c1.1-.2,1.8-.7,2.4-1.4.5-.7.7-1.5.5-2.5-.2-1.1-.6-1.9-1.3-2.5-.9-.8-2.4-1.2-4.5-1.2s-3,.3-4,.9h-.2c.9.1,1.6.4,2.1.8.5.5.8,1.3.8,2.3s-.4,1.6-1.1,2.1c-.8.6-1.7.9-2.8.9s-2-.3-2.8-1c-.8-.7-1.1-1.6-1.1-2.6,0-2,.9-3.6,2.8-4.8,1.8-1.2,4.3-1.8,7.4-1.8s7.2.8,9.3,2.4c2.1,1.6,3.1,4,3.1,7.1v9.3c0,.9,0,1.6.3,2.1.2.4.5.6.9.6.6,0,1-.3,1.2-.8.3-.6.4-1.4.4-2.6v-1.7h3v1.7c0,2.2-.6,4-1.7,5.3-1.2,1.3-2.7,2-4.7,2s-3.8-.7-5.1-2.1c-.6-.7-1-1.4-1.4-2.3v.2c-1.9,3-4.6,4.4-8.2,4.4"/>
    <path class="st4" d="M372.4,151.5v-21.2c0-1.1-.2-1.8-.6-2.2-.4-.4-1.1-.6-2.2-.6h-1.8v-4h12.2v27.9c0,1.1.2,1.8.5,2.2.3.4,1,.5,1.9.5h1.5v4h-16.2v-4h1.8c1.1,0,1.9-.2,2.3-.6.4-.4.6-1.1.6-2.2"/>
    <path class="st4" d="M54.4,105.9v-31.7c0-1.6-.3-2.7-.8-3.3-.5-.5-1.6-.8-3.2-.8h-2.6v-6.1h18v32l9.9-7.2c1.6-1.1,2.4-1.9,2.2-2.3-.2-.4-1.3-.6-3.4-.6h-3.3v-6.1h26.2v6.1h-2.7c-1.6,0-3,.2-4.1.6-1.1.4-2.5,1.1-4.2,2.3l-6.5,4.5,12.3,13.6c1.1,1.2,2.1,2,2.8,2.5.7.4,1.6.6,2.6.6h1.7v6.1h-24.4v-6.1h2.2c1.4,0,2.2-.2,2.4-.6.1-.4-.3-1.1-1.3-2.3l-6.8-7.9-5.7,4v2.7c0,1.6.3,2.7.8,3.3.5.5,1.5.8,3,.8h2.4v6.1h-23.9v-6.1h2.4c1.6,0,2.6-.3,3.1-.8.5-.5.8-1.6.8-3.3"/>
    <path class="st4" d="M118.1,79.9v20.1c0,3.1.4,5.4,1.3,6.9.9,1.5,2.3,2.2,4.2,2.2s3.4-.5,4.9-1.5c1.3-.9,2.6-2.3,3.8-4.1v-13.4c0-1.6-.2-2.7-.6-3.3-.4-.5-1.2-.8-2.4-.8h-1.9v-6.1h16.4v26c0,1.6.3,2.7.8,3.3.5.5,1.6.8,3.1.8h2.5v6.1h-17.9v-4.8c-.9.9-1.9,1.8-3,2.5-3.2,2.2-6.6,3.3-10.2,3.3s-7.1-1.2-9.2-3.5c-2.1-2.4-3.2-5.7-3.2-10.1v-13.4c0-1.6-.3-2.7-.8-3.3-.5-.5-1.5-.8-3.1-.8h-2.5v-6.1h17.8Z"/>
    <path class="st4" d="M160.5,105.9v-15.8c0-1.6-.3-2.7-.8-3.3-.5-.5-1.5-.8-3.1-.8h-2.5v-6.1h17.8v4.7c1-.9,2-1.7,3-2.5,3.2-2.2,6.6-3.3,10.2-3.3s7.1,1.2,9.3,3.6c.9,1,1.6,2.1,2.1,3.4,1.2-1.4,2.6-2.6,4.1-3.7,3.2-2.2,6.6-3.3,10.2-3.3s7.1,1.2,9.2,3.6c2.2,2.4,3.2,5.8,3.2,10.2v13.3c0,1.6.3,2.7.8,3.3.5.5,1.6.8,3.1.8h2.5v6.1h-23v-6.1h2c1.2,0,2.1-.3,2.5-.8.4-.5.6-1.6.6-3.3v-9.8c0-3.2-.4-5.5-1.3-6.9-.9-1.5-2.3-2.2-4.2-2.2s-3.4.5-4.9,1.5c-1.3.9-2.6,2.2-3.8,4v13.4c0,1.6.2,2.7.7,3.3.4.6,1.3.8,2.6.8h2.1v6.1h-22.2v-6.1h2.1c1.3,0,2.2-.3,2.6-.8.4-.5.7-1.6.7-3.3v-9.8c0-3.2-.4-5.5-1.3-6.9-.9-1.5-2.3-2.2-4.2-2.2s-3.4.5-4.9,1.5c-1.3.9-2.6,2.2-3.8,4v13.4c0,1.6.2,2.7.6,3.3.4.6,1.3.8,2.5.8h2v6.1h-22.9v-6.1h2.4c1.6,0,2.6-.3,3.1-.8.5-.5.8-1.6.8-3.3"/>
    <path class="st4" d="M243.7,79.8v20.1c0,3.1.4,5.4,1.3,6.9.9,1.5,2.3,2.2,4.2,2.2s3.4-.5,4.9-1.5c1.3-.9,2.6-2.3,3.8-4.1v-13.4c0-1.6-.2-2.7-.6-3.3-.4-.5-1.2-.8-2.4-.8h-1.9v-6.1h16.4v26c0,1.6.3,2.7.8,3.3.5.5,1.6.8,3.1.8h2.5v6.1h-17.9v-4.8c-.9.9-1.9,1.8-3,2.5-3.2,2.2-6.6,3.3-10.2,3.3s-7.1-1.2-9.2-3.5c-2.2-2.4-3.2-5.7-3.2-10.1v-13.4c0-1.6-.3-2.7-.8-3.3-.5-.5-1.5-.8-3.1-.8h-2.5v-6.1h17.8Z"/>
    <path class="st5" d="M341,97.3c0-11.8,9.6-21.4,21.4-21.4s21.4,9.6,21.4,21.4-9.6,21.4-21.4,21.4-21.4-9.6-21.4-21.4"/>
    <path class="st1" d="M292.6,97.2c0-11.8,9.6-21.4,21.4-21.4s21.4,9.6,21.4,21.4-9.6,21.4-21.4,21.4-21.4-9.6-21.4-21.4"/>
    <path class="st2" d="M350.5,79.5c3.4-2.3,7.5-3.7,12-3.7,11.8,0,21.4,9.6,21.4,21.4s-9.6,21.4-21.4,21.4-8.6-1.3-12-3.7c5.7-3.9,9.5-10.4,9.5-17.8s-3.8-13.9-9.5-17.8"/>
    <path class="st6" d="M326,115c-3.4,2.3-7.5,3.7-12,3.7-11.8,0-21.4-9.6-21.4-21.4s9.6-21.4,21.4-21.4,8.6,1.3,12,3.7c-5.7,3.9-9.5,10.4-9.5,17.8s3.8,13.9,9.5,17.8"/>
  </g>
</svg>