<?xml version="1.0" encoding="utf-8"?>
<!-- Generator: Adobe Illustrator 25.2.3, SVG Export Plug-In . SVG Version: 6.00 Build 0)  -->
<svg version="1.1" id="Layer_1" xmlns="http://www.w3.org/2000/svg" xmlns:xlink="http://www.w3.org/1999/xlink" x="0px" y="0px"
	 viewBox="0 0 355 100" style="enable-background:new 0 0 355 100;" xml:space="preserve">
<style type="text/css">
	.st0{fill:#55B856;}
	.st1{fill-rule:evenodd;clip-rule:evenodd;fill:#ACACB5;}
	.st2{fill:#2C459B;}
	.st3{fill:#C365A7;}
	.st4{fill:#2950A2;}
	.st5{fill:#D77EB3;}
</style>
<g>
	<circle class="st0" cx="306.7" cy="34.9" r="22.8"/>
</g>
<g>
	<g>
		<path class="st1" d="M11.9,100c-3.6,0-6.5-1.2-8.6-3.6c-2.1-2.4-3.2-5.7-3.2-9.8c0-4.1,1.1-7.4,3.2-9.8c2.1-2.4,5-3.6,8.7-3.6
			c3.3,0,5.9,1.1,7.9,3.3v-6.5c0-1.1-0.2-1.9-0.6-2.3C19,67.2,18.2,67,17.1,67h-1.8v-4.3h5.3H26h2v29.4c0,1.1,0.2,1.9,0.5,2.3
			c0.4,0.4,1.1,0.6,2.2,0.6h1.8v4.3h-6.3h-6.3v-2.9C18,98.8,15.3,100,11.9,100z M14.5,77.8c-1.9,0-3.4,0.7-4.4,2.2
			c-1,1.5-1.5,3.7-1.5,6.5c0,2.9,0.5,5,1.5,6.5c1,1.5,2.5,2.2,4.4,2.2c1.9,0,3.4-0.7,4.4-2.2c1-1.5,1.5-3.7,1.5-6.5
			c0-2.9-0.5-5-1.5-6.5C17.9,78.5,16.4,77.8,14.5,77.8z"/>
		<path class="st1" d="M47.7,100c-4.5,0-8-1.2-10.6-3.6c-2.6-2.4-3.9-5.7-3.9-9.8c0-4.1,1.3-7.4,3.9-9.8c2.6-2.4,6.2-3.6,10.6-3.6
			c4.5,0,8,1.2,10.7,3.6c2.6,2.4,3.9,5.7,3.9,9.8c0,4.1-1.3,7.4-3.9,9.8C55.8,98.8,52.2,100,47.7,100z M47.7,95.3
			c2.1,0,3.7-0.7,4.7-2.1c1-1.4,1.5-3.6,1.5-6.6c0-3-0.5-5.2-1.5-6.7c-1-1.4-2.6-2.1-4.7-2.1c-2.1,0-3.7,0.7-4.7,2.1
			c-1,1.4-1.5,3.6-1.5,6.7c0,3,0.5,5.2,1.5,6.6C44.1,94.6,45.6,95.3,47.7,95.3z"/>
		<path class="st1" d="M67.9,92.1V69.8c0-1.1-0.2-1.9-0.6-2.3c-0.4-0.4-1.1-0.6-2.2-0.6h-1.8v-4.3h5.3h5.3h2v22.5l7-5
			c1.1-0.8,1.7-1.3,1.6-1.6c-0.1-0.3-0.9-0.4-2.4-0.4h-2.3v-4.3h9.2h9.2v4.3h-1.9c-1.1,0-2.1,0.1-2.9,0.4c-0.8,0.3-1.7,0.8-2.9,1.6
			l-4.6,3.2l8.7,9.5c0.8,0.9,1.5,1.4,2,1.7c0.5,0.3,1.1,0.4,1.8,0.4h1.2v4.3h-8.6h-8.6V95h1.6c1,0,1.6-0.1,1.7-0.4
			c0.1-0.3-0.2-0.8-0.9-1.6l-4.8-5.5l-4,2.8v1.9c0,1.1,0.2,1.9,0.5,2.3c0.4,0.4,1,0.6,2.1,0.6h1.7v4.3h-8.4h-8.4V95h1.7
			c1.1,0,1.8-0.2,2.2-0.6C67.7,94,67.9,93.3,67.9,92.1z"/>
		<path class="st1" d="M111.5,73.9V88c0,2.2,0.3,3.8,0.9,4.8c0.6,1,1.6,1.5,2.9,1.5c1.2,0,2.4-0.4,3.4-1.1c0.9-0.6,1.8-1.6,2.7-2.9
			V81c0-1.1-0.1-1.9-0.4-2.3c-0.3-0.4-0.8-0.6-1.7-0.6h-1.4v-4.3h4.7h4.8h2v18.3c0,1.1,0.2,1.9,0.5,2.3c0.4,0.4,1.1,0.6,2.2,0.6h1.8
			v4.3h-6.3h-6.3v-3.3c-0.6,0.6-1.3,1.2-2.1,1.8c-2.2,1.5-4.6,2.3-7.2,2.3c-2.8,0-5-0.8-6.5-2.5c-1.5-1.7-2.3-4-2.3-7.1V81
			c0-1.1-0.2-1.9-0.5-2.3c-0.4-0.4-1.1-0.6-2.1-0.6H99v-4.3h5.2h5.2H111.5z"/>
		<path class="st1" d="M140.2,92.1V81c0-1.1-0.2-1.9-0.5-2.3c-0.4-0.4-1.1-0.6-2.1-0.6h-1.7v-4.3h5.2h5.2h2v3.3
			c0.7-0.6,1.4-1.2,2.1-1.7c2.2-1.5,4.6-2.3,7.2-2.3c2.8,0,5,0.8,6.5,2.5c0.6,0.7,1.1,1.5,1.5,2.4c0.9-1,1.8-1.8,2.9-2.6
			c2.2-1.5,4.6-2.3,7.2-2.3c2.8,0,5,0.8,6.5,2.5c1.5,1.7,2.3,4.1,2.3,7.1v9.4c0,1.1,0.2,1.9,0.5,2.3c0.4,0.4,1.1,0.6,2.2,0.6h1.8
			v4.3h-8.1h-8.1V95h1.4c0.9,0,1.4-0.2,1.7-0.6s0.4-1.2,0.4-2.3v-6.9c0-2.2-0.3-3.8-0.9-4.9c-0.6-1-1.6-1.5-2.9-1.5
			c-1.3,0-2.4,0.4-3.5,1.1c-0.9,0.6-1.8,1.6-2.7,2.8v9.4c0,1.2,0.2,1.9,0.5,2.3s0.9,0.6,1.8,0.6h1.5v4.3h-7.8h-7.8V95h1.5
			c0.9,0,1.5-0.2,1.8-0.6c0.3-0.4,0.5-1.2,0.5-2.3v-6.9c0-2.2-0.3-3.8-0.9-4.9c-0.6-1-1.6-1.5-2.9-1.5c-1.3,0-2.4,0.4-3.5,1.1
			c-0.9,0.6-1.8,1.6-2.7,2.8v9.4c0,1.2,0.1,1.9,0.4,2.3s0.9,0.6,1.8,0.6h1.4v4.3h-8h-8V95h1.7c1.1,0,1.8-0.2,2.2-0.6
			C140,94,140.2,93.3,140.2,92.1z"/>
		<path class="st1" d="M203.8,100c-4.4,0-7.9-1.2-10.4-3.5c-2.6-2.3-3.8-5.5-3.8-9.4c0-4.3,1.3-7.7,3.9-10.2c2.6-2.5,6-3.8,10.4-3.8
			c4.1,0,7.3,1.2,9.6,3.6c2.4,2.4,3.6,5.7,3.6,9.8v0.7h-19c0.1,2.5,0.7,4.5,1.8,6c1.2,1.8,2.9,2.6,5,2.6c1.5,0,2.7-0.4,3.7-1.2
			c1-0.8,1.7-2,2.2-3.6h6.4c-0.6,2.9-2,5.2-4.2,6.6C210.6,99.3,207.6,100,203.8,100z M209.7,83.3c-0.2-1.6-0.6-2.8-1.2-3.7
			c-1-1.4-2.5-2.2-4.5-2.2c-2.1,0-3.6,0.7-4.5,2c-0.6,0.9-1.1,2.2-1.3,3.8H209.7z"/>
		<path class="st1" d="M222.8,92.1V81c0-1.1-0.2-1.9-0.5-2.3c-0.4-0.4-1.1-0.6-2.1-0.6h-1.7v-4.3h5.2h5.2h2v3.3
			c0.6-0.6,1.3-1.2,2.1-1.7c2.2-1.5,4.6-2.3,7.1-2.3c2.8,0,5,0.8,6.5,2.5c1.5,1.7,2.3,4,2.3,7.1v9.4c0,1.1,0.2,1.9,0.5,2.3
			c0.4,0.4,1.1,0.6,2.2,0.6h1.8v4.3h-8h-8.1V95h1.4c0.9,0,1.4-0.2,1.7-0.6c0.3-0.4,0.4-1.2,0.4-2.3v-7c0-2.2-0.3-3.8-0.9-4.8
			c-0.6-1-1.6-1.5-2.9-1.5c-1.2,0-2.3,0.4-3.4,1.1c-0.9,0.6-1.8,1.6-2.7,2.9v9.4c0,1.2,0.1,1.9,0.4,2.3s0.9,0.6,1.8,0.6h1.4v4.3h-8
			h-8V95h1.7c1.1,0,1.8-0.2,2.2-0.6C222.6,94,222.8,93.3,222.8,92.1z"/>
		<path class="st1" d="M259,90.3V77.9h-4.5v-4c2.9,0.1,4.9-0.4,5.9-1.4c1.2-1.3,1.9-3.7,2-7h4.6v8.4h7.3v4H267v14.7
			c0,1,0.1,1.7,0.4,2.2c0.3,0.5,0.8,0.7,1.4,0.7c0.9,0,1.5-0.3,1.9-1c0.4-0.7,0.6-1.8,0.6-3.3v-1.8h4.3v1.8c0,2.7-0.8,4.8-2.3,6.3
			c-1.5,1.6-3.6,2.3-6.2,2.3c-3.1,0-5.2-0.7-6.4-2.1C259.6,96.3,259,93.8,259,90.3z"/>
		<path class="st1" d="M285.1,100c-2.7,0-4.9-0.6-6.4-1.9c-1.6-1.3-2.4-2.9-2.4-5.1c0-2.1,0.7-3.7,2-4.9c1.3-1.1,3.7-2.1,7-2.7
			l4.9-1c1.1-0.2,1.9-0.7,2.5-1.5c0.5-0.7,0.7-1.6,0.5-2.6c-0.2-1.2-0.7-2.1-1.3-2.7c-1-0.8-2.5-1.2-4.7-1.2c-1.8,0-3.2,0.3-4.2,0.9
			l-0.2,0.1c1,0.1,1.7,0.3,2.2,0.8c0.6,0.5,0.8,1.3,0.8,2.4c0,0.9-0.4,1.6-1.2,2.2c-0.8,0.6-1.8,0.9-2.9,0.9c-1.2,0-2.1-0.4-2.9-1.1
			c-0.8-0.7-1.2-1.6-1.2-2.7c0-2.1,1-3.8,2.9-5c1.9-1.2,4.5-1.8,7.8-1.8c4.3,0,7.6,0.8,9.8,2.5c2.2,1.7,3.3,4.2,3.3,7.5v9.8
			c0,1,0.1,1.7,0.3,2.2c0.2,0.5,0.5,0.7,0.9,0.7c0.6,0,1-0.3,1.3-0.9c0.3-0.6,0.4-1.5,0.4-2.8v-1.8h3.1v1.8c0,2.3-0.6,4.2-1.8,5.6
			c-1.2,1.4-2.9,2.1-4.9,2.1c-2.2,0-4-0.7-5.3-2.2c-0.6-0.7-1.1-1.5-1.4-2.4l-0.1,0.2C291.8,98.4,289,100,285.1,100z M293.3,88v-1.5
			l-2.8,1.1c-2.4,0.9-4,1.7-4.7,2.3c-0.7,0.6-1.1,1.5-1.1,2.6c0,1,0.3,1.7,0.9,2.3c0.6,0.6,1.4,0.9,2.4,0.9c1.9,0,3.4-1.1,4.4-3.3
			l0.5-1.2c0.1-0.3,0.2-0.7,0.3-1.4C293.3,89.2,293.3,88.6,293.3,88z"/>
		<path class="st1" d="M316.1,100c-2.7,0-4.9-0.6-6.4-1.9c-1.6-1.3-2.4-2.9-2.4-5.1c0-2.1,0.7-3.7,2-4.9c1.3-1.1,3.7-2.1,7-2.7
			l4.9-1c1.1-0.2,1.9-0.7,2.5-1.5c0.5-0.7,0.7-1.6,0.5-2.6c-0.2-1.2-0.7-2.1-1.3-2.7c-1-0.8-2.5-1.2-4.7-1.2c-1.8,0-3.2,0.3-4.2,0.9
			l-0.2,0.1c1,0.1,1.7,0.3,2.2,0.8c0.6,0.5,0.8,1.3,0.8,2.4c0,0.9-0.4,1.6-1.2,2.2c-0.8,0.6-1.8,0.9-2.9,0.9c-1.2,0-2.1-0.4-2.9-1.1
			c-0.8-0.7-1.2-1.6-1.2-2.7c0-2.1,1-3.8,2.9-5c1.9-1.2,4.5-1.8,7.8-1.8c4.3,0,7.6,0.8,9.8,2.5c2.2,1.7,3.3,4.2,3.3,7.5v9.8
			c0,1,0.1,1.7,0.3,2.2c0.2,0.5,0.5,0.7,0.9,0.7c0.6,0,1-0.3,1.3-0.9c0.3-0.6,0.4-1.5,0.4-2.8v-1.8h3.1v1.8c0,2.3-0.6,4.2-1.8,5.6
			s-2.9,2.1-4.9,2.1c-2.2,0-4-0.7-5.3-2.2c-0.6-0.7-1.1-1.5-1.4-2.4l-0.1,0.2C322.8,98.4,319.9,100,316.1,100z M324.3,88v-1.5
			l-2.8,1.1c-2.4,0.9-4,1.7-4.7,2.3c-0.7,0.6-1.1,1.5-1.1,2.6c0,1,0.3,1.7,0.9,2.3c0.6,0.6,1.4,0.9,2.4,0.9c1.9,0,3.4-1.1,4.4-3.3
			l0.5-1.2c0.1-0.3,0.2-0.7,0.3-1.4C324.3,89.2,324.3,88.6,324.3,88z"/>
		<path class="st1" d="M342.7,92.1V69.8c0-1.1-0.2-1.9-0.6-2.3c-0.4-0.4-1.2-0.6-2.3-0.6h-1.9v-4.3h5.4h5.4h2v29.4
			c0,1.1,0.2,1.9,0.5,2.3c0.3,0.4,1,0.6,2,0.6h1.6v4.3h-8.5h-8.5V95h1.9c1.2,0,2-0.2,2.4-0.6C342.5,94,342.7,93.3,342.7,92.1z"/>
	</g>
	<g>
		<path class="st1" d="M7.8,44.1V10.7c0-1.7-0.3-2.9-0.8-3.5C6.4,6.7,5.3,6.4,3.6,6.4H0.9V0h8h8h3v33.7l10.4-7.6
			c1.7-1.2,2.5-2,2.3-2.4c-0.2-0.4-1.4-0.6-3.6-0.6h-3.5v-6.4h13.8h13.8v6.4h-2.8c-1.7,0-3.1,0.2-4.3,0.6c-1.2,0.4-2.6,1.2-4.4,2.4
			l-6.9,4.8l13,14.3c1.2,1.3,2.2,2.1,3,2.6c0.8,0.4,1.7,0.7,2.7,0.7h1.8v6.4H42.4H29.5v-6.4h2.3c1.5,0,2.4-0.2,2.5-0.6
			c0.2-0.4-0.3-1.2-1.3-2.4l-7.2-8.3l-6,4.2v2.8c0,1.7,0.3,2.9,0.8,3.4c0.5,0.6,1.6,0.9,3.1,0.9h2.5v6.4H13.7H1.1v-6.4h2.6
			c1.6,0,2.7-0.3,3.3-0.9C7.5,47,7.8,45.9,7.8,44.1z"/>
		<path class="st1" d="M74.8,16.7v21.1c0,3.3,0.5,5.7,1.4,7.2c0.9,1.5,2.4,2.3,4.4,2.3c1.9,0,3.6-0.5,5.2-1.6c1.4-1,2.7-2.4,4-4.3
			V27.4c0-1.7-0.2-2.9-0.6-3.4c-0.4-0.6-1.3-0.9-2.5-0.9h-2v-6.4h7.1h7.1h3v27.4c0,1.7,0.3,2.9,0.8,3.4c0.5,0.6,1.7,0.9,3.3,0.9h2.6
			v6.4h-9.4h-9.4v-5c-0.9,1-2,1.9-3.1,2.7c-3.3,2.3-6.9,3.5-10.8,3.5c-4.2,0-7.4-1.2-9.7-3.7s-3.4-6-3.4-10.6V27.4
			c0-1.7-0.3-2.9-0.8-3.4c-0.5-0.6-1.6-0.9-3.2-0.9h-2.6v-6.4h7.8h7.8H74.8z"/>
		<path class="st1" d="M119.5,44.1V27.4c0-1.7-0.3-2.9-0.8-3.5c-0.5-0.6-1.6-0.9-3.2-0.9h-2.6v-6.4h7.8h7.8h3v5
			c1-0.9,2.1-1.8,3.2-2.6c3.3-2.3,6.9-3.5,10.8-3.5c4.2,0,7.5,1.3,9.8,3.8c0.9,1,1.7,2.2,2.2,3.6c1.3-1.5,2.7-2.8,4.4-3.9
			c3.3-2.3,6.9-3.5,10.8-3.5c4.2,0,7.5,1.3,9.7,3.8c2.3,2.5,3.4,6.1,3.4,10.7v14c0,1.7,0.3,2.9,0.8,3.5c0.5,0.6,1.7,0.9,3.3,0.9h2.6
			v6.4h-12.1h-12.1v-6.4h2.1c1.3,0,2.2-0.3,2.6-0.9c0.4-0.6,0.7-1.7,0.7-3.5V33.8c0-3.3-0.5-5.8-1.4-7.3c-0.9-1.5-2.4-2.3-4.4-2.3
			c-1.9,0-3.6,0.5-5.2,1.6c-1.4,1-2.7,2.4-4,4.2v14.1c0,1.7,0.2,2.9,0.7,3.5c0.5,0.6,1.4,0.9,2.7,0.9h2.2v6.4h-11.7h-11.7v-6.4h2.2
			c1.4,0,2.3-0.3,2.8-0.9c0.5-0.6,0.7-1.7,0.7-3.5V33.8c0-3.3-0.5-5.8-1.4-7.3c-0.9-1.5-2.4-2.3-4.4-2.3c-1.9,0-3.6,0.5-5.2,1.6
			c-1.4,1-2.7,2.4-4,4.2v14.1c0,1.7,0.2,2.9,0.7,3.5c0.4,0.6,1.3,0.9,2.7,0.9h2.1v6.4H125h-12.1v-6.4h2.6c1.6,0,2.7-0.3,3.3-0.9
			C119.2,47,119.5,45.9,119.5,44.1z"/>
		<path class="st1" d="M207.1,16.7v21.1c0,3.3,0.5,5.7,1.4,7.2c0.9,1.5,2.4,2.3,4.4,2.3c1.9,0,3.6-0.5,5.2-1.6c1.4-1,2.7-2.4,4-4.3
			V27.4c0-1.7-0.2-2.9-0.6-3.4c-0.4-0.6-1.3-0.9-2.5-0.9h-2v-6.4h7.1h7.1h3v27.4c0,1.7,0.3,2.9,0.8,3.4c0.5,0.6,1.7,0.9,3.3,0.9h2.6
			v6.4h-9.4H222v-5c-0.9,1-2,1.9-3.1,2.7c-3.3,2.3-6.9,3.5-10.8,3.5c-4.2,0-7.4-1.2-9.7-3.7s-3.4-6-3.4-10.6V27.4
			c0-1.7-0.3-2.9-0.8-3.4c-0.5-0.6-1.6-0.9-3.2-0.9h-2.6v-6.4h7.8h7.8H207.1z"/>
	</g>
</g>
<g>
	<g>
		<g>
			<circle class="st2" cx="332.3" cy="35" r="22.6"/>
		</g>
	</g>
	<g>
		<path class="st3" d="M258.6,35c0-12.5,10.1-22.6,22.6-22.6c12.5,0,22.6,10.1,22.6,22.6c0,12.5-10.1,22.6-22.6,22.6
			C268.8,57.6,258.6,47.5,258.6,35z"/>
	</g>
	<g>
		<path class="st4" d="M319.7,16.3c3.6-2.4,7.9-3.8,12.6-3.8c12.5,0,22.6,10.1,22.6,22.6c0,12.5-10.1,22.6-22.6,22.6
			c-4.7,0-9-1.4-12.6-3.8c6-4.1,10-10.9,10-18.7S325.7,20.3,319.7,16.3z"/>
	</g>
	<g>
		<path class="st5" d="M293.8,53.7c-3.6,2.4-7.9,3.8-12.6,3.8c-12.5,0-22.6-10.1-22.6-22.6c0-12.5,10.1-22.6,22.6-22.6
			c4.7,0,9,1.4,12.6,3.8c-6,4.1-10,10.9-10,18.7C283.9,42.8,287.8,49.7,293.8,53.7z"/>
	</g>
</g>
</svg>
