<?xml version="1.0" encoding="utf-8"?>
<!-- Generator: Adobe Illustrator 27.0.0, SVG Export Plug-In . SVG Version: 6.00 Build 0)  -->
<svg version="1.1" id="Layer_1" xmlns="http://www.w3.org/2000/svg" xmlns:xlink="http://www.w3.org/1999/xlink" x="0px" y="0px"
	 viewBox="0 0 384.7 138.2" style="enable-background:new 0 0 384.7 138.2;" xml:space="preserve">
<style type="text/css">
	.st0{fill:#FFFFFF;}
	.st1{fill:#F79432;}
</style>
<g>
	<path class="st0" d="M193.4,24.4c15.1,0,21.1,10.5,21.1,21.3S206.7,67,193,67h-13.4v24.5h-15.5V24.4H193.4z M179.5,53.3h11.4
		c5.8,0,8.1-3.4,8.1-7.5s-2.1-7.5-8.1-7.5h-11.4V53.3z"/>
	<path class="st0" d="M248.4,92.2c-13.9,0-26.3-7.2-26.3-21.9V45.1c0-14.7,13.6-21.3,26.3-21.3c12.9,0,26.3,7.1,26.3,21.8v24.8
		C274.7,85,262.5,92.2,248.4,92.2z M239,4.9c4.2,0,7.6,3.3,7.6,7.5S243.2,20,239,20c-4.2,0-7.5-3.4-7.5-7.6S234.8,4.9,239,4.9z
		 M259.1,48.5c0-7.7-5.7-10.5-10.7-10.5s-10.8,2.8-10.8,10.5v19c0,7.7,5.8,10.5,10.8,10.5s10.7-2.8,10.7-10.5V48.5z M258.4,4.9
		c4.2,0,7.5,3.3,7.5,7.5s-3.3,7.6-7.5,7.6s-7.6-3.4-7.6-7.6S254.2,4.9,258.4,4.9z"/>
	<path class="st0" d="M299,51.5h26.8v13.7H299v26.3h-15.5V24.4h46.9v13.8H299V51.5z"/>
	<path class="st0" d="M353.3,51.5h26.8v13.7h-26.8v26.3h-15.5V24.4h46.9v13.8h-31.4V51.5z"/>
	<path class="st0" d="M41.3,129.7c-0.4-1.4-0.9-2.9-1.3-4.3c-0.4-1.4-0.9-2.8-1-4.2c-0.1-1.1,0.2-2.1,0.9-3c0.4-0.5,0.8-0.9,1.2-1.4
		c1.5-2,1.9-4.4,2.2-6.8c0.1-1,0-2,0-3c0-0.2,0.1-0.5-0.2-0.6c-0.2-0.1-0.3,0.2-0.5,0.3c-0.4,0.6-0.8,1.1-1.3,1.6
		c-1.2,1.2-2.4,2.5-3.6,3.8c-0.9,1-1.9,2-2.9,2.8c-0.9,0.8-1.8,1.6-2.5,2.7c-0.9,1.5-1.8,3-2.7,4.5c-0.9,1.5-1.4,3-1.4,4.8
		c-0.1,1.4,0,2.7,0.3,4c0.1,0.2,0.1,0.5,0.2,0.7c4.6,2.4,9.6,4.2,15.1,5.3c-0.4-1.1-0.8-2.2-1.2-3.3
		C42.2,132.4,41.7,131.1,41.3,129.7"/>
	<path class="st0" d="M77.3,126.1c-0.3-1.5-0.5-3-0.8-4.5c-0.3-2.3-0.7-4.6-0.9-6.9c-0.2-2.4-0.6-4.8-0.7-7.3c0-1.1-0.3-2.2-0.3-3.4
		c-0.1-1-0.4-1.3-1.2-1c-1.3,0.5-2.7,0.6-4.1,1c-0.6,0.2-1.3,0.2-1.9,0.3c-1.8,0.5-3.6,0.5-5.4,0.7c-1.5,0.1-3,0.1-4.5,0.1
		c-0.3,0-0.6,0.1-0.7,0.5c-0.4,1.7-1.5,2.9-2.5,4.1c-0.8,0.9-1.5,1.9-2.3,2.8c-1.1,1.5-2.2,3.1-3.2,4.7c-0.8,1.2-1.7,2.3-2.1,3.8
		c-0.2,0.6-0.3,1.3-0.5,2c-0.3,1.2-0.3,2.4,0.1,3.7c0.2,0.8,0.5,1.6,0.7,2.5c0.4,1.6,1.1,3.2,1.5,4.8c0.1,0.2,0.2,0.4,0.3,0.4
		c0.6,0.2,1,0.5,1.6,0.7c1,0.4,1.9,1,2.4,2c0.2,0.4,0.2,0.8,0.1,1.1H53c8.4,0.3,16.7-1,24.7-3.7c0-1.7-0.1-3.5-0.1-5.3
		C77.6,128.1,77.5,127.1,77.3,126.1"/>
	<path class="st0" d="M81.6,0.1C45.3-1.4,9.5,28.3,1.6,66.4c-5.5,26.4,3.9,49.9,22.2,62.3c-0.1-0.6-0.1-1.1-0.2-1.7
		c-0.3-1.8-0.3-3.6-0.3-5.5c0-0.5,0.1-0.9,0.3-1.4c0.4-0.9,0.9-1.7,1.4-2.5c0.6-1.1,1.2-2.2,1.9-3.2c1-1.4,1.7-3,2.3-4.6
		c0.4-1.1,0.6-2.1,0.9-3.2c0.3-1.3,0.5-2.6,0.4-3.9s-0.2-2.5-0.4-3.8c0,0-0.9-4.1-0.9-9.6c-0.7,1.4-1.4,3.8-2,6.6
		c-1.4,5.8-2.6,13.2-3.1,15.5c-0.9,4.1-0.8,4.1-1.8,4.2c-0.4,0.1-0.8-0.4-1-1.3c-0.6-2.9-6.1-10.1,0.4-26.1s16.4-22,28.5-23.5
		c12.1-1.5,25.2,0.1,27.9-4.7c2.3-4,5.5-9.5,6.8-11.8c0.2-0.3,0-1-0.2-1.5c-1.5-5,0.8-12.3,1.6-12.2c0.8,0.1,5.3,6.7,5.7,6.2
		c0.2-0.3,2.7-0.6,5.2-0.6s5,0.3,5.2,0.6c0.3,0.5,4.9-6,5.7-6.2c0.8-0.1,3,7.2,1.6,12.2c-0.1,0.5-0.2,1-0.2,1.5
		c0,0.9,0.2,1.7,0.5,2.5c0.4,1.2,2,8.5,1.1,15.7c-0.8,7.3-4.2,11-4.5,11.8s-0.3,6.1-2.7,10.8c0,0.2-0.1,0.4-0.1,0.6
		c-0.3,1.5-0.8,3-1.4,4.4c-0.3,0.7-0.5,1.4-0.8,2c-0.4,0.8-0.8,1.7-1.3,2.5c-0.9,1.6-2,3-3.1,4.4c-0.9,1.1-1.9,2.3-2.3,3.8
		c-0.1,0.2-0.1,0.5-0.3,0.6c-0.6,0.6-0.8,1.4-0.9,2.2c-0.1,1.1-0.4,2.2-0.7,3.3c-0.3,1.3-0.4,2.6-0.8,3.8c-0.2,0.7-0.1,1.4-0.3,2.1
		c-0.4,1.5-0.5,3.1-0.7,4.7c-0.1,1.6-0.3,3.3-0.2,5c20.7-11.6,37.1-32.5,42.2-56.8C141,33.6,117.9,1.5,81.6,0.1"/>
	<path class="st0" d="M84.7,127.7c0-2.5,0.1-5,0.1-7.5c0-1.5,0.3-2.9,0.4-4.4c0.1-1.6,0.4-3.2,0.6-4.9c0.1-0.5,0.4-0.9,0.3-1.5
		c0-0.7,0.2-1.3,0.4-1.9c0.3-1.3,0.6-2.6,1.1-3.8c0.2-0.5,0.3-1,0.2-1.6c-0.3,0.5-0.5,0.8-0.7,1.2c-0.6,1-1,2-1.4,3.1
		c-0.4,1.2-0.8,2.3-1,3.5c-0.3,1.5-0.5,3-0.6,4.5c-0.1,1.3-0.3,2.5-0.4,3.8c-0.1,2.4-0.3,4.9-0.4,7.3c-0.1,2.3-0.3,4.5,0,6.8
		c0.4-0.2,0.9-0.4,1.3-0.6c-0.1-0.6-0.2-1.1-0.2-1.7C84.4,129.3,84.7,128.5,84.7,127.7"/>
	<g>
		<path class="st1" d="M168.2,127.7v-15.5l-2,1.7l-2.1-2.7l4.5-3.9h3.4v20.3h-3.8V127.7z"/>
		<path class="st1" d="M181.9,127.7v-15.5l-2,1.7l-2.1-2.7l4.5-3.9h3.4v20.3h-3.8V127.7z"/>
		<path class="st1" d="M197.6,121.7v-3.3h9.6v3.3H197.6z"/>
		<path class="st1" d="M226.5,119c-1.6,1.3-4.5,2.9-4.9,5.3h8.8v3.4h-12.7v-2.9c0-3.3,2.2-5.5,4.5-7.2c2.2-1.6,4.4-3,4.4-4.7
			c0-1.3-1.4-2.2-2.9-2.2c-1.4,0-2.8,0.5-3.9,1.5l-1.9-3c1.5-1.3,3.7-2.1,6-2.1c3.2,0,6.5,1.4,6.5,5.7
			C230.5,115.5,228.3,117.5,226.5,119z"/>
		<path class="st1" d="M239.1,127.7h-4l6.9-16.9h-4.9v2.9h-3.5v-6.3h12.7v3.2L239.1,127.7z"/>
		<path class="st1" d="M261,114.9v12.8h-4v-20.3h3.7l4.7,7l3.9,5.9h0.1v-12.9h4v20.3h-3.7l-5.2-7.7l-3.4-5.1
			C261.1,114.9,261,114.9,261,114.9z"/>
		<path class="st1" d="M284.5,127.9c-4.3,0-7.8-2.3-7.8-6.7v-7.5c0-4.3,3.8-6.6,7.8-6.6s7.8,2.4,7.8,6.7v7.3
			C292.3,125.6,288.8,127.9,284.5,127.9z M288.2,114.6c0-2.7-1.9-3.7-3.7-3.7c-1.9,0-3.8,1-3.8,3.7v5.9c0,2.7,1.9,3.7,3.8,3.7
			s3.7-1,3.7-3.7V114.6z"/>
		<path class="st1" d="M303,121.7l2.1-7.2l2.1-7.1h4.2l-6.5,20.3h-4.2l-6.5-20.3h4.3l2.2,7.3l2,7C302.7,121.7,303,121.7,303,121.7z"
			/>
		<path class="st1" d="M329.6,119c-1.6,1.3-4.5,2.9-4.9,5.3h8.8v3.4h-12.7v-2.9c0-3.3,2.2-5.5,4.5-7.2c2.2-1.6,4.4-3,4.4-4.7
			c0-1.3-1.4-2.2-2.9-2.2c-1.4,0-2.8,0.5-3.9,1.5l-1.9-3c1.5-1.3,3.7-2.1,6-2.1c3.2,0,6.5,1.4,6.5,5.7
			C333.5,115.5,331.4,117.5,329.6,119z"/>
		<path class="st1" d="M342.9,127.8c-2.9,0-6.4-1.7-6.4-5.4v-9.8c0-3.7,3.5-5.5,6.4-5.5s6.4,1.8,6.4,5.5v9.8
			C349.3,126.1,345.8,127.8,342.9,127.8z M345.5,113.4c0-1.9-1.4-2.6-2.6-2.6s-2.6,0.7-2.6,2.6v8.3c0,1.9,1.4,2.6,2.6,2.6
			s2.6-0.7,2.6-2.6V113.4z"/>
		<path class="st1" d="M361.1,119c-1.6,1.3-4.5,2.9-4.9,5.3h8.8v3.4h-12.7v-2.9c0-3.3,2.2-5.5,4.5-7.2c2.2-1.6,4.4-3,4.4-4.7
			c0-1.3-1.4-2.2-2.9-2.2c-1.4,0-2.8,0.5-3.9,1.5l-1.9-3c1.5-1.3,3.7-2.1,6-2.1c3.2,0,6.5,1.4,6.5,5.7
			C365,115.5,362.9,117.5,361.1,119z"/>
		<path class="st1" d="M376.8,119c-1.6,1.3-4.5,2.9-4.9,5.3h8.8v3.4H368v-2.9c0-3.3,2.2-5.5,4.5-7.2c2.2-1.6,4.4-3,4.4-4.7
			c0-1.3-1.4-2.2-2.9-2.2c-1.4,0-2.8,0.5-3.9,1.5l-1.9-3c1.5-1.3,3.7-2.1,6-2.1c3.2,0,6.5,1.4,6.5,5.7
			C380.8,115.5,378.6,117.5,376.8,119z"/>
	</g>
</g>
</svg>
