<?xml version="1.0" encoding="UTF-8"?>
<svg id="Layer_1" xmlns="http://www.w3.org/2000/svg" version="1.1" viewBox="0 0 820 123.1">
  <!-- Generator: Adobe Illustrator 30.1.0, SVG Export Plug-In . SVG Version: 2.1.1 Build 136)  -->
  <defs>
    <style>
      .st0 {
        fill: #2e3d54;
      }

      .st1 {
        fill: #0165cc;
      }

      .st2 {
        fill: #ffcc02;
      }
    </style>
  </defs>
  <g>
    <polygon class="st1" points="561.5 123.1 578.6 19.9 570.9 19.9 553.7 123.1 561.5 123.1"/>
    <polygon class="st2" points="553.9 123.1 571.1 19.9 563.3 19.9 546.1 123.1 553.9 123.1"/>
    <g>
      <path class="st2" d="M600.7,59.6c-3.8,0-7.2-1-10.4-3.7l3-3.8c2.3,1.8,4.9,2.8,7.3,2.8,3.4,0,4.6-1.5,4.6-3.1,0-2.4-2.5-2.9-6.2-3.9-4.1-1.1-7.8-2.8-7.8-7.5s3.6-7.9,9-8c3.2,0,6.6.5,9.5,2.5l-2.3,4.2c-2.4-1.5-4.6-2-6.8-2s-4.2,1-4.2,3.1,2.2,2.8,5.9,3.7c5.6,1.2,8.4,3.7,8.4,7.8s-4.3,7.9-10,7.9h0Z"/>
      <path class="st2" d="M613,44.4v-4h2.5l.9-4.8h3.9v4.8h4.6v4h-4.6v7.9c0,1.8.4,2.9,2.5,2.9s1.6,0,2.8-.4l.9,4.2c-1.6.6-3.6.7-4.8.7-5,0-6.2-2.8-6.2-6.8v-8.5h-2.5Z"/>
      <path class="st2" d="M640,57.9c-2.3,1.4-4.1,1.7-5.7,1.7-3.9,0-6.1-2.2-6.1-5.8s3.9-5.8,6.9-5.8h4.9v-.8c0-1.8-.9-2.7-3.5-2.7s-3.2,0-5.1,1.6l-2.2-3.6c2.7-2.1,5.5-2.5,7.8-2.5,5.4,0,7.9,2.5,7.9,7.4v11.9h-4.5l-.4-1.4h0ZM640.1,51.6h-4.1c-1.2,0-2.6.3-2.6,1.9s.8,1.7,2.2,1.7,3.4-.8,4.4-1.4v-2.2h0Z"/>
      <path class="st2" d="M660.6,59.5v-11.8c0-2.2-1.1-2.9-2.5-2.9s-2.6.5-4.5,1.7v12.9h-4.9v-19h4.5l.4,1.6c2.8-1.7,4.7-1.9,6-1.9,4.2,0,6,2.7,6,6.9v12.5h-5Z"/>
      <path class="st2" d="M668.8,47c0-4.2,2.4-6.9,6.7-6.9s3.3.2,5.1,1.1v-9.4h4.9v27.6h-4.5l-.4-1.8c-2.1,1.4-4.1,2-5.4,2-4.1,0-6.4-2.3-6.4-7v-5.6h0ZM673.8,52.3c0,2.2,1.1,2.8,2.4,2.8s3.1-.8,4.4-1.6v-7.6c-1.6-.7-2.8-1-4.1-1s-2.8.9-2.8,3v4.4h0Z"/>
      <path class="st2" d="M692.6,32.5c1.5,0,2.7,1.2,2.7,2.8s-1.2,2.7-2.7,2.7-2.7-1.2-2.7-2.7,1.2-2.8,2.7-2.8ZM690.2,59.5v-19h4.9v19h-4.9Z"/>
      <path class="st2" d="M711.5,59.5v-11.8c0-2.2-1.1-2.9-2.5-2.9s-2.6.5-4.5,1.7v12.9h-4.9v-19h4.5l.4,1.6c2.8-1.7,4.7-1.9,6-1.9,4.2,0,6,2.7,6,6.9v12.5h-5Z"/>
      <path class="st2" d="M727.7,67.4c-2.4,0-5.4-.6-7.7-3.1l3.2-3.2c1.2,1.4,3.4,1.8,4.5,1.8,2.1,0,3.8-.9,3.8-3.3v-1.9c-2.2,1.4-4.2,1.7-5.6,1.7-4.2,0-6.3-2.7-6.3-6.9v-5.3c0-4.5,2.4-7,6.4-7s3.3.5,5.4,1.8l.4-1.6h4.6v20.1c0,4.7-4.8,6.9-8.7,6.9h0ZM724.7,51.9c0,2.2,1,2.9,2.4,2.9s2.9-.7,4.4-1.6v-6.7c-1.4-1-3.2-1.7-4.4-1.7s-2.4.9-2.4,2.9c0,0,0,4.2,0,4.2Z"/>
      <path class="st2" d="M756.8,52.5c.2-.7,1.6-5,1.9-5.8.2-.8,1.2-3.8,1.4-4.5h4.2l1.6,4.9,1.7,5.6h0c.2-.9,1.2-5.3,1.4-6.3l1.5-6.1h5.1l-5.3,19.1h-5l-1.6-5.1-1.6-5.1h0c-.3.7-1.4,4.5-1.6,5.3l-1.6,5h-4.9l-5.3-19.1h5.2l1.6,6.3,1.3,5.8h0Z"/>
      <path class="st2" d="M781.3,32.5c1.5,0,2.7,1.2,2.7,2.8s-1.2,2.7-2.7,2.7-2.7-1.2-2.7-2.7,1.1-2.8,2.7-2.8ZM778.8,59.5v-19h4.9v19h-4.9Z"/>
      <path class="st2" d="M787.4,44.4v-4h2.5l.9-4.8h3.9v4.8h4.6v4h-4.6v7.9c0,1.8.4,2.9,2.5,2.9s1.6,0,2.8-.4l.9,4.2c-1.6.6-3.6.7-4.8.7-5,0-6.2-2.8-6.2-6.8v-8.5h-2.5Z"/>
      <path class="st2" d="M814.7,59.5v-11.8c0-2.2-1.2-2.9-2.5-2.9s-2.6.5-4.5,1.7v12.9h-4.9v-27.5h4.9v10.3c2.8-1.8,4.6-2,5.9-2,4.3,0,6,2.8,6,6.9v12.4h-4.9Z"/>
      <path class="st1" d="M607.6,111.1c-7.9,0-15.2-4.3-15.2-12.8v-27.3h7.8v25.7c0,5.2,3.8,7.2,7.4,7.2s7.3-2,7.3-7.2v-25.7h7.9v27.1c0,8.6-7.4,13-15.2,13h0Z"/>
      <path class="st1" d="M637.6,88.1c2.2-2.5,4.4-5.1,6.4-7.7l7.8-9.4h9.3l-13.1,16,14.1,23.7h-9.3l-10-17.4c-1.9,2.1-3.7,4.3-5.5,6.4v11h-7.9v-39.6h7.9v17.1h.3Z"/>
      <path class="st1" d="M683.4,71c7.9,0,11.5,6.6,11.5,12.4s-2.4,8.9-6.5,11l7.1,16.2h-8.5c-1-2.5-5.1-12.4-6.2-14.9h-7.1v14.9h-7.9v-39.6h17.6ZM673.6,88.6h8c3.6,0,5.5-2.2,5.5-5.3s-2-5.3-5.5-5.3h-8v10.6Z"/>
      <path class="st1" d="M721.7,102.5h-13.8l-2.6,8.2h-8.4l13.9-39.7h8.1l13.8,39.7h-8.6l-2.4-8.2ZM710,95.9h9.5l-1.6-5.1-3.1-10.5h-.2l-3.1,10.3-1.5,5.3h0Z"/>
      <path class="st1" d="M745.7,71v39.7h-7.9v-39.7h7.9Z"/>
      <path class="st1" d="M761.6,85.7v25h-7.8v-39.7h7.1l9.2,13.6,7.6,11.5h.2v-25.1h7.9v39.7h-7.2l-10.1-15-6.6-10h-.3Z"/>
      <path class="st1" d="M792.6,71h27.4v7.1h-19.5v9.1h16.6v7.1h-16.6v9.4h19.5v7h-27.4v-39.7h0Z"/>
    </g>
  </g>
  <path class="st0" d="M100.3,10.9C76.4-8.4,38.7-1.3,16.2,26.7c-22.5,28-21.4,66.3,2.5,85.5,23.9,19.2,61.6,12.2,84.1-15.8s21.4-66.3-2.5-85.5M97.4,57.4c-.7,6.2-3.6,9.4-3.9,10.1-.3.6-.3,5.2-2.3,9.2-.5,2.8-1.7,5.7-3.1,8.1-.8,1.3-1.7,2.5-2.6,3.8-2.3,3-3.3,7.6-3.5,8.5-.3,1.1-1.4,7.6-1.5,9s-.2,2.8-.2,4.1h0c-1.6.9-2.4,1.4-3.9,2.1h0c0-1.1,0-19.4.3-20,.3-1.1.5-2.2.9-3.3,0-.4-.2-.7-.4-.4-1,1.7-1.7,3.8-2.1,5.7-.3,1.3-.4,2.6-.6,3.9-.4,3.1-.5,6.3-.6,9.5v5.9c-1.1.4-2.5,1-3.7,1.4h0c-.2-1.9-1.6-8.5-1.9-10.6-.6-3.9-1.1-8-1.3-12,0-1-.2-1.8-.2-2.8s-.4-1-1-.8c-4.6,1.4-9.4.3-13.8,0-.3,0-.5,0-.6.4-.6,2.3-2.5,5.6-3.9,7.4-1,1.3-3.5,5.2-4.3,6.7-.3.5-.7,1.6-.8,2.1-.3,1.1,0,2.1.2,3.1l1.8,6c0,.2.2.5.4.5,1.1.6,2.8.8,3.4,2.1v1.1h0c-2.7,0-5.4-.5-7.7-.9h0c-.3-.9-.7-1.8-1-2.7-.6-1.8-1.2-3.6-1.7-5.5-.5-1.7-1.2-3.5-1.3-5.3,0-1,0-1.8.8-2.5.3-.4.7-.8,1-1.2,1.3-1.7,1.6-3.7,1.8-5.7v-2.5c0-.8,0-.4-.2-.5-.2,0-.3,0-.4.3-.4.5-.7,1-1.1,1.4-1.8,1.9-3.5,3.9-5.5,5.6-.8.7-1.3,1.1-1.9,2-.8,1.1-1.7,2.8-2.4,4-.8,1.3-1.1,2.3-1.1,3.8s0,2.4.3,4.3h0c-1.8-1-2.7-1.5-4.2-2.5h0c-.1-1.7-.4-3.6-.4-5.8s.2-1.3.4-1.9c.8-1.8,2.1-3.4,3.1-5.2,2.4-4.3,2.8-8.1,2.2-12.4,0,0-.6-3.1-.7-7.2,0-.3-.3-.4-.4,0-.4,1.2-.6,2.9-1.3,4.7-2.3,5.7-2.2,11.2-2.7,13.2-.8,3.5-.7,3.5-1.5,3.6-.3,0-.6-.4-.8-1.1-.9-2.4-5.2-8.6.3-22.2,4.6-11.5,9.5-16.5,18.6-18.1,4.1-.8,18-2.1,22.6-2.7,3.3-.4,5.8-1.5,7-3.6,2-3.4,4.5-7.7,5.6-9.6.2-.3,0-.9,0-1.3-1.3-4.3.6-10.5,1.4-10.4.7.1,4.5,5.7,4.8,5.3.2-.3,2.3-.5,4.5-.5s4.3.3,4.4.5c.3.4,4.1-5.2,4.8-5.3s2.6,6.1,1.3,10.4c0,.4-.2.8-.2,1.2,0,.8.2,1.5.4,2.2.4,1,1.7,7.2,1,13.4"/>
  <g>
    <path class="st0" d="M177,21.7c3,1.6,5.2,3.8,6.9,6.6,1.6,2.8,2.4,6.1,2.4,9.9s-.8,6.9-2.5,9.7c-1.7,2.8-4,5-7.1,6.5-3,1.5-6.6,2.3-10.6,2.3h-10.3c-.3,0-.4.1-.4.4v20.4c0,.3,0,.5-.3.7-.2.2-.4.3-.7.3h-12c-.3,0-.5,0-.7-.3-.2-.2-.3-.4-.3-.7V20.3c0-.3,0-.5.3-.7s.4-.3.7-.3h24.4c3.8,0,7.2.8,10.2,2.4ZM170.2,43.6c1.4-1.3,2.2-3,2.2-5.1s-.7-3.9-2.2-5.2c-1.4-1.3-3.3-2-5.6-2h-8.7c-.3,0-.4.1-.4.4v13.4c0,.3.1.4.4.4h8.7c2.3,0,4.2-.6,5.6-1.9Z"/>
    <path class="st0" d="M200.6,76.7c-3.5-1.8-6.2-4.4-8.1-7.7-1.9-3.3-2.9-7.2-2.9-11.6v-16.9c0-4.3,1-8.1,2.9-11.4,1.9-3.3,4.6-5.9,8.1-7.7,3.5-1.8,7.5-2.7,12.1-2.7s8.6.9,12.1,2.7c3.5,1.8,6.2,4.4,8.1,7.7,1.9,3.3,2.9,7.1,2.9,11.4v16.9c0,4.4-1,8.3-2.9,11.6-1.9,3.3-4.6,5.9-8.1,7.7-3.5,1.8-7.5,2.7-12.1,2.7s-8.6-.9-12.1-2.7ZM198.4,12.6c-1.4-1.4-2.1-3.1-2.1-5.3s.7-4,2.1-5.3C199.8.7,201.6,0,203.7,0s3.9.7,5.2,2c1.4,1.4,2,3.1,2,5.3s-.7,3.9-2.1,5.3c-1.4,1.4-3.1,2.1-5.2,2.1s-3.9-.7-5.3-2.1ZM219.2,64.8c1.7-1.7,2.5-4.1,2.5-7v-17.5c0-2.9-.8-5.2-2.5-7-1.7-1.8-3.8-2.7-6.6-2.7s-4.8.9-6.5,2.7c-1.7,1.8-2.5,4.1-2.5,7v17.5c0,2.9.8,5.3,2.5,7,1.7,1.7,3.8,2.6,6.5,2.6s4.9-.9,6.6-2.6ZM216.2,12.6c-1.4-1.4-2.1-3.1-2.1-5.3s.7-4,2.1-5.3C217.6.7,219.3,0,221.5,0s3.9.7,5.2,2c1.4,1.4,2,3.1,2,5.3s-.7,3.9-2.1,5.3c-1.4,1.4-3.1,2.1-5.2,2.1s-3.9-.7-5.3-2.1Z"/>
    <path class="st0" d="M281.3,31c-.2.2-.4.3-.7.3h-26.5c-.3,0-.4.1-.4.4v10.4c0,.3.1.4.4.4h17c.3,0,.5,0,.7.3.2.2.3.4.3.7v9.9c0,.3,0,.5-.3.7-.2.2-.4.3-.7.3h-17c-.3,0-.4.1-.4.4v22.6c0,.3,0,.5-.3.7s-.4.3-.7.3h-12c-.3,0-.5,0-.7-.3-.2-.2-.3-.4-.3-.7V20.3c0-.3,0-.5.3-.7.2-.2.4-.3.7-.3h39.9c.3,0,.5,0,.7.3.2.2.3.4.3.7v10c0,.3,0,.5-.3.7Z"/>
    <path class="st0" d="M326.7,31c-.2.2-.4.3-.7.3h-26.5c-.3,0-.4.1-.4.4v10.4c0,.3.1.4.4.4h17c.3,0,.5,0,.7.3.2.2.3.4.3.7v9.9c0,.3,0,.5-.3.7-.2.2-.4.3-.7.3h-17c-.3,0-.4.1-.4.4v22.6c0,.3,0,.5-.3.7s-.4.3-.7.3h-12c-.3,0-.5,0-.7-.3-.2-.2-.3-.4-.3-.7V20.3c0-.3,0-.5.3-.7s.4-.3.7-.3h39.9c.3,0,.5,0,.7.3.2.2.3.4.3.7v10c0,.3,0,.5-.3.7Z"/>
    <path class="st0" d="M374.9,58.8c0,3-.6,5.9-1.7,8.5-1.5,3.7-3.9,6.6-7.2,8.7-3.3,2.1-7.2,3.2-11.8,3.2s-8.3-1.1-11.7-3.3c-3.4-2.2-5.8-5.1-7.4-8.8-.9-2.3-1.4-4.7-1.6-7.4,0-.7.3-1,1-1h12.2c.7,0,1,.3,1.1,1,.1,1.4.5,2.8,1,4.1.5,1.1,1.1,2,2,2.6.9.6,2,.9,3.2.9,2.4,0,4.1-1.1,5.3-3.2.8-1.4,1.2-3.3,1.2-5.6s-.4-4.2-1.2-5.9c-1.2-2.1-3-3.1-5.4-3.1s-1.3.2-2.1.6c-.8.4-1.7,1.1-2.9,1.9-.3.2-.5.3-.7.3-.3,0-.6-.2-.8-.5l-6-8.5c-.2-.3-.3-.5-.3-.7,0-.3.1-.6.4-.8l13-9.9c.1-.1.2-.2.1-.3,0-.1-.1-.2-.3-.2h-18.5c-.3,0-.5,0-.7-.3-.2-.2-.3-.4-.3-.7v-10c0-.3,0-.5.3-.7s.4-.3.7-.3h36.9c.3,0,.5,0,.7.3.2.2.3.4.3.7v11.2c0,.5-.2.9-.6,1.3l-10.2,8c-.1.1-.2.2-.1.3,0,.1.1.2.3.3,4.5,1.2,7.8,4.1,9.8,8.6,1.1,2.7,1.7,5.6,1.7,8.7Z"/>
    <path class="st0" d="M383.2,74c-3.7-3.6-5.6-8.6-5.6-14.8v-20.6c0-6.2,1.9-11.1,5.6-14.6,3.7-3.6,8.8-5.3,15.3-5.3s11.6,1.8,15.4,5.4c3.8,3.6,5.7,8.4,5.7,14.6v20.6c0,6.3-1.9,11.2-5.7,14.8-3.8,3.6-8.9,5.5-15.4,5.5s-11.6-1.8-15.3-5.5ZM403.6,65.4c1.3-1.3,1.9-3.1,1.9-5.5v-21.9c0-2.3-.6-4.1-1.9-5.5-1.3-1.3-3-2-5.1-2s-3.8.7-5,2c-1.2,1.3-1.9,3.1-1.9,5.5v21.9c0,2.3.6,4.1,1.8,5.5,1.2,1.3,2.9,2,5,2s3.8-.7,5.1-2Z"/>
  </g>
  <path class="st0" d="M216.5,104.6c0,1.4-.2,2.5-.7,3.6-.5,1.3-1.4,2.3-2.5,3-1.1.7-2.5,1.1-4.1,1.1s-3.1-.4-4.3-1.2c-1.2-.8-2-1.8-2.5-3.2-.4-.9-.5-2-.5-3.3v-10.2c0-1.2.3-2.3.9-3.2.6-.9,1.4-1.6,2.5-2.1,1.1-.5,2.3-.8,3.7-.8s2.6.2,3.6.7c1.1.5,1.9,1.2,2.5,2.1.6.9.9,1.9.9,3.1v.7c0,.1,0,.2-.1.3,0,0-.2.1-.3.1h-3.1c-.1,0-.2,0-.3-.1,0,0-.1-.2-.1-.3v-.2c0-.9-.3-1.6-.9-2.2-.6-.6-1.3-.9-2.3-.9s-1.7.3-2.3.9c-.6.6-.9,1.4-.9,2.3v3.6c0,0,0,.1,0,.1,0,0,0,0,.1,0,.9-.9,2.2-1.4,3.9-1.4s2.5.3,3.5.8c1,.6,1.8,1.4,2.4,2.4.6,1.1.9,2.5.9,4.1ZM212.7,104.6c0-1-.2-1.9-.6-2.6-.6-1.1-1.6-1.6-2.9-1.6s-2.4.6-2.9,1.7c-.3.7-.5,1.5-.5,2.6s.1,1.7.4,2.2c.5,1.2,1.5,1.8,3,1.8s2.4-.6,3-1.8c.3-.7.5-1.5.5-2.4Z"/>
  <path class="st0" d="M221,103.4c0,0-.1-.2-.1-.3v-2.5c0-.1,0-.2.1-.3,0,0,.2-.1.3-.1h10.5c.1,0,.2,0,.3.1,0,0,.1.2.1.3v2.5c0,.1,0,.2-.1.3,0,0-.2.1-.3.1h-10.5c-.1,0-.2,0-.3-.1Z"/>
  <path class="st0" d="M241.1,108.5s0,0,.1,0h9.5c.1,0,.2,0,.3.1,0,0,.1.2.1.3v2.5c0,.1,0,.2-.1.3,0,0-.2.1-.3.1h-14.4c-.1,0-.2,0-.3-.1,0,0-.1-.2-.1-.3v-2.4c0-.2,0-.4.2-.5,1.7-1.8,3.6-4,5.9-6.6l1.6-1.8c2-2.4,3.1-4.2,3.1-5.4s-.3-1.7-1-2.2c-.6-.6-1.5-.9-2.5-.9s-1.9.3-2.5.9c-.6.6-1,1.3-1,2.3v.9c0,.1,0,.2-.1.3,0,0-.2.1-.3.1h-3.1c-.1,0-.2,0-.3-.1s-.1-.2-.1-.3v-1.4c0-1.2.4-2.2,1-3.1s1.5-1.6,2.6-2.1c1.1-.5,2.3-.7,3.7-.7s2.8.3,3.9.8c1.1.6,2,1.3,2.6,2.3.6,1,.9,2.1.9,3.3,0,1.8-1,3.9-2.9,6.3-1.1,1.3-2.8,3.3-5.3,6l-1.3,1.4s0,0,0,.1Z"/>
  <path class="st0" d="M259.5,108.5s0,0,.1,0h9.5c.1,0,.2,0,.3.1,0,0,.1.2.1.3v2.5c0,.1,0,.2-.1.3,0,0-.2.1-.3.1h-14.4c-.1,0-.2,0-.3-.1,0,0-.1-.2-.1-.3v-2.4c0-.2,0-.4.2-.5,1.7-1.8,3.6-4,5.9-6.6l1.6-1.8c2-2.4,3.1-4.2,3.1-5.4s-.3-1.7-1-2.2c-.6-.6-1.5-.9-2.5-.9s-1.9.3-2.5.9c-.6.6-1,1.3-1,2.3v.9c0,.1,0,.2-.1.3,0,0-.2.1-.3.1h-3.1c-.1,0-.2,0-.3-.1s-.1-.2-.1-.3v-1.4c0-1.2.4-2.2,1-3.1s1.5-1.6,2.6-2.1c1.1-.5,2.3-.7,3.7-.7s2.8.3,3.9.8c1.1.6,2,1.3,2.6,2.3.6,1,.9,2.1.9,3.3,0,1.8-1,3.9-2.9,6.3-1.1,1.3-2.8,3.3-5.3,6l-1.3,1.4s0,0,0,.1Z"/>
  <path class="st0" d="M293.9,88.7c0,0,.2-.1.3-.1h3.1c.1,0,.2,0,.3.1,0,0,.1.2.1.3v22.6c0,.1,0,.2-.1.3,0,0-.2.1-.3.1h-3c-.2,0-.4,0-.5-.3l-9.6-15.8c0,0,0,0-.1,0,0,0,0,0,0,.2v15.6c0,.1,0,.2,0,.3,0,0-.2.1-.3.1h-3.1c-.1,0-.2,0-.3-.1,0,0-.1-.2-.1-.3v-22.6c0-.1,0-.2.1-.3,0,0,.2-.1.3-.1h3c.2,0,.4,0,.5.3l9.6,15.8c0,0,0,0,.1,0,0,0,0,0,0-.2v-15.6c0-.1,0-.2,0-.3Z"/>
  <path class="st0" d="M306,111.2c-1.3-.7-2.3-1.6-3-2.9-.7-1.2-1.1-2.7-1.1-4.3v-7.6c0-1.6.4-3,1.1-4.3.7-1.2,1.7-2.2,3-2.9,1.3-.7,2.8-1,4.4-1s3.2.3,4.5,1c1.3.7,2.3,1.6,3,2.9.7,1.2,1.1,2.7,1.1,4.3v7.6c0,1.6-.4,3.1-1.1,4.3-.7,1.2-1.7,2.2-3,2.9-1.3.7-2.8,1-4.5,1s-3.1-.3-4.4-1ZM313.8,107.6c.8-.9,1.3-2,1.3-3.4v-7.8c0-1.4-.4-2.6-1.3-3.5-.8-.9-2-1.3-3.4-1.3s-2.5.4-3.3,1.3c-.8.9-1.3,2-1.3,3.5v7.8c0,1.4.4,2.6,1.3,3.4.8.9,2,1.3,3.3,1.3s2.5-.4,3.4-1.3Z"/>
  <path class="st0" d="M328.5,111.6l-7-22.6h0c0-.4.1-.5.4-.5h3.3c.2,0,.4.1.5.3l5,17.4c0,0,0,.1.1.1s0,0,0-.1l5-17.4c0-.2.2-.3.5-.3h3.2c.1,0,.2,0,.3.1,0,0,0,.2,0,.3l-7.1,22.6c0,.2-.2.3-.4.3h-3.3c-.2,0-.4-.1-.4-.3Z"/>
  <path class="st0" d="M354.3,108.5s0,0,.1,0h9.5c.1,0,.2,0,.3.1,0,0,.1.2.1.3v2.5c0,.1,0,.2-.1.3,0,0-.2.1-.3.1h-14.4c-.1,0-.2,0-.3-.1,0,0-.1-.2-.1-.3v-2.4c0-.2,0-.4.2-.5,1.7-1.8,3.6-4,5.9-6.6l1.6-1.8c2-2.4,3.1-4.2,3.1-5.4s-.3-1.7-1-2.2c-.6-.6-1.5-.9-2.5-.9s-1.9.3-2.5.9c-.6.6-1,1.3-1,2.3v.9c0,.1,0,.2-.1.3,0,0-.2.1-.3.1h-3.1c-.1,0-.2,0-.3-.1s-.1-.2-.1-.3v-1.4c0-1.2.4-2.2,1-3.1s1.5-1.6,2.6-2.1c1.1-.5,2.3-.7,3.7-.7s2.8.3,3.9.8c1.1.6,2,1.3,2.6,2.3.6,1,.9,2.1.9,3.3,0,1.8-1,3.9-2.9,6.3-1.1,1.3-2.8,3.3-5.3,6l-1.3,1.4s0,0,0,.1Z"/>
  <path class="st0" d="M369.7,110.3c-1.4-1.3-2.1-3.1-2.1-5.4v-9.4c0-2.2.7-4,2.1-5.3s3.2-2,5.6-2,4.2.7,5.6,2c1.4,1.3,2.1,3.1,2.1,5.3v9.4c0,2.2-.7,4-2.1,5.4-1.4,1.3-3.3,2-5.6,2s-4.2-.7-5.6-2ZM378.1,107.9c.7-.7,1-1.6,1-2.8v-9.7c0-1.2-.3-2.1-1-2.8s-1.6-1-2.8-1-2,.3-2.7,1c-.7.7-1,1.6-1,2.8v9.7c0,1.2.3,2.1,1,2.8.7.7,1.6,1,2.7,1s2.1-.3,2.8-1Z"/>
  <path class="st0" d="M391.6,108.5s0,0,.1,0h9.5c.1,0,.2,0,.3.1,0,0,.1.2.1.3v2.5c0,.1,0,.2-.1.3,0,0-.2.1-.3.1h-14.4c-.1,0-.2,0-.3-.1,0,0-.1-.2-.1-.3v-2.4c0-.2,0-.4.2-.5,1.7-1.8,3.6-4,5.9-6.6l1.6-1.8c2-2.4,3.1-4.2,3.1-5.4s-.3-1.7-1-2.2c-.6-.6-1.5-.9-2.5-.9s-1.9.3-2.5.9c-.6.6-1,1.3-1,2.3v.9c0,.1,0,.2-.1.3,0,0-.2.1-.3.1h-3.1c-.1,0-.2,0-.3-.1s-.1-.2-.1-.3v-1.4c0-1.2.4-2.2,1-3.1s1.5-1.6,2.6-2.1c1.1-.5,2.3-.7,3.7-.7s2.8.3,3.9.8c1.1.6,2,1.3,2.6,2.3.6,1,.9,2.1.9,3.3,0,1.8-1,3.9-2.9,6.3-1.1,1.3-2.8,3.3-5.3,6l-1.3,1.4s0,0,0,.1Z"/>
  <path class="st0" d="M419.6,104.6c0,1.4-.2,2.5-.7,3.6-.5,1.3-1.4,2.3-2.5,3-1.1.7-2.5,1.1-4.1,1.1s-3.1-.4-4.3-1.2c-1.2-.8-2-1.8-2.5-3.2-.4-.9-.5-2-.5-3.3v-10.2c0-1.2.3-2.3.9-3.2.6-.9,1.4-1.6,2.5-2.1,1.1-.5,2.3-.8,3.7-.8s2.6.2,3.6.7c1.1.5,1.9,1.2,2.5,2.1.6.9.9,1.9.9,3.1v.7c0,.1,0,.2-.1.3,0,0-.2.1-.3.1h-3.1c-.1,0-.2,0-.3-.1,0,0-.1-.2-.1-.3v-.2c0-.9-.3-1.6-.9-2.2-.6-.6-1.3-.9-2.3-.9s-1.7.3-2.3.9-.9,1.4-.9,2.3v3.6c0,0,0,.1,0,.1,0,0,0,0,.1,0,.9-.9,2.2-1.4,3.9-1.4s2.5.3,3.5.8c1,.6,1.8,1.4,2.4,2.4.6,1.1.9,2.5.9,4.1ZM415.7,104.6c0-1-.2-1.9-.6-2.6-.6-1.1-1.6-1.6-2.9-1.6s-2.4.6-2.9,1.7c-.3.7-.5,1.5-.5,2.6s.1,1.7.4,2.2c.5,1.2,1.5,1.8,3,1.8s2.4-.6,3-1.8c.3-.7.5-1.5.5-2.4Z"/>
</svg>