<?xml version="1.0" encoding="utf-8"?>
<!-- Generator: Adobe Illustrator 26.0.1, SVG Export Plug-In . SVG Version: 6.00 Build 0)  -->
<svg version="1.1" id="Layer_1" xmlns="http://www.w3.org/2000/svg" xmlns:xlink="http://www.w3.org/1999/xlink" x="0px" y="0px"
	 viewBox="0 0 385 140" style="enable-background:new 0 0 385 140;" xml:space="preserve">
<style type="text/css">
	.st0{fill:#FFFFFF;}
	.st1{fill:#F79432;}
</style>
<g>
	<g>
		<path class="st0" d="M193.6,25.3c15.1,0,21.1,10.5,21.1,21.3s-7.8,21.3-21.5,21.3h-13.4v24.5h-15.5V25.3H193.6z M179.7,54.2h11.4
			c5.8,0,8.1-3.4,8.1-7.5s-2.1-7.5-8.1-7.5h-11.4V54.2z"/>
		<path class="st0" d="M248.6,93.1c-13.9,0-26.3-7.2-26.3-21.9V46c0-14.7,13.6-21.3,26.3-21.3c12.9,0,26.3,7.1,26.3,21.8v24.8
			C274.9,85.9,262.7,93.1,248.6,93.1z M239.2,5.8c4.2,0,7.6,3.3,7.6,7.5s-3.4,7.6-7.6,7.6c-4.2,0-7.5-3.4-7.5-7.6S235,5.8,239.2,5.8
			z M259.3,49.4c0-7.7-5.7-10.5-10.7-10.5s-10.8,2.8-10.8,10.5v19c0,7.7,5.8,10.5,10.8,10.5s10.7-2.8,10.7-10.5V49.4z M258.6,5.8
			c4.2,0,7.5,3.3,7.5,7.5s-3.3,7.6-7.5,7.6s-7.6-3.4-7.6-7.6S254.4,5.8,258.6,5.8z"/>
		<path class="st0" d="M299.2,52.4H326v13.7h-26.8v26.3h-15.5V25.3h46.9v13.8h-31.4V52.4z"/>
		<path class="st0" d="M353.5,52.4h26.8v13.7h-26.8v26.3H338V25.3h46.9v13.8h-31.4V52.4z"/>
	</g>
	<g>
		<path class="st1" d="M168.3,128.6v-15.2l-2,1.7l-2-2.6l4.3-3.8h3.3v19.9H168.3z"/>
		<path class="st1" d="M187.2,120.1c-1.6,1.3-4.4,2.8-4.7,5.3h8.6v3.3h-12.4v-2.8c0-3.2,2.1-5.4,4.3-7.1c2.1-1.5,4.3-2.9,4.3-4.5
			c0-1.3-1.3-2.1-2.8-2.1c-1.3,0-2.7,0.5-3.8,1.4l-1.9-2.9c1.5-1.3,3.5-2,5.9-2c3.1,0,6.4,1.4,6.4,5.6
			C191,116.6,188.9,118.7,187.2,120.1z"/>
		<path class="st1" d="M202.5,122.7v-3.2h9.4v3.2H202.5z"/>
		<path class="st1" d="M231.8,120.1c-1.6,1.3-4.4,2.8-4.7,5.3h8.6v3.3h-12.5v-2.8c0-3.2,2.1-5.4,4.3-7.1c2.1-1.5,4.3-2.9,4.3-4.5
			c0-1.3-1.3-2.1-2.8-2.1c-1.3,0-2.7,0.5-3.8,1.4l-1.9-2.9c1.5-1.3,3.5-2,5.9-2c3.1,0,6.4,1.4,6.4,5.6
			C235.7,116.6,233.6,118.7,231.8,120.1z"/>
		<path class="st1" d="M251,114.2c0,1.8-0.9,3.4-2.3,4.1c1.8,0.8,2.7,2.6,2.7,4.4c0,4.1-3.4,6-6.5,6c-3.3,0-6.4-1.7-6.4-5.8
			c0-2,1.3-3.9,2.7-4.5c-1.5-0.6-2.3-2.2-2.3-4.1c0-3.8,3.1-5.7,6-5.7C248,108.4,251,110.4,251,114.2z M241.8,122.9
			c0,1.8,1.3,2.9,3.1,2.9s3.1-1.1,3.1-2.9c0-1.7-1.5-2.9-3.1-2.9S241.8,121.1,241.8,122.9z M244.9,111.5c-1.5,0-2.9,1-2.9,2.8
			s1.4,2.8,2.9,2.8s2.9-1.1,2.9-2.8C247.9,112.5,246.5,111.5,244.9,111.5z"/>
		<g>
			<path class="st1" d="M266.7,116v12.5h-3.9v-19.9h3.5l4.6,6.8l3.7,5.8h0.1v-12.5h3.9v19.9H275l-5.1-7.5L266.7,116L266.7,116z"/>
			<path class="st1" d="M289.8,128.8c-4.1,0-7.7-2.3-7.7-6.6v-7.3c0-4.2,3.7-6.5,7.7-6.5s7.7,2.3,7.7,6.6v7.2
				C297.5,126.4,293.9,128.8,289.8,128.8z M293.4,115.7c0-2.6-1.8-3.6-3.6-3.6c-1.8,0-3.7,1-3.7,3.6v5.8c0,2.6,1.8,3.6,3.7,3.6
				c1.8,0,3.6-1,3.6-3.6V115.7z"/>
			<path class="st1" d="M307.9,122.7l2-7.1l2.1-7h4.1l-6.4,19.9h-4.1l-6.4-19.9h4.2l2.1,7.2l2,6.9H307.9z"/>
			<path class="st1" d="M333.8,120.1c-1.6,1.3-4.4,2.8-4.7,5.3h8.6v3.3h-12.5v-2.8c0-3.2,2.1-5.4,4.3-7.1c2.1-1.5,4.3-2.9,4.3-4.5
				c0-1.3-1.3-2.1-2.8-2.1c-1.3,0-2.7,0.5-3.8,1.4l-1.9-2.9c1.5-1.3,3.5-2,5.9-2c3.1,0,6.4,1.4,6.4,5.6
				C337.7,116.6,335.5,118.7,333.8,120.1z"/>
			<path class="st1" d="M346.9,128.7c-2.9,0-6.3-1.7-6.3-5.3v-9.6c0-3.6,3.4-5.4,6.3-5.4s6.3,1.7,6.3,5.4v9.6
				C353.1,127,349.7,128.7,346.9,128.7z M349.4,114.6c0-1.9-1.3-2.5-2.5-2.5s-2.5,0.7-2.5,2.5v8.1c0,1.8,1.4,2.5,2.5,2.5
				c1.2,0,2.5-0.7,2.5-2.5V114.6z"/>
			<path class="st1" d="M364.6,120.1c-1.6,1.3-4.4,2.8-4.7,5.3h8.6v3.3h-12.4v-2.8c0-3.2,2.1-5.4,4.3-7.1c2.1-1.5,4.3-2.9,4.3-4.5
				c0-1.3-1.3-2.1-2.8-2.1c-1.3,0-2.7,0.5-3.8,1.4l-1.9-2.9c1.5-1.3,3.5-2,5.9-2c3.1,0,6.4,1.4,6.4,5.6
				C368.5,116.6,366.3,118.7,364.6,120.1z"/>
			<path class="st1" d="M376.7,128.6v-15.2l-2,1.7l-2-2.6l4.3-3.8h3.3v19.9H376.7z"/>
		</g>
	</g>
	<g>
		<path class="st0" d="M84.1,26c0,10.4-8.5,17.7-15.1,23.2c-5.1,4.2-15.6,10.3-17.2,17.2h18.8c1-1.7,1.9-3.3,2.9-5
			c0.7-1.1,0.5-2,0.3-3.3c-0.1-0.7-0.3-1.4-0.3-2.3c-0.1-2.4,0.2-4.9,0.9-7.2c0-0.2,0.1-0.3,0.1-0.4c0.3-0.9,0.6-1.9,1.5-2.4
			c0.4-0.2,1-0.4,1.9,0c1.5,0.6,2.4,2.1,3.2,3.5c0.6,1,1.2,2.2,1.9,2.4c0.2,0,0.8-0.2,1.1-0.3c0.6-0.1,0.9-0.2,1.2-0.3
			c1.5-0.1,3-0.2,4.6-0.1V19.7H123c-7.3-8-17-13.9-28.6-16.8C83.1,0.1,71.2,0.6,59.9,3.8C71.6,4,84.1,9.3,84.1,26z"/>
		<path class="st0" d="M30.6,128.4c0.6-1.7,1-3.6,1.1-5c0,0,0,0,0,0.1c-0.3,0.4-0.5,0.7-0.8,1c-0.4,0.4-0.7,0.7-1.1,1.1
			c-1.3,1.3-2.5,2.7-3.9,4c0.9,0.6,1.8,1.1,2.7,1.7c0.1-0.2,0.3-0.4,0.4-0.6C29.7,129.9,30.3,129.2,30.6,128.4z"/>
		<path class="st0" d="M7.1,106.2L7.1,106.2c0,0,0-0.1,0.1-0.2c0-0.1,0-0.1,0.1-0.2l3.5-8.7c0-0.1,0.1-0.1,0.1-0.2s0.1-0.2,0.1-0.2
			l0,0c0.2-0.3,0.4-0.6,0.6-0.7c4.4-8.3,10.3-14,17.6-17.1c1.9-0.8,3.8-1.3,5.7-1.8v-6.9c0-12.6,7.7-21.6,15.7-27.8
			c8.1-6.1,16.3-10.6,16.3-16.5c0-3.5-2.8-6.4-8.9-6.4c-4.5,0-9.9,1.6-14.1,5.3l-6.8-10.6C23,23.7,11.3,37.6,5,54.4
			C-2.3,73.7-1,93,6.8,108.3c0.1-0.4,0.2-0.7,0.3-1.1C7,106.9,7,106.6,7.1,106.2z"/>
		<path class="st0" d="M65.4,134.5c-0.3-1.8-0.4-3.7-0.6-5.5c-0.1-1-0.2-1.9-0.3-2.9c-0.2-1.4-0.3-2.9-0.4-4.3v-0.1
			c0-0.3,0-0.6,0-1.1s0-1.7-0.1-2.3c-0.6,0-2,0.4-2.6,0.6s-1,0.3-1.4,0.4c-2.8,0.6-5.5,0.9-8.3,1.1c-0.5,0-1.1,0-1.6,0
			c-0.7,0-1.4,0-2,0.1c-0.1,0-0.2,0-0.3,0.1c0,0,0,0,0,0.1c-0.1,0.2-0.2,0.5-0.4,0.9c-0.8,1.7-2,3.1-3.1,4.4c-0.5,0.6-1,1.2-1.4,1.8
			l-0.5,0.7c-1.7,2.2-3.4,4.5-4.5,6.9c2,0.7,4,1.3,6.1,1.8c7.3,1.8,14.7,2.2,22.1,1.5c-0.2-1.3-0.4-2.7-0.6-4L65.4,134.5z"/>
		<path class="st0" d="M103.3,64.7c0.6,2.7,0.9,5.6,1,8.7c0.1,2.3,0,4.4-0.3,6.4c2.5,0.9,5,1.3,7.5,1.3c4.3,0,9.2-2.6,9.2-7.9v-7.9
			c0-4.2-2-6.1-5.4-6.1c-3.8,0-9.1,3.3-10.5,4.4l-1.8-0.7c0,0.1,0.1,0.3,0.1,0.4C103.1,63.7,103.2,64.2,103.3,64.7z"/>
		<path class="st0" d="M18,116.1c-0.1-1.5-0.3-3.1-0.5-4.6c-0.1-0.7-0.2-1.4-0.3-2.2c-0.7,2.8-1.2,5.8-1.7,8.7
			c-0.1,0.8-0.2,1.5-0.4,2.2c0.7,0.7,1.4,1.5,2.1,2.2C17.9,120.5,18.2,118.4,18,116.1z"/>
		<path class="st0" d="M112,96.7c-4.7,0-9.2-0.7-13.3-2.1c0,0.3-0.1,0.6-0.1,0.9c-0.1,1-0.2,2-0.4,2.9c-0.6,2.6-1.5,5.2-2.4,7.7
			l-0.2,0.6c-1.3,3.7-2.8,6.7-4.5,9.1c-0.3,0.4-0.6,0.9-0.9,1.3c-1.3,1.8-2.4,3.3-3.3,5.3s-1.3,4.3-1.7,6.6
			c-0.1,0.6-0.2,1.2-0.3,1.8c-0.3,1.4-0.5,2.7-0.7,3.9c20.8-7.5,39.1-24.1,48.2-46C127.5,94,119.9,96.7,112,96.7z"/>
		<path class="st0" d="M106.4,46c3.4-1.9,8.1-3.2,11.3-3.2c12.4,0,19.3,9,19.3,20.8v9.2c2.6-13.8,0.9-27.1-4.3-38.5h-26.3V46z"/>
		<path class="st0" d="M18.2,123.5c0.8-2.4,1.3-4.8,1.1-7.6c-0.4-4.3-1.2-8.5-1.2-12.9c-2.4,4.8-3.2,10.6-4.1,16
			c0.4,0.4,0.7,0.9,1.1,1.3c0.1-0.7,0.2-1.5,0.4-2.2c0.5-2.9,1-5.9,1.7-8.7c0.1,0.7,0.2,1.4,0.3,2.2c0.2,1.5,0.4,3,0.5,4.6
			c0.2,2.3-0.1,4.4-0.8,6.4C17.5,122.9,17.9,123.2,18.2,123.5z"/>
		<path class="st0" d="M31.8,128.8c0.5-1.5,1.8-6.1,0.9-7.5c-0.4-0.6,0.1-0.6-0.7-0.3c-0.7,0.3-1.6,1.9-2.1,2.5
			c-1.7,1.8-3.3,3.6-5.1,5.3c0.4,0.3,0.7,0.5,1.1,0.8c1.4-1.3,2.6-2.7,3.9-4c0.4-0.4,0.7-0.7,1.1-1.1c0.2-0.3,0.5-0.6,0.8-1
			c0,0,0,0,0-0.1c-0.1,1.3-0.6,3.3-1.1,5c-0.3,0.8-0.9,1.5-1.5,2.3c-0.1,0.2-0.3,0.4-0.4,0.6c0.4,0.2,0.8,0.4,1.2,0.6
			C30.6,130.9,31.4,130,31.8,128.8z"/>
		<path class="st0" d="M10.3,102C3.5,118.5,17,85.4,10.3,102c3.8-9.3,9.9-17.8,19.4-21.8c1.7-0.7,3.4-1.2,5.2-1.7v-1.3
			c-1.9,0.4-3.8,1-5.7,1.8c-7.3,3-13.2,8.8-17.6,17.1c-0.2,0.1-0.4,0.4-0.6,0.7l0,0c0,0,0,0.1-0.1,0.2c0,0.1-0.1,0.1-0.1,0.2
			l-3.5,8.7c0,0.1-0.1,0.1-0.1,0.2s-0.1,0.2-0.1,0.2l0,0C7,106.7,7,107,7,107.3c-0.1,0.4-0.2,0.7-0.3,1.1c0.3,0.6,0.6,1.2,0.9,1.8
			C8.3,107.3,9.2,104.6,10.3,102z"/>
		<path class="st0" d="M102,64.9c0.6,2.8,0.9,5.7,1,8.5c0.1,1.9,0,3.9-0.3,5.8c0.4,0.2,0.8,0.4,1.3,0.5c0.3-2,0.4-4.1,0.3-6.4
			c-0.1-3.1-0.4-6.1-1-8.7c-0.1-0.5-0.2-0.9-0.3-1.4c0-0.1-0.1-0.3-0.1-0.4l-1.5-0.6C101.5,63.2,101.8,64,102,64.9z"/>
		<path class="st0" d="M85.1,128.9c0.4-2.3,0.9-4.6,1.7-6.6c0.9-2,2-3.5,3.3-5.3c0.3-0.4,0.6-0.8,0.9-1.3c1.7-2.4,3.2-5.4,4.5-9.1
			l0.2-0.6c0.9-2.5,1.8-5.1,2.4-7.7c0.2-0.9,0.3-1.9,0.4-2.9c0-0.3,0.1-0.6,0.1-0.9c-0.4-0.1-0.9-0.3-1.3-0.5
			c-0.2,1.3-0.2,2.8-0.5,4c-0.7,2.7-1.7,5.5-2.6,8.1c-1.1,3.1-2.4,6.1-4.3,8.8c-1.7,2.3-3.2,4.2-4.4,6.8c-1.2,2.7-1.6,5.7-2.2,8.7
			c-0.3,1.6-0.6,3.1-0.8,4.7c0.5-0.2,0.9-0.3,1.4-0.5c0.2-1.2,0.4-2.5,0.7-3.9C84.8,130.1,84.9,129.5,85.1,128.9z"/>
		<path class="st0" d="M66.7,134.3c-0.4-2.8-0.6-5.5-0.9-8.3c-0.2-1.4-0.3-2.9-0.4-4.3c-0.1-0.9,0.1-3.4-0.5-4.1
			c-0.9-1.1-4,0.4-5.3,0.7c-2.7,0.5-5.4,0.9-8.1,1.1c-1.2,0.1-2.6-0.1-3.7,0.1c-1.4,0.3-1,0.4-1.6,1.7c-1.1,2.2-3,4-4.5,6
			c-1.8,2.4-3.9,5-5.2,7.9c0.4,0.2,0.8,0.3,1.2,0.5c1-2.4,2.8-4.8,4.5-6.9l0.5-0.7c0.4-0.6,0.9-1.2,1.4-1.8c1.1-1.4,2.3-2.8,3.1-4.4
			c0.2-0.4,0.3-0.7,0.4-0.9c0,0,0,0,0-0.1c0.1,0,0.2,0,0.3-0.1c0.5-0.1,1.3-0.1,2-0.1c0.5,0,1.1,0,1.6,0c2.7-0.2,5.4-0.5,8.3-1.1
			c0.4-0.1,0.9-0.2,1.4-0.4c0.6-0.2,2-0.7,2.6-0.6c0.1,0.5,0.1,1.7,0.1,2.3c0,0.4,0,0.8,0,1.1v0.1c0.1,1.4,0.2,2.8,0.4,4.3
			c0.1,1,0.2,1.9,0.3,2.9c0.2,1.8,0.4,3.6,0.6,5.5v0.3c0.2,1.4,0.4,2.7,0.6,4c0.4,0,0.9-0.1,1.3-0.1
			C67.1,137.2,66.9,135.7,66.7,134.3z"/>
		<path class="st0" d="M85.4,51c-0.3,0-0.7,0.1-1.2,0.3c-0.3,0.1-0.8,0.2-1.1,0.3c-0.7-0.2-1.3-1.4-1.9-2.4c-0.8-1.5-1.7-3-3.2-3.5
			c-0.9-0.3-1.5-0.2-1.9,0c-0.9,0.4-1.2,1.5-1.5,2.4c0,0.1-0.1,0.3-0.1,0.4c-0.7,2.3-1,4.8-0.9,7.2c0,0.9,0.2,1.6,0.3,2.3
			c0.2,1.4,0.4,2.2-0.3,3.3c-1,1.6-1.9,3.3-2.9,5h1.5c0.8-1.4,1.7-2.9,2.5-4.3c1.3-2.2,0.3-3.8,0.2-6.4c-0.1-2.3,0.2-4.6,0.9-6.8
			c0.4-1.3,0.5-2.5,1.8-2c2.3,0.9,3,5.5,5.4,6c0.4,0.1,2.1-0.5,2.6-0.5c1.5-0.1,3-0.2,4.5-0.1v-1.3C88.4,50.9,86.9,50.9,85.4,51z"/>
		<path class="st0" d="M76.5,126.4c0.2-1.5,0.5-3,0.9-4.5c0.5-1.7,1.5-3.9,1.4-5.7c-2.7,4.6-3.6,9.4-4.1,14.7
			c-0.2,2.1-0.5,4.3-0.6,6.6c0.5-0.1,1-0.2,1.5-0.3c0-0.1,0-0.2,0-0.3C75.6,133.4,75.9,129.8,76.5,126.4z"/>
		<path class="st0" d="M66.7,74.5c1.9-1.2,2.8-3.5,3.9-5.4c0.5-0.9,1-1.8,1.6-2.7h-1.5c-0.3,0.6-0.7,1.1-1,1.7l-0.2,0.4
			c-0.2,0.4-0.5,0.9-0.7,1.3c-0.8,1.5-1.5,2.9-2.7,3.6c-1.3,0.8-3.1,1.2-4.8,1.4c-3.7,0.6-7.6,0.7-11.4,0.9
			c-4.9,0.2-10,0.4-14.9,1.5v1.3c8.6-2,17.8-1.1,26.5-2.5C63.2,75.8,65.2,75.5,66.7,74.5z"/>
		<path class="st0" d="M90.2,52.3c1.7,0.1,2.9,0.9,4.2,0.1c1.2-0.8,3.9-6.3,5.4-5.7c1,0.4,1.4,4,1.6,4.8c0.4,2.6,0.3,5-0.2,7.6
			c-0.2,1.2-0.1,2.2,0.1,3.3l1.5,0.6c-0.3-1.2-0.5-2.4-0.3-3.6c0.6-3,0.6-5.5,0.2-8c0-0.1,0-0.2-0.1-0.3c-0.5-3.1-1-5-2.3-5.5
			c-1.9-0.8-3.5,1.6-5.1,3.8c-0.5,0.7-1.2,1.8-1.5,2c-0.4,0.2-0.8,0.2-1.8,0c-0.5-0.1-1-0.2-1.7-0.2c-0.1,0-0.2,0-0.3,0v1.3
			C90.1,52.3,90.1,52.3,90.2,52.3z"/>
		<path class="st0" d="M99.5,89.2c-0.5,0.9-1.2,1.7-1.6,2.6c-0.3,0.7-0.4,1.5-0.5,2.2c0.4,0.2,0.8,0.3,1.3,0.5
			c0.1-0.8,0.2-1.6,0.5-2.3c0.2-0.4,0.5-0.9,0.8-1.4c0.2-0.3,0.5-0.7,0.7-1c1.7-3,2.8-6.3,3.3-10.1c-0.4-0.2-0.8-0.3-1.3-0.5
			C102.3,82.7,101.3,86.1,99.5,89.2z"/>
		<path class="st0" d="M10.3,102C17,85.4,3.5,118.5,10.3,102L10.3,102z"/>
		<path class="st0" d="M11.5,102.5L11.5,102.5c4.3-10.6,10.6-17.7,18.7-21.1c1.5-0.6,3.1-1.1,4.7-1.5v-1.3c-1.7,0.4-3.5,0.9-5.2,1.7
			c-9.5,4-15.7,12.4-19.4,21.8c-1.1,2.6-1.9,5.3-2.5,8.1c0.3,0.6,0.7,1.2,1,1.7C9.2,108.9,10.1,105.8,11.5,102.5z"/>
		<path class="st0" d="M31.2,132.3c0.7-0.9,1.4-1.8,1.9-3.1c0.2-0.7,2.2-6.4,0.8-8.7c-0.1-0.6-0.5-0.9-0.8-1c-0.6-0.3-1.2,0-1.3,0.1
			c-0.1,0-0.1,0.1-0.3,0.1c-0.7,0.4-1.3,1.2-1.9,2c-0.2,0.3-0.4,0.6-0.6,0.7c-0.4,0.4-0.7,0.8-1.1,1.1c-1.4,1.4-2.7,2.9-4.2,4.3
			c0.4,0.3,0.7,0.5,1.1,0.8c1.8-1.7,3.4-3.5,5.1-5.3c0.5-0.6,1.5-2.1,2.1-2.5c0.7-0.4,0.3-0.3,0.7,0.3c0.9,1.4-0.4,6-0.9,7.5
			c-0.4,1.2-1.2,2.1-2,3.1c0.4,0.2,0.8,0.4,1.2,0.6C31.1,132.4,31.1,132.4,31.2,132.3z"/>
		<path class="st0" d="M20.6,115.8c-0.1-1.6-0.3-3.1-0.5-4.7c-0.4-2.8-0.7-5.4-0.7-8.1l-2.5-0.6c-2.3,4.6-3.2,10-4,15.2l0,0
			c0.4,0.5,0.7,0.9,1.1,1.4c0.9-5.4,1.7-11.2,4.1-16c0,4.4,0.8,8.6,1.2,12.9c0.2,2.7-0.2,5.2-1.1,7.6c0.3,0.3,0.7,0.6,1,1
			C20.3,121.8,20.9,119,20.6,115.8z"/>
		<path class="st0" d="M68.1,134.4v-0.3c-0.3-1.8-0.4-3.6-0.6-5.4c-0.1-1-0.2-1.9-0.3-2.9c-0.2-1.4-0.3-2.8-0.4-4.2v-0.1
			c0-0.2,0-0.5,0-0.9c0-1.8-0.1-3.2-0.7-4c-0.5-0.6-1.3-0.9-2.1-0.9c-1.1,0-2.3,0.4-3.4,0.7c-0.5,0.1-0.9,0.3-1.1,0.3
			c-2.7,0.5-5.3,0.9-7.9,1c-0.4,0-0.9,0-1.3,0c-0.8,0-1.7-0.1-2.5,0.1c-1.4,0.3-1.9,0.6-2.3,1.7c-0.1,0.2-0.2,0.4-0.3,0.7
			c-0.7,1.4-1.7,2.6-2.8,3.9c-0.5,0.6-1,1.2-1.5,1.9l-0.5,0.7c-1.7,2.3-3.7,4.8-4.9,7.6c0.4,0.2,0.8,0.3,1.2,0.5
			c1.2-2.9,3.4-5.6,5.2-7.9c1.5-2,3.4-3.8,4.5-6c0.6-1.3,0.3-1.4,1.6-1.7c1.1-0.2,2.5,0,3.7-0.1c2.7-0.2,5.4-0.5,8.1-1.1
			c1.3-0.3,4.5-1.7,5.3-0.7c0.6,0.7,0.4,3.2,0.5,4.1c0.1,1.4,0.2,2.9,0.4,4.3c0.3,2.8,0.5,5.5,0.9,8.3c0.2,1.5,0.4,2.9,0.6,4.4
			c0.4-0.1,0.9-0.1,1.3-0.2C68.5,137.1,68.3,135.7,68.1,134.4z"/>
		<path class="st0" d="M75.8,62.7c1.2-2,0.9-3.6,0.6-5.1c-0.1-0.6-0.2-1.3-0.2-2c-0.1-2.1,0.2-4.3,0.8-6.3c0.1-0.2,0.1-0.3,0.1-0.5
			s0.1-0.4,0.2-0.6c0.6,0.4,1.1,1.4,1.6,2.2c0.9,1.5,1.9,3.3,3.7,3.7c0.5,0.1,1.2,0,2.2-0.3c0.3-0.1,0.7-0.2,0.8-0.2
			c1.4-0.1,2.9-0.2,4.4-0.1v-1.3c-1.5-0.1-3-0.1-4.5,0.1c-0.5,0.1-2.2,0.6-2.6,0.5c-2.4-0.5-3.1-5.2-5.4-6c-1.2-0.5-1.4,0.8-1.8,2
			c-0.7,2.2-1,4.5-0.9,6.8c0.1,2.5,1.1,4.1-0.2,6.4c-0.8,1.4-1.7,2.9-2.5,4.3h1.5C74.4,65.1,75.1,63.9,75.8,62.7z"/>
		<path class="st0" d="M100.4,63.9c0.1,0.4,0.2,0.8,0.3,1.3c0.5,2.5,0.9,5.3,0.9,8.2c0,1.8,0,3.5-0.2,5.2c0.4,0.2,0.8,0.4,1.3,0.6
			c0.2-1.9,0.3-3.9,0.3-5.8c-0.1-2.8-0.4-5.7-1-8.5c-0.2-0.9-0.4-1.8-0.6-2.6l-1.4-0.6C100,62.5,100.2,63.2,100.4,63.9z"/>
		<path class="st0" d="M77.8,126.5c0.2-1.4,0.5-2.9,0.9-4.4c0.1-0.5,0.3-1,0.5-1.6c0.5-1.4,1.1-3,0.9-4.5l-2.4-0.5
			c-3,5.1-3.8,10.4-4.3,15.3c-0.1,0.6-0.1,1.3-0.2,1.9c-0.2,1.6-0.3,3.3-0.5,5.1c0.4-0.1,0.9-0.2,1.3-0.3c0.2-2.3,0.4-4.5,0.6-6.6
			c0.5-5.3,1.4-10.1,4.1-14.7c0.2,1.8-0.9,3.9-1.4,5.7c-0.4,1.5-0.6,3-0.9,4.5c-0.6,3.5-0.9,7-1,10.5c0,0.1,0,0.2,0,0.3
			c0.4-0.1,0.9-0.2,1.3-0.3C76.9,133.4,77.2,130,77.8,126.5z"/>
		<path class="st0" d="M96,95.2c-0.1,0.9-0.2,1.8-0.4,2.5c-0.6,2.5-1.5,5-2.4,7.4l-0.2,0.6c-1.2,3.5-2.6,6.2-4.2,8.5
			c-0.3,0.4-0.6,0.9-0.9,1.3c-1.3,1.8-2.6,3.5-3.6,5.8s-1.5,4.8-1.9,7.2c-0.1,0.6-0.2,1.2-0.3,1.8c-0.4,2-0.7,3.7-0.9,5.4
			c0.5-0.1,0.9-0.3,1.4-0.5c0.2-1.6,0.5-3.1,0.8-4.7c0.6-2.9,1-6,2.2-8.7c1.2-2.6,2.7-4.5,4.4-6.8c1.9-2.7,3.3-5.7,4.3-8.8
			c0.9-2.6,1.9-5.4,2.6-8.1c0.3-1.2,0.4-2.7,0.5-4c-0.4-0.2-0.8-0.3-1.3-0.5C96.1,94.1,96,94.7,96,95.2z"/>
		<path class="st0" d="M49.9,78.3c3.9-0.2,7.8-0.3,11.7-0.9c2-0.3,4.1-0.7,5.8-1.8c1.8-1.1,2.8-3,3.6-4.6c0.2-0.4,0.4-0.8,0.7-1.2
			l0.2-0.4c0.6-1,1.2-2,1.7-3h-1.4c-0.5,0.9-1,1.8-1.6,2.7c-1.1,1.9-1.9,4.2-3.9,5.4c-1.6,1-3.5,1.3-5.3,1.6
			c-8.8,1.4-17.9,0.4-26.5,2.5v1.3C39.7,78.7,44.7,78.5,49.9,78.3z"/>
		<path class="st0" d="M99.5,89.2c1.8-3.1,2.8-6.5,3.2-10c-0.4-0.2-0.8-0.4-1.3-0.6c-0.4,3.8-1.4,7.1-3.1,10
			c-0.2,0.3-0.3,0.5-0.5,0.8c-0.4,0.6-0.9,1.2-1.1,2c-0.3,0.7-0.4,1.4-0.5,2.2c0.4,0.2,0.8,0.4,1.3,0.5c0.1-0.8,0.2-1.5,0.5-2.2
			C98.3,90.9,99,90.1,99.5,89.2z"/>
		<path class="st0" d="M90.1,53.6c0.5,0,0.9,0.1,1.3,0.2c1.1,0.2,2.4,0.5,3.7-0.3c0.7-0.4,1.3-1.3,2.3-2.7c0.5-0.7,1.4-2,2-2.6
			c0.2,0.5,0.4,1.4,0.7,3.1c0,0.2,0,0.3,0.1,0.4c0.4,2.2,0.3,4.4-0.2,7.1c-0.2,1.1-0.2,2,0,2.9l1.4,0.6c-0.2-1-0.3-2.1-0.1-3.3
			c0.5-2.6,0.6-5,0.2-7.6c-0.1-0.8-0.5-4.4-1.6-4.8c-1.5-0.6-4.2,4.9-5.4,5.7c-1.3,0.8-2.6,0-4.2-0.1c-0.1,0-0.1,0-0.2,0L90.1,53.6
			C90,53.6,90.1,53.6,90.1,53.6z"/>
	</g>
</g>
</svg>
