<?xml version="1.0" encoding="utf-8"?>
<!-- Generator: Adobe Illustrator 25.4.1, SVG Export Plug-In . SVG Version: 6.00 Build 0)  -->
<svg version="1.1" id="Layer_1" xmlns="http://www.w3.org/2000/svg" xmlns:xlink="http://www.w3.org/1999/xlink" x="0px" y="0px"
	 viewBox="0 0 505 140" style="enable-background:new 0 0 505 140;" xml:space="preserve">
<style type="text/css">
	.st0{fill:#29333A;}
	.st1{fill:#F79432;}
</style>
<path class="st0" d="M193.4,25.2c15.1,0,21.1,10.5,21.1,21.3s-7.8,21.3-21.5,21.3h-13.4v24.5h-15.5V25.2H193.4z M179.5,54.1h11.4
	c5.8,0,8.1-3.4,8.1-7.5s-2.1-7.5-8.1-7.5h-11.4V54.1z"/>
<path class="st0" d="M248.4,93c-13.9,0-26.3-7.2-26.3-21.9V45.9c0-14.7,13.6-21.3,26.3-21.3c12.9,0,26.3,7.1,26.3,21.8v24.8
	C274.7,85.8,262.5,93,248.4,93z M239,5.7c4.2,0,7.6,3.3,7.6,7.5s-3.4,7.6-7.6,7.6c-4.2,0-7.5-3.4-7.5-7.6S234.8,5.7,239,5.7z
	 M259.1,49.3c0-7.7-5.7-10.5-10.7-10.5s-10.8,2.8-10.8,10.5v19c0,7.7,5.8,10.5,10.8,10.5s10.7-2.8,10.7-10.5V49.3z M258.4,5.7
	c4.2,0,7.5,3.3,7.5,7.5s-3.3,7.6-7.5,7.6s-7.6-3.4-7.6-7.6S254.2,5.7,258.4,5.7z"/>
<path class="st0" d="M299,52.3h26.8V66H299v26.3h-15.5V25.2h46.9V39H299V52.3z"/>
<path class="st0" d="M353.3,52.3h26.8V66h-26.8v26.3h-15.5V25.2h46.9V39h-31.4V52.3z"/>
<g>
	<path class="st1" d="M168,128.5v-15l-2,1.7l-2-2.6l4.3-3.8h3.3v19.7H168z"/>
	<path class="st1" d="M186.7,120.1c-1.6,1.3-4.4,2.8-4.7,5.2h8.5v3.3h-12.3v-2.8c0-3.2,2.1-5.3,4.3-7c2.1-1.5,4.3-2.9,4.3-4.5
		c0-1.3-1.3-2.1-2.8-2.1c-1.3,0-2.7,0.5-3.8,1.4l-1.9-2.9c1.5-1.3,3.5-2,5.8-2c3.1,0,6.3,1.4,6.3,5.5
		C190.5,116.7,188.4,118.7,186.7,120.1z"/>
	<path class="st1" d="M201.9,122.7v-3.2h9.3v3.2H201.9z"/>
	<path class="st1" d="M230.9,120.1c-1.6,1.3-4.4,2.8-4.7,5.2h8.5v3.3h-12.3v-2.8c0-3.2,2.1-5.3,4.3-7c2.1-1.5,4.3-2.9,4.3-4.5
		c0-1.3-1.3-2.1-2.8-2.1c-1.3,0-2.7,0.5-3.8,1.4l-1.9-2.9c1.5-1.3,3.5-2,5.8-2c3.1,0,6.3,1.4,6.3,5.5
		C234.8,116.7,232.7,118.7,230.9,120.1z"/>
	<path class="st1" d="M249.9,114.3c0,1.8-0.9,3.4-2.3,4.1c1.8,0.8,2.7,2.6,2.7,4.4c0,4.1-3.4,5.9-6.4,5.9c-3.3,0-6.3-1.7-6.3-5.7
		c0-2,1.3-3.9,2.7-4.5c-1.5-0.6-2.3-2.2-2.3-4.1c0-3.8,3.1-5.6,5.9-5.6C246.9,108.6,249.9,110.5,249.9,114.3z M240.8,122.9
		c0,1.8,1.3,2.9,3.1,2.9s3.1-1.1,3.1-2.9c0-1.7-1.5-2.9-3.1-2.9S240.8,121.1,240.8,122.9z M243.9,111.6c-1.5,0-2.9,1-2.9,2.8
		s1.4,2.8,2.9,2.8s2.9-1.1,2.9-2.8C246.8,112.6,245.5,111.6,243.9,111.6z"/>
	<g>
		<path class="st1" d="M265.5,116.1v12.4h-3.9v-19.7h3.5l4.6,6.7l3.7,5.7h0.1v-12.4h3.9v19.7h-3.6l-5-7.4L265.5,116.1L265.5,116.1z"
			/>
		<path class="st1" d="M288.3,128.7c-4.1,0-7.6-2.3-7.6-6.5V115c0-4.2,3.7-6.4,7.6-6.4s7.6,2.3,7.6,6.5v7.1
			C295.9,126.4,292.4,128.7,288.3,128.7z M291.9,115.8c0-2.6-1.8-3.6-3.6-3.6c-1.8,0-3.7,1-3.7,3.6v5.7c0,2.6,1.8,3.6,3.7,3.6
			c1.8,0,3.6-1,3.6-3.6V115.8z"/>
		<path class="st1" d="M306.2,122.7l2-7l2.1-6.9h4.1l-6.3,19.7H304l-6.3-19.7h4.2l2.1,7.1l2,6.8H306.2z"/>
		<path class="st1" d="M331.9,120.1c-1.6,1.3-4.4,2.8-4.7,5.2h8.5v3.3h-12.3v-2.8c0-3.2,2.1-5.3,4.3-7c2.1-1.5,4.3-2.9,4.3-4.5
			c0-1.3-1.3-2.1-2.8-2.1c-1.3,0-2.7,0.5-3.8,1.4l-1.9-2.9c1.5-1.3,3.5-2,5.8-2c3.1,0,6.3,1.4,6.3,5.5
			C335.7,116.7,333.6,118.7,331.9,120.1z"/>
		<path class="st1" d="M344.8,128.6c-2.9,0-6.2-1.7-6.2-5.2v-9.5c0-3.6,3.4-5.3,6.2-5.3c2.9,0,6.2,1.7,6.2,5.3v9.5
			C351,127,347.6,128.6,344.8,128.6z M347.3,114.7c0-1.9-1.3-2.5-2.5-2.5s-2.5,0.7-2.5,2.5v8c0,1.8,1.4,2.5,2.5,2.5
			c1.2,0,2.5-0.7,2.5-2.5V114.7z"/>
		<path class="st1" d="M362.4,120.1c-1.6,1.3-4.4,2.8-4.7,5.2h8.5v3.3h-12.3v-2.8c0-3.2,2.1-5.3,4.3-7c2.1-1.5,4.3-2.9,4.3-4.5
			c0-1.3-1.3-2.1-2.8-2.1c-1.3,0-2.7,0.5-3.8,1.4l-1.9-2.9c1.5-1.3,3.5-2,5.8-2c3.1,0,6.3,1.4,6.3,5.5
			C366.2,116.7,364.1,118.7,362.4,120.1z"/>
		<path class="st1" d="M374.3,128.5v-15l-2,1.7l-2-2.6l4.3-3.8h3.3v19.7H374.3z"/>
	</g>
</g>
<g>
	<path class="st0" d="M83.9,25.9c0,10.4-8.5,17.7-15.1,23.2c-5.1,4.2-15.6,10.3-17.2,17.2h18.8c1-1.7,1.9-3.3,2.9-5
		c0.7-1.1,0.5-2,0.3-3.3c-0.1-0.7-0.3-1.4-0.3-2.3c-0.1-2.4,0.2-4.9,0.9-7.2c0-0.2,0.1-0.3,0.1-0.4c0.3-0.9,0.6-1.9,1.5-2.4
		c0.4-0.2,1-0.4,1.9,0c1.5,0.6,2.4,2.1,3.2,3.5c0.6,1,1.2,2.2,1.9,2.4c0.2,0,0.8-0.2,1.1-0.3c0.6-0.1,0.9-0.2,1.2-0.3
		c1.5-0.1,3-0.2,4.6-0.1V19.6h33.1c-7.3-8-17-13.9-28.6-16.8C82.9,0,71,0.5,59.7,3.7C71.4,3.9,83.9,9.2,83.9,25.9z"/>
	<path class="st0" d="M30.4,128.3c0.6-1.7,1-3.6,1.1-5c0,0,0,0,0,0.1c-0.3,0.4-0.5,0.7-0.8,1c-0.4,0.4-0.7,0.7-1.1,1.1
		c-1.3,1.3-2.5,2.7-3.9,4c0.9,0.6,1.8,1.1,2.7,1.7c0.1-0.2,0.3-0.4,0.4-0.6C29.5,129.8,30.1,129.1,30.4,128.3z"/>
	<path class="st0" d="M6.9,106.1L6.9,106.1c0,0,0-0.1,0.1-0.2c0-0.1,0-0.1,0.1-0.2l3.5-8.7c0-0.1,0.1-0.1,0.1-0.2s0.1-0.2,0.1-0.2
		l0,0c0.2-0.3,0.4-0.6,0.6-0.7c4.4-8.3,10.3-14,17.6-17.1c1.9-0.8,3.8-1.3,5.7-1.8v-6.9c0-12.6,7.7-21.6,15.7-27.8
		c8.1-6.1,16.3-10.6,16.3-16.5c0-3.5-2.8-6.4-8.9-6.4c-4.5,0-9.9,1.6-14.1,5.3l-6.8-10.6C22.8,23.6,11.1,37.5,4.8,54.3
		c-7.3,19.3-6,38.6,1.8,53.9c0.1-0.4,0.2-0.7,0.3-1.1C6.8,106.8,6.8,106.5,6.9,106.1z"/>
	<path class="st0" d="M65.2,134.4c-0.3-1.8-0.4-3.7-0.6-5.5c-0.1-1-0.2-1.9-0.3-2.9c-0.2-1.4-0.3-2.9-0.4-4.3v-0.1
		c0-0.3,0-0.6,0-1.1s0-1.7-0.1-2.3c-0.6,0-2,0.4-2.6,0.6s-1,0.3-1.4,0.4c-2.8,0.6-5.5,0.9-8.3,1.1c-0.5,0-1.1,0-1.6,0
		c-0.7,0-1.4,0-2,0.1c-0.1,0-0.2,0-0.3,0.1c0,0,0,0,0,0.1c-0.1,0.2-0.2,0.5-0.4,0.9c-0.8,1.7-2,3.1-3.1,4.4c-0.5,0.6-1,1.2-1.4,1.8
		l-0.5,0.7c-1.7,2.2-3.4,4.5-4.5,6.9c2,0.7,4,1.3,6.1,1.8c7.3,1.8,14.7,2.2,22.1,1.5c-0.2-1.3-0.4-2.7-0.6-4L65.2,134.4z"/>
	<path class="st0" d="M103.1,64.6c0.6,2.7,0.9,5.6,1,8.7c0.1,2.3,0,4.4-0.3,6.4c2.5,0.9,5,1.3,7.5,1.3c4.3,0,9.2-2.6,9.2-7.9v-7.9
		c0-4.2-2-6.1-5.4-6.1c-3.8,0-9.1,3.3-10.5,4.4l-1.8-0.7c0,0.1,0.1,0.3,0.1,0.4C102.9,63.6,103,64.1,103.1,64.6z"/>
	<path class="st0" d="M17.8,116c-0.1-1.5-0.3-3.1-0.5-4.6c-0.1-0.7-0.2-1.4-0.3-2.2c-0.7,2.8-1.2,5.8-1.7,8.7
		c-0.1,0.8-0.2,1.5-0.4,2.2c0.7,0.7,1.4,1.5,2.1,2.2C17.7,120.4,18,118.3,17.8,116z"/>
	<path class="st0" d="M111.8,96.6c-4.7,0-9.2-0.7-13.3-2.1c0,0.3-0.1,0.6-0.1,0.9c-0.1,1-0.2,2-0.4,2.9c-0.6,2.6-1.5,5.2-2.4,7.7
		l-0.2,0.6c-1.3,3.7-2.8,6.7-4.5,9.1c-0.3,0.4-0.6,0.9-0.9,1.3c-1.3,1.8-2.4,3.3-3.3,5.3s-1.3,4.3-1.7,6.6c-0.1,0.6-0.2,1.2-0.3,1.8
		c-0.3,1.4-0.5,2.7-0.7,3.9c20.8-7.5,39.1-24.1,48.2-46C127.3,93.9,119.7,96.6,111.8,96.6z"/>
	<path class="st0" d="M106.2,45.9c3.4-1.9,8.1-3.2,11.3-3.2c12.4,0,19.3,9,19.3,20.8v9.2c2.6-13.8,0.9-27.1-4.3-38.5h-26.3V45.9z"/>
	<path class="st0" d="M18,123.4c0.8-2.4,1.3-4.8,1.1-7.6c-0.4-4.3-1.2-8.5-1.2-12.9c-2.4,4.8-3.2,10.6-4.1,16
		c0.4,0.4,0.7,0.9,1.1,1.3c0.1-0.7,0.2-1.5,0.4-2.2c0.5-2.9,1-5.9,1.7-8.7c0.1,0.7,0.2,1.4,0.3,2.2c0.2,1.5,0.4,3,0.5,4.6
		c0.2,2.3-0.1,4.4-0.8,6.4C17.3,122.8,17.7,123.1,18,123.4z"/>
	<path class="st0" d="M31.6,128.7c0.5-1.5,1.8-6.1,0.9-7.5c-0.4-0.6,0.1-0.6-0.7-0.3c-0.7,0.3-1.6,1.9-2.1,2.5
		c-1.7,1.8-3.3,3.6-5.1,5.3c0.4,0.3,0.7,0.5,1.1,0.8c1.4-1.3,2.6-2.7,3.9-4c0.4-0.4,0.7-0.7,1.1-1.1c0.2-0.3,0.5-0.6,0.8-1
		c0,0,0,0,0-0.1c-0.1,1.3-0.6,3.3-1.1,5c-0.3,0.8-0.9,1.5-1.5,2.3c-0.1,0.2-0.3,0.4-0.4,0.6c0.4,0.2,0.8,0.4,1.2,0.6
		C30.4,130.8,31.2,129.9,31.6,128.7z"/>
	<path class="st0" d="M10.1,101.9C3.3,118.4,16.8,85.3,10.1,101.9c3.8-9.3,9.9-17.8,19.4-21.8c1.7-0.7,3.4-1.2,5.2-1.7v-1.3
		c-1.9,0.4-3.8,1-5.7,1.8c-7.3,3-13.2,8.8-17.6,17.1c-0.2,0.1-0.4,0.4-0.6,0.7l0,0c0,0,0,0.1-0.1,0.2c0,0.1-0.1,0.1-0.1,0.2
		l-3.5,8.7c0,0.1-0.1,0.1-0.1,0.2s-0.1,0.2-0.1,0.2l0,0c-0.1,0.4-0.1,0.7-0.1,1c-0.1,0.4-0.2,0.7-0.3,1.1c0.3,0.6,0.6,1.2,0.9,1.8
		C8.1,107.2,9,104.5,10.1,101.9z"/>
	<path class="st0" d="M101.8,64.8c0.6,2.8,0.9,5.7,1,8.5c0.1,1.9,0,3.9-0.3,5.8c0.4,0.2,0.8,0.4,1.3,0.5c0.3-2,0.4-4.1,0.3-6.4
		c-0.1-3.1-0.4-6.1-1-8.7c-0.1-0.5-0.2-0.9-0.3-1.4c0-0.1-0.1-0.3-0.1-0.4l-1.5-0.6C101.3,63.1,101.6,63.9,101.8,64.8z"/>
	<path class="st0" d="M84.9,128.8c0.4-2.3,0.9-4.6,1.7-6.6c0.9-2,2-3.5,3.3-5.3c0.3-0.4,0.6-0.8,0.9-1.3c1.7-2.4,3.2-5.4,4.5-9.1
		l0.2-0.6c0.9-2.5,1.8-5.1,2.4-7.7c0.2-0.9,0.3-1.9,0.4-2.9c0-0.3,0.1-0.6,0.1-0.9c-0.4-0.1-0.9-0.3-1.3-0.5c-0.2,1.3-0.2,2.8-0.5,4
		c-0.7,2.7-1.7,5.5-2.6,8.1c-1.1,3.1-2.4,6.1-4.3,8.8c-1.7,2.3-3.2,4.2-4.4,6.8c-1.2,2.7-1.6,5.7-2.2,8.7c-0.3,1.6-0.6,3.1-0.8,4.7
		c0.5-0.2,0.9-0.3,1.4-0.5c0.2-1.2,0.4-2.5,0.7-3.9C84.6,130,84.7,129.4,84.9,128.8z"/>
	<path class="st0" d="M66.5,134.2c-0.4-2.8-0.6-5.5-0.9-8.3c-0.2-1.4-0.3-2.9-0.4-4.3c-0.1-0.9,0.1-3.4-0.5-4.1
		c-0.9-1.1-4,0.4-5.3,0.7c-2.7,0.5-5.4,0.9-8.1,1.1c-1.2,0.1-2.6-0.1-3.7,0.1c-1.4,0.3-1,0.4-1.6,1.7c-1.1,2.2-3,4-4.5,6
		c-1.8,2.4-3.9,5-5.2,7.9c0.4,0.2,0.8,0.3,1.2,0.5c1-2.4,2.8-4.8,4.5-6.9l0.5-0.7c0.4-0.6,0.9-1.2,1.4-1.8c1.1-1.4,2.3-2.8,3.1-4.4
		c0.2-0.4,0.3-0.7,0.4-0.9c0,0,0,0,0-0.1c0.1,0,0.2,0,0.3-0.1c0.5-0.1,1.3-0.1,2-0.1c0.5,0,1.1,0,1.6,0c2.7-0.2,5.4-0.5,8.3-1.1
		c0.4-0.1,0.9-0.2,1.4-0.4c0.6-0.2,2-0.7,2.6-0.6c0.1,0.5,0.1,1.7,0.1,2.3c0,0.4,0,0.8,0,1.1v0.1c0.1,1.4,0.2,2.8,0.4,4.3
		c0.1,1,0.2,1.9,0.3,2.9c0.2,1.8,0.4,3.6,0.6,5.5v0.3c0.2,1.4,0.4,2.7,0.6,4c0.4,0,0.9-0.1,1.3-0.1
		C66.9,137.1,66.7,135.6,66.5,134.2z"/>
	<path class="st0" d="M85.2,50.9c-0.3,0-0.7,0.1-1.2,0.3c-0.3,0.1-0.8,0.2-1.1,0.3c-0.7-0.2-1.3-1.4-1.9-2.4c-0.8-1.5-1.7-3-3.2-3.5
		c-0.9-0.3-1.5-0.2-1.9,0C75,46,74.7,47.1,74.4,48c0,0.1-0.1,0.3-0.1,0.4c-0.7,2.3-1,4.8-0.9,7.2c0,0.9,0.2,1.6,0.3,2.3
		c0.2,1.4,0.4,2.2-0.3,3.3c-1,1.6-1.9,3.3-2.9,5H72c0.8-1.4,1.7-2.9,2.5-4.3c1.3-2.2,0.3-3.8,0.2-6.4c-0.1-2.3,0.2-4.6,0.9-6.8
		c0.4-1.3,0.5-2.5,1.8-2c2.3,0.9,3,5.5,5.4,6c0.4,0.1,2.1-0.5,2.6-0.5c1.5-0.1,3-0.2,4.5-0.1v-1.3C88.2,50.8,86.7,50.8,85.2,50.9z"
		/>
	<path class="st0" d="M76.3,126.3c0.2-1.5,0.5-3,0.9-4.5c0.5-1.7,1.5-3.9,1.4-5.7c-2.7,4.6-3.6,9.4-4.1,14.7
		c-0.2,2.1-0.5,4.3-0.6,6.6c0.5-0.1,1-0.2,1.5-0.3c0-0.1,0-0.2,0-0.3C75.4,133.3,75.7,129.7,76.3,126.3z"/>
	<path class="st0" d="M66.5,74.4c1.9-1.2,2.8-3.5,3.9-5.4c0.5-0.9,1-1.8,1.6-2.7h-1.5c-0.3,0.6-0.7,1.1-1,1.7l-0.2,0.4
		c-0.2,0.4-0.5,0.9-0.7,1.3c-0.8,1.5-1.5,2.9-2.7,3.6c-1.3,0.8-3.1,1.2-4.8,1.4c-3.7,0.6-7.6,0.7-11.4,0.9c-4.9,0.2-10,0.4-14.9,1.5
		v1.3c8.6-2,17.8-1.1,26.5-2.5C63,75.7,65,75.4,66.5,74.4z"/>
	<path class="st0" d="M90,52.2c1.7,0.1,2.9,0.9,4.2,0.1c1.2-0.8,3.9-6.3,5.4-5.7c1,0.4,1.4,4,1.6,4.8c0.4,2.6,0.3,5-0.2,7.6
		c-0.2,1.2-0.1,2.2,0.1,3.3l1.5,0.6c-0.3-1.2-0.5-2.4-0.3-3.6c0.6-3,0.6-5.5,0.2-8c0-0.1,0-0.2-0.1-0.3c-0.5-3.1-1-5-2.3-5.5
		c-1.9-0.8-3.5,1.6-5.1,3.8c-0.5,0.7-1.2,1.8-1.5,2c-0.4,0.2-0.8,0.2-1.8,0c-0.5-0.1-1-0.2-1.7-0.2c-0.1,0-0.2,0-0.3,0v1.3
		C89.9,52.2,89.9,52.2,90,52.2z"/>
	<path class="st0" d="M99.3,89.1c-0.5,0.9-1.2,1.7-1.6,2.6c-0.3,0.7-0.4,1.5-0.5,2.2c0.4,0.2,0.8,0.3,1.3,0.5
		c0.1-0.8,0.2-1.6,0.5-2.3c0.2-0.4,0.5-0.9,0.8-1.4c0.2-0.3,0.5-0.7,0.7-1c1.7-3,2.8-6.3,3.3-10.1c-0.4-0.2-0.8-0.3-1.3-0.5
		C102.1,82.6,101.1,86,99.3,89.1z"/>
	<path class="st0" d="M10.1,101.9C16.8,85.3,3.3,118.4,10.1,101.9L10.1,101.9z"/>
	<path class="st0" d="M11.3,102.4L11.3,102.4C15.6,91.8,21.9,84.7,30,81.3c1.5-0.6,3.1-1.1,4.7-1.5v-1.3c-1.7,0.4-3.5,0.9-5.2,1.7
		c-9.5,4-15.7,12.4-19.4,21.8c-1.1,2.6-1.9,5.3-2.5,8.1c0.3,0.6,0.7,1.2,1,1.7C9,108.8,9.9,105.7,11.3,102.4z"/>
	<path class="st0" d="M31,132.2c0.7-0.9,1.4-1.8,1.9-3.1c0.2-0.7,2.2-6.4,0.8-8.7c-0.1-0.6-0.5-0.9-0.8-1c-0.6-0.3-1.2,0-1.3,0.1
		c-0.1,0-0.1,0.1-0.3,0.1c-0.7,0.4-1.3,1.2-1.9,2c-0.2,0.3-0.4,0.6-0.6,0.7c-0.4,0.4-0.7,0.8-1.1,1.1c-1.4,1.4-2.7,2.9-4.2,4.3
		c0.4,0.3,0.7,0.5,1.1,0.8c1.8-1.7,3.4-3.5,5.1-5.3c0.5-0.6,1.5-2.1,2.1-2.5c0.7-0.4,0.3-0.3,0.7,0.3c0.9,1.4-0.4,6-0.9,7.5
		c-0.4,1.2-1.2,2.1-2,3.1c0.4,0.2,0.8,0.4,1.2,0.6C30.9,132.3,30.9,132.3,31,132.2z"/>
	<path class="st0" d="M20.4,115.7c-0.1-1.6-0.3-3.1-0.5-4.7c-0.4-2.8-0.7-5.4-0.7-8.1l-2.5-0.6c-2.3,4.6-3.2,10-4,15.2l0,0
		c0.4,0.5,0.7,0.9,1.1,1.4c0.9-5.4,1.7-11.2,4.1-16c0,4.4,0.8,8.6,1.2,12.9c0.2,2.7-0.2,5.2-1.1,7.6c0.3,0.3,0.7,0.6,1,1
		C20.1,121.7,20.7,118.9,20.4,115.7z"/>
	<path class="st0" d="M67.9,134.3V134c-0.3-1.8-0.4-3.6-0.6-5.4c-0.1-1-0.2-1.9-0.3-2.9c-0.2-1.4-0.3-2.8-0.4-4.2v-0.1
		c0-0.2,0-0.5,0-0.9c0-1.8-0.1-3.2-0.7-4c-0.5-0.6-1.3-0.9-2.1-0.9c-1.1,0-2.3,0.4-3.4,0.7c-0.5,0.1-0.9,0.3-1.1,0.3
		c-2.7,0.5-5.3,0.9-7.9,1c-0.4,0-0.9,0-1.3,0c-0.8,0-1.7-0.1-2.5,0.1c-1.4,0.3-1.9,0.6-2.3,1.7c-0.1,0.2-0.2,0.4-0.3,0.7
		c-0.7,1.4-1.7,2.6-2.8,3.9c-0.5,0.6-1,1.2-1.5,1.9l-0.5,0.7c-1.7,2.3-3.7,4.8-4.9,7.6c0.4,0.2,0.8,0.3,1.2,0.5
		c1.2-2.9,3.4-5.6,5.2-7.9c1.5-2,3.4-3.8,4.5-6c0.6-1.3,0.3-1.4,1.6-1.7c1.1-0.2,2.5,0,3.7-0.1c2.7-0.2,5.4-0.5,8.1-1.1
		c1.3-0.3,4.5-1.7,5.3-0.7c0.6,0.7,0.4,3.2,0.5,4.1c0.1,1.4,0.2,2.9,0.4,4.3c0.3,2.8,0.5,5.5,0.9,8.3c0.2,1.5,0.4,2.9,0.6,4.4
		c0.4-0.1,0.9-0.1,1.3-0.2C68.3,137,68.1,135.6,67.9,134.3z"/>
	<path class="st0" d="M75.6,62.6c1.2-2,0.9-3.6,0.6-5.1c-0.1-0.6-0.2-1.3-0.2-2c-0.1-2.1,0.2-4.3,0.8-6.3c0.1-0.2,0.1-0.3,0.1-0.5
		s0.1-0.4,0.2-0.6c0.6,0.4,1.1,1.4,1.6,2.2c0.9,1.5,1.9,3.3,3.7,3.7c0.5,0.1,1.2,0,2.2-0.3c0.3-0.1,0.7-0.2,0.8-0.2
		c1.4-0.1,2.9-0.2,4.4-0.1v-1.3c-1.5-0.1-3-0.1-4.5,0.1c-0.5,0.1-2.2,0.6-2.6,0.5c-2.4-0.5-3.1-5.2-5.4-6c-1.2-0.5-1.4,0.8-1.8,2
		c-0.7,2.2-1,4.5-0.9,6.8c0.1,2.5,1.1,4.1-0.2,6.4c-0.8,1.4-1.7,2.9-2.5,4.3h1.5C74.2,65,74.9,63.8,75.6,62.6z"/>
	<path class="st0" d="M100.2,63.8c0.1,0.4,0.2,0.8,0.3,1.3c0.5,2.5,0.9,5.3,0.9,8.2c0,1.8,0,3.5-0.2,5.2c0.4,0.2,0.8,0.4,1.3,0.6
		c0.2-1.9,0.3-3.9,0.3-5.8c-0.1-2.8-0.4-5.7-1-8.5c-0.2-0.9-0.4-1.8-0.6-2.6l-1.4-0.6C99.8,62.4,100,63.1,100.2,63.8z"/>
	<path class="st0" d="M77.6,126.4c0.2-1.4,0.5-2.9,0.9-4.4c0.1-0.5,0.3-1,0.5-1.6c0.5-1.4,1.1-3,0.9-4.5l-2.4-0.5
		c-3,5.1-3.8,10.4-4.3,15.3c-0.1,0.6-0.1,1.3-0.2,1.9c-0.2,1.6-0.3,3.3-0.5,5.1c0.4-0.1,0.9-0.2,1.3-0.3c0.2-2.3,0.4-4.5,0.6-6.6
		c0.5-5.3,1.4-10.1,4.1-14.7c0.2,1.8-0.9,3.9-1.4,5.7c-0.4,1.5-0.6,3-0.9,4.5c-0.6,3.5-0.9,7-1,10.5c0,0.1,0,0.2,0,0.3
		c0.4-0.1,0.9-0.2,1.3-0.3C76.7,133.3,77,129.9,77.6,126.4z"/>
	<path class="st0" d="M95.8,95.1c-0.1,0.9-0.2,1.8-0.4,2.5c-0.6,2.5-1.5,5-2.4,7.4l-0.2,0.6c-1.2,3.5-2.6,6.2-4.2,8.5
		c-0.3,0.4-0.6,0.9-0.9,1.3c-1.3,1.8-2.6,3.5-3.6,5.8s-1.5,4.8-1.9,7.2c-0.1,0.6-0.2,1.2-0.3,1.8c-0.4,2-0.7,3.7-0.9,5.4
		c0.5-0.1,0.9-0.3,1.4-0.5c0.2-1.6,0.5-3.1,0.8-4.7c0.6-2.9,1-6,2.2-8.7c1.2-2.6,2.7-4.5,4.4-6.8c1.9-2.7,3.3-5.7,4.3-8.8
		c0.9-2.6,1.9-5.4,2.6-8.1c0.3-1.2,0.4-2.7,0.5-4c-0.4-0.2-0.8-0.3-1.3-0.5C95.9,94,95.8,94.6,95.8,95.1z"/>
	<path class="st0" d="M49.7,78.2c3.9-0.2,7.8-0.3,11.7-0.9c2-0.3,4.1-0.7,5.8-1.8c1.8-1.1,2.8-3,3.6-4.6c0.2-0.4,0.4-0.8,0.7-1.2
		l0.2-0.4c0.6-1,1.2-2,1.7-3H72c-0.5,0.9-1,1.8-1.6,2.7c-1.1,1.9-1.9,4.2-3.9,5.4c-1.6,1-3.5,1.3-5.3,1.6
		c-8.8,1.4-17.9,0.4-26.5,2.5v1.3C39.5,78.6,44.5,78.4,49.7,78.2z"/>
	<path class="st0" d="M99.3,89.1c1.8-3.1,2.8-6.5,3.2-10c-0.4-0.2-0.8-0.4-1.3-0.6c-0.4,3.8-1.4,7.1-3.1,10
		c-0.2,0.3-0.3,0.5-0.5,0.8c-0.4,0.6-0.9,1.2-1.1,2c-0.3,0.7-0.4,1.4-0.5,2.2c0.4,0.2,0.8,0.4,1.3,0.5c0.1-0.8,0.2-1.5,0.5-2.2
		C98.1,90.8,98.8,90,99.3,89.1z"/>
	<path class="st0" d="M89.9,53.5c0.5,0,0.9,0.1,1.3,0.2c1.1,0.2,2.4,0.5,3.7-0.3c0.7-0.4,1.3-1.3,2.3-2.7c0.5-0.7,1.4-2,2-2.6
		c0.2,0.5,0.4,1.4,0.7,3.1c0,0.2,0,0.3,0.1,0.4c0.4,2.2,0.3,4.4-0.2,7.1c-0.2,1.1-0.2,2,0,2.9l1.4,0.6c-0.2-1-0.3-2.1-0.1-3.3
		c0.5-2.6,0.6-5,0.2-7.6c-0.1-0.8-0.5-4.4-1.6-4.8c-1.5-0.6-4.2,4.9-5.4,5.7c-1.3,0.8-2.6,0-4.2-0.1c-0.1,0-0.1,0-0.2,0L89.9,53.5
		C89.8,53.5,89.9,53.5,89.9,53.5z"/>
</g>
<g>
	<path class="st0" d="M375.7,83.5c0-4.8,4-8.5,8.5-8.5c4.6,0,8.6,3.7,8.6,8.5c0,4.7-3.3,8.8-8.4,8.8
		C379.6,92.3,375.7,88.3,375.7,83.5z"/>
	<path class="st0" d="M403.1,25.2h46.4v13.7h-31v12.4H445v13.6h-26.5V78h31v13.6h-46.4V25.2z"/>
	<path class="st0" d="M457.2,25.2h46.4v13.7h-31v12.4h26.5v13.6h-26.5V78h31v13.6h-46.4V25.2z"/>
</g>
</svg>
