<?xml version="1.0" encoding="UTF-8"?>
<svg id="Layer_1" xmlns="http://www.w3.org/2000/svg" version="1.1" viewBox="0 0 820 123.1">
  <!-- Generator: Adobe Illustrator 29.7.1, SVG Export Plug-In . SVG Version: 2.1.1 Build 8)  -->
  <defs>
    <style>
      .st0 {
        isolation: isolate;
      }

      .st1 {
        fill: #2e3d54;
      }

      .st2 {
        fill: #0165cc;
      }

      .st3 {
        fill: #ffcc02;
      }
    </style>
  </defs>
  <g>
    <polygon class="st2" points="561.5 123.1 578.6 19.9 570.9 19.9 553.7 123.1 561.5 123.1"/>
    <polygon class="st3" points="553.9 123.1 571.1 19.9 563.3 19.9 546.1 123.1 553.9 123.1"/>
    <g>
      <path class="st3" d="M600.7,59.6c-3.8,0-7.2-1-10.4-3.7l3-3.8c2.3,1.8,4.9,2.8,7.3,2.8,3.4,0,4.6-1.5,4.6-3.1,0-2.4-2.5-2.9-6.2-3.9-4.1-1.1-7.8-2.8-7.8-7.5s3.6-7.9,9-8c3.2,0,6.6.5,9.5,2.5l-2.3,4.2c-2.4-1.5-4.6-2-6.8-2s-4.2,1-4.2,3.1,2.2,2.8,5.9,3.7c5.6,1.2,8.4,3.7,8.4,7.8s-4.3,7.9-10,7.9h0Z"/>
      <path class="st3" d="M613,44.4v-4h2.5l.9-4.8h3.9v4.8h4.6v4h-4.6v7.9c0,1.8.4,2.9,2.5,2.9s1.6,0,2.8-.4l.9,4.2c-1.6.6-3.6.7-4.8.7-5,0-6.2-2.8-6.2-6.8v-8.5h-2.5Z"/>
      <path class="st3" d="M640,57.9c-2.3,1.4-4.1,1.7-5.7,1.7-3.9,0-6.1-2.2-6.1-5.8s3.9-5.8,6.9-5.8h4.9v-.8c0-1.8-.9-2.7-3.5-2.7s-3.2,0-5.1,1.6l-2.2-3.6c2.7-2.1,5.5-2.5,7.8-2.5,5.4,0,7.9,2.5,7.9,7.4v11.9h-4.5l-.4-1.4h0ZM640.1,51.6h-4.1c-1.2,0-2.6.3-2.6,1.9s.8,1.7,2.2,1.7,3.4-.8,4.4-1.4v-2.2h0Z"/>
      <path class="st3" d="M660.6,59.5v-11.8c0-2.2-1.1-2.9-2.5-2.9s-2.6.5-4.5,1.7v12.9h-4.9v-19h4.5l.4,1.6c2.8-1.7,4.7-1.9,6-1.9,4.2,0,6,2.7,6,6.9v12.5h-5Z"/>
      <path class="st3" d="M668.8,47c0-4.2,2.4-6.9,6.7-6.9s3.3.2,5.1,1.1v-9.4h4.9v27.6h-4.5l-.4-1.8c-2.1,1.4-4.1,2-5.4,2-4.1,0-6.4-2.3-6.4-7v-5.6h0ZM673.8,52.3c0,2.2,1.1,2.8,2.4,2.8s3.1-.8,4.4-1.6v-7.6c-1.6-.7-2.8-1-4.1-1s-2.8.9-2.8,3v4.4h0Z"/>
      <path class="st3" d="M692.6,32.5c1.5,0,2.7,1.2,2.7,2.8s-1.2,2.7-2.7,2.7-2.7-1.2-2.7-2.7,1.2-2.8,2.7-2.8ZM690.2,59.5v-19h4.9v19h-4.9Z"/>
      <path class="st3" d="M711.5,59.5v-11.8c0-2.2-1.1-2.9-2.5-2.9s-2.6.5-4.5,1.7v12.9h-4.9v-19h4.5l.4,1.6c2.8-1.7,4.7-1.9,6-1.9,4.2,0,6,2.7,6,6.9v12.5h-5Z"/>
      <path class="st3" d="M727.7,67.4c-2.4,0-5.4-.6-7.7-3.1l3.2-3.2c1.2,1.4,3.4,1.8,4.5,1.8,2.1,0,3.8-.9,3.8-3.3v-1.9c-2.2,1.4-4.2,1.7-5.6,1.7-4.2,0-6.3-2.7-6.3-6.9v-5.3c0-4.5,2.4-7,6.4-7s3.3.5,5.4,1.8l.4-1.6h4.6v20.1c0,4.7-4.8,6.9-8.7,6.9h0ZM724.7,51.9c0,2.2,1,2.9,2.4,2.9s2.9-.7,4.4-1.6v-6.7c-1.4-1-3.2-1.7-4.4-1.7s-2.4.9-2.4,2.9c0,0,0,4.2,0,4.2Z"/>
      <path class="st3" d="M756.8,52.5c.2-.7,1.6-5,1.9-5.8.2-.8,1.2-3.8,1.4-4.5h4.2l1.6,4.9,1.7,5.6h0c.2-.9,1.2-5.3,1.4-6.3l1.5-6.1h5.1l-5.3,19.1h-5l-1.6-5.1-1.6-5.1h0c-.3.7-1.4,4.5-1.6,5.3l-1.6,5h-4.9l-5.3-19.1h5.2l1.6,6.3,1.3,5.8h0Z"/>
      <path class="st3" d="M781.3,32.5c1.5,0,2.7,1.2,2.7,2.8s-1.2,2.7-2.7,2.7-2.7-1.2-2.7-2.7,1.1-2.8,2.7-2.8ZM778.8,59.5v-19h4.9v19h-4.9Z"/>
      <path class="st3" d="M787.4,44.4v-4h2.5l.9-4.8h3.9v4.8h4.6v4h-4.6v7.9c0,1.8.4,2.9,2.5,2.9s1.6,0,2.8-.4l.9,4.2c-1.6.6-3.6.7-4.8.7-5,0-6.2-2.8-6.2-6.8v-8.5h-2.5Z"/>
      <path class="st3" d="M814.7,59.5v-11.8c0-2.2-1.2-2.9-2.5-2.9s-2.6.5-4.5,1.7v12.9h-4.9v-27.5h4.9v10.3c2.8-1.8,4.6-2,5.9-2,4.3,0,6,2.8,6,6.9v12.4h-4.9Z"/>
      <path class="st2" d="M607.6,111.1c-7.9,0-15.2-4.3-15.2-12.8v-27.3h7.8v25.7c0,5.2,3.8,7.2,7.4,7.2s7.3-2,7.3-7.2v-25.7h7.9v27.1c0,8.6-7.4,13-15.2,13h0Z"/>
      <path class="st2" d="M637.6,88.1c2.2-2.5,4.4-5.1,6.4-7.7l7.8-9.4h9.3l-13.1,16,14.1,23.7h-9.3l-10-17.4c-1.9,2.1-3.7,4.3-5.5,6.4v11h-7.9v-39.6h7.9v17.1h.3Z"/>
      <path class="st2" d="M683.4,71c7.9,0,11.5,6.6,11.5,12.4s-2.4,8.9-6.5,11l7.1,16.2h-8.5c-1-2.5-5.1-12.4-6.2-14.9h-7.1v14.9h-7.9v-39.6h17.6ZM673.6,88.6h8c3.6,0,5.5-2.2,5.5-5.3s-2-5.3-5.5-5.3h-8v10.6Z"/>
      <path class="st2" d="M721.7,102.5h-13.8l-2.6,8.2h-8.4l13.9-39.7h8.1l13.8,39.7h-8.6l-2.4-8.2ZM710,95.9h9.5l-1.6-5.1-3.1-10.5h-.2l-3.1,10.3-1.5,5.3h0Z"/>
      <path class="st2" d="M745.7,71v39.7h-7.9v-39.7h7.9Z"/>
      <path class="st2" d="M761.6,85.7v25h-7.8v-39.7h7.1l9.2,13.6,7.6,11.5h.2v-25.1h7.9v39.7h-7.2l-10.1-15-6.6-10h-.3Z"/>
      <path class="st2" d="M792.6,71h27.4v7.1h-19.5v9.1h16.6v7.1h-16.6v9.4h19.5v7h-27.4v-39.7h0Z"/>
    </g>
  </g>
  <path class="st1" d="M100.3,10.9C76.4-8.4,38.7-1.3,16.2,26.7c-22.5,28-21.4,66.3,2.5,85.5,23.9,19.2,61.6,12.2,84.1-15.8s21.4-66.3-2.5-85.5M97.4,57.4c-.7,6.2-3.6,9.4-3.9,10.1-.3.6-.3,5.2-2.3,9.2-.5,2.8-1.7,5.7-3.1,8.1-.8,1.3-1.7,2.5-2.6,3.8-2.3,3-3.3,7.6-3.5,8.5-.3,1.1-1.4,7.6-1.5,9s-.2,2.8-.2,4.1h0c-1.6.9-2.4,1.4-3.9,2.1h0c0-1.1,0-19.4.3-20,.3-1.1.5-2.2.9-3.3,0-.4-.2-.7-.4-.4-1,1.7-1.7,3.8-2.1,5.7-.3,1.3-.4,2.6-.6,3.9-.4,3.1-.5,6.3-.6,9.5v5.7s0,0,0,.2c-1.1.4-2.5,1-3.7,1.4h0c-.2-1.9-1.6-8.5-1.9-10.6-.6-3.9-1.1-8-1.3-12,0-1-.2-1.8-.2-2.8s-.4-1-1-.8c-4.6,1.4-9.4.3-13.8,0-.3,0-.5,0-.6.4-.6,2.3-2.5,5.6-3.9,7.4-1,1.3-3.5,5.2-4.3,6.7-.3.5-.7,1.6-.8,2.1-.3,1.1,0,2.1.2,3.1l1.8,6c0,.2.2.5.4.5,1.1.6,2.8.8,3.4,2.1,0,.3,0,.7,0,1.1h0c-2.7,0-5.4-.5-7.7-.9h0c-.3-.9-.7-1.8-1-2.7-.6-1.8-1.2-3.6-1.7-5.5-.5-1.7-1.2-3.5-1.3-5.3,0-1,0-1.8.8-2.5.3-.4.7-.8,1-1.2,1.3-1.7,1.6-3.7,1.8-5.7,0-.8,0-1.7,0-2.5s0-.4-.2-.5c-.2,0-.3,0-.4.3-.4.5-.7,1-1.1,1.4-1.8,1.9-3.5,3.9-5.5,5.6-.8.7-1.3,1.1-1.9,2-.8,1.1-1.7,2.8-2.4,4-.8,1.3-1.1,2.3-1.1,3.8s0,2.4.3,4.3h0c-1.8-1-2.7-1.5-4.2-2.5h0c-.1-1.7-.4-3.6-.4-5.8s.2-1.3.4-1.9c.8-1.8,2.1-3.4,3.1-5.2,2.4-4.3,2.8-8.1,2.2-12.4,0,0-.6-3.1-.7-7.2,0-.3-.3-.4-.4,0-.4,1.2-.6,2.9-1.3,4.7-2.3,5.7-2.2,11.2-2.7,13.2-.8,3.5-.7,3.5-1.5,3.6-.3,0-.6-.4-.8-1.1-.9-2.4-5.2-8.6.3-22.2,4.6-11.5,9.5-16.5,18.6-18.1,4.1-.8,18-2.1,22.6-2.7,3.3-.4,5.8-1.5,7-3.6,2-3.4,4.5-7.7,5.6-9.6.2-.3,0-.9,0-1.3-1.3-4.3.6-10.5,1.4-10.4.7.1,4.5,5.7,4.8,5.3.2-.3,2.3-.5,4.5-.5s4.3.3,4.4.5c.3.4,4.1-5.2,4.8-5.3s2.6,6.1,1.3,10.4c0,.4-.2.8-.2,1.2,0,.8.2,1.5.4,2.2.4,1,1.7,7.2,1,13.4"/>
  <g>
    <path class="st1" d="M168,17.7c13.7,0,19,9.5,19,19.3s-7,19.3-19.5,19.3h-12.1v22.1h-14V17.7h26.6ZM155.5,43.7h10.3c5.2,0,7.3-3.1,7.3-6.8s-1.9-6.8-7.3-6.8h-10.3v13.6h0Z"/>
    <path class="st1" d="M214.8,79c-12.6,0-23.8-6.5-23.8-19.8v-22.8c0-13.3,12.3-19.3,23.8-19.3s23.8,6.4,23.8,19.7v22.4c0,13.3-11,19.8-23.8,19.8M206.3,0c3.8,0,6.9,3,6.9,6.8s-3.1,6.9-6.9,6.9-6.8-3.1-6.8-6.9,3-6.8,6.8-6.8M224.5,39.4c0-7-5.1-9.5-9.7-9.5s-9.8,2.6-9.8,9.5v17.2c0,7,5.2,9.5,9.8,9.5s9.7-2.6,9.7-9.5v-17.2ZM223.8,0c3.8,0,6.8,3,6.8,6.8s-3,6.9-6.8,6.9-6.9-3.1-6.9-6.9,3.2-6.8,6.9-6.8"/>
    <polygon class="st1" points="259.2 42.1 283.4 42.1 283.4 54.6 259.2 54.6 259.2 78.3 245.2 78.3 245.2 17.7 287.5 17.7 287.5 30.2 259.2 30.2 259.2 42.1"/>
    <polygon class="st1" points="307.7 42.1 331.9 42.1 331.9 54.6 307.7 54.6 307.7 78.3 293.7 78.3 293.7 17.7 336.1 17.7 336.1 30.2 307.7 30.2 307.7 42.1"/>
    <path class="st1" d="M372.5,52.7c-4.1,3.4-12.6,8.3-13.8,13.8h25.6v11.8h-39.3v-8.6c0-10.2,6.2-17.4,12.7-22.4,6.5-4.9,13.1-8.6,13.1-13.3s-2.2-5.2-7.1-5.2-7.9,1.2-11.3,4.3l-6.9-10.6c4.8-4.3,12-6.3,19.3-6.3s19.9,4.2,19.9,17.8-6.9,14.3-12.1,18.6"/>
    <path class="st1" d="M429.6,61.9c0,11.8-9.9,17.6-20.6,17.6s-14.2-2.1-19.1-6.5l7-10.7c4.1,3.5,8,4.4,11.7,4.4s7.6-2.1,7.6-6.5v-5.8c-5.2,2.4-7.6,2.8-10.6,2.8-9.6,0-16-7.7-16-17.3v-6c0-12.2,9.6-18.2,20-18.2s20,6.7,20,18.8v27.5h0ZM409.6,28.5c-3.2,0-6.6,2-6.6,6.7v3.7c0,4.2,2.6,5.5,4.5,5.5s5.1-.8,8.6-2.7v-6.5c0-5-3.4-6.7-6.6-6.7h.1Z"/>
  </g>
  <g class="st0">
    <path class="st1" d="M215.5,111.9h-4.6l7.9-19.4h-5.6v3.4h-4v-7.3h14.5v3.6l-8.2,19.7Z"/>
    <path class="st1" d="M227,105v-3.8h11.1v3.8h-11.1Z"/>
    <path class="st1" d="M251.5,101.9c-1.9,1.5-5.2,3.3-5.6,6.1h10.1v3.9h-14.6v-3.3c0-3.8,2.5-6.3,5.1-8.2,2.5-1.8,5.1-3.4,5.1-5.4s-1.6-2.5-3.3-2.5-3.2.6-4.5,1.7l-2.2-3.4c1.7-1.5,4.2-2.4,6.9-2.4s7.5,1.6,7.5,6.6-2.5,5.3-4.5,7Z"/>
    <path class="st1" d="M273.7,94.8c0,2.3-1.2,4.1-3,5,2,.9,3.1,2.9,3.1,5.1,0,5.1-4,7.3-7.6,7.3s-5.4-.9-7.1-2.4c.2-.2,2.1-3.1,2.3-3.4,1.3,1.1,3.1,1.7,4.6,1.7,2.2,0,3.5-1.1,3.5-3s-1.3-3.1-3.1-3.1h-2.8v-3.7h2.7c1.5,0,3-1.1,3-3s-1.8-2.7-3.2-2.7-3.2.6-4.5,1.7l-2.3-3.4c1.7-1.5,4.3-2.4,7.1-2.4s7.3,1.9,7.3,6.4Z"/>
    <path class="st1" d="M291,97.2v14.7h-4.6v-23.3h4.2l5.4,8,4.4,6.8h.1v-14.7h4.6v23.3h-4.2l-5.9-8.8-3.9-5.9h-.2Z"/>
    <path class="st1" d="M318,112.1c-4.9,0-9-2.7-9-7.7v-8.6c0-5,4.3-7.5,9-7.5s9,2.7,9,7.7v8.4c0,5-4.1,7.7-9,7.7ZM322.3,96.9c0-3-2.2-4.2-4.3-4.2s-4.3,1.2-4.3,4.2v6.8c0,3.1,2.2,4.2,4.3,4.2s4.3-1.1,4.3-4.2v-6.8Z"/>
    <path class="st1" d="M339.1,105.1l2.4-8.3,2.4-8.2h4.9l-7.4,23.3h-4.8l-7.5-23.3h5l2.5,8.4,2.3,8h.2Z"/>
    <path class="st1" d="M369.6,101.9c-1.9,1.5-5.2,3.3-5.6,6.1h10.1v3.9h-14.6v-3.3c0-3.8,2.5-6.3,5.1-8.2,2.5-1.8,5.1-3.4,5.1-5.4s-1.6-2.5-3.3-2.5-3.2.6-4.5,1.7l-2.2-3.4c1.7-1.5,4.2-2.4,6.9-2.4s7.5,1.6,7.5,6.6-2.5,5.3-4.5,7Z"/>
    <path class="st1" d="M384.8,112.1c-3.4,0-7.3-2-7.3-6.2v-11.2c0-4.2,4-6.3,7.3-6.3s7.3,2.1,7.3,6.3v11.2c0,4.2-4,6.2-7.3,6.2ZM387.9,95.5c0-2.2-1.6-3-3-3s-3,.8-3,3v9.5c0,2.2,1.6,3,3,3s3-.8,3-3v-9.5Z"/>
    <path class="st1" d="M405.7,101.9c-1.9,1.5-5.2,3.3-5.6,6.1h10.1v3.9h-14.6v-3.3c0-3.8,2.5-6.3,5.1-8.2,2.5-1.8,5.1-3.4,5.1-5.4s-1.6-2.5-3.3-2.5-3.2.6-4.5,1.7l-2.2-3.4c1.7-1.5,4.2-2.4,6.9-2.4s7.5,1.6,7.5,6.6-2.5,5.3-4.5,7Z"/>
    <path class="st1" d="M420.8,112.1c-2.8,0-5.2-.8-6.9-2.4l2.3-3.4c1.5,1.3,2.9,1.8,4.5,1.8s3.3-.7,3.3-2.9v-2.6c0-1.6-.8-2.3-2.1-2.3s-3.1,1.1-3.8,1.6l-3.9-1.5v-11.6h13.3v3.9h-9v4.6c1.3-.8,2.8-1.2,3.9-1.2,3.7,0,5.8,2.6,5.8,6.2v3.6c0,4.2-3.6,6.4-7.5,6.4Z"/>
  </g>
</svg>