<?xml version="1.0" encoding="utf-8"?>
<!-- Generator: Adobe Illustrator 24.2.3, SVG Export Plug-In . SVG Version: 6.00 Build 0)  -->
<svg version="1.1" id="Layer_1" xmlns="http://www.w3.org/2000/svg" xmlns:xlink="http://www.w3.org/1999/xlink" x="0px" y="0px"
	 viewBox="0 0 494 140" style="enable-background:new 0 0 494 140;" xml:space="preserve">
<style type="text/css">
	.st0{fill:#F79433;}
	.st1{fill:#FFFFFF;}
</style>
<g>
	<g>
		<path class="st1" d="M42,130.6c-0.4-1.4-0.9-2.9-1.3-4.3c-0.4-1.4-0.9-2.8-1-4.2c-0.1-1.1,0.2-2.1,0.9-3c0.4-0.5,0.8-0.9,1.2-1.4
			c1.5-2,1.9-4.4,2.2-6.8c0.1-1,0-2,0-3c0-0.2,0.1-0.5-0.2-0.6c-0.2-0.1-0.3,0.2-0.5,0.3c-0.4,0.6-0.8,1.1-1.3,1.6
			c-1.2,1.2-2.4,2.5-3.6,3.8c-0.9,1-1.9,2-2.9,2.8c-0.9,0.8-1.8,1.6-2.5,2.7c-0.9,1.5-1.8,3-2.7,4.5c-0.9,1.5-1.4,3-1.4,4.8
			c-0.1,1.4,0,2.7,0.3,4c0.1,0.2,0.1,0.5,0.2,0.7c4.6,2.4,9.6,4.2,15.1,5.3c-0.4-1.1-0.8-2.2-1.2-3.3C42.9,133.3,42.4,132,42,130.6"
			/>
		<path class="st1" d="M78,127c-0.3-1.5-0.5-3-0.8-4.5c-0.3-2.3-0.7-4.6-0.9-6.9c-0.2-2.4-0.6-4.8-0.7-7.3c0-1.1-0.3-2.2-0.3-3.4
			c-0.1-1-0.4-1.3-1.2-1c-1.3,0.5-2.7,0.6-4.1,1c-0.6,0.2-1.3,0.2-1.9,0.3c-1.8,0.5-3.6,0.5-5.4,0.7c-1.5,0.1-3,0.1-4.5,0.1
			c-0.3,0-0.6,0.1-0.7,0.5c-0.4,1.7-1.5,2.9-2.5,4.1c-0.8,0.9-1.5,1.9-2.3,2.8c-1.1,1.5-2.2,3.1-3.2,4.7c-0.8,1.2-1.7,2.3-2.1,3.8
			c-0.2,0.6-0.3,1.3-0.5,2c-0.3,1.2-0.3,2.4,0.1,3.7c0.2,0.8,0.5,1.6,0.7,2.5c0.4,1.6,1.1,3.2,1.5,4.8c0.1,0.2,0.2,0.4,0.3,0.4
			c0.6,0.2,1,0.5,1.6,0.7c1,0.4,1.9,1,2.4,2c0.2,0.4,0.2,0.8,0.1,1.1c0,0,0.1,0,0.1,0c8.4,0.3,16.7-1,24.7-3.7
			c0-1.7-0.1-3.5-0.1-5.3C78.3,129,78.2,128,78,127"/>
		<path class="st1" d="M82.3,1C46-0.5,10.2,29.2,2.3,67.3c-5.5,26.4,3.9,49.9,22.2,62.3c-0.1-0.6-0.1-1.1-0.2-1.7
			c-0.3-1.8-0.3-3.6-0.3-5.5c0-0.5,0.1-0.9,0.3-1.4c0.4-0.9,0.9-1.7,1.4-2.5c0.6-1.1,1.2-2.2,1.9-3.2c1-1.4,1.7-3,2.3-4.6
			c0.4-1.1,0.6-2.1,0.9-3.2c0.3-1.3,0.5-2.6,0.4-3.9c-0.1-1.3-0.2-2.5-0.4-3.8c0,0-0.9-4.1-0.9-9.6c-0.7,1.4-1.4,3.8-2,6.6
			c-1.4,5.8-2.6,13.2-3.1,15.5c-0.9,4.1-0.8,4.1-1.8,4.2c-0.4,0.1-0.8-0.4-1-1.3c-0.6-2.9-6.1-10.1,0.4-26.1
			c6.5-16,16.4-22,28.5-23.5c12.1-1.5,25.2,0.1,27.9-4.7c2.3-4,5.5-9.5,6.8-11.8c0.2-0.3,0-1-0.2-1.5c-1.5-5,0.8-12.3,1.6-12.2
			c0.8,0.1,5.3,6.7,5.7,6.2c0.2-0.3,2.7-0.6,5.2-0.6c2.5,0,5,0.3,5.2,0.6c0.3,0.5,4.9-6,5.7-6.2c0.8-0.1,3,7.2,1.6,12.2
			c-0.1,0.5-0.2,1-0.2,1.5c0,0.9,0.2,1.7,0.5,2.5c0.4,1.2,2,8.5,1.1,15.7c-0.8,7.3-4.2,11-4.5,11.8c-0.3,0.8-0.3,6.1-2.7,10.8
			c0,0.2-0.1,0.4-0.1,0.6c-0.3,1.5-0.8,3-1.4,4.4c-0.3,0.7-0.5,1.4-0.8,2c-0.4,0.8-0.8,1.7-1.3,2.5c-0.9,1.6-2,3-3.1,4.4
			c-0.9,1.1-1.9,2.3-2.3,3.8c-0.1,0.2-0.1,0.5-0.3,0.6c-0.6,0.6-0.8,1.4-0.9,2.2c-0.1,1.1-0.4,2.2-0.7,3.3c-0.3,1.3-0.4,2.6-0.8,3.8
			c-0.2,0.7-0.1,1.4-0.3,2.1c-0.4,1.5-0.5,3.1-0.7,4.7c-0.1,1.6-0.3,3.3-0.2,5c20.7-11.6,37.1-32.5,42.2-56.8
			C141.7,34.5,118.6,2.4,82.3,1"/>
		<path class="st1" d="M85.4,128.6c0-2.5,0.1-5,0.1-7.5c0-1.5,0.3-2.9,0.4-4.4c0.1-1.6,0.4-3.2,0.6-4.9c0.1-0.5,0.4-0.9,0.3-1.5
			c0-0.7,0.2-1.3,0.4-1.9c0.3-1.3,0.6-2.6,1.1-3.8c0.2-0.5,0.3-1,0.2-1.6c-0.3,0.5-0.5,0.8-0.7,1.2c-0.6,1-1,2-1.4,3.1
			c-0.4,1.2-0.8,2.3-1,3.5c-0.3,1.5-0.5,3-0.6,4.5c-0.1,1.3-0.3,2.5-0.4,3.8c-0.1,2.4-0.3,4.9-0.4,7.3c-0.1,2.3-0.3,4.5,0,6.8
			c0.4-0.2,0.9-0.4,1.3-0.6c-0.1-0.6-0.2-1.1-0.2-1.7C85.1,130.2,85.4,129.4,85.4,128.6"/>
	</g>
	<g>
		<g>
			<path class="st1" d="M194.6,32.2c15.1,0,21.1,10.5,21.1,21.4c0,10.8-7.8,21.4-21.6,21.4h-13.4v24.5h-15.5V32.2H194.6z
				 M180.8,61.1h11.4c5.8,0,8.1-3.4,8.1-7.5c0-4.1-2.1-7.5-8.1-7.5h-11.4V61.1z"/>
			<path class="st1" d="M249.7,100.1c-14,0-26.4-7.2-26.4-22V52.9c0-14.7,13.7-21.4,26.4-21.4c12.9,0,26.4,7.1,26.4,21.9v24.8
				C276,92.9,263.8,100.1,249.7,100.1z M240.3,12.6c4.2,0,7.6,3.3,7.6,7.5s-3.4,7.6-7.6,7.6c-4.2,0-7.5-3.4-7.5-7.6
				S236.1,12.6,240.3,12.6z M260.4,56.3c0-7.7-5.7-10.5-10.7-10.5c-5.1,0-10.8,2.8-10.8,10.5v19c0,7.7,5.8,10.5,10.8,10.5
				c5.1,0,10.7-2.8,10.7-10.5V56.3z M259.7,12.6c4.2,0,7.5,3.3,7.5,7.5s-3.3,7.6-7.5,7.6c-4.2,0-7.6-3.4-7.6-7.6
				S255.5,12.6,259.7,12.6z"/>
			<path class="st1" d="M300.4,59.3h26.8v13.8h-26.8v26.4h-15.5V32.2h47V46h-31.4V59.3z"/>
			<path class="st1" d="M354.7,59.3h26.8v13.8h-26.8v26.4h-15.5V32.2h47V46h-31.4V59.3z"/>
			<g>
				<path class="st1" d="M423.8,71.3c-4.5,3.7-13.8,9.1-15.2,15.2h28.2v13h-43.2V90c0-11.2,6.8-19.1,13.9-24.6
					c7.2-5.4,14.4-9.4,14.4-14.6c0-3.1-2.5-5.7-7.9-5.7c-4,0-8.7,1.4-12.5,4.7l-7.6-11.7c5.3-4.7,13.2-7,21.2-7
					c10.5,0,21.9,4.6,21.9,19.6C437.1,60,429.6,66.5,423.8,71.3z"/>
				<path class="st1" d="M487.9,90v9.4h-14.6V90h-27.7V78.5l21.3-46.7h15.4l-20.6,45.3h11.6V58.3h14.6v18.8h5.4V90H487.9z"/>
			</g>
		</g>
		<g>
			<path class="st1" d="M169.2,134.5v-14.8l-2,1.6l-2-2.6l4.3-3.7h3.3v19.5H169.2z"/>
			<path class="st1" d="M191.6,120.2c0,1.9-1,3.5-2.5,4.2c1.7,0.7,2.6,2.4,2.6,4.3c0,4.3-3.4,6.1-6.4,6.1c-2.3,0-4.5-0.7-5.9-2
				c0.1-0.2,1.7-2.6,1.9-2.9c1,0.9,2.6,1.4,3.8,1.4c1.8,0,2.9-1,2.9-2.6c0-1.5-1.1-2.6-2.6-2.6h-2.3V123h2.3c1.3,0,2.5-1,2.5-2.5
				c0-1.6-1.5-2.2-2.7-2.2c-1.2,0-2.7,0.5-3.8,1.4l-1.9-2.9c1.4-1.3,3.6-2,5.9-2C188.6,114.8,191.6,116.4,191.6,120.2z"/>
			<path class="st1" d="M203.1,128.8v-3.2h9.3v3.2H203.1z"/>
			<path class="st1" d="M232.1,126.2c-1.6,1.2-4.4,2.8-4.7,5.1h8.5v3.2h-12.2v-2.8c0-3.2,2.1-5.3,4.3-6.9c2.1-1.5,4.2-2.9,4.2-4.5
				c0-1.3-1.3-2.1-2.7-2.1c-1.3,0-2.7,0.5-3.7,1.4l-1.9-2.9c1.4-1.3,3.5-2,5.8-2c3.1,0,6.3,1.4,6.3,5.5
				C235.9,122.9,233.8,124.8,232.1,126.2z"/>
			<path class="st1" d="M251.6,129.3c0,3.6-3,5.4-6.2,5.4c-2.4,0-4.3-0.7-5.8-2l1.9-2.9c1.2,1.1,2.5,1.4,3.7,1.4
				c1.1,0,2.7-0.7,2.7-2.5v-2.3c-1.7,0.8-2.7,1.1-3.7,1.1c-3,0-4.9-2.2-4.9-5.3v-2c0-3.6,2.9-5.5,6.1-5.5c3.4,0,6.1,2,6.1,5.6V129.3
				z M245.5,118.2c-1.2,0-2.5,0.7-2.5,2.5v1.3c0,1.5,0.9,2,1.8,2c0.9,0,1.9-0.4,3.1-1.1v-2.3C247.9,118.9,246.6,118.2,245.5,118.2z"
				/>
			<path class="st1" d="M266.9,122.2v12.3h-3.9V115h3.5l4.5,6.7l3.7,5.7h0.1V115h3.9v19.5h-3.5l-5-7.4l-3.2-4.9H266.9z"/>
			<path class="st1" d="M290.1,134.7c-4.1,0-7.5-2.2-7.5-6.4v-7.2c0-4.2,3.6-6.3,7.5-6.3s7.5,2.3,7.5,6.4v7.1
				C297.7,132.5,294.3,134.7,290.1,134.7z M293.7,121.9c0-2.6-1.8-3.5-3.6-3.5c-1.8,0-3.6,1-3.6,3.5v5.7c0,2.6,1.8,3.5,3.6,3.5
				c1.8,0,3.6-1,3.6-3.5V121.9z"/>
			<path class="st1" d="M308.5,128.8l2-6.9l2-6.9h4.1l-6.2,19.5h-4l-6.3-19.5h4.2l2.1,7.1l2,6.7H308.5z"/>
			<path class="st1" d="M335.2,126.2c-1.6,1.2-4.4,2.8-4.7,5.1h8.5v3.2h-12.2v-2.8c0-3.2,2.1-5.3,4.3-6.9c2.1-1.5,4.2-2.9,4.2-4.5
				c0-1.3-1.3-2.1-2.7-2.1c-1.3,0-2.7,0.5-3.7,1.4l-1.9-2.9c1.4-1.3,3.5-2,5.8-2c3.1,0,6.3,1.4,6.3,5.5
				C339,122.9,336.9,124.8,335.2,126.2z"/>
			<path class="st1" d="M348.6,134.7c-2.8,0-6.1-1.6-6.1-5.2v-9.4c0-3.5,3.3-5.3,6.1-5.3c2.8,0,6.1,1.7,6.1,5.3v9.4
				C354.7,133,351.4,134.7,348.6,134.7z M351.1,120.8c0-1.8-1.3-2.5-2.5-2.5c-1.2,0-2.5,0.7-2.5,2.5v7.9c0,1.8,1.4,2.5,2.5,2.5
				c1.2,0,2.5-0.7,2.5-2.5V120.8z"/>
			<path class="st1" d="M366.7,126.2c-1.6,1.2-4.4,2.8-4.7,5.1h8.5v3.2h-12.2v-2.8c0-3.2,2.1-5.3,4.3-6.9c2.1-1.5,4.2-2.9,4.2-4.5
				c0-1.3-1.3-2.1-2.7-2.1c-1.3,0-2.7,0.5-3.7,1.4l-1.9-2.9c1.4-1.3,3.5-2,5.8-2c3.1,0,6.3,1.4,6.3,5.5
				C370.5,122.9,368.4,124.8,366.7,126.2z"/>
			<path class="st1" d="M380,134.7c-2.8,0-6.1-1.6-6.1-5.2v-9.4c0-3.5,3.3-5.3,6.1-5.3c2.8,0,6.1,1.7,6.1,5.3v9.4
				C386.2,133,382.9,134.7,380,134.7z M382.6,120.8c0-1.8-1.3-2.5-2.5-2.5c-1.2,0-2.5,0.7-2.5,2.5v7.9c0,1.8,1.4,2.5,2.5,2.5
				c1.2,0,2.5-0.7,2.5-2.5V120.8z"/>
		</g>
	</g>
</g>
</svg>
