<?xml version="1.0" encoding="utf-8"?>
<!-- Generator: Adobe Illustrator 27.2.0, SVG Export Plug-In . SVG Version: 6.00 Build 0)  -->
<svg version="1.1" id="Layer_1" xmlns="http://www.w3.org/2000/svg" xmlns:xlink="http://www.w3.org/1999/xlink" x="0px" y="0px"
	 viewBox="0 0 400 140" style="enable-background:new 0 0 400 140;" xml:space="preserve">
<style type="text/css">
	.st0{fill:#0066CC;}
	.st1{fill:#FFCC00;}
</style>
<g>
	<g>
		<path class="st0" d="M193.4,25.3c15.1,0,21.1,10.5,21.1,21.3s-7.8,21.3-21.5,21.3h-13.4v24.5h-15.5V25.3H193.4z M179.5,54.2h11.4
			c5.8,0,8.1-3.4,8.1-7.5s-2.1-7.5-8.1-7.5h-11.4V54.2z"/>
		<path class="st0" d="M248.4,93.1c-13.9,0-26.3-7.2-26.3-21.9V46c0-14.7,13.6-21.3,26.3-21.3c12.9,0,26.3,7.1,26.3,21.8v24.8
			C274.7,85.9,262.5,93.1,248.4,93.1z M239,5.8c4.2,0,7.6,3.3,7.6,7.5s-3.4,7.6-7.6,7.6c-4.2,0-7.5-3.4-7.5-7.6S234.8,5.8,239,5.8z
			 M259.1,49.4c0-7.7-5.7-10.5-10.7-10.5s-10.8,2.8-10.8,10.5v19c0,7.7,5.8,10.5,10.8,10.5s10.7-2.8,10.7-10.5V49.4z M258.4,5.8
			c4.2,0,7.5,3.3,7.5,7.5s-3.3,7.6-7.5,7.6c-4.2,0-7.6-3.4-7.6-7.6S254.2,5.8,258.4,5.8z"/>
		<path class="st0" d="M299,52.4h26.8v13.7H299v26.3h-15.5V25.3h46.9v13.8H299V52.4z"/>
		<path class="st0" d="M353.3,52.4h26.8v13.7h-26.8v26.3h-15.5V25.3h46.9v13.8h-31.4V52.4z"/>
	</g>
	<g>
		<g>
			<path class="st1" d="M41.3,130.6c-0.4-1.4-0.9-2.9-1.3-4.3c-0.4-1.4-0.9-2.8-1-4.2c-0.1-1.1,0.2-2.1,0.9-3
				c0.4-0.5,0.8-0.9,1.2-1.4c1.5-2,1.9-4.4,2.2-6.8c0.1-1,0-2,0-3c0-0.2,0.1-0.5-0.2-0.6c-0.2-0.1-0.3,0.2-0.5,0.3
				c-0.4,0.6-0.8,1.1-1.3,1.6c-1.2,1.2-2.4,2.5-3.6,3.8c-0.9,1-1.9,2-2.9,2.8c-0.9,0.8-1.8,1.6-2.5,2.7c-0.9,1.5-1.8,3-2.7,4.5
				c-0.9,1.5-1.4,3-1.4,4.8c-0.1,1.4,0,2.7,0.3,4c0.1,0.2,0.1,0.5,0.2,0.7c4.6,2.4,9.6,4.2,15.1,5.3c-0.4-1.1-0.8-2.2-1.2-3.3
				C42.2,133.3,41.7,132,41.3,130.6"/>
			<path class="st1" d="M77.3,127c-0.3-1.5-0.5-3-0.8-4.5c-0.3-2.3-0.7-4.6-0.9-6.9c-0.2-2.4-0.6-4.8-0.7-7.3c0-1.1-0.3-2.2-0.3-3.4
				c-0.1-1-0.4-1.3-1.2-1c-1.3,0.5-2.7,0.6-4.1,1c-0.6,0.2-1.3,0.2-1.9,0.3c-1.8,0.5-3.6,0.5-5.4,0.7c-1.5,0.1-3,0.1-4.5,0.1
				c-0.3,0-0.6,0.1-0.7,0.5c-0.4,1.7-1.5,2.9-2.5,4.1c-0.8,0.9-1.5,1.9-2.3,2.8c-1.1,1.5-2.2,3.1-3.2,4.7c-0.8,1.2-1.7,2.3-2.1,3.8
				c-0.2,0.6-0.3,1.3-0.5,2c-0.3,1.2-0.3,2.4,0.1,3.7c0.2,0.8,0.5,1.6,0.7,2.5c0.4,1.6,1.1,3.2,1.5,4.8c0.1,0.2,0.2,0.4,0.3,0.4
				c0.6,0.2,1,0.5,1.6,0.7c1,0.4,1.9,1,2.4,2c0.2,0.4,0.2,0.8,0.1,1.1H53c8.4,0.3,16.7-1,24.7-3.7c0-1.7-0.1-3.5-0.1-5.3
				C77.6,129,77.5,128,77.3,127"/>
			<g id="XMLID_00000000923332403705900570000009049652993627773064_">
				<path class="st1" d="M1,70h35.5c-6,3.6-11,9.6-14.9,19.1c-6.5,16-1,23.2-0.4,26.1c0.2,0.9,0.6,1.4,1,1.3c1-0.1,0.9-0.1,1.8-4.2
					c0.5-2.3,1.7-9.7,3.1-15.5c0.6-2.8,1.3-5.2,2-6.6c0,5.5,0.9,9.6,0.9,9.6c0.2,1.3,0.3,2.5,0.4,3.8s-0.1,2.6-0.4,3.9
					c-0.3,1.1-0.5,2.1-0.9,3.2c-0.6,1.6-1.3,3.2-2.3,4.6c-0.7,1-1.3,2.1-1.9,3.2c-0.5,0.8-1,1.6-1.4,2.5c-0.2,0.5-0.3,0.9-0.3,1.4
					c0,1.9,0,3.7,0.3,5.5c0.1,0.6,0.1,1.1,0.2,1.7C6.1,117.6-3.3,95.3,1,70z"/>
				<path class="st1" d="M110.6,70h23c-0.1,0.8-0.3,1.6-0.5,2.5c-5.1,24.3-21.5,45.2-42.2,56.8c-0.1-1.7,0.1-3.4,0.2-5
					c0.2-1.6,0.3-3.2,0.7-4.7c0.2-0.7,0.1-1.4,0.3-2.1c0.4-1.2,0.5-2.5,0.8-3.8c0.3-1.1,0.6-2.2,0.7-3.3c0.1-0.8,0.3-1.6,0.9-2.2
					c0.2-0.1,0.2-0.4,0.3-0.6c0.4-1.5,1.4-2.7,2.3-3.8c1.1-1.4,2.2-2.8,3.1-4.4c0.5-0.8,0.9-1.7,1.3-2.5c0.3-0.6,0.5-1.3,0.8-2
					c0.6-1.4,1.1-2.9,1.4-4.4c0-0.2,0.1-0.4,0.1-0.6c2.4-4.7,2.4-10,2.7-10.8C106.8,78.4,109.4,75.5,110.6,70z"/>
			</g>
			<path class="st1" d="M84.7,128.6c0-2.5,0.1-5,0.1-7.5c0-1.5,0.3-2.9,0.4-4.4c0.1-1.6,0.4-3.2,0.6-4.9c0.1-0.5,0.4-0.9,0.3-1.5
				c0-0.7,0.2-1.3,0.4-1.9c0.3-1.3,0.6-2.6,1.1-3.8c0.2-0.5,0.3-1,0.2-1.6c-0.3,0.5-0.5,0.8-0.7,1.2c-0.6,1-1,2-1.4,3.1
				c-0.4,1.2-0.8,2.3-1,3.5c-0.3,1.5-0.5,3-0.6,4.5c-0.1,1.3-0.3,2.5-0.4,3.8c-0.1,2.4-0.3,4.9-0.4,7.3c-0.1,2.3-0.3,4.5,0,6.8
				c0.4-0.2,0.9-0.4,1.3-0.6c-0.1-0.6-0.2-1.1-0.2-1.7C84.4,130.2,84.7,129.4,84.7,128.6"/>
		</g>
		<g id="XMLID_00000036231266145407179990000001628130508106350507_">
			<path class="st0" d="M1.6,67.3C9.5,29.2,45.3-0.5,81.6,1c35.5,1.4,58.4,32.1,52.1,69h-23c0.2-0.8,0.3-1.8,0.4-2.7
				c0.9-7.2-0.7-14.5-1.1-15.7c-0.3-0.8-0.5-1.6-0.5-2.5c0-0.5,0.1-1,0.2-1.5c1.4-5-0.8-12.3-1.6-12.2c-0.8,0.2-5.4,6.7-5.7,6.2
				c-0.2-0.3-2.7-0.6-5.2-0.6s-5,0.3-5.2,0.6c-0.4,0.5-4.9-6.1-5.7-6.2c-0.8-0.1-3.1,7.2-1.6,12.2c0.2,0.5,0.4,1.2,0.2,1.5
				c-1.3,2.3-4.5,7.8-6.8,11.8c-2.7,4.8-15.8,3.2-27.9,4.7c-4.9,0.6-9.5,2-13.6,4.4H1C1.2,69.1,1.4,68.2,1.6,67.3z"/>
		</g>
	</g>
	<g>
		<path class="st0" d="M177.7,113.1c0,2-0.9,3.7-2.5,4.5c1.9,0.8,2.9,2.9,2.9,4.8c0,4.5-3.7,6.4-7,6.4c-3.6,0-7-1.9-7-6.3
			c0-2.2,1.4-4.2,3-5c-1.6-0.7-2.5-2.4-2.5-4.5c0-4.2,3.4-6.2,6.5-6.2C174.4,106.8,177.7,108.9,177.7,113.1z M167.7,122.5
			c0,2,1.4,3.2,3.5,3.2c2,0,3.5-1.2,3.5-3.2c0-1.9-1.6-3.1-3.5-3.1C169.3,119.3,167.7,120.6,167.7,122.5z M171.1,110
			c-1.6,0-3.2,1.1-3.2,3.1s1.6,3.1,3.2,3.1s3.2-1.2,3.2-3.1S172.8,110,171.1,110z"/>
		<path class="st0" d="M188.7,122.3v-3.6H199v3.6H188.7z"/>
		<path class="st0" d="M219.5,119.4c-1.7,1.4-4.8,3.1-5.2,5.7h9.4v3.6h-13.6v-3.1c0-3.5,2.3-5.9,4.7-7.7c2.4-1.7,4.7-3.2,4.7-5
			c0-1.4-1.5-2.3-3.1-2.3c-1.4,0-3,0.5-4.2,1.6l-2.1-3.2c1.6-1.4,3.9-2.2,6.4-2.2c3.4,0,7,1.5,7,6.1
			C223.7,115.7,221.4,117.9,219.5,119.4z"/>
		<path class="st0" d="M239.5,125.6v3.1h-4.1v-3.1h-9.1v-3.2l6.9-15.3h4.2l-6.7,15h4.6v-6.2h4.1v6.2h1.8v3.6L239.5,125.6
			L239.5,125.6z"/>
		<path class="st0" d="M256.2,115.1v13.6H252V107h3.9l5,7.4l4.1,6.3h0.1V107h4.3v21.7h-3.9l-5.5-8.2l-3.6-5.5L256.2,115.1
			L256.2,115.1z"/>
		<path class="st0" d="M281.3,128.9c-4.6,0-8.3-2.5-8.3-7.1v-8c0-4.6,4-7,8.3-7s8.3,2.5,8.3,7.1v7.8
			C289.7,126.4,285.9,128.9,281.3,128.9z M285.3,114.7c0-2.8-2-3.9-4-3.9s-4,1.1-4,3.9v6.3c0,2.9,2,3.9,4,3.9s4-1.1,4-3.9V114.7z"/>
		<path class="st0" d="M301,122.3l2.2-7.7l2.3-7.6h4.5l-6.9,21.7h-4.5l-7-21.7h4.6l2.4,7.8l2.2,7.5L301,122.3L301,122.3z"/>
		<path class="st0" d="M329.4,119.4c-1.7,1.4-4.8,3.1-5.2,5.7h9.4v3.6H320v-3.1c0-3.5,2.3-5.9,4.7-7.7c2.4-1.7,4.7-3.2,4.7-5
			c0-1.4-1.5-2.3-3.1-2.3c-1.4,0-3,0.5-4.2,1.6L320,109c1.6-1.4,3.9-2.2,6.4-2.2c3.4,0,7,1.5,7,6.1
			C333.6,115.7,331.3,117.9,329.4,119.4z"/>
		<path class="st0" d="M343.6,128.9c-3.1,0-6.8-1.8-6.8-5.8v-10.4c0-3.9,3.7-5.8,6.8-5.8c3.1,0,6.8,1.9,6.8,5.8v10.4
			C350.4,127,346.7,128.9,343.6,128.9z M346.4,113.5c0-2-1.5-2.8-2.8-2.8s-2.8,0.8-2.8,2.8v8.8c0,2,1.5,2.8,2.8,2.8s2.8-0.8,2.8-2.8
			V113.5z"/>
		<path class="st0" d="M363,119.4c-1.7,1.4-4.8,3.1-5.2,5.7h9.4v3.6h-13.6v-3.1c0-3.5,2.3-5.9,4.7-7.7c2.4-1.7,4.7-3.2,4.7-5
			c0-1.4-1.5-2.3-3.1-2.3c-1.4,0-3,0.5-4.2,1.6l-2.1-3.2c1.6-1.4,3.9-2.2,6.4-2.2c3.4,0,7,1.5,7,6.1
			C367.2,115.7,364.9,117.9,363,119.4z"/>
		<path class="st0" d="M382.9,125.6v3.1h-4.1v-3.1h-9.1v-3.2l6.9-15.3h4.2l-6.7,15h4.6v-6.2h4.1v6.2h1.8v3.6L382.9,125.6
			L382.9,125.6z"/>
	</g>
</g>
</svg>
