<?xml version="1.0" encoding="utf-8"?>
<!-- Generator: Adobe Illustrator 25.2.0, SVG Export Plug-In . SVG Version: 6.00 Build 0)  -->
<svg version="1.1" id="Layer_1" xmlns="http://www.w3.org/2000/svg" xmlns:xlink="http://www.w3.org/1999/xlink" x="0px" y="0px"
	 viewBox="0 0 1100 140" style="enable-background:new 0 0 1100 140;" xml:space="preserve">
<style type="text/css">
	.st0{fill:#29333A;}
	.st1{fill:#F79433;}
	.st2{fill:#0019AF;}
</style>
<g>
	<g>
		<path class="st0" d="M41.2,131.6c-0.4-1.4-0.9-2.9-1.3-4.3c-0.4-1.4-0.9-2.8-1-4.2c-0.1-1.1,0.2-2.1,0.9-3
			c0.4-0.5,0.8-0.9,1.2-1.4c1.5-2,1.9-4.4,2.2-6.8c0.1-1,0-2,0-3c0-0.2,0.1-0.5-0.2-0.6c-0.2-0.1-0.3,0.2-0.5,0.3
			c-0.4,0.6-0.8,1.1-1.3,1.6c-1.2,1.2-2.4,2.5-3.6,3.8c-0.9,1-1.9,2-2.9,2.8c-0.9,0.8-1.8,1.6-2.5,2.7c-0.9,1.5-1.8,3-2.7,4.5
			s-1.4,3-1.4,4.8c-0.1,1.4,0,2.7,0.3,4c0.1,0.2,0.1,0.5,0.2,0.7c4.6,2.4,9.6,4.2,15.1,5.3c-0.4-1.1-0.8-2.2-1.2-3.3
			C42.1,134.3,41.6,133,41.2,131.6"/>
		<path class="st0" d="M77.1,128c-0.3-1.5-0.5-3-0.8-4.5c-0.3-2.3-0.7-4.6-0.9-6.9c-0.2-2.4-0.6-4.8-0.7-7.3c0-1.1-0.3-2.2-0.3-3.4
			c-0.1-1-0.4-1.3-1.2-1c-1.3,0.5-2.7,0.6-4.1,1c-0.6,0.2-1.3,0.2-1.9,0.3c-1.8,0.5-3.6,0.5-5.4,0.7c-1.5,0.1-3,0.1-4.5,0.1
			c-0.3,0-0.6,0.1-0.7,0.5c-0.4,1.7-1.5,2.9-2.5,4.1c-0.8,0.9-1.5,1.9-2.3,2.8c-1.1,1.5-2.2,3.1-3.2,4.7c-0.8,1.2-1.7,2.3-2.1,3.8
			c-0.2,0.6-0.3,1.3-0.5,2c-0.3,1.2-0.3,2.4,0.1,3.7c0.2,0.8,0.5,1.6,0.7,2.5c0.4,1.6,1.1,3.2,1.5,4.8c0.1,0.2,0.2,0.4,0.3,0.4
			c0.6,0.2,1,0.5,1.6,0.7c1,0.4,1.9,1,2.4,2c0.2,0.4,0.2,0.8,0.1,1.1h0.1c8.4,0.3,16.7-1,24.7-3.7c0-1.7-0.1-3.5-0.1-5.3
			C77.4,130,77.3,129,77.1,128"/>
		<path class="st0" d="M81.4,2.2C45.2,0.7,9.4,30.4,1.6,68.4c-5.5,26.3,3.9,49.8,22.2,62.2c-0.1-0.6-0.1-1.1-0.2-1.7
			c-0.3-1.8-0.3-3.6-0.3-5.5c0-0.5,0.1-0.9,0.3-1.4c0.4-0.9,0.9-1.7,1.4-2.5c0.6-1.1,1.2-2.2,1.9-3.2c1-1.4,1.7-3,2.3-4.6
			c0.4-1.1,0.6-2.1,0.9-3.2c0.3-1.3,0.5-2.6,0.4-3.9c-0.1-1.3-0.2-2.5-0.4-3.8c0,0-0.9-4.1-0.9-9.6c-0.7,1.4-1.4,3.8-2,6.6
			c-1.4,5.8-2.6,13.2-3.1,15.5c-0.9,4.1-0.8,4.1-1.8,4.2c-0.4,0.1-0.8-0.4-1-1.3c-0.6-2.9-6.1-10.1,0.4-26s16.4-22,28.4-23.5
			s25.2,0.1,27.8-4.7c2.3-4,5.5-9.5,6.8-11.8c0.2-0.3,0-1-0.2-1.5c-1.5-5,0.8-12.3,1.6-12.2c0.8,0.1,5.3,6.7,5.7,6.2
			c0.2-0.3,2.7-0.6,5.2-0.6s5,0.3,5.2,0.6c0.3,0.5,4.9-6,5.7-6.2c0.8-0.1,3,7.2,1.6,12.2c-0.1,0.5-0.2,1-0.2,1.5
			c0,0.9,0.2,1.7,0.5,2.5c0.4,1.2,2,8.5,1.1,15.7c-0.8,7.3-4.2,11-4.5,11.8s-0.3,6.1-2.7,10.8c0,0.2-0.1,0.4-0.1,0.6
			c-0.3,1.5-0.8,3-1.4,4.4c-0.3,0.7-0.5,1.4-0.8,2c-0.4,0.8-0.8,1.7-1.3,2.5c-0.9,1.6-2,3-3.1,4.4c-0.9,1.1-1.9,2.3-2.3,3.8
			c-0.1,0.2-0.1,0.5-0.3,0.6c-0.6,0.6-0.8,1.4-0.9,2.2c-0.1,1.1-0.4,2.2-0.7,3.3c-0.3,1.3-0.4,2.6-0.8,3.8c-0.2,0.7-0.1,1.4-0.3,2.1
			c-0.4,1.5-0.5,3.1-0.7,4.7c-0.1,1.6-0.3,3.3-0.2,5c20.7-11.6,37-32.4,42.1-56.7C140.7,35.7,117.6,3.6,81.4,2.2"/>
		<path class="st0" d="M84.5,129.6c0-2.5,0.1-5,0.1-7.5c0-1.5,0.3-2.9,0.4-4.4c0.1-1.6,0.4-3.2,0.6-4.9c0.1-0.5,0.4-0.9,0.3-1.5
			c0-0.7,0.2-1.3,0.4-1.9c0.3-1.3,0.6-2.6,1.1-3.8c0.2-0.5,0.3-1,0.2-1.6c-0.3,0.5-0.5,0.8-0.7,1.2c-0.6,1-1,2-1.4,3.1
			c-0.4,1.2-0.8,2.3-1,3.5c-0.3,1.5-0.5,3-0.6,4.5c-0.1,1.3-0.3,2.5-0.4,3.8c-0.1,2.4-0.3,4.9-0.4,7.3c-0.1,2.3-0.3,4.5,0,6.8
			c0.4-0.2,0.9-0.4,1.3-0.6c-0.1-0.6-0.2-1.1-0.2-1.7C84.2,131.1,84.5,130.3,84.5,129.6"/>
	</g>
	<g>
		<path class="st0" d="M193.5,33.3c15.1,0,21.1,10.5,21.1,21.3c0,10.8-7.8,21.3-21.5,21.3h-13.4v24.5h-15.5V33.3H193.5z M179.6,62.2
			H191c5.8,0,8.1-3.4,8.1-7.5c0-4.1-2.1-7.5-8.1-7.5h-11.4V62.2z"/>
		<path class="st0" d="M248.5,101.1c-13.9,0-26.3-7.2-26.3-21.9V54c0-14.7,13.6-21.3,26.3-21.3c12.9,0,26.3,7.1,26.3,21.8v24.8
			C274.8,93.9,262.6,101.1,248.5,101.1z M239.1,13.8c4.2,0,7.6,3.3,7.6,7.5s-3.4,7.6-7.6,7.6c-4.2,0-7.5-3.4-7.5-7.6
			S234.9,13.8,239.1,13.8z M259.2,57.4c0-7.7-5.7-10.5-10.7-10.5s-10.8,2.8-10.8,10.5v19c0,7.7,5.8,10.5,10.8,10.5
			s10.7-2.8,10.7-10.5V57.4z M258.5,13.8c4.2,0,7.5,3.3,7.5,7.5s-3.3,7.6-7.5,7.6c-4.2,0-7.6-3.4-7.6-7.6S254.3,13.8,258.5,13.8z"/>
		<path class="st0" d="M299.1,60.4h26.8v13.7h-26.8v26.3h-15.5V33.3h46.9v13.8h-31.4V60.4z"/>
		<path class="st0" d="M353.4,60.4h26.8v13.7h-26.8v26.3h-15.5V33.3h46.9v13.8h-31.4V60.4z"/>
		<g>
			<path class="st0" d="M422.1,72.1c-4.5,3.7-13.7,9-15.1,15.1h27.9V100h-42.8v-9.3c0-11.1,6.7-19,13.8-24.4
				c7.1-5.4,14.3-9.3,14.3-14.5c0-3.1-2.4-5.6-7.8-5.6c-4,0-8.7,1.4-12.4,4.7l-7.5-11.6c5.3-4.7,13.1-6.9,21-6.9
				c10.4,0,21.7,4.6,21.7,19.5C435.3,60.9,427.8,67.3,422.1,72.1z"/>
			<path class="st0" d="M467,100.5c-7.9,0-15.2-2.2-20.4-6.9l7.5-11.5c4.3,3.7,8.5,4.7,12.5,4.7c3.8,0,8.1-2.2,8.1-6.9v-6.9
				c0-3.7-1.8-5.4-4.8-5.4c-3.3,0-8,2.9-9.2,3.9l-12.8-5.1V32.9h39v12.8h-24.6V56c3-1.7,7.1-2.8,9.9-2.8c10.9,0,16.9,7.9,16.9,18.3
				v10.2C489,94.3,478.4,100.5,467,100.5z"/>
		</g>
	</g>
	<g>
		<path class="st1" d="M168.1,135.6v-15l-2,1.7l-2-2.6l4.3-3.8h3.3v19.7H168.1z"/>
		<path class="st1" d="M186.8,127.2c-1.6,1.3-4.4,2.8-4.7,5.2h8.5v3.3h-12.3v-2.8c0-3.2,2.1-5.3,4.3-7c2.1-1.5,4.3-2.9,4.3-4.5
			c0-1.3-1.3-2.1-2.8-2.1c-1.3,0-2.7,0.5-3.8,1.4l-1.9-2.9c1.5-1.3,3.5-2,5.8-2c3.1,0,6.3,1.4,6.3,5.5
			C190.6,123.8,188.5,125.8,186.8,127.2z"/>
		<path class="st1" d="M202,129.8v-3.2h9.3v3.2H202z"/>
		<path class="st1" d="M231,127.2c-1.6,1.3-4.4,2.8-4.7,5.2h8.5v3.3h-12.3v-2.8c0-3.2,2.1-5.3,4.3-7c2.1-1.5,4.3-2.9,4.3-4.5
			c0-1.3-1.3-2.1-2.8-2.1c-1.3,0-2.7,0.5-3.8,1.4l-1.9-2.9c1.5-1.3,3.5-2,5.8-2c3.1,0,6.3,1.4,6.3,5.5
			C234.9,123.8,232.8,125.8,231,127.2z"/>
		<path class="st1" d="M250,121.4c0,1.8-0.9,3.4-2.3,4.1c1.8,0.8,2.7,2.6,2.7,4.4c0,4.1-3.4,5.9-6.4,5.9c-3.3,0-6.3-1.7-6.3-5.7
			c0-2,1.3-3.9,2.7-4.5c-1.5-0.6-2.3-2.2-2.3-4.1c0-3.8,3.1-5.6,5.9-5.6C247,115.7,250,117.6,250,121.4z M240.9,130
			c0,1.8,1.3,2.9,3.1,2.9c1.8,0,3.1-1.1,3.1-2.9c0-1.7-1.5-2.9-3.1-2.9C242.4,127.1,240.9,128.2,240.9,130z M244,118.7
			c-1.5,0-2.9,1-2.9,2.8c0,1.8,1.4,2.8,2.9,2.8c1.5,0,2.9-1.1,2.9-2.8C246.9,119.7,245.6,118.7,244,118.7z"/>
		<g>
			<path class="st1" d="M265.6,123.2v12.4h-3.9v-19.7h3.5l4.6,6.7l3.7,5.7h0.1v-12.4h3.9v19.7h-3.6l-5-7.4l-3.3-5H265.6z"/>
			<path class="st1" d="M288.4,135.8c-4.1,0-7.6-2.3-7.6-6.5v-7.2c0-4.2,3.7-6.4,7.6-6.4s7.6,2.3,7.6,6.5v7.1
				C296,133.5,292.5,135.8,288.4,135.8z M292,122.9c0-2.6-1.8-3.6-3.6-3.6c-1.8,0-3.7,1-3.7,3.6v5.7c0,2.6,1.8,3.6,3.7,3.6
				c1.8,0,3.6-1,3.6-3.6V122.9z"/>
			<path class="st1" d="M306.3,129.8l2-7l2.1-6.9h4.1l-6.3,19.7h-4.1l-6.3-19.7h4.2l2.1,7.1l2,6.8H306.3z"/>
			<path class="st1" d="M332,127.2c-1.6,1.3-4.4,2.8-4.7,5.2h8.5v3.3h-12.3v-2.8c0-3.2,2.1-5.3,4.3-7c2.1-1.5,4.3-2.9,4.3-4.5
				c0-1.3-1.3-2.1-2.8-2.1c-1.3,0-2.7,0.5-3.8,1.4l-1.9-2.9c1.5-1.3,3.5-2,5.8-2c3.1,0,6.3,1.4,6.3,5.5
				C335.8,123.8,333.7,125.8,332,127.2z"/>
			<path class="st1" d="M344.9,135.7c-2.9,0-6.2-1.7-6.2-5.2V121c0-3.6,3.4-5.3,6.2-5.3c2.9,0,6.2,1.7,6.2,5.3v9.5
				C351.1,134.1,347.7,135.7,344.9,135.7z M347.4,121.8c0-1.9-1.3-2.5-2.5-2.5c-1.2,0-2.5,0.7-2.5,2.5v8c0,1.8,1.4,2.5,2.5,2.5
				c1.2,0,2.5-0.7,2.5-2.5V121.8z"/>
			<path class="st1" d="M362.5,127.2c-1.6,1.3-4.4,2.8-4.7,5.2h8.5v3.3H354v-2.8c0-3.2,2.1-5.3,4.3-7c2.1-1.5,4.3-2.9,4.3-4.5
				c0-1.3-1.3-2.1-2.8-2.1c-1.3,0-2.7,0.5-3.8,1.4l-1.9-2.9c1.5-1.3,3.5-2,5.8-2c3.1,0,6.3,1.4,6.3,5.5
				C366.3,123.8,364.2,125.8,362.5,127.2z"/>
			<path class="st1" d="M374.4,135.6v-15l-2,1.7l-2-2.6l4.3-3.8h3.3v19.7H374.4z"/>
		</g>
	</g>
	<g>
		<path class="st0" d="M831.1,61c-1.4,0-2.9,0.1-4.1,0.3v15.1c1.1,0.1,2.5,0.3,3.7,0.3c6,0,9.2-3.4,9.2-8.1
			C839.9,64.6,836.9,61,831.1,61 M830.6,78.7c-1.1,0-2.6-0.1-3.7-0.2v10.6h-2.3V59.4c2-0.2,4-0.4,6.1-0.4c7.7,0,11.5,4.4,11.5,9.5
			C842.3,74.5,838,78.7,830.6,78.7"/>
		<path class="st0" d="M863.3,55.6c-1,0-1.8-0.8-1.8-1.7s0.8-1.8,1.8-1.8c0.9,0,1.7,0.8,1.7,1.8C865,54.9,864.3,55.6,863.3,55.6
			 M856.4,55.6c-0.9,0-1.7-0.8-1.7-1.7s0.8-1.8,1.7-1.8c0.9,0,1.7,0.8,1.7,1.8C858.1,54.9,857.3,55.6,856.4,55.6 M859.9,60.9
			c-7.2,0-12.3,5.8-12.3,13.3c0,7.5,5.1,13.3,12.3,13.3c7.2,0,12.3-5.8,12.3-13.3C872.2,66.6,867,60.9,859.9,60.9 M859.8,89.5
			c-8.2,0-14.7-6.5-14.7-15.3s6.6-15.4,14.9-15.4c8.2,0,14.7,6.6,14.7,15.4S868,89.5,859.8,89.5"/>
		<polygon class="st0" points="881.8,61.3 881.8,73.4 895,73.4 895,75.5 881.8,75.5 881.8,89.1 879.5,89.1 879.5,59.2 896.4,59.2 
			896.4,61.3 		"/>
		<polygon class="st0" points="902.9,61.3 902.9,73.4 916.1,73.4 916.1,75.5 902.9,75.5 902.9,89.1 900.6,89.1 900.6,59.2 
			917.5,59.2 917.5,61.3 		"/>
		<path class="st0" d="M920.1,72h2.3v17h-2.3V72z M921.3,67.4c-0.9,0-1.6-0.7-1.6-1.6c0-0.9,0.7-1.7,1.6-1.7c0.9,0,1.6,0.8,1.6,1.7
			C922.9,66.6,922.2,67.4,921.3,67.4"/>
		<path class="st0" d="M942.2,73.7c-2.4,0-4.3,1-5.6,2.6v9c1.3,1.3,3.3,2.3,5.5,2.3c3.6,0,6.3-2.8,6.3-6.9
			C948.4,76.7,945.8,73.7,942.2,73.7 M942.1,89.4c-2.1,0-4-0.7-5.5-1.8v10.2h-2.2V72h2.2v2.1c1.4-1.3,3.4-2.4,6-2.4
			c4.6,0,8.1,3.7,8.1,8.8C950.6,85.6,947,89.4,942.1,89.4"/>
		<path class="st0" d="M966.4,79.3c-0.2-3.1-1.9-5.6-5.4-5.6c-3.3,0-5.3,2.2-5.6,5.6H966.4L966.4,79.3z M968.5,81h-13.2
			c0.2,3.6,2.3,6.4,7,6.4c1.6,0,3.3-0.4,4.8-1c0,0,0.4,2,0.4,1.9c-1.7,0.7-3.7,1.1-5.4,1.1c-6,0-9.1-3.9-9.1-8.8
			c0-4.8,3.1-8.9,8.1-8.9c4.8,0,7.4,3.6,7.4,8.2C968.5,80.3,968.5,80.6,968.5,81"/>
		<path class="st0" d="M982.2,81.9c-1.7-0.9-3-1.4-4.9-1.4c-2.6,0-4.5,1.2-4.5,3.5c0,2.3,1.8,3.5,4.6,3.5c2,0,3.7-0.9,4.8-2.2V81.9z
			 M982.3,89.1v-1.8c-1.3,1.3-3.2,2.2-5.4,2.2c-3.5,0-6.3-1.9-6.3-5.3c0-3.2,2.8-5.3,6.3-5.3c2.2,0,3.7,0.6,5.2,1.3v-1.5
			c0-3.2-1.4-4.8-4.9-4.8c-1.4,0-3.1,0.4-4.4,0.9l-0.4-2c1.5-0.6,3.6-1,5.1-1c4.8,0,6.9,2.3,6.9,6.8v10.6L982.3,89.1L982.3,89.1
			L982.3,89.1z"/>
		<path class="st0" d="M993,89.4c-2.3,0-4.2-0.9-6-2.1l1.1-1.6c1.4,1.1,3.1,1.9,4.8,1.9c2.2,0,3.5-1.2,3.5-2.9
			c0-4.1-8.4-2.8-8.4-8.2c0-2.4,2-4.7,5.5-4.7c1.8,0,3.5,0.7,4.9,1.6l-1,1.7c-1.3-0.9-2.5-1.5-4-1.5c-2.3,0-3.3,1.2-3.3,2.6
			c0,3.9,8.4,2.6,8.4,8.1C998.4,87,996.2,89.4,993,89.4"/>
		<path class="st0" d="M1009.5,73.7c-2.4,0-4.3,1-5.6,2.6v9c1.3,1.3,3.3,2.3,5.5,2.3c3.6,0,6.3-2.8,6.3-6.9
			C1015.7,76.7,1013.2,73.7,1009.5,73.7 M1009.5,89.4c-2.1,0-4-0.7-5.5-1.8v10.2h-2.2V72h2.2v2.1c1.4-1.3,3.4-2.4,6-2.4
			c4.6,0,8.1,3.7,8.1,8.8C1018,85.6,1014.4,89.4,1009.5,89.4"/>
		<path class="st0" d="M1028.9,73.6c-3.7,0-6.2,2.9-6.2,6.9c0,4,2.5,6.9,6.2,6.9s6.2-2.9,6.2-6.9
			C1035.1,76.5,1032.6,73.6,1028.9,73.6 M1028.9,89.4c-5,0-8.4-3.9-8.4-8.8c0-4.9,3.5-8.8,8.5-8.8c5,0,8.4,3.9,8.4,8.8
			C1037.4,85.4,1033.9,89.4,1028.9,89.4"/>
		<path class="st0" d="M1052.7,89.1v-11c0-2.8-1.2-4.4-3.9-4.4c-2.2,0-4.3,1.5-5.9,3.3v12.1h-2.2v-17h2.2V75c1.7-1.8,4-3.3,6.5-3.3
			c3.9,0,5.7,2.5,5.7,5.9v11.5L1052.7,89.1L1052.7,89.1z"/>
		<path class="st0" d="M1063.6,89.4c-2.3,0-4.2-0.9-6-2.1l1.1-1.6c1.4,1.1,3.1,1.9,4.8,1.9c2.2,0,3.5-1.2,3.5-2.9
			c0-4.1-8.4-2.8-8.4-8.2c0-2.4,2-4.7,5.5-4.7c1.8,0,3.5,0.7,4.9,1.6l-1,1.7c-1.3-0.9-2.5-1.5-3.9-1.5c-2.3,0-3.3,1.2-3.3,2.6
			c0,3.9,8.4,2.6,8.4,8.1C1069,87,1066.9,89.4,1063.6,89.4"/>
		<path class="st0" d="M1079.9,73.6c-3.7,0-6.2,2.9-6.2,6.9c0,4,2.5,6.9,6.2,6.9c3.7,0,6.2-2.9,6.2-6.9
			C1086.1,76.5,1083.6,73.6,1079.9,73.6 M1079.9,89.4c-5,0-8.4-3.9-8.4-8.8c0-4.9,3.5-8.8,8.5-8.8c5,0,8.4,3.9,8.4,8.8
			C1088.4,85.4,1084.9,89.4,1079.9,89.4"/>
		<path class="st0" d="M1093.9,77.4v11.7h-2.2V72h2.2v3.2c1.5-2.2,3.8-3.6,6.2-3.6v2.2C1097.6,74,1095.2,75.1,1093.9,77.4"/>
	</g>
	<path class="st2" d="M798.4,49.5c0-1.2,1-2.1,2.2-2.1c1.2,0,2.1,1,2.1,2.1V102c0,1.2-1,2.1-2.1,2.1s-2.2-1-2.2-2.1V49.5z"/>
	<path class="st2" d="M666.9,51c0,2.6,0.2,6.5,0.6,10.5c0.2,2,0.5,3.3,0.6,3.9c0.1,0.3,0.2,0.3,0.2,0.3c0.1,0,0.1,0,0.3-0.2
		c0.6-0.6,1.3-2.6,1.8-3.8c1.7-4,2.8-8.4,3.5-13.1c0.1-0.6,0.8-5.6-0.7-7.7c-0.4-0.5-0.9-1.1-1.5-1.1c-0.1,0-0.2,0-0.4,0
		c-1.2,0-4,0.9-4.2,7.5C667,47.1,666.9,50.2,666.9,51z M639.3,62.7c-2.6,0-4.9,1-5,1.1c-4.5,1.9-7.7,5-9.2,9c0,0.1-0.7,1.7-0.3,2.3
		c0.3,0.4,1,0.4,1.8,0.4h0.1c7.7-0.2,13.4-0.9,16-4.2c0.1-0.1,2.3-2.7,2.1-5.1c-0.1-0.9-0.6-1.7-1.3-2.3
		C642.2,63.1,640.9,62.7,639.3,62.7z M757.7,79.2c-8.6,0.2-13.1,1.3-15.5,3.8c-1.1,1.1-1.7,2.5-1.9,4.2c0,0.1-0.2,1.7,0.8,2.9
		c0.7,0.8,1.6,1.3,2.9,1.4c0,0,0.1,0,0.4,0c1.9,0,11.4-0.5,14.9-9.6c0-0.1,0.6-1.5,0.1-2.2c-0.2-0.3-0.8-0.4-1.6-0.4
		C757.8,79.2,757.7,79.2,757.7,79.2 M744.8,100.1c-2.9,0-6.9-0.4-9.3-2.5c-4.3-3.7-3.4-11.2-3.4-11.6c0.6-4.9,3.3-11.3,12.4-14
		c4.2-1.2,8.9-1.5,12.1-1.6c0.4,0,1.9,0,2.1-0.6c0.2-0.6-1.1-1.7-1.9-2.2c-2.5-1.7-8.6-4.6-22.3-4.6c-0.1,0-1.3,0-1.9,0
		c-5.8,0-13.5,1-17.5,3.4c-0.9,0.6-1.5,1.2-1.6,2c-0.1,1.4,1.2,2.5,1.3,2.6l0,0c1.2,0.9,2.6,1.7,3.5,2.1l0.4,0.2c2.1,1,6.1,3,8,7
		c1,2.2,1.4,4.6,1.2,6.9c-1.4,12.6-15.7,12.8-16.3,12.8h0c-5.9,0-10.2-2.2-12.7-4.1c0,0-4-2.5-5.6-7.3c0-0.1-0.3-1-0.4-1.2
		c-0.2-0.7-0.6-2.3-1-2.4c-0.6-0.1-1.6,2-1.9,2.5c-0.7,1.2-1.5,2.7-1.8,3.1c-1.6,2.6-5.6,9.3-11.8,9.3c-1.6,0-3.2-0.5-4.9-1.4
		c-4-2.2-5.1-5.5-6-8.1c-0.3-0.7-0.5-1.5-0.7-2.2c-1-3-1.2-3.1-3.5-1c-2.2,1.9-4.2,3.9-6.1,5.3c-2.9,2.3-8.8,6.2-15.3,7.1
		c-1.6,0.2-3.2,0.4-4.7,0.4c-6,0-10.5-1.7-13.3-5.1c-2.2-2.6-3.9-6-5-9.6c-0.7-2.2-0.9-1.9-2.7-2.2c-2.2-0.4-3.8-0.7-6.4-1.3
		c-1.1-0.2-2-0.9-2.6-1.9c-0.6-1-0.8-2.1-0.6-3.2c0.4-2,2.1-3.4,4-3.4c0.3,0,0.6,0,0.9,0.1c0.4,0.1,0.8,0.2,1.2,0.3
		c1,0.2,2.9,0.6,3.6,0.7c0.1,0,0.3,0,0.4,0c1.3,0.1,1.4-0.1,1.8-1.7c0-0.2,0.1-0.4,0.1-0.6c1.9-7.7,7.5-13.6,15-16.5
		c1.8-0.7,4.8-1.3,8.1-1.3c2.9,0,6.8,0.5,9.3,2.6c4.2,3.5,4.2,8.7,3.9,11.5c-0.4,3.2-2.4,10.8-12.9,14c-3.2,1-7,1.5-12.3,1.6
		c-0.7,0-1.5-0.1-1.7,0.4c-0.3,0.7,0.4,1.7,0.4,1.8c1.1,2,3.9,5.3,9.5,5.3c1,0,2.1-0.1,3.2-0.3c5.1-0.9,9.5-3.7,13.1-6.4
		c2.7-2.1,6.1-5.5,7.7-7.2c0.1-0.1,0.5-0.5,0.8-1.2c0.2-0.4,0.3-0.8,0.3-1.4c0.1-0.5,0-1.2-0.1-1.9c-0.1-0.4-1.3-8.4-1.4-9
		c-0.7-5.7-0.9-10.3-0.8-13.3c0-0.2,0.1-14.8,9-18.2c0.1,0,1.3-0.5,3.2-0.4c3.2,0.1,6,1.2,7.8,3.3c4,4.7,3.9,10.1,3.3,14.3
		c-1.4,10.1-4.9,19.1-10.5,26.8c-1.1,1.3-0.7,2.7-0.6,3c0.7,2.5,1.5,5.5,2.4,8.1c0,0.1,1,3.1,3.2,3.2c1.8,0.1,5-5.1,5-5.1
		c0.1-0.2,7.6-11.2,8.4-21.9c0-0.1,0.2-2-0.1-4.4c0-0.1-0.3-2.5,0.9-3.9c0.6-0.7,1.6-1.1,2.8-1.1c4.2,0,4.6,5,4.7,5.2
		c0,0.4,0.1,0.8,0.1,1.3c0.1,1.5,1.2,14.6,1.8,20c0,0.1,1.3,11.4,10.2,11.5c0.1,0,0.4,0,0.8,0c5.3,0,8.5-2.2,8.6-5.9
		c0.1-0.5,0.1-2.9-4.8-5.4c-1.5-0.7-4.6-2.6-6.1-3.9c-0.1-0.1-0.3-0.2-0.3-0.2c-5.9-4.9-4-10.2-3.3-11.8c2.4-5.1,8.3-8.4,17.4-9.9
		c4.3-0.7,8.4-0.8,10.4-0.8c0.7,0,1.2,0,1.4,0c25,0,30.6,9.1,31.5,10.9c0.6,1.3,1.2,2.6,1.6,4c0.3,1,0.3,1.4,1.8,1.5
		c0.7,0,1.3,0.1,1.8,0.1c1.4,0.1,2.2,0.2,4.5,0.6c1,0.2,1.9,0.9,2.5,1.8c0.6,1,0.8,2.2,0.6,3.4c-0.4,2-2.1,3.3-4.1,3.3
		c-0.3,0-0.5,0-0.8-0.1c-1.5-0.3-2.1-0.3-2.8-0.4c-0.2,0-0.4,0-0.7-0.1c-0.1,0-0.2,0-0.3,0c-1.5,0-1.6,0.3-1.8,1.4
		c-0.2,1.4-0.6,2.8-1.1,4.1c-2.4,6.4-7.6,11.5-14.2,14C751.4,99.6,748.6,100.1,744.8,100.1L744.8,100.1L744.8,100.1z M692.7,37.2
		c-2.6,0-4.5,2-4.6,4.7c-0.1,2.9,2.2,5.6,5,5.9c0.2,0,0.4,0,0.5,0c2.6,0,4.5-2,4.6-4.7c0.1-2.9-2.2-5.6-5.1-5.9
		C693,37.2,692.9,37.2,692.7,37.2"/>
</g>
</svg>
