<?xml version="1.0" encoding="utf-8"?>
<!-- Generator: Adobe Illustrator 25.2.3, SVG Export Plug-In . SVG Version: 6.00 Build 0)  -->
<svg version="1.1" id="Layer_1" xmlns="http://www.w3.org/2000/svg" xmlns:xlink="http://www.w3.org/1999/xlink" x="0px" y="0px"
	 viewBox="0 0 700 70" style="enable-background:new 0 0 700 70;" xml:space="preserve">
<style type="text/css">
	.st0{fill:#FFFFFF;}
</style>
<g>
	<path class="st0" d="M17.6,26.6c1.8,2.3,2.7,5.2,2.7,8.9c0,3.6-0.9,6.5-2.7,8.7c-1.8,2.2-4.2,3.3-7.2,3.3H2.8
		c-0.2,0-0.3,0.1-0.3,0.3v21c0,0.4-0.2,0.7-0.7,0.7H0.7c-0.4,0-0.7-0.2-0.7-0.7v-45c0-0.4,0.2-0.7,0.7-0.7h9.8
		C13.4,23.2,15.8,24.3,17.6,26.6z M15.7,42.6c1.4-1.8,2.1-4.2,2.1-7.1c0-3-0.7-5.5-2.1-7.3c-1.4-1.8-3.2-2.7-5.6-2.7H2.8
		c-0.2,0-0.3,0.1-0.3,0.3v19.3c0,0.2,0.1,0.3,0.3,0.3h7.3C12.5,45.3,14.3,44.4,15.7,42.6z"/>
	<path class="st0" d="M30.1,67c-1.9-2-2.9-4.6-2.9-7.8V33.7c0-3.3,1-5.9,2.9-7.9c1.9-2,4.4-3,7.5-3c3.1,0,5.7,1,7.6,3
		c2,2,2.9,4.6,2.9,7.8v25.5c0,3.2-1,5.8-2.9,7.8c-2,2-4.5,3-7.6,3C34.5,70,32,69,30.1,67z M43.4,65.3c1.5-1.6,2.2-3.6,2.2-6V33.5
		c0-2.5-0.7-4.5-2.2-6.1c-1.5-1.6-3.4-2.3-5.8-2.3c-2.3,0-4.2,0.8-5.7,2.3c-1.5,1.6-2.2,3.6-2.2,6.1v25.8c0,2.5,0.7,4.5,2.2,6
		c1.5,1.6,3.3,2.3,5.7,2.3C40,67.7,42,66.9,43.4,65.3z M31.1,15.4c-0.6-0.6-0.8-1.3-0.8-2.1c0-0.9,0.3-1.6,0.8-2.2
		c0.5-0.6,1.3-0.9,2.1-0.9c0.9,0,1.6,0.3,2.2,0.9c0.6,0.6,0.9,1.3,0.9,2.2c0,0.9-0.3,1.6-0.9,2.1c-0.6,0.6-1.3,0.8-2.2,0.8
		C32.4,16.2,31.6,16,31.1,15.4z M39.9,15.4c-0.6-0.6-0.8-1.3-0.8-2.1c0-0.9,0.3-1.6,0.8-2.2c0.5-0.6,1.3-0.9,2.1-0.9
		c0.9,0,1.6,0.3,2.2,0.9c0.6,0.6,0.9,1.3,0.9,2.2c0,0.9-0.3,1.6-0.9,2.1c-0.6,0.6-1.3,0.8-2.2,0.8C41.2,16.2,40.5,16,39.9,15.4z"/>
	<path class="st0" d="M76.7,25.6H60.9c-0.2,0-0.3,0.1-0.3,0.3v19.1c0,0.2,0.1,0.3,0.3,0.3h10.4c0.4,0,0.7,0.2,0.7,0.7v1
		c0,0.4-0.2,0.7-0.7,0.7H60.9c-0.2,0-0.3,0.1-0.3,0.3v21c0,0.4-0.2,0.7-0.7,0.7h-1.3c-0.4,0-0.7-0.2-0.7-0.7V24
		c0-0.4,0.2-0.7,0.7-0.7h18c0.4,0,0.7,0.2,0.7,0.7v1C77.4,25.4,77.1,25.6,76.7,25.6z"/>
	<path class="st0" d="M102.8,25.6H87c-0.2,0-0.3,0.1-0.3,0.3v19.1c0,0.2,0.1,0.3,0.3,0.3h10.4c0.4,0,0.7,0.2,0.7,0.7v1
		c0,0.4-0.2,0.7-0.7,0.7H87c-0.2,0-0.3,0.1-0.3,0.3v21c0,0.4-0.2,0.7-0.7,0.7h-1.3c-0.4,0-0.7-0.2-0.7-0.7V24c0-0.4,0.2-0.7,0.7-0.7
		h18c0.4,0,0.7,0.2,0.7,0.7v1C103.5,25.4,103.3,25.6,102.8,25.6z"/>
	<path class="st0" d="M109.3,28.4c-0.6-0.6-0.9-1.3-0.9-2.1c0-0.9,0.3-1.6,0.8-2.2c0.5-0.6,1.3-0.9,2.1-0.9c0.9,0,1.6,0.3,2.2,0.9
		c0.6,0.6,0.9,1.3,0.9,2.2c0,0.8-0.3,1.5-0.9,2.1c-0.6,0.6-1.3,0.9-2.2,0.9C110.6,29.2,109.9,29,109.3,28.4z M110.1,68.8V37
		c0-0.4,0.2-0.7,0.7-0.7h1.3c0.4,0,0.7,0.2,0.7,0.7v31.8c0,0.4-0.2,0.7-0.7,0.7h-1.3C110.4,69.5,110.1,69.3,110.1,68.8z"/>
	<path class="st0" d="M141.5,68.9l-8.2-31.8l-0.1-0.2c0-0.4,0.2-0.5,0.7-0.5h1.5c0.4,0,0.7,0.2,0.7,0.6l6.9,28
		c0,0.1,0.1,0.2,0.1,0.2c0,0,0.1-0.1,0.1-0.2l6.7-28c0.1-0.4,0.3-0.6,0.7-0.6h1.6c0.5,0,0.7,0.2,0.5,0.7l-8.2,31.8
		c0,0.4-0.3,0.6-0.7,0.6h-1.6C141.8,69.5,141.6,69.3,141.5,68.9z"/>
	<path class="st0" d="M176.4,53.6h-15.3c-0.2,0-0.3,0.1-0.3,0.3v6.3c0,2.2,0.6,4,1.9,5.4c1.3,1.4,2.9,2.1,4.9,2.1
		c1.7,0,3.1-0.5,4.3-1.5c1.2-1,2-2.3,2.4-3.9c0.1-0.4,0.4-0.6,0.7-0.6l1.2,0.1c0.2,0,0.4,0.1,0.5,0.2c0.1,0.1,0.1,0.3,0.1,0.5
		c-0.4,2.2-1.4,4-3.1,5.4c-1.6,1.4-3.7,2-6.1,2c-2.8,0-5-0.9-6.8-2.7c-1.7-1.8-2.6-4.1-2.6-7V45.5c0-2.9,0.9-5.2,2.6-7
		c1.7-1.8,4-2.7,6.8-2.7c2.8,0,5.1,0.9,6.8,2.7c1.7,1.8,2.6,4.1,2.6,7V53C177.1,53.4,176.9,53.6,176.4,53.6z M162.8,40.2
		c-1.3,1.4-1.9,3.2-1.9,5.4v5.6c0,0.2,0.1,0.3,0.3,0.3h13.1c0.2,0,0.3-0.1,0.3-0.3v-5.6c0-2.2-0.6-4-1.9-5.4
		c-1.3-1.4-2.9-2.1-4.9-2.1C165.7,38.1,164.1,38.8,162.8,40.2z"/>
	<path class="st0" d="M202.5,53.6h-15.3c-0.2,0-0.3,0.1-0.3,0.3v6.3c0,2.2,0.6,4,1.9,5.4c1.3,1.4,2.9,2.1,4.9,2.1
		c1.7,0,3.1-0.5,4.3-1.5c1.2-1,2-2.3,2.4-3.9c0.1-0.4,0.4-0.6,0.7-0.6l1.2,0.1c0.2,0,0.4,0.1,0.5,0.2c0.1,0.1,0.1,0.3,0.1,0.5
		c-0.4,2.2-1.4,4-3.1,5.4c-1.6,1.4-3.7,2-6.1,2c-2.8,0-5-0.9-6.8-2.7c-1.7-1.8-2.6-4.1-2.6-7V45.5c0-2.9,0.9-5.2,2.6-7
		c1.7-1.8,4-2.7,6.8-2.7c2.8,0,5.1,0.9,6.8,2.7c1.7,1.8,2.6,4.1,2.6,7V53C203.1,53.4,202.9,53.6,202.5,53.6z M188.8,40.2
		c-1.3,1.4-1.9,3.2-1.9,5.4v5.6c0,0.2,0.1,0.3,0.3,0.3h13.1c0.2,0,0.3-0.1,0.3-0.3v-5.6c0-2.2-0.6-4-1.9-5.4
		c-1.3-1.4-2.9-2.1-4.9-2.1C191.7,38.1,190.1,38.8,188.8,40.2z"/>
	<path class="st0" d="M227.5,38.5c1.6,1.8,2.5,4.1,2.5,7v14.8c0,2.8-0.8,5.1-2.5,6.9c-1.6,1.8-3.8,2.7-6.5,2.7
		c-1.4,0-2.7-0.3-3.9-0.9c-1.2-0.6-2.2-1.5-2.9-2.6c-0.1-0.1-0.2-0.1-0.2-0.1c-0.1,0-0.1,0.1-0.1,0.2v2.2c0,0.4-0.2,0.7-0.7,0.7
		h-1.3c-0.4,0-0.7-0.2-0.7-0.7V24c0-0.4,0.2-0.7,0.7-0.7h1.3c0.4,0,0.7,0.2,0.7,0.7v15.3c0,0.3,0.1,0.4,0.3,0.1
		c0.7-1.1,1.7-2,2.9-2.6c1.2-0.6,2.5-0.9,3.9-0.9C223.6,35.8,225.8,36.7,227.5,38.5z M225.4,40.2c-1.3-1.4-2.9-2.1-4.9-2.1
		c-1.9,0-3.5,0.7-4.8,2.1c-1.3,1.4-1.9,3.2-1.9,5.4v14.6c0,2.2,0.6,4,1.9,5.4c1.3,1.4,2.8,2.1,4.8,2.1c2,0,3.7-0.7,4.9-2.1
		c1.3-1.4,1.9-3.2,1.9-5.4V45.6C227.4,43.4,226.7,41.6,225.4,40.2z"/>
	<path class="st0" d="M238.3,28.4c-0.6-0.6-0.9-1.3-0.9-2.1c0-0.9,0.3-1.6,0.8-2.2c0.5-0.6,1.3-0.9,2.1-0.9c0.9,0,1.6,0.3,2.2,0.9
		c0.6,0.6,0.9,1.3,0.9,2.2c0,0.8-0.3,1.5-0.9,2.1c-0.6,0.6-1.3,0.9-2.2,0.9C239.6,29.2,238.9,29,238.3,28.4z M239.2,68.8V37
		c0-0.4,0.2-0.7,0.7-0.7h1.3c0.4,0,0.7,0.2,0.7,0.7v31.8c0,0.4-0.2,0.7-0.7,0.7h-1.3C239.4,69.5,239.2,69.3,239.2,68.8z"/>
	<path class="st0" d="M251.8,68.8V24c0-0.4,0.2-0.7,0.7-0.7h1.3c0.4,0,0.7,0.2,0.7,0.7v28.6c0,0.1,0,0.1,0.1,0.2
		c0.1,0,0.2,0,0.2-0.1l11.7-15.9c0.2-0.3,0.5-0.4,0.9-0.4h1.3c0.3,0,0.4,0.1,0.5,0.2c0.1,0.2,0,0.3-0.1,0.6l-6.3,8.6
		c-0.1,0.1-0.1,0.2-0.1,0.3l7.7,22.7l0.1,0.3c0,0.3-0.2,0.5-0.6,0.5h-1.3c-0.4,0-0.7-0.2-0.8-0.5l-6.6-20.6c0-0.3-0.2-0.3-0.4-0.1
		l-6.1,8.4c-0.1,0.1-0.1,0.2-0.1,0.3v11.9c0,0.4-0.2,0.7-0.7,0.7h-1.3C252,69.5,251.8,69.3,251.8,68.8z"/>
	<path class="st0" d="M277.1,28.4c-0.6-0.6-0.9-1.3-0.9-2.1c0-0.9,0.3-1.6,0.8-2.2c0.5-0.6,1.3-0.9,2.1-0.9c0.9,0,1.6,0.3,2.2,0.9
		c0.6,0.6,0.9,1.3,0.9,2.2c0,0.8-0.3,1.5-0.9,2.1c-0.6,0.6-1.3,0.9-2.2,0.9C278.4,29.2,277.7,29,277.1,28.4z M277.9,68.8V37
		c0-0.4,0.2-0.7,0.7-0.7h1.3c0.4,0,0.7,0.2,0.7,0.7v31.8c0,0.4-0.2,0.7-0.7,0.7h-1.3C278.2,69.5,277.9,69.3,277.9,68.8z"/>
	<path class="st0" d="M306.8,38.6c1.5,1.8,2.2,4.3,2.2,7.4v22.8c0,0.4-0.2,0.7-0.7,0.7H307c-0.4,0-0.7-0.2-0.7-0.7V46.3
		c0-2.5-0.6-4.5-1.7-5.9c-1.1-1.4-2.7-2.1-4.7-2.1c-2.1,0-3.7,0.8-4.9,2.3c-1.2,1.5-1.8,3.6-1.8,6.2v22.1c0,0.4-0.2,0.7-0.7,0.7
		h-1.3c-0.4,0-0.7-0.2-0.7-0.7V37c0-0.4,0.2-0.7,0.7-0.7h1.3c0.4,0,0.7,0.2,0.7,0.7v2.9c0,0.1,0,0.2,0.1,0.2c0.1,0,0.1,0,0.2-0.1
		c1.5-2.7,3.9-4.1,7.1-4.1C303.3,35.9,305.3,36.8,306.8,38.6z"/>
	<path class="st0" d="M319.7,67.3c-1.7-1.8-2.6-4.1-2.6-7V45.5c0-2.9,0.9-5.2,2.6-7c1.7-1.8,4-2.7,6.8-2.7c2.8,0,5.1,0.9,6.8,2.7
		c1.7,1.8,2.6,4.1,2.6,7v14.8c0,2.9-0.9,5.2-2.6,7c-1.7,1.8-4,2.7-6.8,2.7C323.6,70,321.4,69.1,319.7,67.3z M331.4,65.6
		c1.3-1.4,1.9-3.2,1.9-5.4V45.6c0-2.2-0.6-4-1.9-5.4c-1.3-1.4-2.9-2.1-4.9-2.1c-2,0-3.6,0.7-4.9,2.1c-1.3,1.4-1.9,3.2-1.9,5.3v14.6
		c0,2.2,0.6,3.9,1.9,5.3c1.3,1.4,2.9,2.1,4.9,2.1C328.4,67.7,330.1,67,331.4,65.6z"/>
	<path class="st0" d="M390.6,26.2c2.8,1.5,5,3.6,6.5,6.3c1.5,2.7,2.3,5.9,2.3,9.6c0,0.7-0.1,1.9-0.3,3.6c-0.5,4-1.8,7.2-3.7,9.5
		c-1.9,2.3-4.4,3.4-7.3,3.4c-1.5,0-2.7-0.3-3.8-0.9c-1.1-0.6-1.8-1.4-2.4-2.5c-0.1-0.2-0.2-0.2-0.3,0c-0.6,1.1-1.4,1.9-2.4,2.5
		c-1.1,0.6-2.2,0.9-3.4,0.9c-1.8,0-3.3-0.5-4.4-1.6c-1.1-1.1-1.6-2.5-1.6-4.4l0.1-0.9l0.7-5.1l0.7-5.1c0.3-2.1,1-3.7,2.3-5
		c1.3-1.3,2.9-1.9,4.8-1.9c0.9,0,1.7,0.2,2.5,0.6c0.8,0.4,1.4,0.9,1.9,1.6c0,0.1,0.1,0.1,0.2,0.1c0.1,0,0.1-0.1,0.1-0.2l0.1-1.2
		c0-0.4,0.3-0.6,0.7-0.6h0.8c0.2,0,0.4,0.1,0.5,0.2c0.1,0.2,0.2,0.3,0.1,0.5l-1.8,14.2c0,0.3-0.1,0.6-0.1,1.1c0,1.7,0.4,3,1.4,4
		c0.9,1,2.2,1.5,3.8,1.5c2.2,0,4-0.9,5.5-2.8c1.5-1.9,2.5-4.5,2.9-8c0.2-1.6,0.3-2.7,0.3-3.4c0-3.3-0.7-6.2-2.1-8.7
		c-1.4-2.5-3.3-4.4-5.8-5.7c-2.5-1.3-5.4-2-8.8-2c-3.5,0-6.8,0.9-9.9,2.6c-3.1,1.8-5.6,4.2-7.7,7.4c-2,3.2-3.3,6.8-3.8,10.9
		c-0.1,1.1-0.2,2.2-0.2,3.2c0,3.5,0.7,6.5,2.1,9.1c1.4,2.6,3.3,4.6,5.8,6c2.5,1.4,5.3,2.1,8.4,2.1c2.3,0,4.4-0.3,6.4-0.9
		c2-0.6,3.6-1.4,4.7-2.2c0.1-0.1,0.2-0.1,0.4-0.1c0.2,0,0.4,0.1,0.5,0.3l0.4,0.5c0.1,0.1,0.2,0.3,0.2,0.5c0,0.2-0.1,0.3-0.3,0.5
		c-1.4,1.1-3.2,1.9-5.4,2.6c-2.2,0.7-4.7,1.1-7.3,1.1c-3.5,0-6.6-0.8-9.4-2.3c-2.7-1.5-4.8-3.7-6.4-6.6c-1.5-2.8-2.3-6.1-2.3-9.9
		c0-0.8,0.1-2,0.3-3.7c0.6-4.5,2-8.5,4.3-11.9c2.3-3.5,5.1-6.2,8.5-8.1c3.4-1.9,7.1-2.9,11-2.9C384.5,24,387.8,24.8,390.6,26.2z
		 M379.4,55.4c0.9-0.9,1.5-2.1,1.7-3.6c0.2-1.1,0.4-2.8,0.7-5l0.5-3.7l0.2-1.6c0.1-1.4-0.2-2.6-0.9-3.5c-0.7-0.9-1.7-1.4-3-1.4
		c-1.3,0-2.5,0.5-3.4,1.4c-1,0.9-1.6,2.1-1.8,3.6c-0.2,1-0.4,2.7-0.7,5.1c-0.1,0.9-0.2,1.5-0.3,1.8c-0.2,1.5-0.3,2.6-0.3,3.2
		c0,0.2-0.1,0.5-0.1,0.9c0,1.2,0.4,2.2,1.1,3c0.7,0.8,1.7,1.2,2.9,1.2C377.4,56.7,378.5,56.3,379.4,55.4z"/>
	<path class="st0" d="M442.9,29.7c-0.2,0.2-0.3,0.2-0.6,0.2h-14.2c-0.2,0-0.3,0.1-0.3,0.3v12.5c0,0.2,0.1,0.3,0.3,0.3h8.4
		c0.2,0,0.4,0.1,0.6,0.2c0.2,0.2,0.2,0.3,0.2,0.6v5.1c0,0.2-0.1,0.4-0.2,0.6c-0.2,0.2-0.3,0.2-0.6,0.2h-8.4c-0.2,0-0.3,0.1-0.3,0.3
		v12.5c0,0.2,0.1,0.3,0.3,0.3h14.2c0.2,0,0.4,0.1,0.6,0.2c0.2,0.2,0.2,0.3,0.2,0.6v5c0,0.2-0.1,0.4-0.2,0.6
		c-0.2,0.2-0.3,0.2-0.6,0.2h-21.4c-0.2,0-0.4-0.1-0.6-0.2c-0.2-0.2-0.2-0.3-0.2-0.6V24.1c0-0.2,0.1-0.4,0.2-0.6
		c0.2-0.2,0.3-0.2,0.6-0.2h21.4c0.2,0,0.4,0.1,0.6,0.2c0.2,0.2,0.2,0.3,0.2,0.6v5C443.1,29.3,443,29.5,442.9,29.7z"/>
	<path class="st0" d="M449,69.2c-0.2-0.2-0.2-0.3-0.2-0.6V24.1c0-0.2,0.1-0.4,0.2-0.6c0.2-0.2,0.3-0.2,0.6-0.2h6.1
		c0.2,0,0.4,0.1,0.6,0.2c0.2,0.2,0.2,0.3,0.2,0.6v38.5c0,0.2,0.1,0.3,0.3,0.3H471c0.2,0,0.4,0.1,0.6,0.2c0.2,0.2,0.2,0.3,0.2,0.6v5
		c0,0.2-0.1,0.4-0.2,0.6c-0.2,0.2-0.3,0.2-0.6,0.2h-21.4C449.3,69.5,449.2,69.4,449,69.2z"/>
	<path class="st0" d="M476.4,69.2c-0.2-0.2-0.2-0.3-0.2-0.6V24.1c0-0.2,0.1-0.4,0.2-0.6c0.2-0.2,0.3-0.2,0.6-0.2h6.1
		c0.2,0,0.4,0.1,0.6,0.2c0.2,0.2,0.2,0.3,0.2,0.6v44.6c0,0.2-0.1,0.4-0.2,0.6c-0.2,0.2-0.3,0.2-0.6,0.2h-6.1
		C476.7,69.5,476.5,69.4,476.4,69.2z"/>
	<path class="st0" d="M493,66.7c-2.2-2.2-3.4-5.1-3.4-8.6v-1.7c0-0.2,0.1-0.4,0.2-0.6c0.2-0.2,0.3-0.2,0.6-0.2h6
		c0.2,0,0.4,0.1,0.6,0.2c0.2,0.2,0.2,0.3,0.2,0.6v1.3c0,1.7,0.4,3.1,1.3,4.2c0.9,1.1,2,1.6,3.3,1.6s2.5-0.5,3.4-1.5
		c0.9-1,1.3-2.3,1.3-3.9c0-1.1-0.2-2.1-0.7-3c-0.5-0.8-1.2-1.6-2-2.4c-0.9-0.7-2.3-1.8-4.2-3.2c-2.2-1.6-4-3-5.3-4.2
		c-1.3-1.2-2.5-2.7-3.4-4.5c-0.9-1.7-1.4-3.7-1.4-6c0-3.6,1.1-6.6,3.3-8.7c2.2-2.2,5.1-3.2,8.7-3.2c3.6,0,6.6,1.1,8.8,3.4
		c2.2,2.3,3.4,5.3,3.4,9v1.6c0,0.2-0.1,0.4-0.2,0.6c-0.2,0.2-0.3,0.2-0.6,0.2h-5.9c-0.2,0-0.4-0.1-0.6-0.2c-0.2-0.2-0.2-0.3-0.2-0.6
		V35c0-1.7-0.4-3.1-1.3-4.1c-0.9-1-2-1.6-3.4-1.6c-1.3,0-2.4,0.5-3.2,1.4c-0.8,0.9-1.3,2.3-1.3,3.9c0,1.6,0.5,2.9,1.4,4
		c0.9,1.1,2.7,2.6,5.3,4.6c2.7,2,4.7,3.6,6.1,4.8c1.4,1.3,2.4,2.6,3.2,4.1c0.7,1.5,1.1,3.3,1.1,5.3c0,3.7-1.1,6.7-3.4,9
		c-2.2,2.3-5.2,3.4-8.8,3.4S495.2,68.9,493,66.7z"/>
	<path class="st0" d="M537.4,68.7l-1.3-6.9c0-0.2-0.1-0.3-0.4-0.3h-9.6c-0.3,0-0.4,0.1-0.4,0.3l-1.3,6.9c0,0.5-0.3,0.7-0.9,0.7h-6
		c-0.6,0-0.9-0.3-0.7-0.9l9.8-44.6c0.1-0.5,0.4-0.7,0.9-0.7h7c0.5,0,0.8,0.2,0.9,0.7l9.8,44.6v0.3c0,0.4-0.2,0.6-0.7,0.6h-6.1
		C537.7,69.5,537.5,69.2,537.4,68.7z M527.3,55.5h7.3c0.3,0,0.4-0.1,0.3-0.3l-3.8-20.8c0-0.1-0.1-0.2-0.2-0.2
		c-0.1,0-0.2,0.1-0.2,0.2l-3.8,20.8C526.9,55.4,527,55.5,527.3,55.5z"/>
	<path class="st0" d="M564.9,66.7c-2.2-2.2-3.4-5.1-3.4-8.6v-1.7c0-0.2,0.1-0.4,0.2-0.6c0.2-0.2,0.3-0.2,0.6-0.2h6
		c0.2,0,0.4,0.1,0.6,0.2c0.2,0.2,0.2,0.3,0.2,0.6v1.3c0,1.7,0.4,3.1,1.3,4.2c0.9,1.1,2,1.6,3.3,1.6c1.4,0,2.5-0.5,3.4-1.5
		c0.9-1,1.3-2.3,1.3-3.9c0-1.1-0.2-2.1-0.7-3c-0.5-0.8-1.2-1.6-2-2.4c-0.9-0.7-2.3-1.8-4.2-3.2c-2.2-1.6-4-3-5.3-4.2
		c-1.3-1.2-2.5-2.7-3.4-4.5c-0.9-1.7-1.4-3.7-1.4-6c0-3.6,1.1-6.6,3.3-8.7c2.2-2.2,5.1-3.2,8.7-3.2c3.6,0,6.6,1.1,8.8,3.4
		c2.2,2.3,3.4,5.3,3.4,9v1.6c0,0.2-0.1,0.4-0.2,0.6c-0.2,0.2-0.3,0.2-0.6,0.2h-5.9c-0.2,0-0.4-0.1-0.6-0.2c-0.2-0.2-0.2-0.3-0.2-0.6
		V35c0-1.7-0.4-3.1-1.3-4.1c-0.9-1-2-1.6-3.4-1.6c-1.3,0-2.4,0.5-3.2,1.4c-0.8,0.9-1.3,2.3-1.3,3.9c0,1.6,0.5,2.9,1.4,4
		c0.9,1.1,2.7,2.6,5.3,4.6c2.7,2,4.7,3.6,6.1,4.8c1.4,1.3,2.4,2.6,3.2,4.1c0.7,1.5,1.1,3.3,1.1,5.3c0,3.7-1.1,6.7-3.4,9
		c-2.2,2.3-5.2,3.4-8.8,3.4C570,70,567.1,68.9,564.9,66.7z"/>
	<path class="st0" d="M615.1,23.5c0.2,0.2,0.2,0.3,0.2,0.6v5c0,0.2-0.1,0.4-0.2,0.6c-0.2,0.2-0.3,0.2-0.6,0.2h-8.4
		c-0.2,0-0.3,0.1-0.3,0.3v38.5c0,0.2-0.1,0.4-0.2,0.6c-0.2,0.2-0.3,0.2-0.6,0.2H599c-0.2,0-0.4-0.1-0.6-0.2
		c-0.2-0.2-0.2-0.3-0.2-0.6V30.2c0-0.2-0.1-0.3-0.3-0.3h-7.9c-0.2,0-0.4-0.1-0.6-0.2c-0.2-0.2-0.2-0.3-0.2-0.6v-5
		c0-0.2,0.1-0.4,0.2-0.6c0.2-0.2,0.3-0.2,0.6-0.2h24.6C614.7,23.3,614.9,23.4,615.1,23.5z"/>
	<path class="st0" d="M635.4,68.7l-1.3-6.9c0-0.2-0.1-0.3-0.4-0.3h-9.6c-0.3,0-0.4,0.1-0.4,0.3l-1.3,6.9c0,0.5-0.3,0.7-0.9,0.7h-6
		c-0.6,0-0.9-0.3-0.7-0.9l9.8-44.6c0.1-0.5,0.4-0.7,0.9-0.7h7c0.5,0,0.8,0.2,0.9,0.7l9.8,44.6v0.3c0,0.4-0.2,0.6-0.7,0.6h-6.1
		C635.7,69.5,635.4,69.2,635.4,68.7z M625.2,55.5h7.3c0.3,0,0.4-0.1,0.3-0.3L629,34.3c0-0.1-0.1-0.2-0.2-0.2c-0.1,0-0.2,0.1-0.2,0.2
		l-3.8,20.8C624.8,55.4,624.9,55.5,625.2,55.5z"/>
	<path class="st0" d="M649.1,66.7c-2.3-2.2-3.4-5.1-3.4-8.7V34.7c0-3.6,1.1-6.5,3.4-8.7c2.3-2.2,5.3-3.3,9-3.3
		c3.7,0,6.8,1.1,9.1,3.3c2.3,2.2,3.5,5.1,3.5,8.7v2.6c0,0.2-0.1,0.4-0.2,0.6c-0.2,0.2-0.3,0.2-0.6,0.2h-6.1c-0.2,0-0.4-0.1-0.6-0.2
		c-0.2-0.2-0.2-0.3-0.2-0.6v-2.7c0-1.6-0.5-2.9-1.4-3.8c-0.9-1-2.1-1.5-3.5-1.5c-1.5,0-2.6,0.5-3.5,1.5c-0.9,1-1.3,2.2-1.3,3.8v23.5
		c0,1.6,0.4,2.9,1.3,3.8c0.9,1,2,1.5,3.5,1.5c1.5,0,2.6-0.5,3.5-1.5c0.9-1,1.4-2.2,1.4-3.8v-6.3c0-0.2-0.1-0.3-0.3-0.3h-4
		c-0.2,0-0.4-0.1-0.6-0.2c-0.2-0.2-0.2-0.3-0.2-0.6v-4.8c0-0.2,0.1-0.4,0.2-0.6c0.2-0.2,0.3-0.2,0.6-0.2h11.2c0.2,0,0.4,0.1,0.6,0.2
		c0.2,0.2,0.2,0.3,0.2,0.6v12.2c0,3.6-1.2,6.5-3.5,8.7c-2.3,2.2-5.3,3.3-9.1,3.3C654.4,70,651.4,68.9,649.1,66.7z"/>
	<path class="st0" d="M699.8,29.7c-0.2,0.2-0.3,0.2-0.6,0.2H685c-0.2,0-0.3,0.1-0.3,0.3v12.5c0,0.2,0.1,0.3,0.3,0.3h8.4
		c0.2,0,0.4,0.1,0.6,0.2c0.2,0.2,0.2,0.3,0.2,0.6v5.1c0,0.2-0.1,0.4-0.2,0.6c-0.2,0.2-0.3,0.2-0.6,0.2H685c-0.2,0-0.3,0.1-0.3,0.3
		v12.5c0,0.2,0.1,0.3,0.3,0.3h14.2c0.2,0,0.4,0.1,0.6,0.2c0.2,0.2,0.2,0.3,0.2,0.6v5c0,0.2-0.1,0.4-0.2,0.6
		c-0.2,0.2-0.3,0.2-0.6,0.2h-21.4c-0.2,0-0.4-0.1-0.6-0.2c-0.2-0.2-0.2-0.3-0.2-0.6V24.1c0-0.2,0.1-0.4,0.2-0.6
		c0.2-0.2,0.3-0.2,0.6-0.2h21.4c0.2,0,0.4,0.1,0.6,0.2c0.2,0.2,0.2,0.3,0.2,0.6v5C700,29.3,699.9,29.5,699.8,29.7z"/>
</g>
</svg>
