<?xml version="1.0" encoding="utf-8"?>
<!-- Generator: Adobe Illustrator 26.0.1, SVG Export Plug-In . SVG Version: 6.00 Build 0)  -->
<svg version="1.1" id="Layer_1" xmlns="http://www.w3.org/2000/svg" xmlns:xlink="http://www.w3.org/1999/xlink" x="0px" y="0px"
	 viewBox="0 0 700 70" style="enable-background:new 0 0 700 70;" xml:space="preserve">
<style type="text/css">
	.st0{fill:#FFFFFF;}
</style>
<g>
	<path class="st0" d="M390.1,26.1c2.8,1.5,5,3.6,6.5,6.3s2.3,5.9,2.3,9.6c0,0.7-0.1,1.9-0.3,3.6c-0.5,4-1.8,7.2-3.7,9.5
		c-1.9,2.3-4.4,3.4-7.3,3.4c-1.5,0-2.7-0.3-3.8-0.9c-1.1-0.6-1.8-1.4-2.4-2.5c-0.1-0.2-0.2-0.2-0.3,0c-0.6,1.1-1.4,1.9-2.4,2.5
		c-1.1,0.6-2.2,0.9-3.4,0.9c-1.8,0-3.3-0.5-4.4-1.6s-1.6-2.5-1.6-4.4l0.1-0.9l0.7-5.1l0.7-5.1c0.3-2.1,1-3.7,2.3-5s2.9-1.9,4.8-1.9
		c0.9,0,1.7,0.2,2.5,0.6c0.8,0.4,1.4,0.9,1.9,1.6c0,0.1,0.1,0.1,0.2,0.1s0.1-0.1,0.1-0.2l0.1-1.2c0-0.4,0.3-0.6,0.7-0.6h0.8
		c0.2,0,0.4,0.1,0.5,0.2c0.1,0.2,0.2,0.3,0.1,0.5L383,49.7c0,0.3-0.1,0.6-0.1,1.1c0,1.7,0.4,3,1.4,4c0.9,1,2.2,1.5,3.8,1.5
		c2.2,0,4-0.9,5.5-2.8c1.5-1.9,2.5-4.5,2.9-8c0.2-1.6,0.3-2.7,0.3-3.4c0-3.3-0.7-6.2-2.1-8.7s-3.3-4.4-5.8-5.7c-2.5-1.3-5.4-2-8.8-2
		c-3.5,0-6.8,0.9-9.9,2.6c-3.1,1.8-5.6,4.2-7.7,7.4c-2,3.2-3.3,6.8-3.8,10.9c-0.1,1.1-0.2,2.2-0.2,3.2c0,3.5,0.7,6.5,2.1,9.1
		c1.4,2.6,3.3,4.6,5.8,6s5.3,2.1,8.4,2.1c2.3,0,4.4-0.3,6.4-0.9s3.6-1.4,4.7-2.2c0.1-0.1,0.2-0.1,0.4-0.1c0.2,0,0.4,0.1,0.5,0.3
		l0.4,0.5c0.1,0.1,0.2,0.3,0.2,0.5s-0.1,0.3-0.3,0.5c-1.4,1.1-3.2,1.9-5.4,2.6c-2.2,0.7-4.7,1.1-7.3,1.1c-3.5,0-6.6-0.8-9.4-2.3
		c-2.7-1.5-4.8-3.7-6.4-6.6c-1.5-2.8-2.3-6.1-2.3-9.9c0-0.8,0.1-2,0.3-3.7c0.6-4.5,2-8.5,4.3-11.9c2.3-3.5,5.1-6.2,8.5-8.1
		s7.1-2.9,11-2.9C384,23.9,387.3,24.7,390.1,26.1z M378.9,55.3c0.9-0.9,1.5-2.1,1.7-3.6c0.2-1.1,0.4-2.8,0.7-5l0.5-3.7l0.2-1.6
		c0.1-1.4-0.2-2.6-0.9-3.5c-0.7-0.9-1.7-1.4-3-1.4s-2.5,0.5-3.4,1.4c-1,0.9-1.6,2.1-1.8,3.6c-0.2,1-0.4,2.7-0.7,5.1
		c-0.1,0.9-0.2,1.5-0.3,1.8c-0.2,1.5-0.3,2.6-0.3,3.2c0,0.2-0.1,0.5-0.1,0.9c0,1.2,0.4,2.2,1.1,3s1.7,1.2,2.9,1.2
		C376.9,56.6,378,56.2,378.9,55.3z"/>
	<path class="st0" d="M442.4,29.6c-0.2,0.2-0.3,0.2-0.6,0.2h-14.2c-0.2,0-0.3,0.1-0.3,0.3v12.5c0,0.2,0.1,0.3,0.3,0.3h8.4
		c0.2,0,0.4,0.1,0.6,0.2c0.2,0.2,0.2,0.3,0.2,0.6v5.1c0,0.2-0.1,0.4-0.2,0.6c-0.2,0.2-0.3,0.2-0.6,0.2h-8.4c-0.2,0-0.3,0.1-0.3,0.3
		v12.5c0,0.2,0.1,0.3,0.3,0.3h14.2c0.2,0,0.4,0.1,0.6,0.2c0.2,0.2,0.2,0.3,0.2,0.6v5c0,0.2-0.1,0.4-0.2,0.6
		c-0.2,0.2-0.3,0.2-0.6,0.2h-21.4c-0.2,0-0.4-0.1-0.6-0.2c-0.2-0.2-0.2-0.3-0.2-0.6V24c0-0.2,0.1-0.4,0.2-0.6
		c0.2-0.2,0.3-0.2,0.6-0.2h21.4c0.2,0,0.4,0.1,0.6,0.2c0.2,0.2,0.2,0.3,0.2,0.6v5C442.6,29.2,442.5,29.4,442.4,29.6z"/>
	<path class="st0" d="M448.5,69.1c-0.2-0.2-0.2-0.3-0.2-0.6V24c0-0.2,0.1-0.4,0.2-0.6c0.2-0.2,0.3-0.2,0.6-0.2h6.1
		c0.2,0,0.4,0.1,0.6,0.2c0.2,0.2,0.2,0.3,0.2,0.6v38.5c0,0.2,0.1,0.3,0.3,0.3h14.2c0.2,0,0.4,0.1,0.6,0.2c0.2,0.2,0.2,0.3,0.2,0.6v5
		c0,0.2-0.1,0.4-0.2,0.6c-0.2,0.2-0.3,0.2-0.6,0.2h-21.4C448.8,69.4,448.7,69.3,448.5,69.1z"/>
	<path class="st0" d="M475.9,69.1c-0.2-0.2-0.2-0.3-0.2-0.6V24c0-0.2,0.1-0.4,0.2-0.6c0.2-0.2,0.3-0.2,0.6-0.2h6.1
		c0.2,0,0.4,0.1,0.6,0.2c0.2,0.2,0.2,0.3,0.2,0.6v44.6c0,0.2-0.1,0.4-0.2,0.6c-0.2,0.2-0.3,0.2-0.6,0.2h-6.1
		C476.2,69.4,476,69.3,475.9,69.1z"/>
	<path class="st0" d="M492.5,66.6c-2.2-2.2-3.4-5.1-3.4-8.6v-1.7c0-0.2,0.1-0.4,0.2-0.6c0.2-0.2,0.3-0.2,0.6-0.2h6
		c0.2,0,0.4,0.1,0.6,0.2c0.2,0.2,0.2,0.3,0.2,0.6v1.3c0,1.7,0.4,3.1,1.3,4.2c0.9,1.1,2,1.6,3.3,1.6s2.5-0.5,3.4-1.5s1.3-2.3,1.3-3.9
		c0-1.1-0.2-2.1-0.7-3c-0.5-0.8-1.2-1.6-2-2.4c-0.9-0.7-2.3-1.8-4.2-3.2c-2.2-1.6-4-3-5.3-4.2s-2.5-2.7-3.4-4.5
		c-0.9-1.7-1.4-3.7-1.4-6c0-3.6,1.1-6.6,3.3-8.7c2.2-2.2,5.1-3.2,8.7-3.2s6.6,1.1,8.8,3.4c2.2,2.3,3.4,5.3,3.4,9v1.6
		c0,0.2-0.1,0.4-0.2,0.6c-0.2,0.2-0.3,0.2-0.6,0.2h-5.9c-0.2,0-0.4-0.1-0.6-0.2c-0.2-0.2-0.2-0.3-0.2-0.6v-1.9
		c0-1.7-0.4-3.1-1.3-4.1s-2-1.6-3.4-1.6c-1.3,0-2.4,0.5-3.2,1.4c-0.8,0.9-1.3,2.3-1.3,3.9s0.5,2.9,1.4,4s2.7,2.6,5.3,4.6
		c2.7,2,4.7,3.6,6.1,4.8c1.4,1.3,2.4,2.6,3.2,4.1c0.7,1.5,1.1,3.3,1.1,5.3c0,3.7-1.1,6.7-3.4,9c-2.2,2.3-5.2,3.4-8.8,3.4
		S494.7,68.8,492.5,66.6z"/>
	<path class="st0" d="M536.9,68.6l-1.3-6.9c0-0.2-0.1-0.3-0.4-0.3h-9.6c-0.3,0-0.4,0.1-0.4,0.3l-1.3,6.9c0,0.5-0.3,0.7-0.9,0.7h-6
		c-0.6,0-0.9-0.3-0.7-0.9l9.8-44.6c0.1-0.5,0.4-0.7,0.9-0.7h7c0.5,0,0.8,0.2,0.9,0.7l9.8,44.6v0.3c0,0.4-0.2,0.6-0.7,0.6h-6.1
		C537.2,69.4,537,69.1,536.9,68.6z M526.8,55.4h7.3c0.3,0,0.4-0.1,0.3-0.3l-3.8-20.8c0-0.1-0.1-0.2-0.2-0.2c-0.1,0-0.2,0.1-0.2,0.2
		l-3.8,20.8C526.4,55.3,526.5,55.4,526.8,55.4z"/>
	<path class="st0" d="M564.4,66.6c-2.2-2.2-3.4-5.1-3.4-8.6v-1.7c0-0.2,0.1-0.4,0.2-0.6c0.2-0.2,0.3-0.2,0.6-0.2h6
		c0.2,0,0.4,0.1,0.6,0.2c0.2,0.2,0.2,0.3,0.2,0.6v1.3c0,1.7,0.4,3.1,1.3,4.2c0.9,1.1,2,1.6,3.3,1.6c1.4,0,2.5-0.5,3.4-1.5
		s1.3-2.3,1.3-3.9c0-1.1-0.2-2.1-0.7-3c-0.5-0.8-1.2-1.6-2-2.4c-0.9-0.7-2.3-1.8-4.2-3.2c-2.2-1.6-4-3-5.3-4.2s-2.5-2.7-3.4-4.5
		c-0.9-1.7-1.4-3.7-1.4-6c0-3.6,1.1-6.6,3.3-8.7c2.2-2.2,5.1-3.2,8.7-3.2c3.6,0,6.6,1.1,8.8,3.4s3.4,5.3,3.4,9v1.6
		c0,0.2-0.1,0.4-0.2,0.6c-0.2,0.2-0.3,0.2-0.6,0.2h-5.9c-0.2,0-0.4-0.1-0.6-0.2c-0.2-0.2-0.2-0.3-0.2-0.6v-1.9
		c0-1.7-0.4-3.1-1.3-4.1c-0.9-1-2-1.6-3.4-1.6c-1.3,0-2.4,0.5-3.2,1.4s-1.3,2.3-1.3,3.9s0.5,2.9,1.4,4s2.7,2.6,5.3,4.6
		c2.7,2,4.7,3.6,6.1,4.8c1.4,1.3,2.4,2.6,3.2,4.1c0.7,1.5,1.1,3.3,1.1,5.3c0,3.7-1.1,6.7-3.4,9c-2.2,2.3-5.2,3.4-8.8,3.4
		C569.5,69.9,566.6,68.8,564.4,66.6z"/>
	<path class="st0" d="M614.6,23.4c0.2,0.2,0.2,0.3,0.2,0.6v5c0,0.2-0.1,0.4-0.2,0.6c-0.2,0.2-0.3,0.2-0.6,0.2h-8.4
		c-0.2,0-0.3,0.1-0.3,0.3v38.5c0,0.2-0.1,0.4-0.2,0.6c-0.2,0.2-0.3,0.2-0.6,0.2h-6c-0.2,0-0.4-0.1-0.6-0.2c-0.2-0.2-0.2-0.3-0.2-0.6
		V30.1c0-0.2-0.1-0.3-0.3-0.3h-7.9c-0.2,0-0.4-0.1-0.6-0.2c-0.2-0.2-0.2-0.3-0.2-0.6v-5c0-0.2,0.1-0.4,0.2-0.6
		c0.2-0.2,0.3-0.2,0.6-0.2h24.6C614.2,23.2,614.4,23.3,614.6,23.4z"/>
	<path class="st0" d="M634.9,68.6l-1.3-6.9c0-0.2-0.1-0.3-0.4-0.3h-9.6c-0.3,0-0.4,0.1-0.4,0.3l-1.3,6.9c0,0.5-0.3,0.7-0.9,0.7h-6
		c-0.6,0-0.9-0.3-0.7-0.9l9.8-44.6c0.1-0.5,0.4-0.7,0.9-0.7h7c0.5,0,0.8,0.2,0.9,0.7l9.8,44.6v0.3c0,0.4-0.2,0.6-0.7,0.6h-6.1
		C635.2,69.4,634.9,69.1,634.9,68.6z M624.7,55.4h7.3c0.3,0,0.4-0.1,0.3-0.3l-3.8-20.9c0-0.1-0.1-0.2-0.2-0.2
		c-0.1,0-0.2,0.1-0.2,0.2L624.3,55C624.3,55.3,624.4,55.4,624.7,55.4z"/>
	<path class="st0" d="M648.6,66.6c-2.3-2.2-3.4-5.1-3.4-8.7V34.6c0-3.6,1.1-6.5,3.4-8.7c2.3-2.2,5.3-3.3,9-3.3s6.8,1.1,9.1,3.3
		s3.5,5.1,3.5,8.7v2.6c0,0.2-0.1,0.4-0.2,0.6c-0.2,0.2-0.3,0.2-0.6,0.2h-6.1c-0.2,0-0.4-0.1-0.6-0.2c-0.2-0.2-0.2-0.3-0.2-0.6v-2.7
		c0-1.6-0.5-2.9-1.4-3.8c-0.9-1-2.1-1.5-3.5-1.5c-1.5,0-2.6,0.5-3.5,1.5s-1.3,2.2-1.3,3.8V58c0,1.6,0.4,2.9,1.3,3.8
		c0.9,1,2,1.5,3.5,1.5s2.6-0.5,3.5-1.5s1.4-2.2,1.4-3.8v-6.3c0-0.2-0.1-0.3-0.3-0.3h-4c-0.2,0-0.4-0.1-0.6-0.2
		c-0.2-0.2-0.2-0.3-0.2-0.6v-4.8c0-0.2,0.1-0.4,0.2-0.6c0.2-0.2,0.3-0.2,0.6-0.2h11.2c0.2,0,0.4,0.1,0.6,0.2
		c0.2,0.2,0.2,0.3,0.2,0.6V58c0,3.6-1.2,6.5-3.5,8.7s-5.3,3.3-9.1,3.3C653.9,69.9,650.9,68.8,648.6,66.6z"/>
	<path class="st0" d="M699.3,29.6c-0.2,0.2-0.3,0.2-0.6,0.2h-14.2c-0.2,0-0.3,0.1-0.3,0.3v12.5c0,0.2,0.1,0.3,0.3,0.3h8.4
		c0.2,0,0.4,0.1,0.6,0.2c0.2,0.2,0.2,0.3,0.2,0.6v5.1c0,0.2-0.1,0.4-0.2,0.6c-0.2,0.2-0.3,0.2-0.6,0.2h-8.4c-0.2,0-0.3,0.1-0.3,0.3
		v12.5c0,0.2,0.1,0.3,0.3,0.3h14.2c0.2,0,0.4,0.1,0.6,0.2c0.2,0.2,0.2,0.3,0.2,0.6v5c0,0.2-0.1,0.4-0.2,0.6
		c-0.2,0.2-0.3,0.2-0.6,0.2h-21.4c-0.2,0-0.4-0.1-0.6-0.2c-0.2-0.2-0.2-0.3-0.2-0.6V24c0-0.2,0.1-0.4,0.2-0.6
		c0.2-0.2,0.3-0.2,0.6-0.2h21.4c0.2,0,0.4,0.1,0.6,0.2c0.2,0.2,0.2,0.3,0.2,0.6v5C699.5,29.2,699.4,29.4,699.3,29.6z"/>
	<g>
		<path class="st0" d="M17.7,25.7c1.8,2.2,2.7,5.2,2.7,8.8c0,3.6-0.9,6.5-2.7,8.7c-1.8,2.2-4.1,3.3-7.1,3.3H2.7
			c-0.2,0-0.3,0.1-0.3,0.3v21.3c0,0.4-0.2,0.7-0.7,0.7H1.1c-0.4,0-0.7-0.2-0.7-0.7V23c0-0.4,0.2-0.7,0.7-0.7h9.4
			C13.5,22.4,15.9,23.5,17.7,25.7z M16.2,42c1.5-1.9,2.2-4.4,2.2-7.5c0-3.1-0.7-5.6-2.2-7.5c-1.5-1.9-3.4-2.8-5.7-2.8H2.7
			c-0.2,0-0.3,0.1-0.3,0.3v20.1c0,0.2,0.1,0.3,0.3,0.3h7.8C12.8,44.8,14.7,43.9,16.2,42z"/>
		<path class="st0" d="M30.4,66.5c-1.9-2-2.8-4.5-2.8-7.7v-26c0-3.2,0.9-5.8,2.8-7.8c1.9-2,4.4-3,7.4-3c3,0,5.5,1,7.5,3
			c1.9,2,2.9,4.6,2.9,7.8v26c0,3.2-1,5.8-2.9,7.7c-1.9,2-4.4,2.9-7.5,2.9C34.8,69.4,32.3,68.4,30.4,66.5z M43.8,65.1
			c1.5-1.6,2.3-3.7,2.3-6.3V32.6c0-2.6-0.8-4.7-2.3-6.3c-1.5-1.6-3.6-2.5-6-2.5c-2.4,0-4.4,0.8-5.9,2.5c-1.5,1.6-2.3,3.7-2.3,6.3
			v26.3c0,2.6,0.8,4.6,2.3,6.3c1.5,1.6,3.5,2.4,5.9,2.4C40.3,67.5,42.3,66.7,43.8,65.1z M31.4,14.3c-0.5-0.5-0.8-1.2-0.8-2.1
			c0-0.8,0.3-1.5,0.8-2c0.5-0.5,1.2-0.8,2.1-0.8c0.8,0,1.5,0.3,2.1,0.8c0.5,0.5,0.8,1.2,0.8,2c0,0.8-0.3,1.5-0.8,2.1
			c-0.5,0.5-1.2,0.8-2.1,0.8C32.6,15.1,32,14.9,31.4,14.3z M40,14.3c-0.5-0.5-0.8-1.2-0.8-2.1c0-0.8,0.3-1.5,0.8-2
			c0.5-0.5,1.2-0.8,2.1-0.8c0.8,0,1.5,0.3,2.1,0.8c0.5,0.5,0.8,1.2,0.8,2c0,0.8-0.3,1.5-0.8,2.1c-0.5,0.5-1.2,0.8-2.1,0.8
			C41.2,15.1,40.6,14.9,40,14.3z"/>
		<path class="st0" d="M76.7,24.3h-16c-0.2,0-0.3,0.1-0.3,0.3v19.9c0,0.2,0.1,0.3,0.3,0.3h10.5c0.4,0,0.7,0.2,0.7,0.7v0.5
			c0,0.4-0.2,0.7-0.7,0.7H60.7c-0.2,0-0.3,0.1-0.3,0.3v21.4c0,0.4-0.2,0.7-0.7,0.7h-0.7c-0.4,0-0.7-0.2-0.7-0.7V23.1
			c0-0.4,0.2-0.7,0.7-0.7h17.6c0.4,0,0.7,0.2,0.7,0.7v0.5C77.4,24.1,77.2,24.3,76.7,24.3z"/>
		<path class="st0" d="M102.9,24.3h-16c-0.2,0-0.3,0.1-0.3,0.3v19.9c0,0.2,0.1,0.3,0.3,0.3h10.5c0.4,0,0.7,0.2,0.7,0.7v0.5
			c0,0.4-0.2,0.7-0.7,0.7H86.8c-0.2,0-0.3,0.1-0.3,0.3v21.4c0,0.4-0.2,0.7-0.7,0.7h-0.7c-0.4,0-0.7-0.2-0.7-0.7V23.1
			c0-0.4,0.2-0.7,0.7-0.7h17.6c0.4,0,0.7,0.2,0.7,0.7v0.5C103.5,24.1,103.3,24.3,102.9,24.3z"/>
		<path class="st0" d="M141.1,25.7c1.8,2.2,2.7,5.2,2.7,8.8c0,3.6-0.9,6.5-2.7,8.7c-1.8,2.2-4.1,3.3-7.1,3.3h-7.9
			c-0.2,0-0.3,0.1-0.3,0.3v21.3c0,0.4-0.2,0.7-0.7,0.7h-0.7c-0.4,0-0.7-0.2-0.7-0.7V23c0-0.4,0.2-0.7,0.7-0.7h9.4
			C137,22.4,139.3,23.5,141.1,25.7z M139.6,42c1.5-1.9,2.2-4.4,2.2-7.5c0-3.1-0.7-5.6-2.2-7.5c-1.5-1.9-3.4-2.8-5.7-2.8h-7.8
			c-0.2,0-0.3,0.1-0.3,0.3v20.1c0,0.2,0.1,0.3,0.3,0.3h7.8C136.3,44.8,138.2,43.9,139.6,42z"/>
		<path class="st0" d="M163.3,36.1c0.3,0.2,0.4,0.5,0.3,0.9l-0.3,0.8c-0.1,0.4-0.4,0.6-0.9,0.3c-0.7-0.3-1.5-0.5-2.3-0.5
			c-1.9,0-3.5,1-4.8,2.9c-1.3,1.9-1.9,4.2-1.9,7.1v20.7c0,0.4-0.2,0.7-0.7,0.7h-0.7c-0.4,0-0.7-0.2-0.7-0.7V36.3
			c0-0.4,0.2-0.7,0.7-0.7h0.7c0.4,0,0.7,0.2,0.7,0.7v4.3c0,0.1,0,0.2,0.1,0.2c0.1,0,0.2-0.1,0.2-0.3c0.7-1.6,1.6-2.9,2.7-3.8
			c1.1-0.9,2.5-1.4,4-1.4C161.5,35.4,162.5,35.6,163.3,36.1z"/>
		<path class="st0" d="M171.1,66.7c-1.7-1.8-2.6-4.1-2.6-6.9v-15c0-2.8,0.8-5.1,2.6-6.9c1.7-1.8,3.9-2.7,6.6-2.7
			c2.7,0,4.9,0.9,6.6,2.7c1.7,1.8,2.6,4.1,2.6,6.9v15c0,2.8-0.9,5.1-2.6,6.9c-1.7,1.8-3.9,2.7-6.6,2.7
			C175,69.4,172.8,68.5,171.1,66.7z M182.9,65.4c1.3-1.4,2-3.3,2-5.6v-15c0-2.3-0.7-4.2-2-5.6c-1.3-1.4-3-2.2-5.2-2.2
			c-2.1,0-3.8,0.7-5.2,2.2c-1.3,1.4-2,3.3-2,5.6v15c0,2.3,0.7,4.2,2,5.6c1.3,1.4,3,2.2,5.2,2.2C179.8,67.5,181.6,66.8,182.9,65.4z"
			/>
		<path class="st0" d="M196.9,66.3c-1.8-2.1-2.8-4.9-2.8-8.3v-1.3c0-0.4,0.2-0.7,0.7-0.7h0.6c0.4,0,0.7,0.2,0.7,0.7v1.2
			c0,2.9,0.7,5.3,2.2,7.1c1.5,1.8,3.4,2.7,5.7,2.7c2.3,0,4.3-0.9,5.8-2.6c1.5-1.7,2.3-4,2.3-6.8c0-1.9-0.4-3.4-1.1-4.7
			c-0.7-1.3-1.6-2.4-2.6-3.3c-1-0.9-2.7-2.3-5.1-4c-2.3-1.7-4-3.1-5.2-4.3c-1.2-1.1-2.2-2.5-2.9-4c-0.8-1.5-1.1-3.3-1.1-5.4
			c0-3.3,0.9-5.8,2.7-7.7c1.8-1.9,4.1-2.8,6.9-2.8c3,0,5.4,1.1,7.3,3.2c1.8,2.1,2.8,4.9,2.8,8.3v1.7c0,0.4-0.2,0.7-0.7,0.7h-0.7
			c-0.4,0-0.7-0.2-0.7-0.7v-1.6c0-3-0.7-5.3-2.2-7.1c-1.5-1.8-3.4-2.7-5.8-2.7c-2.3,0-4.1,0.8-5.5,2.3c-1.4,1.5-2.1,3.7-2.1,6.6
			c0,1.6,0.3,3.1,0.9,4.3c0.6,1.2,1.4,2.3,2.6,3.4c1.1,1,2.8,2.4,4.9,4c2.6,1.9,4.5,3.5,5.8,4.7c1.3,1.2,2.2,2.4,2.9,3.8
			c0.7,1.4,1,3,1,5c0,3.5-0.9,6.3-2.8,8.4c-1.9,2.1-4.3,3.2-7.2,3.2C201.1,69.4,198.7,68.4,196.9,66.3z"/>
		<path class="st0" d="M224,66.7c-1.7-1.8-2.6-4.1-2.6-6.9v-15c0-2.8,0.8-5.1,2.6-6.9c1.7-1.8,3.9-2.7,6.6-2.7
			c1.8,0,3.3,0.4,4.7,1.2c1.4,0.8,2.5,1.8,3.2,3.1c0.8,1.3,1.2,2.7,1.2,4.1v0.2c0,0.4-0.2,0.7-0.7,0.7h-0.7c-0.4,0-0.7-0.2-0.7-0.7
			v-0.2c0-1.7-0.7-3.2-2-4.5c-1.3-1.3-3.1-2-5.1-2c-2.1,0-3.8,0.7-5.2,2.2c-1.3,1.4-2,3.3-2,5.6v15c0,2.3,0.7,4.2,2,5.6
			c1.3,1.4,3,2.2,5.2,2.2c2.1,0,3.8-0.7,5.1-2c1.3-1.3,2-2.8,2-4.5v-0.2c0-0.4,0.2-0.7,0.7-0.7h0.7c0.4,0,0.7,0.2,0.7,0.7v0.2
			c0,1.5-0.4,2.8-1.2,4.1c-0.8,1.3-1.9,2.3-3.2,3.1c-1.4,0.8-3,1.2-4.7,1.2C227.9,69.4,225.7,68.5,224,66.7z"/>
		<path class="st0" d="M259.6,36.1c0.3,0.2,0.4,0.5,0.3,0.9l-0.3,0.8c-0.1,0.4-0.4,0.6-0.9,0.3c-0.7-0.3-1.5-0.5-2.3-0.5
			c-1.9,0-3.5,1-4.8,2.9c-1.3,1.9-1.9,4.2-1.9,7.1v20.7c0,0.4-0.2,0.7-0.7,0.7h-0.7c-0.4,0-0.7-0.2-0.7-0.7V36.3
			c0-0.4,0.2-0.7,0.7-0.7h0.7c0.4,0,0.7,0.2,0.7,0.7v4.3c0,0.1,0,0.2,0.1,0.2c0.1,0,0.2-0.1,0.2-0.3c0.7-1.6,1.6-2.9,2.7-3.8
			c1.1-0.9,2.5-1.4,4-1.4C257.9,35.4,258.8,35.6,259.6,36.1z"/>
		<path class="st0" d="M282.5,52.7h-15.4c-0.2,0-0.3,0.1-0.3,0.3v6.8c0,2.3,0.7,4.2,2,5.6c1.3,1.4,3,2.2,5.2,2.2
			c1.7,0,3.2-0.5,4.4-1.5c1.2-1,2.1-2.4,2.5-4c0.1-0.4,0.4-0.6,0.7-0.6h0.7c0.2,0,0.4,0.1,0.5,0.2c0.1,0.2,0.1,0.3,0.1,0.6
			c-0.4,2.2-1.4,3.9-3,5.2c-1.6,1.3-3.6,2-5.9,2c-2.7,0-4.9-0.9-6.6-2.7c-1.7-1.8-2.6-4.1-2.6-6.9v-15c0-2.8,0.8-5.1,2.6-6.9
			c1.7-1.8,3.9-2.7,6.6-2.7c2.7,0,4.9,0.9,6.6,2.7c1.7,1.8,2.6,4.1,2.6,6.9V52C283.2,52.5,283,52.7,282.5,52.7z M268.9,39.2
			c-1.3,1.4-2,3.3-2,5.6v6c0,0.2,0.1,0.3,0.3,0.3H281c0.2,0,0.3-0.1,0.3-0.3v-6c0-2.3-0.7-4.2-2-5.6c-1.3-1.4-3-2.2-5.2-2.2
			C271.9,37,270.2,37.7,268.9,39.2z"/>
		<path class="st0" d="M308.5,52.7h-15.4c-0.2,0-0.3,0.1-0.3,0.3v6.8c0,2.3,0.7,4.2,2,5.6c1.3,1.4,3,2.2,5.2,2.2
			c1.7,0,3.2-0.5,4.4-1.5c1.2-1,2.1-2.4,2.5-4c0.1-0.4,0.4-0.6,0.7-0.6h0.7c0.2,0,0.4,0.1,0.5,0.2c0.1,0.2,0.1,0.3,0.1,0.6
			c-0.4,2.2-1.4,3.9-3,5.2c-1.6,1.3-3.6,2-5.9,2c-2.7,0-4.9-0.9-6.6-2.7c-1.7-1.8-2.6-4.1-2.6-6.9v-15c0-2.8,0.8-5.1,2.6-6.9
			c1.7-1.8,3.9-2.7,6.6-2.7c2.7,0,4.9,0.9,6.6,2.7c1.7,1.8,2.6,4.1,2.6,6.9V52C309.1,52.5,308.9,52.7,308.5,52.7z M294.8,39.2
			c-1.3,1.4-2,3.3-2,5.6v6c0,0.2,0.1,0.3,0.3,0.3h13.8c0.2,0,0.3-0.1,0.3-0.3v-6c0-2.3-0.7-4.2-2-5.6c-1.3-1.4-3-2.2-5.2-2.2
			C297.9,37,296.1,37.7,294.8,39.2z"/>
		<path class="st0" d="M333.2,37.9c1.5,1.8,2.2,4.2,2.2,7.4v23c0,0.4-0.2,0.7-0.7,0.7h-0.7c-0.4,0-0.7-0.2-0.7-0.7V45.5
			c0-2.7-0.6-4.7-1.8-6.2c-1.2-1.5-2.8-2.2-5-2.2c-2.2,0-3.9,0.8-5.2,2.4c-1.3,1.6-1.9,3.8-1.9,6.6v22.2c0,0.4-0.2,0.7-0.7,0.7h-0.7
			c-0.4,0-0.7-0.2-0.7-0.7V36.3c0-0.4,0.2-0.7,0.7-0.7h0.7c0.4,0,0.7,0.2,0.7,0.7v3.2c0,0.1,0,0.2,0.1,0.2c0.1,0,0.2-0.1,0.2-0.2
			c0.7-1.4,1.7-2.4,2.9-3.2c1.3-0.8,2.7-1.1,4.3-1.1C329.7,35.2,331.8,36.1,333.2,37.9z"/>
	</g>
</g>
</svg>
