<?xml version="1.0" encoding="utf-8"?>
<!-- Generator: Adobe Illustrator 25.2.3, SVG Export Plug-In . SVG Version: 6.00 Build 0)  -->
<svg version="1.1" id="Layer_1" xmlns="http://www.w3.org/2000/svg" xmlns:xlink="http://www.w3.org/1999/xlink" x="0px" y="0px"
	 viewBox="0 0 494 140" style="enable-background:new 0 0 494 140;" xml:space="preserve">
<style type="text/css">
	.st0{fill:#FFFFFF;}
	.st1{fill:#F79433;}
</style>
<g>
	<path class="st0" d="M43.6,130.5c-0.4-1.4-0.9-2.9-1.3-4.3c-0.4-1.4-0.9-2.8-1-4.2c-0.1-1.1,0.2-2.1,0.9-3c0.4-0.5,0.8-0.9,1.2-1.4
		c1.5-2,1.9-4.4,2.2-6.8c0.1-1,0-2,0-3c0-0.2,0.1-0.5-0.2-0.6c-0.2-0.1-0.3,0.2-0.5,0.3c-0.4,0.6-0.8,1.1-1.3,1.6
		c-1.2,1.2-2.4,2.5-3.6,3.8c-0.9,1-1.9,2-2.9,2.8c-0.9,0.8-1.8,1.6-2.5,2.7c-0.9,1.5-1.8,3-2.7,4.5s-1.4,3-1.4,4.8
		c-0.1,1.4,0,2.7,0.3,4c0.1,0.2,0.1,0.5,0.2,0.7c4.6,2.4,9.6,4.2,15.1,5.3c-0.4-1.1-0.8-2.2-1.2-3.3C44.5,133.2,44,131.9,43.6,130.5
		"/>
	<path class="st0" d="M79.5,126.9c-0.3-1.5-0.5-3-0.8-4.5c-0.3-2.3-0.7-4.6-0.9-6.9c-0.2-2.4-0.6-4.8-0.7-7.3c0-1.1-0.3-2.2-0.3-3.4
		c-0.1-1-0.4-1.3-1.2-1c-1.3,0.5-2.7,0.6-4.1,1c-0.6,0.2-1.3,0.2-1.9,0.3c-1.8,0.5-3.6,0.5-5.4,0.7c-1.5,0.1-3,0.1-4.5,0.1
		c-0.3,0-0.6,0.1-0.7,0.5c-0.4,1.7-1.5,2.9-2.5,4.1c-0.8,0.9-1.5,1.9-2.3,2.8c-1.1,1.5-2.2,3.1-3.2,4.7c-0.8,1.2-1.7,2.3-2.1,3.8
		c-0.2,0.6-0.3,1.3-0.5,2c-0.3,1.2-0.3,2.4,0.1,3.7c0.2,0.8,0.5,1.6,0.7,2.5c0.4,1.6,1.1,3.2,1.5,4.8c0.1,0.2,0.2,0.4,0.3,0.4
		c0.6,0.2,1,0.5,1.6,0.7c1,0.4,1.9,1,2.4,2c0.2,0.4,0.2,0.8,0.1,1.1h0.1c8.4,0.3,16.7-1,24.7-3.7c0-1.7-0.1-3.5-0.1-5.3
		C79.8,128.9,79.7,127.9,79.5,126.9"/>
	<path class="st0" d="M83.8,1.1C47.6-0.4,11.8,29.3,4,67.3c-5.5,26.3,3.9,49.8,22.2,62.2c-0.1-0.6-0.1-1.1-0.2-1.7
		c-0.3-1.8-0.3-3.6-0.3-5.5c0-0.5,0.1-0.9,0.3-1.4c0.4-0.9,0.9-1.7,1.4-2.5c0.6-1.1,1.2-2.2,1.9-3.2c1-1.4,1.7-3,2.3-4.6
		c0.4-1.1,0.6-2.1,0.9-3.2c0.3-1.3,0.5-2.6,0.4-3.9c-0.1-1.3-0.2-2.5-0.4-3.8c0,0-0.9-4.1-0.9-9.6c-0.7,1.4-1.4,3.8-2,6.6
		c-1.4,5.8-2.6,13.2-3.1,15.5c-0.9,4.1-0.8,4.1-1.8,4.2c-0.4,0.1-0.8-0.4-1-1.3c-0.6-2.9-6.1-10.1,0.4-26s16.4-22,28.4-23.5
		s25.2,0.1,27.8-4.7c2.3-4,5.5-9.5,6.8-11.8c0.2-0.3,0-1-0.2-1.5c-1.5-5,0.8-12.3,1.6-12.2c0.8,0.1,5.3,6.7,5.7,6.2
		c0.2-0.3,2.7-0.6,5.2-0.6s5,0.3,5.2,0.6c0.3,0.5,4.9-6,5.7-6.2c0.8-0.1,3,7.2,1.6,12.2c-0.1,0.5-0.2,1-0.2,1.5
		c0,0.9,0.2,1.7,0.5,2.5c0.4,1.2,2,8.5,1.1,15.7c-0.8,7.3-4.2,11-4.5,11.8s-0.3,6.1-2.7,10.8c0,0.2-0.1,0.4-0.1,0.6
		c-0.3,1.5-0.8,3-1.4,4.4c-0.3,0.7-0.5,1.4-0.8,2c-0.4,0.8-0.8,1.7-1.3,2.5c-0.9,1.6-2,3-3.1,4.4c-0.9,1.1-1.9,2.3-2.3,3.8
		c-0.1,0.2-0.1,0.5-0.3,0.6c-0.6,0.6-0.8,1.4-0.9,2.2c-0.1,1.1-0.4,2.2-0.7,3.3c-0.3,1.3-0.4,2.6-0.8,3.8c-0.2,0.7-0.1,1.4-0.3,2.1
		c-0.4,1.5-0.5,3.1-0.7,4.7c-0.1,1.6-0.3,3.3-0.2,5c20.7-11.6,37-32.4,42.1-56.7C143.1,34.6,120,2.5,83.8,1.1"/>
	<path class="st0" d="M86.9,128.5c0-2.5,0.1-5,0.1-7.5c0-1.5,0.3-2.9,0.4-4.4c0.1-1.6,0.4-3.2,0.6-4.9c0.1-0.5,0.4-0.9,0.3-1.5
		c0-0.7,0.2-1.3,0.4-1.9c0.3-1.3,0.6-2.6,1.1-3.8c0.2-0.5,0.3-1,0.2-1.6c-0.3,0.5-0.5,0.8-0.7,1.2c-0.6,1-1,2-1.4,3.1
		c-0.4,1.2-0.8,2.3-1,3.5c-0.3,1.5-0.5,3-0.6,4.5c-0.1,1.3-0.3,2.5-0.4,3.8c-0.1,2.4-0.3,4.9-0.4,7.3c-0.1,2.3-0.3,4.5,0,6.8
		c0.4-0.2,0.9-0.4,1.3-0.6c-0.1-0.6-0.2-1.1-0.2-1.7C86.6,130,86.9,129.2,86.9,128.5"/>
</g>
<g>
	<path class="st0" d="M195.9,32.2c15.1,0,21.1,10.5,21.1,21.3s-7.8,21.3-21.5,21.3h-13.4v24.5h-15.5V32.2H195.9z M182,61.1h11.4
		c5.8,0,8.1-3.4,8.1-7.5s-2.1-7.5-8.1-7.5H182V61.1z"/>
	<path class="st0" d="M250.9,100c-13.9,0-26.3-7.2-26.3-21.9V52.9c0-14.7,13.6-21.3,26.3-21.3c12.9,0,26.3,7.1,26.3,21.8v24.8
		C277.2,92.8,265,100,250.9,100z M241.5,12.7c4.2,0,7.6,3.3,7.6,7.5s-3.4,7.6-7.6,7.6c-4.2,0-7.5-3.4-7.5-7.6S237.3,12.7,241.5,12.7
		z M261.6,56.3c0-7.7-5.7-10.5-10.7-10.5s-10.8,2.8-10.8,10.5v19c0,7.7,5.8,10.5,10.8,10.5s10.7-2.8,10.7-10.5V56.3z M260.9,12.7
		c4.2,0,7.5,3.3,7.5,7.5s-3.3,7.6-7.5,7.6s-7.6-3.4-7.6-7.6S256.7,12.7,260.9,12.7z"/>
	<path class="st0" d="M301.5,59.3h26.8V73h-26.8v26.3H286V32.2h46.9V46h-31.4V59.3z"/>
	<path class="st0" d="M355.8,59.3h26.8V73h-26.8v26.3h-15.5V32.2h46.9V46h-31.4V59.3z"/>
	<g>
		<path class="st0" d="M424.5,71c-4.5,3.7-13.7,9-15.1,15.1h27.9v12.8h-42.8v-9.3c0-11.1,6.7-19,13.8-24.4
			c7.1-5.4,14.3-9.3,14.3-14.5c0-3.1-2.4-5.6-7.8-5.6c-4,0-8.7,1.4-12.4,4.7l-7.5-11.6c5.3-4.7,13.1-6.9,21-6.9
			c10.4,0,21.7,4.6,21.7,19.5C437.7,59.8,430.2,66.2,424.5,71z"/>
		<path class="st0" d="M469.4,99.4c-7.9,0-15.2-2.2-20.4-6.9l7.5-11.5c4.3,3.7,8.5,4.7,12.5,4.7c3.8,0,8.1-2.2,8.1-6.9v-6.9
			c0-3.7-1.8-5.4-4.8-5.4c-3.3,0-8,2.9-9.2,3.9l-12.8-5.1V31.8h39v12.8h-24.6v10.3c3-1.7,7.1-2.8,9.9-2.8c10.9,0,16.9,7.9,16.9,18.3
			v10.2C491.4,93.2,480.8,99.4,469.4,99.4z"/>
	</g>
</g>
<g>
	<path class="st1" d="M170.5,134.5v-15l-2,1.7l-2-2.6l4.3-3.8h3.3v19.7H170.5z"/>
	<path class="st1" d="M189.2,126.1c-1.6,1.3-4.4,2.8-4.7,5.2h8.5v3.3h-12.3v-2.8c0-3.2,2.1-5.3,4.3-7c2.1-1.5,4.3-2.9,4.3-4.5
		c0-1.3-1.3-2.1-2.8-2.1c-1.3,0-2.7,0.5-3.8,1.4l-1.9-2.9c1.5-1.3,3.5-2,5.8-2c3.1,0,6.3,1.4,6.3,5.5
		C193,122.7,190.9,124.7,189.2,126.1z"/>
	<path class="st1" d="M204.4,128.7v-3.2h9.3v3.2H204.4z"/>
	<path class="st1" d="M233.4,126.1c-1.6,1.3-4.4,2.8-4.7,5.2h8.5v3.3h-12.3v-2.8c0-3.2,2.1-5.3,4.3-7c2.1-1.5,4.3-2.9,4.3-4.5
		c0-1.3-1.3-2.1-2.8-2.1c-1.3,0-2.7,0.5-3.8,1.4l-1.9-2.9c1.5-1.3,3.5-2,5.8-2c3.1,0,6.3,1.4,6.3,5.5
		C237.3,122.7,235.2,124.7,233.4,126.1z"/>
	<path class="st1" d="M252.4,120.3c0,1.8-0.9,3.4-2.3,4.1c1.8,0.8,2.7,2.6,2.7,4.4c0,4.1-3.4,5.9-6.4,5.9c-3.3,0-6.3-1.7-6.3-5.7
		c0-2,1.3-3.9,2.7-4.5c-1.5-0.6-2.3-2.2-2.3-4.1c0-3.8,3.1-5.6,5.9-5.6C249.4,114.6,252.4,116.5,252.4,120.3z M243.3,128.9
		c0,1.8,1.3,2.9,3.1,2.9s3.1-1.1,3.1-2.9c0-1.7-1.5-2.9-3.1-2.9S243.3,127.1,243.3,128.9z M246.4,117.6c-1.5,0-2.9,1-2.9,2.8
		s1.4,2.8,2.9,2.8s2.9-1.1,2.9-2.8C249.3,118.6,248,117.6,246.4,117.6z"/>
	<g>
		<path class="st1" d="M268,122.1v12.4h-3.9v-19.7h3.5l4.6,6.7l3.7,5.7h0.1v-12.4h3.9v19.7h-3.6l-5-7.4L268,122.1L268,122.1z"/>
		<path class="st1" d="M290.8,134.7c-4.1,0-7.6-2.3-7.6-6.5V121c0-4.2,3.7-6.4,7.6-6.4s7.6,2.3,7.6,6.5v7.1
			C298.4,132.4,294.9,134.7,290.8,134.7z M294.4,121.8c0-2.6-1.8-3.6-3.6-3.6c-1.8,0-3.7,1-3.7,3.6v5.7c0,2.6,1.8,3.6,3.7,3.6
			c1.8,0,3.6-1,3.6-3.6V121.8z"/>
		<path class="st1" d="M308.7,128.7l2-7l2.1-6.9h4.1l-6.3,19.7h-4.1l-6.3-19.7h4.2l2.1,7.1l2,6.8H308.7z"/>
		<path class="st1" d="M334.4,126.1c-1.6,1.3-4.4,2.8-4.7,5.2h8.5v3.3h-12.3v-2.8c0-3.2,2.1-5.3,4.3-7c2.1-1.5,4.3-2.9,4.3-4.5
			c0-1.3-1.3-2.1-2.8-2.1c-1.3,0-2.7,0.5-3.8,1.4l-1.9-2.9c1.5-1.3,3.5-2,5.8-2c3.1,0,6.3,1.4,6.3,5.5
			C338.2,122.7,336.1,124.7,334.4,126.1z"/>
		<path class="st1" d="M347.3,134.6c-2.9,0-6.2-1.7-6.2-5.2v-9.5c0-3.6,3.4-5.3,6.2-5.3c2.9,0,6.2,1.7,6.2,5.3v9.5
			C353.5,133,350.1,134.6,347.3,134.6z M349.8,120.7c0-1.9-1.3-2.5-2.5-2.5s-2.5,0.7-2.5,2.5v8c0,1.8,1.4,2.5,2.5,2.5
			c1.2,0,2.5-0.7,2.5-2.5V120.7z"/>
		<path class="st1" d="M364.9,126.1c-1.6,1.3-4.4,2.8-4.7,5.2h8.5v3.3h-12.3v-2.8c0-3.2,2.1-5.3,4.3-7c2.1-1.5,4.3-2.9,4.3-4.5
			c0-1.3-1.3-2.1-2.8-2.1c-1.3,0-2.7,0.5-3.8,1.4l-1.9-2.9c1.5-1.3,3.5-2,5.8-2c3.1,0,6.3,1.4,6.3,5.5
			C368.7,122.7,366.6,124.7,364.9,126.1z"/>
		<path class="st1" d="M376.8,134.5v-15l-2,1.7l-2-2.6l4.3-3.8h3.3v19.7H376.8z"/>
	</g>
</g>
</svg>
