<?xml version="1.0" encoding="utf-8"?>
<!-- Generator: Adobe Illustrator 25.4.1, SVG Export Plug-In . SVG Version: 6.00 Build 0)  -->
<svg version="1.1" id="Layer_1" xmlns="http://www.w3.org/2000/svg" xmlns:xlink="http://www.w3.org/1999/xlink" x="0px" y="0px"
	 viewBox="0 0 1000 140" style="enable-background:new 0 0 1000 140;" xml:space="preserve">
<style type="text/css">
	.st0{fill:#29333A;}
	.st1{fill:#0019AF;}
	.st2{fill:#F79432;}
</style>
<g>
	<g>
		<g>
			<path class="st0" d="M730.1,61c-1.4,0-2.9,0.1-4.1,0.3v15.1c1.1,0.1,2.5,0.3,3.7,0.3c6,0,9.2-3.4,9.2-8.1
				C738.9,64.6,735.9,61,730.1,61 M729.6,78.7c-1.1,0-2.6-0.1-3.7-0.2v10.6h-2.3V59.4c2-0.2,4-0.4,6.1-0.4c7.7,0,11.5,4.4,11.5,9.5
				C741.3,74.5,737,78.7,729.6,78.7"/>
			<path class="st0" d="M762.3,55.6c-1,0-1.8-0.8-1.8-1.7s0.8-1.8,1.8-1.8c0.9,0,1.7,0.8,1.7,1.8C764,54.9,763.3,55.6,762.3,55.6
				 M755.4,55.6c-0.9,0-1.7-0.8-1.7-1.7s0.8-1.8,1.7-1.8s1.7,0.8,1.7,1.8C757.1,54.9,756.3,55.6,755.4,55.6 M758.9,60.9
				c-7.2,0-12.3,5.8-12.3,13.3s5.1,13.3,12.3,13.3s12.3-5.8,12.3-13.3C771.2,66.6,766,60.9,758.9,60.9 M758.8,89.5
				c-8.2,0-14.7-6.5-14.7-15.3s6.6-15.4,14.9-15.4c8.2,0,14.7,6.6,14.7,15.4S767,89.5,758.8,89.5"/>
			<polygon class="st0" points="780.8,61.3 780.8,73.4 794,73.4 794,75.5 780.8,75.5 780.8,89.1 778.5,89.1 778.5,59.2 795.4,59.2 
				795.4,61.3 			"/>
			<polygon class="st0" points="801.9,61.3 801.9,73.4 815.1,73.4 815.1,75.5 801.9,75.5 801.9,89.1 799.6,89.1 799.6,59.2 
				816.5,59.2 816.5,61.3 			"/>
			<path class="st0" d="M819.1,72h2.3v17h-2.3V72z M820.3,67.4c-0.9,0-1.6-0.7-1.6-1.6s0.7-1.7,1.6-1.7c0.9,0,1.6,0.8,1.6,1.7
				C821.9,66.6,821.2,67.4,820.3,67.4"/>
			<path class="st0" d="M841.2,73.7c-2.4,0-4.3,1-5.6,2.6v9c1.3,1.3,3.3,2.3,5.5,2.3c3.6,0,6.3-2.8,6.3-6.9
				C847.4,76.7,844.8,73.7,841.2,73.7 M841.1,89.4c-2.1,0-4-0.7-5.5-1.8v10.2h-2.2V72h2.2v2.1c1.4-1.3,3.4-2.4,6-2.4
				c4.6,0,8.1,3.7,8.1,8.8C849.6,85.6,846,89.4,841.1,89.4"/>
			<path class="st0" d="M865.4,79.3c-0.2-3.1-1.9-5.6-5.4-5.6c-3.3,0-5.3,2.2-5.6,5.6H865.4L865.4,79.3z M867.5,81h-13.2
				c0.2,3.6,2.3,6.4,7,6.4c1.6,0,3.3-0.4,4.8-1c0,0,0.4,2,0.4,1.9c-1.7,0.7-3.7,1.1-5.4,1.1c-6,0-9.1-3.9-9.1-8.8
				c0-4.8,3.1-8.9,8.1-8.9c4.8,0,7.4,3.6,7.4,8.2C867.5,80.3,867.5,80.6,867.5,81"/>
			<path class="st0" d="M881.2,81.9c-1.7-0.9-3-1.4-4.9-1.4c-2.6,0-4.5,1.2-4.5,3.5s1.8,3.5,4.6,3.5c2,0,3.7-0.9,4.8-2.2L881.2,81.9
				L881.2,81.9z M881.3,89.1v-1.8c-1.3,1.3-3.2,2.2-5.4,2.2c-3.5,0-6.3-1.9-6.3-5.3c0-3.2,2.8-5.3,6.3-5.3c2.2,0,3.7,0.6,5.2,1.3
				v-1.5c0-3.2-1.4-4.8-4.9-4.8c-1.4,0-3.1,0.4-4.4,0.9l-0.4-2c1.5-0.6,3.6-1,5.1-1c4.8,0,6.9,2.3,6.9,6.8v10.6L881.3,89.1
				L881.3,89.1L881.3,89.1z"/>
			<path class="st0" d="M892,89.4c-2.3,0-4.2-0.9-6-2.1l1.1-1.6c1.4,1.1,3.1,1.9,4.8,1.9c2.2,0,3.5-1.2,3.5-2.9
				c0-4.1-8.4-2.8-8.4-8.2c0-2.4,2-4.7,5.5-4.7c1.8,0,3.5,0.7,4.9,1.6l-1,1.7c-1.3-0.9-2.5-1.5-4-1.5c-2.3,0-3.3,1.2-3.3,2.6
				c0,3.9,8.4,2.6,8.4,8.1C897.4,87,895.2,89.4,892,89.4"/>
			<path class="st0" d="M908.5,73.7c-2.4,0-4.3,1-5.6,2.6v9c1.3,1.3,3.3,2.3,5.5,2.3c3.6,0,6.3-2.8,6.3-6.9
				C914.7,76.7,912.2,73.7,908.5,73.7 M908.5,89.4c-2.1,0-4-0.7-5.5-1.8v10.2h-2.2V72h2.2v2.1c1.4-1.3,3.4-2.4,6-2.4
				c4.6,0,8.1,3.7,8.1,8.8C917,85.6,913.4,89.4,908.5,89.4"/>
			<path class="st0" d="M927.9,73.6c-3.7,0-6.2,2.9-6.2,6.9s2.5,6.9,6.2,6.9s6.2-2.9,6.2-6.9S931.6,73.6,927.9,73.6 M927.9,89.4
				c-5,0-8.4-3.9-8.4-8.8s3.5-8.8,8.5-8.8s8.4,3.9,8.4,8.8C936.4,85.4,932.9,89.4,927.9,89.4"/>
			<path class="st0" d="M951.7,89.1v-11c0-2.8-1.2-4.4-3.9-4.4c-2.2,0-4.3,1.5-5.9,3.3v12.1h-2.2v-17h2.2V75c1.7-1.8,4-3.3,6.5-3.3
				c3.9,0,5.7,2.5,5.7,5.9v11.5H951.7L951.7,89.1z"/>
			<path class="st0" d="M962.6,89.4c-2.3,0-4.2-0.9-6-2.1l1.1-1.6c1.4,1.1,3.1,1.9,4.8,1.9c2.2,0,3.5-1.2,3.5-2.9
				c0-4.1-8.4-2.8-8.4-8.2c0-2.4,2-4.7,5.5-4.7c1.8,0,3.5,0.7,4.9,1.6l-1,1.7c-1.3-0.9-2.5-1.5-3.9-1.5c-2.3,0-3.3,1.2-3.3,2.6
				c0,3.9,8.4,2.6,8.4,8.1C968,87,965.9,89.4,962.6,89.4"/>
			<path class="st0" d="M978.9,73.6c-3.7,0-6.2,2.9-6.2,6.9s2.5,6.9,6.2,6.9s6.2-2.9,6.2-6.9S982.6,73.6,978.9,73.6 M978.9,89.4
				c-5,0-8.4-3.9-8.4-8.8s3.5-8.8,8.5-8.8s8.4,3.9,8.4,8.8C987.4,85.4,983.9,89.4,978.9,89.4"/>
			<path class="st0" d="M992.9,77.4v11.7h-2.2V72h2.2v3.2c1.5-2.2,3.8-3.6,6.2-3.6v2.2C996.6,74,994.2,75.1,992.9,77.4"/>
		</g>
		<path class="st1" d="M697.4,49.5c0-1.2,1-2.1,2.2-2.1s2.1,1,2.1,2.1V102c0,1.2-1,2.1-2.1,2.1s-2.2-1-2.2-2.1V49.5z"/>
		<path class="st1" d="M565.9,51c0,2.6,0.2,6.5,0.6,10.5c0.2,2,0.5,3.3,0.6,3.9c0.1,0.3,0.2,0.3,0.2,0.3c0.1,0,0.1,0,0.3-0.2
			c0.6-0.6,1.3-2.6,1.8-3.8c1.7-4,2.8-8.4,3.5-13.1c0.1-0.6,0.8-5.6-0.7-7.7c-0.4-0.5-0.9-1.1-1.5-1.1c-0.1,0-0.2,0-0.4,0
			c-1.2,0-4,0.9-4.2,7.5C566,47.1,565.9,50.2,565.9,51z M538.3,62.7c-2.6,0-4.9,1-5,1.1c-4.5,1.9-7.7,5-9.2,9c0,0.1-0.7,1.7-0.3,2.3
			c0.3,0.4,1,0.4,1.8,0.4h0.1c7.7-0.2,13.4-0.9,16-4.2c0.1-0.1,2.3-2.7,2.1-5.1c-0.1-0.9-0.6-1.7-1.3-2.3
			C541.2,63.1,539.9,62.7,538.3,62.7z M656.7,79.2c-8.6,0.2-13.1,1.3-15.5,3.8c-1.1,1.1-1.7,2.5-1.9,4.2c0,0.1-0.2,1.7,0.8,2.9
			c0.7,0.8,1.6,1.3,2.9,1.4c0,0,0.1,0,0.4,0c1.9,0,11.4-0.5,14.9-9.6c0-0.1,0.6-1.5,0.1-2.2c-0.2-0.3-0.8-0.4-1.6-0.4
			C656.8,79.2,656.7,79.2,656.7,79.2 M643.8,100.1c-2.9,0-6.9-0.4-9.3-2.5c-4.3-3.7-3.4-11.2-3.4-11.6c0.6-4.9,3.3-11.3,12.4-14
			c4.2-1.2,8.9-1.5,12.1-1.6c0.4,0,1.9,0,2.1-0.6c0.2-0.6-1.1-1.7-1.9-2.2c-2.5-1.7-8.6-4.6-22.3-4.6c-0.1,0-1.3,0-1.9,0
			c-5.8,0-13.5,1-17.5,3.4c-0.9,0.6-1.5,1.2-1.6,2c-0.1,1.4,1.2,2.5,1.3,2.6l0,0c1.2,0.9,2.6,1.7,3.5,2.1l0.4,0.2c2.1,1,6.1,3,8,7
			c1,2.2,1.4,4.6,1.2,6.9c-1.4,12.6-15.7,12.8-16.3,12.8l0,0c-5.9,0-10.2-2.2-12.7-4.1c0,0-4-2.5-5.6-7.3c0-0.1-0.3-1-0.4-1.2
			c-0.2-0.7-0.6-2.3-1-2.4c-0.6-0.1-1.6,2-1.9,2.5c-0.7,1.2-1.5,2.7-1.8,3.1c-1.6,2.6-5.6,9.3-11.8,9.3c-1.6,0-3.2-0.5-4.9-1.4
			c-4-2.2-5.1-5.5-6-8.1c-0.3-0.7-0.5-1.5-0.7-2.2c-1-3-1.2-3.1-3.5-1c-2.2,1.9-4.2,3.9-6.1,5.3c-2.9,2.3-8.8,6.2-15.3,7.1
			c-1.6,0.2-3.2,0.4-4.7,0.4c-6,0-10.5-1.7-13.3-5.1c-2.2-2.6-3.9-6-5-9.6c-0.7-2.2-0.9-1.9-2.7-2.2c-2.2-0.4-3.8-0.7-6.4-1.3
			c-1.1-0.2-2-0.9-2.6-1.9s-0.8-2.1-0.6-3.2c0.4-2,2.1-3.4,4-3.4c0.3,0,0.6,0,0.9,0.1c0.4,0.1,0.8,0.2,1.2,0.3
			c1,0.2,2.9,0.6,3.6,0.7c0.1,0,0.3,0,0.4,0c1.3,0.1,1.4-0.1,1.8-1.7c0-0.2,0.1-0.4,0.1-0.6c1.9-7.7,7.5-13.6,15-16.5
			c1.8-0.7,4.8-1.3,8.1-1.3c2.9,0,6.8,0.5,9.3,2.6c4.2,3.5,4.2,8.7,3.9,11.5c-0.4,3.2-2.4,10.8-12.9,14c-3.2,1-7,1.5-12.3,1.6
			c-0.7,0-1.5-0.1-1.7,0.4c-0.3,0.7,0.4,1.7,0.4,1.8c1.1,2,3.9,5.3,9.5,5.3c1,0,2.1-0.1,3.2-0.3c5.1-0.9,9.5-3.7,13.1-6.4
			c2.7-2.1,6.1-5.5,7.7-7.2c0.1-0.1,0.5-0.5,0.8-1.2c0.2-0.4,0.3-0.8,0.3-1.4c0.1-0.5,0-1.2-0.1-1.9c-0.1-0.4-1.3-8.4-1.4-9
			c-0.7-5.7-0.9-10.3-0.8-13.3c0-0.2,0.1-14.8,9-18.2c0.1,0,1.3-0.5,3.2-0.4c3.2,0.1,6,1.2,7.8,3.3c4,4.7,3.9,10.1,3.3,14.3
			c-1.4,10.1-4.9,19.1-10.5,26.8c-1.1,1.3-0.7,2.7-0.6,3c0.7,2.5,1.5,5.5,2.4,8.1c0,0.1,1,3.1,3.2,3.2c1.8,0.1,5-5.1,5-5.1
			c0.1-0.2,7.6-11.2,8.4-21.9c0-0.1,0.2-2-0.1-4.4c0-0.1-0.3-2.5,0.9-3.9c0.6-0.7,1.6-1.1,2.8-1.1c4.2,0,4.6,5,4.7,5.2
			c0,0.4,0.1,0.8,0.1,1.3c0.1,1.5,1.2,14.6,1.8,20c0,0.1,1.3,11.4,10.2,11.5c0.1,0,0.4,0,0.8,0c5.3,0,8.5-2.2,8.6-5.9
			c0.1-0.5,0.1-2.9-4.8-5.4c-1.5-0.7-4.6-2.6-6.1-3.9c-0.1-0.1-0.3-0.2-0.3-0.2c-5.9-4.9-4-10.2-3.3-11.8c2.4-5.1,8.3-8.4,17.4-9.9
			c4.3-0.7,8.4-0.8,10.4-0.8c0.7,0,1.2,0,1.4,0c25,0,30.6,9.1,31.5,10.9c0.6,1.3,1.2,2.6,1.6,4c0.3,1,0.3,1.4,1.8,1.5
			c0.7,0,1.3,0.1,1.8,0.1c1.4,0.1,2.2,0.2,4.5,0.6c1,0.2,1.9,0.9,2.5,1.8c0.6,1,0.8,2.2,0.6,3.4c-0.4,2-2.1,3.3-4.1,3.3
			c-0.3,0-0.5,0-0.8-0.1c-1.5-0.3-2.1-0.3-2.8-0.4c-0.2,0-0.4,0-0.7-0.1c-0.1,0-0.2,0-0.3,0c-1.5,0-1.6,0.3-1.8,1.4
			c-0.2,1.4-0.6,2.8-1.1,4.1c-2.4,6.4-7.6,11.5-14.2,14C650.4,99.6,647.6,100.1,643.8,100.1L643.8,100.1L643.8,100.1z M591.7,37.2
			c-2.6,0-4.5,2-4.6,4.7c-0.1,2.9,2.2,5.6,5,5.9c0.2,0,0.4,0,0.5,0c2.6,0,4.5-2,4.6-4.7c0.1-2.9-2.2-5.6-5.1-5.9
			C592,37.2,591.9,37.2,591.7,37.2"/>
	</g>
	<g>
		<g>
			<path class="st0" d="M193.4,25.3c15.1,0,21.1,10.5,21.1,21.3s-7.8,21.3-21.5,21.3h-13.4v24.5h-15.5V25.3H193.4z M179.5,54.2h11.4
				c5.8,0,8.1-3.4,8.1-7.5s-2.1-7.5-8.1-7.5h-11.4V54.2z"/>
			<path class="st0" d="M248.4,93.1c-13.9,0-26.3-7.2-26.3-21.9V46c0-14.7,13.6-21.3,26.3-21.3c12.9,0,26.3,7.1,26.3,21.8v24.8
				C274.7,85.9,262.5,93.1,248.4,93.1z M239,5.8c4.2,0,7.6,3.3,7.6,7.5s-3.4,7.6-7.6,7.6c-4.2,0-7.5-3.4-7.5-7.6S234.8,5.8,239,5.8z
				 M259.1,49.4c0-7.7-5.7-10.5-10.7-10.5s-10.8,2.8-10.8,10.5v19c0,7.7,5.8,10.5,10.8,10.5s10.7-2.8,10.7-10.5V49.4z M258.4,5.8
				c4.2,0,7.5,3.3,7.5,7.5s-3.3,7.6-7.5,7.6s-7.6-3.4-7.6-7.6S254.2,5.8,258.4,5.8z"/>
			<path class="st0" d="M299,52.4h26.8v13.7H299v26.3h-15.5V25.3h46.9v13.8H299V52.4z"/>
			<path class="st0" d="M353.3,52.4h26.8v13.7h-26.8v26.3h-15.5V25.3h46.9v13.8h-31.4V52.4z"/>
		</g>
		<g>
			<path class="st2" d="M168.1,128.6v-15.2l-2,1.7l-2-2.6l4.3-3.8h3.3v19.9H168.1z"/>
			<path class="st2" d="M187,120.1c-1.6,1.3-4.4,2.8-4.7,5.3h8.6v3.3h-12.4v-2.8c0-3.2,2.1-5.4,4.3-7.1c2.1-1.5,4.3-2.9,4.3-4.5
				c0-1.3-1.3-2.1-2.8-2.1c-1.3,0-2.7,0.5-3.8,1.4l-1.9-2.9c1.5-1.3,3.5-2,5.9-2c3.1,0,6.4,1.4,6.4,5.6
				C190.8,116.6,188.7,118.7,187,120.1z"/>
			<path class="st2" d="M202.3,122.7v-3.2h9.4v3.2H202.3z"/>
			<path class="st2" d="M231.6,120.1c-1.6,1.3-4.4,2.8-4.7,5.3h8.6v3.3H223v-2.8c0-3.2,2.1-5.4,4.3-7.1c2.1-1.5,4.3-2.9,4.3-4.5
				c0-1.3-1.3-2.1-2.8-2.1c-1.3,0-2.7,0.5-3.8,1.4l-1.9-2.9c1.5-1.3,3.5-2,5.9-2c3.1,0,6.4,1.4,6.4,5.6
				C235.5,116.6,233.4,118.7,231.6,120.1z"/>
			<path class="st2" d="M250.8,114.2c0,1.8-0.9,3.4-2.3,4.1c1.8,0.8,2.7,2.6,2.7,4.4c0,4.1-3.4,6-6.5,6c-3.3,0-6.4-1.7-6.4-5.8
				c0-2,1.3-3.9,2.7-4.5c-1.5-0.6-2.3-2.2-2.3-4.1c0-3.8,3.1-5.7,6-5.7C247.8,108.4,250.8,110.4,250.8,114.2z M241.6,122.9
				c0,1.8,1.3,2.9,3.1,2.9c1.8,0,3.1-1.1,3.1-2.9c0-1.7-1.5-2.9-3.1-2.9S241.6,121.1,241.6,122.9z M244.7,111.5
				c-1.5,0-2.9,1-2.9,2.8s1.4,2.8,2.9,2.8c1.5,0,2.9-1.1,2.9-2.8C247.7,112.5,246.3,111.5,244.7,111.5z"/>
			<g>
				<path class="st2" d="M266.5,116v12.5h-3.9v-19.9h3.5l4.6,6.8l3.7,5.8h0.1v-12.5h3.9v19.9h-3.6l-5.1-7.5L266.5,116L266.5,116z"/>
				<path class="st2" d="M289.6,128.8c-4.1,0-7.7-2.3-7.7-6.6v-7.3c0-4.2,3.7-6.5,7.7-6.5s7.7,2.3,7.7,6.6v7.2
					C297.3,126.4,293.7,128.8,289.6,128.8z M293.2,115.7c0-2.6-1.8-3.6-3.6-3.6c-1.8,0-3.7,1-3.7,3.6v5.8c0,2.6,1.8,3.6,3.7,3.6
					c1.8,0,3.6-1,3.6-3.6V115.7z"/>
				<path class="st2" d="M307.7,122.7l2-7.1l2.1-7h4.1l-6.4,19.9h-4.1l-6.4-19.9h4.2l2.1,7.2l2,6.9H307.7z"/>
				<path class="st2" d="M333.6,120.1c-1.6,1.3-4.4,2.8-4.7,5.3h8.6v3.3H325v-2.8c0-3.2,2.1-5.4,4.3-7.1c2.1-1.5,4.3-2.9,4.3-4.5
					c0-1.3-1.3-2.1-2.8-2.1c-1.3,0-2.7,0.5-3.8,1.4l-1.9-2.9c1.5-1.3,3.5-2,5.9-2c3.1,0,6.4,1.4,6.4,5.6
					C337.5,116.6,335.3,118.7,333.6,120.1z"/>
				<path class="st2" d="M346.7,128.7c-2.9,0-6.3-1.7-6.3-5.3v-9.6c0-3.6,3.4-5.4,6.3-5.4c2.9,0,6.3,1.7,6.3,5.4v9.6
					C352.9,127,349.5,128.7,346.7,128.7z M349.2,114.6c0-1.9-1.3-2.5-2.5-2.5c-1.2,0-2.5,0.7-2.5,2.5v8.1c0,1.8,1.4,2.5,2.5,2.5
					c1.2,0,2.5-0.7,2.5-2.5V114.6z"/>
				<path class="st2" d="M364.4,120.1c-1.6,1.3-4.4,2.8-4.7,5.3h8.6v3.3h-12.4v-2.8c0-3.2,2.1-5.4,4.3-7.1c2.1-1.5,4.3-2.9,4.3-4.5
					c0-1.3-1.3-2.1-2.8-2.1c-1.3,0-2.7,0.5-3.8,1.4l-1.9-2.9c1.5-1.3,3.5-2,5.9-2c3.1,0,6.4,1.4,6.4,5.6
					C368.3,116.6,366.1,118.7,364.4,120.1z"/>
				<path class="st2" d="M376.5,128.6v-15.2l-2,1.7l-2-2.6l4.3-3.8h3.3v19.9H376.5z"/>
			</g>
		</g>
		<g>
			<path class="st0" d="M83.9,26c0,10.4-8.5,17.7-15.1,23.2c-5.1,4.2-15.6,10.3-17.2,17.2h18.8c1-1.7,1.9-3.3,2.9-5
				c0.7-1.1,0.5-2,0.3-3.3c-0.1-0.7-0.3-1.4-0.3-2.3c-0.1-2.4,0.2-4.9,0.9-7.2c0-0.2,0.1-0.3,0.1-0.4c0.3-0.9,0.6-1.9,1.5-2.4
				c0.4-0.2,1-0.4,1.9,0c1.5,0.6,2.4,2.1,3.2,3.5c0.6,1,1.2,2.2,1.9,2.4c0.2,0,0.8-0.2,1.1-0.3c0.6-0.1,0.9-0.2,1.2-0.3
				c1.5-0.1,3-0.2,4.6-0.1V19.7h33.1c-7.3-8-17-13.9-28.6-16.8C82.9,0.1,71,0.6,59.7,3.8C71.4,4,83.9,9.3,83.9,26z"/>
			<path class="st0" d="M30.4,128.4c0.6-1.7,1-3.6,1.1-5c0,0,0,0,0,0.1c-0.3,0.4-0.5,0.7-0.8,1c-0.4,0.4-0.7,0.7-1.1,1.1
				c-1.3,1.3-2.5,2.7-3.9,4c0.9,0.6,1.8,1.1,2.7,1.7c0.1-0.2,0.3-0.4,0.4-0.6C29.5,129.9,30.1,129.2,30.4,128.4z"/>
			<path class="st0" d="M6.9,106.2L6.9,106.2c0,0,0-0.1,0.1-0.2c0-0.1,0-0.1,0.1-0.2l3.5-8.7c0-0.1,0.1-0.1,0.1-0.2s0.1-0.2,0.1-0.2
				l0,0c0.2-0.3,0.4-0.6,0.6-0.7c4.4-8.3,10.3-14,17.6-17.1c1.9-0.8,3.8-1.3,5.7-1.8v-6.9c0-12.6,7.7-21.6,15.7-27.8
				c8.1-6.1,16.3-10.6,16.3-16.5c0-3.5-2.8-6.4-8.9-6.4c-4.5,0-9.9,1.6-14.1,5.3l-6.8-10.6C22.8,23.7,11.1,37.6,4.8,54.4
				c-7.3,19.3-6,38.6,1.8,53.9c0.1-0.4,0.2-0.7,0.3-1.1C6.8,106.9,6.8,106.6,6.9,106.2z"/>
			<path class="st0" d="M65.2,134.5c-0.3-1.8-0.4-3.7-0.6-5.5c-0.1-1-0.2-1.9-0.3-2.9c-0.2-1.4-0.3-2.9-0.4-4.3v-0.1
				c0-0.3,0-0.6,0-1.1s0-1.7-0.1-2.3c-0.6,0-2,0.4-2.6,0.6s-1,0.3-1.4,0.4c-2.8,0.6-5.5,0.9-8.3,1.1c-0.5,0-1.1,0-1.6,0
				c-0.7,0-1.4,0-2,0.1c-0.1,0-0.2,0-0.3,0.1c0,0,0,0,0,0.1c-0.1,0.2-0.2,0.5-0.4,0.9c-0.8,1.7-2,3.1-3.1,4.4
				c-0.5,0.6-1,1.2-1.4,1.8l-0.5,0.7c-1.7,2.2-3.4,4.5-4.5,6.9c2,0.7,4,1.3,6.1,1.8c7.3,1.8,14.7,2.2,22.1,1.5
				c-0.2-1.3-0.4-2.7-0.6-4L65.2,134.5z"/>
			<path class="st0" d="M103.1,64.7c0.6,2.7,0.9,5.6,1,8.7c0.1,2.3,0,4.4-0.3,6.4c2.5,0.9,5,1.3,7.5,1.3c4.3,0,9.2-2.6,9.2-7.9v-7.9
				c0-4.2-2-6.1-5.4-6.1c-3.8,0-9.1,3.3-10.5,4.4l-1.8-0.7c0,0.1,0.1,0.3,0.1,0.4C102.9,63.7,103,64.2,103.1,64.7z"/>
			<path class="st0" d="M17.8,116.1c-0.1-1.5-0.3-3.1-0.5-4.6c-0.1-0.7-0.2-1.4-0.3-2.2c-0.7,2.8-1.2,5.8-1.7,8.7
				c-0.1,0.8-0.2,1.5-0.4,2.2c0.7,0.7,1.4,1.5,2.1,2.2C17.7,120.5,18,118.4,17.8,116.1z"/>
			<path class="st0" d="M111.8,96.7c-4.7,0-9.2-0.7-13.3-2.1c0,0.3-0.1,0.6-0.1,0.9c-0.1,1-0.2,2-0.4,2.9c-0.6,2.6-1.5,5.2-2.4,7.7
				l-0.2,0.6c-1.3,3.7-2.8,6.7-4.5,9.1c-0.3,0.4-0.6,0.9-0.9,1.3c-1.3,1.8-2.4,3.3-3.3,5.3s-1.3,4.3-1.7,6.6
				c-0.1,0.6-0.2,1.2-0.3,1.8c-0.3,1.4-0.5,2.7-0.7,3.9c20.8-7.5,39.1-24.1,48.2-46C127.3,94,119.7,96.7,111.8,96.7z"/>
			<path class="st0" d="M106.2,46c3.4-1.9,8.1-3.2,11.3-3.2c12.4,0,19.3,9,19.3,20.8v9.2c2.6-13.8,0.9-27.1-4.3-38.5h-26.3V46z"/>
			<path class="st0" d="M18,123.5c0.8-2.4,1.3-4.8,1.1-7.6c-0.4-4.3-1.2-8.5-1.2-12.9c-2.4,4.8-3.2,10.6-4.1,16
				c0.4,0.4,0.7,0.9,1.1,1.3c0.1-0.7,0.2-1.5,0.4-2.2c0.5-2.9,1-5.9,1.7-8.7c0.1,0.7,0.2,1.4,0.3,2.2c0.2,1.5,0.4,3,0.5,4.6
				c0.2,2.3-0.1,4.4-0.8,6.4C17.3,122.9,17.7,123.2,18,123.5z"/>
			<path class="st0" d="M31.6,128.8c0.5-1.5,1.8-6.1,0.9-7.5c-0.4-0.6,0.1-0.6-0.7-0.3c-0.7,0.3-1.6,1.9-2.1,2.5
				c-1.7,1.8-3.3,3.6-5.1,5.3c0.4,0.3,0.7,0.5,1.1,0.8c1.4-1.3,2.6-2.7,3.9-4c0.4-0.4,0.7-0.7,1.1-1.1c0.2-0.3,0.5-0.6,0.8-1
				c0,0,0,0,0-0.1c-0.1,1.3-0.6,3.3-1.1,5c-0.3,0.8-0.9,1.5-1.5,2.3c-0.1,0.2-0.3,0.4-0.4,0.6c0.4,0.2,0.8,0.4,1.2,0.6
				C30.4,130.9,31.2,130,31.6,128.8z"/>
			<path class="st0" d="M10.1,102C3.3,118.5,16.8,85.4,10.1,102c3.8-9.3,9.9-17.8,19.4-21.8c1.7-0.7,3.4-1.2,5.2-1.7v-1.3
				c-1.9,0.4-3.8,1-5.7,1.8c-7.3,3-13.2,8.8-17.6,17.1c-0.2,0.1-0.4,0.4-0.6,0.7l0,0c0,0,0,0.1-0.1,0.2c0,0.1-0.1,0.1-0.1,0.2
				l-3.5,8.7c0,0.1-0.1,0.1-0.1,0.2s-0.1,0.2-0.1,0.2l0,0c-0.1,0.4-0.1,0.7-0.1,1c-0.1,0.4-0.2,0.7-0.3,1.1c0.3,0.6,0.6,1.2,0.9,1.8
				C8.1,107.3,9,104.6,10.1,102z"/>
			<path class="st0" d="M101.8,64.9c0.6,2.8,0.9,5.7,1,8.5c0.1,1.9,0,3.9-0.3,5.8c0.4,0.2,0.8,0.4,1.3,0.5c0.3-2,0.4-4.1,0.3-6.4
				c-0.1-3.1-0.4-6.1-1-8.7c-0.1-0.5-0.2-0.9-0.3-1.4c0-0.1-0.1-0.3-0.1-0.4l-1.5-0.6C101.3,63.2,101.6,64,101.8,64.9z"/>
			<path class="st0" d="M84.9,128.9c0.4-2.3,0.9-4.6,1.7-6.6c0.9-2,2-3.5,3.3-5.3c0.3-0.4,0.6-0.8,0.9-1.3c1.7-2.4,3.2-5.4,4.5-9.1
				l0.2-0.6c0.9-2.5,1.8-5.1,2.4-7.7c0.2-0.9,0.3-1.9,0.4-2.9c0-0.3,0.1-0.6,0.1-0.9c-0.4-0.1-0.9-0.3-1.3-0.5
				c-0.2,1.3-0.2,2.8-0.5,4c-0.7,2.7-1.7,5.5-2.6,8.1c-1.1,3.1-2.4,6.1-4.3,8.8c-1.7,2.3-3.2,4.2-4.4,6.8c-1.2,2.7-1.6,5.7-2.2,8.7
				c-0.3,1.6-0.6,3.1-0.8,4.7c0.5-0.2,0.9-0.3,1.4-0.5c0.2-1.2,0.4-2.5,0.7-3.9C84.6,130.1,84.7,129.5,84.9,128.9z"/>
			<path class="st0" d="M66.5,134.3c-0.4-2.8-0.6-5.5-0.9-8.3c-0.2-1.4-0.3-2.9-0.4-4.3c-0.1-0.9,0.1-3.4-0.5-4.1
				c-0.9-1.1-4,0.4-5.3,0.7c-2.7,0.5-5.4,0.9-8.1,1.1c-1.2,0.1-2.6-0.1-3.7,0.1c-1.4,0.3-1,0.4-1.6,1.7c-1.1,2.2-3,4-4.5,6
				c-1.8,2.4-3.9,5-5.2,7.9c0.4,0.2,0.8,0.3,1.2,0.5c1-2.4,2.8-4.8,4.5-6.9l0.5-0.7c0.4-0.6,0.9-1.2,1.4-1.8
				c1.1-1.4,2.3-2.8,3.1-4.4c0.2-0.4,0.3-0.7,0.4-0.9c0,0,0,0,0-0.1c0.1,0,0.2,0,0.3-0.1c0.5-0.1,1.3-0.1,2-0.1c0.5,0,1.1,0,1.6,0
				c2.7-0.2,5.4-0.5,8.3-1.1c0.4-0.1,0.9-0.2,1.4-0.4c0.6-0.2,2-0.7,2.6-0.6c0.1,0.5,0.1,1.7,0.1,2.3c0,0.4,0,0.8,0,1.1v0.1
				c0.1,1.4,0.2,2.8,0.4,4.3c0.1,1,0.2,1.9,0.3,2.9c0.2,1.8,0.4,3.6,0.6,5.5v0.3c0.2,1.4,0.4,2.7,0.6,4c0.4,0,0.9-0.1,1.3-0.1
				C66.9,137.2,66.7,135.7,66.5,134.3z"/>
			<path class="st0" d="M85.2,51c-0.3,0-0.7,0.1-1.2,0.3c-0.3,0.1-0.8,0.2-1.1,0.3c-0.7-0.2-1.3-1.4-1.9-2.4c-0.8-1.5-1.7-3-3.2-3.5
				c-0.9-0.3-1.5-0.2-1.9,0c-0.9,0.4-1.2,1.5-1.5,2.4c0,0.1-0.1,0.3-0.1,0.4c-0.7,2.3-1,4.8-0.9,7.2c0,0.9,0.2,1.6,0.3,2.3
				c0.2,1.4,0.4,2.2-0.3,3.3c-1,1.6-1.9,3.3-2.9,5H72c0.8-1.4,1.7-2.9,2.5-4.3c1.3-2.2,0.3-3.8,0.2-6.4c-0.1-2.3,0.2-4.6,0.9-6.8
				c0.4-1.3,0.5-2.5,1.8-2c2.3,0.9,3,5.5,5.4,6c0.4,0.1,2.1-0.5,2.6-0.5c1.5-0.1,3-0.2,4.5-0.1v-1.3C88.2,50.9,86.7,50.9,85.2,51z"
				/>
			<path class="st0" d="M76.3,126.4c0.2-1.5,0.5-3,0.9-4.5c0.5-1.7,1.5-3.9,1.4-5.7c-2.7,4.6-3.6,9.4-4.1,14.7
				c-0.2,2.1-0.5,4.3-0.6,6.6c0.5-0.1,1-0.2,1.5-0.3c0-0.1,0-0.2,0-0.3C75.4,133.4,75.7,129.8,76.3,126.4z"/>
			<path class="st0" d="M66.5,74.5c1.9-1.2,2.8-3.5,3.9-5.4c0.5-0.9,1-1.8,1.6-2.7h-1.5c-0.3,0.6-0.7,1.1-1,1.7l-0.2,0.4
				c-0.2,0.4-0.5,0.9-0.7,1.3c-0.8,1.5-1.5,2.9-2.7,3.6c-1.3,0.8-3.1,1.2-4.8,1.4c-3.7,0.6-7.6,0.7-11.4,0.9
				c-4.9,0.2-10,0.4-14.9,1.5v1.3c8.6-2,17.8-1.1,26.5-2.5C63,75.8,65,75.5,66.5,74.5z"/>
			<path class="st0" d="M90,52.3c1.7,0.1,2.9,0.9,4.2,0.1c1.2-0.8,3.9-6.3,5.4-5.7c1,0.4,1.4,4,1.6,4.8c0.4,2.6,0.3,5-0.2,7.6
				c-0.2,1.2-0.1,2.2,0.1,3.3l1.5,0.6c-0.3-1.2-0.5-2.4-0.3-3.6c0.6-3,0.6-5.5,0.2-8c0-0.1,0-0.2-0.1-0.3c-0.5-3.1-1-5-2.3-5.5
				c-1.9-0.8-3.5,1.6-5.1,3.8c-0.5,0.7-1.2,1.8-1.5,2c-0.4,0.2-0.8,0.2-1.8,0c-0.5-0.1-1-0.2-1.7-0.2c-0.1,0-0.2,0-0.3,0v1.3
				C89.9,52.3,89.9,52.3,90,52.3z"/>
			<path class="st0" d="M99.3,89.2c-0.5,0.9-1.2,1.7-1.6,2.6c-0.3,0.7-0.4,1.5-0.5,2.2c0.4,0.2,0.8,0.3,1.3,0.5
				c0.1-0.8,0.2-1.6,0.5-2.3c0.2-0.4,0.5-0.9,0.8-1.4c0.2-0.3,0.5-0.7,0.7-1c1.7-3,2.8-6.3,3.3-10.1c-0.4-0.2-0.8-0.3-1.3-0.5
				C102.1,82.7,101.1,86.1,99.3,89.2z"/>
			<path class="st0" d="M10.1,102C16.8,85.4,3.3,118.5,10.1,102L10.1,102z"/>
			<path class="st0" d="M11.3,102.5L11.3,102.5C15.6,91.9,21.9,84.8,30,81.4c1.5-0.6,3.1-1.1,4.7-1.5v-1.3c-1.7,0.4-3.5,0.9-5.2,1.7
				c-9.5,4-15.7,12.4-19.4,21.8c-1.1,2.6-1.9,5.3-2.5,8.1c0.3,0.6,0.7,1.2,1,1.7C9,108.9,9.9,105.8,11.3,102.5z"/>
			<path class="st0" d="M31,132.3c0.7-0.9,1.4-1.8,1.9-3.1c0.2-0.7,2.2-6.4,0.8-8.7c-0.1-0.6-0.5-0.9-0.8-1c-0.6-0.3-1.2,0-1.3,0.1
				c-0.1,0-0.1,0.1-0.3,0.1c-0.7,0.4-1.3,1.2-1.9,2c-0.2,0.3-0.4,0.6-0.6,0.7c-0.4,0.4-0.7,0.8-1.1,1.1c-1.4,1.4-2.7,2.9-4.2,4.3
				c0.4,0.3,0.7,0.5,1.1,0.8c1.8-1.7,3.4-3.5,5.1-5.3c0.5-0.6,1.5-2.1,2.1-2.5c0.7-0.4,0.3-0.3,0.7,0.3c0.9,1.4-0.4,6-0.9,7.5
				c-0.4,1.2-1.2,2.1-2,3.1c0.4,0.2,0.8,0.4,1.2,0.6C30.9,132.4,30.9,132.4,31,132.3z"/>
			<path class="st0" d="M20.4,115.8c-0.1-1.6-0.3-3.1-0.5-4.7c-0.4-2.8-0.7-5.4-0.7-8.1l-2.5-0.6c-2.3,4.6-3.2,10-4,15.2l0,0
				c0.4,0.5,0.7,0.9,1.1,1.4c0.9-5.4,1.7-11.2,4.1-16c0,4.4,0.8,8.6,1.2,12.9c0.2,2.7-0.2,5.2-1.1,7.6c0.3,0.3,0.7,0.6,1,1
				C20.1,121.8,20.7,119,20.4,115.8z"/>
			<path class="st0" d="M67.9,134.4v-0.3c-0.3-1.8-0.4-3.6-0.6-5.4c-0.1-1-0.2-1.9-0.3-2.9c-0.2-1.4-0.3-2.8-0.4-4.2v-0.1
				c0-0.2,0-0.5,0-0.9c0-1.8-0.1-3.2-0.7-4c-0.5-0.6-1.3-0.9-2.1-0.9c-1.1,0-2.3,0.4-3.4,0.7c-0.5,0.1-0.9,0.3-1.1,0.3
				c-2.7,0.5-5.3,0.9-7.9,1c-0.4,0-0.9,0-1.3,0c-0.8,0-1.7-0.1-2.5,0.1c-1.4,0.3-1.9,0.6-2.3,1.7c-0.1,0.2-0.2,0.4-0.3,0.7
				c-0.7,1.4-1.7,2.6-2.8,3.9c-0.5,0.6-1,1.2-1.5,1.9l-0.5,0.7c-1.7,2.3-3.7,4.8-4.9,7.6c0.4,0.2,0.8,0.3,1.2,0.5
				c1.2-2.9,3.4-5.6,5.2-7.9c1.5-2,3.4-3.8,4.5-6c0.6-1.3,0.3-1.4,1.6-1.7c1.1-0.2,2.5,0,3.7-0.1c2.7-0.2,5.4-0.5,8.1-1.1
				c1.3-0.3,4.5-1.7,5.3-0.7c0.6,0.7,0.4,3.2,0.5,4.1c0.1,1.4,0.2,2.9,0.4,4.3c0.3,2.8,0.5,5.5,0.9,8.3c0.2,1.5,0.4,2.9,0.6,4.4
				c0.4-0.1,0.9-0.1,1.3-0.2C68.3,137.1,68.1,135.7,67.9,134.4z"/>
			<path class="st0" d="M75.6,62.7c1.2-2,0.9-3.6,0.6-5.1c-0.1-0.6-0.2-1.3-0.2-2c-0.1-2.1,0.2-4.3,0.8-6.3c0.1-0.2,0.1-0.3,0.1-0.5
				s0.1-0.4,0.2-0.6c0.6,0.4,1.1,1.4,1.6,2.2c0.9,1.5,1.9,3.3,3.7,3.7c0.5,0.1,1.2,0,2.2-0.3c0.3-0.1,0.7-0.2,0.8-0.2
				c1.4-0.1,2.9-0.2,4.4-0.1v-1.3c-1.5-0.1-3-0.1-4.5,0.1c-0.5,0.1-2.2,0.6-2.6,0.5c-2.4-0.5-3.1-5.2-5.4-6c-1.2-0.5-1.4,0.8-1.8,2
				c-0.7,2.2-1,4.5-0.9,6.8c0.1,2.5,1.1,4.1-0.2,6.4c-0.8,1.4-1.7,2.9-2.5,4.3h1.5C74.2,65.1,74.9,63.9,75.6,62.7z"/>
			<path class="st0" d="M100.2,63.9c0.1,0.4,0.2,0.8,0.3,1.3c0.5,2.5,0.9,5.3,0.9,8.2c0,1.8,0,3.5-0.2,5.2c0.4,0.2,0.8,0.4,1.3,0.6
				c0.2-1.9,0.3-3.9,0.3-5.8c-0.1-2.8-0.4-5.7-1-8.5c-0.2-0.9-0.4-1.8-0.6-2.6l-1.4-0.6C99.8,62.5,100,63.2,100.2,63.9z"/>
			<path class="st0" d="M77.6,126.5c0.2-1.4,0.5-2.9,0.9-4.4c0.1-0.5,0.3-1,0.5-1.6c0.5-1.4,1.1-3,0.9-4.5l-2.4-0.5
				c-3,5.1-3.8,10.4-4.3,15.3c-0.1,0.6-0.1,1.3-0.2,1.9c-0.2,1.6-0.3,3.3-0.5,5.1c0.4-0.1,0.9-0.2,1.3-0.3c0.2-2.3,0.4-4.5,0.6-6.6
				c0.5-5.3,1.4-10.1,4.1-14.7c0.2,1.8-0.9,3.9-1.4,5.7c-0.4,1.5-0.6,3-0.9,4.5c-0.6,3.5-0.9,7-1,10.5c0,0.1,0,0.2,0,0.3
				c0.4-0.1,0.9-0.2,1.3-0.3C76.7,133.4,77,130,77.6,126.5z"/>
			<path class="st0" d="M95.8,95.2c-0.1,0.9-0.2,1.8-0.4,2.5c-0.6,2.5-1.5,5-2.4,7.4l-0.2,0.6c-1.2,3.5-2.6,6.2-4.2,8.5
				c-0.3,0.4-0.6,0.9-0.9,1.3c-1.3,1.8-2.6,3.5-3.6,5.8s-1.5,4.8-1.9,7.2c-0.1,0.6-0.2,1.2-0.3,1.8c-0.4,2-0.7,3.7-0.9,5.4
				c0.5-0.1,0.9-0.3,1.4-0.5c0.2-1.6,0.5-3.1,0.8-4.7c0.6-2.9,1-6,2.2-8.7c1.2-2.6,2.7-4.5,4.4-6.8c1.9-2.7,3.3-5.7,4.3-8.8
				c0.9-2.6,1.9-5.4,2.6-8.1c0.3-1.2,0.4-2.7,0.5-4c-0.4-0.2-0.8-0.3-1.3-0.5C95.9,94.1,95.8,94.7,95.8,95.2z"/>
			<path class="st0" d="M49.7,78.3c3.9-0.2,7.8-0.3,11.7-0.9c2-0.3,4.1-0.7,5.8-1.8c1.8-1.1,2.8-3,3.6-4.6c0.2-0.4,0.4-0.8,0.7-1.2
				l0.2-0.4c0.6-1,1.2-2,1.7-3H72c-0.5,0.9-1,1.8-1.6,2.7c-1.1,1.9-1.9,4.2-3.9,5.4c-1.6,1-3.5,1.3-5.3,1.6
				c-8.8,1.4-17.9,0.4-26.5,2.5v1.3C39.5,78.7,44.5,78.5,49.7,78.3z"/>
			<path class="st0" d="M99.3,89.2c1.8-3.1,2.8-6.5,3.2-10c-0.4-0.2-0.8-0.4-1.3-0.6c-0.4,3.8-1.4,7.1-3.1,10
				c-0.2,0.3-0.3,0.5-0.5,0.8c-0.4,0.6-0.9,1.2-1.1,2c-0.3,0.7-0.4,1.4-0.5,2.2c0.4,0.2,0.8,0.4,1.3,0.5c0.1-0.8,0.2-1.5,0.5-2.2
				C98.1,90.9,98.8,90.1,99.3,89.2z"/>
			<path class="st0" d="M89.9,53.6c0.5,0,0.9,0.1,1.3,0.2c1.1,0.2,2.4,0.5,3.7-0.3c0.7-0.4,1.3-1.3,2.3-2.7c0.5-0.7,1.4-2,2-2.6
				c0.2,0.5,0.4,1.4,0.7,3.1c0,0.2,0,0.3,0.1,0.4c0.4,2.2,0.3,4.4-0.2,7.1c-0.2,1.1-0.2,2,0,2.9l1.4,0.6c-0.2-1-0.3-2.1-0.1-3.3
				c0.5-2.6,0.6-5,0.2-7.6c-0.1-0.8-0.5-4.4-1.6-4.8c-1.5-0.6-4.2,4.9-5.4,5.7c-1.3,0.8-2.6,0-4.2-0.1c-0.1,0-0.1,0-0.2,0L89.9,53.6
				C89.8,53.6,89.9,53.6,89.9,53.6z"/>
		</g>
	</g>
</g>
</svg>
