<?xml version="1.0" encoding="utf-8"?>
<!-- Generator: Adobe Illustrator 27.1.1, SVG Export Plug-In . SVG Version: 6.00 Build 0)  -->
<svg version="1.1" id="Layer_1" xmlns="http://www.w3.org/2000/svg" xmlns:xlink="http://www.w3.org/1999/xlink" x="0px" y="0px"
	 viewBox="0 0 1000 140" style="enable-background:new 0 0 1000 140;" xml:space="preserve">
<style type="text/css">
	.st0{fill:#29333A;}
	.st1{fill:#0019AF;}
	.st2{fill:#0066CC;}
	.st3{fill:#FFCC00;}
</style>
<g>
	<path class="st0" d="M730.1,61c-1.4,0-2.9,0.1-4.1,0.3v15.1c1.1,0.1,2.5,0.3,3.7,0.3c6,0,9.2-3.4,9.2-8.1
		C738.9,64.6,735.9,61,730.1,61 M729.6,78.7c-1.1,0-2.6-0.1-3.7-0.2v10.6h-2.3V59.4c2-0.2,4-0.4,6.1-0.4c7.7,0,11.5,4.4,11.5,9.5
		C741.3,74.5,737,78.7,729.6,78.7"/>
	<path class="st0" d="M762.3,55.6c-1,0-1.8-0.8-1.8-1.7s0.8-1.8,1.8-1.8c0.9,0,1.7,0.8,1.7,1.8C764,54.9,763.3,55.6,762.3,55.6
		 M755.4,55.6c-0.9,0-1.7-0.8-1.7-1.7s0.8-1.8,1.7-1.8s1.7,0.8,1.7,1.8C757.1,54.9,756.3,55.6,755.4,55.6 M758.9,60.9
		c-7.2,0-12.3,5.8-12.3,13.3s5.1,13.3,12.3,13.3s12.3-5.8,12.3-13.3C771.2,66.6,766,60.9,758.9,60.9 M758.8,89.5
		c-8.2,0-14.7-6.5-14.7-15.3s6.6-15.4,14.9-15.4c8.2,0,14.7,6.6,14.7,15.4S767,89.5,758.8,89.5"/>
	<polygon class="st0" points="780.8,61.3 780.8,73.4 794,73.4 794,75.5 780.8,75.5 780.8,89.1 778.5,89.1 778.5,59.2 795.4,59.2 
		795.4,61.3 	"/>
	<polygon class="st0" points="801.9,61.3 801.9,73.4 815.1,73.4 815.1,75.5 801.9,75.5 801.9,89.1 799.6,89.1 799.6,59.2 
		816.5,59.2 816.5,61.3 	"/>
	<path class="st0" d="M819.1,72h2.3v17h-2.3V72z M820.3,67.4c-0.9,0-1.6-0.7-1.6-1.6s0.7-1.7,1.6-1.7c0.9,0,1.6,0.8,1.6,1.7
		C821.9,66.6,821.2,67.4,820.3,67.4"/>
	<path class="st0" d="M841.2,73.7c-2.4,0-4.3,1-5.6,2.6v9c1.3,1.3,3.3,2.3,5.5,2.3c3.6,0,6.3-2.8,6.3-6.9
		C847.4,76.7,844.8,73.7,841.2,73.7 M841.1,89.4c-2.1,0-4-0.7-5.5-1.8v10.2h-2.2V72h2.2v2.1c1.4-1.3,3.4-2.4,6-2.4
		c4.6,0,8.1,3.7,8.1,8.8C849.6,85.6,846,89.4,841.1,89.4"/>
	<path class="st0" d="M865.4,79.3c-0.2-3.1-1.9-5.6-5.4-5.6c-3.3,0-5.3,2.2-5.6,5.6H865.4L865.4,79.3z M867.5,81h-13.2
		c0.2,3.6,2.3,6.4,7,6.4c1.6,0,3.3-0.4,4.8-1c0,0,0.4,2,0.4,1.9c-1.7,0.7-3.7,1.1-5.4,1.1c-6,0-9.1-3.9-9.1-8.8
		c0-4.8,3.1-8.9,8.1-8.9c4.8,0,7.4,3.6,7.4,8.2C867.5,80.3,867.5,80.6,867.5,81"/>
	<path class="st0" d="M881.2,81.9c-1.7-0.9-3-1.4-4.9-1.4c-2.6,0-4.5,1.2-4.5,3.5s1.8,3.5,4.6,3.5c2,0,3.7-0.9,4.8-2.2L881.2,81.9
		L881.2,81.9z M881.3,89.1v-1.8c-1.3,1.3-3.2,2.2-5.4,2.2c-3.5,0-6.3-1.9-6.3-5.3c0-3.2,2.8-5.3,6.3-5.3c2.2,0,3.7,0.6,5.2,1.3v-1.5
		c0-3.2-1.4-4.8-4.9-4.8c-1.4,0-3.1,0.4-4.4,0.9l-0.4-2c1.5-0.6,3.6-1,5.1-1c4.8,0,6.9,2.3,6.9,6.8v10.6L881.3,89.1L881.3,89.1
		L881.3,89.1z"/>
	<path class="st0" d="M892,89.4c-2.3,0-4.2-0.9-6-2.1l1.1-1.6c1.4,1.1,3.1,1.9,4.8,1.9c2.2,0,3.5-1.2,3.5-2.9c0-4.1-8.4-2.8-8.4-8.2
		c0-2.4,2-4.7,5.5-4.7c1.8,0,3.5,0.7,4.9,1.6l-1,1.7c-1.3-0.9-2.5-1.5-4-1.5c-2.3,0-3.3,1.2-3.3,2.6c0,3.9,8.4,2.6,8.4,8.1
		C897.4,87,895.2,89.4,892,89.4"/>
	<path class="st0" d="M908.5,73.7c-2.4,0-4.3,1-5.6,2.6v9c1.3,1.3,3.3,2.3,5.5,2.3c3.6,0,6.3-2.8,6.3-6.9
		C914.7,76.7,912.2,73.7,908.5,73.7 M908.5,89.4c-2.1,0-4-0.7-5.5-1.8v10.2h-2.2V72h2.2v2.1c1.4-1.3,3.4-2.4,6-2.4
		c4.6,0,8.1,3.7,8.1,8.8C917,85.6,913.4,89.4,908.5,89.4"/>
	<path class="st0" d="M927.9,73.6c-3.7,0-6.2,2.9-6.2,6.9s2.5,6.9,6.2,6.9s6.2-2.9,6.2-6.9S931.6,73.6,927.9,73.6 M927.9,89.4
		c-5,0-8.4-3.9-8.4-8.8s3.5-8.8,8.5-8.8s8.4,3.9,8.4,8.8C936.4,85.4,932.9,89.4,927.9,89.4"/>
	<path class="st0" d="M951.7,89.1v-11c0-2.8-1.2-4.4-3.9-4.4c-2.2,0-4.3,1.5-5.9,3.3v12.1h-2.2v-17h2.2V75c1.7-1.8,4-3.3,6.5-3.3
		c3.9,0,5.7,2.5,5.7,5.9v11.5H951.7L951.7,89.1z"/>
	<path class="st0" d="M962.6,89.4c-2.3,0-4.2-0.9-6-2.1l1.1-1.6c1.4,1.1,3.1,1.9,4.8,1.9c2.2,0,3.5-1.2,3.5-2.9
		c0-4.1-8.4-2.8-8.4-8.2c0-2.4,2-4.7,5.5-4.7c1.8,0,3.5,0.7,4.9,1.6l-1,1.7c-1.3-0.9-2.5-1.5-3.9-1.5c-2.3,0-3.3,1.2-3.3,2.6
		c0,3.9,8.4,2.6,8.4,8.1C968,87,965.9,89.4,962.6,89.4"/>
	<path class="st0" d="M978.9,73.6c-3.7,0-6.2,2.9-6.2,6.9s2.5,6.9,6.2,6.9s6.2-2.9,6.2-6.9S982.6,73.6,978.9,73.6 M978.9,89.4
		c-5,0-8.4-3.9-8.4-8.8s3.5-8.8,8.5-8.8s8.4,3.9,8.4,8.8C987.4,85.4,983.9,89.4,978.9,89.4"/>
	<path class="st0" d="M992.9,77.4v11.7h-2.2V72h2.2v3.2c1.5-2.2,3.8-3.6,6.2-3.6v2.2C996.6,74,994.2,75.1,992.9,77.4"/>
</g>
<path class="st1" d="M697.4,49.5c0-1.2,1-2.1,2.2-2.1s2.1,1,2.1,2.1V102c0,1.2-1,2.1-2.1,2.1s-2.2-1-2.2-2.1V49.5z"/>
<path class="st1" d="M565.9,51c0,2.6,0.2,6.5,0.6,10.5c0.2,2,0.5,3.3,0.6,3.9c0.1,0.3,0.2,0.3,0.2,0.3c0.1,0,0.1,0,0.3-0.2
	c0.6-0.6,1.3-2.6,1.8-3.8c1.7-4,2.8-8.4,3.5-13.1c0.1-0.6,0.8-5.6-0.7-7.7c-0.4-0.5-0.9-1.1-1.5-1.1c-0.1,0-0.2,0-0.4,0
	c-1.2,0-4,0.9-4.2,7.5C566,47.1,565.9,50.2,565.9,51z M538.3,62.7c-2.6,0-4.9,1-5,1.1c-4.5,1.9-7.7,5-9.2,9c0,0.1-0.7,1.7-0.3,2.3
	c0.3,0.4,1,0.4,1.8,0.4h0.1c7.7-0.2,13.4-0.9,16-4.2c0.1-0.1,2.3-2.7,2.1-5.1c-0.1-0.9-0.6-1.7-1.3-2.3
	C541.2,63.1,539.9,62.7,538.3,62.7z M656.7,79.2c-8.6,0.2-13.1,1.3-15.5,3.8c-1.1,1.1-1.7,2.5-1.9,4.2c0,0.1-0.2,1.7,0.8,2.9
	c0.7,0.8,1.6,1.3,2.9,1.4c0,0,0.1,0,0.4,0c1.9,0,11.4-0.5,14.9-9.6c0-0.1,0.6-1.5,0.1-2.2c-0.2-0.3-0.8-0.4-1.6-0.4
	C656.8,79.2,656.7,79.2,656.7,79.2 M643.8,100.1c-2.9,0-6.9-0.4-9.3-2.5c-4.3-3.7-3.4-11.2-3.4-11.6c0.6-4.9,3.3-11.3,12.4-14
	c4.2-1.2,8.9-1.5,12.1-1.6c0.4,0,1.9,0,2.1-0.6c0.2-0.6-1.1-1.7-1.9-2.2c-2.5-1.7-8.6-4.6-22.3-4.6c-0.1,0-1.3,0-1.9,0
	c-5.8,0-13.5,1-17.5,3.4c-0.9,0.6-1.5,1.2-1.6,2c-0.1,1.4,1.2,2.5,1.3,2.6l0,0c1.2,0.9,2.6,1.7,3.5,2.1l0.4,0.2c2.1,1,6.1,3,8,7
	c1,2.2,1.4,4.6,1.2,6.9c-1.4,12.6-15.7,12.8-16.3,12.8l0,0c-5.9,0-10.2-2.2-12.7-4.1c0,0-4-2.5-5.6-7.3c0-0.1-0.3-1-0.4-1.2
	c-0.2-0.7-0.6-2.3-1-2.4c-0.6-0.1-1.6,2-1.9,2.5c-0.7,1.2-1.5,2.7-1.8,3.1c-1.6,2.6-5.6,9.3-11.8,9.3c-1.6,0-3.2-0.5-4.9-1.4
	c-4-2.2-5.1-5.5-6-8.1c-0.3-0.7-0.5-1.5-0.7-2.2c-1-3-1.2-3.1-3.5-1c-2.2,1.9-4.2,3.9-6.1,5.3c-2.9,2.3-8.8,6.2-15.3,7.1
	c-1.6,0.2-3.2,0.4-4.7,0.4c-6,0-10.5-1.7-13.3-5.1c-2.2-2.6-3.9-6-5-9.6c-0.7-2.2-0.9-1.9-2.7-2.2c-2.2-0.4-3.8-0.7-6.4-1.3
	c-1.1-0.2-2-0.9-2.6-1.9s-0.8-2.1-0.6-3.2c0.4-2,2.1-3.4,4-3.4c0.3,0,0.6,0,0.9,0.1c0.4,0.1,0.8,0.2,1.2,0.3c1,0.2,2.9,0.6,3.6,0.7
	c0.1,0,0.3,0,0.4,0c1.3,0.1,1.4-0.1,1.8-1.7c0-0.2,0.1-0.4,0.1-0.6c1.9-7.7,7.5-13.6,15-16.5c1.8-0.7,4.8-1.3,8.1-1.3
	c2.9,0,6.8,0.5,9.3,2.6c4.2,3.5,4.2,8.7,3.9,11.5c-0.4,3.2-2.4,10.8-12.9,14c-3.2,1-7,1.5-12.3,1.6c-0.7,0-1.5-0.1-1.7,0.4
	c-0.3,0.7,0.4,1.7,0.4,1.8c1.1,2,3.9,5.3,9.5,5.3c1,0,2.1-0.1,3.2-0.3c5.1-0.9,9.5-3.7,13.1-6.4c2.7-2.1,6.1-5.5,7.7-7.2
	c0.1-0.1,0.5-0.5,0.8-1.2c0.2-0.4,0.3-0.8,0.3-1.4c0.1-0.5,0-1.2-0.1-1.9c-0.1-0.4-1.3-8.4-1.4-9c-0.7-5.7-0.9-10.3-0.8-13.3
	c0-0.2,0.1-14.8,9-18.2c0.1,0,1.3-0.5,3.2-0.4c3.2,0.1,6,1.2,7.8,3.3c4,4.7,3.9,10.1,3.3,14.3c-1.4,10.1-4.9,19.1-10.5,26.8
	c-1.1,1.3-0.7,2.7-0.6,3c0.7,2.5,1.5,5.5,2.4,8.1c0,0.1,1,3.1,3.2,3.2c1.8,0.1,5-5.1,5-5.1c0.1-0.2,7.6-11.2,8.4-21.9
	c0-0.1,0.2-2-0.1-4.4c0-0.1-0.3-2.5,0.9-3.9c0.6-0.7,1.6-1.1,2.8-1.1c4.2,0,4.6,5,4.7,5.2c0,0.4,0.1,0.8,0.1,1.3
	c0.1,1.5,1.2,14.6,1.8,20c0,0.1,1.3,11.4,10.2,11.5c0.1,0,0.4,0,0.8,0c5.3,0,8.5-2.2,8.6-5.9c0.1-0.5,0.1-2.9-4.8-5.4
	c-1.5-0.7-4.6-2.6-6.1-3.9c-0.1-0.1-0.3-0.2-0.3-0.2c-5.9-4.9-4-10.2-3.3-11.8c2.4-5.1,8.3-8.4,17.4-9.9c4.3-0.7,8.4-0.8,10.4-0.8
	c0.7,0,1.2,0,1.4,0c25,0,30.6,9.1,31.5,10.9c0.6,1.3,1.2,2.6,1.6,4c0.3,1,0.3,1.4,1.8,1.5c0.7,0,1.3,0.1,1.8,0.1
	c1.4,0.1,2.2,0.2,4.5,0.6c1,0.2,1.9,0.9,2.5,1.8c0.6,1,0.8,2.2,0.6,3.4c-0.4,2-2.1,3.3-4.1,3.3c-0.3,0-0.5,0-0.8-0.1
	c-1.5-0.3-2.1-0.3-2.8-0.4c-0.2,0-0.4,0-0.7-0.1c-0.1,0-0.2,0-0.3,0c-1.5,0-1.6,0.3-1.8,1.4c-0.2,1.4-0.6,2.8-1.1,4.1
	c-2.4,6.4-7.6,11.5-14.2,14C650.4,99.6,647.6,100.1,643.8,100.1L643.8,100.1L643.8,100.1z M591.7,37.2c-2.6,0-4.5,2-4.6,4.7
	c-0.1,2.9,2.2,5.6,5,5.9c0.2,0,0.4,0,0.5,0c2.6,0,4.5-2,4.6-4.7c0.1-2.9-2.2-5.6-5.1-5.9C592,37.2,591.9,37.2,591.7,37.2"/>
<g>
	<path class="st2" d="M193.4,25.3c15.1,0,21.1,10.5,21.1,21.3s-7.8,21.3-21.5,21.3h-13.4v24.5h-15.5V25.3H193.4z M179.5,54.2h11.4
		c5.8,0,8.1-3.4,8.1-7.5s-2.1-7.5-8.1-7.5h-11.4V54.2z"/>
	<path class="st2" d="M248.4,93.1c-13.9,0-26.3-7.2-26.3-21.9V46c0-14.7,13.6-21.3,26.3-21.3c12.9,0,26.3,7.1,26.3,21.8v24.8
		C274.7,85.9,262.5,93.1,248.4,93.1z M239,5.8c4.2,0,7.6,3.3,7.6,7.5s-3.4,7.6-7.6,7.6c-4.2,0-7.5-3.4-7.5-7.6S234.8,5.8,239,5.8z
		 M259.1,49.4c0-7.7-5.7-10.5-10.7-10.5s-10.8,2.8-10.8,10.5v19c0,7.7,5.8,10.5,10.8,10.5s10.7-2.8,10.7-10.5V49.4z M258.4,5.8
		c4.2,0,7.5,3.3,7.5,7.5s-3.3,7.6-7.5,7.6s-7.6-3.4-7.6-7.6S254.2,5.8,258.4,5.8z"/>
	<path class="st2" d="M299,52.4h26.8v13.7H299v26.3h-15.5V25.3h46.9v13.8H299V52.4z"/>
	<path class="st2" d="M353.3,52.4h26.8v13.7h-26.8v26.3h-15.5V25.3h46.9v13.8h-31.4V52.4z"/>
</g>
<g>
	<g>
		<path class="st3" d="M41.3,130.6c-0.4-1.4-0.9-2.9-1.3-4.3c-0.4-1.4-0.9-2.8-1-4.2c-0.1-1.1,0.2-2.1,0.9-3
			c0.4-0.5,0.8-0.9,1.2-1.4c1.5-2,1.9-4.4,2.2-6.8c0.1-1,0-2,0-3c0-0.2,0.1-0.5-0.2-0.6c-0.2-0.1-0.3,0.2-0.5,0.3
			c-0.4,0.6-0.8,1.1-1.3,1.6c-1.2,1.2-2.4,2.5-3.6,3.8c-0.9,1-1.9,2-2.9,2.8c-0.9,0.8-1.8,1.6-2.5,2.7c-0.9,1.5-1.8,3-2.7,4.5
			c-0.9,1.5-1.4,3-1.4,4.8c-0.1,1.4,0,2.7,0.3,4c0.1,0.2,0.1,0.5,0.2,0.7c4.6,2.4,9.6,4.2,15.1,5.3c-0.4-1.1-0.8-2.2-1.2-3.3
			C42.2,133.3,41.7,132,41.3,130.6"/>
		<path class="st3" d="M77.3,127c-0.3-1.5-0.5-3-0.8-4.5c-0.3-2.3-0.7-4.6-0.9-6.9c-0.2-2.4-0.6-4.8-0.7-7.3c0-1.1-0.3-2.2-0.3-3.4
			c-0.1-1-0.4-1.3-1.2-1c-1.3,0.5-2.7,0.6-4.1,1c-0.6,0.2-1.3,0.2-1.9,0.3c-1.8,0.5-3.6,0.5-5.4,0.7c-1.5,0.1-3,0.1-4.5,0.1
			c-0.3,0-0.6,0.1-0.7,0.5c-0.4,1.7-1.5,2.9-2.5,4.1c-0.8,0.9-1.5,1.9-2.3,2.8c-1.1,1.5-2.2,3.1-3.2,4.7c-0.8,1.2-1.7,2.3-2.1,3.8
			c-0.2,0.6-0.3,1.3-0.5,2c-0.3,1.2-0.3,2.4,0.1,3.7c0.2,0.8,0.5,1.6,0.7,2.5c0.4,1.6,1.1,3.2,1.5,4.8c0.1,0.2,0.2,0.4,0.3,0.4
			c0.6,0.2,1,0.5,1.6,0.7c1,0.4,1.9,1,2.4,2c0.2,0.4,0.2,0.8,0.1,1.1H53c8.4,0.3,16.7-1,24.7-3.7c0-1.7-0.1-3.5-0.1-5.3
			C77.6,129,77.5,128,77.3,127"/>
		<g id="XMLID_00000000923332403705900570000009049652993627773064_">
			<path class="st3" d="M1,70h35.5c-6,3.6-11,9.6-14.9,19.1c-6.5,16-1,23.2-0.4,26.1c0.2,0.9,0.6,1.4,1,1.3c1-0.1,0.9-0.1,1.8-4.2
				c0.5-2.3,1.7-9.7,3.1-15.5c0.6-2.8,1.3-5.2,2-6.6c0,5.5,0.9,9.6,0.9,9.6c0.2,1.3,0.3,2.5,0.4,3.8s-0.1,2.6-0.4,3.9
				c-0.3,1.1-0.5,2.1-0.9,3.2c-0.6,1.6-1.3,3.2-2.3,4.6c-0.7,1-1.3,2.1-1.9,3.2c-0.5,0.8-1,1.6-1.4,2.5c-0.2,0.5-0.3,0.9-0.3,1.4
				c0,1.9,0,3.7,0.3,5.5c0.1,0.6,0.1,1.1,0.2,1.7C6.1,117.6-3.3,95.3,1,70z"/>
			<path class="st3" d="M110.6,70h23c-0.1,0.8-0.3,1.6-0.5,2.5c-5.1,24.3-21.5,45.2-42.2,56.8c-0.1-1.7,0.1-3.4,0.2-5
				c0.2-1.6,0.3-3.2,0.7-4.7c0.2-0.7,0.1-1.4,0.3-2.1c0.4-1.2,0.5-2.5,0.8-3.8c0.3-1.1,0.6-2.2,0.7-3.3c0.1-0.8,0.3-1.6,0.9-2.2
				c0.2-0.1,0.2-0.4,0.3-0.6c0.4-1.5,1.4-2.7,2.3-3.8c1.1-1.4,2.2-2.8,3.1-4.4c0.5-0.8,0.9-1.7,1.3-2.5c0.3-0.6,0.5-1.3,0.8-2
				c0.6-1.4,1.1-2.9,1.4-4.4c0-0.2,0.1-0.4,0.1-0.6c2.4-4.7,2.4-10,2.7-10.8C106.8,78.4,109.4,75.5,110.6,70z"/>
		</g>
		<path class="st3" d="M84.7,128.6c0-2.5,0.1-5,0.1-7.5c0-1.5,0.3-2.9,0.4-4.4c0.1-1.6,0.4-3.2,0.6-4.9c0.1-0.5,0.4-0.9,0.3-1.5
			c0-0.7,0.2-1.3,0.4-1.9c0.3-1.3,0.6-2.6,1.1-3.8c0.2-0.5,0.3-1,0.2-1.6c-0.3,0.5-0.5,0.8-0.7,1.2c-0.6,1-1,2-1.4,3.1
			c-0.4,1.2-0.8,2.3-1,3.5c-0.3,1.5-0.5,3-0.6,4.5c-0.1,1.3-0.3,2.5-0.4,3.8c-0.1,2.4-0.3,4.9-0.4,7.3c-0.1,2.3-0.3,4.5,0,6.8
			c0.4-0.2,0.9-0.4,1.3-0.6c-0.1-0.6-0.2-1.1-0.2-1.7C84.4,130.2,84.7,129.4,84.7,128.6"/>
	</g>
	<g id="XMLID_00000036231266145407179990000001628130508106350507_">
		<path class="st2" d="M1.6,67.3C9.5,29.2,45.3-0.5,81.6,1c35.5,1.4,58.4,32.1,52.1,69h-23c0.2-0.8,0.3-1.8,0.4-2.7
			c0.9-7.2-0.7-14.5-1.1-15.7c-0.3-0.8-0.5-1.6-0.5-2.5c0-0.5,0.1-1,0.2-1.5c1.4-5-0.8-12.3-1.6-12.2c-0.8,0.2-5.4,6.7-5.7,6.2
			c-0.2-0.3-2.7-0.6-5.2-0.6s-5,0.3-5.2,0.6c-0.4,0.5-4.9-6.1-5.7-6.2c-0.8-0.1-3.1,7.2-1.6,12.2c0.2,0.5,0.4,1.2,0.2,1.5
			c-1.3,2.3-4.5,7.8-6.8,11.8c-2.7,4.8-15.8,3.2-27.9,4.7c-4.9,0.6-9.5,2-13.6,4.4H1C1.2,69.1,1.4,68.2,1.6,67.3z"/>
	</g>
</g>
<g>
	<path class="st3" d="M176.8,113.6c0,2-1,3.6-2.6,4.4c1.7,0.8,2.8,2.5,2.8,4.5c0,4.4-3.5,6.4-6.7,6.4c-2.4,0-4.7-0.8-6.2-2.1
		c0.1-0.2,1.8-2.8,2-3c1.1,0.9,2.7,1.5,4,1.5c1.9,0,3-1,3-2.7c0-1.5-1.1-2.8-2.7-2.8H168v-3.2h2.4c1.3,0,2.6-1,2.6-2.6
		c0-1.7-1.6-2.3-2.8-2.3c-1.3,0-2.8,0.5-3.9,1.5l-2-3c1.5-1.3,3.8-2.1,6.2-2.1C173.7,108,176.8,109.6,176.8,113.6z"/>
	<path class="st3" d="M188.6,121.6v-3.3h9.7v3.3H188.6z"/>
	<path class="st3" d="M213.2,128.6v-15.5l-2,1.7l-2.1-2.7l4.5-3.9h3.4v20.4H213.2z"/>
	<path class="st3" d="M236.3,123.1c0,3.7-3.1,5.6-6.5,5.6c-2.5,0-4.5-0.7-6-2.1l2-3c1.3,1.1,2.6,1.5,3.8,1.5c1.1,0,2.8-0.7,2.8-2.6
		v-2.4c-1.7,0.9-2.8,1.2-3.8,1.2c-3.1,0-5.1-2.3-5.1-5.5v-2.1c0-3.8,3-5.8,6.4-5.8c3.6,0,6.4,2.1,6.4,5.9V123.1z M230,111.6
		c-1.2,0-2.6,0.8-2.6,2.6v1.4c0,1.6,0.9,2.1,1.9,2.1c1,0,2-0.4,3.3-1.1v-2.4C232.5,112.3,231.2,111.6,230,111.6z"/>
	<path class="st3" d="M251.2,115.8v12.8h-4v-20.4h3.7l4.7,7l3.9,5.9h0.1v-12.9h4.1v20.4h-3.7l-5.2-7.7l-3.4-5.1H251.2z"/>
	<path class="st3" d="M274.8,128.8c-4.3,0-7.8-2.3-7.8-6.7v-7.5c0-4.3,3.8-6.6,7.8-6.6c4.1,0,7.8,2.4,7.8,6.7v7.4
		C282.6,126.5,279.1,128.8,274.8,128.8z M278.5,115.4c0-2.7-1.9-3.7-3.8-3.7c-1.9,0-3.8,1-3.8,3.7v5.9c0,2.7,1.9,3.7,3.8,3.7
		c1.9,0,3.8-1,3.8-3.7V115.4z"/>
	<path class="st3" d="M293.3,122.6l2.1-7.2l2.1-7.2h4.3l-6.5,20.4h-4.2l-6.5-20.4h4.3l2.2,7.4l2,7H293.3z"/>
	<path class="st3" d="M320,119.9c-1.6,1.3-4.6,2.9-4.9,5.4h8.8v3.4h-12.8v-2.9c0-3.3,2.2-5.5,4.5-7.2c2.2-1.6,4.4-3,4.4-4.7
		c0-1.3-1.4-2.2-2.9-2.2c-1.4,0-2.8,0.5-3.9,1.5l-2-3c1.5-1.3,3.7-2.1,6-2.1c3.2,0,6.6,1.4,6.6,5.7C324,116.4,321.8,118.4,320,119.9
		z"/>
	<path class="st3" d="M333.3,128.7c-3,0-6.4-1.7-6.4-5.4v-9.8c0-3.7,3.5-5.5,6.4-5.5c3,0,6.4,1.8,6.4,5.5v9.8
		C339.8,127,336.3,128.7,333.3,128.7z M336,114.3c0-1.9-1.4-2.6-2.6-2.6c-1.2,0-2.6,0.7-2.6,2.6v8.3c0,1.9,1.4,2.6,2.6,2.6
		c1.2,0,2.6-0.7,2.6-2.6V114.3z"/>
	<path class="st3" d="M351.6,119.9c-1.6,1.3-4.6,2.9-4.9,5.4h8.8v3.4h-12.8v-2.9c0-3.3,2.2-5.5,4.5-7.2c2.2-1.6,4.4-3,4.4-4.7
		c0-1.3-1.4-2.2-2.9-2.2c-1.4,0-2.8,0.5-3.9,1.5l-2-3c1.5-1.3,3.7-2.1,6-2.1c3.2,0,6.6,1.4,6.6,5.7
		C355.6,116.4,353.4,118.4,351.6,119.9z"/>
	<path class="st3" d="M371,113.6c0,2-1,3.6-2.6,4.4c1.7,0.8,2.8,2.5,2.8,4.5c0,4.4-3.5,6.4-6.7,6.4c-2.4,0-4.7-0.8-6.2-2.1
		c0.1-0.2,1.8-2.8,2-3c1.1,0.9,2.7,1.5,4,1.5c1.9,0,3-1,3-2.7c0-1.5-1.1-2.8-2.7-2.8h-2.4v-3.2h2.4c1.3,0,2.6-1,2.6-2.6
		c0-1.7-1.6-2.3-2.8-2.3c-1.3,0-2.8,0.5-3.9,1.5l-2-3c1.5-1.3,3.8-2.1,6.2-2.1C367.8,108,371,109.6,371,113.6z"/>
</g>
</svg>
