<?xml version="1.0" encoding="utf-8"?>
<!-- Generator: Adobe Illustrator 26.4.1, SVG Export Plug-In . SVG Version: 6.00 Build 0)  -->
<svg version="1.1" id="Layer_1" xmlns="http://www.w3.org/2000/svg" xmlns:xlink="http://www.w3.org/1999/xlink" x="0px" y="0px"
	 viewBox="0 0 500 500" style="enable-background:new 0 0 500 500;" xml:space="preserve">
<style type="text/css">
	.st0{fill:#D4FFFC;}
	.st1{fill:none;stroke:#000000;stroke-width:3;stroke-linecap:round;stroke-linejoin:round;}
</style>
<rect class="st0" width="500" height="500"/>
<path class="st1" d="M408.9,433.8v-39.7c0-43.9-35.6-79.5-79.5-79.5H170.5c-43.9,0-79.5,35.6-79.5,79.5v39.7"/>
<circle class="st1" cx="250" cy="170.7" r="79.5"/>
<g>
	<path d="M140.6,479.9l-0.5,1.5c-1.7-0.4-2.7-1.3-2.9-3.3c-1.3,2.2-3.3,3.3-5.7,3.3c-3.6,0-5.8-2.5-5.8-6.1c0-4.3,3-6.6,7.9-6.6h3.3
		v-2.2c0-3.1-1.2-4.6-4.2-4.6c-1.6,0-3.3,0.4-5.1,1.2l-0.6-1.6c2-0.9,4-1.4,6-1.4c4.2,0,6.1,2.3,6.1,6.3v10.5
		C139.1,478.8,139.6,479.5,140.6,479.9z M136.9,475.9v-5.6h-3c-3.8,0-5.8,1.6-5.8,4.9c0,2.9,1.4,4.4,3.8,4.4
		C134.2,479.7,135.8,478.3,136.9,475.9z"/>
	<path d="M156.9,462.4l-1.1,1.4c-1.6-1.3-2.9-1.9-4.8-1.9c-2.4,0-4,1.3-4,3.5c0,2,1.1,2.9,4.5,4c4,1.3,5.9,2.8,5.9,6.2
		c0,3.7-3,5.9-6.7,5.9c-3,0-5.1-1.1-6.7-2.6l1.2-1.3c1.6,1.3,3.1,2.1,5.4,2.1c2.6,0,4.5-1.4,4.5-4c0-2.4-1.1-3.4-4.9-4.6
		c-4-1.3-5.5-2.9-5.5-5.6c0-3.1,2.7-5.4,6.2-5.4C153.3,460.1,155.2,460.9,156.9,462.4z"/>
	<path d="M177.1,470.7c0,6.7-2.5,10.8-7,10.8c-2.3,0-4.1-1.2-5.3-2.8v10.1l-2.2,0.3v-28.5h1.9l0.2,2.9c1.4-2,3.3-3.4,5.7-3.4
		C174.8,460.1,177.1,463.8,177.1,470.7z M174.8,470.7c0-6-1.6-8.7-4.8-8.7c-2.3,0-3.9,1.6-5.2,3.5v11c1.2,1.9,2.8,3.1,4.9,3.1
		C172.9,479.6,174.8,476.8,174.8,470.7z"/>
	<path d="M196.2,471.7h-12.3c0.2,5.8,2.5,7.9,5.7,7.9c2,0,3.4-0.7,4.9-2l1.1,1.4c-1.7,1.5-3.6,2.5-6.1,2.5c-4.9,0-7.9-3.7-7.9-10.5
		c0-6.8,2.9-10.9,7.5-10.9c4.7,0,7.2,3.6,7.2,9.9C196.3,470.7,196.2,471.3,196.2,471.7z M194.1,469.3c0-4.7-1.6-7.4-5-7.4
		c-2.9,0-5,2.2-5.3,8h10.3V469.3z"/>
	<path d="M213.6,462.2l-1.1,1.4c-1.2-1-2.4-1.6-4.1-1.6c-3.3,0-5.6,2.7-5.6,8.9c0,6.2,2.3,8.7,5.6,8.7c1.7,0,2.9-0.6,4.2-1.6
		l1.1,1.4c-1.4,1.4-3.2,2.2-5.3,2.2c-4.8,0-7.9-3.6-7.9-10.5c0-6.9,3.1-10.8,7.9-10.8C210.5,460.1,212.1,460.7,213.6,462.2z"/>
	<path d="M227,480.2c-1.1,0.8-2.4,1.3-3.9,1.3c-2.9,0-4.6-1.8-4.6-4.9v-14.2h-3.1v-1.8h3.1v-4.9l2.2-0.3v5.2h4.7l-0.3,1.8h-4.5v14.1
		c0,2,0.8,3.1,2.6,3.1c1.1,0,1.9-0.4,2.8-0.9L227,480.2z"/>
	<path d="M249.5,460.3l-0.4,2.1c-0.5-0.2-1-0.2-1.6-0.2c-2.5,0-4,2.1-4.9,6.2V481h-2.2v-20.5h1.9l0.2,4.3c1-3.2,2.7-4.8,5.3-4.8
		C248.4,460.1,249,460.2,249.5,460.3z"/>
	<path d="M265.8,479.9l-0.5,1.5c-1.7-0.4-2.7-1.3-2.9-3.3c-1.3,2.2-3.3,3.3-5.7,3.3c-3.6,0-5.8-2.5-5.8-6.1c0-4.3,3-6.6,7.9-6.6h3.3
		v-2.2c0-3.1-1.2-4.6-4.2-4.6c-1.6,0-3.3,0.4-5.1,1.2l-0.6-1.6c2-0.9,4-1.4,6-1.4c4.2,0,6.1,2.3,6.1,6.3v10.5
		C264.3,478.8,264.8,479.5,265.8,479.9z M262.1,475.9v-5.6h-3c-3.8,0-5.8,1.6-5.8,4.9c0,2.9,1.4,4.4,3.8,4.4
		C259.3,479.7,260.9,478.3,262.1,475.9z"/>
	<path d="M280.1,480.2c-1.1,0.8-2.4,1.3-3.9,1.3c-2.9,0-4.6-1.8-4.6-4.9v-14.2h-3.1v-1.8h3.1v-4.9l2.2-0.3v5.2h4.7l-0.3,1.8h-4.5
		v14.1c0,2,0.8,3.1,2.6,3.1c1.1,0,1.9-0.4,2.8-0.9L280.1,480.2z"/>
	<path d="M286.5,453.2c0,0.9-0.6,1.6-1.6,1.6c-0.9,0-1.6-0.7-1.6-1.6c0-0.9,0.7-1.6,1.6-1.6C285.9,451.6,286.5,452.3,286.5,453.2z
		 M286,481h-2.2v-20.5h2.2V481z"/>
	<path d="M307.6,470.7c0,6.8-3,10.7-7.9,10.7c-4.9,0-7.8-3.9-7.8-10.7c0-6.8,3-10.7,7.9-10.7C304.7,460.1,307.6,463.8,307.6,470.7z
		 M294.2,470.8c0,6,2,8.8,5.5,8.8s5.6-2.8,5.6-8.9c0-6-2-8.7-5.5-8.7C296.3,462,294.2,464.7,294.2,470.8z"/>
	<path d="M329.9,481h-2.2v-23.6l-5.7,4l-1-1.6l7.1-4.8h1.9V481z"/>
	<path d="M349.6,464.3c0,1-0.7,1.8-1.8,1.8c-1.1,0-1.8-0.8-1.8-1.8s0.7-1.8,1.8-1.8C348.9,462.5,349.6,463.4,349.6,464.3z
		 M349.6,479.7c0,1-0.7,1.8-1.8,1.8c-1.1,0-1.8-0.8-1.8-1.8s0.7-1.8,1.8-1.8C348.9,477.9,349.6,478.7,349.6,479.7z"/>
	<path d="M371.7,481h-2.2v-23.6l-5.7,4l-1-1.6l7.1-4.8h1.9V481z"/>
</g>
<g>
	<path d="M214.7,23.1l-1.1,1.4c-1.6-1.3-2.9-1.9-4.8-1.9c-2.4,0-4,1.3-4,3.5c0,2,1.1,2.9,4.5,4c4,1.3,5.9,2.8,5.9,6.2
		c0,3.7-3,5.9-6.7,5.9c-3,0-5.1-1.1-6.7-2.6l1.2-1.3c1.6,1.3,3.1,2.1,5.4,2.1c2.6,0,4.5-1.4,4.5-4c0-2.4-1.1-3.4-4.9-4.6
		c-4-1.3-5.5-2.9-5.5-5.6c0-3.1,2.7-5.4,6.2-5.4C211.1,20.8,212.9,21.6,214.7,23.1z"/>
	<path d="M233.6,21.3v28.5l-2.2-0.3V38.8c-1.1,1.8-2.8,3.4-5.4,3.4c-4.3,0-7-3.9-7-10.6c0-6.5,2.8-10.8,7.3-10.8
		c2.6,0,4.2,1.4,5.3,2.9l0.2-2.5H233.6z M231.4,36.6V25.8c-1.1-1.8-2.5-3.1-4.8-3.1c-3.1,0-5.3,2.9-5.3,8.9c0,5.9,1.9,8.8,5,8.8
		C228.7,40.3,230.2,39,231.4,36.6z"/>
	<path d="M254,41.8h-1.9l-0.2-3.5c-1.3,2.3-3.1,4-6,4c-3.3,0-5.3-2.2-5.3-5.9v-15h2.2v14.8c0,2.9,1.2,4.3,3.5,4.3
		c2.4,0,4.1-1.8,5.4-4.2V21.3h2.2V41.8z"/>
	<path d="M274.4,40.7l-0.5,1.5c-1.7-0.4-2.7-1.3-2.9-3.3c-1.3,2.2-3.3,3.3-5.7,3.3c-3.6,0-5.8-2.5-5.8-6.1c0-4.3,3-6.6,7.9-6.6h3.3
		v-2.2c0-3.1-1.2-4.6-4.2-4.6c-1.6,0-3.3,0.4-5.1,1.2l-0.6-1.6c2-0.9,4-1.4,6-1.4c4.2,0,6.1,2.3,6.1,6.3v10.5
		C272.8,39.5,273.3,40.2,274.4,40.7z M270.6,36.7v-5.6h-3c-3.8,0-5.8,1.6-5.8,4.9c0,2.9,1.4,4.4,3.8,4.4
		C267.9,40.4,269.5,39.1,270.6,36.7z"/>
	<path d="M289.2,21.1l-0.4,2.1c-0.5-0.2-1-0.2-1.6-0.2c-2.5,0-4,2.1-4.9,6.2v12.7h-2.2V21.3h1.9l0.2,4.3c1-3.2,2.7-4.8,5.3-4.8
		C288.2,20.8,288.8,20.9,289.2,21.1z"/>
	<path d="M305.9,32.4h-12.3c0.2,5.8,2.5,7.9,5.7,7.9c2,0,3.4-0.7,4.9-2l1.1,1.4c-1.7,1.5-3.6,2.5-6.1,2.5c-4.9,0-7.9-3.7-7.9-10.5
		c0-6.8,2.9-10.9,7.5-10.9c4.7,0,7.2,3.6,7.2,9.9C305.9,31.4,305.9,32,305.9,32.4z M303.8,30c0-4.7-1.6-7.4-5-7.4
		c-2.9,0-5,2.2-5.3,8h10.3V30z"/>
</g>
<g>
	<path d="M21.1,140.6l-1.5-0.5c0.4-1.7,1.3-2.7,3.3-2.9c-2.2-1.3-3.3-3.3-3.3-5.7c0-3.6,2.5-5.8,6.1-5.8c4.3,0,6.6,3,6.6,7.9v3.3
		h2.2c3.1,0,4.6-1.2,4.6-4.2c0-1.6-0.4-3.3-1.2-5.1l1.6-0.6c0.9,2,1.4,4,1.4,6c0,4.2-2.3,6.1-6.3,6.1H24.2
		C22.2,139.1,21.5,139.6,21.1,140.6z M25.1,136.9h5.6v-3c0-3.8-1.6-5.8-4.9-5.8c-2.9,0-4.4,1.4-4.4,3.8
		C21.3,134.2,22.7,135.8,25.1,136.9z"/>
	<path d="M38.6,156.9l-1.4-1.1c1.3-1.6,1.9-2.9,1.9-4.8c0-2.4-1.3-4-3.5-4c-2,0-2.9,1.1-4,4.5c-1.3,4-2.8,5.9-6.2,5.9
		c-3.7,0-5.9-3-5.9-6.7c0-3,1.1-5.1,2.6-6.7l1.3,1.2c-1.3,1.6-2.1,3.1-2.1,5.4c0,2.6,1.4,4.5,4,4.5c2.4,0,3.4-1.1,4.6-4.9
		c1.3-4,2.9-5.5,5.6-5.5c3.1,0,5.4,2.7,5.4,6.2C40.9,153.3,40.1,155.2,38.6,156.9z"/>
	<path d="M30.3,177.1c-6.7,0-10.8-2.5-10.8-7c0-2.3,1.2-4.1,2.8-5.3H12.3l-0.3-2.2h28.5v1.9l-2.9,0.2c2,1.4,3.4,3.3,3.4,5.7
		C40.9,174.8,37.2,177.1,30.3,177.1z M30.3,174.8c6,0,8.7-1.6,8.7-4.8c0-2.3-1.6-3.9-3.5-5.2h-11c-1.9,1.2-3.1,2.8-3.1,4.9
		C21.4,172.9,24.2,174.8,30.3,174.8z"/>
	<path d="M29.3,196.2v-12.3c-5.8,0.2-7.9,2.5-7.9,5.7c0,2,0.7,3.4,2,4.9l-1.4,1.1c-1.5-1.7-2.5-3.6-2.5-6.1c0-4.9,3.7-7.9,10.5-7.9
		c6.8,0,10.9,2.9,10.9,7.5c0,4.7-3.6,7.2-9.9,7.2C30.4,196.3,29.7,196.2,29.3,196.2z M31.7,194.1c4.7,0,7.4-1.6,7.4-5
		c0-2.9-2.2-5-8-5.3v10.3H31.7z"/>
	<path d="M38.8,213.6l-1.4-1.1c1-1.2,1.6-2.4,1.6-4.1c0-3.3-2.7-5.6-8.9-5.6c-6.2,0-8.7,2.3-8.7,5.6c0,1.7,0.6,2.9,1.6,4.2l-1.4,1.1
		c-1.4-1.4-2.2-3.2-2.2-5.3c0-4.8,3.6-7.9,10.5-7.9c6.9,0,10.8,3.1,10.8,7.9C40.9,210.5,40.3,212.1,38.8,213.6z"/>
	<path d="M20.8,227c-0.8-1.1-1.3-2.4-1.3-3.9c0-2.9,1.8-4.6,4.9-4.6h14.2v-3.1h1.8v3.1h4.9l0.3,2.2h-5.2v4.7l-1.8-0.3v-4.5H24.6
		c-2,0-3.1,0.8-3.1,2.6c0,1.1,0.4,1.9,0.9,2.8L20.8,227z"/>
	<path d="M40.7,249.5l-2.1-0.4c0.2-0.5,0.2-1,0.2-1.6c0-2.5-2.1-4-6.2-4.9H20v-2.2h20.5v1.9l-4.3,0.2c3.2,1,4.8,2.7,4.8,5.3
		C40.9,248.4,40.8,249,40.7,249.5z"/>
	<path d="M21.1,265.8l-1.5-0.5c0.4-1.7,1.3-2.7,3.3-2.9c-2.2-1.3-3.3-3.3-3.3-5.7c0-3.6,2.5-5.8,6.1-5.8c4.3,0,6.6,3,6.6,7.9v3.3
		h2.2c3.1,0,4.6-1.2,4.6-4.2c0-1.6-0.4-3.3-1.2-5.1l1.6-0.6c0.9,2,1.4,4,1.4,6c0,4.2-2.3,6.1-6.3,6.1H24.2
		C22.2,264.3,21.5,264.8,21.1,265.8z M25.1,262.1h5.6v-3c0-3.8-1.6-5.8-4.9-5.8c-2.9,0-4.4,1.4-4.4,3.8
		C21.3,259.3,22.7,260.9,25.1,262.1z"/>
	<path d="M20.8,280.1c-0.8-1.1-1.3-2.4-1.3-3.9c0-2.9,1.8-4.6,4.9-4.6h14.2v-3.1h1.8v3.1h4.9l0.3,2.2h-5.2v4.7l-1.8-0.3v-4.5H24.6
		c-2,0-3.1,0.8-3.1,2.6c0,1.1,0.4,1.9,0.9,2.8L20.8,280.1z"/>
	<path d="M20,286v-2.2h20.5v2.2H20z M47.8,286.5c-0.9,0-1.6-0.6-1.6-1.6c0-0.9,0.7-1.6,1.6-1.6c0.9,0,1.6,0.7,1.6,1.6
		C49.4,285.9,48.7,286.5,47.8,286.5z"/>
	<path d="M30.3,307.6c-6.8,0-10.7-3-10.7-7.9c0-4.9,3.9-7.8,10.7-7.8c6.8,0,10.7,3,10.7,7.9C40.9,304.7,37.2,307.6,30.3,307.6z
		 M30.2,294.2c-6,0-8.8,2-8.8,5.5s2.8,5.6,8.9,5.6c6,0,8.7-2,8.7-5.5C39,296.3,36.3,294.2,30.2,294.2z"/>
	<path d="M20,329.9v-2.2h23.6l-4-5.7l1.6-1l4.8,7.1v1.9H20z"/>
	<path d="M21.3,349.6c-1,0-1.8-0.7-1.8-1.8c0-1.1,0.8-1.8,1.8-1.8s1.8,0.7,1.8,1.8C23.2,348.9,22.3,349.6,21.3,349.6z M36.7,349.6
		c-1,0-1.8-0.7-1.8-1.8c0-1.1,0.8-1.8,1.8-1.8s1.8,0.7,1.8,1.8C38.5,348.9,37.6,349.6,36.7,349.6z"/>
	<path d="M20,371.7v-2.2h23.6l-4-5.7l1.6-1l4.8,7.1v1.9H20z"/>
</g>
<g>
	<path d="M477.1,210.4l-1.4-1.1c1.3-1.6,1.9-2.9,1.9-4.8c0-2.4-1.3-4-3.5-4c-2,0-2.9,1.1-4,4.5c-1.3,4-2.8,5.9-6.2,5.9
		c-3.7,0-5.9-3-5.9-6.7c0-3,1.1-5.1,2.6-6.7l1.3,1.2c-1.3,1.6-2.1,3.1-2.1,5.4c0,2.6,1.4,4.5,4,4.5c2.4,0,3.4-1.1,4.6-4.9
		c1.3-4,2.9-5.5,5.6-5.5c3.1,0,5.4,2.7,5.4,6.2C479.3,206.9,478.5,208.7,477.1,210.4z"/>
	<path d="M478.9,229.4h-28.5l0.3-2.2h10.7c-1.8-1.1-3.4-2.8-3.4-5.4c0-4.3,3.9-7,10.6-7c6.5,0,10.8,2.8,10.8,7.3
		c0,2.6-1.4,4.2-2.9,5.3l2.5,0.2V229.4z M463.5,227.2h10.8c1.8-1.1,3.1-2.5,3.1-4.8c0-3.1-2.9-5.3-8.9-5.3c-5.9,0-8.8,1.9-8.8,5
		C459.8,224.5,461.2,226,463.5,227.2z"/>
	<path d="M458.4,249.8v-1.9l3.5-0.2c-2.3-1.3-4-3.1-4-6c0-3.3,2.2-5.3,5.9-5.3h15v2.2h-14.8c-2.9,0-4.3,1.2-4.3,3.5
		c0,2.4,1.8,4.1,4.2,5.4h14.9v2.2H458.4z"/>
	<path d="M459.5,270.1l-1.5-0.5c0.4-1.7,1.3-2.7,3.3-2.9c-2.2-1.3-3.3-3.3-3.3-5.7c0-3.6,2.5-5.8,6.1-5.8c4.3,0,6.6,3,6.6,7.9v3.3
		h2.2c3.1,0,4.6-1.2,4.6-4.2c0-1.6-0.4-3.3-1.2-5.1l1.6-0.6c0.9,2,1.4,4,1.4,6c0,4.2-2.3,6.1-6.3,6.1h-10.5
		C460.6,268.6,459.9,269.1,459.5,270.1z M463.5,266.4h5.6v-3c0-3.8-1.6-5.8-4.9-5.8c-2.9,0-4.4,1.4-4.4,3.8
		C459.7,263.7,461.1,265.3,463.5,266.4z"/>
	<path d="M479.1,285l-2.1-0.4c0.2-0.5,0.2-1,0.2-1.6c0-2.5-2.1-4-6.2-4.9h-12.7v-2.2h20.5v1.9l-4.3,0.2c3.2,1,4.8,2.7,4.8,5.3
		C479.3,284,479.2,284.5,479.1,285z"/>
	<path d="M467.8,301.6v-12.3c-5.8,0.2-7.9,2.5-7.9,5.7c0,2,0.7,3.4,2,4.9l-1.4,1.1c-1.5-1.7-2.5-3.6-2.5-6.1c0-4.9,3.7-7.9,10.5-7.9
		c6.8,0,10.9,2.9,10.9,7.5c0,4.7-3.6,7.2-9.9,7.2C468.8,301.7,468.2,301.7,467.8,301.6z M470.1,299.6c4.7,0,7.4-1.6,7.4-5
		c0-2.9-2.2-5-8-5.3v10.3H470.1z"/>
</g>
</svg>
