<?xml version="1.0" encoding="utf-8"?>
<!-- Generator: Adobe Illustrator 27.2.0, SVG Export Plug-In . SVG Version: 6.00 Build 0)  -->
<svg version="1.1" id="Layer_1" xmlns="http://www.w3.org/2000/svg" xmlns:xlink="http://www.w3.org/1999/xlink" x="0px" y="0px"
	 viewBox="0 0 800 140" style="enable-background:new 0 0 800 140;" xml:space="preserve">
<style type="text/css">
	.st0{fill:#0066CC;}
	.st1{fill:#FFCC00;}
</style>
<g>
	<g id="XMLID_00000139255261744002320330000006578143062427342505_">
		<polygon class="st0" points="491,38 483.3,49.4 475.2,43.8 465.7,40.9 454.3,40.9 447.9,42.7 445,45.1 442.6,49.2 442.6,56.7 
			446,61.2 450.8,63.6 476.7,68.7 486.4,75.1 486.6,75.4 444.6,75.4 435.9,70.7 428.7,60.9 428.7,45.8 434.3,36.1 442,30.2 
			452.5,27.3 466.9,27.3 480.8,31 		"/>
		<polygon class="st0" points="402.8,51.5 402.8,65.4 379.4,65.4 379.4,75.4 365.3,75.4 365.3,65.4 349.2,65.4 349.2,51.5 
			365.3,51.5 365.3,20.3 379.4,20.3 379.4,51.5 		"/>
		<polygon class="st0" points="340.6,29.7 337.2,43.1 330.4,41.2 323.1,41.2 313.8,45.6 306.9,53.4 303.1,61.6 303.1,75.4 
			289.1,75.4 289.1,28.7 303.1,28.7 303.1,39 309.6,32.7 321.1,27.3 332.1,27.3 		"/>
		<polygon class="st0" points="263.5,63.4 263.5,75.4 249.4,75.4 249.4,64.7 247.2,53.7 241.9,46.2 232.1,41.1 218.9,41.1 
			208.7,46.2 203.8,53.7 201.6,64.7 201.6,75.4 187.5,75.4 187.5,63.4 190.9,48.1 199.4,35.6 216.5,27.3 234.5,27.3 251.6,35.6 
			260.1,48.1 		"/>
		<polygon class="st0" points="162.8,65.9 162.8,75.4 148.7,75.4 148.7,71.3 144.4,64.7 135.3,61.8 124.4,61.8 112.6,69.6 
			108.6,75.4 93.1,75.4 93.1,10.8 107.1,10.8 107.1,57.8 111.2,54.4 122.6,47.9 138.2,47.9 152.4,52 		"/>
		<polygon class="st0" points="65.4,38 57.8,49.4 49.7,43.8 40.2,40.9 28.8,40.9 22.4,42.7 19.5,45.1 17.1,49.2 17.1,56.7 
			20.5,61.2 25.3,63.6 51.2,68.7 60.9,75.1 61.1,75.4 19.1,75.4 10.3,70.7 3.2,60.9 3.2,45.8 8.8,36.1 16.4,30.2 27,27.3 41.4,27.3 
			55.3,31 		"/>
	</g>
	<g id="XMLID_00000129180653111208526380000009203317404495091856_">
		<polygon class="st1" points="493,86 493,100.4 486.6,110.2 478.4,116 466.9,119.4 451.8,119.4 437.4,115.7 429.4,109.4 425.5,105 
			435.4,95.5 438.6,99.4 443.1,102.9 453.7,105.6 465,105.6 472.1,103.6 476.4,100.6 479.1,96.3 479.1,89.9 476.2,85 471.1,81.4 
			446.7,76.5 444.6,75.4 486.6,75.4 		"/>
		<rect x="289.1" y="75.4" class="st1" width="14" height="42.6"/>
		<polygon class="st1" points="406.5,123 410.1,136.4 394.3,140 386.5,140 374.7,135.6 365.3,122.2 365.3,75.4 379.4,75.4 
			379.4,117.6 383.7,123.7 389.8,126.1 394.5,126.1 		"/>
		<polygon class="st1" points="263.5,75.4 263.5,83.4 260.1,98.7 251.6,111.2 234.5,119.3 216.5,119.4 199.4,111.3 190.9,98.8 
			187.5,83.4 187.5,75.4 201.6,75.4 201.6,81.7 203.8,93.1 208.9,100.7 218.9,105.6 232.1,105.6 242.1,100.7 247.2,93.1 249.4,81.7 
			249.4,75.4 		"/>
		<rect x="148.7" y="75.4" class="st1" width="14.1" height="63.2"/>
		<polygon class="st1" points="67.5,86 67.5,100.4 61,110.2 52.9,116 41.4,119.4 26.3,119.4 11.9,115.7 3.9,109.4 0,105 9.8,95.5 
			13.1,99.4 17.6,102.9 28.1,105.6 39.5,105.6 46.6,103.6 50.9,100.6 53.6,96.3 53.6,89.9 50.7,85 45.6,81.4 21.2,76.5 19.1,75.4 
			61.1,75.4 		"/>
		<polygon class="st1" points="108.6,75.4 107.1,77.6 107.1,138.6 93.1,138.6 93.1,75.4 		"/>
	</g>
</g>
<g>
	<path class="st0" d="M685.4,54.7c1.4,1.9,2.1,4.4,2.1,7.4c0,3.9-1.1,7-3.4,9.3s-5.4,3.4-9.2,3.4c-3.8,0-6.8-1.1-9.1-3.4
		c-2.2-2.3-3.4-5.4-3.4-9.2c0-6.1,2.9-10.4,8.6-12.9c-2.5-1.3-4.3-2.8-5.4-4.4c-1.1-1.6-1.6-3.7-1.6-6.2c0-3.7,1.1-6.5,3.2-8.5
		c2.1-2,4.7-3,7.8-3c3.1,0,5.6,1,7.8,2.9c2.1,1.9,3.2,4.8,3.2,8.5c0,2.5-0.6,4.5-1.7,6.2c-1.1,1.7-3,3.3-5.5,4.8
		C681.8,51.1,684,52.8,685.4,54.7z M681.3,69.4c1.5-1.6,2.3-3.9,2.3-7.2c0-2.8-0.6-4.9-1.8-6.4s-3.3-2.9-6.4-4.3l-1.9-0.9
		c-2.5,1.2-4.3,2.7-5.5,4.6c-1.1,1.9-1.7,4.2-1.7,7c0,3.2,0.8,5.6,2.3,7.1c1.6,1.6,3.6,2.3,6.3,2.3
		C677.6,71.7,679.8,70.9,681.3,69.4z M669.3,44c1,1.2,2.7,2.5,5.3,3.7l1.7,0.8c2.1-1.4,3.6-2.8,4.5-4.3c0.9-1.5,1.4-3.3,1.4-5.5
		c0-2.9-0.6-5.1-1.9-6.5c-1.3-1.4-3-2.1-5.2-2.1c-2.2,0-3.9,0.7-5.2,2.1c-1.3,1.4-1.9,3.5-1.9,6.5C667.8,41,668.3,42.7,669.3,44z"/>
	<path class="st0" d="M710,54v-3.3h15.3V54H710z"/>
	<path class="st0" d="M764.8,30.4c1.9,2.2,2.9,5,2.9,8.4c0,3-0.5,5.8-1.5,8.4c-1,2.7-2.7,5.6-4.9,9c-2.2,3.3-5.8,8.1-10.5,14.4h18
		l-0.6,3.5h-21.7v-3.3c5-6.5,8.6-11.5,10.9-15c2.3-3.5,4-6.5,4.9-9c0.9-2.5,1.4-5.1,1.4-7.9c0-2.7-0.6-4.8-1.9-6.2
		c-1.2-1.5-2.9-2.2-5.1-2.2c-1.7,0-3.2,0.4-4.5,1.2c-1.3,0.8-2.6,2.1-3.8,3.9l-2.6-1.9c1.5-2.3,3.2-3.9,5-5c1.8-1.1,3.8-1.6,6.1-1.6
		C760.2,27.2,762.8,28.3,764.8,30.4z"/>
	<path class="st0" d="M797,33c2,3.9,3,9.9,3,18.1s-1,14.2-3,18c-2,3.9-5,5.8-9.1,5.8c-4,0-7.1-2-9.1-5.9c-2.1-3.9-3.1-9.9-3.1-18
		s1-14.1,3.1-18c2-3.9,5.1-5.8,9.2-5.8C791.9,27.2,795,29.1,797,33z M781.8,35.2c-1.4,3.2-2,8.4-2,15.8c0,7.3,0.7,12.6,2,15.8
		c1.3,3.2,3.4,4.8,6.2,4.8c2.7,0,4.8-1.6,6.1-4.8c1.3-3.2,2-8.4,2-15.8c0-7.4-0.7-12.6-2-15.8c-1.3-3.2-3.3-4.8-6.1-4.8
		C785.2,30.4,783.1,32,781.8,35.2z"/>
</g>
<g>
	<path class="st1" d="M611.5,118.6h-4.9L590.4,79c0.3,4,0.5,9,0.5,14.9v24.7h-3.5V74.8h4.9l16.2,39.6c-0.3-5.1-0.5-9.4-0.5-12.9
		V74.8h3.5V118.6z"/>
	<path class="st1" d="M646.1,79.8c2.6,3.8,4,9.4,4,17c0,7.4-1.3,13-3.9,16.9c-2.6,3.8-6.3,5.7-10.9,5.7c-4.6,0-8.2-1.9-10.8-5.7
		c-2.7-3.8-4-9.4-4-16.8c0-7.4,1.3-13.1,4-16.9c2.7-3.9,6.3-5.8,10.8-5.8C639.9,74.1,643.5,76,646.1,79.8z M627.2,82
		c-1.9,3.2-2.9,8.1-2.9,14.8c0,6.6,1,11.5,2.9,14.6c1.9,3.1,4.6,4.7,8,4.7c3.5,0,6.2-1.5,8.1-4.6c1.9-3.1,2.8-8,2.8-14.7
		c0-13-3.6-19.4-10.9-19.4C631.8,77.3,629.1,78.9,627.2,82z"/>
	<path class="st1" d="M681.6,74.8l-11.4,43.8h-4.3l-11.6-43.8h3.8l10,40l9.9-40H681.6z"/>
	<path class="st1" d="M715.6,78.4c1.8,2,2.7,4.6,2.7,7.8c0,2.7-0.5,5.3-1.4,7.8c-0.9,2.5-2.4,5.2-4.5,8.2c-2.1,3-5.3,7.5-9.7,13.3
		h16.6l-0.5,3.2h-20v-3c4.6-6,7.9-10.6,10.1-13.8c2.2-3.2,3.7-5.9,4.5-8.2c0.9-2.3,1.3-4.7,1.3-7.3c0-2.5-0.6-4.4-1.7-5.8
		c-1.2-1.4-2.7-2-4.7-2c-1.6,0-3,0.4-4.2,1.2c-1.2,0.8-2.4,2-3.5,3.6l-2.4-1.7c1.4-2.1,2.9-3.6,4.6-4.6c1.6-1,3.5-1.5,5.6-1.5
		C711.4,75.4,713.9,76.4,715.6,78.4z"/>
	<path class="st1" d="M745.3,80.8c1.9,3.6,2.8,9.1,2.8,16.6c0,7.5-0.9,13-2.8,16.6c-1.9,3.6-4.6,5.3-8.3,5.3c-3.7,0-6.5-1.8-8.4-5.4
		c-1.9-3.6-2.8-9.1-2.8-16.6s0.9-13,2.8-16.6c1.9-3.6,4.7-5.4,8.4-5.4C740.7,75.4,743.4,77.2,745.3,80.8z M731.3,82.8
		c-1.3,2.9-1.9,7.8-1.9,14.5s0.6,11.6,1.9,14.5c1.2,3,3.1,4.4,5.7,4.4c2.5,0,4.4-1.5,5.6-4.4c1.2-2.9,1.8-7.8,1.8-14.5
		c0-6.8-0.6-11.6-1.8-14.6c-1.2-2.9-3.1-4.4-5.6-4.4C734.4,78.4,732.5,79.9,731.3,82.8z"/>
	<path class="st1" d="M769.5,78.4c1.8,2,2.7,4.6,2.7,7.8c0,2.7-0.5,5.3-1.4,7.8c-0.9,2.5-2.4,5.2-4.5,8.2c-2.1,3-5.3,7.5-9.7,13.3
		h16.6l-0.5,3.2h-20v-3c4.6-6,7.9-10.6,10.1-13.8c2.2-3.2,3.7-5.9,4.5-8.2c0.9-2.3,1.3-4.7,1.3-7.3c0-2.5-0.6-4.4-1.7-5.8
		c-1.2-1.4-2.7-2-4.7-2c-1.6,0-3,0.4-4.2,1.2c-1.2,0.8-2.4,2-3.5,3.6l-2.4-1.7c1.4-2.1,2.9-3.6,4.6-4.6c1.6-1,3.5-1.5,5.6-1.5
		C765.3,75.4,767.8,76.4,769.5,78.4z"/>
	<path class="st1" d="M800,104.4v3h-4.6v11.2h-3.5v-11.2h-15.3v-2.7l10.6-29.3l3.1,1.1l-10,27.9h11.6l0.4-12.5h3v12.5H800z"/>
</g>
</svg>
