<?xml version="1.0" encoding="utf-8"?>
<!-- Generator: Adobe Illustrator 27.2.0, SVG Export Plug-In . SVG Version: 6.00 Build 0)  -->
<svg version="1.1" id="Layer_1" xmlns="http://www.w3.org/2000/svg" xmlns:xlink="http://www.w3.org/1999/xlink" x="0px" y="0px"
	 viewBox="0 0 800 140" style="enable-background:new 0 0 800 140;" xml:space="preserve">
<style type="text/css">
	.st0{fill:#0066CC;}
	.st1{fill:#FFCC00;}
</style>
<g>
	<g id="XMLID_00000139255261744002320330000006578143062427342505_">
		<polygon class="st0" points="491,38 483.3,49.4 475.2,43.8 465.7,40.9 454.3,40.9 447.9,42.7 445,45.1 442.6,49.2 442.6,56.7 
			446,61.2 450.8,63.6 476.7,68.7 486.4,75.1 486.6,75.4 444.6,75.4 435.9,70.7 428.7,60.9 428.7,45.8 434.3,36.1 442,30.2 
			452.5,27.3 466.9,27.3 480.8,31 		"/>
		<polygon class="st0" points="402.8,51.5 402.8,65.4 379.4,65.4 379.4,75.4 365.3,75.4 365.3,65.4 349.2,65.4 349.2,51.5 
			365.3,51.5 365.3,20.3 379.4,20.3 379.4,51.5 		"/>
		<polygon class="st0" points="340.6,29.7 337.2,43.1 330.4,41.2 323.1,41.2 313.8,45.6 306.9,53.4 303.1,61.6 303.1,75.4 
			289.1,75.4 289.1,28.7 303.1,28.7 303.1,39 309.6,32.7 321.1,27.3 332.1,27.3 		"/>
		<polygon class="st0" points="263.5,63.4 263.5,75.4 249.4,75.4 249.4,64.7 247.2,53.7 241.9,46.2 232.1,41.1 218.9,41.1 
			208.7,46.2 203.8,53.7 201.6,64.7 201.6,75.4 187.5,75.4 187.5,63.4 190.9,48.1 199.4,35.6 216.5,27.3 234.5,27.3 251.6,35.6 
			260.1,48.1 		"/>
		<polygon class="st0" points="162.8,65.9 162.8,75.4 148.7,75.4 148.7,71.3 144.4,64.7 135.3,61.8 124.4,61.8 112.6,69.6 
			108.6,75.4 93.1,75.4 93.1,10.8 107.1,10.8 107.1,57.8 111.2,54.4 122.6,47.9 138.2,47.9 152.4,52 		"/>
		<polygon class="st0" points="65.4,38 57.8,49.4 49.7,43.8 40.2,40.9 28.8,40.9 22.4,42.7 19.5,45.1 17.1,49.2 17.1,56.7 
			20.5,61.2 25.3,63.6 51.2,68.7 60.9,75.1 61.1,75.4 19.1,75.4 10.3,70.7 3.2,60.9 3.2,45.8 8.8,36.1 16.4,30.2 27,27.3 41.4,27.3 
			55.3,31 		"/>
	</g>
	<g id="XMLID_00000129180653111208526380000009203317404495091856_">
		<polygon class="st1" points="493,86 493,100.4 486.6,110.2 478.4,116 466.9,119.4 451.8,119.4 437.4,115.7 429.4,109.4 425.5,105 
			435.4,95.5 438.6,99.4 443.1,102.9 453.7,105.6 465,105.6 472.1,103.6 476.4,100.6 479.1,96.3 479.1,89.9 476.2,85 471.1,81.4 
			446.7,76.5 444.6,75.4 486.6,75.4 		"/>
		<rect x="289.1" y="75.4" class="st1" width="14" height="42.6"/>
		<polygon class="st1" points="406.5,123 410.1,136.4 394.3,140 386.5,140 374.7,135.6 365.3,122.2 365.3,75.4 379.4,75.4 
			379.4,117.6 383.7,123.7 389.8,126.1 394.5,126.1 		"/>
		<polygon class="st1" points="263.5,75.4 263.5,83.4 260.1,98.7 251.6,111.2 234.5,119.3 216.5,119.4 199.4,111.3 190.9,98.8 
			187.5,83.4 187.5,75.4 201.6,75.4 201.6,81.7 203.8,93.1 208.9,100.7 218.9,105.6 232.1,105.6 242.1,100.7 247.2,93.1 249.4,81.7 
			249.4,75.4 		"/>
		<rect x="148.7" y="75.4" class="st1" width="14.1" height="63.2"/>
		<polygon class="st1" points="67.5,86 67.5,100.4 61,110.2 52.9,116 41.4,119.4 26.3,119.4 11.9,115.7 3.9,109.4 0,105 9.8,95.5 
			13.1,99.4 17.6,102.9 28.1,105.6 39.5,105.6 46.6,103.6 50.9,100.6 53.6,96.3 53.6,89.9 50.7,85 45.6,81.4 21.2,76.5 19.1,75.4 
			61.1,75.4 		"/>
		<polygon class="st1" points="108.6,75.4 107.1,77.6 107.1,138.6 93.1,138.6 93.1,75.4 		"/>
	</g>
</g>
<g>
	<path class="st1" d="M599,119h-5.2l-17.4-42.5c0.4,4.3,0.5,9.6,0.5,16V119h-3.7V72.1h5.2l17.3,42.5c-0.4-5.5-0.5-10.1-0.5-13.8
		V72.1h3.8V119z"/>
	<path class="st1" d="M636.1,77.4c2.8,4,4.2,10.1,4.2,18.2c0,7.9-1.4,14-4.2,18c-2.8,4.1-6.7,6.1-11.7,6.1c-4.9,0-8.8-2-11.6-6.1
		c-2.9-4.1-4.3-10.1-4.3-18s1.4-14,4.3-18.1c2.9-4.1,6.7-6.2,11.6-6.2C629.4,71.3,633.3,73.4,636.1,77.4z M615.9,79.8
		c-2.1,3.4-3.1,8.7-3.1,15.8c0,7.1,1,12.3,3.1,15.7c2.1,3.4,4.9,5,8.6,5c3.8,0,6.7-1.7,8.7-5c2-3.3,3-8.6,3-15.8
		c0-13.9-3.9-20.8-11.7-20.8C620.8,74.8,617.9,76.4,615.9,79.8z"/>
	<path class="st1" d="M674.2,72.1L661.9,119h-4.7l-12.4-46.9h4l10.8,42.8l10.6-42.8H674.2z"/>
	<path class="st1" d="M710.6,75.9c1.9,2.1,2.8,4.9,2.8,8.3c0,2.9-0.5,5.7-1.5,8.3c-1,2.6-2.6,5.6-4.8,8.8c-2.2,3.3-5.7,8-10.4,14.2
		h17.7l-0.5,3.4h-21.4v-3.2c4.9-6.4,8.5-11.4,10.8-14.8c2.3-3.4,3.9-6.4,4.8-8.8c0.9-2.5,1.4-5.1,1.4-7.8c0-2.6-0.6-4.7-1.8-6.2
		c-1.2-1.5-2.9-2.2-5-2.2c-1.7,0-3.2,0.4-4.5,1.2c-1.3,0.8-2.5,2.1-3.8,3.8l-2.5-1.8c1.5-2.2,3.1-3.9,4.9-4.9c1.8-1,3.8-1.6,6-1.6
		C706.1,72.7,708.7,73.8,710.6,75.9z"/>
	<path class="st1" d="M742.4,78.5c2,3.8,3,9.8,3,17.8c0,8-1,14-3,17.8c-2,3.8-5,5.7-8.9,5.7c-4,0-7-1.9-9-5.8c-2-3.9-3-9.8-3-17.8
		c0-8,1-13.9,3-17.7c2-3.8,5-5.8,9-5.8C737.4,72.7,740.4,74.6,742.4,78.5z M727.4,80.6c-1.3,3.2-2,8.3-2,15.5c0,7.2,0.7,12.4,2,15.6
		c1.3,3.2,3.4,4.8,6.1,4.8c2.7,0,4.7-1.6,6-4.7c1.3-3.2,2-8.3,2-15.5c0-7.3-0.7-12.5-2-15.6c-1.3-3.2-3.3-4.7-6-4.7
		C730.7,75.9,728.7,77.5,727.4,80.6z"/>
	<path class="st1" d="M768.3,75.9c1.9,2.1,2.8,4.9,2.8,8.3c0,2.9-0.5,5.7-1.5,8.3c-1,2.6-2.6,5.6-4.8,8.8c-2.2,3.3-5.7,8-10.4,14.2
		h17.7l-0.5,3.4h-21.4v-3.2c4.9-6.4,8.5-11.4,10.8-14.8c2.3-3.4,3.9-6.4,4.8-8.8c0.9-2.5,1.4-5.1,1.4-7.8c0-2.6-0.6-4.7-1.8-6.2
		c-1.2-1.5-2.9-2.2-5-2.2c-1.7,0-3.2,0.4-4.5,1.2c-1.3,0.8-2.5,2.1-3.8,3.8l-2.5-1.8c1.5-2.2,3.1-3.9,4.9-4.9c1.8-1,3.8-1.6,6-1.6
		C763.8,72.7,766.4,73.8,768.3,75.9z"/>
	<path class="st1" d="M798.2,76.7h-15.1v15.6c1-0.7,2-1.2,3-1.6c1-0.4,2.1-0.5,3.4-0.5c3.2,0,5.8,1.2,7.7,3.7
		c1.9,2.5,2.9,6,2.9,10.4c0,3-0.5,5.7-1.5,8c-1,2.4-2.5,4.2-4.3,5.4c-1.8,1.3-4,1.9-6.5,1.9c-2.3,0-4.3-0.5-6-1.4
		c-1.7-0.9-3.3-2.3-4.8-4.1l2.5-2.1c1.2,1.5,2.5,2.5,3.8,3.3c1.3,0.7,2.8,1.1,4.5,1.1c2.6,0,4.7-1.1,6.2-3.2c1.5-2.1,2.2-5.1,2.2-9
		c0-7.3-2.5-11-7.5-11c-1.2,0-2.2,0.2-3.2,0.5c-0.9,0.3-2,0.9-3,1.7h-2.8V73.5h19.2L798.2,76.7z"/>
</g>
<g>
	<path class="st0" d="M667.6,27.9v45.6h-3.8V32.2l-9,6.8l-1.8-2.7l11.4-8.4H667.6z"/>
	<path class="st0" d="M690.1,27.9v45.6h-3.8V32.2l-9,6.8l-1.8-2.7l11.4-8.4H690.1z"/>
	<path class="st0" d="M716.2,53.6v-3.3h15.1v3.3H716.2z"/>
	<path class="st0" d="M767.1,27.9v45.6h-3.8V32.2l-9,6.8l-1.8-2.7l11.4-8.4H767.1z"/>
	<path class="st0" d="M800,45.5c0,5.9-0.7,10.7-2.1,14.5c-1.4,3.7-3.5,6.7-6.3,9s-6.4,4.2-10.9,5.8l-0.9-2.9
		c5.2-1.9,9.1-4.5,11.7-7.7c2.7-3.2,4.2-7.7,4.5-13.5c-1.1,1.8-2.3,3.3-3.8,4.3c-1.5,1-3.2,1.5-5,1.5c-1.9,0-3.7-0.6-5.3-1.7
		c-1.6-1.1-2.9-2.8-3.8-5c-0.9-2.2-1.4-4.7-1.4-7.6c0-4.8,1.1-8.5,3.2-11.1c2.1-2.6,5-3.9,8.4-3.9C796.1,27.1,800,33.2,800,45.5z
		 M792.4,51.5c1.3-1.1,2.6-2.9,3.8-5.1c0-5.7-0.6-9.8-1.8-12.3c-1.2-2.5-3.2-3.8-6-3.8c-2.5,0-4.4,1-5.8,2.9
		c-1.4,1.9-2.1,4.9-2.1,8.9c0,3.6,0.6,6.4,1.9,8.3c1.3,1.9,3,2.8,5.3,2.8C789.5,53.2,791,52.6,792.4,51.5z"/>
</g>
</svg>
