<?xml version="1.0" encoding="utf-8"?>
<!-- Generator: Adobe Illustrator 27.2.0, SVG Export Plug-In . SVG Version: 6.00 Build 0)  -->
<svg version="1.1" id="Layer_1" xmlns="http://www.w3.org/2000/svg" xmlns:xlink="http://www.w3.org/1999/xlink" x="0px" y="0px"
	 viewBox="0 0 800 140" style="enable-background:new 0 0 800 140;" xml:space="preserve">
<style type="text/css">
	.st0{fill:#0066CC;}
	.st1{fill:#FFCC00;}
	.st2{fill:#29333A;}
</style>
<g>
	<g id="XMLID_00000139255261744002320330000006578143062427342505_">
		<polygon class="st0" points="491,38 483.3,49.4 475.2,43.8 465.7,40.9 454.3,40.9 447.9,42.7 445,45.1 442.6,49.2 442.6,56.7 
			446,61.2 450.8,63.6 476.7,68.7 486.4,75.1 486.6,75.4 444.6,75.4 435.9,70.7 428.7,60.9 428.7,45.8 434.3,36.1 442,30.2 
			452.5,27.3 466.9,27.3 480.8,31 		"/>
		<polygon class="st0" points="402.8,51.5 402.8,65.4 379.4,65.4 379.4,75.4 365.3,75.4 365.3,65.4 349.2,65.4 349.2,51.5 
			365.3,51.5 365.3,20.3 379.4,20.3 379.4,51.5 		"/>
		<polygon class="st0" points="340.6,29.7 337.2,43.1 330.4,41.2 323.1,41.2 313.8,45.6 306.9,53.4 303.1,61.6 303.1,75.4 
			289.1,75.4 289.1,28.7 303.1,28.7 303.1,39 309.6,32.7 321.1,27.3 332.1,27.3 		"/>
		<polygon class="st0" points="263.5,63.4 263.5,75.4 249.4,75.4 249.4,64.7 247.2,53.7 241.9,46.2 232.1,41.1 218.9,41.1 
			208.7,46.2 203.8,53.7 201.6,64.7 201.6,75.4 187.5,75.4 187.5,63.4 190.9,48.1 199.4,35.6 216.5,27.3 234.5,27.3 251.6,35.6 
			260.1,48.1 		"/>
		<polygon class="st0" points="162.8,65.9 162.8,75.4 148.7,75.4 148.7,71.3 144.4,64.7 135.3,61.8 124.4,61.8 112.6,69.6 
			108.6,75.4 93.1,75.4 93.1,10.8 107.1,10.8 107.1,57.8 111.2,54.4 122.6,47.9 138.2,47.9 152.4,52 		"/>
		<polygon class="st0" points="65.4,38 57.8,49.4 49.7,43.8 40.2,40.9 28.8,40.9 22.4,42.7 19.5,45.1 17.1,49.2 17.1,56.7 
			20.5,61.2 25.3,63.6 51.2,68.7 60.9,75.1 61.1,75.4 19.1,75.4 10.3,70.7 3.2,60.9 3.2,45.8 8.8,36.1 16.4,30.2 27,27.3 41.4,27.3 
			55.3,31 		"/>
	</g>
	<g id="XMLID_00000129180653111208526380000009203317404495091856_">
		<polygon class="st1" points="493,86 493,100.4 486.6,110.2 478.4,116 466.9,119.4 451.8,119.4 437.4,115.7 429.4,109.4 425.5,105 
			435.4,95.5 438.6,99.4 443.1,102.9 453.7,105.6 465,105.6 472.1,103.6 476.4,100.6 479.1,96.3 479.1,89.9 476.2,85 471.1,81.4 
			446.7,76.5 444.6,75.4 486.6,75.4 		"/>
		<rect x="289.1" y="75.4" class="st1" width="14" height="42.6"/>
		<polygon class="st1" points="406.5,123 410.1,136.4 394.3,140 386.5,140 374.7,135.6 365.3,122.2 365.3,75.4 379.4,75.4 
			379.4,117.6 383.7,123.7 389.8,126.1 394.5,126.1 		"/>
		<polygon class="st1" points="263.5,75.4 263.5,83.4 260.1,98.7 251.6,111.2 234.5,119.3 216.5,119.4 199.4,111.3 190.9,98.8 
			187.5,83.4 187.5,75.4 201.6,75.4 201.6,81.7 203.8,93.1 208.9,100.7 218.9,105.6 232.1,105.6 242.1,100.7 247.2,93.1 249.4,81.7 
			249.4,75.4 		"/>
		<rect x="148.7" y="75.4" class="st1" width="14.1" height="63.2"/>
		<polygon class="st1" points="67.5,86 67.5,100.4 61,110.2 52.9,116 41.4,119.4 26.3,119.4 11.9,115.7 3.9,109.4 0,105 9.8,95.5 
			13.1,99.4 17.6,102.9 28.1,105.6 39.5,105.6 46.6,103.6 50.9,100.6 53.6,96.3 53.6,89.9 50.7,85 45.6,81.4 21.2,76.5 19.1,75.4 
			61.1,75.4 		"/>
		<polygon class="st1" points="108.6,75.4 107.1,77.6 107.1,138.6 93.1,138.6 93.1,75.4 		"/>
	</g>
</g>
<g>
	<path class="st2" d="M551.7,85.2v2.2L540.9,119l-2.5-0.9l10.5-30.5h-12.7v-2.4H551.7z"/>
	<path class="st2" d="M565.6,104.1v-2.4h11.1v2.4H565.6z"/>
	<path class="st2" d="M601.3,85.2v33.3h-2.8V88.4l-6.6,5l-1.4-2l8.3-6.2H601.3z"/>
	<path class="st2" d="M622.5,87.6h-11V99c0.7-0.5,1.5-0.9,2.2-1.2c0.7-0.3,1.6-0.4,2.5-0.4c2.3,0,4.2,0.9,5.6,2.7
		c1.4,1.8,2.1,4.4,2.1,7.6c0,2.2-0.4,4.2-1.1,5.9c-0.8,1.7-1.8,3-3.2,4c-1.4,0.9-2.9,1.4-4.7,1.4c-1.7,0-3.1-0.3-4.4-1
		s-2.4-1.7-3.5-3l1.8-1.6c0.9,1.1,1.8,1.9,2.8,2.4c0.9,0.5,2,0.8,3.3,0.8c1.9,0,3.4-0.8,4.5-2.3c1.1-1.6,1.6-3.8,1.6-6.6
		c0-5.3-1.8-8-5.5-8c-0.9,0-1.6,0.1-2.3,0.4c-0.7,0.2-1.4,0.7-2.2,1.2h-2.1V85.2h14.1L622.5,87.6z"/>
	<path class="st2" d="M658.9,118.6h-3.8l-12.7-31.1c0.3,3.1,0.4,7,0.4,11.7v19.4H640V84.2h3.8l12.7,31.1c-0.3-4-0.4-7.4-0.4-10.1
		v-21h2.8V118.6z"/>
	<path class="st2" d="M685.3,88.1c2.1,3,3.1,7.4,3.1,13.3c0,5.8-1,10.2-3.1,13.2c-2.1,3-4.9,4.5-8.5,4.5c-3.6,0-6.4-1.5-8.5-4.5
		c-2.1-3-3.1-7.4-3.1-13.2c0-5.8,1.1-10.2,3.2-13.3c2.1-3,4.9-4.5,8.5-4.5C680.4,83.7,683.2,85.2,685.3,88.1z M670.4,89.9
		c-1.5,2.5-2.3,6.3-2.3,11.6c0,5.2,0.8,9,2.3,11.5s3.6,3.7,6.3,3.7c2.8,0,4.9-1.2,6.4-3.6c1.5-2.4,2.2-6.3,2.2-11.6
		c0-10.2-2.9-15.2-8.6-15.2C674,86.2,671.9,87.4,670.4,89.9z"/>
	<path class="st2" d="M712.3,84.2l-9,34.3H700l-9.1-34.3h3l7.9,31.3l7.8-31.3H712.3z"/>
	<path class="st2" d="M737.5,87c1.4,1.6,2.1,3.6,2.1,6.1c0,2.1-0.4,4.2-1.1,6.1c-0.7,1.9-1.9,4.1-3.5,6.5c-1.6,2.4-4.2,5.9-7.6,10.4
		h13l-0.4,2.5h-15.6v-2.4c3.6-4.7,6.2-8.3,7.9-10.8c1.7-2.5,2.9-4.7,3.5-6.5c0.7-1.8,1-3.7,1-5.7c0-1.9-0.5-3.4-1.4-4.5
		c-0.9-1.1-2.1-1.6-3.7-1.6c-1.2,0-2.3,0.3-3.3,0.9c-0.9,0.6-1.9,1.5-2.8,2.8l-1.9-1.4c1.1-1.6,2.3-2.8,3.6-3.6
		c1.3-0.8,2.7-1.2,4.4-1.2C734.2,84.7,736.1,85.5,737.5,87z"/>
	<path class="st2" d="M760,88.9c1.5,2.8,2.2,7.2,2.2,13s-0.7,10.2-2.2,13c-1.5,2.8-3.6,4.2-6.5,4.2c-2.9,0-5.1-1.4-6.6-4.2
		c-1.5-2.8-2.2-7.2-2.2-13c0-5.8,0.7-10.2,2.2-13c1.5-2.8,3.7-4.2,6.6-4.2C756.3,84.7,758.5,86.1,760,88.9z M749,90.5
		c-1,2.3-1.5,6.1-1.5,11.4c0,5.3,0.5,9.1,1.5,11.4c1,2.3,2.5,3.5,4.5,3.5c2,0,3.4-1.2,4.4-3.5s1.4-6.1,1.4-11.4
		c0-5.3-0.5-9.1-1.4-11.4s-2.4-3.5-4.4-3.5S750,88.2,749,90.5z"/>
	<path class="st2" d="M778.2,87c1.4,1.6,2.1,3.6,2.1,6.1c0,2.1-0.4,4.2-1.1,6.1c-0.7,1.9-1.9,4.1-3.5,6.5c-1.6,2.4-4.2,5.9-7.6,10.4
		h13l-0.4,2.5H765v-2.4c3.6-4.7,6.2-8.3,7.9-10.8c1.7-2.5,2.9-4.7,3.5-6.5c0.7-1.8,1-3.7,1-5.7c0-1.9-0.5-3.4-1.4-4.5
		c-0.9-1.1-2.1-1.6-3.7-1.6c-1.2,0-2.3,0.3-3.3,0.9c-0.9,0.6-1.9,1.5-2.8,2.8l-1.9-1.4c1.1-1.6,2.3-2.8,3.6-3.6
		c1.3-0.8,2.7-1.2,4.4-1.2C774.9,84.7,776.8,85.5,778.2,87z"/>
	<path class="st2" d="M797,87c1.4,1.6,2.1,3.6,2.1,6c0,2.2-0.5,3.9-1.6,5.2c-1.1,1.3-2.5,2.2-4.4,2.6c2.1,0.2,3.7,1,5,2.4
		c1.2,1.4,1.9,3.4,1.9,5.9c0,1.9-0.4,3.7-1.1,5.2c-0.7,1.5-1.8,2.7-3.1,3.6c-1.3,0.9-2.9,1.3-4.6,1.3c-1.7,0-3.2-0.4-4.5-1.1
		c-1.3-0.7-2.5-1.8-3.6-3.3l1.8-1.4c1,1.2,2,2.1,2.9,2.6c0.9,0.5,2.1,0.8,3.4,0.8c1.8,0,3.3-0.7,4.4-2.1c1.1-1.4,1.7-3.2,1.7-5.6
		c0-4.7-2.2-7-6.6-7h-1.9l0.4-2.2h1.4c1.7,0,3.1-0.6,4.3-1.7c1.2-1.2,1.8-2.8,1.8-5c0-1.9-0.5-3.4-1.4-4.5s-2.2-1.6-3.9-1.6
		c-1.1,0-2.1,0.2-3,0.7c-0.9,0.5-1.9,1.2-2.8,2.2l-1.6-1.5c1.1-1.3,2.3-2.2,3.6-2.8s2.6-0.9,4.1-0.9C793.7,84.7,795.6,85.5,797,87z"
		/>
</g>
</svg>
