<?xml version="1.0" encoding="utf-8"?>
<!-- Generator: Adobe Illustrator 25.4.1, SVG Export Plug-In . SVG Version: 6.00 Build 0)  -->
<svg version="1.1" id="Layer_1" xmlns="http://www.w3.org/2000/svg" xmlns:xlink="http://www.w3.org/1999/xlink" x="0px" y="0px"
	 viewBox="0 0 800 140" style="enable-background:new 0 0 800 140;" xml:space="preserve">
<style type="text/css">
	.st0{fill:#29333A;}
</style>
<path class="st0" d="M545.5,71.2h-5.2V30.9l-8.2,6.5l-2.4-3.7l11.1-8.8h4.6V71.2z"/>
<path class="st0" d="M578.4,48.5c0,10.8-4.8,16.4-11.4,16.4c-8.7,0-12.1-8.6-12.1-22.2c0-16.2,5.2-25.5,13.7-25.5c3,0,5.3,1,7.3,2.8
	l-2.1,3.7c-1.6-1.2-3.3-1.9-5.2-1.9c-5.1,0-8.3,6.5-8.6,18.1c2.2-4.1,5.2-6,8.6-6C573.8,33.8,578.4,38.5,578.4,48.5z M573.2,48.6
	c0-7.7-2.4-10.4-5.7-10.4c-3,0-5.6,2.8-7.4,7c0.2,10.6,2.3,15.3,6.9,15.3C571.1,60.4,573.2,56.3,573.2,48.6z"/>
<path class="st0" d="M592.4,47.2h15.1v4.7h-15.1V47.2z"/>
<path class="st0" d="M641.5,36.5c0,8.6-4,14.6-15.3,29.9h16.2l-0.6,4.8h-21.2v-4.5c12.6-17.3,15.5-22.2,15.5-30
	c0-5.1-2.3-7.7-5.7-7.7c-3,0-4.9,1.7-7.2,4.8l-3.4-2.6c2.9-4.6,6.4-6.8,10.9-6.8C637.4,24.3,641.5,29.4,641.5,36.5z"/>
<path class="st0" d="M670.4,69.4h-4.5v11.6h-5V69.4h-15.3v-4.1l10.6-31.2l4.4,1.7l-9.7,29H661l0.5-12.8h4.4V65h4.5V69.4z"/>
<path class="st0" d="M716.5,64.2h-7.2l-14.2-41c0.3,3.7,0.8,9,0.8,17.7v23.4h-5V16.6h7.2l14.2,41.1c-0.3-1.4-0.8-8.3-0.8-14.2V16.6
	h5V64.2z"/>
<path class="st0" d="M755.6,55.9c0,16.7-6.1,24.6-15.5,24.6c-9.3,0-15.5-7.6-15.5-24.5c0-16.7,6.2-24.6,15.5-24.6
	C749.5,31.4,755.6,38.9,755.6,55.9z M730.3,55.9c0,14.6,3.9,19.7,9.8,19.7c6.1,0,9.8-5,9.8-19.8c0-14.6-3.7-19.8-9.8-19.8
	C734.1,36.1,730.3,41.4,730.3,55.9z"/>
<path class="st0" d="M776.7,64.1h-6.3l-11.5-47.5h5.5l9.2,41.3l9-41.3h5.3L776.7,64.1z"/>
<path class="st0" d="M719.8,89.6c0,8.5-3.9,14.4-15.1,29.5h16l-0.6,4.7h-20.9v-4.4c12.5-17.1,15.3-21.9,15.3-29.6
	c0-5-2.2-7.6-5.7-7.6c-2.9,0-4.8,1.6-7.1,4.8l-3.4-2.6c2.9-4.5,6.4-6.7,10.7-6.7C715.8,77.6,719.8,82.6,719.8,89.6z"/>
<path class="st0" d="M750.2,114c0,16.2-4,23.6-11.8,23.6s-11.9-7.4-11.9-23.6c0-16.1,4.1-23.4,11.9-23.4S750.2,98,750.2,114z
	 M731.9,114c0,14.4,2.2,19.1,6.5,19.1c4.3,0,6.5-4.8,6.5-19.1c0-14.5-2.2-19-6.5-19C734.1,95,731.9,99.7,731.9,114z"/>
<path class="st0" d="M775.1,97.6c0,8.5-3.9,14.4-15.1,29.5h16l-0.6,4.7h-20.9v-4.4c12.5-17.1,15.3-21.9,15.3-29.6
	c0-5-2.2-7.6-5.7-7.6c-2.9,0-4.8,1.6-7.1,4.8l-3.4-2.6c2.9-4.5,6.4-6.7,10.7-6.7C771.1,85.6,775.1,90.6,775.1,97.6z"/>
<path class="st0" d="M794.2,120.8h-5.1V81.1l-8.1,6.4l-2.4-3.6l10.9-8.6h4.6V120.8z"/>
<g>
	<polyline class="st0" points="20.5,61.2 25.3,63.6 51.2,68.7 60.9,75.1 67.5,86 67.5,100.4 61,110.2 52.9,116 41.4,119.4 
		26.3,119.4 11.9,115.7 3.9,109.4 0,105 9.8,95.5 13.1,99.4 17.6,102.9 28.1,105.6 39.5,105.6 46.6,103.6 50.9,100.6 53.6,96.3 
		53.6,89.9 50.7,85 45.6,81.4 21.2,76.5 10.3,70.7 3.2,60.9 3.2,45.8 8.8,36.1 16.4,30.2 27,27.3 41.4,27.3 55.3,31 65.4,38 
		57.8,49.4 49.7,43.8 40.2,40.9 28.8,40.9 22.4,42.7 19.5,45.1 17.1,49.2 17.1,56.7 20.5,61.2 	"/>
	<polyline class="st0" points="93.1,10.8 107.1,10.8 107.1,57.8 111.2,54.4 122.6,47.9 138.2,47.9 152.4,52 162.8,65.9 162.8,138.6 
		148.7,138.6 148.7,71.3 144.4,64.7 135.3,61.8 124.4,61.8 112.6,69.6 107.1,77.6 107.1,138.6 93.1,138.6 93.1,10.8 	"/>
	<path class="st0" d="M232.1,105.6l10-4.9l5.1-7.6l2.2-11.4v-17l-2.2-11l-5.3-7.5l-9.8-5.1h-13.2l-10.2,5.1l-4.9,7.5l-2.2,11v17
		l2.2,11.4l5.1,7.6l10,4.9H232.1 M216.5,119.4l-17.1-8.1l-8.5-12.5l-3.4-15.4v-20l3.4-15.3l8.5-12.5l17.1-8.3h18l17.1,8.3l8.5,12.5
		l3.4,15.3v20l-3.4,15.3l-8.5,12.5l-17.1,8.1L216.5,119.4L216.5,119.4z"/>
	<polyline class="st0" points="330.4,41.2 323.1,41.2 313.8,45.6 306.9,53.4 303.1,61.6 303.1,118 289.1,118 289.1,28.7 303.1,28.7 
		303.1,39 309.6,32.7 321.1,27.3 332.1,27.3 340.6,29.7 337.2,43.1 330.4,41.2 	"/>
	<polyline class="st0" points="379.4,51.5 402.8,51.5 402.8,65.4 379.4,65.4 379.4,117.6 383.7,123.7 389.8,126.1 394.5,126.1 
		406.5,123 410.1,136.4 394.3,140 386.5,140 374.7,135.6 365.3,122.2 365.3,65.4 349.2,65.4 349.2,51.5 365.3,51.5 365.3,20.3 
		379.4,20.3 379.4,51.5 	"/>
	<polyline class="st0" points="446,61.2 450.8,63.6 476.7,68.7 486.4,75.1 493,86 493,100.4 486.6,110.2 478.4,116 466.9,119.4 
		451.8,119.4 437.4,115.7 429.4,109.4 425.5,105 435.4,95.5 438.6,99.4 443.1,102.9 453.7,105.6 465,105.6 472.1,103.6 476.4,100.6 
		479.1,96.3 479.1,89.9 476.2,85 471.1,81.4 446.7,76.5 435.9,70.7 428.7,60.9 428.7,45.8 434.3,36.1 442,30.2 452.5,27.3 
		466.9,27.3 480.8,31 491,38 483.3,49.4 475.2,43.8 465.7,40.9 454.3,40.9 447.9,42.7 445,45.1 442.6,49.2 442.6,56.7 446,61.2 	"/>
</g>
</svg>
