<?xml version="1.0" encoding="utf-8"?>
<!-- Generator: Adobe Illustrator 25.4.1, SVG Export Plug-In . SVG Version: 6.00 Build 0)  -->
<svg version="1.1" id="Layer_1" xmlns="http://www.w3.org/2000/svg" xmlns:xlink="http://www.w3.org/1999/xlink" x="0px" y="0px"
	 viewBox="0 0 800 140" style="enable-background:new 0 0 800 140;" xml:space="preserve">
<style type="text/css">
	.st0{fill:#29333A;}
</style>
<g>
	<polyline class="st0" points="20.5,61.2 25.3,63.6 51.2,68.7 60.9,75.1 67.5,86 67.5,100.4 61,110.2 52.9,116 41.4,119.4 
		26.3,119.4 11.9,115.7 3.9,109.4 0,105 9.8,95.5 13.1,99.4 17.6,102.9 28.1,105.6 39.5,105.6 46.6,103.6 50.9,100.6 53.6,96.3 
		53.6,89.9 50.7,85 45.6,81.4 21.2,76.5 10.3,70.7 3.2,60.9 3.2,45.8 8.8,36.1 16.4,30.2 27,27.3 41.4,27.3 55.3,31 65.4,38 
		57.8,49.4 49.7,43.8 40.2,40.9 28.8,40.9 22.4,42.7 19.5,45.1 17.1,49.2 17.1,56.7 20.5,61.2 	"/>
	<polyline class="st0" points="93.1,10.8 107.1,10.8 107.1,57.8 111.2,54.4 122.6,47.9 138.2,47.9 152.4,52 162.8,65.9 162.8,138.6 
		148.7,138.6 148.7,71.3 144.4,64.7 135.3,61.8 124.4,61.8 112.6,69.6 107.1,77.6 107.1,138.6 93.1,138.6 93.1,10.8 	"/>
	<path class="st0" d="M232.1,105.6l10-4.9l5.1-7.6l2.2-11.4v-17l-2.2-11l-5.3-7.5l-9.8-5.1h-13.2l-10.2,5.1l-4.9,7.5l-2.2,11v17
		l2.2,11.4l5.1,7.6l10,4.9H232.1 M216.5,119.4l-17.1-8.1l-8.5-12.5l-3.4-15.4v-20l3.4-15.3l8.5-12.5l17.1-8.3h18l17.1,8.3l8.5,12.5
		l3.4,15.3v20l-3.4,15.3l-8.5,12.5l-17.1,8.1L216.5,119.4L216.5,119.4z"/>
	<polyline class="st0" points="330.4,41.2 323.1,41.2 313.8,45.6 306.9,53.4 303.1,61.6 303.1,118 289.1,118 289.1,28.7 303.1,28.7 
		303.1,39 309.6,32.7 321.1,27.3 332.1,27.3 340.6,29.7 337.2,43.1 330.4,41.2 	"/>
	<polyline class="st0" points="379.4,51.5 402.8,51.5 402.8,65.4 379.4,65.4 379.4,117.6 383.7,123.7 389.8,126.1 394.5,126.1 
		406.5,123 410.1,136.4 394.3,140 386.5,140 374.7,135.6 365.3,122.2 365.3,65.4 349.2,65.4 349.2,51.5 365.3,51.5 365.3,20.3 
		379.4,20.3 379.4,51.5 	"/>
	<polyline class="st0" points="446,61.2 450.8,63.6 476.7,68.7 486.4,75.1 493,86 493,100.4 486.6,110.2 478.4,116 466.9,119.4 
		451.8,119.4 437.4,115.7 429.4,109.4 425.5,105 435.4,95.5 438.6,99.4 443.1,102.9 453.7,105.6 465,105.6 472.1,103.6 476.4,100.6 
		479.1,96.3 479.1,89.9 476.2,85 471.1,81.4 446.7,76.5 435.9,70.7 428.7,60.9 428.7,45.8 434.3,36.1 442,30.2 452.5,27.3 
		466.9,27.3 480.8,31 491,38 483.3,49.4 475.2,43.8 465.7,40.9 454.3,40.9 447.9,42.7 445,45.1 442.6,49.2 442.6,56.7 446,61.2 	"/>
</g>
<g>
	<path class="st0" d="M532.7,118.9V99.5l-2.6,2.1l-2.6-3.4l5.6-4.9h4.3v25.5H532.7z"/>
	<path class="st0" d="M553.8,119.1c-4.2,0-8-2.3-8-7v-11.9c0-4.7,3.9-7.1,8.2-7.1c3,0,5.6,0.9,7.5,2.6l-2.5,3.8
		c-1.6-1.4-3.2-1.9-4.8-1.9c-1.4,0-3.6,1-3.6,3.2v2.7c2.2-1.2,3.6-1.5,4.8-1.5c4.2,0,6.4,3,6.4,6.9v3
		C561.7,116.8,557.7,119.1,553.8,119.1z M556.9,109.4c0-2-1.1-2.7-2.3-2.7c-1.3,0-2.5,0.5-4.1,1.4v3.2c0,2.4,1.7,3.3,3.3,3.3
		c1.5,0,3.2-1,3.2-3.3V109.4z"/>
	<path class="st0" d="M574.7,111.4v-4.2h12.1v4.2H574.7z"/>
	<path class="st0" d="M611,108c-2,1.6-5.7,3.6-6.1,6.7h11.1v4.2h-16v-3.6c0-4.1,2.7-6.9,5.6-9c2.8-2,5.6-3.7,5.6-5.9
		c0-1.7-1.7-2.7-3.6-2.7c-1.7,0-3.5,0.6-4.9,1.8l-2.4-3.7c1.9-1.7,4.6-2.6,7.5-2.6c4,0,8.2,1.8,8.2,7.2
		C615.9,103.7,613.2,106.2,611,108z"/>
	<path class="st0" d="M634.4,115.2v3.7h-4.8v-3.7H619v-3.8l8.2-18h5l-7.9,17.6h5.4v-7.3h4.8v7.3h2.1v4.2H634.4z"/>
	<path class="st0" d="M654.2,102.8v16.1h-5V93.4h4.6l5.9,8.7l4.8,7.4h0.1V93.4h5.1v25.5h-4.6l-6.5-9.6l-4.2-6.4H654.2z"/>
	<path class="st0" d="M683.7,119.2c-5.4,0-9.8-2.9-9.8-8.4v-9.4c0-5.4,4.7-8.3,9.8-8.3c5.1,0,9.8,3,9.8,8.4v9.2
		C693.5,116.2,689.1,119.2,683.7,119.2z M688.4,102.4c0-3.3-2.4-4.6-4.7-4.6c-2.4,0-4.7,1.3-4.7,4.6v7.4c0,3.4,2.4,4.6,4.7,4.6
		c2.3,0,4.7-1.3,4.7-4.6V102.4z"/>
	<path class="st0" d="M706.9,111.4l2.6-9.1l2.7-9h5.3l-8.1,25.5h-5.3l-8.2-25.5h5.4l2.8,9.2l2.6,8.8H706.9z"/>
	<path class="st0" d="M740.3,108c-2,1.6-5.7,3.6-6.1,6.7h11.1v4.2h-16v-3.6c0-4.1,2.7-6.9,5.6-9c2.8-2,5.6-3.7,5.6-5.9
		c0-1.7-1.7-2.7-3.6-2.7c-1.7,0-3.5,0.6-4.9,1.8l-2.4-3.7c1.9-1.7,4.6-2.6,7.5-2.6c4,0,8.2,1.8,8.2,7.2
		C745.2,103.7,742.5,106.2,740.3,108z"/>
	<path class="st0" d="M757,119.1c-3.7,0-8-2.1-8-6.8V100c0-4.6,4.4-6.9,8-6.9c3.7,0,8,2.3,8,6.9v12.3
		C765,116.9,760.7,119.1,757,119.1z M760.2,101c0-2.4-1.7-3.3-3.3-3.3c-1.5,0-3.3,0.9-3.3,3.3v10.4c0,2.4,1.8,3.3,3.3,3.3
		c1.6,0,3.3-0.9,3.3-3.3V101z"/>
	<path class="st0" d="M779.8,108c-2,1.6-5.7,3.6-6.1,6.7h11.1v4.2h-16v-3.6c0-4.1,2.7-6.9,5.6-9c2.8-2,5.6-3.7,5.6-5.9
		c0-1.7-1.7-2.7-3.6-2.7c-1.7,0-3.5,0.6-4.9,1.8l-2.4-3.7c1.9-1.7,4.6-2.6,7.5-2.6c4,0,8.2,1.8,8.2,7.2
		C784.8,103.7,782,106.2,779.8,108z"/>
	<path class="st0" d="M795.3,118.9V99.5l-2.6,2.1l-2.6-3.4l5.6-4.9h4.3v25.5H795.3z"/>
</g>
</svg>
