<?xml version="1.0" encoding="utf-8"?>
<!-- Generator: Adobe Illustrator 26.0.3, SVG Export Plug-In . SVG Version: 6.00 Build 0)  -->
<svg version="1.1" id="Layer_1" xmlns="http://www.w3.org/2000/svg" xmlns:xlink="http://www.w3.org/1999/xlink" x="0px" y="0px"
	 viewBox="0 0 800 140" style="enable-background:new 0 0 800 140;" xml:space="preserve">
<style type="text/css">
	.st0{fill:#29333A;}
	.st1{fill:#0066CC;}
	.st2{fill:#FFCC00;}
</style>
<g>
	<path class="st0" d="M536.8,85h2.6c0.3,0,0.5,0.2,0.5,0.5v32.8c0,0.3-0.2,0.5-0.5,0.5h-2.5c-0.3,0-0.5-0.2-0.5-0.5V89
		c0-0.1,0-0.1-0.1-0.1c0,0-0.1,0-0.2,0l-4.5,1.5l-0.1,0c-0.2,0-0.4-0.1-0.4-0.4l-0.2-1.8v-0.1c0-0.2,0.1-0.3,0.3-0.5l5-2.5
		C536.3,85,536.5,85,536.8,85z"/>
	<path class="st0" d="M560.6,108.5c0,1.4-0.1,2.8-0.3,4c-0.3,2.2-1.1,3.8-2.4,4.9c-1.3,1.1-2.9,1.7-5,1.7c-2.1,0-3.8-0.6-5-1.7
		c-1.3-1.1-2.1-2.8-2.4-5.1l-0.1-1.4v-0.1c0-0.3,0.1-0.4,0.4-0.4h2.5c0.3,0,0.5,0.2,0.5,0.5l0.1,1.2c0.5,2.7,1.9,4,4,4
		c1,0,1.9-0.3,2.6-1c0.7-0.7,1.1-1.6,1.4-2.9c0.2-1,0.3-2.3,0.3-3.9c0-1.6-0.1-3-0.4-4.1c-0.6-2.2-1.9-3.4-3.9-3.4
		c-2.2,0-3.6,1.1-4.1,3.3c-0.1,0.3-0.3,0.4-0.5,0.4h-2.5c-0.3,0-0.5-0.2-0.5-0.5V85.5c0-0.3,0.2-0.5,0.5-0.5h13.6
		c0.3,0,0.5,0.2,0.5,0.5v2c0,0.3-0.2,0.5-0.5,0.5h-10.5c-0.1,0-0.2,0.1-0.2,0.2l0,12c0,0.1,0,0.1,0.1,0.1c0,0,0.1,0,0.2,0
		c0.5-0.8,1.2-1.4,2-1.8c0.9-0.4,1.8-0.6,2.9-0.6c1.7,0,3.1,0.5,4.2,1.5c1.1,1,1.8,2.5,2.2,4.4C560.5,105,560.6,106.6,560.6,108.5z"
		/>
	<path class="st0" d="M573.6,104.7v-2c0-0.3,0.2-0.5,0.5-0.5h11c0.3,0,0.5,0.2,0.5,0.5v2c0,0.3-0.2,0.5-0.5,0.5h-11
		C573.8,105.2,573.6,105.1,573.6,104.7z"/>
	<path class="st0" d="M602.8,115.7c0,0,0.1,0.1,0.1,0.1h11.3c0.3,0,0.5,0.2,0.5,0.5v2c0,0.3-0.2,0.5-0.5,0.5h-15.1
		c-0.3,0-0.5-0.2-0.5-0.5v-2.2c0-0.3,0.1-0.5,0.2-0.6c1-1.6,1.6-2.5,1.7-2.7c2.8-4.5,5.1-8.1,6.7-10.9c2.1-3.5,3.1-6.5,3.1-8.8
		c0-1.7-0.4-3-1.2-4c-0.8-1-1.8-1.5-3-1.5c-1.2,0-2.2,0.5-3,1.5c-0.8,1-1.1,2.3-1.1,3.9v1.8c0,0.3-0.2,0.5-0.5,0.5h-2.5
		c-0.3,0-0.5-0.2-0.5-0.5v-1.9c0.1-2.5,0.8-4.5,2.2-6c1.4-1.5,3.2-2.3,5.5-2.3s4.1,0.8,5.4,2.3c1.4,1.6,2.1,3.6,2.1,6.1
		c0,3-1.1,6.4-3.4,10.2c-1.2,2-2.8,4.6-4.9,7.9l-2.7,4.3C602.8,115.6,602.8,115.6,602.8,115.7z"/>
	<path class="st0" d="M633.3,108.5c0,1.7-0.2,3.3-0.5,4.7c-0.9,4-3.3,5.9-7.1,5.9c-2,0-3.7-0.6-5-1.7c-1.3-1.1-2.1-2.7-2.4-4.7
		c-0.2-1.1-0.3-2.4-0.3-3.7c0-0.3,0.2-0.5,0.5-0.5h2.5c0.3,0,0.5,0.2,0.5,0.5c0,1.2,0.1,2.2,0.3,3.1c0.5,2.6,1.9,4,4,4
		c1,0,1.8-0.3,2.5-0.9c0.7-0.6,1.2-1.5,1.4-2.7c0.3-1.3,0.4-2.8,0.4-4.3c0-2-0.2-3.7-0.6-5.1c-0.3-1-0.8-1.8-1.4-2.3
		c-0.6-0.5-1.4-0.8-2.3-0.8c-0.3,0-0.7,0.1-1.1,0.3c-0.3,0.2-0.5,0.1-0.7,0l-1.3-1.3c-0.2-0.2-0.2-0.4,0-0.7l6.4-10.1
		c0,0,0-0.1,0-0.1c0-0.1-0.1-0.1-0.1-0.1h-10.2c-0.3,0-0.5-0.2-0.5-0.5v-2c0-0.3,0.2-0.5,0.5-0.5h14.1c0.3,0,0.5,0.2,0.5,0.5v2.2
		c0,0.2-0.1,0.4-0.2,0.6l-6,9.3c0,0.1,0,0.1,0,0.2c0,0,0.1,0.1,0.1,0.1c1.3,0.1,2.4,0.7,3.3,1.6s1.6,2.1,2,3.6
		C633,104.6,633.3,106.5,633.3,108.5z"/>
	<path class="st0" d="M662.9,85h2.4c0.3,0,0.5,0.2,0.5,0.5v32.8c0,0.3-0.2,0.5-0.5,0.5h-2.8c-0.3,0-0.4-0.1-0.5-0.4l-9.4-24.9
		c0-0.1-0.1-0.1-0.1-0.1c-0.1,0-0.1,0.1-0.1,0.2l0,24.8c0,0.3-0.2,0.5-0.5,0.5h-2.5c-0.3,0-0.5-0.2-0.5-0.5V85.5
		c0-0.3,0.2-0.5,0.5-0.5h2.8c0.3,0,0.4,0.1,0.5,0.4l9.4,25c0,0.1,0.1,0.1,0.1,0.1c0.1,0,0.1-0.1,0.1-0.2V85.5
		C662.4,85.1,662.6,85,662.9,85z"/>
	<path class="st0" d="M674.1,116.8c-1.5-1.5-2.3-3.6-2.3-6.1V93c0-2.5,0.8-4.6,2.3-6.1c1.5-1.5,3.5-2.3,6-2.3c2.5,0,4.5,0.8,6.1,2.3
		c1.5,1.5,2.3,3.6,2.3,6.1v17.6c0,2.5-0.8,4.5-2.3,6.1c-1.5,1.6-3.6,2.3-6.1,2.3C677.7,119.1,675.7,118.3,674.1,116.8z M683.7,114.6
		c0.9-1,1.4-2.2,1.4-3.8v-18c0-1.6-0.5-2.9-1.4-3.8c-0.9-1-2.1-1.5-3.6-1.5c-1.4,0-2.6,0.5-3.5,1.5c-0.9,1-1.3,2.3-1.3,3.8v18
		c0,1.5,0.4,2.8,1.3,3.8c0.9,1,2.1,1.5,3.5,1.5C681.6,116.1,682.8,115.6,683.7,114.6z"/>
	<path class="st0" d="M699.7,118.3l-7-32.8v-0.1c0-0.3,0.1-0.4,0.4-0.4h2.7c0.3,0,0.5,0.1,0.5,0.4l5.2,26.9c0,0.1,0.1,0.1,0.1,0.1
		c0,0,0.1,0,0.1-0.1l5.2-26.9c0.1-0.3,0.2-0.4,0.5-0.4h2.6c0.4,0,0.5,0.2,0.4,0.5l-7,32.8c0,0.3-0.2,0.4-0.5,0.4h-2.7
		C700,118.7,699.8,118.6,699.7,118.3z"/>
	<path class="st0" d="M727.9,115.7c0,0,0.1,0.1,0.1,0.1h11.3c0.3,0,0.5,0.2,0.5,0.5v2c0,0.3-0.2,0.5-0.5,0.5h-15.1
		c-0.3,0-0.5-0.2-0.5-0.5v-2.2c0-0.3,0.1-0.5,0.2-0.6c1-1.6,1.6-2.5,1.7-2.7c2.8-4.5,5.1-8.1,6.7-10.9c2.1-3.5,3.1-6.5,3.1-8.8
		c0-1.7-0.4-3-1.2-4c-0.8-1-1.8-1.5-3-1.5c-1.2,0-2.2,0.5-3,1.5c-0.8,1-1.1,2.3-1.1,3.9v1.8c0,0.3-0.2,0.5-0.5,0.5h-2.5
		c-0.3,0-0.5-0.2-0.5-0.5v-1.9c0.1-2.5,0.8-4.5,2.2-6c1.4-1.5,3.2-2.3,5.5-2.3s4.1,0.8,5.4,2.3c1.4,1.6,2.1,3.6,2.1,6.1
		c0,3-1.1,6.4-3.4,10.2c-1.2,2-2.8,4.6-4.9,7.9l-2.7,4.3C727.9,115.6,727.9,115.6,727.9,115.7z"/>
	<path class="st0" d="M746,116.8c-1.5-1.6-2.2-3.7-2.2-6.2V93.1c0-2.6,0.7-4.7,2.2-6.2c1.5-1.6,3.5-2.4,5.9-2.4c2.5,0,4.5,0.8,6,2.4
		c1.5,1.6,2.3,3.7,2.3,6.2v17.4c0,2.6-0.8,4.7-2.3,6.2c-1.5,1.6-3.5,2.4-6,2.4C749.4,119.2,747.4,118.4,746,116.8z M755.4,114.7
		c0.9-1,1.3-2.3,1.3-4V92.9c0-1.6-0.4-3-1.3-4c-0.9-1-2-1.5-3.5-1.5c-1.4,0-2.6,0.5-3.4,1.5c-0.9,1-1.3,2.3-1.3,4v17.8
		c0,1.6,0.4,3,1.3,4c0.9,1,2,1.5,3.4,1.5C753.3,116.2,754.5,115.7,755.4,114.7z"/>
	<path class="st0" d="M768.7,115.7c0,0,0.1,0.1,0.1,0.1h11.3c0.3,0,0.5,0.2,0.5,0.5v2c0,0.3-0.2,0.5-0.5,0.5H765
		c-0.3,0-0.5-0.2-0.5-0.5v-2.2c0-0.3,0.1-0.5,0.2-0.6c1-1.6,1.6-2.5,1.7-2.7c2.8-4.5,5.1-8.1,6.7-10.9c2.1-3.5,3.1-6.5,3.1-8.8
		c0-1.7-0.4-3-1.2-4c-0.8-1-1.8-1.5-3-1.5c-1.2,0-2.2,0.5-3,1.5c-0.8,1-1.1,2.3-1.1,3.9v1.8c0,0.3-0.2,0.5-0.5,0.5H765
		c-0.3,0-0.5-0.2-0.5-0.5v-1.9c0.1-2.5,0.8-4.5,2.2-6c1.4-1.5,3.2-2.3,5.5-2.3s4.1,0.8,5.4,2.3c1.4,1.6,2.1,3.6,2.1,6.1
		c0,3-1.1,6.4-3.4,10.2c-1.2,2-2.8,4.6-4.9,7.9l-2.7,4.3C768.6,115.6,768.6,115.6,768.7,115.7z"/>
	<path class="st0" d="M788,115.7c0,0,0.1,0.1,0.1,0.1h11.3c0.3,0,0.5,0.2,0.5,0.5v2c0,0.3-0.2,0.5-0.5,0.5h-15.1
		c-0.3,0-0.5-0.2-0.5-0.5v-2.2c0-0.3,0.1-0.5,0.2-0.6c1-1.6,1.6-2.5,1.7-2.7c2.8-4.5,5.1-8.1,6.7-10.9c2.1-3.5,3.1-6.5,3.1-8.8
		c0-1.7-0.4-3-1.2-4c-0.8-1-1.8-1.5-3-1.5c-1.2,0-2.2,0.5-3,1.5c-0.8,1-1.1,2.3-1.1,3.9v1.8c0,0.3-0.2,0.5-0.5,0.5h-2.5
		c-0.3,0-0.5-0.2-0.5-0.5v-1.9c0.1-2.5,0.8-4.5,2.2-6c1.4-1.5,3.2-2.3,5.5-2.3s4.1,0.8,5.4,2.3c1.4,1.6,2.1,3.6,2.1,6.1
		c0,3-1.1,6.4-3.4,10.2c-1.2,2-2.8,4.6-4.9,7.9l-2.7,4.3C788,115.6,788,115.6,788,115.7z"/>
</g>
<g>
	<g id="XMLID_00000139255261744002320330000006578143062427342505_">
		<polygon class="st1" points="491,38 483.3,49.4 475.2,43.8 465.7,40.9 454.3,40.9 447.9,42.7 445,45.1 442.6,49.2 442.6,56.7 
			446,61.2 450.8,63.6 476.7,68.7 486.4,75.1 486.6,75.4 444.6,75.4 435.9,70.7 428.7,60.9 428.7,45.8 434.3,36.1 442,30.2 
			452.5,27.3 466.9,27.3 480.8,31 		"/>
		<polygon class="st1" points="402.8,51.5 402.8,65.4 379.4,65.4 379.4,75.4 365.3,75.4 365.3,65.4 349.2,65.4 349.2,51.5 
			365.3,51.5 365.3,20.3 379.4,20.3 379.4,51.5 		"/>
		<polygon class="st1" points="340.6,29.7 337.2,43.1 330.4,41.2 323.1,41.2 313.8,45.6 306.9,53.4 303.1,61.6 303.1,75.4 
			289.1,75.4 289.1,28.7 303.1,28.7 303.1,39 309.6,32.7 321.1,27.3 332.1,27.3 		"/>
		<polygon class="st1" points="263.5,63.4 263.5,75.4 249.4,75.4 249.4,64.7 247.2,53.7 241.9,46.2 232.1,41.1 218.9,41.1 
			208.7,46.2 203.8,53.7 201.6,64.7 201.6,75.4 187.5,75.4 187.5,63.4 190.9,48.1 199.4,35.6 216.5,27.3 234.5,27.3 251.6,35.6 
			260.1,48.1 		"/>
		<polygon class="st1" points="162.8,65.9 162.8,75.4 148.7,75.4 148.7,71.3 144.4,64.7 135.3,61.8 124.4,61.8 112.6,69.6 
			108.6,75.4 93.1,75.4 93.1,10.8 107.1,10.8 107.1,57.8 111.2,54.4 122.6,47.9 138.2,47.9 152.4,52 		"/>
		<polygon class="st1" points="65.4,38 57.8,49.4 49.7,43.8 40.2,40.9 28.8,40.9 22.4,42.7 19.5,45.1 17.1,49.2 17.1,56.7 
			20.5,61.2 25.3,63.6 51.2,68.7 60.9,75.1 61.1,75.4 19.1,75.4 10.3,70.7 3.2,60.9 3.2,45.8 8.8,36.1 16.4,30.2 27,27.3 41.4,27.3 
			55.3,31 		"/>
	</g>
	<g id="XMLID_00000129180653111208526380000009203317404495091856_">
		<polygon class="st2" points="493,86 493,100.4 486.6,110.2 478.4,116 466.9,119.4 451.8,119.4 437.4,115.7 429.4,109.4 425.5,105 
			435.4,95.5 438.6,99.4 443.1,102.9 453.7,105.6 465,105.6 472.1,103.6 476.4,100.6 479.1,96.3 479.1,89.9 476.2,85 471.1,81.4 
			446.7,76.5 444.6,75.4 486.6,75.4 		"/>
		<rect x="289.1" y="75.4" class="st2" width="14" height="42.6"/>
		<polygon class="st2" points="406.5,123 410.1,136.4 394.3,140 386.5,140 374.7,135.6 365.3,122.2 365.3,75.4 379.4,75.4 
			379.4,117.6 383.7,123.7 389.8,126.1 394.5,126.1 		"/>
		<polygon class="st2" points="263.5,75.4 263.5,83.4 260.1,98.7 251.6,111.2 234.5,119.3 216.5,119.4 199.4,111.3 190.9,98.8 
			187.5,83.4 187.5,75.4 201.6,75.4 201.6,81.7 203.8,93.1 208.9,100.7 218.9,105.6 232.1,105.6 242.1,100.7 247.2,93.1 249.4,81.7 
			249.4,75.4 		"/>
		<rect x="148.7" y="75.4" class="st2" width="14.1" height="63.2"/>
		<polygon class="st2" points="67.5,86 67.5,100.4 61,110.2 52.9,116 41.4,119.4 26.3,119.4 11.9,115.7 3.9,109.4 0,105 9.8,95.5 
			13.1,99.4 17.6,102.9 28.1,105.6 39.5,105.6 46.6,103.6 50.9,100.6 53.6,96.3 53.6,89.9 50.7,85 45.6,81.4 21.2,76.5 19.1,75.4 
			61.1,75.4 		"/>
		<polygon class="st2" points="108.6,75.4 107.1,77.6 107.1,138.6 93.1,138.6 93.1,75.4 		"/>
	</g>
</g>
</svg>
