<?xml version="1.0" encoding="utf-8"?>
<!-- Generator: Adobe Illustrator 25.4.1, SVG Export Plug-In . SVG Version: 6.00 Build 0)  -->
<svg version="1.1" id="Layer_1" xmlns="http://www.w3.org/2000/svg" xmlns:xlink="http://www.w3.org/1999/xlink" x="0px" y="0px"
	 viewBox="0 0 800 140" style="enable-background:new 0 0 800 140;" xml:space="preserve">
<style type="text/css">
	.st0{fill:#29333A;}
</style>
<g>
	<path class="st0" d="M541.1,118.6h-3.6V90.2l-5.8,4.6l-1.7-2.6l7.8-6.2h3.3V118.6z"/>
	<path class="st0" d="M564.4,107.5c0,7.6-3.4,11.6-8.1,11.6c-6.2,0-8.6-6.1-8.6-15.7c0-11.4,3.7-18,9.7-18c2.1,0,3.7,0.7,5.2,2
		l-1.5,2.6c-1.1-0.9-2.3-1.4-3.7-1.4c-3.6,0-5.8,4.6-6.1,12.8c1.5-2.9,3.6-4.2,6.1-4.2C561.1,97.2,564.4,100.5,564.4,107.5z
		 M560.7,107.6c0-5.4-1.7-7.4-4.1-7.4c-2.1,0-4,2-5.2,4.9c0.1,7.5,1.6,10.8,4.9,10.8C559.2,116,560.7,113.1,560.7,107.6z"/>
	<path class="st0" d="M578.3,101.6H589v3.3h-10.7V101.6z"/>
	<path class="st0" d="M617,94.1c0,6.1-2.8,10.3-10.8,21.1h11.4l-0.4,3.4h-15v-3.2c8.9-12.3,11-15.7,11-21.2c0-3.6-1.6-5.5-4.1-5.5
		c-2.1,0-3.5,1.2-5.1,3.4l-2.4-1.9c2.1-3.2,4.6-4.8,7.7-4.8C614.1,85.5,617,89.1,617,94.1z"/>
	<path class="st0" d="M637.4,110.4h-3.2v8.2h-3.5v-8.2h-10.8v-2.9l7.5-22l3.1,1.2l-6.8,20.5h7.1l0.4-9h3.1v9h3.2V110.4z"/>
	<path class="st0" d="M670,118.6H665l-10.1-29c0.2,2.6,0.5,6.3,0.5,12.5v16.5h-3.6V85h5.1L667,114c-0.2-1-0.5-5.9-0.5-10.1V85h3.6
		V118.6z"/>
	<path class="st0" d="M697.6,101.8c0,11.8-4.3,17.4-10.9,17.4c-6.6,0-10.9-5.4-10.9-17.3c0-11.8,4.4-17.4,10.9-17.4
		C693.3,84.4,697.6,89.8,697.6,101.8z M679.8,101.8c0,10.4,2.8,13.9,6.9,13.9c4.3,0,6.9-3.6,6.9-14c0-10.3-2.6-14-6.9-14
		C682.5,87.8,679.8,91.5,679.8,101.8z"/>
	<path class="st0" d="M712.6,118.6h-4.4L700,85h3.9l6.5,29.2l6.4-29.2h3.7L712.6,118.6z"/>
	<path class="st0" d="M746.6,94.1c0,6.1-2.8,10.3-10.8,21.1h11.4l-0.4,3.4h-15v-3.2c8.9-12.3,11-15.7,11-21.2c0-3.6-1.6-5.5-4.1-5.5
		c-2.1,0-3.5,1.2-5.1,3.4l-2.4-1.9c2.1-3.2,4.6-4.8,7.7-4.8C743.8,85.5,746.6,89.1,746.6,94.1z"/>
	<path class="st0" d="M768.5,102.3c0,11.6-2.9,16.9-8.5,16.9c-5.6,0-8.5-5.3-8.5-16.9c0-11.6,2.9-16.8,8.5-16.8
		C765.6,85.5,768.5,90.7,768.5,102.3z M755.3,102.3c0,10.3,1.6,13.7,4.7,13.7c3.1,0,4.6-3.4,4.6-13.7c0-10.4-1.5-13.6-4.6-13.6
		C756.9,88.6,755.3,92,755.3,102.3z"/>
	<path class="st0" d="M786.3,94.1c0,6.1-2.8,10.3-10.8,21.1h11.4l-0.4,3.4h-15v-3.2c8.9-12.3,11-15.7,11-21.2c0-3.6-1.6-5.5-4.1-5.5
		c-2.1,0-3.5,1.2-5.1,3.4l-2.4-1.9c2.1-3.2,4.6-4.8,7.7-4.8C783.5,85.5,786.3,89.1,786.3,94.1z"/>
	<path class="st0" d="M800,118.6h-3.6V90.2l-5.8,4.6l-1.7-2.6l7.8-6.2h3.3V118.6z"/>
</g>
<g>
	<polyline class="st0" points="20.5,61.2 25.3,63.6 51.2,68.7 60.9,75.1 67.5,86 67.5,100.4 61,110.2 52.9,116 41.4,119.4 
		26.3,119.4 11.9,115.7 3.9,109.4 0,105 9.8,95.5 13.1,99.4 17.6,102.9 28.1,105.6 39.5,105.6 46.6,103.6 50.9,100.6 53.6,96.3 
		53.6,89.9 50.7,85 45.6,81.4 21.2,76.5 10.3,70.7 3.2,60.9 3.2,45.8 8.8,36.1 16.4,30.2 27,27.3 41.4,27.3 55.3,31 65.4,38 
		57.8,49.4 49.7,43.8 40.2,40.9 28.8,40.9 22.4,42.7 19.5,45.1 17.1,49.2 17.1,56.7 20.5,61.2 	"/>
	<polyline class="st0" points="93.1,10.8 107.1,10.8 107.1,57.8 111.2,54.4 122.6,47.9 138.2,47.9 152.4,52 162.8,65.9 162.8,138.6 
		148.7,138.6 148.7,71.3 144.4,64.7 135.3,61.8 124.4,61.8 112.6,69.6 107.1,77.6 107.1,138.6 93.1,138.6 93.1,10.8 	"/>
	<path class="st0" d="M232.1,105.6l10-4.9l5.1-7.6l2.2-11.4v-17l-2.2-11l-5.3-7.5l-9.8-5.1h-13.2l-10.2,5.1l-4.9,7.5l-2.2,11v17
		l2.2,11.4l5.1,7.6l10,4.9H232.1 M216.5,119.4l-17.1-8.1l-8.5-12.5l-3.4-15.4v-20l3.4-15.3l8.5-12.5l17.1-8.3h18l17.1,8.3l8.5,12.5
		l3.4,15.3v20l-3.4,15.3l-8.5,12.5l-17.1,8.1L216.5,119.4L216.5,119.4z"/>
	<polyline class="st0" points="330.4,41.2 323.1,41.2 313.8,45.6 306.9,53.4 303.1,61.6 303.1,118 289.1,118 289.1,28.7 303.1,28.7 
		303.1,39 309.6,32.7 321.1,27.3 332.1,27.3 340.6,29.7 337.2,43.1 330.4,41.2 	"/>
	<polyline class="st0" points="379.4,51.5 402.8,51.5 402.8,65.4 379.4,65.4 379.4,117.6 383.7,123.7 389.8,126.1 394.5,126.1 
		406.5,123 410.1,136.4 394.3,140 386.5,140 374.7,135.6 365.3,122.2 365.3,65.4 349.2,65.4 349.2,51.5 365.3,51.5 365.3,20.3 
		379.4,20.3 379.4,51.5 	"/>
	<polyline class="st0" points="446,61.2 450.8,63.6 476.7,68.7 486.4,75.1 493,86 493,100.4 486.6,110.2 478.4,116 466.9,119.4 
		451.8,119.4 437.4,115.7 429.4,109.4 425.5,105 435.4,95.5 438.6,99.4 443.1,102.9 453.7,105.6 465,105.6 472.1,103.6 476.4,100.6 
		479.1,96.3 479.1,89.9 476.2,85 471.1,81.4 446.7,76.5 435.9,70.7 428.7,60.9 428.7,45.8 434.3,36.1 442,30.2 452.5,27.3 
		466.9,27.3 480.8,31 491,38 483.3,49.4 475.2,43.8 465.7,40.9 454.3,40.9 447.9,42.7 445,45.1 442.6,49.2 442.6,56.7 446,61.2 	"/>
</g>
</svg>
