<?xml version="1.0" encoding="utf-8"?>
<!-- Generator: Adobe Illustrator 27.2.0, SVG Export Plug-In . SVG Version: 6.00 Build 0)  -->
<svg version="1.1" id="Layer_1" xmlns="http://www.w3.org/2000/svg" xmlns:xlink="http://www.w3.org/1999/xlink" x="0px" y="0px"
	 viewBox="0 0 820 150" style="enable-background:new 0 0 820 150;" xml:space="preserve">
<style type="text/css">
	.st0{fill:#2E3D54;}
	.st1{fill:#0165CC;}
	.st2{fill:#FFCC02;}
	.st3{enable-background:new    ;}
</style>
<g>
	<path class="st0" d="M28.9,136.6c0-1.4,0.3-2.2,1-3.4c0.6-1,1.4-2.5,2.1-3.5c0.5-0.8,1-1.1,1.7-1.8c1.8-1.5,3.2-3.3,4.9-4.9
		c0.4-0.4,0.7-0.8,1-1.2c0-0.1,0.2-0.3,0.3-0.2c0.2,0,0.2,0.3,0.2,0.4c0,0.7,0,1.5,0,2.2c-0.2,1.8-0.5,3.6-1.6,5.1
		c-0.3,0.4-0.6,0.7-0.9,1c-0.5,0.6-0.7,1.4-0.7,2.2c0.1,1.6,0.8,3.2,1.2,4.7c0.5,1.6,1,3.2,1.5,4.8c0.3,0.8,0.6,1.5,0.8,2.3
		c-3.8-0.8-7.6-2.1-11.3-4C28.9,138.7,28.8,137.8,28.9,136.6L28.9,136.6z M47.2,144.2c-0.5-1.1-2-1.3-3-1.8c-0.1,0-0.3-0.3-0.3-0.5
		l-1.6-5.3c-0.3-0.9-0.4-1.8-0.2-2.8c0.1-0.5,0.5-1.4,0.7-1.9c0.7-1.2,2.9-4.8,3.8-5.9c1.2-1.6,3-4.5,3.5-6.6c0-0.3,0.3-0.4,0.5-0.4
		c3.9,0.1,8.1,1.1,12.1-0.1c0.5-0.2,0.8,0,0.9,0.7c0,0.9,0.2,1.6,0.2,2.4c0.1,3.5,0.6,7.2,1.2,10.6c0.3,1.9,1.5,7.6,1.7,9.3
		c-6.2,2.2-12.8,3.3-19.3,3c0-0.3,0-0.6,0-0.9L47.2,144.2z M70.1,135.8c0.2-2.8,0.3-5.6,0.6-8.3c0.1-1.1,0.3-2.3,0.5-3.4
		c0.3-1.7,0.9-3.5,1.8-5c0.2-0.3,0.5,0,0.3,0.3c-0.3,0.9-0.6,1.9-0.8,2.9c-0.1,0.5-0.2,15.7-0.3,17.5c-0.7,0.3-1.4,0.7-2.2,1
		C70,140.2,70,137.3,70.1,135.8L70.1,135.8z M107.4,95.4c-2.9,13.9-10.7,26.3-21.1,35.2c-1.2,0.8-2.6,1.8-4.3,3.2
		c-2,1.5-4.1,2.9-6.2,4.1c0-1.2,0-2.4,0.2-3.6c0.1-1.2,1.1-7,1.3-7.9c0.2-0.8,1.1-4.8,3.1-7.5c0.8-1.1,1.6-2.2,2.3-3.3
		c1.3-2.1,2.3-4.7,2.8-7.1c1.8-3.5,1.8-7.5,2-8.1c0.3-0.6,2.8-3.4,3.4-8.8c0.7-5.5-0.5-10.9-0.8-11.8c-0.2-0.6-0.4-1.2-0.4-1.9
		c0-0.7,0-0.7,0.2-1.1c1.1-3.8-0.6-9.2-1.2-9.1s-4,5-4.3,4.6c-0.1-0.2-2-0.5-3.9-0.5s-3.8,0.3-3.9,0.5c-0.3,0.4-3.7-4.5-4.3-4.6
		c-0.6-0.1-2.3,5.4-1.2,9.1c0.1,0.4,0.3,0.9,0.1,1.1c-1,1.7-3.2,5.5-4.9,8.5c-1.1,1.8-3.2,2.7-6.1,3.1c-4,0.5-16.3,1.7-19.9,2.4
		c-8,1.5-12.3,5.9-16.4,16c-4.9,12-1,17.4-0.3,19.6c0.2,0.6,0.4,1,0.7,0.9c0.7-0.1,0.6-0.1,1.3-3.2c0.4-1.7,0.3-6.6,2.4-11.6
		c0.6-1.5,0.8-3.1,1.2-4.1c0.1-0.3,0.3-0.2,0.4,0c0,3.7,0.7,6.4,0.7,6.4c0.6,3.8,0.2,7.2-1.9,10.9c-0.9,1.5-2,3-2.7,4.6
		c-0.2,0.5-0.4,0.9-0.4,1.7c0,1.9,0.3,3.5,0.4,5c-0.9-0.6-1.7-1.1-2.6-1.8C11.1,126.6,5.2,110,9,91.5c5.9-28.6,32.8-50.8,60-49.8
		c27.2,1.1,44.5,25.1,38.6,53.7H107.4z M100.4,36.7C76.5,17.5,38.8,24.5,16.2,52.5c-22.5,28-21.4,66.4,2.6,85.6
		c23.9,19.3,61.6,12.2,84.1-15.8S124.3,56,100.4,36.7z"/>
	<path class="st0" d="M434.1,46.1c5.8,1.8,8.2,4.3,8.5,7.5c0.3,2.6-3.1,3.9-5.6,3.6c-4.6-0.5-8.5-2.7-13.9-2.4
		c-4.3,0.2-8.6,2-11.7,5s-5,7.4-4.7,11.7c0,1.7,0.6,3.5,1.7,4.7s3.4,1.7,5.5,1.2c6.5-1.4,13.5-2.6,19.8-0.2c1.7,0.7,3.3,1.8,3.1,4
		c-0.2,2.1-2.5,2.8-4,3c-4.1,0.7-10.7,0.8-14.9,1.2c-1.8,0.2-2.9,1.3-2.8,3.2c0.2,3.2,0.7,7.4,0.7,10.8c0,3-1.7,4.9-4.6,5
		c-3.2,0.1-4.9-1.3-6.5-3.1s-3.7-6.4-4.8-8.9c-2.9-6.9-5.2-14.3-4.5-21.7c0.7-6.9,3.8-13.8,9.1-18.3
		C413.8,44.4,425.7,43.3,434.1,46.1L434.1,46.1z"/>
	<path class="st0" d="M483,46.1c5.8,1.8,8.2,4.3,8.5,7.5c0.3,2.6-3.1,3.9-5.6,3.6c-4.6-0.5-8.5-2.7-13.9-2.4c-4.3,0.2-8.6,2-11.7,5
		s-5,7.4-4.7,11.7c0,1.7,0.6,3.5,1.7,4.7s3.4,1.7,5.5,1.2c6.5-1.4,13.5-2.6,19.8-0.2c1.7,0.7,3.3,1.8,3.1,4s-2.5,2.8-4,3
		c-4.1,0.7-10.7,0.8-14.9,1.2c-1.8,0.2-2.9,1.3-2.8,3.2c0.2,3.2,0.7,7.4,0.7,10.8c0,3-1.7,4.9-4.6,5c-3.2,0.1-4.9-1.3-6.5-3.1
		c-2-2.5-3.7-6.4-4.8-8.9c-2.9-6.9-5.2-14.3-4.5-21.7c0.7-6.9,3.8-13.8,9.1-18.3C462.7,44.4,474.6,43.3,483,46.1L483,46.1z"/>
	<path class="st0" d="M212,78.6c0,1.6,0.8,2.6,2.5,2.8s3.4,0.1,5.1,0.1c2.6,0,2.9-2.1,2.2-3.4c-1-1.8-3.4-6.1-4.5-7.9
		s-1.1-1.8-2.3-1.8c-1.4,0-2.6,0.5-2.9,2.1c-0.2,1.5,0,6.7,0,8L212,78.6z M195.3,92.4c1-2.2,3.6-6.5,5.2-11.9
		c1.2-3.9,2.4-12.2,5.3-18.3c0.8-1.7,1.8-3.4,3.3-4.6c1.4-1.3,3.3-2.1,5.2-2c3.5,0,6.2,3,8.1,6c2.7,4.2,5.5,9.8,8,14.2
		s2,4.4,4.4,4.1s5.4-1.1,6.7,0.7s-0.3,3.9-2.4,5.1c-3.2,1.9-2,3.9-1.2,5.6c0.6,1.4,2.6,4.9,3.3,6.3s1.1,4.4-0.8,5.9s-3,1.2-4.5,0.7
		c-3-1.1-4.5-4-5.4-7c-0.6-1.9-1.3-3.9-2.2-5.6c-1-1.9-3-2.2-5.2-1.9c-2.4,0.3-6.3,0-8.8,0s-3.1,1.1-4.4,2.5c-1.9,2-2.6,5.5-4.9,7.6
		c-1.4,1.3-3.6,2.8-6.6,2.1s-4.9-5.1-2.8-9.5L195.3,92.4z"/>
	<path class="st0" d="M355.5,49c4.8-0.9,7.6-0.2,8.1,2.7c0.4,2.6-1,4.3-5,5.2c-4.9,1.1-20.2,3.5-24,4c-5.7,0.8-5.3,5.9-4.1,9.7
		c1.1,3.4,6.1,15.7,6.5,21.9s-0.5,4.7-3.4,5.4c-2.6,0.6-5,0-6.6-2.8c-2.7-4.9-7.2-23.5-8.5-26.8c-1.2-3.3-2.4-5-5.2-4.8
		c-2.2,0.2-5.5,0.6-7.8,1s-5.2-0.3-5.7-2.8c-0.5-2.1,0.2-4.3,3.5-5.5c6.3-2.2,35.5-3.9,52.1-7.1L355.5,49z"/>
	<path class="st0" d="M388.6,92c-1.3,4.2-4.7,8.8-11.8,10.7c-13.1,3.7-20.6-1.1-25.6-10.6c-2.3-4.4-3.9-10.7-5.3-15.8
		c-0.7-2.5-1.7-6.5,1.1-9s7.1-2,8.6,1c3.1,5.9,2.5,12,7.3,19.4c3.5,5.4,8.1,5.5,12.7,3.2c5.2-2.6,2.4-14.6,1.1-19.5
		c-0.9-3.5-2.4-10.4,3.8-11.1s7.3,6,8,10.5C389.7,78.5,390.4,86.3,388.6,92L388.6,92z"/>
	<path class="st0" d="M199.4,56.6c-0.7-1.8-2.6-2.7-6.7-3.8c-6.8-1.8-12.8-1.7-21.5-0.9c-9.7,1-23.6,3.7-30.3,8.3
		c-2.4,1.6-3.5,4.1-2.2,6.4s3.7,2.5,5.2,2.2c2.7-0.5,15.4-5.5,17.4-5.9c1.9-0.5,2.3,0.8,2.7,1.8c1.6,4.4,5.7,27.9,7.5,32.6
		c2,5.3,5.4,7.5,9.7,6.4c3.7-1,4.4-5.6,2.9-9.7c-1.6-4.5-7.9-24.1-9.1-29.2c-0.9-4,0-4.4,1.6-4.7c3.8-0.7,17.9,0.4,20.9-0.2
		S199.9,58.1,199.4,56.6L199.4,56.6z"/>
	<path class="st0" d="M291.5,76.8c3.7-5.4,6.5-13.3,1.5-18.9c-5-5.5-13.1-8.4-20.4-8.6c-6.6-0.2-12.7,1.7-17.2,6.5
		c-5.5,6-7.5,15.3-8,23.2c-0.3,3.9-0.4,7.8,0,11.7c0.4,3.6,0.8,7.2,2.9,10.2c2.2,3.2,4.1,3.4,6.4,1.3c2.3-2.1,5.2-4.8,7.8-6.1
		c3.1-1.6,6-1.6,9,0.5c3.9,2.7,7.9,5.2,11.7,8c3,2.2,6.9,3.2,9.2,0.8c2.3-2.4,1-5.4-0.8-7.6c-2.7-3.3-6.3-6-9.4-8.9
		c-0.8-0.8-0.8-2.3-0.1-3.1c2.6-2.9,5.4-5.8,7.6-9.1L291.5,76.8z M280.3,77.1c-1.2,1.2-2.6,2.4-4.1,3.3c-1.6,0.9-3.3,1.5-5,2.1
		c-2.2,0.7-4.4,1.6-6.5,2.6c-0.6,0.3-0.9,0.2-1.1-0.2c0-0.2-0.2-0.4-0.2-0.7c-0.7-3.3-1.8-6.6-2.5-10c-0.7-3.5-1-7.7,0.7-10.5
		c1.7-2.8,3.6-4.1,6.1-4.4c2.6-0.3,4.9,0,6,2.4c0.2,0.4,0.4,1.2,0.6,1.5c0,0.2,0.2,0.4,0.4,0.5s0.5,0.2,0.7,0.1
		c1.2-0.2,2.5-0.4,3.8-0.3c2,0.2,3.3,1.4,3.9,2.6C284.9,69.7,283.2,74.1,280.3,77.1L280.3,77.1z"/>
</g>
<g>
	<polygon class="st1" points="561.5,149 578.6,45.8 570.9,45.8 553.7,149 	"/>
	<polygon class="st2" points="553.9,149 571.1,45.8 563.3,45.8 546.1,149 	"/>
	<g>
		<path class="st2" d="M600.7,85.5c-3.8,0-7.2-1-10.4-3.7l3-3.8c2.3,1.8,4.9,2.8,7.3,2.8c3.4,0,4.6-1.5,4.6-3.1
			c0-2.4-2.5-2.9-6.2-3.9c-4.1-1.1-7.8-2.8-7.8-7.5s3.6-7.9,9-8c3.2,0,6.6,0.5,9.5,2.5l-2.3,4.2c-2.4-1.5-4.6-2-6.8-2
			c-2.1,0-4.2,1-4.2,3.1s2.2,2.8,5.9,3.7c5.6,1.2,8.4,3.7,8.4,7.8C610.8,82.8,606.4,85.5,600.7,85.5L600.7,85.5z"/>
		<path class="st2" d="M613,70.3v-4h2.5l0.9-4.8h3.9v4.8h4.6v4h-4.6v7.9c0,1.8,0.4,2.9,2.5,2.9c0.7,0,1.6-0.1,2.8-0.4l0.9,4.2
			c-1.6,0.6-3.6,0.7-4.8,0.7c-5,0-6.2-2.8-6.2-6.8v-8.5C615.4,70.3,613,70.3,613,70.3z"/>
		<path class="st2" d="M640,83.8c-2.3,1.4-4.1,1.7-5.7,1.7c-3.9,0-6.1-2.2-6.1-5.8c0-4.2,3.9-5.8,6.9-5.8h4.9v-0.8
			c0-1.8-0.9-2.7-3.5-2.7c-1.2,0-3.2,0.1-5.1,1.6l-2.2-3.6c2.7-2.1,5.5-2.5,7.8-2.5c5.4,0,7.9,2.5,7.9,7.4v11.9h-4.5L640,83.8
			C640.1,83.8,640,83.8,640,83.8z M640.1,77.5H636c-1.2,0-2.6,0.3-2.6,1.9c0,1,0.8,1.7,2.2,1.7c1.6,0,3.4-0.8,4.4-1.4L640.1,77.5
			L640.1,77.5z"/>
		<path class="st2" d="M660.6,85.4V73.6c0-2.2-1.1-2.9-2.5-2.9c-1.2,0-2.6,0.5-4.5,1.7v12.9h-4.9v-19h4.5l0.4,1.6
			c2.8-1.7,4.7-1.9,6-1.9c4.2,0,6,2.7,6,6.9v12.5L660.6,85.4L660.6,85.4z"/>
		<path class="st2" d="M668.8,72.9c0-4.2,2.4-6.9,6.7-6.9c1.3,0,3.3,0.2,5.1,1.1v-9.4h4.9v27.6H681l-0.4-1.8c-2.1,1.4-4.1,2-5.4,2
			c-4.1,0-6.4-2.3-6.4-7L668.8,72.9L668.8,72.9L668.8,72.9z M673.8,78.2c0,2.2,1.1,2.8,2.4,2.8c1.2,0,3.1-0.8,4.4-1.6v-7.6
			c-1.6-0.7-2.8-1-4.1-1c-1.6,0-2.8,0.9-2.8,3L673.8,78.2L673.8,78.2z"/>
		<path class="st2" d="M692.6,58.4c1.5,0,2.7,1.2,2.7,2.8s-1.2,2.7-2.7,2.7s-2.7-1.2-2.7-2.7C689.9,59.6,691.1,58.4,692.6,58.4z
			 M690.2,85.4v-19h4.9v19H690.2z"/>
		<path class="st2" d="M711.5,85.4V73.6c0-2.2-1.1-2.9-2.5-2.9c-1.2,0-2.6,0.5-4.5,1.7v12.9h-4.9v-19h4.5l0.4,1.6
			c2.8-1.7,4.7-1.9,6-1.9c4.2,0,6,2.7,6,6.9v12.5L711.5,85.4L711.5,85.4z"/>
		<path class="st2" d="M727.7,93.3c-2.4,0-5.4-0.6-7.7-3.1l3.2-3.2c1.2,1.4,3.4,1.8,4.5,1.8c2.1,0,3.8-0.9,3.8-3.3v-1.9
			c-2.2,1.4-4.2,1.7-5.6,1.7c-4.2,0-6.3-2.7-6.3-6.9v-5.3c0-4.5,2.4-7,6.4-7c1.4,0,3.3,0.5,5.4,1.8l0.4-1.6h4.6v20.1
			C736.5,91.1,731.6,93.3,727.7,93.3L727.7,93.3z M724.7,77.8c0,2.2,1,2.9,2.4,2.9c1.2,0,2.9-0.7,4.4-1.6v-6.7
			c-1.4-1-3.2-1.7-4.4-1.7c-1.4,0-2.4,0.9-2.4,2.9V77.8z"/>
		<path class="st2" d="M756.8,78.4c0.2-0.7,1.6-5,1.9-5.8c0.2-0.8,1.2-3.8,1.4-4.5h4.2l1.6,4.9l1.7,5.6h0.1c0.2-0.9,1.2-5.3,1.4-6.3
			l1.5-6.1h5.1l-5.3,19.1h-5l-1.6-5.1l-1.6-5.1h-0.1c-0.3,0.7-1.4,4.5-1.6,5.3l-1.6,5H754l-5.3-19.1h5.2l1.6,6.3L756.8,78.4
			L756.8,78.4L756.8,78.4z"/>
		<path class="st2" d="M781.3,58.4c1.5,0,2.7,1.2,2.7,2.8s-1.2,2.7-2.7,2.7s-2.7-1.2-2.7-2.7C778.5,59.6,779.7,58.4,781.3,58.4z
			 M778.8,85.4v-19h4.9v19H778.8z"/>
		<path class="st2" d="M787.4,70.3v-4h2.5l0.9-4.8h3.9v4.8h4.6v4h-4.6v7.9c0,1.8,0.4,2.9,2.5,2.9c0.7,0,1.6-0.1,2.8-0.4l0.9,4.2
			c-1.6,0.6-3.6,0.7-4.8,0.7c-5,0-6.2-2.8-6.2-6.8v-8.5C789.8,70.3,787.4,70.3,787.4,70.3z"/>
		<path class="st2" d="M814.7,85.4V73.6c0-2.2-1.2-2.9-2.5-2.9c-1.2,0-2.6,0.5-4.5,1.7v12.9h-4.9V57.8h4.9v10.3c2.8-1.8,4.6-2,5.9-2
			c4.3,0,6,2.8,6,6.9v12.4H814.7L814.7,85.4z"/>
		<path class="st1" d="M607.6,137c-7.9,0-15.2-4.3-15.2-12.8V96.9h7.8v25.7c0,5.2,3.8,7.2,7.4,7.2c3.6,0,7.3-2,7.3-7.2V96.9h7.9V124
			C622.8,132.6,615.4,137,607.6,137L607.6,137z"/>
		<path class="st1" d="M637.6,114c2.2-2.5,4.4-5.1,6.4-7.7l7.8-9.4h9.3l-13.1,16l14.1,23.7h-9.3l-10-17.4c-1.9,2.1-3.7,4.3-5.5,6.4
			v11h-7.9V97h7.9v17.1L637.6,114L637.6,114z"/>
		<path class="st1" d="M683.4,96.9c7.9,0,11.5,6.6,11.5,12.4c0,4.2-2.4,8.9-6.5,11l7.1,16.2H687c-1-2.5-5.1-12.4-6.2-14.9h-7.1v14.9
			h-7.9V96.9C665.7,96.9,683.4,96.9,683.4,96.9z M673.6,114.5h8c3.6,0,5.5-2.2,5.5-5.3s-2-5.3-5.5-5.3h-8V114.5z"/>
		<path class="st1" d="M721.7,128.4h-13.8l-2.6,8.2h-8.4l13.9-39.7h8.1l13.8,39.7h-8.6L721.7,128.4z M710,121.8h9.5l-1.6-5.1
			l-3.1-10.5h-0.2l-3.1,10.3L710,121.8L710,121.8z"/>
		<path class="st1" d="M745.7,96.9v39.7h-7.9V96.9H745.7z"/>
		<path class="st1" d="M761.6,111.6v25h-7.8V96.9h7.1l9.2,13.6l7.6,11.5h0.2V96.9h7.9v39.7h-7.2l-10.1-15l-6.6-10L761.6,111.6
			L761.6,111.6z"/>
		<path class="st1" d="M792.6,96.9H820v7.1h-19.5v9.1h16.6v7.1h-16.6v9.4H820v7h-27.4V96.9L792.6,96.9z"/>
	</g>
</g>
<g class="st3">
	<path class="st0" d="M344.2,134v3.8h-4.9V134h-11v-3.9l8.5-18.6h5.2l-8.2,18.2h5.6v-7.5h4.9v7.5h2.1v4.4H344.2z"/>
	<path class="st0" d="M358.9,130v-4.3h12.5v4.3H358.9z"/>
	<path class="st0" d="M401.5,130.7c0,4.8-4,7.3-8.4,7.3c-3.2,0-5.9-1-7.8-2.7l2.6-3.9c1.6,1.5,3.3,2,5,2c1.5,0,3.7-1,3.7-3.3V127
		c-2.3,1.1-3.6,1.5-4.9,1.5c-4,0-6.6-3-6.6-7.1v-2.7c0-4.9,3.9-7.5,8.2-7.5c4.6,0,8.2,2.7,8.2,7.6V130.7z M393.3,115.8
		c-1.6,0-3.4,1-3.4,3.4v1.8c0,2,1.2,2.8,2.5,2.8c1.3,0,2.6-0.5,4.2-1.5v-3.1C396.6,116.7,394.9,115.8,393.3,115.8z"/>
	<path class="st0" d="M430,132.4h-9.2l-1.7,5.4h-5.6l9.3-26.4h5.4l9.2,26.4h-5.7L430,132.4z M422.2,128h6.4l-1-3.4l-2.1-7h-0.2
		l-2,6.9L422.2,128z"/>
	<path class="st0" d="M449.9,138.1c-5.2,0-10.1-2.9-10.1-8.5v-18.1h5.2v17.1c0,3.4,2.5,4.8,4.9,4.8c2.4,0,4.9-1.3,4.9-4.8v-17.1h5.3
		v18C460.1,135.1,455.2,138.1,449.9,138.1z"/>
	<path class="st0" d="M474.6,138.1c-4.9,0-10.1-2.8-10.1-8.5v-9.8c0-5.7,5-8.7,10.2-8.7c3,0,6.2,0.8,8.2,2.6l-2.6,4.1
		c-1.6-1.4-3.8-1.8-5.6-1.8c-2.4,0-5.1,1.3-5.1,4.8v7.7c0,3.4,2.5,4.8,4.9,4.8c1,0,2.3-0.2,3.4-1.1v-4.4h-3.8v-4.5h9.1v11.1
		C481,137.2,477.4,138.1,474.6,138.1z"/>
</g>
</svg>
