<?xml version="1.0" encoding="utf-8"?>
<!-- Generator: Adobe Illustrator 25.2.3, SVG Export Plug-In . SVG Version: 6.00 Build 0)  -->
<svg version="1.1" id="Layer_1" xmlns="http://www.w3.org/2000/svg" xmlns:xlink="http://www.w3.org/1999/xlink" x="0px" y="0px"
	 viewBox="0 0 600 105" style="enable-background:new 0 0 600 105;" xml:space="preserve">
<style type="text/css">
	.st0{fill:#EF0F20;}
</style>
<path d="M495.8,0.1c2.3,0.2,4.5,0.4,6.8,0.7c5.6,0.7,11,2,15.7,5.3c3,2.2,4.9,4.9,5,8.7c0.2,3.5-1.2,5.1-4.7,5.1
	c-2.9,0-5.8-0.3-8.7-0.7c-4.1-0.6-8.2-1.7-12.3-2.1c-9.3-0.8-18.1,0.7-25.7,6.6c-6.1,4.8-9.2,11.3-10,19c-0.3,3.2-0.2,6.2,1.6,9.1
	c0.3,0.5,0.6,0.9,0.9,1.4c1.4,2.3,3.4,3.3,6.2,3c4.2-0.3,8.3-1.2,12.4-2c7.5-1.5,15-1.5,22.5,0.3c3.7,0.9,6.8,2.8,8.8,6.1
	c0.4,0.7,0.5,1.4,0.2,2.1c-1.1,3-2.8,4.2-6,4.5c-5.8,0.5-11.6,1-17.4,1.6c-2.8,0.3-5.6,0.7-8.5,0.9c-2.4,0.2-4.3,1.4-6.2,2.6
	c-0.2,0.1-0.3,0.8-0.2,1.2c1.2,5.2,1.3,10.4-0.4,15.5c-0.6,1.8-1.6,3.5-2.6,5c-2.8,4.3-10.1,5.9-14.7,1c-3.9-4.1-6.5-8.9-8.6-14
	c-3.5-8.6-6.2-17.5-7.3-26.7c-0.9-7.8,0.2-15.4,3.2-22.7c7-17.5,20-27.7,38.6-30.8c1.7-0.3,3.3-0.4,5-0.6
	C491.3,0.1,493.5,0.1,495.8,0.1z"/>
<path d="M572.6,0.1c2.2,0.2,4.4,0.4,6.6,0.7c5.7,0.8,11.2,2.1,16,5.6c2.9,2.2,4.5,5,4.7,8.7c0.2,3.1-1.4,4.7-4.8,4.9
	c-3.7,0.2-7.3-0.4-10.9-1.2c-5.4-1.1-10.7-2.2-16.2-1.8c-7.4,0.5-14.3,2.4-20.1,7.3c-5.3,4.5-8.3,10.3-9.2,17.2
	c-0.2,1.2-0.2,2.4-0.3,3.6c-0.3,3.7,1.3,6.8,3.6,9.5c1,1.2,2.3,1.7,3.9,1.7c4.6-0.1,9.1-1.1,13.6-2c7.5-1.5,15-1.5,22.5,0.3
	c3.7,0.9,6.8,2.8,8.8,6.2c0.4,0.6,0.4,1.1,0.2,1.8c-1.2,3.2-2.9,4.4-6.3,4.7c-6.4,0.5-12.8,1.2-19.2,1.8c-2.2,0.2-4.4,0.5-6.6,0.8
	c-2.3,0.2-4.1,1.5-6,2.6c-0.2,0.1-0.3,0.7-0.2,1.1c1.1,5.1,1.2,10.1-0.2,15.1c-0.7,2.4-1.9,4.5-3.5,6.5c-2.7,3.1-9,4.6-13,0.8
	c-3.2-2.9-5.6-6.5-7.5-10.3c-4.2-8.6-7.1-17.6-8.7-26.9c-3-17.2,1.7-32.2,13.9-44.6c7.8-7.9,17.6-12.1,28.6-13.5
	c1.1-0.1,2.3-0.3,3.4-0.4C568,0.1,570.3,0.1,572.6,0.1z"/>
<path d="M190.1,72.7c0.4-11.2,1.9-22.3,5.7-32.9c2.6-7.3,5.9-14.2,11.2-20c7.8-8.4,17.4-12.4,28.8-12c8.3,0.3,16.3,2.3,23.7,6.3
	c3.7,2,7,4.5,9.8,7.7c3.8,4.3,5.1,9.3,4.6,14.9c-0.6,6.5-3.6,12.1-7.2,17.4c-3.8,5.7-8.5,10.6-13,15.6c-1.2,1.4-1.2,3.9,0.2,5.2
	c2.1,1.8,4.3,3.5,6.2,5.5c3.2,3.2,6.3,6.4,9.2,9.9c1.4,1.6,2.2,3.7,3.3,5.5c1.1,1.8,0.8,3.7,0.1,5.5c-0.7,1.7-2.2,2.7-4,3.2
	c-2.5,0.7-4.9,0.4-7.4-0.1c-2.1-0.4-3.9-1.2-5.7-2.4c-6.6-4.6-13.4-9.1-20-13.7c-5-3.5-10-3.5-15.4-0.9c-4.4,2.2-7.8,5.6-11.7,8.4
	c-1.9,1.3-4,2.4-6,3.5c-0.5,0.2-1.2,0.2-1.7,0c-1.9-0.6-3.3-1.9-4.4-3.5c-3.2-4.6-4.7-9.8-5.5-15.2
	C190.5,77.9,190.4,75.3,190.1,72.7z M254.4,42.7c-0.1-0.7-0.3-2-0.5-3.3c-0.7-3.6-2.1-6.7-5.8-8.1c-2.4-1-5-0.6-7.4-0.3
	c-1.1,0.2-1.6-0.2-2-1c-0.4-0.8-0.7-1.5-1.2-2.3c-2.5-4.2-5.7-5.7-10.5-4.6c-4.6,1.1-8.1,3.7-10.9,7.4c-1.9,2.5-2.8,5.3-3.3,8.4
	c-0.7,4.1-0.6,8.1,0.3,12.2c0.7,3.2,1.7,6.3,2.5,9.4c0.8,3.1,1.4,6.1,2.1,9.2c0.4,1.8,1,2.3,2.5,1.5c5.2-2.7,10.8-4.3,16.2-6.4
	c2.9-1.1,5.9-2.1,8.3-4.2c1.6-1.4,3.2-2.9,4.7-4.4C252.6,52.4,254.3,48.2,254.4,42.7z"/>
<path d="M102,85.9c0.2-2.7,0.2-5.5,0.5-8.2c0.2-2.6,1-5,2.5-7.1c4.4-6.1,6.7-12.9,8.1-20.2c1.3-6.8,3-13.4,5.8-19.8
	c1.5-3.3,3.3-6.4,5.9-9c4.7-4.8,11.8-4.1,15.9-0.9c2.6,2,4.8,4.3,6.4,7c2.4,4,4.7,8.1,6.9,12.3c2.8,5.2,5.4,10.4,9.1,15
	c0.6,0.7,1.2,1.3,1.8,2c2.4,2.4,5.4,3.4,8.8,3.9c2.5,0.4,5,1.5,7.5,2.3c0.5,0.2,0.9,0.5,1.3,0.8c0.9,0.7,0.9,1.5,0.2,2.2
	c-0.5,0.5-1.2,0.9-1.8,1.1c-3.8,1.3-5.7,4-6.3,7.8c-0.5,3.5,0.1,6.8,2.1,9.8c1.1,1.7,2.1,3.4,3,5.2c1.2,2.3,1.3,4.8,0.7,7.3
	c-0.3,1.6-1.3,2.7-2.8,3.3c-2.1,0.9-4.4,1.2-6.7,1c-2.2-0.2-3.8-1.3-5.1-3c-1.9-2.5-3-5.5-4-8.4c-0.8-2.2-1.5-4.4-2.4-6.6
	c-0.4-0.9-0.9-1.8-1.4-2.7c-1.8-3.1-4.3-4.6-8-4.5c-5.4,0.2-10.7,0.7-15.7,3c-3.4,1.6-6.3,3.8-8.7,6.7c-1.3,1.6-2.5,3.1-3.8,4.7
	c-2.8,3.4-6.3,5.5-10.9,5.4c-1.7,0-3.4,0-5.1-0.2c-2.7-0.3-3.5-1.3-3.6-3.9c-0.1-2.1-0.2-4.2-0.3-6.2
	C102.1,85.9,102.1,85.9,102,85.9z M129.8,51.4c0.1,0,0.2,0,0.3,0c0,2-0.1,4.1,0,6.1c0.1,2.8,1.5,4.5,4.3,4.8
	c2.9,0.3,5.8,0.3,8.7,0.2c1,0,2.1-0.7,3-1.3c1.3-0.9,1.6-3.1,0.7-4.4c-3.5-5.4-7-10.7-10.6-16c-0.2-0.3-0.7-0.6-1.1-0.6
	c-2.8-0.3-4.5,0.8-4.9,3.6C129.8,46.3,129.9,48.9,129.8,51.4z"/>
<path d="M369.3,8.6c5.5,0,10.9-0.1,16.4,0c1.1,0,2.1,0.5,3.1,1c1,0.5,0.9,1,0.2,1.9c-3.8,4.6-8.9,6.3-14.6,7.1
	c-7.2,0.9-14.3,1.7-21.5,2.6c-5.3,0.6-10.6,1.3-15.7,3.3c-1.3,0.5-2.6,1.2-3.7,1.9c-2.2,1.4-3.2,3.5-3.1,6c0,4.3,1.1,8.3,2.7,12.2
	c2.4,5.7,4.8,11.3,7.1,17c1.9,4.8,2.4,9.7,1.6,14.8c-0.5,3.1-1.8,4.3-4.9,4.5c-1.5,0.1-3.1,0.1-4.6-0.1c-3.5-0.4-5.9-2.5-7.8-5.3
	c-2.5-3.6-3.7-7.7-4.7-11.8c-1.4-6-2.9-12-5.4-17.7c-3.3-7.6-8.9-12-17.1-13.4c-3.5-0.6-6.9-0.6-10.4,0.1c-3.7,0.7-5.8-0.8-6.2-4.5
	c-0.2-1.7-0.2-3.4-0.2-5c0.1-2.3,1-3.3,3.3-3.7c5.2-1.1,10.5-2.3,15.7-3.2c10.9-1.9,21.9-3.8,32.9-5.3
	C344.6,9.3,356.9,8.6,369.3,8.6z"/>
<path d="M432.5,61.1c0.1,4.1,0.1,8.3-0.9,12.3c-2,8-6.8,13.5-14.6,16.3c-7.5,2.6-15.3,3.3-23.1,2.2c-9-1.3-16.5-5.6-23.2-11.6
	c-5.3-4.8-9.5-10.5-11.9-17.3c-1.1-3-1.6-6.2-1.6-9.4c0-3.4,2.6-7,6.1-8.3c2.8-1.1,6-0.2,8.5,2.5c2.2,2.4,3.8,5.1,5.3,8
	c1.3,2.6,2.6,5.3,3.9,7.9c2.1,3.9,4.5,7.6,7.8,10.6c4.2,3.8,9.2,4.9,14.6,4.2c3.2-0.4,6.3-1.3,9.2-3c2.8-1.7,5-3.8,5.8-7.1
	c0.5-1.8,0.4-3.5-0.4-5.2c-2.2-5.1-4.4-10.2-6.2-15.5c-2-5.7-2.4-11.6-1.7-17.5c0.4-3.4,1.8-4.5,5.2-4.8c4.7-0.5,8.2,1.2,10.8,5.1
	c2.4,3.6,3.6,7.5,4.5,11.7C431.8,48.2,432.3,54.6,432.5,61.1z"/>
<path d="M109.6,35.2c-4,0-7.9-0.1-11.8,0c-9,0.3-18,0.5-27,1c-11.8,0.6-23.4,2.6-34.9,5.6c-2,0.5-3.9,1.5-5.7,2.5
	c-4.2,2.3-8.4,4.7-12.6,7c-4.8,2.6-9.5,1.9-14.1-0.6c-4-2.2-4.6-6-1.7-9.5C3,39.8,4.5,38.6,6,37.7c4.9-3.1,10.4-4.9,15.9-6.5
	c9.6-2.7,19.3-4.5,29.2-5.8c8.1-1.1,16.1-1.9,24.2-2.7c7-0.7,14.1-0.8,21,0.8c3.8,0.8,7.4,2.2,10.3,4.8
	C108.7,30,109.7,32.5,109.6,35.2z"/>
<path d="M64.9,101.8c-4.2,0.4-7.5-1.3-10.4-4.1c-3.6-3.5-6-7.8-7.9-12.4c-2.7-6.6-4.7-13.4-5.2-20.5c-0.2-3,1-5.1,3.6-6.6
	c2.7-1.5,5.5-2.1,8.2-0.1c1.6,1.2,3.2,2.7,4.4,4.4c2.3,3.5,4.4,7.1,6.3,10.9c2.8,5.5,5.2,11.2,7.9,16.8c0.9,1.8,1.9,3.5,2.8,5.3
	c0.2,0.3,0.2,0.9,0.1,1.3c-1.3,3.3-3.9,5-7.4,5.2C66.4,101.9,65.7,101.8,64.9,101.8z"/>
<path class="st0" d="M254.4,42.7c-0.1,5.5-1.8,9.8-5.2,13.3c-1.5,1.6-3.1,3-4.7,4.4c-2.4,2.1-5.4,3.1-8.3,4.2
	c-5.4,2-11,3.6-16.2,6.4c-1.5,0.8-2.1,0.3-2.5-1.5c-0.7-3.1-1.3-6.2-2.1-9.2c-0.8-3.2-1.8-6.3-2.5-9.4c-0.9-4-0.9-8.1-0.3-12.2
	c0.5-3.1,1.5-5.9,3.3-8.4c2.8-3.7,6.4-6.3,10.9-7.4c4.7-1.1,8,0.4,10.5,4.6c0.4,0.7,0.8,1.5,1.2,2.3c0.4,0.9,0.9,1.2,2,1
	c2.5-0.4,5-0.7,7.4,0.3c3.7,1.4,5.2,4.5,5.8,8.1C254.2,40.6,254.3,41.9,254.4,42.7z"/>
</svg>
