<?xml version="1.0" encoding="utf-8"?>
<!-- Generator: Adobe Illustrator 27.2.0, SVG Export Plug-In . SVG Version: 6.00 Build 0)  -->
<svg version="1.1" id="Layer_1" xmlns="http://www.w3.org/2000/svg" xmlns:xlink="http://www.w3.org/1999/xlink" x="0px" y="0px"
	 viewBox="0 0 400 102" style="enable-background:new 0 0 400 102;" xml:space="preserve">
<style type="text/css">
	.st0{fill:#0066CC;}
	.st1{fill:#FFCC00;}
</style>
<g>
	<path class="st0" d="M24.4,91.8c0-1.1,0.2-1.9,0.8-2.8c0.5-0.9,1.2-2.1,1.8-2.9c0.5-0.6,0.8-0.9,1.4-1.5c1.5-1.2,2.7-2.7,4-4.1
		c0.3-0.3,0.6-0.7,0.8-1c0.1-0.1,0.1-0.2,0.3-0.2c0.2,0,0.2,0.2,0.2,0.3c0,0.6,0,1.2,0,1.8c-0.2,1.5-0.4,3-1.3,4.2
		c-0.2,0.3-0.5,0.6-0.8,0.9c-0.5,0.5-0.6,1.1-0.6,1.8c0.1,1.3,0.6,2.6,1,3.9c0.4,1.4,0.8,2.7,1.3,4c0.2,0.6,0.5,1.3,0.7,1.9
		c-3.2-0.7-6.3-1.7-9.3-3.3C24.4,93.5,24.3,92.7,24.4,91.8L24.4,91.8z M39.5,98.1c-0.4-0.9-1.7-1.1-2.4-1.5c-0.1,0-0.2-0.2-0.3-0.4
		l-1.4-4.4c-0.2-0.8-0.3-1.5-0.2-2.3c0.1-0.4,0.4-1.2,0.6-1.6c0.6-1,2.4-3.9,3.1-4.9c1-1.3,2.5-3.7,2.9-5.4c0.1-0.3,0.2-0.3,0.5-0.3
		c3.2,0.1,6.7,0.9,10.1-0.1c0.5-0.2,0.7,0,0.7,0.6c0,0.7,0.1,1.3,0.2,2c0.1,2.9,0.5,5.9,1,8.8c0.2,1.5,1.2,6.3,1.4,7.7
		c-5.2,1.9-10.6,2.8-16,2.5C39.6,98.6,39.7,98.3,39.5,98.1L39.5,98.1z M58.5,91.1c0.1-2.3,0.2-4.6,0.5-6.9c0.1-0.9,0.2-1.9,0.4-2.8
		c0.3-1.4,0.8-2.9,1.5-4.1c0.1-0.2,0.4,0,0.3,0.3c-0.3,0.8-0.5,1.6-0.7,2.4c-0.1,0.4-0.2,13-0.2,14.5c-0.6,0.3-1.2,0.6-1.8,0.8
		C58.5,94.7,58.4,92.3,58.5,91.1L58.5,91.1z M89.4,57.7C87,69.2,80.6,79.4,71.9,86.8c-1,0.7-2.1,1.5-3.6,2.6
		c-1.7,1.2-3.4,2.4-5.1,3.4c0-1,0.1-2,0.2-2.9c0.1-1,0.9-5.8,1.1-6.6c0.2-0.7,0.9-4,2.6-6.2c0.7-0.9,1.3-1.8,1.9-2.7
		c1.1-1.8,1.9-3.9,2.3-5.9c1.5-2.9,1.5-6.2,1.7-6.7c0.2-0.5,2.3-2.8,2.8-7.3c0.6-4.5-0.4-9-0.7-9.8c-0.2-0.5-0.3-1-0.3-1.6
		c0-0.3,0.1-0.6,0.1-0.9c0.9-3.1-0.5-7.6-1-7.6c-0.5,0.1-3.3,4.2-3.5,3.8c-0.1-0.2-1.7-0.4-3.2-0.4s-3.1,0.2-3.2,0.4
		c-0.2,0.3-3-3.8-3.5-3.8s-1.9,4.4-1,7.6c0.1,0.3,0.2,0.8,0.1,0.9c-0.8,1.4-2.6,4.6-4.1,7c-0.9,1.5-2.7,2.3-5.1,2.6
		c-3.3,0.5-13.5,1.4-16.5,2c-6.6,1.2-10.2,4.9-13.6,13.2c-4,9.9-0.9,14.5-0.2,16.2c0.2,0.5,0.3,0.8,0.6,0.8c0.6-0.1,0.5-0.1,1.1-2.6
		c0.3-1.4,0.3-5.5,2-9.6c0.5-1.3,0.6-2.6,1-3.4c0.1-0.3,0.3-0.2,0.3,0c0.1,3,0.5,5.3,0.5,5.3c0.5,3.1,0.2,5.9-1.6,9.1
		c-0.7,1.3-1.7,2.4-2.3,3.8c-0.2,0.4-0.3,0.8-0.3,1.4c0,1.5,0.2,2.9,0.3,4.1c-0.7-0.5-1.4-0.9-2.1-1.5c-10-8-14.8-21.8-11.7-37.1
		c4.9-23.7,27.1-42.1,49.7-41.2C80,14,94.3,34,89.4,57.7z M83.6,9C63.8-7,32.6-1.1,13.9,22.1S-3.9,77.1,16,93S67,103.1,85.7,79.9
		S103.5,24.9,83.6,9L83.6,9z"/>
	<g>
		<path class="st0" d="M243.8,96.7c-1.8,0-3.5-0.6-4.8-1.7l1.7-2.8c1,0.9,2,1.1,2.9,1.1s1.9-0.6,1.9-1.7v-1.7c0-0.9-0.4-1.3-1.1-1.3
			c-0.8,0-1.9,0.7-2.2,0.9l-3-1.2v-8.2h9.1v3.2h-5.8v2.5c0.7-0.4,1.7-0.7,2.3-0.7c2.6,0,4,1.9,4,4.5v2.5
			C248.9,95.2,246.4,96.7,243.8,96.7L243.8,96.7z"/>
		<path class="st0" d="M252.7,91.3v-3h11v3H252.7z"/>
		<path class="st0" d="M269.9,96.6V84.7l-1.3,1.2l-1.9-2.5l3.5-3.3h3v16.4C273.3,96.6,269.9,96.6,269.9,96.6z"/>
		<path class="st0" d="M282.5,96.7c-2.3,0-5-1.3-5-4.4v-7.8c0-3.1,2.8-4.5,5-4.5s5,1.4,5,4.5v7.8C287.5,95.4,284.7,96.7,282.5,96.7z
			 M284.2,85.1c0-1.3-0.8-1.7-1.6-1.7s-1.7,0.5-1.7,1.7v6.5c0,1.3,0.8,1.7,1.7,1.7s1.6-0.5,1.6-1.7V85.1z"/>
		<path class="st0" d="M305.5,93.3h-5l-0.9,3.2h-3.9l5.5-16.4h3.7l5.4,16.4h-3.9L305.5,93.3L305.5,93.3z M301.4,90.2h3.2l-0.3-1.1
			l-1.2-4.5H303l-1.2,4.5L301.4,90.2L301.4,90.2z"/>
		<path class="st0" d="M318,96.7c-3.1,0-6.1-1.7-6.1-5.3V80.1h3.6v10.6c0,1.9,1.3,2.6,2.5,2.6c1.2,0,2.5-0.7,2.5-2.6V80.1h3.6v11.2
			C324.1,95,321.1,96.7,318,96.7L318,96.7z"/>
		<path class="st0" d="M333.5,96.7c-2.8,0-6.1-1.7-6.1-5.3v-6.1c0-3.6,3.1-5.4,6.1-5.4c1.8,0,3.9,0.6,5.1,1.7l-1.7,2.9
			c-1-0.9-2.3-1.1-3.3-1.1c-1.2,0-2.6,0.7-2.6,2.6v4.7c0,1.9,1.3,2.6,2.5,2.6c0.5,0,1.2-0.2,1.7-0.6v-2.2H333v-3.2h5.8v7
			C337.3,96.2,335.1,96.7,333.5,96.7L333.5,96.7z"/>
		<path class="st0" d="M355.2,89.7c-1.1,0.9-3.2,2.2-3.5,3.7h6.5v3.2h-10v-2.3c0-2.7,1.6-4.7,3.2-6c1.7-1.3,3.3-2.3,3.3-3.6
			c0-0.8-0.6-1.4-1.8-1.4c-0.9,0-2,0.3-2.9,1.1l-1.7-2.8c1.2-1.1,3.1-1.7,4.9-1.7c2.4,0,5.1,1.1,5.1,4.8
			C358.3,86.9,356.5,88.5,355.2,89.7L355.2,89.7z"/>
		<path class="st0" d="M365.6,96.7c-2.3,0-5-1.3-5-4.4v-7.8c0-3.1,2.8-4.5,5-4.5s5,1.4,5,4.5v7.8C370.6,95.4,367.9,96.7,365.6,96.7z
			 M367.3,85.1c0-1.3-0.8-1.7-1.6-1.7s-1.7,0.5-1.7,1.7v6.5c0,1.3,0.8,1.7,1.7,1.7s1.6-0.5,1.6-1.7V85.1z"/>
		<path class="st0" d="M380.2,89.7c-1.1,0.9-3.2,2.2-3.5,3.7h6.5v3.2h-10v-2.3c0-2.7,1.6-4.7,3.2-6c1.7-1.3,3.3-2.3,3.3-3.6
			c0-0.8-0.6-1.4-1.8-1.4c-0.9,0-2,0.3-2.9,1.1l-1.7-2.8c1.2-1.1,3.1-1.7,4.9-1.7c2.4,0,5.1,1.1,5.1,4.8
			C383.3,86.9,381.5,88.5,380.2,89.7L380.2,89.7z"/>
		<path class="st0" d="M390.7,96.7c-1.8,0-3.5-0.6-4.8-1.7l1.7-2.8c1,0.9,2,1.1,2.9,1.1c0.9,0,1.9-0.6,1.9-1.7v-1.7
			c0-0.9-0.4-1.3-1.1-1.3c-0.8,0-1.9,0.7-2.2,0.9l-3-1.2v-8.2h9.1v3.2h-5.8v2.5c0.7-0.4,1.7-0.7,2.3-0.7c2.6,0,4,1.9,4,4.5v2.5
			C395.7,95.2,393.3,96.7,390.7,96.7L390.7,96.7z"/>
	</g>
	<g>
		<path class="st1" d="M227.5,36c-0.1,2.7-0.9,4.8-2.5,6.5c-0.7,0.8-1.5,1.5-2.3,2.2c-1.2,1.1-2.6,1.5-4.1,2.1
			c-2.7,1-5.4,1.8-7.9,3.1c-0.7,0.4-1,0.2-1.2-0.8c-0.4-1.5-0.7-3-1.1-4.5c-0.4-1.6-0.9-3.1-1.2-4.6c-0.5-2-0.5-4-0.2-5.9
			c0.3-1.5,0.7-2.9,1.7-4.1c1.4-1.8,3.1-3.1,5.4-3.6c2.3-0.6,3.9,0.2,5.1,2.3c0.2,0.4,0.4,0.8,0.6,1.1c0.2,0.5,0.4,0.6,1,0.5
			c1.2-0.2,2.5-0.3,3.6,0.2c1.8,0.7,2.5,2.2,2.9,4C227.4,35,227.5,35.6,227.5,36z"/>
		<path class="st0" d="M351.9,16.8c4.8,1.5,6.8,3.6,7.1,6.2c0.2,2.1-2.5,3.3-4.6,3c-3.8-0.5-7-2.3-11.5-2c-3.6,0.2-7.1,1.6-9.7,4.1
			s-4.1,6.1-3.9,9.7c0.1,1.4,0.5,2.9,1.4,3.9c1.2,1.4,2.9,1.4,4.6,1c5.4-1.1,11.2-2.2,16.4-0.2c1.4,0.6,2.7,1.5,2.5,3.3
			c-0.2,1.7-2.1,2.3-3.3,2.5c-3.4,0.6-8.9,0.7-12.3,1c-1.5,0.1-2.4,1.1-2.3,2.7c0.2,2.6,0.6,6.1,0.5,9c0,2.5-1.4,4-3.8,4.1
			c-2.6,0.1-4.1-1.1-5.4-2.6c-1.7-2-3.1-5.3-4-7.4c-2.4-5.7-4.3-11.9-3.7-18c0.5-5.8,3.2-11.4,7.6-15.2
			C335.2,15.5,345.1,14.6,351.9,16.8L351.9,16.8z"/>
		<path class="st0" d="M392.4,16.8c4.8,1.5,6.8,3.6,7.1,6.2c0.2,2.1-2.5,3.3-4.6,3c-3.8-0.5-7-2.3-11.5-2c-3.6,0.2-7.1,1.6-9.7,4.1
			s-4.1,6.1-3.9,9.7c0.1,1.4,0.5,2.9,1.4,3.9c1.2,1.4,2.9,1.4,4.6,1c5.4-1.1,11.2-2.2,16.4-0.2c1.4,0.6,2.7,1.5,2.5,3.3
			c-0.2,1.7-2.1,2.3-3.3,2.5c-3.4,0.6-8.9,0.7-12.3,1c-1.5,0.1-2.4,1.1-2.3,2.7c0.2,2.6,0.6,6.1,0.5,9c0,2.5-1.4,4-3.8,4.1
			c-2.6,0.1-4.1-1.1-5.4-2.6c-1.7-2-3.1-5.3-4-7.4c-2.4-5.7-4.3-11.9-3.7-18c0.5-5.8,3.2-11.4,7.6-15.2
			C375.7,15.5,385.6,14.6,392.4,16.8L392.4,16.8z"/>
		<path class="st0" d="M167.8,43.7c0.1,1.3,0.7,2.2,2,2.3c1.4,0.2,2.8,0.1,4.2,0.1c2.2,0,2.4-1.8,1.8-2.8c-0.9-1.5-2.9-5-3.8-6.6
			c-0.5-0.8-0.9-1.5-1.9-1.5c-1.2,0-2.2,0.4-2.4,1.7C167.6,38.3,167.7,42.7,167.8,43.7L167.8,43.7z M154,55.2c0.9-1.8,3-5.4,4.3-9.9
			c1-3.2,2-10.2,4.4-15.2c0.7-1.4,1.5-2.8,2.7-3.8c1.2-1,2.7-1.7,4.3-1.7c2.9,0.1,5.2,2.5,6.7,5c2.2,3.5,4.6,8.1,6.6,11.8
			c1.1,1.9,1.7,3.7,3.7,3.4c2.2-0.3,4.5-0.9,5.6,0.6c1.1,1.5-0.2,3.2-2,4.3c-2.6,1.5-1.6,3.2-1,4.6c0.5,1.2,2.2,4,2.7,5.2
			c0.7,1.6,0.9,3.6-0.7,4.9c-1.1,0.8-2.5,1-3.8,0.5c-2.5-0.9-3.8-3.3-4.5-5.8c-0.5-1.6-1.1-3.2-1.8-4.6c-0.8-1.5-2.5-1.8-4.3-1.6
			c-2,0.3-5.3,0-7.3,0.1c-1.5,0-2.6,0.9-3.7,2.1c-1.5,1.6-2.1,4.5-4.1,6.3c-1.1,1-3,2.4-5.5,1.7C153.8,62.4,152.3,58.8,154,55.2
			L154,55.2z"/>
		<path class="st0" d="M286.8,19.2c4-0.8,6.3-0.2,6.7,2.3c0.4,2.1-0.9,3.5-4.2,4.3c-4.1,0.9-16.7,2.9-19.9,3.3
			c-4.7,0.7-4.4,4.9-3.4,8.1c0.9,2.8,5,13,5.4,18.2c0.1,2.1-0.4,3.9-2.8,4.4c-2.1,0.5-4.1,0-5.5-2.4c-2.2-4.1-6-19.5-7-22.2
			c-1-2.8-2-4.1-4.3-4c-1.9,0.1-4.6,0.5-6.5,0.8c-2.2,0.3-4.3-0.3-4.7-2.3c-0.4-1.8,0.2-3.6,2.9-4.6C248.8,23.3,273,21.9,286.8,19.2
			L286.8,19.2z"/>
		<path class="st0" d="M314.2,54.8c-1.1,3.4-3.9,7.3-9.8,8.9c-10.9,3.1-17.1-0.9-21.2-8.8c-1.9-3.6-3.2-8.9-4.4-13.1
			c-0.6-2-1.4-5.4,0.9-7.5c2.1-1.8,5.8-1.6,7.1,0.8c2.6,4.9,2,10,6,16.1c2.9,4.5,6.7,4.6,10.5,2.6c4.3-2.2,2-12.1,0.9-16.2
			c-0.8-2.9-2-8.7,3.1-9.2c4.6-0.5,6.1,5,6.7,8.7C315.1,43.6,315.7,50,314.2,54.8L314.2,54.8z"/>
		<path class="st0" d="M157.4,25.4c-0.6-1.5-2.2-2.2-5.5-3.1c-5.6-1.5-10.6-1.4-17.8-0.7c-8.1,0.8-19.5,3.1-25.1,6.8
			c-2,1.3-2.9,3.4-1.8,5.3s3,2.1,4.3,1.8c2.3-0.4,12.8-4.5,14.4-4.9c1.6-0.4,1.9,0.7,2.2,1.5c1.4,3.7,4.7,23.1,6.2,27
			c1.7,4.4,4.5,6.2,8.1,5.3c3-0.8,3.6-4.6,2.4-8.1c-1.3-3.8-6.6-20-7.5-24.2c-0.8-3.3,0.1-3.7,1.3-3.9c3.1-0.5,14.9,0.3,17.3-0.2
			C157.1,27.8,157.9,26.6,157.4,25.4z"/>
		<path class="st0" d="M233.7,42.2c3-4.5,5.4-11,1.2-15.6c-4.1-4.6-10.9-6.9-16.9-7.1c-5.5-0.2-10.5,1.4-14.3,5.4
			c-4.6,4.9-6.2,12.7-6.7,19.2c-0.2,3.3-0.3,6.4,0,9.7c0.3,3,0.7,5.9,2.4,8.5c1.8,2.6,3.4,2.8,5.3,1.1s4.3-4,6.5-5
			c2.6-1.3,5-1.3,7.4,0.4c3.2,2.2,6.5,4.3,9.7,6.7c2.5,1.9,5.7,2.6,7.6,0.6c1.9-2,0.8-4.4-0.7-6.3c-2.2-2.7-5.2-5-7.8-7.4
			c-0.7-0.6-0.7-1.9-0.1-2.5C229.6,47.3,231.9,44.9,233.7,42.2L233.7,42.2z M224.4,42.4c-1,1-2.1,2-3.4,2.7
			c-1.3,0.8-2.7,1.2-4.2,1.7c-1.8,0.6-3.6,1.3-5.4,2.2c-0.5,0.2-0.8,0.2-0.9-0.2c-0.1-0.1-0.2-0.3-0.2-0.6c-0.6-2.8-1.5-5.5-2-8.3
			c-0.6-2.9-0.8-6.4,0.6-8.7c1.1-1.7,3-3.4,5.1-3.6s4.1,0,5,2c0.2,0.3,0.3,1,0.5,1.3c0.1,0.2,0.2,0.3,0.3,0.5
			c0.2,0.2,0.4,0.1,0.6,0.1c1-0.1,2.1-0.3,3.1-0.2c1.7,0.2,2.7,1.1,3.3,2.2C228.2,36.4,226.8,40.1,224.4,42.4z"/>
	</g>
</g>
</svg>
