<?xml version="1.0" encoding="utf-8"?>
<!-- Generator: Adobe Illustrator 26.0.3, SVG Export Plug-In . SVG Version: 6.00 Build 0)  -->
<svg version="1.1" id="Layer_1" xmlns="http://www.w3.org/2000/svg" xmlns:xlink="http://www.w3.org/1999/xlink" x="0px" y="0px"
	 viewBox="0 0 800 102" style="enable-background:new 0 0 800 102;" xml:space="preserve">
<style type="text/css">
	.st0{fill:#0066CC;}
	.st1{fill:#FFCC00;}
	.st2{fill:#29333A;}
</style>
<path class="st0" d="M482.7,1.4c2.2,0.2,4.4,0.4,6.6,0.6c5.4,0.7,10.7,1.9,15.2,5.2c2.9,2.1,4.7,4.8,4.9,8.5
	c0.1,3.4-1.2,4.9-4.6,4.9c-2.8,0-5.7-0.3-8.5-0.7c-4-0.6-8-1.7-12-2c-9-0.8-17.6,0.7-25,6.4c-6,4.7-8.9,11-9.7,18.5
	c-0.3,3.1-0.2,6.1,1.5,8.8c0.3,0.4,0.5,0.9,0.8,1.3c1.4,2.2,3.3,3.2,6,3c4.1-0.3,8.1-1.1,12.1-2c7.3-1.5,14.6-1.5,21.9,0.3
	c3.6,0.9,6.6,2.7,8.6,6c0.4,0.7,0.5,1.3,0.2,2.1c-1.1,2.9-2.8,4.1-5.9,4.3c-5.7,0.4-11.3,1-17,1.5c-2.8,0.3-5.5,0.7-8.2,0.9
	c-2.3,0.2-4.2,1.4-6,2.5c-0.2,0.1-0.3,0.8-0.2,1.1c1.2,5.1,1.2,10.1-0.4,15.1c-0.6,1.7-1.5,3.4-2.5,4.9c-2.8,4.2-9.8,5.8-14.3,1
	c-3.8-4-6.4-8.7-8.4-13.7c-3.4-8.4-6.1-17-7.1-26c-0.9-7.6,0.2-15,3.1-22.1c6.8-17.1,19.5-26.9,37.6-30c1.6-0.3,3.3-0.4,4.9-0.6
	C478.4,1.4,480.5,1.4,482.7,1.4z"/>
<path class="st0" d="M557.6,1.4c2.2,0.2,4.3,0.4,6.5,0.6c5.6,0.7,10.9,2,15.6,5.5c2.9,2.1,4.4,4.9,4.6,8.5c0.2,3-1.3,4.6-4.7,4.8
	c-3.6,0.2-7.1-0.4-10.6-1.2c-5.2-1.1-10.4-2.1-15.8-1.8c-7.2,0.5-14,2.3-19.6,7.1c-5.2,4.4-8,10-8.9,16.7c-0.2,1.2-0.2,2.4-0.3,3.6
	c-0.3,3.6,1.2,6.6,3.5,9.2c1,1.2,2.2,1.7,3.8,1.6c4.5-0.1,8.9-1.1,13.3-2c7.3-1.5,14.6-1.5,21.9,0.3c3.6,0.9,6.6,2.8,8.6,6.1
	c0.4,0.6,0.4,1.1,0.2,1.8c-1.1,3.1-2.8,4.3-6.2,4.5c-6.2,0.5-12.5,1.1-18.7,1.7c-2.2,0.2-4.3,0.5-6.5,0.7s-4,1.4-5.8,2.5
	c-0.2,0.1-0.3,0.7-0.2,1.1c1.1,4.9,1.2,9.8-0.2,14.7c-0.7,2.4-1.8,4.4-3.4,6.3c-2.6,3-8.7,4.4-12.7,0.8c-3.1-2.9-5.4-6.3-7.3-10.1
	c-4.1-8.3-6.9-17.1-8.5-26.2c-2.9-16.7,1.6-31.3,13.6-43.4c7.6-7.7,17.1-11.8,27.9-13.1c1.1-0.1,2.2-0.3,3.3-0.4
	C553.1,1.4,555.3,1.4,557.6,1.4z"/>
<path class="st0" d="M185.1,72c0.4-10.9,1.9-21.7,5.5-32c2.5-7.1,5.7-13.8,10.9-19.4c7.6-8.1,16.9-12.1,28-11.7
	c8.1,0.3,15.8,2.3,23,6.1c3.6,1.9,6.8,4.4,9.5,7.5c3.7,4.1,5,9,4.5,14.5c-0.6,6.4-3.5,11.8-7,17c-3.7,5.5-8.3,10.3-12.7,15.2
	c-1.2,1.3-1.2,3.8,0.2,5.1c2,1.8,4.2,3.4,6.1,5.3c3.1,3.1,6.1,6.3,8.9,9.6c1.3,1.6,2.2,3.6,3.2,5.4s0.8,3.6,0.1,5.4
	c-0.6,1.7-2.2,2.6-3.9,3.1c-2.4,0.7-4.8,0.4-7.2-0.1c-2-0.4-3.8-1.2-5.5-2.4c-6.5-4.5-13-8.9-19.5-13.4c-4.9-3.4-9.8-3.4-15-0.8
	c-4.3,2.1-7.6,5.4-11.4,8.1c-1.8,1.3-3.9,2.4-5.9,3.4c-0.4,0.2-1.2,0.2-1.7,0c-1.8-0.6-3.2-1.9-4.2-3.4c-3.1-4.5-4.6-9.5-5.4-14.8
	C185.5,77.1,185.4,74.6,185.1,72z M247.7,42.8c-0.1-0.7-0.3-2-0.5-3.2c-0.6-3.5-2.1-6.5-5.7-7.9c-2.4-0.9-4.8-0.6-7.2-0.3
	c-1.1,0.2-1.5-0.2-1.9-1s-0.7-1.5-1.1-2.2c-2.4-4.1-5.6-5.6-10.2-4.5c-4.4,1-7.9,3.6-10.7,7.2c-1.8,2.4-2.8,5.2-3.3,8.2
	c-0.7,4-0.6,7.9,0.3,11.8c0.7,3.1,1.7,6.1,2.4,9.2c0.7,3,1.4,6,2.1,9c0.4,1.8,1,2.2,2.4,1.5c5-2.7,10.5-4.2,15.8-6.2
	c2.8-1.1,5.7-2,8.1-4.1c1.6-1.4,3.1-2.8,4.6-4.3C245.9,52.3,247.6,48.2,247.7,42.8z"/>
<path class="st0" d="M99.3,84.9c0.2-2.7,0.2-5.3,0.5-8c0.2-2.5,1-4.9,2.5-6.9c4.3-5.9,6.5-12.6,7.9-19.7c1.3-6.6,3-13.1,5.7-19.3
	c1.4-3.3,3.3-6.2,5.8-8.8c4.6-4.7,11.5-4,15.5-0.9c2.5,1.9,4.7,4.2,6.3,6.9c2.4,3.9,4.6,7.9,6.7,12c2.7,5,5.2,10.1,8.9,14.6
	c0.6,0.7,1.2,1.3,1.8,1.9c2.4,2.4,5.2,3.3,8.5,3.8c2.5,0.3,4.9,1.4,7.3,2.2c0.5,0.2,0.9,0.5,1.3,0.8c0.8,0.7,0.9,1.4,0.2,2.1
	c-0.5,0.5-1.1,0.8-1.8,1c-3.7,1.2-5.6,3.9-6.1,7.6c-0.5,3.4,0.1,6.6,2,9.5c1.1,1.6,2,3.3,2.9,5.1c1.2,2.3,1.3,4.7,0.7,7.2
	c-0.3,1.5-1.3,2.6-2.7,3.2c-2.1,0.9-4.3,1.1-6.5,1c-2.1-0.2-3.7-1.3-5-3c-1.9-2.5-2.9-5.3-3.9-8.2c-0.7-2.1-1.5-4.3-2.3-6.4
	c-0.3-0.9-0.8-1.8-1.3-2.6c-1.7-3-4.2-4.5-7.8-4.3c-5.3,0.2-10.4,0.7-15.2,3c-3.3,1.5-6.2,3.7-8.5,6.6c-1.2,1.5-2.5,3-3.7,4.6
	c-2.7,3.4-6.2,5.3-10.6,5.2c-1.6,0-3.3,0-4.9-0.1c-2.6-0.3-3.4-1.2-3.5-3.8c-0.1-2-0.2-4.1-0.3-6.1C99.4,84.9,99.4,84.9,99.3,84.9z
	 M126.4,51.3c0.1,0,0.2,0,0.3,0c0,2-0.1,4,0,6c0.1,2.7,1.4,4.4,4.1,4.7c2.8,0.3,5.6,0.3,8.5,0.2c1,0,2.1-0.7,2.9-1.3
	c1.2-0.9,1.5-3,0.7-4.3c-3.4-5.2-6.8-10.4-10.3-15.6c-0.2-0.3-0.7-0.6-1.1-0.6c-2.7-0.3-4.4,0.8-4.8,3.5
	C126.4,46.4,126.5,48.9,126.4,51.3z"/>
<path class="st0" d="M359.6,9.6c5.3,0,10.6-0.1,16,0c1,0,2.1,0.5,3,1c1,0.5,0.9,1,0.2,1.9c-3.7,4.4-8.7,6.2-14.2,6.9
	c-7,0.9-14,1.7-20.9,2.5c-5.2,0.6-10.4,1.2-15.3,3.2c-1.3,0.5-2.5,1.1-3.6,1.9c-2.1,1.4-3.1,3.4-3.1,5.9c0,4.1,1,8.1,2.6,11.9
	c2.3,5.5,4.7,11,6.9,16.5c1.9,4.6,2.4,9.5,1.6,14.4c-0.5,3-1.7,4.2-4.8,4.4c-1.5,0.1-3,0.1-4.5-0.1c-3.4-0.4-5.7-2.5-7.6-5.2
	c-2.4-3.5-3.6-7.5-4.6-11.5c-1.4-5.8-2.9-11.7-5.2-17.2c-3.2-7.4-8.6-11.7-16.6-13c-3.4-0.6-6.7-0.5-10.1,0.1
	c-3.6,0.7-5.6-0.7-6.1-4.3c-0.2-1.6-0.2-3.3-0.2-4.9c0.1-2.2,1-3.2,3.2-3.6c5.1-1.1,10.2-2.3,15.3-3.2c10.7-1.8,21.3-3.7,32-5.2
	C335.5,10.3,347.5,9.6,359.6,9.6z"/>
<path class="st0" d="M421.1,60.7c0.1,4,0.1,8.1-0.9,12c-1.9,7.8-6.6,13.2-14.2,15.8c-7.3,2.5-14.9,3.2-22.5,2.1
	c-8.7-1.2-16.1-5.5-22.6-11.3c-5.2-4.7-9.2-10.2-11.6-16.9c-1-3-1.5-6-1.5-9.2c0-3.3,2.6-6.8,5.9-8.1c2.7-1.1,5.8-0.2,8.2,2.4
	c2.2,2.3,3.7,5,5.1,7.8c1.3,2.6,2.5,5.2,3.8,7.7c2,3.8,4.4,7.4,7.6,10.3c4.1,3.7,8.9,4.8,14.2,4.1c3.2-0.4,6.2-1.3,8.9-2.9
	c2.7-1.6,4.8-3.7,5.6-6.9c0.4-1.7,0.3-3.4-0.4-5.1c-2.1-5-4.3-10-6.1-15.1c-1.9-5.5-2.3-11.3-1.6-17.1c0.4-3.3,1.7-4.3,5.1-4.7
	c4.5-0.5,8,1.2,10.5,4.9c2.3,3.5,3.5,7.3,4.4,11.4C420.5,48.2,420.9,54.4,421.1,60.7z"/>
<path class="st0" d="M106.7,35.5c-3.9,0-7.7-0.1-11.5,0c-8.8,0.2-17.5,0.5-26.3,0.9C57.4,37.1,46.1,39,35,41.9
	c-1.9,0.5-3.8,1.5-5.6,2.4c-4.1,2.2-8.2,4.6-12.3,6.8c-4.7,2.6-9.3,1.9-13.7-0.6c-3.8-2.2-4.5-5.9-1.7-9.2C2.9,40,4.4,38.9,5.9,38
	c4.8-3,10.1-4.8,15.5-6.3c9.3-2.7,18.8-4.4,28.4-5.6c7.8-1,15.7-1.9,23.6-2.7c6.9-0.7,13.7-0.8,20.5,0.7c3.7,0.8,7.2,2.2,10.1,4.7
	C105.8,30.5,106.9,32.9,106.7,35.5z"/>
<path class="st0" d="M63.2,100.4c-4,0.4-7.3-1.3-10.1-4c-3.5-3.4-5.9-7.6-7.7-12.1c-2.6-6.4-4.6-13-5.1-20c-0.2-2.9,1-5,3.5-6.4
	c2.6-1.5,5.4-2.1,8-0.1c1.6,1.2,3.2,2.6,4.2,4.3c2.2,3.4,4.3,6.9,6.1,10.6c2.7,5.4,5.1,10.9,7.6,16.3c0.8,1.8,1.9,3.4,2.8,5.2
	c0.2,0.3,0.2,0.9,0.1,1.2c-1.3,3.3-3.8,4.8-7.2,5.1C64.7,100.5,63.9,100.4,63.2,100.4z"/>
<path class="st1" d="M247.7,42.8c-0.1,5.3-1.8,9.5-5,13c-1.4,1.5-3,2.9-4.6,4.3c-2.3,2.1-5.2,3-8.1,4.1c-5.3,2-10.7,3.5-15.8,6.2
	c-1.4,0.8-2,0.3-2.4-1.5c-0.7-3-1.3-6-2.1-9c-0.8-3.1-1.8-6.1-2.4-9.2c-0.9-3.9-0.9-7.9-0.3-11.8c0.5-3,1.4-5.8,3.3-8.2
	c2.7-3.6,6.2-6.1,10.7-7.2c4.6-1.1,7.8,0.4,10.2,4.5c0.4,0.7,0.8,1.5,1.1,2.2c0.4,0.9,0.8,1.2,1.9,1c2.4-0.3,4.9-0.6,7.2,0.3
	c3.6,1.4,5,4.4,5.7,7.9C247.5,40.8,247.6,42.1,247.7,42.8z"/>
<g>
	<path class="st2" d="M675.8,62.7h1c0.3,0,0.4,0.1,0.4,0.4v29.4c0,0.3-0.1,0.4-0.4,0.4h-0.8c-0.3,0-0.4-0.1-0.4-0.4V65
		c0-0.1,0-0.1-0.1-0.1c0,0-0.1,0-0.1,0l-4.3,1.9c-0.1,0-0.1,0-0.2,0s-0.2,0-0.2-0.1c-0.1-0.1-0.1-0.1-0.1-0.2l-0.2-0.6
		c0,0,0-0.1,0-0.2c0-0.2,0.1-0.3,0.3-0.4l4.8-2.6C675.4,62.7,675.6,62.7,675.8,62.7z"/>
	<path class="st2" d="M682.6,92.1c-0.4-0.4-0.5-0.8-0.5-1.4c0-0.6,0.2-1,0.5-1.4c0.4-0.4,0.8-0.6,1.4-0.6c0.6,0,1.1,0.2,1.4,0.6
		c0.4,0.4,0.6,0.9,0.6,1.4c0,0.6-0.2,1-0.6,1.4c-0.4,0.4-0.8,0.5-1.4,0.5C683.4,92.7,682.9,92.5,682.6,92.1z"/>
	<path class="st2" d="M693.8,79.5v-0.6c0-0.3,0.1-0.4,0.4-0.4h9.2c0.3,0,0.4,0.1,0.4,0.4v0.6c0,0.3-0.1,0.4-0.4,0.4h-9.2
		C693.9,80,693.8,79.8,693.8,79.5z"/>
	<path class="st2" d="M729.3,83.8c0,1.5-0.1,2.6-0.3,3.5c-0.3,2-0.9,3.5-2,4.5c-1,1-2.4,1.5-4,1.5c-1.6,0-2.9-0.5-3.9-1.4
		c-1-0.9-1.7-2.3-2-4.2c-0.2-1.2-0.3-2.4-0.3-3.8V69.6c0-2.2,0.6-3.9,1.7-5.3c1.2-1.3,2.7-2,4.5-2c1.7,0,3.1,0.7,4.2,2
		c1.1,1.3,1.6,3.1,1.6,5.2v0.3c0,0.3-0.1,0.4-0.4,0.4h-0.8c-0.3,0-0.4-0.1-0.4-0.4v-0.4c0-1.6-0.4-3-1.2-4c-0.8-1.1-1.8-1.6-3-1.6
		c-1.4,0-2.5,0.5-3.3,1.6c-0.8,1-1.3,2.4-1.3,4.1v7.3c0,0.1,0,0.1,0.1,0.1c0,0,0.1,0,0.1-0.1c0.5-0.9,1.1-1.5,1.9-1.9
		c0.8-0.4,1.6-0.6,2.6-0.6c1.5,0,2.7,0.4,3.7,1.3c1,0.9,1.7,2.1,2.1,3.8C729.1,80.5,729.3,82,729.3,83.8z M727.6,83.7
		c0-1.7-0.1-3.1-0.4-4.2c-0.7-2.5-2-3.7-4.1-3.7c-2.2,0-3.6,1.3-4.2,4c-0.3,1.2-0.4,2.5-0.4,4c0,1.2,0.1,2.4,0.3,3.7
		c0.6,2.9,2,4.4,4.3,4.4c2.3,0,3.8-1.6,4.4-4.7C727.5,86,727.6,84.9,727.6,83.7z"/>
	<path class="st2" d="M733.5,92.1c-0.4-0.4-0.5-0.8-0.5-1.4c0-0.6,0.2-1,0.5-1.4c0.4-0.4,0.8-0.6,1.4-0.6s1.1,0.2,1.4,0.6
		c0.4,0.4,0.6,0.9,0.6,1.4c0,0.6-0.2,1-0.6,1.4c-0.4,0.4-0.8,0.5-1.4,0.5S733.8,92.5,733.5,92.1z"/>
	<path class="st2" d="M761.3,92.5l-1.3-5.9c0-0.1,0-0.1-0.1-0.1c0,0-0.1,0-0.2,0H751c-0.1,0-0.1,0-0.2,0c0,0-0.1,0.1-0.1,0.1
		l-1.3,5.9c0,0.3-0.2,0.4-0.5,0.4h-0.8c-0.1,0-0.3,0-0.3-0.1c-0.1-0.1-0.1-0.2-0.1-0.3l6.6-29.4c0.1-0.3,0.2-0.4,0.5-0.4h1.1
		c0.3,0,0.4,0.1,0.5,0.4l6.6,29.4v0.1c0,0.3-0.1,0.4-0.4,0.4h-0.8C761.5,92.9,761.4,92.8,761.3,92.5z M751.1,85c0,0,0.1,0.1,0.1,0.1
		h8.3c0.1,0,0.1,0,0.1-0.1c0,0,0-0.1,0-0.1l-4.2-19.3c0-0.1-0.1-0.1-0.1-0.1c0,0-0.1,0-0.1,0.1l-4.2,19.3
		C751.1,84.9,751.1,84.9,751.1,85z"/>
	<path class="st2" d="M768.8,91.1c-1.3-1.5-1.9-3.4-1.9-5.8V63.1c0-0.3,0.1-0.4,0.4-0.4h0.8c0.3,0,0.4,0.1,0.4,0.4v22.3
		c0,1.9,0.5,3.4,1.4,4.6c1,1.2,2.2,1.8,3.8,1.8s2.8-0.6,3.8-1.8c1-1.2,1.4-2.7,1.4-4.6V63.1c0-0.3,0.1-0.4,0.4-0.4h0.8
		c0.3,0,0.4,0.1,0.4,0.4v22.1c0,2.4-0.6,4.4-1.9,5.8c-1.3,1.5-2.9,2.2-5,2.2C771.7,93.3,770.1,92.5,768.8,91.1z"/>
	<path class="st2" d="M788.3,91.4c-1.2-1.2-1.9-2.9-1.9-4.9V69.1c0-2,0.6-3.7,1.9-4.9c1.2-1.2,2.9-1.9,4.9-1.9c2,0,3.7,0.6,4.9,1.9
		c1.2,1.2,1.9,2.9,1.9,4.9v2c0,0.3-0.1,0.4-0.4,0.4h-0.8c-0.3,0-0.4-0.1-0.4-0.4v-2c0-1.6-0.5-2.8-1.4-3.8s-2.2-1.4-3.7-1.4
		c-1.5,0-2.7,0.5-3.6,1.4c-0.9,1-1.4,2.2-1.4,3.8v17.4c0,1.6,0.5,2.8,1.4,3.8c0.9,1,2.2,1.4,3.6,1.4c1.5,0,2.8-0.5,3.7-1.4
		s1.4-2.2,1.4-3.8V80c0-0.1-0.1-0.2-0.2-0.2h-4.3c-0.3,0-0.4-0.1-0.4-0.4v-0.6c0-0.3,0.1-0.4,0.4-0.4h5.7c0.3,0,0.4,0.1,0.4,0.4v7.8
		c0,2-0.6,3.7-1.9,4.9c-1.2,1.2-2.9,1.9-4.9,1.9C791.2,93.3,789.6,92.6,788.3,91.4z"/>
</g>
</svg>
