<?xml version="1.0" encoding="UTF-8"?>
<svg id="Layer_1" xmlns="http://www.w3.org/2000/svg" version="1.1" viewBox="0 0 820 123.1">
  <!-- Generator: Adobe Illustrator 29.7.1, SVG Export Plug-In . SVG Version: 2.1.1 Build 8)  -->
  <defs>
    <style>
      .st0 {
        isolation: isolate;
      }

      .st1 {
        fill: #2e3d54;
      }

      .st2 {
        fill: #0165cc;
      }

      .st3 {
        fill: #ffcc02;
      }
    </style>
  </defs>
  <g>
    <path class="st1" d="M28.9,110.7c0-1.4.3-2.2,1-3.4.6-1,1.4-2.5,2.1-3.5.5-.8,1-1.1,1.7-1.8,1.8-1.5,3.2-3.3,4.9-4.9.4-.4.7-.8,1-1.2,0,0,.2-.3.3-.2.2,0,.2.3.2.4v2.2c-.2,1.8-.5,3.6-1.6,5.1-.3.4-.6.7-.9,1-.5.6-.7,1.4-.7,2.2,0,1.6.8,3.2,1.2,4.7.5,1.6,1,3.2,1.5,4.8.3.8.6,1.5.8,2.3-3.8-.8-7.6-2.1-11.3-4-.2-1.6-.3-2.5-.2-3.7h0ZM47.2,118.3c-.5-1.1-2-1.3-3-1.8,0,0-.3-.3-.3-.5l-1.6-5.3c-.3-.9-.4-1.8-.2-2.8,0-.5.5-1.4.7-1.9.7-1.2,2.9-4.8,3.8-5.9,1.2-1.6,3-4.5,3.5-6.6,0-.3.3-.4.5-.4,3.9,0,8.1,1.1,12.1,0,.5-.2.8,0,.9.7,0,.9.2,1.6.2,2.4,0,3.5.6,7.2,1.2,10.6.3,1.9,1.5,7.6,1.7,9.3-6.2,2.2-12.8,3.3-19.3,3v-.9l-.2.2h0ZM70.1,109.9c.2-2.8.3-5.6.6-8.3,0-1.1.3-2.3.5-3.4.3-1.7.9-3.5,1.8-5,.2-.3.5,0,.3.3-.3.9-.6,1.9-.8,2.9,0,.5-.2,15.7-.3,17.5-.7.3-1.4.7-2.2,1v-5h0ZM107.4,69.5c-2.9,13.9-10.7,26.3-21.1,35.2-1.2.8-2.6,1.8-4.3,3.2-2,1.5-4.1,2.9-6.2,4.1,0-1.2,0-2.4.2-3.6,0-1.2,1.1-7,1.3-7.9.2-.8,1.1-4.8,3.1-7.5.8-1.1,1.6-2.2,2.3-3.3,1.3-2.1,2.3-4.7,2.8-7.1,1.8-3.5,1.8-7.5,2-8.1.3-.6,2.8-3.4,3.4-8.8.7-5.5-.5-10.9-.8-11.8-.2-.6-.4-1.2-.4-1.9s0-.7.2-1.1c1.1-3.8-.6-9.2-1.2-9.1s-4,5-4.3,4.6c0-.2-2-.5-3.9-.5s-3.8.3-3.9.5c-.3.4-3.7-4.5-4.3-4.6-.6,0-2.3,5.4-1.2,9.1,0,.4.3.9,0,1.1-1,1.7-3.2,5.5-4.9,8.5-1.1,1.8-3.2,2.7-6.1,3.1-4,.5-16.3,1.7-19.9,2.4-8,1.5-12.3,5.9-16.4,16-4.9,12-1,17.4-.3,19.6.2.6.4,1,.7.9.7,0,.6,0,1.3-3.2.4-1.7.3-6.6,2.4-11.6.6-1.5.8-3.1,1.2-4.1.1-.3.3-.2.4,0,0,3.7.7,6.4.7,6.4.6,3.8.2,7.2-1.9,10.9-.9,1.5-2,3-2.7,4.6-.2.5-.4.9-.4,1.7,0,1.9.3,3.5.4,5-.9-.6-1.7-1.1-2.6-1.8-12-9.7-17.9-26.3-14.1-44.8C14.9,37,41.8,14.8,69,15.8c27.2,1.1,44.5,25.1,38.6,53.7h-.2ZM100.4,10.8C76.5-8.4,38.8-1.4,16.2,26.6c-22.5,28-21.4,66.4,2.6,85.6,23.9,19.3,61.6,12.2,84.1-15.8s21.4-66.3-2.5-85.6Z"/>
    <path class="st1" d="M434.1,20.2c5.8,1.8,8.2,4.3,8.5,7.5.3,2.6-3.1,3.9-5.6,3.6-4.6-.5-8.5-2.7-13.9-2.4-4.3.2-8.6,2-11.7,5s-5,7.4-4.7,11.7c0,1.7.6,3.5,1.7,4.7s3.4,1.7,5.5,1.2c6.5-1.4,13.5-2.6,19.8-.2,1.7.7,3.3,1.8,3.1,4-.2,2.1-2.5,2.8-4,3-4.1.7-10.7.8-14.9,1.2-1.8.2-2.9,1.3-2.8,3.2.2,3.2.7,7.4.7,10.8s-1.7,4.9-4.6,5c-3.2,0-4.9-1.3-6.5-3.1s-3.7-6.4-4.8-8.9c-2.9-6.9-5.2-14.3-4.5-21.7.7-6.9,3.8-13.8,9.1-18.3,9.3-8,21.2-9.1,29.5-6.4h0Z"/>
    <path class="st1" d="M483,20.2c5.8,1.8,8.2,4.3,8.5,7.5.3,2.6-3.1,3.9-5.6,3.6-4.6-.5-8.5-2.7-13.9-2.4-4.3.2-8.6,2-11.7,5s-5,7.4-4.7,11.7c0,1.7.6,3.5,1.7,4.7s3.4,1.7,5.5,1.2c6.5-1.4,13.5-2.6,19.8-.2,1.7.7,3.3,1.8,3.1,4s-2.5,2.8-4,3c-4.1.7-10.7.8-14.9,1.2-1.8.2-2.9,1.3-2.8,3.2.2,3.2.7,7.4.7,10.8s-1.7,4.9-4.6,5c-3.2,0-4.9-1.3-6.5-3.1-2-2.5-3.7-6.4-4.8-8.9-2.9-6.9-5.2-14.3-4.5-21.7.7-6.9,3.8-13.8,9.1-18.3,9.3-8,21.2-9.1,29.5-6.4h0Z"/>
    <path class="st1" d="M212,52.7c0,1.6.8,2.6,2.5,2.8s3.4,0,5.1,0c2.6,0,2.9-2.1,2.2-3.4-1-1.8-3.4-6.1-4.5-7.9s-1.1-1.8-2.3-1.8-2.6.5-2.9,2.1c-.2,1.5,0,6.7,0,8h-.1v.2ZM195.3,66.5c1-2.2,3.6-6.5,5.2-11.9,1.2-3.9,2.4-12.2,5.3-18.3.8-1.7,1.8-3.4,3.3-4.6,1.4-1.3,3.3-2.1,5.2-2,3.5,0,6.2,3,8.1,6,2.7,4.2,5.5,9.8,8,14.2s2,4.4,4.4,4.1,5.4-1.1,6.7.7-.3,3.9-2.4,5.1c-3.2,1.9-2,3.9-1.2,5.6.6,1.4,2.6,4.9,3.3,6.3s1.1,4.4-.8,5.9-3,1.2-4.5.7c-3-1.1-4.5-4-5.4-7-.6-1.9-1.3-3.9-2.2-5.6-1-1.9-3-2.2-5.2-1.9-2.4.3-6.3,0-8.8,0s-3.1,1.1-4.4,2.5c-1.9,2-2.6,5.5-4.9,7.6-1.4,1.3-3.6,2.8-6.6,2.1s-4.9-5.1-2.8-9.5h-.3Z"/>
    <path class="st1" d="M355.5,23.1c4.8-.9,7.6-.2,8.1,2.7.4,2.6-1,4.3-5,5.2-4.9,1.1-20.2,3.5-24,4-5.7.8-5.3,5.9-4.1,9.7,1.1,3.4,6.1,15.7,6.5,21.9s-.5,4.7-3.4,5.4c-2.6.6-5,0-6.6-2.8-2.7-4.9-7.2-23.5-8.5-26.8-1.2-3.3-2.4-5-5.2-4.8-2.2.2-5.5.6-7.8,1s-5.2-.3-5.7-2.8c-.5-2.1.2-4.3,3.5-5.5,6.3-2.2,35.5-3.9,52.1-7.1h.1Z"/>
    <path class="st1" d="M388.6,66.1c-1.3,4.2-4.7,8.8-11.8,10.7-13.1,3.7-20.6-1.1-25.6-10.6-2.3-4.4-3.9-10.7-5.3-15.8-.7-2.5-1.7-6.5,1.1-9s7.1-2,8.6,1c3.1,5.9,2.5,12,7.3,19.4,3.5,5.4,8.1,5.5,12.7,3.2,5.2-2.6,2.4-14.6,1.1-19.5-.9-3.5-2.4-10.4,3.8-11.1s7.3,6,8,10.5c1.2,7.7,1.9,15.5,0,21.2h0Z"/>
    <path class="st1" d="M199.4,30.7c-.7-1.8-2.6-2.7-6.7-3.8-6.8-1.8-12.8-1.7-21.5-.9-9.7,1-23.6,3.7-30.3,8.3-2.4,1.6-3.5,4.1-2.2,6.4,1.3,2.3,3.7,2.5,5.2,2.2,2.7-.5,15.4-5.5,17.4-5.9,1.9-.5,2.3.8,2.7,1.8,1.6,4.4,5.7,27.9,7.5,32.6,2,5.3,5.4,7.5,9.7,6.4,3.7-1,4.4-5.6,2.9-9.7-1.6-4.5-7.9-24.1-9.1-29.2-.9-4,0-4.4,1.6-4.7,3.8-.7,17.9.4,20.9-.2s2.4-1.8,1.9-3.3h0Z"/>
    <path class="st1" d="M291.5,50.9c3.7-5.4,6.5-13.3,1.5-18.9-5-5.5-13.1-8.4-20.4-8.6-6.6-.2-12.7,1.7-17.2,6.5-5.5,6-7.5,15.3-8,23.2-.3,3.9-.4,7.8,0,11.7.4,3.6.8,7.2,2.9,10.2,2.2,3.2,4.1,3.4,6.4,1.3,2.3-2.1,5.2-4.8,7.8-6.1,3.1-1.6,6-1.6,9,.5,3.9,2.7,7.9,5.2,11.7,8,3,2.2,6.9,3.2,9.2.8,2.3-2.4,1-5.4-.8-7.6-2.7-3.3-6.3-6-9.4-8.9-.8-.8-.8-2.3-.1-3.1,2.6-2.9,5.4-5.8,7.6-9.1h-.2ZM280.3,51.2c-1.2,1.2-2.6,2.4-4.1,3.3-1.6.9-3.3,1.5-5,2.1-2.2.7-4.4,1.6-6.5,2.6-.6.3-.9.2-1.1-.2,0-.2-.2-.4-.2-.7-.7-3.3-1.8-6.6-2.5-10-.7-3.5-1-7.7.7-10.5s3.6-4.1,6.1-4.4c2.6-.3,4.9,0,6,2.4.2.4.4,1.2.6,1.5,0,.2.2.4.4.5s.5.2.7,0c1.2-.2,2.5-.4,3.8-.3,2,.2,3.3,1.4,3.9,2.6,1.8,3.6.1,8-2.7,10.9h0v.2Z"/>
  </g>
  <g>
    <polygon class="st2" points="561.5 123.1 578.6 19.9 570.9 19.9 553.7 123.1 561.5 123.1"/>
    <polygon class="st3" points="553.9 123.1 571.1 19.9 563.3 19.9 546.1 123.1 553.9 123.1"/>
    <g>
      <path class="st3" d="M600.7,59.6c-3.8,0-7.2-1-10.4-3.7l3-3.8c2.3,1.8,4.9,2.8,7.3,2.8,3.4,0,4.6-1.5,4.6-3.1,0-2.4-2.5-2.9-6.2-3.9-4.1-1.1-7.8-2.8-7.8-7.5s3.6-7.9,9-8c3.2,0,6.6.5,9.5,2.5l-2.3,4.2c-2.4-1.5-4.6-2-6.8-2s-4.2,1-4.2,3.1,2.2,2.8,5.9,3.7c5.6,1.2,8.4,3.7,8.4,7.8s-4.3,7.9-10,7.9h0Z"/>
      <path class="st3" d="M613,44.4v-4h2.5l.9-4.8h3.9v4.8h4.6v4h-4.6v7.9c0,1.8.4,2.9,2.5,2.9s1.6,0,2.8-.4l.9,4.2c-1.6.6-3.6.7-4.8.7-5,0-6.2-2.8-6.2-6.8v-8.5h-2.5Z"/>
      <path class="st3" d="M640,57.9c-2.3,1.4-4.1,1.7-5.7,1.7-3.9,0-6.1-2.2-6.1-5.8s3.9-5.8,6.9-5.8h4.9v-.8c0-1.8-.9-2.7-3.5-2.7s-3.2,0-5.1,1.6l-2.2-3.6c2.7-2.1,5.5-2.5,7.8-2.5,5.4,0,7.9,2.5,7.9,7.4v11.9h-4.5l-.4-1.4h0ZM640.1,51.6h-4.1c-1.2,0-2.6.3-2.6,1.9s.8,1.7,2.2,1.7,3.4-.8,4.4-1.4v-2.2h0Z"/>
      <path class="st3" d="M660.6,59.5v-11.8c0-2.2-1.1-2.9-2.5-2.9s-2.6.5-4.5,1.7v12.9h-4.9v-19h4.5l.4,1.6c2.8-1.7,4.7-1.9,6-1.9,4.2,0,6,2.7,6,6.9v12.5h-5Z"/>
      <path class="st3" d="M668.8,47c0-4.2,2.4-6.9,6.7-6.9s3.3.2,5.1,1.1v-9.4h4.9v27.6h-4.5l-.4-1.8c-2.1,1.4-4.1,2-5.4,2-4.1,0-6.4-2.3-6.4-7v-5.6h0ZM673.8,52.3c0,2.2,1.1,2.8,2.4,2.8s3.1-.8,4.4-1.6v-7.6c-1.6-.7-2.8-1-4.1-1s-2.8.9-2.8,3v4.4h0Z"/>
      <path class="st3" d="M692.6,32.5c1.5,0,2.7,1.2,2.7,2.8s-1.2,2.7-2.7,2.7-2.7-1.2-2.7-2.7,1.2-2.8,2.7-2.8ZM690.2,59.5v-19h4.9v19h-4.9Z"/>
      <path class="st3" d="M711.5,59.5v-11.8c0-2.2-1.1-2.9-2.5-2.9s-2.6.5-4.5,1.7v12.9h-4.9v-19h4.5l.4,1.6c2.8-1.7,4.7-1.9,6-1.9,4.2,0,6,2.7,6,6.9v12.5h-5Z"/>
      <path class="st3" d="M727.7,67.4c-2.4,0-5.4-.6-7.7-3.1l3.2-3.2c1.2,1.4,3.4,1.8,4.5,1.8,2.1,0,3.8-.9,3.8-3.3v-1.9c-2.2,1.4-4.2,1.7-5.6,1.7-4.2,0-6.3-2.7-6.3-6.9v-5.3c0-4.5,2.4-7,6.4-7s3.3.5,5.4,1.8l.4-1.6h4.6v20.1c0,4.7-4.8,6.9-8.7,6.9h0ZM724.7,51.9c0,2.2,1,2.9,2.4,2.9s2.9-.7,4.4-1.6v-6.7c-1.4-1-3.2-1.7-4.4-1.7s-2.4.9-2.4,2.9c0,0,0,4.2,0,4.2Z"/>
      <path class="st3" d="M756.8,52.5c.2-.7,1.6-5,1.9-5.8.2-.8,1.2-3.8,1.4-4.5h4.2l1.6,4.9,1.7,5.6h0c.2-.9,1.2-5.3,1.4-6.3l1.5-6.1h5.1l-5.3,19.1h-5l-1.6-5.1-1.6-5.1h0c-.3.7-1.4,4.5-1.6,5.3l-1.6,5h-4.9l-5.3-19.1h5.2l1.6,6.3,1.3,5.8h0Z"/>
      <path class="st3" d="M781.3,32.5c1.5,0,2.7,1.2,2.7,2.8s-1.2,2.7-2.7,2.7-2.7-1.2-2.7-2.7,1.1-2.8,2.7-2.8ZM778.8,59.5v-19h4.9v19h-4.9Z"/>
      <path class="st3" d="M787.4,44.4v-4h2.5l.9-4.8h3.9v4.8h4.6v4h-4.6v7.9c0,1.8.4,2.9,2.5,2.9s1.6,0,2.8-.4l.9,4.2c-1.6.6-3.6.7-4.8.7-5,0-6.2-2.8-6.2-6.8v-8.5h-2.5Z"/>
      <path class="st3" d="M814.7,59.5v-11.8c0-2.2-1.2-2.9-2.5-2.9s-2.6.5-4.5,1.7v12.9h-4.9v-27.5h4.9v10.3c2.8-1.8,4.6-2,5.9-2,4.3,0,6,2.8,6,6.9v12.4h-4.9Z"/>
      <path class="st2" d="M607.6,111.1c-7.9,0-15.2-4.3-15.2-12.8v-27.3h7.8v25.7c0,5.2,3.8,7.2,7.4,7.2s7.3-2,7.3-7.2v-25.7h7.9v27.1c0,8.6-7.4,13-15.2,13h0Z"/>
      <path class="st2" d="M637.6,88.1c2.2-2.5,4.4-5.1,6.4-7.7l7.8-9.4h9.3l-13.1,16,14.1,23.7h-9.3l-10-17.4c-1.9,2.1-3.7,4.3-5.5,6.4v11h-7.9v-39.6h7.9v17.1h.3Z"/>
      <path class="st2" d="M683.4,71c7.9,0,11.5,6.6,11.5,12.4s-2.4,8.9-6.5,11l7.1,16.2h-8.5c-1-2.5-5.1-12.4-6.2-14.9h-7.1v14.9h-7.9v-39.6h17.6ZM673.6,88.6h8c3.6,0,5.5-2.2,5.5-5.3s-2-5.3-5.5-5.3h-8v10.6Z"/>
      <path class="st2" d="M721.7,102.5h-13.8l-2.6,8.2h-8.4l13.9-39.7h8.1l13.8,39.7h-8.6l-2.4-8.2ZM710,95.9h9.5l-1.6-5.1-3.1-10.5h-.2l-3.1,10.3-1.5,5.3h0Z"/>
      <path class="st2" d="M745.7,71v39.7h-7.9v-39.7h7.9Z"/>
      <path class="st2" d="M761.6,85.7v25h-7.8v-39.7h7.1l9.2,13.6,7.6,11.5h.2v-25.1h7.9v39.7h-7.2l-10.1-15-6.6-10h-.3Z"/>
      <path class="st2" d="M792.6,71h27.4v7.1h-19.5v9.1h16.6v7.1h-16.6v9.4h19.5v7h-27.4v-39.7h0Z"/>
    </g>
  </g>
  <g class="st0">
    <path class="st1" d="M344.2,108.1v3.8h-4.9v-3.8h-11v-3.9l8.5-18.7h5.2l-8.2,18.2h5.6v-7.5h4.9v7.5h2.1v4.4h-2.1Z"/>
    <path class="st1" d="M358.9,104.1v-4.3h12.5v4.3h-12.5Z"/>
    <path class="st1" d="M401.5,104.8c0,4.8-4,7.3-8.4,7.3s-5.9-1-7.8-2.7l2.6-3.9c1.6,1.5,3.3,2,5,2s3.7-1,3.7-3.3v-3.1c-2.3,1.1-3.6,1.5-4.9,1.5-4,0-6.6-3-6.6-7.1v-2.7c0-4.9,3.9-7.5,8.2-7.5s8.2,2.7,8.2,7.6v12ZM393.3,89.9c-1.6,0-3.4,1-3.4,3.4v1.8c0,2,1.2,2.8,2.5,2.8s2.6-.5,4.2-1.5v-3.1c0-2.5-1.7-3.4-3.3-3.4Z"/>
    <path class="st1" d="M430,106.5h-9.2l-1.7,5.4h-5.6l9.3-26.4h5.4l9.2,26.4h-5.7l-1.6-5.4ZM422.2,102.1h6.4l-1-3.4-2.1-7h-.2l-2,6.9-1.1,3.5Z"/>
    <path class="st1" d="M450,112.2c-5.2,0-10.1-2.9-10.1-8.5v-18.1h5.2v17.1c0,3.4,2.5,4.8,4.9,4.8s4.9-1.3,4.9-4.8v-17.1h5.3v18c0,5.7-4.9,8.7-10.1,8.7Z"/>
    <path class="st1" d="M474.7,112.2c-4.9,0-10.1-2.8-10.1-8.5v-9.8c0-5.7,5-8.7,10.2-8.7s6.2.8,8.2,2.6l-2.6,4.1c-1.6-1.4-3.8-1.8-5.6-1.8s-5.1,1.3-5.1,4.8v7.7c0,3.4,2.5,4.8,4.9,4.8s2.3-.2,3.4-1.1v-4.4h-3.8v-4.5h9.1v11.1c-2.3,2.8-5.9,3.8-8.7,3.8Z"/>
  </g>
</svg>