<?xml version="1.0" encoding="utf-8"?>
<!-- Generator: Adobe Illustrator 27.2.0, SVG Export Plug-In . SVG Version: 6.00 Build 0)  -->
<svg version="1.1" id="Layer_1" xmlns="http://www.w3.org/2000/svg" xmlns:xlink="http://www.w3.org/1999/xlink" x="0px" y="0px"
	 viewBox="0 0 800 102" style="enable-background:new 0 0 800 102;" xml:space="preserve">
<style type="text/css">
	.st0{fill:#0066CC;}
	.st1{fill:#FFCC00;}
	.st2{fill:#222222;}
</style>
<path class="st0" d="M482.7,1.4c2.2,0.2,4.4,0.4,6.6,0.6c5.4,0.7,10.7,1.9,15.2,5.2c2.9,2.1,4.7,4.8,4.9,8.5
	c0.1,3.4-1.2,4.9-4.6,4.9c-2.8,0-5.7-0.3-8.5-0.7c-4-0.6-8-1.7-12-2c-9-0.8-17.6,0.7-25,6.4c-6,4.7-8.9,11-9.7,18.5
	c-0.3,3.1-0.2,6.1,1.5,8.8c0.3,0.4,0.5,0.9,0.8,1.3c1.4,2.2,3.3,3.2,6,3c4.1-0.3,8.1-1.1,12.1-2c7.3-1.5,14.6-1.5,21.9,0.3
	c3.6,0.9,6.6,2.7,8.6,6c0.4,0.7,0.5,1.3,0.2,2.1c-1.1,2.9-2.8,4.1-5.9,4.3c-5.7,0.4-11.3,1-17,1.5c-2.8,0.3-5.5,0.7-8.2,0.9
	c-2.3,0.2-4.2,1.4-6,2.5c-0.2,0.1-0.3,0.8-0.2,1.1c1.2,5.1,1.2,10.1-0.4,15.1c-0.6,1.7-1.5,3.4-2.5,4.9c-2.8,4.2-9.8,5.8-14.3,1
	c-3.8-4-6.4-8.7-8.4-13.7c-3.4-8.4-6.1-17-7.1-26c-0.9-7.6,0.2-15,3.1-22.1c6.8-17.1,19.5-26.9,37.6-30c1.6-0.3,3.3-0.4,4.9-0.6
	C478.4,1.4,480.5,1.4,482.7,1.4z"/>
<path class="st0" d="M557.6,1.4c2.2,0.2,4.3,0.4,6.5,0.6c5.6,0.7,10.9,2,15.6,5.5c2.9,2.1,4.4,4.9,4.6,8.5c0.2,3-1.3,4.6-4.7,4.8
	c-3.6,0.2-7.1-0.4-10.6-1.2c-5.2-1.1-10.4-2.1-15.8-1.8c-7.2,0.5-14,2.3-19.6,7.1c-5.2,4.4-8,10-8.9,16.7c-0.2,1.2-0.2,2.4-0.3,3.6
	c-0.3,3.6,1.2,6.6,3.5,9.2c1,1.2,2.2,1.7,3.8,1.6c4.5-0.1,8.9-1.1,13.3-2c7.3-1.5,14.6-1.5,21.9,0.3c3.6,0.9,6.6,2.8,8.6,6.1
	c0.4,0.6,0.4,1.1,0.2,1.8c-1.1,3.1-2.8,4.3-6.2,4.5c-6.2,0.5-12.5,1.1-18.7,1.7c-2.2,0.2-4.3,0.5-6.5,0.7s-4,1.4-5.8,2.5
	c-0.2,0.1-0.3,0.7-0.2,1.1c1.1,4.9,1.2,9.8-0.2,14.7c-0.7,2.4-1.8,4.4-3.4,6.3c-2.6,3-8.7,4.4-12.7,0.8c-3.1-2.9-5.4-6.3-7.3-10.1
	c-4.1-8.3-6.9-17.1-8.5-26.2c-2.9-16.7,1.6-31.3,13.6-43.4c7.6-7.7,17.1-11.8,27.9-13.1c1.1-0.1,2.2-0.3,3.3-0.4
	C553.1,1.4,555.3,1.4,557.6,1.4z"/>
<path class="st0" d="M185.1,72c0.4-10.9,1.9-21.7,5.5-32c2.5-7.1,5.7-13.8,10.9-19.4c7.6-8.1,16.9-12.1,28-11.7
	c8.1,0.3,15.8,2.3,23,6.1c3.6,1.9,6.8,4.4,9.5,7.5c3.7,4.1,5,9,4.5,14.5c-0.6,6.4-3.5,11.8-7,17c-3.7,5.5-8.3,10.3-12.7,15.2
	c-1.2,1.3-1.2,3.8,0.2,5.1c2,1.8,4.2,3.4,6.1,5.3c3.1,3.1,6.1,6.3,8.9,9.6c1.3,1.6,2.2,3.6,3.2,5.4s0.8,3.6,0.1,5.4
	c-0.6,1.7-2.2,2.6-3.9,3.1c-2.4,0.7-4.8,0.4-7.2-0.1c-2-0.4-3.8-1.2-5.5-2.4c-6.5-4.5-13-8.9-19.5-13.4c-4.9-3.4-9.8-3.4-15-0.8
	c-4.3,2.1-7.6,5.4-11.4,8.1c-1.8,1.3-3.9,2.4-5.9,3.4c-0.4,0.2-1.2,0.2-1.7,0c-1.8-0.6-3.2-1.9-4.2-3.4c-3.1-4.5-4.6-9.5-5.4-14.8
	C185.5,77.1,185.4,74.6,185.1,72z M247.7,42.8c-0.1-0.7-0.3-2-0.5-3.2c-0.6-3.5-2.1-6.5-5.7-7.9c-2.4-0.9-4.8-0.6-7.2-0.3
	c-1.1,0.2-1.5-0.2-1.9-1s-0.7-1.5-1.1-2.2c-2.4-4.1-5.6-5.6-10.2-4.5c-4.4,1-7.9,3.6-10.7,7.2c-1.8,2.4-2.8,5.2-3.3,8.2
	c-0.7,4-0.6,7.9,0.3,11.8c0.7,3.1,1.7,6.1,2.4,9.2c0.7,3,1.4,6,2.1,9c0.4,1.8,1,2.2,2.4,1.5c5-2.7,10.5-4.2,15.8-6.2
	c2.8-1.1,5.7-2,8.1-4.1c1.6-1.4,3.1-2.8,4.6-4.3C245.9,52.3,247.6,48.2,247.7,42.8z"/>
<path class="st0" d="M99.3,84.9c0.2-2.7,0.2-5.3,0.5-8c0.2-2.5,1-4.9,2.5-6.9c4.3-5.9,6.5-12.6,7.9-19.7c1.3-6.6,3-13.1,5.7-19.3
	c1.4-3.3,3.3-6.2,5.8-8.8c4.6-4.7,11.5-4,15.5-0.9c2.5,1.9,4.7,4.2,6.3,6.9c2.4,3.9,4.6,7.9,6.7,12c2.7,5,5.2,10.1,8.9,14.6
	c0.6,0.7,1.2,1.3,1.8,1.9c2.4,2.4,5.2,3.3,8.5,3.8c2.5,0.3,4.9,1.4,7.3,2.2c0.5,0.2,0.9,0.5,1.3,0.8c0.8,0.7,0.9,1.4,0.2,2.1
	c-0.5,0.5-1.1,0.8-1.8,1c-3.7,1.2-5.6,3.9-6.1,7.6c-0.5,3.4,0.1,6.6,2,9.5c1.1,1.6,2,3.3,2.9,5.1c1.2,2.3,1.3,4.7,0.7,7.2
	c-0.3,1.5-1.3,2.6-2.7,3.2c-2.1,0.9-4.3,1.1-6.5,1c-2.1-0.2-3.7-1.3-5-3c-1.9-2.5-2.9-5.3-3.9-8.2c-0.7-2.1-1.5-4.3-2.3-6.4
	c-0.3-0.9-0.8-1.8-1.3-2.6c-1.7-3-4.2-4.5-7.8-4.3c-5.3,0.2-10.4,0.7-15.2,3c-3.3,1.5-6.2,3.7-8.5,6.6c-1.2,1.5-2.5,3-3.7,4.6
	c-2.7,3.4-6.2,5.3-10.6,5.2c-1.6,0-3.3,0-4.9-0.1c-2.6-0.3-3.4-1.2-3.5-3.8c-0.1-2-0.2-4.1-0.3-6.1C99.4,84.9,99.4,84.9,99.3,84.9z
	 M126.4,51.3c0.1,0,0.2,0,0.3,0c0,2-0.1,4,0,6c0.1,2.7,1.4,4.4,4.1,4.7c2.8,0.3,5.6,0.3,8.5,0.2c1,0,2.1-0.7,2.9-1.3
	c1.2-0.9,1.5-3,0.7-4.3c-3.4-5.2-6.8-10.4-10.3-15.6c-0.2-0.3-0.7-0.6-1.1-0.6c-2.7-0.3-4.4,0.8-4.8,3.5
	C126.4,46.4,126.5,48.9,126.4,51.3z"/>
<path class="st0" d="M359.6,9.6c5.3,0,10.6-0.1,16,0c1,0,2.1,0.5,3,1c1,0.5,0.9,1,0.2,1.9c-3.7,4.4-8.7,6.2-14.2,6.9
	c-7,0.9-14,1.7-20.9,2.5c-5.2,0.6-10.4,1.2-15.3,3.2c-1.3,0.5-2.5,1.1-3.6,1.9c-2.1,1.4-3.1,3.4-3.1,5.9c0,4.1,1,8.1,2.6,11.9
	c2.3,5.5,4.7,11,6.9,16.5c1.9,4.6,2.4,9.5,1.6,14.4c-0.5,3-1.7,4.2-4.8,4.4c-1.5,0.1-3,0.1-4.5-0.1c-3.4-0.4-5.7-2.5-7.6-5.2
	c-2.4-3.5-3.6-7.5-4.6-11.5c-1.4-5.8-2.9-11.7-5.2-17.2c-3.2-7.4-8.6-11.7-16.6-13c-3.4-0.6-6.7-0.5-10.1,0.1
	c-3.6,0.7-5.6-0.7-6.1-4.3c-0.2-1.6-0.2-3.3-0.2-4.9c0.1-2.2,1-3.2,3.2-3.6c5.1-1.1,10.2-2.3,15.3-3.2c10.7-1.8,21.3-3.7,32-5.2
	C335.5,10.3,347.5,9.6,359.6,9.6z"/>
<path class="st0" d="M421.1,60.7c0.1,4,0.1,8.1-0.9,12c-1.9,7.8-6.6,13.2-14.2,15.8c-7.3,2.5-14.9,3.2-22.5,2.1
	c-8.7-1.2-16.1-5.5-22.6-11.3c-5.2-4.7-9.2-10.2-11.6-16.9c-1-3-1.5-6-1.5-9.2c0-3.3,2.6-6.8,5.9-8.1c2.7-1.1,5.8-0.2,8.2,2.4
	c2.2,2.3,3.7,5,5.1,7.8c1.3,2.6,2.5,5.2,3.8,7.7c2,3.8,4.4,7.4,7.6,10.3c4.1,3.7,8.9,4.8,14.2,4.1c3.2-0.4,6.2-1.3,8.9-2.9
	c2.7-1.6,4.8-3.7,5.6-6.9c0.4-1.7,0.3-3.4-0.4-5.1c-2.1-5-4.3-10-6.1-15.1c-1.9-5.5-2.3-11.3-1.6-17.1c0.4-3.3,1.7-4.3,5.1-4.7
	c4.5-0.5,8,1.2,10.5,4.9c2.3,3.5,3.5,7.3,4.4,11.4C420.5,48.2,420.9,54.4,421.1,60.7z"/>
<path class="st0" d="M106.7,35.5c-3.9,0-7.7-0.1-11.5,0c-8.8,0.2-17.5,0.5-26.3,0.9C57.4,37.1,46.1,39,35,41.9
	c-1.9,0.5-3.8,1.5-5.6,2.4c-4.1,2.2-8.2,4.6-12.3,6.8c-4.7,2.6-9.3,1.9-13.7-0.6c-3.8-2.2-4.5-5.9-1.7-9.2C2.9,40,4.4,38.9,5.9,38
	c4.8-3,10.1-4.8,15.5-6.3c9.3-2.7,18.8-4.4,28.4-5.6c7.8-1,15.7-1.9,23.6-2.7c6.9-0.7,13.7-0.8,20.5,0.7c3.7,0.8,7.2,2.2,10.1,4.7
	C105.8,30.5,106.9,32.9,106.7,35.5z"/>
<path class="st0" d="M63.2,100.4c-4,0.4-7.3-1.3-10.1-4c-3.5-3.4-5.9-7.6-7.7-12.1c-2.6-6.4-4.6-13-5.1-20c-0.2-2.9,1-5,3.5-6.4
	c2.6-1.5,5.4-2.1,8-0.1c1.6,1.2,3.2,2.6,4.2,4.3c2.2,3.4,4.3,6.9,6.1,10.6c2.7,5.4,5.1,10.9,7.6,16.3c0.8,1.8,1.9,3.4,2.8,5.2
	c0.2,0.3,0.2,0.9,0.1,1.2c-1.3,3.3-3.8,4.8-7.2,5.1C64.7,100.5,63.9,100.4,63.2,100.4z"/>
<path class="st1" d="M247.7,42.8c-0.1,5.3-1.8,9.5-5,13c-1.4,1.5-3,2.9-4.6,4.3c-2.3,2.1-5.2,3-8.1,4.1c-5.3,2-10.7,3.5-15.8,6.2
	c-1.4,0.8-2,0.3-2.4-1.5c-0.7-3-1.3-6-2.1-9c-0.8-3.1-1.8-6.1-2.4-9.2c-0.9-3.9-0.9-7.9-0.3-11.8c0.5-3,1.4-5.8,3.3-8.2
	c2.7-3.6,6.2-6.1,10.7-7.2c4.6-1.1,7.8,0.4,10.2,4.5c0.4,0.7,0.8,1.5,1.1,2.2c0.4,0.9,0.8,1.2,1.9,1c2.4-0.3,4.9-0.6,7.2,0.3
	c3.6,1.4,5,4.4,5.7,7.9C247.5,40.8,247.6,42.1,247.7,42.8z"/>
<g>
	<path class="st2" d="M637.1,64.3h-11.4v11.8c0.8-0.5,1.5-1,2.3-1.2s1.6-0.4,2.5-0.4c2.4,0,4.4,1,5.8,2.8c1.5,1.9,2.2,4.5,2.2,7.9
		c0,2.3-0.3,4.4-1.1,6.1c-0.8,1.7-1.8,3.1-3.3,4.1c-1.5,1-3,1.5-4.9,1.5c-1.7,0-3.2-0.3-4.5-1c-1.3-0.7-2.5-1.7-3.7-3.1l1.8-1.6
		c1,1.1,1.9,1.9,2.9,2.4c1,0.5,2.1,0.8,3.4,0.8c2,0,3.6-0.8,4.7-2.4c1.1-1.6,1.7-3.9,1.7-6.8c0-5.5-1.9-8.3-5.7-8.3
		c-0.9,0-1.7,0.1-2.4,0.3c-0.7,0.3-1.5,0.7-2.3,1.3H623V61.9h14.5L637.1,64.3z"/>
	<path class="st2" d="M647,92.9c0.4,0.4,0.6,1,0.6,1.7s-0.2,1.2-0.6,1.7c-0.4,0.4-1,0.7-1.7,0.7c-0.7,0-1.2-0.3-1.7-0.7
		s-0.6-1-0.6-1.7s0.2-1.2,0.6-1.7c0.4-0.4,1-0.7,1.7-0.7C646.1,92.2,646.6,92.5,647,92.9z"/>
	<path class="st2" d="M650.5,81.4v-2.5H662v2.5H650.5z"/>
	<path class="st2" d="M673.7,61.9v34.5h-2.9V65.1l-6.9,5.1l-1.4-2l8.6-6.4H673.7z"/>
	<path class="st2" d="M697.9,65.7c1.5,2.9,2.3,7.4,2.3,13.5c0,6.1-0.8,10.5-2.3,13.4c-1.5,2.9-3.7,4.4-6.8,4.4s-5.3-1.5-6.8-4.4
		c-1.6-3-2.3-7.4-2.3-13.4c0-6,0.8-10.5,2.3-13.4c1.5-2.9,3.8-4.4,6.9-4.4C694,61.3,696.3,62.8,697.9,65.7z M686.5,67.3
		c-1,2.4-1.6,6.3-1.6,11.8c0,5.5,0.5,9.4,1.5,11.8c1,2.4,2.5,3.6,4.6,3.6c2,0,3.6-1.2,4.5-3.6c1-2.4,1.5-6.3,1.5-11.8
		c0-5.5-0.5-9.4-1.5-11.8c-1-2.4-2.5-3.6-4.5-3.6C689.1,63.7,687.5,65,686.5,67.3z"/>
	<path class="st2" d="M709.7,92.9c0.4,0.4,0.6,1,0.6,1.7s-0.2,1.2-0.6,1.7s-1,0.7-1.7,0.7c-0.7,0-1.2-0.3-1.7-0.7s-0.6-1-0.6-1.7
		s0.2-1.2,0.6-1.7c0.4-0.4,1-0.7,1.7-0.7C708.7,92.2,709.3,92.5,709.7,92.9z"/>
	<path class="st2" d="M745.3,96.4l-2.5-9.8h-12l-2.5,9.8h-3l9.7-35.5h3.7l9.7,35.5H745.3z M731.5,84.1h10.7l-5.3-20.8L731.5,84.1z"
		/>
	<path class="st2" d="M772.3,87.2c0,2.9-0.9,5.1-2.5,7.1c-1.7,1.8-4.1,2.8-7.2,2.8c-3.2,0-5.6-1-7.2-2.8c-1.7-1.8-2.5-4.2-2.5-7.1
		V60.9h3v26c0,2.4,0.5,4.2,1.7,5.5c1.1,1.3,2.8,1.9,5.1,1.9c2.4,0,4-0.7,5.1-2c1.1-1.3,1.7-3.1,1.7-5.4v-26h3L772.3,87.2L772.3,87.2
		z"/>
	<path class="st2" d="M795.7,61.1c1.2,0.6,2.5,1.5,3.7,2.7l-1.7,1.7c-1.1-1-2.2-1.7-3.1-2.1c-1-0.4-2.1-0.6-3.3-0.6
		c-2.7,0-4.9,1.2-6.6,3.7c-1.7,2.4-2.6,6.4-2.6,11.9c0,5.7,0.8,9.7,2.4,12.2c1.6,2.4,3.8,3.7,6.7,3.7c1.1,0,2.2-0.2,3.1-0.4
		c1-0.3,1.8-0.8,2.8-1.4V79.8h-5.5l-0.3-2.5h8.7V94c-2.7,1.9-5.6,2.9-8.7,2.9c-3.9,0-7-1.5-9.1-4.5c-2.2-3-3.2-7.7-3.2-13.9
		c0-4.1,0.6-7.6,1.7-10.3s2.6-4.7,4.5-6c1.9-1.3,3.9-1.9,6.2-1.9C793,60.3,794.5,60.6,795.7,61.1z"/>
</g>
</svg>
