<svg width="31" height="30" viewBox="0 0 31 30" fill="none" xmlns="http://www.w3.org/2000/svg">
<path d="M17.0485 16.1132C17.0069 15.9675 16.9549 15.8115 16.9133 15.6658C16.8716 15.5201 16.8196 15.3745 16.8092 15.2288C16.7988 15.1144 16.83 15.0103 16.9028 14.9167C16.9445 14.8647 16.9861 14.8231 17.0277 14.771C17.1838 14.5629 17.2254 14.3132 17.2566 14.0635C17.267 13.9595 17.2566 13.8555 17.2566 13.7514C17.2566 13.7306 17.267 13.6994 17.2358 13.689C17.215 13.6786 17.2046 13.7098 17.1838 13.7202C17.1421 13.7826 17.1005 13.8346 17.0485 13.8867C16.9237 14.0115 16.7988 14.1468 16.674 14.282C16.5803 14.3861 16.4763 14.4901 16.3722 14.5734C16.2786 14.6566 16.1849 14.7398 16.1121 14.8543C16.0185 15.0103 15.9248 15.1664 15.8312 15.3225C15.7376 15.4785 15.6855 15.6346 15.6855 15.8219C15.6751 15.9675 15.6855 16.1028 15.7168 16.238C15.7272 16.2589 15.7272 16.2901 15.7376 16.3109C16.2162 16.5606 16.7364 16.7479 17.3086 16.8623C17.267 16.7479 17.2254 16.6334 17.1838 16.519C17.1421 16.3941 17.0901 16.2589 17.0485 16.1132Z" fill="black" fill-opacity="0.5"/>
<path d="M20.7941 15.7387C20.7629 15.5826 20.7421 15.4265 20.7109 15.2705C20.6797 15.0312 20.6381 14.7919 20.6173 14.5526C20.5964 14.3029 20.5548 14.0532 20.5444 13.7931C20.5444 13.6786 20.5132 13.5642 20.5132 13.4393C20.5028 13.3353 20.4716 13.3041 20.3884 13.3353C20.2531 13.3873 20.1074 13.3977 19.9618 13.4393C19.8994 13.4601 19.8265 13.4601 19.7641 13.4705C19.5768 13.5226 19.3895 13.5226 19.2023 13.5434C19.0462 13.5538 18.8901 13.5538 18.7341 13.5538C18.7029 13.5538 18.6716 13.5642 18.6612 13.6058C18.6196 13.7827 18.5052 13.9075 18.4011 14.0324C18.3179 14.126 18.2451 14.23 18.1618 14.3237C18.0474 14.4798 17.9329 14.6462 17.8289 14.8127C17.7457 14.9375 17.652 15.052 17.6104 15.2081C17.5896 15.2705 17.5792 15.3433 17.5584 15.4161C17.5272 15.541 17.5272 15.6658 17.5688 15.8011C17.5896 15.8843 17.6208 15.9676 17.6416 16.0612C17.6832 16.2277 17.7561 16.3941 17.7977 16.5606C17.8081 16.5814 17.8185 16.6022 17.8289 16.6022C17.8913 16.623 17.9329 16.6543 17.9954 16.6751C18.0994 16.7167 18.193 16.7791 18.2451 16.8832C18.2659 16.9248 18.2659 16.9664 18.2555 16.9976H18.2659C19.1398 17.0288 20.0034 16.8936 20.8357 16.6126C20.8357 16.4358 20.8253 16.2485 20.8253 16.0612C20.8253 15.9468 20.8149 15.8427 20.7941 15.7387Z" fill="black" fill-opacity="0.5"/>
<path d="M21.2414 2.62926C17.4646 2.47319 13.7399 5.56328 12.918 9.52733C12.3457 12.2741 13.3237 14.7191 15.2277 16.0092C15.2173 15.9468 15.2173 15.8948 15.2069 15.8324C15.1757 15.6451 15.1757 15.4578 15.1757 15.2601C15.1757 15.2081 15.1861 15.1665 15.2069 15.1145C15.2485 15.0208 15.3005 14.9376 15.3526 14.8544C15.415 14.7399 15.4774 14.6255 15.5503 14.5214C15.6543 14.3758 15.7271 14.2093 15.7895 14.0428C15.8312 13.9284 15.852 13.8243 15.8832 13.7099C15.9144 13.5746 15.9352 13.4394 15.9248 13.3041C15.9144 13.1688 15.904 13.044 15.8832 12.9087C15.8832 12.9087 15.7895 12.4822 15.7895 11.9099C15.7167 12.0556 15.6439 12.3053 15.5815 12.5966C15.4358 13.2001 15.311 13.97 15.2589 14.2093C15.1653 14.6359 15.1757 14.6359 15.0717 14.6463C15.03 14.6567 14.9884 14.6046 14.9676 14.511C14.9052 14.2093 14.3329 13.4602 15.0092 11.7955C15.6855 10.1308 16.7155 9.50652 17.9745 9.35046C19.2334 9.19439 20.5964 9.36086 20.8773 8.86145C21.1166 8.44528 21.4495 7.87304 21.5848 7.63374C21.6056 7.60253 21.5848 7.5297 21.564 7.47768C21.4079 6.95746 21.6472 6.19794 21.7304 6.20835C21.8137 6.21875 22.2819 6.90544 22.3235 6.85342C22.3443 6.8222 22.6044 6.79099 22.8645 6.79099C23.1246 6.79099 23.3847 6.8222 23.4055 6.85342C23.4367 6.90544 23.9153 6.22916 23.9986 6.20835C24.0818 6.19794 24.3107 6.95746 24.165 7.47768C24.1546 7.5297 24.1442 7.58172 24.1442 7.63374C24.1442 7.72738 24.165 7.81062 24.1963 7.89385C24.2379 8.0187 24.4043 8.77822 24.3107 9.52733C24.2275 10.2868 23.8737 10.6718 23.8425 10.755C23.8113 10.8383 23.8113 11.3897 23.5616 11.8787C23.5616 11.8995 23.5512 11.9203 23.5512 11.9411C23.52 12.0972 23.4679 12.2533 23.4055 12.3989C23.3743 12.4718 23.3535 12.5446 23.3223 12.607C23.2807 12.6902 23.2391 12.7839 23.187 12.8671C23.0934 13.0336 22.9789 13.1793 22.8645 13.3249C22.7709 13.4394 22.6668 13.5642 22.6252 13.7203C22.6148 13.7411 22.6148 13.7723 22.594 13.7827C22.5316 13.8451 22.5107 13.9284 22.5003 14.0116C22.4899 14.126 22.4587 14.2405 22.4275 14.3549C22.3963 14.4902 22.3859 14.6255 22.3443 14.7503C22.3235 14.8231 22.3339 14.896 22.3131 14.9688C22.2714 15.1249 22.261 15.2913 22.2402 15.4578C22.2298 15.6243 22.209 15.8011 22.2194 15.978C24.3731 14.7711 26.0794 12.5966 26.6101 10.0684C27.4216 6.11471 25.0182 2.77492 21.2414 2.62926Z" fill="black" fill-opacity="0.5"/>
<path d="M21.564 15.9052C21.564 15.6451 21.5744 15.385 21.5744 15.1249C21.5744 14.9688 21.6056 14.8232 21.616 14.6671C21.6264 14.5006 21.6576 14.3342 21.6784 14.1573C21.6889 14.1053 21.7201 14.0636 21.7097 14.0012C21.7097 13.9284 21.7305 13.866 21.7513 13.8035C21.7825 13.6683 21.8137 13.533 21.8657 13.4082C21.8865 13.3561 21.8969 13.3041 21.8865 13.2417C21.8553 13.2937 21.8345 13.3249 21.8137 13.3666C21.7513 13.4706 21.7097 13.5746 21.668 13.6891C21.6264 13.8139 21.5848 13.9284 21.564 14.0532C21.5328 14.2093 21.512 14.3654 21.5016 14.5214C21.4912 14.6567 21.4704 14.7815 21.46 14.9168C21.4496 15.1665 21.4287 15.4266 21.4183 15.6763C21.4079 15.9156 21.3871 16.1445 21.4183 16.3838C21.46 16.363 21.512 16.3422 21.5536 16.3214C21.5432 16.259 21.5328 16.2069 21.5328 16.1445C21.5328 16.0717 21.564 15.9884 21.564 15.9052Z" fill="black" fill-opacity="0.5"/>
<path d="M9.14219 24.6149C8.77488 24.9828 8.18573 25.1263 7.47659 25.2489C5.88339 25.5204 4.47651 24.1437 4.76271 22.533C4.87196 21.9224 5.19503 21.0665 5.39611 20.8654C5.44006 20.8223 5.46931 20.7665 5.47971 20.7058C5.49012 20.6451 5.48114 20.5827 5.45405 20.5274C5.42697 20.4722 5.38316 20.4268 5.32884 20.3979C5.27452 20.3689 5.21246 20.3578 5.15146 20.3661C4.26053 20.4751 3.43167 20.879 2.79684 21.5136C1.22106 23.0907 1.07227 28.9427 1.07227 28.9427C1.07227 28.9427 6.92765 28.7939 8.50343 27.2168C9.13995 26.5825 9.54439 25.7524 9.65158 24.8602C9.67638 24.58 9.33522 24.4131 9.14219 24.6149V24.6149Z" fill="black"/>
<path fill-rule="evenodd" clip-rule="evenodd" d="M29.7859 0.249787C29.8281 0.293235 29.857 0.347797 29.8692 0.407076C30.8143 4.52783 27.4134 13.396 22.4836 18.301C21.6117 19.1779 20.6651 19.9772 19.6545 20.6898C19.7845 22.1979 19.6692 23.706 19.1062 24.9976C17.5116 28.6417 13.3192 29.7028 11.5222 29.991C11.4237 30.0076 11.3227 30.0012 11.227 29.9722C11.1314 29.9432 11.0438 29.8925 10.9711 29.824C10.8984 29.7555 10.8425 29.6711 10.8079 29.5774C10.7732 29.4837 10.7608 29.3832 10.7715 29.2839L11.4136 23.4392C10.9749 23.4348 10.5366 23.4082 10.1006 23.3594C9.79616 23.3297 9.51169 23.1945 9.29627 22.9774L7.03012 20.7166C6.8127 20.5014 6.67752 20.2168 6.64807 19.9123C6.59911 19.4738 6.57249 19.0331 6.56831 18.5919L0.716278 19.2373C0.616914 19.2482 0.516387 19.2358 0.422604 19.2013C0.328821 19.1667 0.244339 19.1108 0.175803 19.0381C0.107267 18.9653 0.0565463 18.8776 0.0276294 18.782C-0.00128743 18.6863 -0.00761161 18.5852 0.00915448 18.4866C0.304739 16.6863 1.36576 12.5012 5.00996 10.8973C6.30155 10.3343 7.81701 10.2224 9.33246 10.3564C10.045 9.34821 10.8441 8.40404 11.7206 7.53461C16.6349 2.62228 25.7056 -0.79805 29.6313 0.161762C29.6901 0.175803 29.7438 0.206338 29.7859 0.249787ZM19.8805 15.9349C23.0835 15.9349 25.68 13.3384 25.68 10.1354C25.68 6.93245 23.0835 4.33594 19.8805 4.33594C16.6776 4.33594 14.081 6.93245 14.081 10.1354C14.081 13.3384 16.6776 15.9349 19.8805 15.9349Z" fill="black"/>
</svg>
