<?xml version="1.0" encoding="utf-8"?>
<!-- Generator: Adobe Illustrator 24.3.0, SVG Export Plug-In . SVG Version: 6.00 Build 0)  -->
<svg version="1.1" id="Layer_1" xmlns="http://www.w3.org/2000/svg" xmlns:xlink="http://www.w3.org/1999/xlink" x="0px" y="0px"
	 viewBox="0 0 494 140" style="enable-background:new 0 0 494 140;" xml:space="preserve">
<style type="text/css">
	.st0{fill:#F79433;}
	.st1{fill:#FFFFFF;}
	.st2{fill:#0E1417;}
	.st3{fill:#29333A;}
	.st4{fill:#343A41;}
</style>
<g>
	<path class="st3" d="M40.1,70.4L24,56.1l24.8-1.4l0.9,15.2L40.1,70.4 M42.3,121.6L28,137.5l-4.6-80.1l16.1,14.3L42.3,121.6z
		 M8.7,72.2L7.9,57l13.9-0.8l0.9,15.2L8.7,72.2z M26.4,139.4l-8,0.5L2.2,125.5l23.3-1.3L26.4,139.4z M15.7,116.1l0.4,7.1l-15.3,0.9
		L0.3,117L15.7,116.1z"/>
	<path class="st3" d="M103.5,118.2l-3.8-66.5l15.2-0.9l3.8,66.5L103.5,118.2z M103,135l-26.3,1.5l-16.2-14.3l56.9-3.3L103,135z
		 M59.2,120.8l-3.8-66.5l15.2-0.9l3.8,66.5L59.2,120.8z"/>
	<path class="st3" d="M172.8,129.4l-2.3-40.5l16.1,14.3l0.6,10.2L172.8,129.4 M169.5,71.6l-1.3-22.3l16.2,14.4l0.4,7L169.5,71.6z
		 M145.2,132.5l-0.9-15.2l26.3-1.5l0.9,15.2L145.2,132.5z M141.2,64.6l-0.8-15.2l26.3-1.5l0.9,15.2L141.2,64.6z M143,94.1
		l-15.6-13.9l41.5,7.4l0.7,11.5L143,94.1z M127.6,116.9l-0.4-7.1l15.2-0.9l1.3,22.3L127.6,116.9z M125.4,78.4L124.7,67l14.3-16
		l1.7,30.1L125.4,78.4z"/>
	<path class="st3" d="M247.1,58.5l-22,1.3l-16.1-14.3l37.2-2.1L247.1,58.5 M228.3,127.8l-3.8-66.5l-16.1-14.4l4.7,81.8L228.3,127.8z
		 M206.8,45.6l0.9,15.2l-19.8,1.1L187,46.7L206.8,45.6z"/>
	<g>
		<path class="st3" d="M317.9,90.2l-27.9-2l-0.8-13.9L317,75L317.9,90.2 M312.2,91.2l-36.9,6.2l10-11.3l4.1,3.6L312.2,91.2z
			 M324.2,54.1L273,57L287.3,41l36-2.1L324.2,54.1z M290.6,124.2l-15.2,0.9l-1.5-26l15.1-2.5L290.6,124.2z M288.5,86.9l-16.1-14.3
			l-0.8-14l15.2-0.9L288.5,86.9z"/>
		<path class="st3" d="M344.9,121.1l14.2-16.1l9.7-0.6l0.9,15.2L344.9,121.1 M356.1,52.3L340,37.9l24.9-1.4l0.9,15.2L356.1,52.3z
			 M358.3,103.8L344,119.9l-4.6-80.7l16.1,14.3L358.3,103.8z M333.4,121.7l-0.9-15.2l9.1-0.5l0.9,15.2L333.4,121.7z M329.5,53.8
			l-0.9-15.2l9.1-0.5l0.9,15.2L329.5,53.8z"/>
		<path class="st3" d="M424.9,116.5l-30.1,1.7l-16.4-14.3l45.6-2.6L424.9,116.5 M377.1,102.8L373.3,36l15.2-0.9l3.8,66.8
			L377.1,102.8z"/>
		<path class="st3" d="M488.1,34.8l-7.3,31.9l-5.7,6.4l2.3,40.4l15.2-0.9L488.1,34.8 M487.8,29.4l-15.1,0.9l-5.2,36.4l11.9-0.7
			L487.8,29.4z M456.4,83.3l-15.2-13.5l36.7-2.1l-13.5,15.2L456.4,83.3z M432,116.1l-4.5-77.8l10.9,30.8l6.4,5.7l2.3,40.4L432,116.1
			z M439.7,68.3l-12.5-35.4l15.1-0.9l9.3,35.6L439.7,68.3z"/>
	</g>
</g>
</svg>
