<?xml version="1.0" encoding="utf-8"?>
<!-- Generator: Adobe Illustrator 24.2.0, SVG Export Plug-In . SVG Version: 6.00 Build 0)  -->
<svg version="1.1" id="Layer_1" xmlns="http://www.w3.org/2000/svg" xmlns:xlink="http://www.w3.org/1999/xlink" x="0px" y="0px"
	 viewBox="0 0 119.8 46.8" style="enable-background:new 0 0 119.8 46.8;" xml:space="preserve">
<style type="text/css">
	.st0{fill:#0019AF;}
</style>
<g id="Layer_x0020_1">
	<path class="st0" d="M60.6,3.5c-1.8,0-3.1,1.4-3.2,3.2c0,2,1.5,3.8,3.5,4.1c0.1,0,0.3,0,0.4,0c1.8,0,3.1-1.4,3.2-3.2
		c0-2-1.5-3.8-3.5-4.1C60.8,3.5,60.7,3.5,60.6,3.5L60.6,3.5z M96.4,46.8c-2,0-4.7-0.3-6.4-1.7c-3-2.5-2.4-7.7-2.3-8
		c0.4-3.4,2.2-7.7,8.5-9.6c2.9-0.8,6.1-1,8.3-1.1h0c0.3,0,1.3,0,1.4-0.4c0.1-0.4-0.8-1.1-1.3-1.5c-1.7-1.2-5.9-3.2-15.3-3.2
		c0,0-0.9,0-1.3,0c-4,0-9.2,0.7-12,2.4C75.4,24,75,24.5,75,25c-0.1,0.9,0.8,1.7,0.9,1.8l0,0c0.9,0.6,1.8,1.2,2.4,1.5l0.3,0.1
		c1.5,0.7,4.2,2,5.5,4.8c0.7,1.5,1,3.2,0.8,4.7c-1,8.7-10.8,8.8-11.2,8.8h0c-4,0-7-1.5-8.8-2.8c0,0-2.8-1.7-3.8-5
		c0-0.1-0.2-0.7-0.2-0.8c-0.1-0.5-0.4-1.6-0.7-1.6c-0.4,0-1.1,1.4-1.3,1.7c-0.5,0.8-1,1.9-1.2,2.1c-1.1,1.8-3.9,6.4-8.1,6.4
		c-1.1,0-2.2-0.3-3.4-0.9c-2.7-1.5-3.5-3.7-4.2-5.6c-0.2-0.5-0.3-1-0.5-1.5c-0.7-2.1-0.8-2.1-2.4-0.7c-1.5,1.3-2.9,2.7-4.2,3.6
		c-2,1.6-6,4.3-10.5,4.9c-1.1,0.1-2.2,0.2-3.3,0.2c-4.2,0-7.2-1.2-9.1-3.5c-1.5-1.8-2.7-4.1-3.5-6.6c-0.5-1.5-0.6-1.3-1.9-1.6
		c-1.5-0.3-2.6-0.5-4.4-0.9c-0.7-0.2-1.4-0.6-1.8-1.3c-0.4-0.7-0.6-1.5-0.4-2.2c0.3-1.4,1.4-2.4,2.8-2.4c0.2,0,0.4,0,0.6,0.1
		c0.3,0.1,0.5,0.1,0.8,0.2c0.7,0.2,2,0.4,2.4,0.5c0.1,0,0.2,0,0.3,0c0.9,0,0.9,0,1.2-1.2c0-0.1,0.1-0.3,0.1-0.4
		c1.3-5.3,5.1-9.4,10.3-11.3c1.3-0.5,3.3-0.9,5.6-0.9c2,0,4.7,0.4,6.4,1.8c2.9,2.4,2.9,6,2.7,7.9c-0.3,2.2-1.7,7.5-8.9,9.6
		c-2.2,0.7-4.8,1-8.5,1.1c-0.5,0-1,0-1.2,0.3c-0.2,0.5,0.3,1.2,0.3,1.2c0.8,1.4,2.7,3.6,6.6,3.6c0.7,0,1.4-0.1,2.2-0.2
		c3.5-0.6,6.5-2.5,9-4.4c1.9-1.5,4.2-3.8,5.3-5c0.1-0.1,0.3-0.4,0.6-0.9c0.1-0.3,0.2-0.6,0.2-0.9c0-0.4,0-0.8-0.1-1.3
		c-0.1-0.3-0.9-5.7-1-6.2c-0.5-3.9-0.6-7.1-0.6-9.1c0-0.1,0.1-10.2,6.2-12.5c0.1,0,0.9-0.3,2.2-0.3c2.2,0,4.1,0.8,5.4,2.3
		c2.8,3.2,2.7,7,2.3,9.8c-1,6.9-3.4,13.1-7.2,18.4c-0.7,0.9-0.5,1.9-0.4,2c0.5,1.8,1,3.8,1.6,5.6c0,0.1,0.7,2.1,2.2,2.2
		c1.2,0,3.5-3.5,3.5-3.5c0.1-0.2,5.2-7.7,5.8-15c0-0.1,0.1-1.3-0.1-3c0,0-0.2-1.7,0.6-2.7c0.4-0.5,1.1-0.8,1.9-0.8
		c2.9,0,3.2,3.4,3.2,3.6c0,0.3,0,0.6,0.1,0.9c0.1,1,0.8,10,1.2,13.7c0,0.1,0.9,7.9,7,7.9c0.1,0,0.3,0,0.6,0c3.7,0,5.9-1.5,5.9-4
		c0-0.4,0-2-3.3-3.7c-1-0.5-3.2-1.8-4.2-2.7c0,0-0.2-0.2-0.2-0.2c-4-3.4-2.8-7.1-2.3-8.1c1.7-3.5,5.7-5.8,12-6.8
		c3-0.5,5.8-0.5,7.2-0.5c0.5,0,0.8,0,0.9,0c17.2,0,21,6.2,21.6,7.5c0.4,0.9,0.8,1.8,1.1,2.8c0.2,0.7,0.2,1,1.2,1
		c0.5,0,0.9,0.1,1.3,0.1c0.9,0.1,1.5,0.1,3.1,0.4c0.7,0.1,1.3,0.6,1.7,1.2c0.4,0.7,0.6,1.5,0.4,2.3c-0.3,1.3-1.5,2.3-2.9,2.3
		c-0.2,0-0.4,0-0.6-0.1c-1-0.2-1.4-0.2-1.9-0.3c-0.1,0-0.3,0-0.5,0c-0.1,0-0.1,0-0.2,0c-1,0-1.1,0.2-1.2,1c-0.2,1-0.4,1.9-0.8,2.8
		c-1.7,4.4-5.2,7.9-9.7,9.6C100.9,46.4,99,46.7,96.4,46.8L96.4,46.8z M105.3,32.4c-5.9,0.1-9,0.9-10.6,2.6c-0.7,0.8-1.2,1.7-1.3,2.9
		c0,0-0.1,1.1,0.5,2c0.4,0.6,1.1,0.9,2,0.9c0,0,0.1,0,0.2,0c1.3,0,7.9-0.3,10.3-6.6c0-0.1,0.4-1,0.1-1.5
		C106.4,32.4,105.9,32.4,105.3,32.4C105.3,32.4,105.3,32.4,105.3,32.4L105.3,32.4z M23.9,21c-1.8,0-3.4,0.7-3.4,0.7
		c-3.1,1.3-5.3,3.4-6.3,6.2c0,0.1-0.5,1.2-0.2,1.6c0.2,0.3,0.7,0.3,1.2,0.3h0.1c5.3-0.1,9.2-0.7,11-2.9c0.1-0.1,1.6-1.9,1.4-3.5
		c-0.1-0.6-0.4-1.2-0.9-1.6C25.9,21.3,25,21,23.9,21L23.9,21z M42.8,12.9c0,1.8,0.1,4.5,0.4,7.2c0.2,1.4,0.3,2.3,0.4,2.7
		c0,0.2,0.1,0.2,0.1,0.2c0.1,0,0.1,0,0.2-0.1c0.4-0.4,0.9-1.8,1.2-2.6c1.1-2.8,1.9-5.8,2.4-9c0.1-0.4,0.5-3.9-0.5-5.3
		c-0.3-0.4-0.6-0.7-1-0.8c0,0-0.1,0-0.3,0c-0.8,0-2.7,0.6-2.9,5.1C42.9,10.3,42.8,12.4,42.8,12.9L42.8,12.9z"/>
</g>
</svg>
