<?xml version="1.0" encoding="utf-8"?>
<!-- Generator: Adobe Illustrator 25.0.0, SVG Export Plug-In . SVG Version: 6.00 Build 0)  -->
<svg version="1.1" id="layer" xmlns="http://www.w3.org/2000/svg" xmlns:xlink="http://www.w3.org/1999/xlink" x="0px" y="0px"
	 viewBox="0 0 501 501" style="enable-background:new 0 0 501 501;" xml:space="preserve">
<style type="text/css">
	.st0{fill:#11A63C;}
	.st1{fill:#F9B000;}
	.st2{fill:#009D7F;}
	.st3{fill:#253488;}
	.st4{fill:#009FE3;}
	.st5{fill:#E6007E;}
	.st6{fill:#922885;}
	.st7{fill:#E41F13;}
	.st8{fill:#E94F0E;}
	.st9{fill:#EC6408;}
	.st10{fill:none;}
	.st11{fill:#EB5B25;}
</style>
<g id="Layer_2_1_">
	<g id="Layer_1-2">
		<path class="st0" d="M346.2,366.5l20.6,28.5c29.1-19.2,52.8-45.5,69-76.4h-41.7C381.4,337.6,365.2,353.9,346.2,366.5z"/>
		<path class="st1" d="M326.1,339.3c9.4-5.8,18-12.8,25.6-20.7h-40.3L326.1,339.3z"/>
		<path class="st2" d="M386.3,421.7l20.8,28.6c42.8-33.5,73.9-79.6,89.1-131.7h-26C452.8,360.3,423.6,396.2,386.3,421.7z"/>
		<path class="st3" d="M126.6,64.3l-20.8-28.6c-44,29-77.4,71.4-95.3,120.9l33.4,10.8C59.8,125.1,88.8,89,126.6,64.3z"/>
		<path class="st4" d="M208.5,177.1l-20.1-27.6c-15.4,8.6-28.1,21.3-36.8,36.6h43.2C198.9,182.5,203.5,179.4,208.5,177.1z"/>
		<path class="st0" d="M111.7,186.1c10.9-27.4,30.5-50.5,55.8-65.7L147,92.3c-31.9,20.4-56.3,50.6-69.5,86.1l23.8,7.8L111.7,186.1
			L111.7,186.1z"/>
		<path class="st5" d="M260,461h-9.8v39.5h9.8c53.2,0.2,105-17.4,147-50.1l-20.8-28.6C349.1,447.2,305.1,460.9,260,461z"/>
		<path class="st0" d="M259.3,323.8c-3.1,0-6,0-8.9,0v34c3.2,0,6.4,0,9.8,0c23.3,0.1,46.1-6.3,66-18.5l-15-20.7h-21
			C280.1,322,269.8,323.8,259.3,323.8z"/>
		<path class="st6" d="M260,392.3h-9.8v33.9h9.8c37.9,0.1,75.1-10.9,106.8-31.6l-20.6-28.5C320.8,383.2,290.8,392.3,260,392.3z"/>
		<path class="st7" d="M40.1,318.6H3.7c15.7,51.9,47.9,97.3,91.8,129.2l21.2-29.9C81.5,393.6,54.8,358.9,40.1,318.6z"/>
		<path class="st8" d="M162.9,318.6c4.8,5.3,10.1,10.1,15.8,14.4l10.4-14.4H162.9z"/>
		<path class="st6" d="M118.9,318.6H78.6c12.7,28.6,32.9,53.2,58.4,71.3l20.6-28.5C142,349.9,128.8,335.4,118.9,318.6z"/>
		<path class="st1" d="M228.3,104.2c7.3,0,14.7,0.4,22,1.3V70.7c-7.3-0.8-14.6-1.2-22-1.2c-28.7-0.2-56.9,7.6-81.4,22.7l20.6,28.2
			C185.9,109.7,206.9,104.1,228.3,104.2z"/>
		<path class="st9" d="M228.3,35c7.6,0,14.9,0.3,22,1V1.3l-22-0.8c-43.4-0.4-86,11.9-122.6,35.2l20.8,28.6
			C157,45,192.3,34.8,228.3,35z"/>
		<path class="st8" d="M228.3,0.5l22,0.8C243.1,0.7,235.8,0.5,228.3,0.5z"/>
		<path class="st0" d="M231.3,172.1c6.4,0,12.8,0.8,19,2.3v-34.2c-6.3-1-12.7-1.4-19.1-1.4c-14.9-0.1-29.6,3.6-42.7,10.7l20.1,27.6
			C215.7,173.8,223.5,172.1,231.3,172.1z"/>
		<path class="st4" d="M77.5,178.4c-1,2.6-1.9,5.1-2.8,7.8h26.6L77.5,178.4z"/>
		<path class="st5" d="M43.6,167.4l-33.4-10.8c-3.5,9.6-6.5,19.5-8.9,29.5h36C39.1,179.8,41.3,173.5,43.6,167.4z"/>
		<path class="st0" d="M116.8,417.9l-21.5,29.5c45.1,32.8,99.2,51.1,154.9,52.5v-39.1C202.5,459.8,156.1,444.9,116.8,417.9z"/>
		<path class="st6" d="M226.7,318.6h-37.6L178.7,333c20.8,15.3,45.7,24,71.5,25v-34.6C242.3,322.8,234.3,321.2,226.7,318.6z"/>
		<path class="st9" d="M158,361.4l-20.6,28.4c33.3,22.9,72.5,35.6,112.9,36.4v-34.1C217.2,391.2,185.1,380.5,158,361.4z"/>
		<path class="st9" d="M491.8,156.1l-11.4,3.8c2.3,8.8,4.1,17.6,5.4,26.3h14.7C498.1,175.9,495.2,165.9,491.8,156.1z"/>
		<path class="st1" d="M421.2,186.1H457c-1-5.8-2.2-11.7-3.7-17.5l-33.3,10.9C420.4,181.7,420.8,183.9,421.2,186.1z"/>
		<path class="st4" d="M419.8,179.4l33.4-10.9c-11-45-35.8-85.3-71-115.5l-21,28.9C390.3,107.6,410.8,141.7,419.8,179.4z"/>
		<path class="st6" d="M432,57.3c22,31,38.3,65.8,48.2,102.5l11.4-3.8C478.5,119.5,458.2,85.9,432,57.3z"/>
		<path class="st7" d="M315.8,186.1c-3.7-7.9-8.7-15.1-14.7-21.3L285.6,186L315.8,186.1z"/>
		<path class="st9" d="M352,186.1h34.6c-7-29.7-22.8-56.6-45.4-77.1l-19.7,27.2C336,149.7,346.6,167,352,186.1z"/>
		<path class="st6" d="M250.3,1.3V36c40.9,3.1,79.8,19.2,110.9,45.9l21-28.9C344.9,22.2,298.6,4,250.3,1.3z"/>
		<path class="st1" d="M273,186.1h12.5l15.5-21.3c-13.7-13.7-31.4-22.4-50.6-25V174C258.8,176.2,266.5,180.4,273,186.1z"/>
		<path class="st7" d="M321.5,136.4l19.8-27.5c-25.5-22.2-57.3-35.7-91-38.5v34.7C276.8,107.8,301.8,118.7,321.5,136.4z"/>
		<path class="st3" d="M61.4,276.8c-4.1,12.6-16.1,20.9-29.3,20.3c-18.9,0-31.6-14.4-31.6-36s13.2-36.7,32-36.7
			c11.4-0.4,21.9,6.3,26.5,16.7c2.8,6.5,4,13.6,3.8,20.6H12.7c-0.4,5.5,0.5,11.1,2.8,16.1c3.5,6.5,10.3,10.6,17.7,10.5
			c5.7,0.1,11.2-2.4,14.9-6.8c1.6-2.1,2.8-4.4,3.8-6.8L61.4,276.8z M50.6,253.7c0.3-4.9-1.1-9.8-3.9-13.8c-3.3-4.8-8.8-7.5-14.6-7.3
			c-5.7,0-11.1,2.6-14.6,7.2c-3.1,4-4.8,8.8-4.9,13.9L50.6,253.7L50.6,253.7z"/>
		<path class="st3" d="M102.9,295.2H91.7l-24.5-69.4h11.7L98.1,282l19.2-56.2h9.5L102.9,295.2z"/>
		<path class="st3" d="M191.8,276.8c-4.1,12.6-16.1,20.9-29.3,20.3c-19,0-31.6-14.4-31.6-36s13.2-36.7,32-36.7
			c11.4-0.4,21.9,6.3,26.5,16.7c2.8,6.5,4,13.6,3.8,20.6h-50.8c-0.4,5.5,0.5,11.1,2.8,16.1c3.5,6.5,10.3,10.6,17.7,10.5
			c5.7,0.1,11.2-2.4,14.9-6.8c1.6-2.1,2.8-4.4,3.8-6.8L191.8,276.8z M181.3,253.7c0.3-4.9-1.1-9.8-3.9-13.8
			c-3.3-4.8-8.8-7.5-14.6-7.3c-5.7,0-11.1,2.6-14.6,7.2c-3.1,4-4.8,8.8-4.9,13.9L181.3,253.7L181.3,253.7z"/>
		<path class="st3" d="M313.6,296.4c-3.3,0.6-6.7,0.8-10.1,0.8c-13.2,0-19.9-7-19.9-21v-42h-12.2v-8.3h12.2l0.8-16.7h10.1v16.7h14.9
			v8.3h-15.3v43.3c-0.6,5.4,3.2,10.2,8.6,10.8c0.9,0.1,1.7,0.1,2.6,0c2.8,0,5.6-0.3,8.3-0.8L313.6,296.4z"/>
		<rect x="324" y="208.7" class="st3" width="11.6" height="11.9"/>
		<rect x="324.4" y="234.7" class="st3" width="10.8" height="60.6"/>
		<path class="st3" d="M382,295.2h-11.2l-24.7-69.4H358l19.2,56.2l19-56.2h9.5L382,295.2z"/>
		<path class="st3" d="M488.4,295.2v-86.1h10.8v86.1H488.4z"/>
		<path class="st3" d="M469.5,281.8v-29.3c0.8-7.1-0.8-14.2-4.6-20.2c-5.4-6.1-13.4-9.2-21.5-8.3c-9.3-0.8-18.6,2.2-25.6,8.3
			c-2.9,2.9-4.7,6.7-5.2,10.8h10.3c2.3-7.3,8.3-10.8,18.6-10.8c8.3,0,14.2,2.8,16.1,8.3c1.3,3.8,1.8,7.9,1.4,11.9h-8.9
			c-9.3-0.5-18.6,1.1-27.2,4.8c-10.3,5.4-14.3,18.2-8.9,28.5c4,7.5,12.1,12,20.6,11.2c10.3,0.8,20-4.9,24.2-14.3
			c0.1,4.2,0.5,8.3,1.3,12.4h10.7C469.8,290.8,469.3,286.3,469.5,281.8z M437.3,288.8c-9.1,0-15-4.8-15-12.4
			c0-10.3,9.9-16.1,26.9-16.1h9.9v4.5c0.7,12.5-8.9,23.2-21.4,23.9C437.5,288.8,437.4,288.8,437.3,288.8L437.3,288.8z"/>
		<polygon class="st10" points="207.7,234.1 219.3,250.1 219.3,250.1 		"/>
		<polygon class="st10" points="207.7,263.9 218.5,267.4 218.5,267.4 		"/>
		<path class="st5" d="M207.7,263.9l10.8,3.5v-10.2c0-2.4,0.3-4.8,0.8-7.2l-11.6-15.9C207.8,234.1,207.8,263.9,207.7,263.9z"/>
		<polygon class="st7" points="252.1,278.4 252.1,295.2 252.1,295.2 262.2,295.2 262.2,281.6 		"/>
		<path class="st4" d="M217.5,239v-13.1h-9.9v8.3l11.6,16c1.3-8.6,8.1-15.4,16.7-16.7v-9C228.8,225.4,223.9,229.5,217.5,239z"/>
		<path class="st6" d="M262.2,255.3c0.2-5.5-0.2-10.9-1.4-16.3l-8.3,11.9v16.7l10.1-3.3L262.2,255.3z"/>
		<path class="st11" d="M252.1,295.2L252.1,295.2L252.1,295.2z"/>
		<polygon class="st4" points="262.2,281.6 252.1,278.4 252.1,278.4 		"/>
		<polygon class="st4" points="262.2,264.6 252.1,267.9 252.1,278.4 262.2,281.6 		"/>
		<path class="st7" d="M260,236.8c-3.7-7.8-11.8-12.7-20.5-12.4H236v9.1h1.5c9.5,0,14.6,5.9,14.6,17.2l0,0l8.3-11.9
			C260.3,238.1,260.2,237.4,260,236.8z"/>
		<polygon class="st0" points="207.7,282.3 218.5,278.8 218.5,267.4 207.7,263.9 		"/>
		<polygon class="st7" points="207.7,295.2 218.5,295.2 218.5,278.8 207.7,282.3 		"/>
		<line class="st10" x1="262.2" y1="281.6" x2="252.1" y2="278.4"/>
	</g>
</g>
</svg>
