<svg xmlns="http://www.w3.org/2000/svg" viewBox="0 0 57.02 79.39"><defs><style>.cls-1{fill:#241c1e;}</style></defs><g id="Layer_2" data-name="Layer 2"><g id="Layer_1-2" data-name="Layer 1"><path class="cls-1" d="M6.86,3.83H11V28c0,6.39-5.53,11-9.79,11H0V35.5a13.77,13.77,0,0,0,4.2.57c1.61,0,2.66-.33,2.66-1.55Z"/><path class="cls-1" d="M23.45,0H27.6V24.79c0,4-3,5.53-6.58,5.53-3.82,0-5.92-1.27-5.92-4.8V0h4.15V24.13c0,2.95,1.1,3.4,2.43,3.4s1.77-.9,1.77-2.33Z"/><path class="cls-1" d="M31,32.78a39.52,39.52,0,0,1,.61-7.87h4c-2.49,3.53-3.54,6.07-3.54,7.38s1.05,1.51,3.76,1.51c1.82,0,2.27-.81,2.27-1.88,0-5.41-7.36-17.44-7.36-23.34,0-3.64,2.93-5.16,6.42-5.16,2.87,0,4.26,1.27,4.26,3.81a36.28,36.28,0,0,1-.61,7.46H37.17c2.49-4.47,3.21-5.94,3.21-7s-.89-1.43-3.21-1.43c-1.83,0-2.27.81-2.27,1.88,0,4.63,7.36,18.71,7.36,23.46,0,3.52-2.94,5-6.42,5C32.58,36.59,31,35.32,31,32.78Z"/><polygon class="cls-1" points="43.69 7.66 57.02 7.66 57.02 10.32 52.43 10.32 52.43 40.42 48.28 40.42 48.28 10.32 43.69 10.32 43.69 7.66"/><polygon class="cls-1" points="6.86 46.91 6.86 59.49 10.79 59.49 10.79 60.39 6.86 60.39 6.86 74.16 2.71 74.16 2.71 44.25 12.28 44.25 12.28 46.91 6.86 46.91"/><polygon class="cls-1" points="19.14 36.59 19.14 66.5 14.99 70.33 14.99 36.59 19.14 36.59"/><polygon class="cls-1" points="27.1 40.42 27.1 67.67 33.08 67.67 33.08 70.33 22.95 70.33 22.95 36.59 27.1 40.42"/><polygon class="cls-1" points="48.45 44.25 51.94 44.25 56.33 74.16 52.07 74.16 48.95 52.77 48.34 52.77 44.8 72.11 43.53 72.11 38.94 52.77 38.38 52.77 39.88 79.39 35.51 79.39 36.06 44.25 40.21 44.25 44.63 63.63 45.24 63.63 48.45 44.25"/></g></g></svg>