<?xml version="1.0" encoding="utf-8"?>
<!-- Generator: Adobe Illustrator 25.0.0, SVG Export Plug-In . SVG Version: 6.00 Build 0)  -->
<svg version="1.1" id="Layer_1" xmlns="http://www.w3.org/2000/svg" xmlns:xlink="http://www.w3.org/1999/xlink" x="0px" y="0px"
	 viewBox="0 0 800 140" style="enable-background:new 0 0 800 140;" xml:space="preserve">
<style type="text/css">
	.st0{fill:#F79433;}
	.st1{fill:#0019AF;}
	.st2{fill:#003C5A;}
	.st3{fill-rule:evenodd;clip-rule:evenodd;fill:#ED7703;}
</style>
<g>
	<g>
		<path d="M41.3,130.6c-0.4-1.4-0.9-2.9-1.3-4.3c-0.4-1.4-0.9-2.8-1-4.2c-0.1-1.1,0.2-2.1,0.9-3c0.4-0.5,0.8-0.9,1.2-1.4
			c1.5-2,1.9-4.4,2.2-6.8c0.1-1,0-2,0-3c0-0.2,0.1-0.5-0.2-0.6c-0.2-0.1-0.3,0.2-0.5,0.3c-0.4,0.6-0.8,1.1-1.3,1.6
			c-1.2,1.2-2.4,2.5-3.6,3.8c-0.9,1-1.9,2-2.9,2.8c-0.9,0.8-1.8,1.6-2.5,2.7c-0.9,1.5-1.8,3-2.7,4.5c-0.9,1.5-1.4,3-1.4,4.8
			c-0.1,1.4,0,2.7,0.3,4c0.1,0.2,0.1,0.5,0.2,0.7c4.6,2.4,9.6,4.2,15.1,5.3c-0.4-1.1-0.8-2.2-1.2-3.3
			C42.2,133.3,41.7,132,41.3,130.6"/>
		<path d="M77.3,127c-0.3-1.5-0.5-3-0.8-4.5c-0.3-2.3-0.7-4.6-0.9-6.9c-0.2-2.4-0.6-4.8-0.7-7.3c0-1.1-0.3-2.2-0.3-3.4
			c-0.1-1-0.4-1.3-1.2-1c-1.3,0.5-2.7,0.6-4.1,1c-0.6,0.2-1.3,0.2-1.9,0.3c-1.8,0.5-3.6,0.5-5.4,0.7c-1.5,0.1-3,0.1-4.5,0.1
			c-0.3,0-0.6,0.1-0.7,0.5c-0.4,1.7-1.5,2.9-2.5,4.1c-0.8,0.9-1.5,1.9-2.3,2.8c-1.1,1.5-2.2,3.1-3.2,4.7c-0.8,1.2-1.7,2.3-2.1,3.8
			c-0.2,0.6-0.3,1.3-0.5,2c-0.3,1.2-0.3,2.4,0.1,3.7c0.2,0.8,0.5,1.6,0.7,2.5c0.4,1.6,1.1,3.2,1.5,4.8c0.1,0.2,0.2,0.4,0.3,0.4
			c0.6,0.2,1,0.5,1.6,0.7c1,0.4,1.9,1,2.4,2c0.2,0.4,0.2,0.8,0.1,1.1H53c8.4,0.3,16.7-1,24.7-3.7c0-1.7-0.1-3.5-0.1-5.3
			C77.6,129,77.5,128,77.3,127"/>
		<path d="M81.6,1C45.3-0.5,9.5,29.2,1.6,67.3c-5.5,26.4,3.9,49.9,22.2,62.3c-0.1-0.6-0.1-1.1-0.2-1.7c-0.3-1.8-0.3-3.6-0.3-5.5
			c0-0.5,0.1-0.9,0.3-1.4c0.4-0.9,0.9-1.7,1.4-2.5c0.6-1.1,1.2-2.2,1.9-3.2c1-1.4,1.7-3,2.3-4.6c0.4-1.1,0.6-2.1,0.9-3.2
			c0.3-1.3,0.5-2.6,0.4-3.9s-0.2-2.5-0.4-3.8c0,0-0.9-4.1-0.9-9.6c-0.7,1.4-1.4,3.8-2,6.6c-1.4,5.8-2.6,13.2-3.1,15.5
			c-0.9,4.1-0.8,4.1-1.8,4.2c-0.4,0.1-0.8-0.4-1-1.3c-0.6-2.9-6.1-10.1,0.4-26.1s16.4-22,28.5-23.5s25.2,0.1,27.9-4.7
			c2.3-4,5.5-9.5,6.8-11.8c0.2-0.3,0-1-0.2-1.5c-1.5-5,0.8-12.3,1.6-12.2c0.8,0.1,5.3,6.7,5.7,6.2c0.2-0.3,2.7-0.6,5.2-0.6
			s5,0.3,5.2,0.6c0.3,0.5,4.9-6,5.7-6.2c0.8-0.1,3,7.2,1.6,12.2c-0.1,0.5-0.2,1-0.2,1.5c0,0.9,0.2,1.7,0.5,2.5
			c0.4,1.2,2,8.5,1.1,15.7c-0.8,7.3-4.2,11-4.5,11.8s-0.3,6.1-2.7,10.8c0,0.2-0.1,0.4-0.1,0.6c-0.3,1.5-0.8,3-1.4,4.4
			c-0.3,0.7-0.5,1.4-0.8,2c-0.4,0.8-0.8,1.7-1.3,2.5c-0.9,1.6-2,3-3.1,4.4c-0.9,1.1-1.9,2.3-2.3,3.8c-0.1,0.2-0.1,0.5-0.3,0.6
			c-0.6,0.6-0.8,1.4-0.9,2.2c-0.1,1.1-0.4,2.2-0.7,3.3c-0.3,1.3-0.4,2.6-0.8,3.8c-0.2,0.7-0.1,1.4-0.3,2.1c-0.4,1.5-0.5,3.1-0.7,4.7
			c-0.1,1.6-0.3,3.3-0.2,5c20.7-11.6,37.1-32.5,42.2-56.8C141,34.5,117.9,2.4,81.6,1"/>
		<path d="M84.7,128.6c0-2.5,0.1-5,0.1-7.5c0-1.5,0.3-2.9,0.4-4.4c0.1-1.6,0.4-3.2,0.6-4.9c0.1-0.5,0.4-0.9,0.3-1.5
			c0-0.7,0.2-1.3,0.4-1.9c0.3-1.3,0.6-2.6,1.1-3.8c0.2-0.5,0.3-1,0.2-1.6c-0.3,0.5-0.5,0.8-0.7,1.2c-0.6,1-1,2-1.4,3.1
			c-0.4,1.2-0.8,2.3-1,3.5c-0.3,1.5-0.5,3-0.6,4.5c-0.1,1.3-0.3,2.5-0.4,3.8c-0.1,2.4-0.3,4.9-0.4,7.3c-0.1,2.3-0.3,4.5,0,6.8
			c0.4-0.2,0.9-0.4,1.3-0.6c-0.1-0.6-0.2-1.1-0.2-1.7C84.4,130.2,84.7,129.4,84.7,128.6"/>
	</g>
	<g>
		<path d="M193.9,32.2c15.1,0,21.1,10.5,21.1,21.4c0,10.8-7.8,21.4-21.6,21.4H180v24.5h-15.5V32.2H193.9z M180.1,61.1h11.4
			c5.8,0,8.1-3.4,8.1-7.5s-2.1-7.5-8.1-7.5h-11.4V61.1z"/>
		<path d="M249,100.1c-14,0-26.4-7.2-26.4-22V52.9c0-14.7,13.7-21.4,26.4-21.4c12.9,0,26.4,7.1,26.4,21.9v24.8
			C275.3,92.9,263.1,100.1,249,100.1z M239.6,12.6c4.2,0,7.6,3.3,7.6,7.5s-3.4,7.6-7.6,7.6c-4.2,0-7.5-3.4-7.5-7.6
			S235.4,12.6,239.6,12.6z M259.7,56.3c0-7.7-5.7-10.5-10.7-10.5c-5.1,0-10.8,2.8-10.8,10.5v19c0,7.7,5.8,10.5,10.8,10.5
			c5.1,0,10.7-2.8,10.7-10.5V56.3z M259,12.6c4.2,0,7.5,3.3,7.5,7.5s-3.3,7.6-7.5,7.6c-4.2,0-7.6-3.4-7.6-7.6S254.8,12.6,259,12.6z"
			/>
		<path d="M299.7,59.3h26.8v13.8h-26.8v26.4h-15.5V32.2h47V46h-31.4v13.3H299.7z"/>
		<path d="M354,59.3h26.8v13.8H354v26.4h-15.5V32.2h47V46h-31.4v13.3H354z"/>
		<g>
			<path d="M423.1,71.3c-4.5,3.7-13.8,9.1-15.2,15.2h28.2v13h-43.2V90c0-11.2,6.8-19.1,13.9-24.6c7.2-5.4,14.4-9.4,14.4-14.6
				c0-3.1-2.5-5.7-7.9-5.7c-4,0-8.7,1.4-12.5,4.7l-7.6-11.7c5.3-4.7,13.2-7,21.2-7c10.5,0,21.9,4.6,21.9,19.6
				C436.4,60,428.9,66.5,423.1,71.3z"/>
			<path d="M487.2,90v9.4h-14.6V90h-27.7V78.5l21.3-46.7h15.4L461,77.1h11.6V58.3h14.6v18.8h5.4V90H487.2z"/>
		</g>
	</g>
	<g>
		<path class="st0" d="M168.5,134.5v-14.8l-2,1.6l-2-2.6l4.3-3.7h3.3v19.5H168.5z"/>
		<path class="st0" d="M190.9,120.2c0,1.9-1,3.5-2.5,4.2c1.7,0.7,2.6,2.4,2.6,4.3c0,4.3-3.4,6.1-6.4,6.1c-2.3,0-4.5-0.7-5.9-2
			c0.1-0.2,1.7-2.6,1.9-2.9c1,0.9,2.6,1.4,3.8,1.4c1.8,0,2.9-1,2.9-2.6c0-1.5-1.1-2.6-2.6-2.6h-2.3V123h2.3c1.3,0,2.5-1,2.5-2.5
			c0-1.6-1.5-2.2-2.7-2.2s-2.7,0.5-3.8,1.4l-1.9-2.9c1.4-1.3,3.6-2,5.9-2C187.9,114.8,190.9,116.4,190.9,120.2z"/>
		<path class="st0" d="M202.4,128.8v-3.2h9.3v3.2H202.4z"/>
		<path class="st0" d="M231.4,126.2c-1.6,1.2-4.4,2.8-4.7,5.1h8.5v3.2H223v-2.8c0-3.2,2.1-5.3,4.3-6.9c2.1-1.5,4.2-2.9,4.2-4.5
			c0-1.3-1.3-2.1-2.7-2.1c-1.3,0-2.7,0.5-3.7,1.4l-1.9-2.9c1.4-1.3,3.5-2,5.8-2c3.1,0,6.3,1.4,6.3,5.5
			C235.2,122.9,233.1,124.8,231.4,126.2z"/>
		<path class="st0" d="M250.9,129.3c0,3.6-3,5.4-6.2,5.4c-2.4,0-4.3-0.7-5.8-2l1.9-2.9c1.2,1.1,2.5,1.4,3.7,1.4
			c1.1,0,2.7-0.7,2.7-2.5v-2.3c-1.7,0.8-2.7,1.1-3.7,1.1c-3,0-4.9-2.2-4.9-5.3v-2c0-3.6,2.9-5.5,6.1-5.5c3.4,0,6.1,2,6.1,5.6
			L250.9,129.3L250.9,129.3z M244.8,118.2c-1.2,0-2.5,0.7-2.5,2.5v1.3c0,1.5,0.9,2,1.8,2c0.9,0,1.9-0.4,3.1-1.1v-2.3
			C247.2,118.9,245.9,118.2,244.8,118.2z"/>
		<path class="st0" d="M266.2,122.2v12.3h-3.9V115h3.5l4.5,6.7l3.7,5.7h0.1V115h3.9v19.5h-3.5l-5-7.4l-3.2-4.9H266.2z"/>
		<path class="st0" d="M289.4,134.7c-4.1,0-7.5-2.2-7.5-6.4v-7.2c0-4.2,3.6-6.3,7.5-6.3s7.5,2.3,7.5,6.4v7.1
			C297,132.5,293.6,134.7,289.4,134.7z M293,121.9c0-2.6-1.8-3.5-3.6-3.5c-1.8,0-3.6,1-3.6,3.5v5.7c0,2.6,1.8,3.5,3.6,3.5
			c1.8,0,3.6-1,3.6-3.5V121.9z"/>
		<path class="st0" d="M307.8,128.8l2-6.9l2-6.9h4.1l-6.2,19.5h-4l-6.3-19.5h4.2l2.1,7.1L307.8,128.8L307.8,128.8z"/>
		<path class="st0" d="M334.5,126.2c-1.6,1.2-4.4,2.8-4.7,5.1h8.5v3.2h-12.2v-2.8c0-3.2,2.1-5.3,4.3-6.9c2.1-1.5,4.2-2.9,4.2-4.5
			c0-1.3-1.3-2.1-2.7-2.1c-1.3,0-2.7,0.5-3.7,1.4l-1.9-2.9c1.4-1.3,3.5-2,5.8-2c3.1,0,6.3,1.4,6.3,5.5
			C338.3,122.9,336.2,124.8,334.5,126.2z"/>
		<path class="st0" d="M347.9,134.7c-2.8,0-6.1-1.6-6.1-5.2v-9.4c0-3.5,3.3-5.3,6.1-5.3c2.8,0,6.1,1.7,6.1,5.3v9.4
			C354,133,350.7,134.7,347.9,134.7z M350.4,120.8c0-1.8-1.3-2.5-2.5-2.5s-2.5,0.7-2.5,2.5v7.9c0,1.8,1.4,2.5,2.5,2.5
			c1.2,0,2.5-0.7,2.5-2.5V120.8z"/>
		<path class="st0" d="M366,126.2c-1.6,1.2-4.4,2.8-4.7,5.1h8.5v3.2h-12.2v-2.8c0-3.2,2.1-5.3,4.3-6.9c2.1-1.5,4.2-2.9,4.2-4.5
			c0-1.3-1.3-2.1-2.7-2.1c-1.3,0-2.7,0.5-3.7,1.4l-1.9-2.9c1.4-1.3,3.5-2,5.8-2c3.1,0,6.3,1.4,6.3,5.5
			C369.8,122.9,367.7,124.8,366,126.2z"/>
		<path class="st0" d="M379.3,134.7c-2.8,0-6.1-1.6-6.1-5.2v-9.4c0-3.5,3.3-5.3,6.1-5.3c2.8,0,6.1,1.7,6.1,5.3v9.4
			C385.5,133,382.2,134.7,379.3,134.7z M381.9,120.8c0-1.8-1.3-2.5-2.5-2.5s-2.5,0.7-2.5,2.5v7.9c0,1.8,1.4,2.5,2.5,2.5
			c1.2,0,2.5-0.7,2.5-2.5V120.8z"/>
	</g>
</g>
<g id="Layer_x0020_1">
	<path class="st1" d="M714.3,36.5c-2.6,0-4.5,2-4.6,4.6c0,2.9,2.2,5.5,5.1,6c0.1,0,0.4,0,0.6,0c2.6,0,4.5-2,4.6-4.6
		c0-2.9-2.2-5.5-5.1-6C714.6,36.5,714.4,36.5,714.3,36.5L714.3,36.5z M766.2,99.4c-2.9,0-6.8-0.4-9.3-2.5
		c-4.4-3.6-3.5-11.2-3.3-11.6c0.6-4.9,3.2-11.2,12.3-13.9c4.2-1.2,8.9-1.5,12-1.6l0,0c0.4,0,1.9,0,2-0.6c0.1-0.6-1.2-1.6-1.9-2.2
		c-2.5-1.7-8.6-4.6-22.2-4.6c0,0-1.3,0-1.9,0c-5.8,0-13.4,1-17.4,3.5c-0.9,0.4-1.5,1.2-1.5,1.9c-0.1,1.3,1.2,2.5,1.3,2.6l0,0
		c1.3,0.9,2.6,1.7,3.5,2.2l0.4,0.1c2.2,1,6.1,2.9,8,7c1,2.2,1.5,4.6,1.2,6.8c-1.5,12.6-15.7,12.8-16.3,12.8l0,0
		c-5.8,0-10.2-2.2-12.8-4.1c0,0-4.1-2.5-5.5-7.3c0-0.1-0.3-1-0.3-1.2c-0.1-0.7-0.6-2.3-1-2.3c-0.6,0-1.6,2-1.9,2.5
		c-0.7,1.2-1.5,2.8-1.7,3c-1.6,2.6-5.7,9.3-11.8,9.3c-1.6,0-3.2-0.4-4.9-1.3c-3.9-2.2-5.1-5.4-6.1-8.1c-0.3-0.7-0.4-1.5-0.7-2.2
		c-1-3-1.2-3-3.5-1c-2.2,1.9-4.2,3.9-6.1,5.2c-2.9,2.3-8.7,6.2-15.2,7.1c-1.6,0.1-3.2,0.3-4.8,0.3c-6.1,0-10.4-1.7-13.2-5.1
		c-2.2-2.6-3.9-6-5.1-9.6c-0.7-2.2-0.9-1.9-2.8-2.3c-2.2-0.4-3.8-0.7-6.4-1.3c-1-0.3-2-0.9-2.6-1.9c-0.6-1-0.9-2.2-0.6-3.2
		c0.4-2,2-3.5,4.1-3.5c0.3,0,0.6,0,0.9,0.1c0.4,0.1,0.7,0.1,1.2,0.3c1,0.3,2.9,0.6,3.5,0.7c0.1,0,0.3,0,0.4,0c1.3,0,1.3,0,1.7-1.7
		c0-0.1,0.1-0.4,0.1-0.6c1.9-7.7,7.4-13.6,14.9-16.4c1.9-0.7,4.8-1.3,8.1-1.3c2.9,0,6.8,0.6,9.3,2.6c4.2,3.5,4.2,8.7,3.9,11.5
		c-0.4,3.2-2.5,10.9-12.9,13.9c-3.2,1-7,1.5-12.3,1.6c-0.7,0-1.5,0-1.7,0.4c-0.3,0.7,0.4,1.7,0.4,1.7c1.2,2,3.9,5.2,9.6,5.2
		c1,0,2-0.1,3.2-0.3c5.1-0.9,9.4-3.6,13.1-6.4c2.8-2.2,6.1-5.5,7.7-7.3c0.1-0.1,0.4-0.6,0.9-1.3c0.1-0.4,0.3-0.9,0.3-1.3
		c0-0.6,0-1.2-0.1-1.9c-0.1-0.4-1.3-8.3-1.5-9c-0.7-5.7-0.9-10.3-0.9-13.2c0-0.1,0.1-14.8,9-18.1c0.1,0,1.3-0.4,3.2-0.4
		c3.2,0,6,1.2,7.8,3.3c4.1,4.6,3.9,10.2,3.3,14.2c-1.5,10-4.9,19-10.4,26.7c-1,1.3-0.7,2.8-0.6,2.9c0.7,2.6,1.5,5.5,2.3,8.1
		c0,0.1,1,3,3.2,3.2c1.7,0,5.1-5.1,5.1-5.1c0.1-0.3,7.5-11.2,8.4-21.8c0-0.1,0.1-1.9-0.1-4.4c0,0-0.3-2.5,0.9-3.9
		c0.6-0.7,1.6-1.2,2.8-1.2c4.2,0,4.6,4.9,4.6,5.2c0,0.4,0,0.9,0.1,1.3c0.1,1.5,1.2,14.5,1.7,19.9c0,0.1,1.3,11.5,10.2,11.5
		c0.1,0,0.4,0,0.9,0c5.4,0,8.6-2.2,8.6-5.8c0-0.6,0-2.9-4.8-5.4c-1.5-0.7-4.6-2.6-6.1-3.9l-0.3-0.3c-5.8-4.9-4.1-10.3-3.3-11.8
		c2.5-5.1,8.3-8.4,17.4-9.9c4.4-0.7,8.4-0.7,10.4-0.7c0.7,0,1.2,0,1.3,0c25,0,30.5,9,31.3,10.9c0.6,1.3,1.2,2.6,1.6,4.1
		c0.3,1,0.3,1.5,1.7,1.5c0.7,0,1.3,0.1,1.9,0.1c1.3,0.1,2.2,0.1,4.5,0.6c1,0.1,1.9,0.9,2.5,1.7c0.6,1,0.9,2.2,0.6,3.3
		c-0.4,1.9-2.2,3.3-4.2,3.3c-0.3,0-0.6,0-0.9-0.1c-1.5-0.3-2-0.3-2.8-0.4c-0.1,0-0.4,0-0.7,0c-0.1,0-0.1,0-0.3,0
		c-1.5,0-1.6,0.3-1.7,1.5c-0.3,1.5-0.6,2.8-1.2,4.1c-2.5,6.4-7.5,11.5-14.1,13.9C772.7,98.8,770,99.2,766.2,99.4L766.2,99.4z
		 M779.1,78.5c-8.6,0.1-13.1,1.3-15.4,3.8c-1,1.2-1.7,2.5-1.9,4.2c0,0-0.1,1.6,0.7,2.9c0.6,0.9,1.6,1.3,2.9,1.3c0,0,0.1,0,0.3,0
		c1.9,0,11.5-0.4,14.9-9.6c0-0.1,0.6-1.5,0.1-2.2C780.7,78.5,780,78.5,779.1,78.5L779.1,78.5L779.1,78.5z M661,61.9
		c-2.6,0-4.9,1-4.9,1c-4.5,1.9-7.7,4.9-9.1,9c0,0.1-0.7,1.7-0.3,2.3c0.3,0.4,1,0.4,1.7,0.4h0.1c7.7-0.1,13.4-1,16-4.2
		c0.1-0.1,2.3-2.8,2-5.1c-0.1-0.9-0.6-1.7-1.3-2.3C663.9,62.4,662.6,61.9,661,61.9L661,61.9z M688.4,50.2c0,2.6,0.1,6.5,0.6,10.4
		c0.3,2,0.4,3.3,0.6,3.9c0,0.3,0.1,0.3,0.1,0.3c0.1,0,0.1,0,0.3-0.1c0.6-0.6,1.3-2.6,1.7-3.8c1.6-4.1,2.8-8.4,3.5-13.1
		c0.1-0.6,0.7-5.7-0.7-7.7c-0.4-0.6-0.9-1-1.5-1.2c0,0-0.1,0-0.4,0c-1.2,0-3.9,0.9-4.2,7.4C688.6,46.4,688.4,49.4,688.4,50.2
		L688.4,50.2z"/>
</g>
<g>
	<g>
		<g>
			<g>
				<g>
					<polygon class="st2" points="627,118.6 627,118.6 624,118.6 624,128.3 618.9,118.6 615.1,118.6 615.1,132.9 615.1,132.9 
						615.1,132.9 618.1,132.9 618.1,123.2 623.2,132.9 627,132.9 					"/>
					<path class="st2" d="M634.5,133.2c-3,0-5.4-2-5.4-5.4c0-3.4,2.2-5.5,5.6-5.5c3.2,0,5.3,2.2,5.3,5.3
						C640,131.4,637.3,133.2,634.5,133.2L634.5,133.2L634.5,133.2z M634.6,130.8c1.3,0,2.1-1.3,2.1-3.1c0-1.5-0.6-3.1-2.1-3.1
						c-1.5,0-2.1,1.6-2.1,3.1C632.5,129.5,633.2,130.8,634.6,130.8L634.6,130.8z"/>
					<path class="st2" d="M642,125.9c0-1.5,0-2.5-0.1-3.4h2.8l0.1,1.9h0.1c0.5-1.5,1.8-2.2,2.8-2.2c0.3,0,0.5,0,0.7,0.1v3
						c-0.3,0-0.5-0.1-0.9-0.1c-1.2,0-2,0.6-2.2,1.6c0,0.2-0.1,0.5-0.1,0.7v5.3H642L642,125.9L642,125.9z"/>
					<path class="st2" d="M660,117.8v12c0,1.2,0,2.4,0.1,3.1h-2.9l-0.1-1.5h-0.1c-0.6,1.2-1.9,1.7-3.3,1.7c-2.5,0-4.5-2.1-4.5-5.4
						c0-3.5,2.2-5.5,4.7-5.5c1.3,0,2.3,0.5,2.8,1.2h0v-5.7H660z M656.8,126.9c0-0.2,0-0.4,0-0.6c-0.2-0.9-0.9-1.6-1.9-1.6
						c-1.5,0-2.2,1.3-2.2,3c0,1.7,0.9,2.9,2.2,2.9c0.9,0,1.7-0.6,1.9-1.6c0-0.2,0.1-0.5,0.1-0.7V126.9z"/>
					<rect x="662.6" y="122.5" class="st2" width="3.2" height="10.4"/>
					<rect x="662.6" y="117.8" class="st2" width="3.2" height="3.2"/>
					<path class="st2" d="M676.3,132.6c-0.6,0.3-1.7,0.5-2.9,0.5c-3.4,0-5.5-2.1-5.5-5.3c0-3,2.1-5.5,6-5.5c0.9,0,1.8,0.1,2.5,0.4
						l-0.5,2.4c-0.4-0.2-1-0.3-1.8-0.3c-1.7,0-2.8,1.2-2.8,2.9c0,1.9,1.3,2.9,2.9,2.9c0.8,0,1.4-0.1,1.9-0.3L676.3,132.6z"/>
					<path class="st2" d="M686.9,118.6v5.5h5.3v-5.5h3.2v14.4h-3.2v-6h-5.3v6h-3.2v-14.4H686.9z"/>
					<path class="st2" d="M703,133.2c-3,0-5.4-2-5.4-5.4c0-3.4,2.2-5.5,5.6-5.5c3.2,0,5.3,2.2,5.3,5.3
						C708.5,131.4,705.8,133.2,703,133.2L703,133.2L703,133.2z M703.1,130.8c1.3,0,2.1-1.3,2.1-3.1c0-1.5-0.6-3.1-2.1-3.1
						c-1.5,0-2.1,1.6-2.1,3.1C700.9,129.5,701.7,130.8,703.1,130.8L703.1,130.8z"/>
					<path class="st2" d="M714.1,119.7v2.8h2.3v2.4h-2.3v3.8c0,1.3,0.3,1.8,1.3,1.8c0.4,0,0.7,0,1-0.1l0,2.4
						c-0.4,0.1-1.2,0.3-2.1,0.3c-1,0-1.9-0.4-2.4-0.9c-0.6-0.6-0.9-1.6-0.9-3.1v-4.3h-1.4v-2.4h1.4v-2L714.1,119.7z"/>
					<path class="st2" d="M720.7,128.7c0.1,1.3,1.4,2,2.9,2c1.1,0,2-0.2,2.9-0.5l0.4,2.2c-1.1,0.4-2.4,0.7-3.8,0.7
						c-3.5,0-5.6-2-5.6-5.3c0-2.6,1.7-5.6,5.3-5.6c3.4,0,4.6,2.6,4.6,5.2c0,0.6-0.1,1-0.1,1.3L720.7,128.7L720.7,128.7z
						 M724.5,126.5c0-0.8-0.3-2.1-1.8-2.1c-1.4,0-1.9,1.3-2,2.1H724.5z"/>
					<path class="st2" d="M729.4,117.8h3.2v15.2h-3.2V117.8z"/>
					<path class="st2" d="M740.9,118.6h8.8v2.7h-5.5v3.3h5.2v2.6h-5.2v5.8h-3.2L740.9,118.6L740.9,118.6z"/>
					<path class="st2" d="M756.2,133.2c-3,0-5.4-2-5.4-5.4c0-3.4,2.2-5.5,5.6-5.5c3.2,0,5.3,2.2,5.3,5.3
						C761.7,131.4,759,133.2,756.2,133.2L756.2,133.2L756.2,133.2z M756.3,130.8c1.3,0,2.1-1.3,2.1-3.1c0-1.5-0.6-3.1-2.1-3.1
						c-1.5,0-2.1,1.6-2.1,3.1C754.2,129.5,754.9,130.8,756.3,130.8L756.3,130.8z"/>
					<path class="st2" d="M763.7,125.9c0-1.5,0-2.5-0.1-3.4h2.8l0.1,1.9h0.1c0.5-1.5,1.8-2.2,2.8-2.2c0.3,0,0.4,0,0.7,0.1v3
						c-0.3,0-0.5-0.1-0.9-0.1c-1.2,0-2,0.6-2.2,1.6c0,0.2-0.1,0.5-0.1,0.7v5.3h-3.2L763.7,125.9L763.7,125.9z"/>
					<path class="st2" d="M781.6,129.6c0,1.4,0,2.5,0.1,3.3h-2.8l-0.1-1.5h-0.1c-0.4,0.6-1.4,1.7-3.3,1.7c-2.1,0-3.7-1.3-3.7-4.5
						v-6.1h3.2v5.6c0,1.5,0.5,2.4,1.6,2.4c0.9,0,1.4-0.6,1.6-1.1c0.1-0.2,0.1-0.4,0.1-0.7v-6.2h3.2L781.6,129.6L781.6,129.6z"/>
					<path class="st2" d="M784.2,125.8c0-1.3,0-2.4-0.1-3.3h2.7l0.1,1.4h0.1c0.4-0.7,1.4-1.7,3.2-1.7c1.4,0,2.4,0.7,2.9,1.8h0
						c0.4-0.6,0.9-1,1.4-1.3c0.6-0.3,1.2-0.5,2-0.5c2,0,3.5,1.4,3.5,4.5v6.1h-3.2v-5.6c0-1.5-0.5-2.4-1.5-2.4
						c-0.8,0-1.3,0.5-1.5,1.1c-0.1,0.2-0.1,0.6-0.1,0.8v6.1h-3.2v-5.8c0-1.3-0.5-2.2-1.5-2.2c-0.8,0-1.3,0.6-1.5,1.2
						c-0.1,0.3-0.1,0.6-0.1,0.8v6.1h-3.2L784.2,125.8L784.2,125.8z"/>
				</g>
			</g>
		</g>
		<g>
			<path class="st3" d="M593.1,112.7L593.1,112.7L593.1,112.7c-2.6,0-4.9,0.9-6.9,2.2c0.7-0.3,2.4-0.7,3.8-0.6
				c1.5,0.1,2.6,1,2.4,2.7c-0.2,1.4-2.2,3.9-4,6.1c-0.3,0.3-0.5,0.6-0.5,0.6c0,0,0,0.1,0.1,0c0.1-0.1,0.4-0.3,0.6-0.5
				c3.7-3.4,6.2-5.4,8.3-5.3c1.2,0.1,1.7,1.3,1.6,2.5c0,0.6-0.2,1.2-0.5,1.9c-1.3,3-1.6,4.1-1.7,5.2c-0.1,0.4,0.3,0.4,0.4,0.4
				c0.2,0,0.9-0.4,0.3,0.2c-0.2,0.2-0.8,0.4-1.2,0.3c-1.3-0.2-2.9-1.1-2.8-2.9c0.1-1.4,1.9-4,2.7-5.6c0.1-0.2,0.2-0.4,0.2-0.6
				c0-0.2-0.1-0.3-0.2-0.3c-1.4-0.1-6.5,5.3-9.4,9.3c-0.2,0.3-0.1,0.6-0.3,0.6c-0.1,0-0.1,0-0.2-0.1c-1.1-0.6-1.9-1.9-2-3.3
				c0-0.5,0.1-1,0.3-1.4c1.5-3,6-7.2,6.2-8.7c0-0.4-0.1-0.6-0.7-0.6c-0.4,0-1.4,0.3-1.7,0.4c-2.3,0.7-4.5,2.6-5.3,3.8
				c-1.2,1.8-2,4.1-2,6.5c0.1,7.1,6,12.7,13,12.6l0,0c0,0,0,0,0,0c7.1-0.1,12.7-6,12.6-13C606,118.2,600.2,112.5,593.1,112.7z"/>
		</g>
	</g>
</g>
</svg>
