<?xml version="1.0" encoding="utf-8"?>
<!-- Generator: Adobe Illustrator 25.0.0, SVG Export Plug-In . SVG Version: 6.00 Build 0)  -->
<svg version="1.1" id="Layer_1" xmlns="http://www.w3.org/2000/svg" xmlns:xlink="http://www.w3.org/1999/xlink" x="0px" y="0px"
	 viewBox="0 0 1090 140" style="enable-background:new 0 0 1090 140;" xml:space="preserve">
<style type="text/css">
	.st0{fill:#29333A;}
	.st1{fill:#F79433;}
	.st2{fill:#0019AF;}
</style>
<g>
	<g>
		<g>
			<path class="st0" d="M43.3,130.6c-0.4-1.4-0.9-2.9-1.3-4.3c-0.4-1.4-0.9-2.8-1-4.2c-0.1-1.1,0.2-2.1,0.9-3
				c0.4-0.5,0.8-0.9,1.2-1.4c1.5-2,1.9-4.4,2.2-6.8c0.1-1,0-2,0-3c0-0.2,0.1-0.5-0.2-0.6c-0.2-0.1-0.3,0.2-0.5,0.3
				c-0.4,0.6-0.8,1.1-1.3,1.6c-1.2,1.2-2.4,2.5-3.6,3.8c-0.9,1-1.9,2-2.9,2.8c-0.9,0.8-1.8,1.6-2.5,2.7c-0.9,1.5-1.8,3-2.7,4.5
				s-1.4,3-1.4,4.8c-0.1,1.4,0,2.7,0.3,4c0.1,0.2,0.1,0.5,0.2,0.7c4.6,2.4,9.6,4.2,15.1,5.3c-0.4-1.1-0.8-2.2-1.2-3.3
				C44.2,133.3,43.7,132,43.3,130.6"/>
			<path class="st0" d="M79.3,127c-0.3-1.5-0.5-3-0.8-4.5c-0.3-2.3-0.7-4.6-0.9-6.9c-0.2-2.4-0.6-4.8-0.7-7.3c0-1.1-0.3-2.2-0.3-3.4
				c-0.1-1-0.4-1.3-1.2-1c-1.3,0.5-2.7,0.6-4.1,1c-0.6,0.2-1.3,0.2-1.9,0.3c-1.8,0.5-3.6,0.5-5.4,0.7c-1.5,0.1-3,0.1-4.5,0.1
				c-0.3,0-0.6,0.1-0.7,0.5c-0.4,1.7-1.5,2.9-2.5,4.1c-0.8,0.9-1.5,1.9-2.3,2.8c-1.1,1.5-2.2,3.1-3.2,4.7c-0.8,1.2-1.7,2.3-2.1,3.8
				c-0.2,0.6-0.3,1.3-0.5,2c-0.3,1.2-0.3,2.4,0.1,3.7c0.2,0.8,0.5,1.6,0.7,2.5c0.4,1.6,1.1,3.2,1.5,4.8c0.1,0.2,0.2,0.4,0.3,0.4
				c0.6,0.2,1,0.5,1.6,0.7c1,0.4,1.9,1,2.4,2c0.2,0.4,0.2,0.8,0.1,1.1H55c8.4,0.3,16.7-1,24.7-3.7c0-1.7-0.1-3.5-0.1-5.3
				C79.6,129,79.5,128,79.3,127"/>
			<path class="st0" d="M83.6,1c-36.3-1.5-72.1,28.2-80,66.3c-5.5,26.4,3.9,49.9,22.2,62.3c-0.1-0.6-0.1-1.1-0.2-1.7
				c-0.3-1.8-0.3-3.6-0.3-5.5c0-0.5,0.1-0.9,0.3-1.4c0.4-0.9,0.9-1.7,1.4-2.5c0.6-1.1,1.2-2.2,1.9-3.2c1-1.4,1.7-3,2.3-4.6
				c0.4-1.1,0.6-2.1,0.9-3.2c0.3-1.3,0.5-2.6,0.4-3.9c-0.1-1.3-0.2-2.5-0.4-3.8c0,0-0.9-4.1-0.9-9.6c-0.7,1.4-1.4,3.8-2,6.6
				c-1.4,5.8-2.6,13.2-3.1,15.5c-0.9,4.1-0.8,4.1-1.8,4.2c-0.4,0.1-0.8-0.4-1-1.3c-0.6-2.9-6.1-10.1,0.4-26.1s16.4-22,28.5-23.5
				s25.2,0.1,27.9-4.7c2.3-4,5.5-9.5,6.8-11.8c0.2-0.3,0-1-0.2-1.5c-1.5-5,0.8-12.3,1.6-12.2c0.8,0.1,5.3,6.7,5.7,6.2
				c0.2-0.3,2.7-0.6,5.2-0.6s5,0.3,5.2,0.6c0.3,0.5,4.9-6,5.7-6.2c0.8-0.1,3,7.2,1.6,12.2c-0.1,0.5-0.2,1-0.2,1.5
				c0,0.9,0.2,1.7,0.5,2.5c0.4,1.2,2,8.5,1.1,15.7c-0.8,7.3-4.2,11-4.5,11.8s-0.3,6.1-2.7,10.8c0,0.2-0.1,0.4-0.1,0.6
				c-0.3,1.5-0.8,3-1.4,4.4c-0.3,0.7-0.5,1.4-0.8,2c-0.4,0.8-0.8,1.7-1.3,2.5c-0.9,1.6-2,3-3.1,4.4c-0.9,1.1-1.9,2.3-2.3,3.8
				c-0.1,0.2-0.1,0.5-0.3,0.6c-0.6,0.6-0.8,1.4-0.9,2.2c-0.1,1.1-0.4,2.2-0.7,3.3c-0.3,1.3-0.4,2.6-0.8,3.8
				c-0.2,0.7-0.1,1.4-0.3,2.1c-0.4,1.5-0.5,3.1-0.7,4.7c-0.1,1.6-0.3,3.3-0.2,5c20.7-11.6,37.1-32.5,42.2-56.8
				C143,34.5,119.9,2.4,83.6,1"/>
			<path class="st0" d="M86.7,128.6c0-2.5,0.1-5,0.1-7.5c0-1.5,0.3-2.9,0.4-4.4c0.1-1.6,0.4-3.2,0.6-4.9c0.1-0.5,0.4-0.9,0.3-1.5
				c0-0.7,0.2-1.3,0.4-1.9c0.3-1.3,0.6-2.6,1.1-3.8c0.2-0.5,0.3-1,0.2-1.6c-0.3,0.5-0.5,0.8-0.7,1.2c-0.6,1-1,2-1.4,3.1
				c-0.4,1.2-0.8,2.3-1,3.5c-0.3,1.5-0.5,3-0.6,4.5c-0.1,1.3-0.3,2.5-0.4,3.8c-0.1,2.4-0.3,4.9-0.4,7.3c-0.1,2.3-0.3,4.5,0,6.8
				c0.4-0.2,0.9-0.4,1.3-0.6c-0.1-0.6-0.2-1.1-0.2-1.7C86.4,130.1,86.7,129.3,86.7,128.6"/>
		</g>
		<g>
			<path class="st0" d="M195.9,32.2c15.1,0,21.1,10.5,21.1,21.4c0,10.8-7.8,21.4-21.6,21.4H182v24.5h-15.5V32.2H195.9z M182.1,61.1
				h11.4c5.8,0,8.1-3.4,8.1-7.5s-2.1-7.5-8.1-7.5h-11.4V61.1z"/>
			<path class="st0" d="M251,100.1c-14,0-26.4-7.2-26.4-22V52.9c0-14.7,13.7-21.4,26.4-21.4c12.9,0,26.4,7.1,26.4,21.9v24.8
				C277.3,92.9,265.1,100.1,251,100.1z M241.6,12.6c4.2,0,7.6,3.3,7.6,7.5s-3.4,7.6-7.6,7.6c-4.2,0-7.5-3.4-7.5-7.6
				S237.4,12.6,241.6,12.6z M261.7,56.3c0-7.7-5.7-10.5-10.7-10.5c-5.1,0-10.8,2.8-10.8,10.5v19c0,7.7,5.8,10.5,10.8,10.5
				c5.1,0,10.7-2.8,10.7-10.5V56.3z M261,12.6c4.2,0,7.5,3.3,7.5,7.5s-3.3,7.6-7.5,7.6c-4.2,0-7.6-3.4-7.6-7.6S256.8,12.6,261,12.6z
				"/>
			<path class="st0" d="M301.7,59.3h26.8v13.8h-26.8v26.4h-15.5V32.2h47V46h-31.4v13.3C301.8,59.3,301.7,59.3,301.7,59.3z"/>
			<path class="st0" d="M356,59.3h26.8v13.8H356v26.4h-15.5V32.2h47V46h-31.4v13.3C356.1,59.3,356,59.3,356,59.3z"/>
			<g>
				<path class="st0" d="M425.1,71.3c-4.5,3.7-13.8,9.1-15.2,15.2h28.2v13h-43.2V90c0-11.2,6.8-19.1,13.9-24.6
					c7.2-5.4,14.4-9.4,14.4-14.6c0-3.1-2.5-5.7-7.9-5.7c-4,0-8.7,1.4-12.5,4.7l-7.6-11.7c5.3-4.7,13.2-7,21.2-7
					c10.5,0,21.9,4.6,21.9,19.6C438.4,60,430.9,66.5,425.1,71.3z"/>
				<path class="st0" d="M489.2,90v9.4h-14.6V90h-27.7V78.5l21.3-46.7h15.4L463,77.1h11.6V58.3h14.6v18.8h5.4V90H489.2z"/>
			</g>
		</g>
		<g>
			<path class="st1" d="M170.5,134.5v-14.8l-2,1.6l-2-2.6l4.3-3.7h3.3v19.5H170.5z"/>
			<path class="st1" d="M192.9,120.1c0,1.9-1,3.5-2.5,4.2c1.7,0.7,2.6,2.4,2.6,4.3c0,4.3-3.4,6.1-6.4,6.1c-2.3,0-4.5-0.7-5.9-2
				c0.1-0.2,1.7-2.6,1.9-2.9c1,0.9,2.6,1.4,3.8,1.4c1.8,0,2.9-1,2.9-2.6c0-1.5-1.1-2.6-2.6-2.6h-2.3v-3.1h2.3c1.3,0,2.5-1,2.5-2.5
				c0-1.6-1.5-2.2-2.7-2.2s-2.7,0.5-3.8,1.4l-1.9-2.9c1.4-1.3,3.6-2,5.9-2C189.9,114.8,192.9,116.4,192.9,120.1z"/>
			<path class="st1" d="M204.4,128.8v-3.2h9.3v3.2H204.4z"/>
			<path class="st1" d="M233.4,126.1c-1.6,1.2-4.4,2.8-4.7,5.1h8.5v3.2H225v-2.8c0-3.2,2.1-5.3,4.3-6.9c2.1-1.5,4.2-2.9,4.2-4.5
				c0-1.3-1.3-2.1-2.7-2.1c-1.3,0-2.7,0.5-3.7,1.4l-1.9-2.9c1.4-1.3,3.5-2,5.8-2c3.1,0,6.3,1.4,6.3,5.5
				C237.2,122.9,235.1,124.8,233.4,126.1z"/>
			<path class="st1" d="M252.9,129.3c0,3.6-3,5.4-6.2,5.4c-2.4,0-4.3-0.7-5.8-2l1.9-2.9c1.2,1.1,2.5,1.4,3.7,1.4
				c1.1,0,2.7-0.7,2.7-2.5v-2.3c-1.7,0.8-2.7,1.1-3.7,1.1c-3,0-4.9-2.2-4.9-5.3v-2c0-3.6,2.9-5.5,6.1-5.5c3.4,0,6.1,2,6.1,5.6
				L252.9,129.3L252.9,129.3z M246.8,118.1c-1.2,0-2.5,0.7-2.5,2.5v1.3c0,1.5,0.9,2,1.8,2c0.9,0,1.9-0.4,3.1-1.1v-2.3
				C249.2,118.9,247.9,118.1,246.8,118.1z"/>
			<path class="st1" d="M268.2,122.1v12.3h-3.9v-19.5h3.5l4.5,6.7l3.7,5.7h0.1v-12.4h3.9v19.5h-3.5l-5-7.4l-3.2-4.9
				C268.3,122.1,268.2,122.1,268.2,122.1z"/>
			<path class="st1" d="M291.4,134.7c-4.1,0-7.5-2.2-7.5-6.4v-7.2c0-4.2,3.6-6.3,7.5-6.3s7.5,2.3,7.5,6.4v7.1
				C299,132.5,295.6,134.7,291.4,134.7z M295,121.9c0-2.6-1.8-3.5-3.6-3.5c-1.8,0-3.6,1-3.6,3.5v5.7c0,2.6,1.8,3.5,3.6,3.5
				c1.8,0,3.6-1,3.6-3.5V121.9z"/>
			<path class="st1" d="M309.8,128.8l2-6.9l2-6.9h4.1l-6.2,19.5h-4l-6.3-19.5h4.2l2.1,7.1L309.8,128.8L309.8,128.8z"/>
			<path class="st1" d="M336.5,126.1c-1.6,1.2-4.4,2.8-4.7,5.1h8.5v3.2h-12.2v-2.8c0-3.2,2.1-5.3,4.3-6.9c2.1-1.5,4.2-2.9,4.2-4.5
				c0-1.3-1.3-2.1-2.7-2.1c-1.3,0-2.7,0.5-3.7,1.4l-1.9-2.9c1.4-1.3,3.5-2,5.8-2c3.1,0,6.3,1.4,6.3,5.5
				C340.3,122.9,338.2,124.8,336.5,126.1z"/>
			<path class="st1" d="M349.9,134.7c-2.8,0-6.1-1.6-6.1-5.2v-9.4c0-3.5,3.3-5.3,6.1-5.3c2.8,0,6.1,1.7,6.1,5.3v9.4
				C356,133,352.7,134.7,349.9,134.7z M352.4,120.8c0-1.8-1.3-2.5-2.5-2.5s-2.5,0.7-2.5,2.5v7.9c0,1.8,1.4,2.5,2.5,2.5
				c1.2,0,2.5-0.7,2.5-2.5V120.8z"/>
			<path class="st1" d="M368,126.1c-1.6,1.2-4.4,2.8-4.7,5.1h8.5v3.2h-12.2v-2.8c0-3.2,2.1-5.3,4.3-6.9c2.1-1.5,4.2-2.9,4.2-4.5
				c0-1.3-1.3-2.1-2.7-2.1c-1.3,0-2.7,0.5-3.7,1.4l-1.9-2.9c1.4-1.3,3.5-2,5.8-2c3.1,0,6.3,1.4,6.3,5.5
				C371.8,122.9,369.7,124.8,368,126.1z"/>
			<path class="st1" d="M381.3,134.7c-2.8,0-6.1-1.6-6.1-5.2v-9.4c0-3.5,3.3-5.3,6.1-5.3c2.8,0,6.1,1.7,6.1,5.3v9.4
				C387.5,133,384.2,134.7,381.3,134.7z M383.9,120.8c0-1.8-1.3-2.5-2.5-2.5s-2.5,0.7-2.5,2.5v7.9c0,1.8,1.4,2.5,2.5,2.5
				c1.2,0,2.5-0.7,2.5-2.5V120.8z"/>
		</g>
	</g>
	<g>
		<g id="Layer_x0020_1_1_">
			<path class="st2" d="M673.4,36.5c-2.6,0-4.5,2-4.6,4.6c0,2.9,2.2,5.5,5.1,6c0.1,0,0.4,0,0.6,0c2.6,0,4.5-2,4.6-4.6
				c0-2.9-2.2-5.5-5.1-6C673.7,36.5,673.5,36.5,673.4,36.5L673.4,36.5z M725.4,99.5c-2.9,0-6.8-0.4-9.3-2.5
				c-4.4-3.6-3.5-11.2-3.3-11.6c0.6-4.9,3.2-11.2,12.3-13.9c4.2-1.2,8.9-1.5,12-1.6l0,0c0.4,0,1.9,0,2-0.6s-1.2-1.6-1.9-2.2
				c-2.5-1.7-8.6-4.6-22.2-4.6c0,0-1.3,0-1.9,0c-5.8,0-13.4,1-17.4,3.5c-0.9,0.4-1.5,1.2-1.5,1.9c-0.1,1.3,1.2,2.5,1.3,2.6l0,0
				c1.3,0.9,2.6,1.7,3.5,2.2l0.4,0.1c2.2,1,6.1,2.9,8,7c1,2.2,1.5,4.6,1.2,6.8c-1.5,12.6-15.7,12.8-16.3,12.8l0,0
				c-5.8,0-10.2-2.2-12.8-4.1c0,0-4.1-2.5-5.5-7.3c0-0.1-0.3-1-0.3-1.2c-0.1-0.7-0.6-2.3-1-2.3c-0.6,0-1.6,2-1.9,2.5
				c-0.7,1.2-1.5,2.8-1.7,3c-1.6,2.6-5.7,9.3-11.8,9.3c-1.6,0-3.2-0.4-4.9-1.3c-3.9-2.2-5.1-5.4-6.1-8.1c-0.3-0.7-0.4-1.5-0.7-2.2
				c-1-3-1.2-3-3.5-1c-2.2,1.9-4.2,3.9-6.1,5.2c-2.9,2.3-8.7,6.2-15.2,7.1c-1.6,0.1-3.2,0.3-4.8,0.3c-6.1,0-10.4-1.7-13.2-5.1
				c-2.2-2.6-3.9-6-5.1-9.6c-0.7-2.2-0.9-1.9-2.8-2.3c-2.2-0.4-3.8-0.7-6.4-1.3c-1-0.3-2-0.9-2.6-1.9c-0.6-1-0.9-2.2-0.6-3.2
				c0.4-2,2-3.5,4.1-3.5c0.3,0,0.6,0,0.9,0.1c0.4,0.1,0.7,0.1,1.2,0.3c1,0.3,2.9,0.6,3.5,0.7c0.1,0,0.3,0,0.4,0c1.3,0,1.3,0,1.7-1.7
				c0-0.1,0.1-0.4,0.1-0.6c1.9-7.7,7.4-13.6,14.9-16.4c1.9-0.7,4.8-1.3,8.1-1.3c2.9,0,6.8,0.6,9.3,2.6c4.2,3.5,4.2,8.7,3.9,11.5
				c-0.4,3.2-2.5,10.9-12.9,13.9c-3.2,1-7,1.5-12.3,1.6c-0.7,0-1.5,0-1.7,0.4c-0.3,0.7,0.4,1.7,0.4,1.7c1.2,2,3.9,5.2,9.6,5.2
				c1,0,2-0.1,3.2-0.3c5.1-0.9,9.4-3.6,13.1-6.4c2.8-2.2,6.1-5.5,7.7-7.3c0.1-0.1,0.4-0.6,0.9-1.3c0.1-0.4,0.3-0.9,0.3-1.3
				c0-0.6,0-1.2-0.1-1.9c-0.1-0.4-1.3-8.3-1.5-9c-0.7-5.7-0.9-10.3-0.9-13.2c0-0.1,0.1-14.8,9-18.1c0.1,0,1.3-0.4,3.2-0.4
				c3.2,0,6,1.2,7.8,3.3c4.1,4.6,3.9,10.2,3.3,14.2c-1.5,10-4.9,19-10.4,26.7c-1,1.3-0.7,2.8-0.6,2.9c0.7,2.6,1.5,5.5,2.3,8.1
				c0,0.1,1,3,3.2,3.2c1.7,0,5.1-5.1,5.1-5.1c0.1-0.3,7.5-11.2,8.4-21.8c0-0.1,0.1-1.9-0.1-4.4c0,0-0.3-2.5,0.9-3.9
				c0.6-0.7,1.6-1.2,2.8-1.2c4.2,0,4.6,4.9,4.6,5.2c0,0.4,0,0.9,0.1,1.3c0.1,1.5,1.2,14.5,1.7,19.9c0,0.1,1.3,11.5,10.2,11.5
				c0.1,0,0.4,0,0.9,0c5.4,0,8.6-2.2,8.6-5.8c0-0.6,0-2.9-4.8-5.4c-1.5-0.7-4.6-2.6-6.1-3.9l-0.3-0.3c-5.8-4.9-4.1-10.3-3.3-11.8
				c2.5-5.1,8.3-8.4,17.4-9.9c4.4-0.7,8.4-0.7,10.4-0.7c0.7,0,1.2,0,1.3,0c25,0,30.5,9,31.3,10.9c0.6,1.3,1.2,2.6,1.6,4.1
				c0.3,1,0.3,1.5,1.7,1.5c0.7,0,1.3,0.1,1.9,0.1c1.3,0.1,2.2,0.1,4.5,0.6c1,0.1,1.9,0.9,2.5,1.7c0.6,1,0.9,2.2,0.6,3.3
				c-0.4,1.9-2.2,3.3-4.2,3.3c-0.3,0-0.6,0-0.9-0.1c-1.5-0.3-2-0.3-2.8-0.4c-0.1,0-0.4,0-0.7,0c-0.1,0-0.1,0-0.3,0
				c-1.5,0-1.6,0.3-1.7,1.5c-0.3,1.5-0.6,2.8-1.2,4.1c-2.5,6.4-7.5,11.5-14.1,13.9C731.9,98.9,729.2,99.3,725.4,99.5L725.4,99.5z
				 M738.3,78.6c-8.6,0.1-13.1,1.3-15.4,3.8c-1,1.2-1.7,2.5-1.9,4.2c0,0-0.1,1.6,0.7,2.9c0.6,0.9,1.6,1.3,2.9,1.3c0,0,0.1,0,0.3,0
				c1.9,0,11.5-0.4,14.9-9.6c0-0.1,0.6-1.5,0.1-2.2C739.9,78.6,739.2,78.6,738.3,78.6L738.3,78.6L738.3,78.6z M620,62
				c-2.6,0-4.9,1-4.9,1c-4.5,1.9-7.7,4.9-9.1,9c0,0.1-0.7,1.7-0.3,2.3c0.3,0.4,1,0.4,1.7,0.4h0.1c7.7-0.1,13.4-1,16-4.2
				c0.1-0.1,2.3-2.8,2-5.1c-0.1-0.9-0.6-1.7-1.3-2.3C622.9,62.5,621.6,62,620,62L620,62z M647.5,50.3c0,2.6,0.1,6.5,0.6,10.4
				c0.3,2,0.4,3.3,0.6,3.9c0,0.3,0.1,0.3,0.1,0.3c0.1,0,0.1,0,0.3-0.1c0.6-0.6,1.3-2.6,1.7-3.8c1.6-4.1,2.8-8.4,3.5-13.1
				c0.1-0.6,0.7-5.7-0.7-7.7c-0.4-0.6-0.9-1-1.5-1.2c0,0-0.1,0-0.4,0c-1.2,0-3.9,0.9-4.2,7.4C647.7,46.5,647.5,49.5,647.5,50.3
				L647.5,50.3z"/>
		</g>
		<path class="st0" d="M813.9,60.1c-1.4,0-2.9,0.1-4.2,0.3v15.4c1,0.1,2.6,0.3,3.8,0.3c6.1,0,9.3-3.5,9.3-8.2
			C822.9,63.9,819.8,60.1,813.9,60.1 M813.5,78.1c-1.2,0-2.7-0.1-3.7-0.3v10.9h-2.3V58.5c2-0.3,4-0.4,6.3-0.4
			c7.8,0,11.7,4.5,11.7,9.7C825.4,73.8,820.9,78.1,813.5,78.1"/>
		<path class="st0" d="M846.8,54.6c-1,0-1.8-0.8-1.8-1.8c0-0.9,0.8-1.8,1.8-1.8c0.9,0,1.8,0.9,1.8,1.8
			C848.5,53.9,847.7,54.6,846.8,54.6 M839.6,54.6c-0.9,0-1.8-0.8-1.8-1.8c0-0.9,0.8-1.8,1.8-1.8c0.9,0,1.8,0.9,1.8,1.8
			C841.4,53.9,840.7,54.6,839.6,54.6 M843.2,59.9c-7.3,0-12.5,5.9-12.5,13.6S835.9,87,843.2,87c7.3,0,12.5-5.9,12.5-13.6
			C855.8,65.9,850.5,59.9,843.2,59.9 M843.2,89.1c-8.3,0-15-6.5-15-15.6s6.8-15.6,15.1-15.6c8.3,0,15,6.7,15,15.6
			S851.6,89.1,843.2,89.1"/>
		<polygon class="st0" points="865.6,60.4 865.6,72.8 879.1,72.8 879.1,74.9 865.6,74.9 865.6,88.7 863.3,88.7 863.3,58.2 
			880.5,58.2 880.5,60.4 		"/>
		<polygon class="st0" points="887.1,60.4 887.1,72.8 900.6,72.8 900.6,74.9 887.1,74.9 887.1,88.7 884.8,88.7 884.8,58.2 902,58.2 
			902,60.4 		"/>
		<path class="st0" d="M904.7,71.4h2.3v17.3h-2.3V71.4z M905.8,66.5c-0.9,0-1.7-0.8-1.7-1.7c0-0.9,0.6-1.7,1.7-1.7
			c0.9,0,1.7,0.8,1.7,1.7C907.5,65.9,906.7,66.5,905.8,66.5"/>
		<path class="st0" d="M927.1,73.1c-2.4,0-4.4,1-5.6,2.6v9.1c1.4,1.4,3.3,2.3,5.6,2.3c3.7,0,6.4-2.8,6.4-7
			C933.5,76,930.8,73.1,927.1,73.1 M927.1,89.1c-2.2,0-4.1-0.8-5.6-1.8v10.4h-2.3V71.4h2.2v2.2c1.4-1.4,3.5-2.4,6.1-2.4
			c4.7,0,8.3,3.7,8.3,9C935.8,85.2,932.1,89.1,927.1,89.1"/>
		<path class="st0" d="M951.8,78.7c-0.3-3.2-1.9-5.6-5.5-5.6c-3.3,0-5.4,2.3-5.8,5.6H951.8L951.8,78.7z M954,80.5h-13.4
			c0.3,3.7,2.3,6.5,7,6.5c1.7,0,3.3-0.4,5-1c0,0,0.5,2,0.5,1.9c-1.8,0.6-3.8,1.2-5.5,1.2c-6.1,0-9.2-4-9.2-9c0-4.9,3.1-9.1,8.3-9.1
			c4.9,0,7.6,3.6,7.6,8.5C954,79.7,954,80.1,954,80.5"/>
		<path class="st0" d="M967.9,81.4c-1.7-0.9-3.1-1.4-5-1.4c-2.7,0-4.6,1.3-4.6,3.6c0,2.3,1.9,3.6,4.6,3.6c2,0,3.7-0.9,4.9-2.3v-3.5
			H967.9z M968.1,88.7v-1.9c-1.3,1.3-3.3,2.2-5.5,2.2c-3.6,0-6.4-1.9-6.4-5.4c0-3.3,2.8-5.4,6.5-5.4c2.3,0,3.7,0.6,5.2,1.3v-1.5
			c0-3.3-1.4-4.9-5-4.9c-1.4,0-3.2,0.4-4.5,0.9l-0.5-2c1.5-0.6,3.6-1,5.2-1c4.9,0,7,2.3,7,6.9v10.9H968.1L968.1,88.7z"/>
		<path class="st0" d="M978.8,89.1c-2.3,0-4.4-0.9-6-2.2l1.2-1.7c1.4,1.2,3.2,1.9,4.9,1.9c2.3,0,3.6-1.2,3.6-2.9
			c0-4.1-8.6-2.8-8.6-8.3c0-2.4,2-4.9,5.5-4.9c1.8,0,3.6,0.6,5,1.7l-1,1.8c-1.3-0.9-2.6-1.5-4-1.5c-2.3,0-3.5,1.3-3.5,2.7
			c0,4,8.6,2.7,8.6,8.3C984.5,86.6,982.3,89.1,978.8,89.1"/>
		<path class="st0" d="M995.7,73.1c-2.4,0-4.4,1-5.6,2.6v9.1c1.4,1.4,3.3,2.3,5.6,2.3c3.7,0,6.4-2.8,6.4-7
			C1002.1,76,999.4,73.1,995.7,73.1 M995.7,89.1c-2.2,0-4.1-0.8-5.6-1.8v10.4h-2.3V71.4h2.2v2.2c1.4-1.4,3.5-2.4,6.1-2.4
			c4.7,0,8.3,3.7,8.3,9C1004.4,85.2,1000.7,89.1,995.7,89.1"/>
		<path class="st0" d="M1015.6,72.9c-3.7,0-6.3,2.9-6.3,7s2.6,7,6.3,7s6.3-2.9,6.3-7S1019.3,72.9,1015.6,72.9 M1015.6,89.1
			c-5.1,0-8.6-4-8.6-9c0-5,3.6-9,8.6-9c5.1,0,8.6,4,8.6,9C1024.2,85,1020.6,89.1,1015.6,89.1"/>
		<path class="st0" d="M1039.8,88.7V77.6c0-2.9-1.2-4.5-4-4.5c-2.2,0-4.4,1.5-6,3.3v12.3h-2.3V71.4h2.2v2.9c1.7-1.8,4.1-3.3,6.7-3.3
			c4,0,5.8,2.6,5.8,6v11.7H1039.8L1039.8,88.7z"/>
		<path class="st0" d="M1050.8,89.1c-2.3,0-4.4-0.9-6-2.2l1.2-1.7c1.4,1.2,3.2,1.9,4.9,1.9c2.3,0,3.6-1.2,3.6-2.9
			c0-4.1-8.6-2.8-8.6-8.3c0-2.4,2-4.9,5.5-4.9c1.8,0,3.6,0.6,5,1.7l-1,1.8c-1.3-0.9-2.6-1.5-4-1.5c-2.3,0-3.5,1.3-3.5,2.7
			c0,4,8.6,2.7,8.6,8.3C1056.4,86.6,1054.2,89.1,1050.8,89.1"/>
		<path class="st0" d="M1067.6,72.9c-3.8,0-6.3,2.9-6.3,7s2.6,7,6.3,7c3.7,0,6.3-2.9,6.3-7S1071.3,72.9,1067.6,72.9 M1067.6,89.1
			c-5.1,0-8.6-4-8.6-9c0-5,3.6-9,8.6-9c5.1,0,8.6,4,8.6,9C1076.1,85,1072.6,89.1,1067.6,89.1"/>
		<path class="st0" d="M1081.8,76.8v11.9h-2.3V71.4h2.2v3.2c1.5-2.3,3.8-3.7,6.3-3.7v2.3C1085.5,73.3,1083.1,74.5,1081.8,76.8"/>
		<path class="st0" d="M780.6,48.4c0-1.2,1-2.2,2.2-2.2c1.2,0,2.2,1,2.2,2.2v53.5c0,1.2-1,2.2-2.2,2.2c-1.2,0-2.2-1-2.2-2.2V48.4z"
			/>
	</g>
</g>
</svg>
