<?xml version="1.0" encoding="utf-8"?>
<!-- Generator: Adobe Illustrator 24.2.1, SVG Export Plug-In . SVG Version: 6.00 Build 0)  -->
<svg version="1.1" id="Layer_1" xmlns="http://www.w3.org/2000/svg" xmlns:xlink="http://www.w3.org/1999/xlink" x="0px" y="0px"
	 viewBox="0 0 83 50" style="enable-background:new 0 0 83 50;" xml:space="preserve">
<style type="text/css">
	.st0{fill:#FFFFFF;}
</style>
<path class="st0" d="M80.4,31.7c-3.1-2-7.8-1.2-9.3-4.9l-2,1.1c-1.6,0.9-3.1,2.7-5.2,2.4c-0.8-0.1-1.2-1.2-1.2-1.9
	C62.3,25.3,63.4,21,66,19c0.4-0.3,1.1,0.2,1.3,0.8c0,2.3-2.1,4.7-1.1,7.1c1.7-0.2,3.4-1.7,4.7-3.1c0.7-1,1.1-2.7,2.7-2.7
	c0.5,4.5,4.8,4.9,8.6,6.9c0.5,0.2,1,1,0.8,1.8L80.4,31.7"/>
<path class="st0" d="M25.7,28.9c-0.9-1.1-0.4-2.6,0.1-3.9c2.1-4.1,6.5-7.5,11.4-7.6c0.6,0,1.4,0.5,1.5,1.1c0.1,0.3,0.3,0.5,0,0.8
	c-0.4,0.3-0.6,0.4-1,0.7c-0.7,0.6-1.6,1.7-2.9,1.1c-0.1-0.1-0.2-0.4-0.4-0.7c-0.8-0.5-2,0.2-2.6,0.6c-1.3,1.2-2.8,3.2-2.4,5.3
	c0.1,0.6,0.5,1.2,1,1.3c1.8,0.5,3.9-0.2,5.2-1.6l0.3-3.5l3.4-1.7c0.3,0,0.8,0.2,1.1,0.2c0.1,2-0.6,4.9,1.9,6.1l1.8,0.7l0.1,0.3
	c-1.3,1.1-3.6,1.7-5.4,1.2c-1-0.4-1.8-1-2.4-2c-2.6,1.2-5.5,2.9-8.3,2.6C27.2,30.1,26.2,29.7,25.7,28.9"/>
<path class="st0" d="M58.7,31.5c-1.5-0.8-1.8-3.1-2.3-4.8c-0.4-4.3,0.4-8.6,1.7-13c-0.8-0.9-2.5-1-3.6-0.8c-4.9,4.1-10.1-2-14.7,0.3
	c-0.2,0.2-0.4,0.5-0.8,0.5c-0.2-0.2-0.4-0.5-0.6-0.9c0.6-1,1.6-1.9,2.9-2c4.4,1.4,9,2.8,13.5,0.6c1.3-0.2,2.5,0.1,3.8,0.8
	c0.7-1.3,1.3-3.2,2.7-4c0.6-0.1,1,0.5,1.3,1c0.6,1.3-0.9,2.7-0.7,4.1c4.1-0.8,8-0.6,12,1.6c0,0.1,0.4,0.4,0,0.6
	C69.5,14.7,65,13.8,61,15c-1.1,4.8-2,9.7,0.5,14.7C60.9,30.4,59.9,31.1,58.7,31.5L58.7,31.5"/>
<path class="st0" d="M45.4,30c0.1-3.1,0-6.7-1.6-9.8c0.1-0.9,0.6-2.2,1.5-2.8c0.9-0.1,1.6,0.9,2.1,1.4c0.3,0.8,0.8,1.6,1,2.5
	c1.2-1.8,3.6-3.3,6-2.5c0.4,0.4,1.1,0.9,1,1.6l-1.7,1.5c-0.4,0.5-1.1,0.3-1.5,0.9c-0.6-0.1-1.6-0.4-2,0.3l-1.6,4.5L45.4,30"/>
<path class="st0" d="M18.3,41.6l-0.5-0.2c-0.6-1.5,1-3.3,1.8-4.8L21,35c0.9-1,2.9-2.2,4.1-1.2c1.7,1.3,3.6,3.1,6,1.8
	c2.8-1,5.4-3.9,8.4-2.2c1.3,0.7,2.7,2.5,4.4,1.8c2-1.2,4.2-2.6,6.6-1.1c1.4,0.8,3,2.4,4.8,1.6C60,31.5,65,38.5,70,36.4l0.5,0.2
	c0.5,0.6,0.3,1.6,0,2.3c-1,2-3.9,2-5.8,2.1c-5.1-4.5-10.8,1.2-15.6-2.5c-1.1-0.9-2.4-0.9-3.3-0.3c-1.9,1.1-3.8,2.3-6.1,0.8
	c-1.2-1-2.9-2.3-4.7-1.3c-2.7,1.6-6,3.8-9,2.4L23.2,38c-1.5-1.2-3.1,1.9-4.1,3.5L18.3,41.6"/>
<path class="st0" d="M14.8,49.8h-1.2v-1.9c0-0.2,0-0.3,0-0.5s0-0.3-0.1-0.3c0-0.1-0.1-0.2-0.2-0.2c-0.1-0.1-0.2-0.1-0.3-0.1
	s-0.2,0-0.3,0.1c-0.1,0-0.2,0.1-0.3,0.2v2.8h-1.2v-5.5h1.2v1.9c0.2-0.2,0.4-0.3,0.6-0.4c0.2-0.1,0.4-0.1,0.6-0.1
	c0.4,0,0.7,0.1,0.9,0.4c0.2,0.2,0.3,0.6,0.3,1.1V49.8"/>
<path class="st0" d="M17.4,49.9c-0.6,0-1-0.2-1.4-0.5s-0.6-0.9-0.6-1.5s0.2-1.2,0.6-1.5c0.3-0.4,0.8-0.6,1.4-0.6v0.8
	c-0.2,0-0.4,0.1-0.5,0.2c-0.1,0.1-0.2,0.3-0.2,0.6h0.7v0.7h-0.7c0,0.2,0.1,0.3,0.1,0.5c0.1,0.1,0.2,0.2,0.2,0.3
	c0.1,0.1,0.2,0.1,0.4,0.2V49.9 M17.4,45.7c0.1,0,0.1,0,0.2,0c0.6,0,1,0.2,1.4,0.5c0.3,0.3,0.5,0.8,0.5,1.4v0.5h-2v-0.7h0.7
	c0-0.3-0.1-0.5-0.2-0.6s-0.3-0.2-0.5-0.2l0,0v-0.9H17.4z M17.8,49.9c-0.1,0-0.2,0-0.3,0V49c0.2,0,0.3,0.1,0.5,0.1s0.3,0,0.4-0.1
	c0.1,0,0.3-0.1,0.4-0.1s0.2-0.1,0.3-0.1c0.1-0.1,0.2-0.1,0.2-0.2h0.1v1c-0.1,0-0.2,0.1-0.3,0.1c-0.1,0-0.2,0.1-0.3,0.1
	c-0.1,0-0.3,0.1-0.4,0.1C18.1,49.9,18,49.9,17.8,49.9z"/>
<path class="st0" d="M21.6,45.7v0.9c-0.1,0-0.2,0-0.3,0c-0.2,0-0.3,0-0.5,0.1s-0.4,0.1-0.6,0.2H20v-1c0.1,0,0.3-0.1,0.6-0.1
	c0.3-0.1,0.6-0.1,0.8-0.1C21.5,45.7,21.6,45.7,21.6,45.7 M21.6,48c-0.1,0-0.2,0.1-0.3,0.1c-0.1,0-0.2,0.1-0.2,0.2
	C21,48.4,21,48.4,21,48.6c0,0.2,0.1,0.3,0.2,0.4c0.1,0.1,0.2,0.1,0.4,0.1l0,0v0.7c-0.1,0-0.2,0.1-0.2,0.1c-0.1,0-0.2,0.1-0.4,0.1
	c-0.3,0-0.6-0.1-0.9-0.4c-0.2-0.2-0.3-0.5-0.3-0.9c0-0.3,0.1-0.5,0.2-0.7s0.3-0.3,0.5-0.4c0.2-0.1,0.5-0.2,0.8-0.2
	c0.1,0,0.2,0,0.4,0V48H21.6z M22.2,48.8V48c-0.2,0-0.4,0-0.5,0.1h-0.1v-0.7c0.2,0,0.4,0,0.6-0.1l0,0c0-0.2-0.1-0.4-0.2-0.4
	c-0.1-0.1-0.2-0.1-0.4-0.1v-0.9c0.6,0,1.1,0.2,1.4,0.3c0.3,0.2,0.5,0.6,0.5,1v2.7h-1.2v-0.4c-0.1,0.1-0.2,0.1-0.2,0.2
	c-0.1,0.1-0.2,0.1-0.2,0.2c-0.1,0-0.1,0-0.1,0.1v-0.7c0.1,0,0.2,0,0.3-0.1C22,48.9,22.1,48.9,22.2,48.8z"/>
<path class="st0" d="M26,49.8c0,0-0.1,0-0.1,0.1c-0.1,0-0.2,0-0.4,0c-0.4,0-0.8-0.2-1-0.6c-0.3-0.4-0.4-0.9-0.4-1.5
	c0-0.3,0-0.6,0.1-0.9c0.1-0.2,0.2-0.5,0.4-0.6c0.2-0.2,0.3-0.3,0.5-0.4c0.2-0.1,0.4-0.1,0.6-0.1c0.1,0,0.2,0,0.3,0v0.9
	c-0.2,0-0.3,0.2-0.5,0.3c-0.2,0.2-0.2,0.5-0.2,0.9s0.1,0.6,0.2,0.8s0.3,0.2,0.5,0.2V49.8 M27.9,49.8h-1.2v-0.4
	c-0.1,0.1-0.2,0.1-0.3,0.2c-0.1,0.1-0.2,0.1-0.3,0.2c-0.1,0-0.1,0.1-0.2,0.1V49H26c0.1,0,0.2,0,0.3-0.1c0.1,0,0.2-0.1,0.3-0.2v-1.9
	c-0.1,0-0.2-0.1-0.2-0.1c-0.1,0-0.2,0-0.2,0c-0.1,0-0.2,0-0.2,0v-0.9c0.1,0,0.2,0,0.2,0.1c0.1,0,0.3,0.1,0.5,0.2v-1.7h1.2
	C27.9,44.4,27.9,49.8,27.9,49.8z"/>
<path class="st0" d="M30.6,49.9c-0.6,0-1-0.2-1.4-0.5s-0.6-0.9-0.6-1.5s0.2-1.2,0.6-1.5c0.3-0.4,0.8-0.6,1.4-0.6v0.8
	c-0.2,0-0.4,0.1-0.5,0.2c-0.1,0.1-0.2,0.3-0.2,0.6h0.7v0.7h-0.7c0,0.2,0,0.3,0.1,0.5c0.1,0.1,0.1,0.2,0.2,0.3s0.2,0.1,0.4,0.2V49.9
	 M30.6,45.7h0.1c0.6,0,1.1,0.2,1.4,0.5c0.3,0.3,0.5,0.8,0.5,1.4v0.5h-1.9v-0.7h0.7c0-0.3-0.1-0.5-0.2-0.6s-0.3-0.2-0.5-0.2l0,0v-0.9
	H30.6z M30.9,49.9c-0.1,0-0.2,0-0.3,0V49c0.1,0,0.3,0.1,0.5,0.1s0.3,0,0.4-0.1c0.1,0,0.2-0.1,0.4-0.1c0.1,0,0.2-0.1,0.3-0.1
	c0.1-0.1,0.2-0.1,0.2-0.2h0.1v1c-0.1,0-0.2,0.1-0.3,0.1s-0.2,0.1-0.3,0.1c-0.1,0-0.3,0.1-0.4,0.1C31.3,49.9,31.1,49.9,30.9,49.9z"/>
<path class="st0" d="M40,49.8v-2c0-0.2,0-0.3,0-0.5c0-0.1,0-0.2-0.1-0.3c0-0.1-0.1-0.2-0.2-0.2c-0.1-0.1-0.2-0.1-0.3-0.1
	s-0.2,0-0.3,0.1c-0.1,0-0.2,0.1-0.3,0.2v2.8h-1.2v-2c0-0.2,0-0.3,0-0.5c0-0.1,0-0.2-0.1-0.3c0-0.1-0.1-0.2-0.2-0.2
	c-0.1-0.1-0.2-0.1-0.3-0.1s-0.2,0-0.3,0.1s-0.2,0.1-0.3,0.2v2.8h-1.2v-3.9h1.2v0.4c0.2-0.2,0.4-0.3,0.6-0.4c0.2-0.1,0.4-0.1,0.6-0.1
	c0.2,0,0.5,0,0.6,0.2c0.2,0.1,0.3,0.3,0.4,0.5c0.2-0.2,0.5-0.4,0.7-0.5s0.4-0.2,0.6-0.2c0.2,0,0.3,0,0.5,0.1s0.3,0.2,0.4,0.3
	c0.1,0.1,0.2,0.3,0.2,0.5c0.1,0.2,0.1,0.4,0.1,0.7V50H40"/>
<path class="st0" d="M43.8,44.3V45l0,0c-0.1,0-0.1-0.1-0.2-0.1c-0.1-0.1-0.2-0.1-0.2-0.1c-0.1,0-0.2,0-0.2,0.1s-0.1,0.2-0.1,0.3
	h-0.7c0-0.3,0.1-0.6,0.3-0.8s0.4-0.3,0.7-0.3c0.1,0,0.2,0,0.3,0.1C43.7,44.3,43.8,44.3,43.8,44.3 M43.8,49.9c-0.6,0-1.1-0.2-1.5-0.6
	c-0.3-0.4-0.5-0.9-0.5-1.5s0.2-1.2,0.5-1.5c0.4-0.4,0.9-0.6,1.5-0.6v0.9c-0.1,0-0.2,0-0.3,0s-0.2,0.1-0.2,0.2
	c-0.1,0.1-0.1,0.2-0.2,0.4C43,47.4,43,47.6,43,47.8c0,0.2,0,0.5,0.1,0.6c0,0.2,0.1,0.3,0.2,0.4c0.1,0.1,0.2,0.2,0.2,0.2
	c0.1,0,0.2,0.1,0.3,0.1V49.9z M43.8,45.1v-0.7l0,0c0.1,0.1,0.2,0.1,0.2,0.1c0.1,0.1,0.2,0.1,0.2,0.1c0.1,0,0.2-0.1,0.2-0.1
	c0.1-0.1,0.1-0.2,0.1-0.3h0.7c0,0.4-0.1,0.7-0.3,0.9s-0.4,0.3-0.7,0.3c-0.1,0-0.2,0-0.3-0.1C44,45.2,43.9,45.1,43.8,45.1z
	 M45.9,47.8c0,0.6-0.2,1.2-0.5,1.5c-0.4,0.4-0.9,0.6-1.5,0.6V49c0.1,0,0.2,0,0.3-0.1s0.2-0.1,0.2-0.2c0.1-0.1,0.1-0.2,0.2-0.3
	c0.1-0.2,0.1-0.3,0.1-0.6c0-0.2,0-0.4-0.1-0.6c0-0.2-0.1-0.3-0.2-0.4c-0.1-0.1-0.2-0.2-0.2-0.2c-0.1-0.1-0.2-0.1-0.3-0.1v-0.9
	c0.6,0,1.1,0.2,1.5,0.6C45.7,46.7,45.9,47.2,45.9,47.8z"/>
<path class="st0" d="M48,49.9c-0.5,0-0.9-0.1-1.1-0.3c-0.2-0.2-0.3-0.6-0.3-1v-1.9h-0.5v-0.9h0.5v-1.1h1.2v1.1H49v0.9h-1.2v1.4
	c0,0.2,0,0.3,0,0.4c0,0.1,0,0.2,0.1,0.3c0,0.1,0.1,0.2,0.2,0.2c0.1,0.1,0.2,0.1,0.4,0.1c0.1,0,0.2,0,0.2-0.1c0.1,0,0.2,0,0.2-0.1H49
	v0.9c-0.1,0-0.3,0.1-0.4,0.1C48.4,49.9,48.3,49.9,48,49.9"/>
<path class="st0" d="M51.2,49.9c-0.6,0-1-0.2-1.4-0.5s-0.6-0.9-0.6-1.5s0.2-1.2,0.6-1.5c0.3-0.4,0.8-0.6,1.4-0.6v0.8
	c-0.2,0-0.4,0.1-0.5,0.2c-0.1,0.1-0.2,0.3-0.2,0.6h0.7v0.7h-0.7c0,0.2,0.1,0.3,0.1,0.5c0.1,0.1,0.2,0.2,0.2,0.3
	c0.1,0.1,0.2,0.1,0.4,0.2V49.9 M51.2,45.7c0.1,0,0.1,0,0.2,0c0.6,0,1,0.2,1.4,0.5c0.3,0.3,0.5,0.8,0.5,1.4v0.5h-2v-0.7H52
	c0-0.3-0.1-0.5-0.2-0.6c-0.1-0.1-0.3-0.2-0.5-0.2l0,0L51.2,45.7L51.2,45.7z M51.6,49.9c-0.1,0-0.2,0-0.3,0V49c0.2,0,0.3,0.1,0.5,0.1
	s0.3,0,0.4-0.1c0.1,0,0.3-0.1,0.4-0.1c0.1,0,0.2-0.1,0.3-0.1c0.1-0.1,0.2-0.1,0.2-0.2h0.1v1c-0.1,0-0.2,0.1-0.3,0.1
	s-0.2,0.1-0.3,0.1s-0.3,0.1-0.4,0.1C51.9,49.9,51.8,49.9,51.6,49.9z"/>
<path class="st0" d="M55.3,49.9c-0.5,0-0.9-0.1-1.1-0.3c-0.2-0.2-0.3-0.6-0.3-1v-1.9h-0.5v-0.9h0.5v-1.1h1.2v1.1h1.2v0.9h-1.2v1.4
	c0,0.2,0,0.3,0,0.4c0,0.1,0,0.2,0,0.3c0.1,0.1,0.1,0.2,0.2,0.2c0.1,0.1,0.2,0.1,0.4,0.1c0.1,0,0.2,0,0.2-0.1c0.1,0,0.2,0,0.2-0.1
	h0.1v0.9c-0.1,0-0.3,0.1-0.4,0.1C55.7,49.9,55.5,49.9,55.3,49.9"/>
<path class="st0" d="M58.5,49.9c-0.6,0-1-0.2-1.4-0.5s-0.6-0.9-0.6-1.5s0.2-1.2,0.6-1.5c0.3-0.4,0.8-0.6,1.4-0.6v0.8
	c-0.2,0-0.4,0.1-0.5,0.2c-0.1,0.1-0.2,0.3-0.2,0.6h0.7v0.7h-0.7c0,0.2,0.1,0.3,0.1,0.5c0.1,0.1,0.2,0.2,0.2,0.3
	c0.1,0.1,0.2,0.1,0.4,0.2V49.9 M58.5,45.7C58.6,45.7,58.6,45.7,58.5,45.7c0.7,0,1.2,0.2,1.5,0.5c0.3,0.3,0.5,0.8,0.5,1.4v0.5h-2
	v-0.7h0.7c0-0.3-0.1-0.5-0.2-0.6c-0.1-0.1-0.3-0.2-0.5-0.2l0,0V45.7z M58.8,49.9c-0.1,0-0.2,0-0.3,0V49c0.2,0,0.3,0.1,0.5,0.1
	s0.3,0,0.4-0.1c0.1,0,0.3-0.1,0.4-0.1c0.1,0,0.2-0.1,0.3-0.1c0.1-0.1,0.2-0.1,0.2-0.2h0.1v1c-0.1,0-0.2,0.1-0.3,0.1
	s-0.2,0.1-0.3,0.1s-0.3,0.1-0.4,0.1C59.2,49.9,59.1,49.9,58.8,49.9z"/>
<rect x="63.2" y="44.3" class="st0" width="1.2" height="5.5"/>
<path class="st0" d="M66.6,45.3h-1.3v-1h1.3V45.3 M66.6,49.8h-1.2v-3.9h1.2V49.8z"/>
<path class="st0" d="M71.3,49.8H70v-1.9c0-0.2,0-0.3,0-0.5s0-0.3-0.1-0.3c-0.1-0.1-0.1-0.2-0.2-0.2c-0.1-0.1-0.2-0.1-0.3-0.1
	c-0.1,0-0.2,0-0.3,0.1c-0.1,0-0.2,0.1-0.3,0.2v2.8h-1.2V46h1.2v0.4c0.2-0.2,0.4-0.3,0.6-0.4c0.2-0.1,0.4-0.1,0.6-0.1
	c0.4,0,0.7,0.1,0.9,0.4c0.2,0.2,0.3,0.6,0.3,1.1v2.4"/>
<path class="st0" d="M75.9,49.8h-1.2v-1.9c0-0.2,0-0.3,0-0.5s0-0.3-0.1-0.3c0-0.1-0.1-0.2-0.2-0.2c-0.1-0.1-0.2-0.1-0.3-0.1
	c-0.1,0-0.2,0-0.3,0.1c-0.1,0-0.2,0.1-0.3,0.2v2.8h-1.2V46h1.2v0.4c0.2-0.2,0.4-0.3,0.6-0.4c0.2-0.1,0.4-0.1,0.6-0.1
	c0.4,0,0.7,0.1,0.9,0.4c0.2,0.2,0.3,0.6,0.3,1.1V49.8"/>
<path class="st0" d="M16.5,32.4c-0.7,0-1.1-0.9-1.3-1.5c-1.1-6.8-0.2-13.8-0.9-20.6c-1-1-2.6-1.2-4-0.7c-0.9,0.3-1.9,0.9-2.2,2
	c-0.1,1,0.1,1.9,0.9,2.5c0.6,0.5,1.6,1,2.6,0.5c0.7-0.7,1.3-1.8,0.6-2.7c-0.2-0.3-0.8-0.2-1.1,0.1c-0.3,0.2-0.4,0.8-0.5,1.2
	c-0.4,0.2-0.8,0.1-1.2-0.2c-0.2-1.1,0.3-2.3,1.2-3c0.5,0.3,1,0.1,1.6,0.4c0.9,0.5,1.5,1.6,1.5,2.7c0.1,0.9-0.5,1.9-1.2,2.5
	c-0.9,0.7-2.2,0.9-3.3,0.7c-1.5-0.6-3-2-3-3.8c0-1.7,1-3.1,2.3-4c1.6-0.7,3.3-1.1,5.1-0.4L14,8.3c0.3-0.2,0-0.9,0-1.4
	c0.1-0.4,0.4-0.5,0.9-0.8L8.2,7.7C5.5,8.3,2.4,10.5,0,9.5l0.9-4.3c8.3-3.7,19.9-5.5,28.2-5C29.9,0.6,29.6,2,30,2.9
	c-0.3,0.6,0.6,1.2,0,2l-9,0.5c0.2,0.2,0.2,0.2,0.3,0.2c0.3,0.5,0.3,1.8,1,1.9c1.4-1.2,3.4-1.4,5.2-1c1.1,0.6,2,1.1,2.4,2.3
	c0.2,1.5-0.2,3.4-1.6,4.3c-1,0.5-2.2,0.5-3.3,0c-0.7-0.4-1.5-1.1-1.7-2.2c0.1-0.8,0.2-1.5,1.1-1.9c0.4-0.4,1.2-0.4,1.8-0.3
	c0.8,0.4,1.5,1.2,1,1.9L27,10.8c-0.3-0.2-0.8-0.1-1-0.7C25.9,10,25.7,10,25.3,10c-0.3,0.1-0.8,0.7-0.5,1.4c0.3,0.5,1,1.1,1.9,1.1
	c0.2,0,0.5-0.1,0.7-0.2c1.1-0.6,1.7-2,1.1-3.4c-0.4-0.9-1.9-1.5-3.1-1.2c-1,0.2-1.7,0.7-2.4,1.4c-0.1,0.2,0,0.4-0.1,0.7
	c-0.7,6.5-0.5,13.3,0.4,20c0,0.1,0.1,0.3,0.3,0.5c-0.2,0.3-0.7,0.5-1.3,0.7L19.9,3.4l-1,0.1l2.4,27.7c-0.3,0.1-0.6,0.2-1,0.2
	L17.9,3.6l-1.1,0.1l2.5,28c-0.4,0.1-0.7,0.2-1,0.2L15.8,3.8l-0.9,0.1l2.5,28.2c-0.3,0.1-0.5,0.2-0.6,0.2L16.5,32.4"/>
</svg>
